<?xml version="1.0" encoding="utf-8" standalone="no"?>
<!DOCTYPE svg PUBLIC "-//W3C//DTD SVG 1.1//EN"
  "http://www.w3.org/Graphics/SVG/1.1/DTD/svg11.dtd">
<svg xmlns:xlink="http://www.w3.org/1999/xlink" width="360pt" height="432pt" viewBox="0 0 360 432" xmlns="http://www.w3.org/2000/svg" version="1.1">
 <metadata>
  <rdf:RDF xmlns:dc="http://purl.org/dc/elements/1.1/" xmlns:cc="http://creativecommons.org/ns#" xmlns:rdf="http://www.w3.org/1999/02/22-rdf-syntax-ns#">
   <cc:Work>
    <dc:type rdf:resource="http://purl.org/dc/dcmitype/StillImage"/>
    <dc:date>2026-04-01T14:04:28.531946</dc:date>
    <dc:format>image/svg+xml</dc:format>
    <dc:creator>
     <cc:Agent>
      <dc:title>Matplotlib v3.6.3, https://matplotlib.org/</dc:title>
     </cc:Agent>
    </dc:creator>
   </cc:Work>
  </rdf:RDF>
 </metadata>
 <defs>
  <style type="text/css">*{stroke-linejoin: round; stroke-linecap: butt}</style>
 </defs>
 <g id="figure_1">
  <g id="patch_1">
   <path d="M 0 432 
L 360 432 
L 360 0 
L 0 0 
z
" style="fill: #ffffff"/>
  </g>
  <g id="axes_1">
   <g id="patch_2">
    <path d="M 54 388.8 
L 334.8 388.8 
L 334.8 17.28 
L 54 17.28 
z
" style="fill: #ffffff"/>
   </g>
   <g id="matplotlib.axis_1">
    <g id="xtick_1">
     <g id="line2d_1">
      <path d="M 54 388.8 
L 54 17.28 
" clip-path="url(#p3e3a5685e3)" style="fill: none; stroke: #000000; stroke-opacity: 0.1; stroke-width: 0.7; stroke-linecap: square"/>
     </g>
     <g id="line2d_2">
      <defs>
       <path id="madcd18abff" d="M 0 0 
L 0 3.5 
" style="stroke: #000000; stroke-width: 0.8"/>
      </defs>
      <g>
       <use xlink:href="#madcd18abff" x="54" y="388.8" style="stroke: #000000; stroke-width: 0.8"/>
      </g>
     </g>
     <g id="text_1">
      <!-- 0.00 -->
      <g transform="translate(39.527344 405.677969) scale(0.13 -0.13)">
       <defs>
        <path id="DejaVuSans-30" d="M 2034 4250 
Q 1547 4250 1301 3770 
Q 1056 3291 1056 2328 
Q 1056 1369 1301 889 
Q 1547 409 2034 409 
Q 2525 409 2770 889 
Q 3016 1369 3016 2328 
Q 3016 3291 2770 3770 
Q 2525 4250 2034 4250 
z
M 2034 4750 
Q 2819 4750 3233 4129 
Q 3647 3509 3647 2328 
Q 3647 1150 3233 529 
Q 2819 -91 2034 -91 
Q 1250 -91 836 529 
Q 422 1150 422 2328 
Q 422 3509 836 4129 
Q 1250 4750 2034 4750 
z
" transform="scale(0.015625)"/>
        <path id="DejaVuSans-2e" d="M 684 794 
L 1344 794 
L 1344 0 
L 684 0 
L 684 794 
z
" transform="scale(0.015625)"/>
       </defs>
       <use xlink:href="#DejaVuSans-30"/>
       <use xlink:href="#DejaVuSans-2e" x="63.623047"/>
       <use xlink:href="#DejaVuSans-30" x="95.410156"/>
       <use xlink:href="#DejaVuSans-30" x="159.033203"/>
      </g>
     </g>
    </g>
    <g id="xtick_2">
     <g id="line2d_3">
      <path d="M 194.4 388.8 
L 194.4 17.28 
" clip-path="url(#p3e3a5685e3)" style="fill: none; stroke: #000000; stroke-opacity: 0.1; stroke-width: 0.7; stroke-linecap: square"/>
     </g>
     <g id="line2d_4">
      <g>
       <use xlink:href="#madcd18abff" x="194.4" y="388.8" style="stroke: #000000; stroke-width: 0.8"/>
      </g>
     </g>
     <g id="text_2">
      <!-- 0.25 -->
      <g transform="translate(179.927344 405.677969) scale(0.13 -0.13)">
       <defs>
        <path id="DejaVuSans-32" d="M 1228 531 
L 3431 531 
L 3431 0 
L 469 0 
L 469 531 
Q 828 903 1448 1529 
Q 2069 2156 2228 2338 
Q 2531 2678 2651 2914 
Q 2772 3150 2772 3378 
Q 2772 3750 2511 3984 
Q 2250 4219 1831 4219 
Q 1534 4219 1204 4116 
Q 875 4013 500 3803 
L 500 4441 
Q 881 4594 1212 4672 
Q 1544 4750 1819 4750 
Q 2544 4750 2975 4387 
Q 3406 4025 3406 3419 
Q 3406 3131 3298 2873 
Q 3191 2616 2906 2266 
Q 2828 2175 2409 1742 
Q 1991 1309 1228 531 
z
" transform="scale(0.015625)"/>
        <path id="DejaVuSans-35" d="M 691 4666 
L 3169 4666 
L 3169 4134 
L 1269 4134 
L 1269 2991 
Q 1406 3038 1543 3061 
Q 1681 3084 1819 3084 
Q 2600 3084 3056 2656 
Q 3513 2228 3513 1497 
Q 3513 744 3044 326 
Q 2575 -91 1722 -91 
Q 1428 -91 1123 -41 
Q 819 9 494 109 
L 494 744 
Q 775 591 1075 516 
Q 1375 441 1709 441 
Q 2250 441 2565 725 
Q 2881 1009 2881 1497 
Q 2881 1984 2565 2268 
Q 2250 2553 1709 2553 
Q 1456 2553 1204 2497 
Q 953 2441 691 2322 
L 691 4666 
z
" transform="scale(0.015625)"/>
       </defs>
       <use xlink:href="#DejaVuSans-30"/>
       <use xlink:href="#DejaVuSans-2e" x="63.623047"/>
       <use xlink:href="#DejaVuSans-32" x="95.410156"/>
       <use xlink:href="#DejaVuSans-35" x="159.033203"/>
      </g>
     </g>
    </g>
    <g id="xtick_3">
     <g id="line2d_5">
      <path d="M 334.8 388.8 
L 334.8 17.28 
" clip-path="url(#p3e3a5685e3)" style="fill: none; stroke: #000000; stroke-opacity: 0.1; stroke-width: 0.7; stroke-linecap: square"/>
     </g>
     <g id="line2d_6">
      <g>
       <use xlink:href="#madcd18abff" x="334.8" y="388.8" style="stroke: #000000; stroke-width: 0.8"/>
      </g>
     </g>
     <g id="text_3">
      <!-- 0.50 -->
      <g transform="translate(320.327344 405.677969) scale(0.13 -0.13)">
       <use xlink:href="#DejaVuSans-30"/>
       <use xlink:href="#DejaVuSans-2e" x="63.623047"/>
       <use xlink:href="#DejaVuSans-35" x="95.410156"/>
       <use xlink:href="#DejaVuSans-30" x="159.033203"/>
      </g>
     </g>
    </g>
    <g id="text_4">
     <!-- Attack Ratio -->
     <g transform="translate(145.78375 424.539062) scale(0.16 -0.16)">
      <defs>
       <path id="DejaVuSans-41" d="M 2188 4044 
L 1331 1722 
L 3047 1722 
L 2188 4044 
z
M 1831 4666 
L 2547 4666 
L 4325 0 
L 3669 0 
L 3244 1197 
L 1141 1197 
L 716 0 
L 50 0 
L 1831 4666 
z
" transform="scale(0.015625)"/>
       <path id="DejaVuSans-74" d="M 1172 4494 
L 1172 3500 
L 2356 3500 
L 2356 3053 
L 1172 3053 
L 1172 1153 
Q 1172 725 1289 603 
Q 1406 481 1766 481 
L 2356 481 
L 2356 0 
L 1766 0 
Q 1100 0 847 248 
Q 594 497 594 1153 
L 594 3053 
L 172 3053 
L 172 3500 
L 594 3500 
L 594 4494 
L 1172 4494 
z
" transform="scale(0.015625)"/>
       <path id="DejaVuSans-61" d="M 2194 1759 
Q 1497 1759 1228 1600 
Q 959 1441 959 1056 
Q 959 750 1161 570 
Q 1363 391 1709 391 
Q 2188 391 2477 730 
Q 2766 1069 2766 1631 
L 2766 1759 
L 2194 1759 
z
M 3341 1997 
L 3341 0 
L 2766 0 
L 2766 531 
Q 2569 213 2275 61 
Q 1981 -91 1556 -91 
Q 1019 -91 701 211 
Q 384 513 384 1019 
Q 384 1609 779 1909 
Q 1175 2209 1959 2209 
L 2766 2209 
L 2766 2266 
Q 2766 2663 2505 2880 
Q 2244 3097 1772 3097 
Q 1472 3097 1187 3025 
Q 903 2953 641 2809 
L 641 3341 
Q 956 3463 1253 3523 
Q 1550 3584 1831 3584 
Q 2591 3584 2966 3190 
Q 3341 2797 3341 1997 
z
" transform="scale(0.015625)"/>
       <path id="DejaVuSans-63" d="M 3122 3366 
L 3122 2828 
Q 2878 2963 2633 3030 
Q 2388 3097 2138 3097 
Q 1578 3097 1268 2742 
Q 959 2388 959 1747 
Q 959 1106 1268 751 
Q 1578 397 2138 397 
Q 2388 397 2633 464 
Q 2878 531 3122 666 
L 3122 134 
Q 2881 22 2623 -34 
Q 2366 -91 2075 -91 
Q 1284 -91 818 406 
Q 353 903 353 1747 
Q 353 2603 823 3093 
Q 1294 3584 2113 3584 
Q 2378 3584 2631 3529 
Q 2884 3475 3122 3366 
z
" transform="scale(0.015625)"/>
       <path id="DejaVuSans-6b" d="M 581 4863 
L 1159 4863 
L 1159 1991 
L 2875 3500 
L 3609 3500 
L 1753 1863 
L 3688 0 
L 2938 0 
L 1159 1709 
L 1159 0 
L 581 0 
L 581 4863 
z
" transform="scale(0.015625)"/>
       <path id="DejaVuSans-20" transform="scale(0.015625)"/>
       <path id="DejaVuSans-52" d="M 2841 2188 
Q 3044 2119 3236 1894 
Q 3428 1669 3622 1275 
L 4263 0 
L 3584 0 
L 2988 1197 
Q 2756 1666 2539 1819 
Q 2322 1972 1947 1972 
L 1259 1972 
L 1259 0 
L 628 0 
L 628 4666 
L 2053 4666 
Q 2853 4666 3247 4331 
Q 3641 3997 3641 3322 
Q 3641 2881 3436 2590 
Q 3231 2300 2841 2188 
z
M 1259 4147 
L 1259 2491 
L 2053 2491 
Q 2509 2491 2742 2702 
Q 2975 2913 2975 3322 
Q 2975 3731 2742 3939 
Q 2509 4147 2053 4147 
L 1259 4147 
z
" transform="scale(0.015625)"/>
       <path id="DejaVuSans-69" d="M 603 3500 
L 1178 3500 
L 1178 0 
L 603 0 
L 603 3500 
z
M 603 4863 
L 1178 4863 
L 1178 4134 
L 603 4134 
L 603 4863 
z
" transform="scale(0.015625)"/>
       <path id="DejaVuSans-6f" d="M 1959 3097 
Q 1497 3097 1228 2736 
Q 959 2375 959 1747 
Q 959 1119 1226 758 
Q 1494 397 1959 397 
Q 2419 397 2687 759 
Q 2956 1122 2956 1747 
Q 2956 2369 2687 2733 
Q 2419 3097 1959 3097 
z
M 1959 3584 
Q 2709 3584 3137 3096 
Q 3566 2609 3566 1747 
Q 3566 888 3137 398 
Q 2709 -91 1959 -91 
Q 1206 -91 779 398 
Q 353 888 353 1747 
Q 353 2609 779 3096 
Q 1206 3584 1959 3584 
z
" transform="scale(0.015625)"/>
      </defs>
      <use xlink:href="#DejaVuSans-41"/>
      <use xlink:href="#DejaVuSans-74" x="66.658203"/>
      <use xlink:href="#DejaVuSans-74" x="105.867188"/>
      <use xlink:href="#DejaVuSans-61" x="145.076172"/>
      <use xlink:href="#DejaVuSans-63" x="206.355469"/>
      <use xlink:href="#DejaVuSans-6b" x="261.335938"/>
      <use xlink:href="#DejaVuSans-20" x="319.246094"/>
      <use xlink:href="#DejaVuSans-52" x="351.033203"/>
      <use xlink:href="#DejaVuSans-61" x="418.265625"/>
      <use xlink:href="#DejaVuSans-74" x="479.544922"/>
      <use xlink:href="#DejaVuSans-69" x="518.753906"/>
      <use xlink:href="#DejaVuSans-6f" x="546.537109"/>
     </g>
    </g>
   </g>
   <g id="matplotlib.axis_2">
    <g id="ytick_1">
     <g id="line2d_7">
      <path d="M 54 388.8 
L 334.8 388.8 
" clip-path="url(#p3e3a5685e3)" style="fill: none; stroke: #000000; stroke-opacity: 0.1; stroke-width: 0.7; stroke-linecap: square"/>
     </g>
     <g id="line2d_8">
      <defs>
       <path id="m94598658ab" d="M 0 0 
L -3.5 0 
" style="stroke: #000000; stroke-width: 0.8"/>
      </defs>
      <g>
       <use xlink:href="#m94598658ab" x="54" y="388.8" style="stroke: #000000; stroke-width: 0.8"/>
      </g>
     </g>
     <g id="text_5">
      <!-- 0.0 -->
      <g transform="translate(26.325937 393.738984) scale(0.13 -0.13)">
       <use xlink:href="#DejaVuSans-30"/>
       <use xlink:href="#DejaVuSans-2e" x="63.623047"/>
       <use xlink:href="#DejaVuSans-30" x="95.410156"/>
      </g>
     </g>
    </g>
    <g id="ytick_2">
     <g id="line2d_9">
      <path d="M 54 351.648 
L 334.8 351.648 
" clip-path="url(#p3e3a5685e3)" style="fill: none; stroke: #000000; stroke-opacity: 0.1; stroke-width: 0.7; stroke-linecap: square"/>
     </g>
     <g id="line2d_10">
      <g>
       <use xlink:href="#m94598658ab" x="54" y="351.648" style="stroke: #000000; stroke-width: 0.8"/>
      </g>
     </g>
     <g id="text_6">
      <!-- 0.1 -->
      <g transform="translate(26.325937 356.586984) scale(0.13 -0.13)">
       <defs>
        <path id="DejaVuSans-31" d="M 794 531 
L 1825 531 
L 1825 4091 
L 703 3866 
L 703 4441 
L 1819 4666 
L 2450 4666 
L 2450 531 
L 3481 531 
L 3481 0 
L 794 0 
L 794 531 
z
" transform="scale(0.015625)"/>
       </defs>
       <use xlink:href="#DejaVuSans-30"/>
       <use xlink:href="#DejaVuSans-2e" x="63.623047"/>
       <use xlink:href="#DejaVuSans-31" x="95.410156"/>
      </g>
     </g>
    </g>
    <g id="ytick_3">
     <g id="line2d_11">
      <path d="M 54 314.496 
L 334.8 314.496 
" clip-path="url(#p3e3a5685e3)" style="fill: none; stroke: #000000; stroke-opacity: 0.1; stroke-width: 0.7; stroke-linecap: square"/>
     </g>
     <g id="line2d_12">
      <g>
       <use xlink:href="#m94598658ab" x="54" y="314.496" style="stroke: #000000; stroke-width: 0.8"/>
      </g>
     </g>
     <g id="text_7">
      <!-- 0.2 -->
      <g transform="translate(26.325937 319.434984) scale(0.13 -0.13)">
       <use xlink:href="#DejaVuSans-30"/>
       <use xlink:href="#DejaVuSans-2e" x="63.623047"/>
       <use xlink:href="#DejaVuSans-32" x="95.410156"/>
      </g>
     </g>
    </g>
    <g id="ytick_4">
     <g id="line2d_13">
      <path d="M 54 277.344 
L 334.8 277.344 
" clip-path="url(#p3e3a5685e3)" style="fill: none; stroke: #000000; stroke-opacity: 0.1; stroke-width: 0.7; stroke-linecap: square"/>
     </g>
     <g id="line2d_14">
      <g>
       <use xlink:href="#m94598658ab" x="54" y="277.344" style="stroke: #000000; stroke-width: 0.8"/>
      </g>
     </g>
     <g id="text_8">
      <!-- 0.3 -->
      <g transform="translate(26.325937 282.282984) scale(0.13 -0.13)">
       <defs>
        <path id="DejaVuSans-33" d="M 2597 2516 
Q 3050 2419 3304 2112 
Q 3559 1806 3559 1356 
Q 3559 666 3084 287 
Q 2609 -91 1734 -91 
Q 1441 -91 1130 -33 
Q 819 25 488 141 
L 488 750 
Q 750 597 1062 519 
Q 1375 441 1716 441 
Q 2309 441 2620 675 
Q 2931 909 2931 1356 
Q 2931 1769 2642 2001 
Q 2353 2234 1838 2234 
L 1294 2234 
L 1294 2753 
L 1863 2753 
Q 2328 2753 2575 2939 
Q 2822 3125 2822 3475 
Q 2822 3834 2567 4026 
Q 2313 4219 1838 4219 
Q 1578 4219 1281 4162 
Q 984 4106 628 3988 
L 628 4550 
Q 988 4650 1302 4700 
Q 1616 4750 1894 4750 
Q 2613 4750 3031 4423 
Q 3450 4097 3450 3541 
Q 3450 3153 3228 2886 
Q 3006 2619 2597 2516 
z
" transform="scale(0.015625)"/>
       </defs>
       <use xlink:href="#DejaVuSans-30"/>
       <use xlink:href="#DejaVuSans-2e" x="63.623047"/>
       <use xlink:href="#DejaVuSans-33" x="95.410156"/>
      </g>
     </g>
    </g>
    <g id="ytick_5">
     <g id="line2d_15">
      <path d="M 54 240.192 
L 334.8 240.192 
" clip-path="url(#p3e3a5685e3)" style="fill: none; stroke: #000000; stroke-opacity: 0.1; stroke-width: 0.7; stroke-linecap: square"/>
     </g>
     <g id="line2d_16">
      <g>
       <use xlink:href="#m94598658ab" x="54" y="240.192" style="stroke: #000000; stroke-width: 0.8"/>
      </g>
     </g>
     <g id="text_9">
      <!-- 0.4 -->
      <g transform="translate(26.325937 245.130984) scale(0.13 -0.13)">
       <defs>
        <path id="DejaVuSans-34" d="M 2419 4116 
L 825 1625 
L 2419 1625 
L 2419 4116 
z
M 2253 4666 
L 3047 4666 
L 3047 1625 
L 3713 1625 
L 3713 1100 
L 3047 1100 
L 3047 0 
L 2419 0 
L 2419 1100 
L 313 1100 
L 313 1709 
L 2253 4666 
z
" transform="scale(0.015625)"/>
       </defs>
       <use xlink:href="#DejaVuSans-30"/>
       <use xlink:href="#DejaVuSans-2e" x="63.623047"/>
       <use xlink:href="#DejaVuSans-34" x="95.410156"/>
      </g>
     </g>
    </g>
    <g id="ytick_6">
     <g id="line2d_17">
      <path d="M 54 203.04 
L 334.8 203.04 
" clip-path="url(#p3e3a5685e3)" style="fill: none; stroke: #000000; stroke-opacity: 0.1; stroke-width: 0.7; stroke-linecap: square"/>
     </g>
     <g id="line2d_18">
      <g>
       <use xlink:href="#m94598658ab" x="54" y="203.04" style="stroke: #000000; stroke-width: 0.8"/>
      </g>
     </g>
     <g id="text_10">
      <!-- 0.5 -->
      <g transform="translate(26.325937 207.978984) scale(0.13 -0.13)">
       <use xlink:href="#DejaVuSans-30"/>
       <use xlink:href="#DejaVuSans-2e" x="63.623047"/>
       <use xlink:href="#DejaVuSans-35" x="95.410156"/>
      </g>
     </g>
    </g>
    <g id="ytick_7">
     <g id="line2d_19">
      <path d="M 54 165.888 
L 334.8 165.888 
" clip-path="url(#p3e3a5685e3)" style="fill: none; stroke: #000000; stroke-opacity: 0.1; stroke-width: 0.7; stroke-linecap: square"/>
     </g>
     <g id="line2d_20">
      <g>
       <use xlink:href="#m94598658ab" x="54" y="165.888" style="stroke: #000000; stroke-width: 0.8"/>
      </g>
     </g>
     <g id="text_11">
      <!-- 0.6 -->
      <g transform="translate(26.325937 170.826984) scale(0.13 -0.13)">
       <defs>
        <path id="DejaVuSans-36" d="M 2113 2584 
Q 1688 2584 1439 2293 
Q 1191 2003 1191 1497 
Q 1191 994 1439 701 
Q 1688 409 2113 409 
Q 2538 409 2786 701 
Q 3034 994 3034 1497 
Q 3034 2003 2786 2293 
Q 2538 2584 2113 2584 
z
M 3366 4563 
L 3366 3988 
Q 3128 4100 2886 4159 
Q 2644 4219 2406 4219 
Q 1781 4219 1451 3797 
Q 1122 3375 1075 2522 
Q 1259 2794 1537 2939 
Q 1816 3084 2150 3084 
Q 2853 3084 3261 2657 
Q 3669 2231 3669 1497 
Q 3669 778 3244 343 
Q 2819 -91 2113 -91 
Q 1303 -91 875 529 
Q 447 1150 447 2328 
Q 447 3434 972 4092 
Q 1497 4750 2381 4750 
Q 2619 4750 2861 4703 
Q 3103 4656 3366 4563 
z
" transform="scale(0.015625)"/>
       </defs>
       <use xlink:href="#DejaVuSans-30"/>
       <use xlink:href="#DejaVuSans-2e" x="63.623047"/>
       <use xlink:href="#DejaVuSans-36" x="95.410156"/>
      </g>
     </g>
    </g>
    <g id="ytick_8">
     <g id="line2d_21">
      <path d="M 54 128.736 
L 334.8 128.736 
" clip-path="url(#p3e3a5685e3)" style="fill: none; stroke: #000000; stroke-opacity: 0.1; stroke-width: 0.7; stroke-linecap: square"/>
     </g>
     <g id="line2d_22">
      <g>
       <use xlink:href="#m94598658ab" x="54" y="128.736" style="stroke: #000000; stroke-width: 0.8"/>
      </g>
     </g>
     <g id="text_12">
      <!-- 0.7 -->
      <g transform="translate(26.325937 133.674984) scale(0.13 -0.13)">
       <defs>
        <path id="DejaVuSans-37" d="M 525 4666 
L 3525 4666 
L 3525 4397 
L 1831 0 
L 1172 0 
L 2766 4134 
L 525 4134 
L 525 4666 
z
" transform="scale(0.015625)"/>
       </defs>
       <use xlink:href="#DejaVuSans-30"/>
       <use xlink:href="#DejaVuSans-2e" x="63.623047"/>
       <use xlink:href="#DejaVuSans-37" x="95.410156"/>
      </g>
     </g>
    </g>
    <g id="ytick_9">
     <g id="line2d_23">
      <path d="M 54 91.584 
L 334.8 91.584 
" clip-path="url(#p3e3a5685e3)" style="fill: none; stroke: #000000; stroke-opacity: 0.1; stroke-width: 0.7; stroke-linecap: square"/>
     </g>
     <g id="line2d_24">
      <g>
       <use xlink:href="#m94598658ab" x="54" y="91.584" style="stroke: #000000; stroke-width: 0.8"/>
      </g>
     </g>
     <g id="text_13">
      <!-- 0.8 -->
      <g transform="translate(26.325937 96.522984) scale(0.13 -0.13)">
       <defs>
        <path id="DejaVuSans-38" d="M 2034 2216 
Q 1584 2216 1326 1975 
Q 1069 1734 1069 1313 
Q 1069 891 1326 650 
Q 1584 409 2034 409 
Q 2484 409 2743 651 
Q 3003 894 3003 1313 
Q 3003 1734 2745 1975 
Q 2488 2216 2034 2216 
z
M 1403 2484 
Q 997 2584 770 2862 
Q 544 3141 544 3541 
Q 544 4100 942 4425 
Q 1341 4750 2034 4750 
Q 2731 4750 3128 4425 
Q 3525 4100 3525 3541 
Q 3525 3141 3298 2862 
Q 3072 2584 2669 2484 
Q 3125 2378 3379 2068 
Q 3634 1759 3634 1313 
Q 3634 634 3220 271 
Q 2806 -91 2034 -91 
Q 1263 -91 848 271 
Q 434 634 434 1313 
Q 434 1759 690 2068 
Q 947 2378 1403 2484 
z
M 1172 3481 
Q 1172 3119 1398 2916 
Q 1625 2713 2034 2713 
Q 2441 2713 2670 2916 
Q 2900 3119 2900 3481 
Q 2900 3844 2670 4047 
Q 2441 4250 2034 4250 
Q 1625 4250 1398 4047 
Q 1172 3844 1172 3481 
z
" transform="scale(0.015625)"/>
       </defs>
       <use xlink:href="#DejaVuSans-30"/>
       <use xlink:href="#DejaVuSans-2e" x="63.623047"/>
       <use xlink:href="#DejaVuSans-38" x="95.410156"/>
      </g>
     </g>
    </g>
    <g id="ytick_10">
     <g id="line2d_25">
      <path d="M 54 54.432 
L 334.8 54.432 
" clip-path="url(#p3e3a5685e3)" style="fill: none; stroke: #000000; stroke-opacity: 0.1; stroke-width: 0.7; stroke-linecap: square"/>
     </g>
     <g id="line2d_26">
      <g>
       <use xlink:href="#m94598658ab" x="54" y="54.432" style="stroke: #000000; stroke-width: 0.8"/>
      </g>
     </g>
     <g id="text_14">
      <!-- 0.9 -->
      <g transform="translate(26.325937 59.370984) scale(0.13 -0.13)">
       <defs>
        <path id="DejaVuSans-39" d="M 703 97 
L 703 672 
Q 941 559 1184 500 
Q 1428 441 1663 441 
Q 2288 441 2617 861 
Q 2947 1281 2994 2138 
Q 2813 1869 2534 1725 
Q 2256 1581 1919 1581 
Q 1219 1581 811 2004 
Q 403 2428 403 3163 
Q 403 3881 828 4315 
Q 1253 4750 1959 4750 
Q 2769 4750 3195 4129 
Q 3622 3509 3622 2328 
Q 3622 1225 3098 567 
Q 2575 -91 1691 -91 
Q 1453 -91 1209 -44 
Q 966 3 703 97 
z
M 1959 2075 
Q 2384 2075 2632 2365 
Q 2881 2656 2881 3163 
Q 2881 3666 2632 3958 
Q 2384 4250 1959 4250 
Q 1534 4250 1286 3958 
Q 1038 3666 1038 3163 
Q 1038 2656 1286 2365 
Q 1534 2075 1959 2075 
z
" transform="scale(0.015625)"/>
       </defs>
       <use xlink:href="#DejaVuSans-30"/>
       <use xlink:href="#DejaVuSans-2e" x="63.623047"/>
       <use xlink:href="#DejaVuSans-39" x="95.410156"/>
      </g>
     </g>
    </g>
    <g id="ytick_11">
     <g id="line2d_27">
      <path d="M 54 17.28 
L 334.8 17.28 
" clip-path="url(#p3e3a5685e3)" style="fill: none; stroke: #000000; stroke-opacity: 0.1; stroke-width: 0.7; stroke-linecap: square"/>
     </g>
     <g id="line2d_28">
      <g>
       <use xlink:href="#m94598658ab" x="54" y="17.28" style="stroke: #000000; stroke-width: 0.8"/>
      </g>
     </g>
     <g id="text_15">
      <!-- 1.0 -->
      <g transform="translate(26.325937 22.218984) scale(0.13 -0.13)">
       <use xlink:href="#DejaVuSans-31"/>
       <use xlink:href="#DejaVuSans-2e" x="63.623047"/>
       <use xlink:href="#DejaVuSans-30" x="95.410156"/>
      </g>
     </g>
    </g>
    <g id="text_16">
     <!-- GCC Size -->
     <g transform="translate(18.998437 239.37625) rotate(-90) scale(0.16 -0.16)">
      <defs>
       <path id="DejaVuSans-47" d="M 3809 666 
L 3809 1919 
L 2778 1919 
L 2778 2438 
L 4434 2438 
L 4434 434 
Q 4069 175 3628 42 
Q 3188 -91 2688 -91 
Q 1594 -91 976 548 
Q 359 1188 359 2328 
Q 359 3472 976 4111 
Q 1594 4750 2688 4750 
Q 3144 4750 3555 4637 
Q 3966 4525 4313 4306 
L 4313 3634 
Q 3963 3931 3569 4081 
Q 3175 4231 2741 4231 
Q 1884 4231 1454 3753 
Q 1025 3275 1025 2328 
Q 1025 1384 1454 906 
Q 1884 428 2741 428 
Q 3075 428 3337 486 
Q 3600 544 3809 666 
z
" transform="scale(0.015625)"/>
       <path id="DejaVuSans-43" d="M 4122 4306 
L 4122 3641 
Q 3803 3938 3442 4084 
Q 3081 4231 2675 4231 
Q 1875 4231 1450 3742 
Q 1025 3253 1025 2328 
Q 1025 1406 1450 917 
Q 1875 428 2675 428 
Q 3081 428 3442 575 
Q 3803 722 4122 1019 
L 4122 359 
Q 3791 134 3420 21 
Q 3050 -91 2638 -91 
Q 1578 -91 968 557 
Q 359 1206 359 2328 
Q 359 3453 968 4101 
Q 1578 4750 2638 4750 
Q 3056 4750 3426 4639 
Q 3797 4528 4122 4306 
z
" transform="scale(0.015625)"/>
       <path id="DejaVuSans-53" d="M 3425 4513 
L 3425 3897 
Q 3066 4069 2747 4153 
Q 2428 4238 2131 4238 
Q 1616 4238 1336 4038 
Q 1056 3838 1056 3469 
Q 1056 3159 1242 3001 
Q 1428 2844 1947 2747 
L 2328 2669 
Q 3034 2534 3370 2195 
Q 3706 1856 3706 1288 
Q 3706 609 3251 259 
Q 2797 -91 1919 -91 
Q 1588 -91 1214 -16 
Q 841 59 441 206 
L 441 856 
Q 825 641 1194 531 
Q 1563 422 1919 422 
Q 2459 422 2753 634 
Q 3047 847 3047 1241 
Q 3047 1584 2836 1778 
Q 2625 1972 2144 2069 
L 1759 2144 
Q 1053 2284 737 2584 
Q 422 2884 422 3419 
Q 422 4038 858 4394 
Q 1294 4750 2059 4750 
Q 2388 4750 2728 4690 
Q 3069 4631 3425 4513 
z
" transform="scale(0.015625)"/>
       <path id="DejaVuSans-7a" d="M 353 3500 
L 3084 3500 
L 3084 2975 
L 922 459 
L 3084 459 
L 3084 0 
L 275 0 
L 275 525 
L 2438 3041 
L 353 3041 
L 353 3500 
z
" transform="scale(0.015625)"/>
       <path id="DejaVuSans-65" d="M 3597 1894 
L 3597 1613 
L 953 1613 
Q 991 1019 1311 708 
Q 1631 397 2203 397 
Q 2534 397 2845 478 
Q 3156 559 3463 722 
L 3463 178 
Q 3153 47 2828 -22 
Q 2503 -91 2169 -91 
Q 1331 -91 842 396 
Q 353 884 353 1716 
Q 353 2575 817 3079 
Q 1281 3584 2069 3584 
Q 2775 3584 3186 3129 
Q 3597 2675 3597 1894 
z
M 3022 2063 
Q 3016 2534 2758 2815 
Q 2500 3097 2075 3097 
Q 1594 3097 1305 2825 
Q 1016 2553 972 2059 
L 3022 2063 
z
" transform="scale(0.015625)"/>
      </defs>
      <use xlink:href="#DejaVuSans-47"/>
      <use xlink:href="#DejaVuSans-43" x="77.490234"/>
      <use xlink:href="#DejaVuSans-43" x="147.314453"/>
      <use xlink:href="#DejaVuSans-20" x="217.138672"/>
      <use xlink:href="#DejaVuSans-53" x="248.925781"/>
      <use xlink:href="#DejaVuSans-69" x="312.402344"/>
      <use xlink:href="#DejaVuSans-7a" x="340.185547"/>
      <use xlink:href="#DejaVuSans-65" x="392.675781"/>
     </g>
    </g>
   </g>
   <g id="line2d_29">
    <path d="M 54.744828 18.265464 
L 55.489655 21.714589 
L 56.97931 22.700053 
L 57.724138 24.178249 
L 58.468966 174.954271 
L 59.958621 224.22748 
L 60.703448 225.212944 
L 61.448276 225.705676 
L 62.193103 228.169337 
L 62.937931 232.603926 
L 63.682759 241.473103 
L 64.427586 270.051565 
L 65.172414 294.195438 
L 65.917241 294.195438 
L 66.662069 299.615491 
L 67.406897 300.108223 
L 68.151724 301.093687 
L 68.896552 313.411989 
L 69.641379 328.193952 
L 70.386207 328.193952 
L 71.131034 331.150345 
L 71.875862 341.497719 
L 72.62069 348.8887 
L 73.365517 352.337825 
L 74.110345 354.801485 
L 74.855172 358.743342 
L 75.6 359.236074 
L 76.344828 360.714271 
L 77.089655 361.207003 
L 77.834483 363.670663 
L 78.57931 364.656127 
L 79.324138 367.119788 
L 80.068966 367.61252 
L 80.813793 369.583448 
L 82.303448 371.554377 
L 83.048276 373.032573 
L 83.793103 373.032573 
L 84.537931 374.018037 
L 85.282759 375.496233 
L 86.027586 375.496233 
L 87.517241 376.481698 
L 88.262069 376.481698 
L 89.006897 376.97443 
L 89.751724 376.97443 
L 91.241379 377.959894 
L 91.986207 378.945358 
L 92.731034 379.43809 
L 94.22069 379.43809 
L 94.965517 379.930822 
L 95.710345 379.930822 
L 96.455172 380.423554 
L 97.944828 380.423554 
L 98.689655 380.916286 
L 100.17931 380.916286 
L 100.924138 381.409019 
L 103.158621 381.409019 
L 103.903448 381.901751 
L 107.627586 381.901751 
L 108.372414 382.394483 
L 112.841379 382.394483 
L 113.586207 382.887215 
L 114.331034 382.887215 
L 115.075862 383.379947 
L 116.565517 383.379947 
L 117.310345 383.872679 
L 134.441379 383.872679 
L 135.186207 384.365411 
L 150.082759 384.365411 
L 150.827586 384.858143 
L 160.510345 384.858143 
L 161.255172 385.350875 
L 176.896552 385.350875 
L 177.641379 385.843607 
L 209.668966 385.843607 
L 210.413793 386.33634 
L 237.227586 386.33634 
L 237.972414 386.829072 
L 281.172414 386.829072 
L 281.917241 387.321804 
L 313.944828 387.321804 
L 314.689655 387.814536 
L 314.689655 387.814536 
" clip-path="url(#p3e3a5685e3)" style="fill: none; stroke: #d80000; stroke-width: 1.8; stroke-linecap: square"/>
   </g>
   <g id="line2d_30">
    <path d="M 54.744828 18.265464 
L 55.489655 21.221857 
L 56.234483 24.670981 
L 56.97931 25.163714 
L 57.724138 174.954271 
L 58.468966 174.954271 
L 59.213793 200.083607 
L 60.703448 200.083607 
L 61.448276 200.57634 
L 65.917241 200.57634 
L 66.662069 201.069072 
L 68.151724 201.069072 
L 68.896552 201.561804 
L 69.641379 201.561804 
L 70.386207 202.054536 
L 79.324138 202.054536 
L 80.068966 204.518196 
L 83.793103 204.518196 
L 84.537931 206.981857 
L 87.517241 206.981857 
L 88.262069 207.474589 
L 103.903448 207.474589 
L 105.393103 208.460053 
L 106.137931 210.430981 
L 108.372414 210.430981 
L 109.117241 210.923714 
L 120.289655 210.923714 
L 121.034483 211.909178 
L 122.524138 211.909178 
L 128.482759 215.851034 
L 129.227586 215.851034 
L 129.972414 219.792891 
L 130.717241 219.792891 
L 131.462069 220.285623 
L 132.206897 220.285623 
L 134.441379 221.76382 
L 135.186207 222.749284 
L 139.655172 222.749284 
L 147.848276 228.169337 
L 148.593103 231.618462 
L 149.337931 231.618462 
L 150.082759 232.603926 
L 150.827586 232.603926 
L 154.551724 235.067586 
L 158.275862 235.067586 
L 159.02069 238.516711 
L 162.744828 240.980371 
L 163.489655 240.980371 
L 168.703448 244.429496 
L 169.448276 245.41496 
L 170.937931 245.41496 
L 173.917241 247.385889 
L 175.406897 247.385889 
L 179.875862 250.342281 
L 185.089655 250.342281 
L 185.834483 252.805942 
L 188.068966 252.805942 
L 191.793103 255.269602 
L 195.517241 255.269602 
L 196.262069 258.225995 
L 199.986207 260.689655 
L 200.731034 263.646048 
L 205.944828 263.646048 
L 208.17931 265.124244 
L 212.648276 265.124244 
L 213.393103 267.095172 
L 214.882759 268.080637 
L 215.627586 270.051565 
L 218.606897 270.051565 
L 219.351724 272.515225 
L 233.503448 272.515225 
L 234.248276 273.007958 
L 234.993103 273.993422 
L 242.441379 278.920743 
L 243.931034 278.920743 
L 244.675862 279.906207 
L 249.889655 279.906207 
L 250.634483 281.877135 
L 252.868966 281.877135 
L 254.358621 282.862599 
L 255.848276 282.862599 
L 256.593103 284.340796 
L 258.827586 284.340796 
L 261.806897 286.311724 
L 264.786207 286.311724 
L 265.531034 288.282653 
L 268.510345 288.282653 
L 269.255172 290.253581 
L 270 290.746313 
L 272.234483 290.746313 
L 272.97931 291.239045 
L 275.213793 291.239045 
L 275.958621 291.731777 
L 276.703448 291.731777 
L 278.193103 292.717241 
L 280.427586 292.717241 
L 281.172414 293.209973 
L 281.917241 293.209973 
L 282.662069 293.702706 
L 286.386207 293.702706 
L 287.131034 294.195438 
L 287.875862 294.195438 
L 288.62069 294.68817 
L 289.365517 294.68817 
L 290.110345 295.180902 
L 290.855172 295.180902 
L 291.6 295.673634 
L 293.089655 295.673634 
L 294.57931 296.659098 
L 296.068966 296.659098 
L 296.813793 297.15183 
L 308.731034 297.15183 
L 309.475862 298.630027 
L 310.22069 298.630027 
L 310.22069 298.630027 
" clip-path="url(#p3e3a5685e3)" style="fill: none; stroke: #264653; stroke-width: 1.8; stroke-linecap: square"/>
   </g>
   <g id="line2d_31">
    <path d="M 54.744828 17.28 
L 109.117241 17.28 
L 113.586207 20.236393 
L 114.331034 20.236393 
L 118.055172 22.700053 
L 118.8 25.656446 
L 119.544828 29.598302 
L 120.289655 32.061963 
L 121.034483 32.554695 
L 121.77931 39.452944 
L 122.524138 44.380265 
L 124.013793 46.351194 
L 124.758621 46.843926 
L 125.503448 47.82939 
L 129.227586 50.29305 
L 129.972414 54.234907 
L 134.441379 57.1913 
L 135.186207 58.669496 
L 136.675862 60.640424 
L 137.42069 67.045942 
L 138.165517 70.495066 
L 138.910345 72.465995 
L 143.37931 75.422387 
L 148.593103 75.422387 
L 149.337931 78.871512 
L 150.082759 80.84244 
L 150.827586 81.335172 
L 151.572414 82.320637 
L 152.317241 83.798833 
L 156.041379 86.262493 
L 156.786207 89.218886 
L 160.510345 91.682546 
L 161.255172 92.668011 
L 162 97.102599 
L 162.744828 100.551724 
L 164.234483 101.537188 
L 164.97931 103.015385 
L 172.427586 107.942706 
L 173.172414 108.92817 
L 173.917241 111.39183 
L 179.131034 114.840955 
L 179.875862 114.840955 
L 183.6 117.304615 
L 184.344828 118.29008 
L 188.068966 120.75374 
L 188.813793 123.217401 
L 189.558621 124.695597 
L 194.027586 127.651989 
L 194.772414 130.11565 
L 195.517241 132.086578 
L 201.475862 136.028435 
L 202.22069 137.999363 
L 202.965517 145.883077 
L 205.2 147.361273 
L 205.944828 150.317666 
L 209.668966 152.781326 
L 211.903448 152.781326 
L 214.137931 154.259523 
L 214.882759 156.230451 
L 215.627586 157.215915 
L 216.372414 158.694111 
L 220.841379 161.650504 
L 221.586207 163.621432 
L 224.565517 165.592361 
L 225.310345 166.577825 
L 227.544828 166.577825 
L 234.993103 171.505146 
L 235.737931 173.968806 
L 236.482759 174.461538 
L 237.227586 174.461538 
L 238.717241 175.447003 
L 239.462069 176.432467 
L 242.441379 178.403395 
L 243.186207 180.374324 
L 243.931034 180.374324 
L 245.42069 182.345252 
L 252.124138 186.779841 
L 252.868966 199.098143 
L 253.613793 201.069072 
L 255.103448 201.069072 
L 257.337931 202.547268 
L 258.827586 202.547268 
L 259.572414 204.025464 
L 264.786207 207.474589 
L 265.531034 208.952785 
L 267.02069 208.952785 
L 269.255172 214.86557 
L 271.489655 216.343767 
L 272.234483 221.271088 
L 272.97931 221.271088 
L 275.213793 222.749284 
L 275.958621 222.749284 
L 277.448276 223.734748 
L 278.193103 223.734748 
L 282.662069 226.691141 
L 285.641379 226.691141 
L 287.131034 227.676605 
L 288.62069 227.676605 
L 289.365517 228.169337 
L 290.855172 228.169337 
L 294.57931 230.632997 
L 296.813793 230.632997 
L 297.558621 241.965836 
L 299.048276 241.965836 
L 299.793103 242.458568 
L 301.282759 242.458568 
L 302.027586 242.9513 
L 304.262069 242.9513 
L 305.006897 243.444032 
L 305.751724 243.444032 
L 307.986207 244.922228 
L 307.986207 244.922228 
" clip-path="url(#p3e3a5685e3)" style="fill: none; stroke: #ffe211; stroke-width: 1.8; stroke-linecap: square"/>
   </g>
   <g id="line2d_32">
    <path d="M 54.744828 18.758196 
L 59.958621 18.758196 
L 60.703448 19.250928 
L 62.193103 19.250928 
L 62.937931 19.74366 
L 68.151724 19.74366 
L 70.386207 21.221857 
L 75.6 21.221857 
L 76.344828 21.714589 
L 77.834483 21.714589 
L 78.57931 22.207321 
L 79.324138 22.207321 
L 80.068966 24.670981 
L 80.813793 25.163714 
L 86.027586 25.163714 
L 86.772414 25.656446 
L 89.006897 25.656446 
L 89.751724 26.149178 
L 91.241379 26.149178 
L 91.986207 26.64191 
L 92.731034 26.64191 
L 93.475862 29.10557 
L 94.22069 32.061963 
L 94.965517 32.554695 
L 96.455172 32.554695 
L 97.2 33.047427 
L 97.944828 36.00382 
L 98.689655 36.00382 
L 99.434483 37.974748 
L 100.924138 37.974748 
L 102.413793 38.960212 
L 103.158621 38.960212 
L 104.648276 39.945676 
L 105.393103 41.916605 
L 107.627586 41.916605 
L 108.372414 42.902069 
L 109.117241 44.872997 
L 115.075862 48.814854 
L 116.565517 48.814854 
L 117.310345 51.278515 
L 118.055172 51.771247 
L 119.544828 51.771247 
L 120.289655 52.756711 
L 121.034483 52.756711 
L 128.482759 57.684032 
L 129.227586 59.162228 
L 129.972414 59.162228 
L 134.441379 62.118621 
L 135.186207 63.104085 
L 135.931034 64.582281 
L 136.675862 65.567745 
L 138.910345 65.567745 
L 139.655172 67.538674 
L 145.613793 71.480531 
L 146.358621 71.480531 
L 147.103448 73.451459 
L 147.848276 73.944191 
L 148.593103 74.929655 
L 149.337931 75.422387 
L 150.082759 76.900584 
L 153.062069 78.871512 
L 153.806897 81.827905 
L 154.551724 81.827905 
L 157.531034 83.798833 
L 158.275862 84.784297 
L 159.765517 84.784297 
L 161.255172 85.769761 
L 162 87.247958 
L 169.448276 92.175279 
L 170.193103 93.160743 
L 170.937931 93.653475 
L 171.682759 93.653475 
L 176.896552 97.102599 
L 177.641379 99.073528 
L 184.344828 103.508117 
L 185.089655 103.508117 
L 185.834483 104.000849 
L 186.57931 106.464509 
L 187.324138 107.942706 
L 189.558621 109.420902 
L 190.303448 111.884562 
L 194.772414 114.840955 
L 195.517241 116.811883 
L 196.262069 117.797347 
L 199.986207 120.261008 
L 200.731034 123.217401 
L 207.434483 127.651989 
L 208.17931 127.651989 
L 208.924138 128.637454 
L 209.668966 130.11565 
L 219.351724 136.521167 
L 220.096552 136.521167 
L 233.503448 145.390345 
L 235.737931 145.390345 
L 237.972414 146.868541 
L 238.717241 147.854005 
L 245.42069 152.288594 
L 246.165517 154.259523 
L 246.910345 154.259523 
L 248.4 156.230451 
L 252.868966 159.186844 
L 253.613793 161.157772 
L 255.848276 161.157772 
L 256.593103 161.650504 
L 257.337931 161.650504 
L 259.572414 163.1287 
L 261.806897 163.1287 
L 262.551724 164.606897 
L 266.275862 167.070557 
L 267.02069 168.548753 
L 270 168.548753 
L 272.234483 170.02695 
L 273.724138 173.968806 
L 275.958621 175.447003 
L 276.703448 175.447003 
L 278.193103 176.432467 
L 278.937931 178.403395 
L 279.682759 178.896127 
L 281.172414 178.896127 
L 281.917241 179.388859 
L 282.662069 179.388859 
L 283.406897 179.881592 
L 285.641379 179.881592 
L 289.365517 182.345252 
L 290.110345 183.823448 
L 290.855172 183.823448 
L 293.089655 185.301645 
L 293.834483 185.301645 
L 301.282759 190.228966 
L 304.262069 190.228966 
L 309.475862 193.67809 
L 310.22069 193.67809 
L 311.710345 194.663554 
L 313.2 197.619947 
L 313.2 197.619947 
" clip-path="url(#p3e3a5685e3)" style="fill: none; stroke: #39c5bb; stroke-width: 1.8; stroke-linecap: square"/>
   </g>
   <g id="line2d_33">
    <path d="M 54.744828 18.265464 
L 56.234483 18.265464 
L 56.97931 19.74366 
L 57.724138 23.192785 
L 58.468966 23.192785 
L 59.213793 24.178249 
L 60.703448 24.178249 
L 62.193103 25.163714 
L 62.937931 25.163714 
L 63.682759 27.627374 
L 66.662069 27.627374 
L 68.896552 29.10557 
L 74.855172 29.10557 
L 75.6 29.598302 
L 77.834483 29.598302 
L 78.57931 30.091034 
L 79.324138 30.091034 
L 80.068966 32.554695 
L 80.813793 33.047427 
L 83.793103 33.047427 
L 84.537931 35.511088 
L 85.282759 35.511088 
L 86.027586 40.438408 
L 89.006897 40.438408 
L 89.751724 40.931141 
L 92.731034 40.931141 
L 93.475862 43.394801 
L 94.22069 46.351194 
L 94.965517 46.843926 
L 95.710345 51.278515 
L 96.455172 54.727639 
L 97.2 55.220371 
L 97.944828 58.176764 
L 99.434483 62.118621 
L 101.668966 62.118621 
L 102.413793 62.611353 
L 103.158621 62.611353 
L 104.648276 63.596817 
L 105.393103 65.567745 
L 106.882759 65.567745 
L 107.627586 68.524138 
L 108.372414 69.509602 
L 109.117241 71.480531 
L 115.075862 75.422387 
L 115.82069 78.37878 
L 116.565517 78.37878 
L 117.310345 80.84244 
L 118.055172 81.335172 
L 119.544828 81.335172 
L 121.034483 83.306101 
L 121.77931 83.798833 
L 122.524138 84.784297 
L 125.503448 86.755225 
L 126.248276 88.233422 
L 126.993103 88.233422 
L 127.737931 88.726154 
L 128.482759 88.726154 
L 132.951724 91.682546 
L 133.696552 93.160743 
L 135.186207 95.131671 
L 135.931034 95.131671 
L 136.675862 98.580796 
L 137.42069 98.580796 
L 143.37931 102.522653 
L 144.124138 105.971777 
L 144.868966 107.942706 
L 145.613793 108.92817 
L 146.358621 110.406366 
L 150.082759 112.870027 
L 150.827586 115.826419 
L 153.806897 117.797347 
L 154.551724 118.782812 
L 155.296552 118.782812 
L 158.275862 120.75374 
L 159.02069 120.75374 
L 159.765517 121.246472 
L 160.510345 122.724668 
L 167.958621 127.651989 
L 168.703448 128.637454 
L 169.448276 131.101114 
L 170.193103 134.550239 
L 175.406897 137.999363 
L 176.151724 139.970292 
L 179.131034 141.94122 
L 179.875862 141.94122 
L 182.855172 143.912149 
L 183.6 146.375809 
L 184.344828 149.332202 
L 185.089655 149.332202 
L 188.813793 151.795862 
L 189.558621 154.259523 
L 191.048276 155.244987 
L 191.793103 155.244987 
L 195.517241 157.708647 
L 196.262069 157.708647 
L 197.006897 159.679576 
L 199.986207 161.650504 
L 200.731034 162.635968 
L 201.475862 162.635968 
L 202.965517 163.621432 
L 203.710345 163.621432 
L 205.2 164.606897 
L 207.434483 164.606897 
L 209.668966 166.085093 
L 210.413793 167.563289 
L 211.158621 168.548753 
L 211.903448 170.02695 
L 212.648276 170.02695 
L 214.137931 171.012414 
L 214.882759 172.983342 
L 215.627586 175.447003 
L 217.117241 175.447003 
L 223.82069 179.881592 
L 224.565517 179.881592 
L 229.77931 183.330716 
L 230.524138 184.808912 
L 233.503448 186.779841 
L 234.248276 187.765305 
L 234.993103 188.258037 
L 237.227586 188.258037 
L 239.462069 189.736233 
L 240.206897 190.721698 
L 245.42069 194.170822 
L 246.165517 194.170822 
L 246.910345 194.663554 
L 247.655172 196.634483 
L 249.889655 196.634483 
L 251.37931 198.605411 
L 258.082759 203.04 
L 258.827586 204.025464 
L 268.510345 204.025464 
L 270.744828 205.50366 
L 272.234483 205.50366 
L 275.213793 207.474589 
L 276.703448 207.474589 
L 278.193103 208.460053 
L 278.937931 208.460053 
L 279.682759 208.952785 
L 282.662069 208.952785 
L 283.406897 209.445517 
L 284.151724 209.445517 
L 285.641379 210.430981 
L 286.386207 210.430981 
L 290.855172 213.387374 
L 292.344828 213.387374 
L 293.089655 213.880106 
L 295.324138 213.880106 
L 299.048276 216.343767 
L 299.793103 216.343767 
L 301.282759 217.329231 
L 302.772414 217.329231 
L 303.517241 217.821963 
L 304.262069 217.821963 
L 305.006897 218.314695 
L 306.496552 218.314695 
L 307.986207 219.300159 
L 310.22069 219.300159 
L 310.965517 219.792891 
L 311.710345 221.271088 
L 313.2 222.256552 
L 313.2 222.256552 
" clip-path="url(#p3e3a5685e3)" style="fill: none; stroke: #2a9d8f; stroke-width: 1.8; stroke-linecap: square"/>
   </g>
   <g id="line2d_34">
    <path d="M 54.744828 17.28 
L 55.489655 18.758196 
L 58.468966 18.758196 
L 59.213793 19.74366 
L 60.703448 19.74366 
L 62.193103 20.729125 
L 62.937931 23.192785 
L 65.917241 23.192785 
L 67.406897 24.178249 
L 68.896552 24.178249 
L 69.641379 24.670981 
L 75.6 24.670981 
L 76.344828 25.163714 
L 79.324138 25.163714 
L 80.068966 27.627374 
L 80.813793 28.120106 
L 83.793103 28.120106 
L 84.537931 28.612838 
L 89.006897 28.612838 
L 89.751724 29.10557 
L 90.496552 31.076499 
L 92.731034 31.076499 
L 93.475862 33.540159 
L 94.22069 33.540159 
L 94.965517 34.032891 
L 96.455172 34.032891 
L 97.2 34.525623 
L 97.944828 37.482016 
L 99.434483 41.423873 
L 100.924138 41.423873 
L 102.413793 42.409337 
L 103.158621 42.409337 
L 104.648276 43.394801 
L 105.393103 45.365729 
L 106.882759 45.365729 
L 107.627586 48.322122 
L 108.372414 49.307586 
L 109.117241 51.278515 
L 115.075862 55.220371 
L 116.565517 55.220371 
L 117.310345 57.684032 
L 118.055172 58.176764 
L 119.544828 58.176764 
L 120.289655 58.669496 
L 122.524138 61.625889 
L 129.972414 66.55321 
L 130.717241 68.031406 
L 131.462069 72.465995 
L 132.206897 72.958727 
L 132.951724 72.958727 
L 141.144828 78.37878 
L 141.889655 79.856976 
L 142.634483 80.84244 
L 144.124138 80.84244 
L 144.868966 84.291565 
L 145.613793 86.262493 
L 151.572414 90.20435 
L 152.317241 93.653475 
L 153.062069 95.624403 
L 153.806897 96.609867 
L 154.551724 98.088064 
L 156.041379 99.073528 
L 156.786207 102.02992 
L 157.531034 102.02992 
L 158.275862 105.479045 
L 162 107.942706 
L 162.744828 109.420902 
L 167.958621 112.870027 
L 168.703448 113.855491 
L 169.448276 114.348223 
L 170.193103 117.304615 
L 175.406897 120.75374 
L 176.151724 122.724668 
L 182.855172 127.159257 
L 183.6 127.159257 
L 184.344828 128.637454 
L 188.068966 131.101114 
L 188.813793 133.564775 
L 195.517241 137.999363 
L 196.262069 139.970292 
L 197.006897 140.955756 
L 197.751724 140.955756 
L 200.731034 142.926684 
L 201.475862 142.926684 
L 203.710345 144.404881 
L 204.455172 147.361273 
L 205.944828 148.346737 
L 206.689655 148.346737 
L 209.668966 150.317666 
L 211.158621 152.288594 
L 211.903448 153.76679 
L 212.648276 154.259523 
L 213.393103 154.259523 
L 218.606897 157.708647 
L 219.351724 157.708647 
L 234.248276 167.563289 
L 236.482759 167.563289 
L 237.227586 168.056021 
L 237.972414 169.041485 
L 243.186207 172.49061 
L 243.931034 174.461538 
L 246.165517 175.939735 
L 247.655172 177.910663 
L 252.124138 180.867056 
L 252.868966 180.867056 
L 258.827586 184.808912 
L 260.317241 184.808912 
L 263.296552 186.779841 
L 264.041379 186.779841 
L 266.275862 188.258037 
L 267.02069 188.258037 
L 269.255172 189.736233 
L 273.724138 189.736233 
L 275.213793 190.721698 
L 275.958621 190.721698 
L 277.448276 191.707162 
L 278.193103 191.707162 
L 279.682759 192.692626 
L 280.427586 192.692626 
L 281.172414 193.185358 
L 281.917241 193.185358 
L 282.662069 194.170822 
L 288.62069 198.112679 
L 289.365517 199.590875 
L 290.110345 200.083607 
L 290.855172 200.083607 
L 292.344828 201.069072 
L 293.834483 201.069072 
L 299.793103 205.010928 
L 301.282759 205.010928 
L 302.027586 205.50366 
L 303.517241 205.50366 
L 304.262069 205.996393 
L 305.006897 205.996393 
L 305.751724 206.489125 
L 306.496552 206.489125 
L 307.241379 206.981857 
L 309.475862 206.981857 
L 310.22069 208.460053 
L 310.965517 208.952785 
L 311.710345 208.952785 
L 312.455172 210.430981 
L 312.455172 210.430981 
" clip-path="url(#p3e3a5685e3)" style="fill: none; stroke: #e76f51; stroke-width: 1.8; stroke-linecap: square"/>
   </g>
   <g id="patch_3">
    <path d="M 54 388.8 
L 54 17.28 
" style="fill: none; stroke: #000000; stroke-width: 0.8; stroke-linejoin: miter; stroke-linecap: square"/>
   </g>
   <g id="patch_4">
    <path d="M 334.8 388.8 
L 334.8 17.28 
" style="fill: none; stroke: #000000; stroke-width: 0.8; stroke-linejoin: miter; stroke-linecap: square"/>
   </g>
   <g id="patch_5">
    <path d="M 54 388.8 
L 334.8 388.8 
" style="fill: none; stroke: #000000; stroke-width: 0.8; stroke-linejoin: miter; stroke-linecap: square"/>
   </g>
   <g id="patch_6">
    <path d="M 54 17.28 
L 334.8 17.28 
" style="fill: none; stroke: #000000; stroke-width: 0.8; stroke-linejoin: miter; stroke-linecap: square"/>
   </g>
   <g id="legend_1">
    <g id="patch_7">
     <path d="M 241.51125 132.5625 
L 326.4 132.5625 
Q 328.8 132.5625 328.8 130.1625 
L 328.8 25.68 
Q 328.8 23.28 326.4 23.28 
L 241.51125 23.28 
Q 239.11125 23.28 239.11125 25.68 
L 239.11125 130.1625 
Q 239.11125 132.5625 241.51125 132.5625 
z
" style="fill: #ffffff; opacity: 0.8; stroke: #cccccc; stroke-linejoin: miter"/>
    </g>
    <g id="line2d_35">
     <path d="M 243.91125 32.998125 
L 255.91125 32.998125 
L 267.91125 32.998125 
" style="fill: none; stroke: #d80000; stroke-width: 1.8; stroke-linecap: square"/>
    </g>
    <g id="text_17">
     <!-- None -->
     <g transform="translate(277.51125 37.198125) scale(0.12 -0.12)">
      <defs>
       <path id="DejaVuSans-4e" d="M 628 4666 
L 1478 4666 
L 3547 763 
L 3547 4666 
L 4159 4666 
L 4159 0 
L 3309 0 
L 1241 3903 
L 1241 0 
L 628 0 
L 628 4666 
z
" transform="scale(0.015625)"/>
       <path id="DejaVuSans-6e" d="M 3513 2113 
L 3513 0 
L 2938 0 
L 2938 2094 
Q 2938 2591 2744 2837 
Q 2550 3084 2163 3084 
Q 1697 3084 1428 2787 
Q 1159 2491 1159 1978 
L 1159 0 
L 581 0 
L 581 3500 
L 1159 3500 
L 1159 2956 
Q 1366 3272 1645 3428 
Q 1925 3584 2291 3584 
Q 2894 3584 3203 3211 
Q 3513 2838 3513 2113 
z
" transform="scale(0.015625)"/>
      </defs>
      <use xlink:href="#DejaVuSans-4e"/>
      <use xlink:href="#DejaVuSans-6f" x="74.804688"/>
      <use xlink:href="#DejaVuSans-6e" x="135.986328"/>
      <use xlink:href="#DejaVuSans-65" x="199.365234"/>
     </g>
    </g>
    <g id="line2d_36">
     <path d="M 243.91125 50.611875 
L 255.91125 50.611875 
L 267.91125 50.611875 
" style="fill: none; stroke: #264653; stroke-width: 1.8; stroke-linecap: square"/>
    </g>
    <g id="text_18">
     <!-- HD -->
     <g transform="translate(277.51125 54.811875) scale(0.12 -0.12)">
      <defs>
       <path id="DejaVuSans-48" d="M 628 4666 
L 1259 4666 
L 1259 2753 
L 3553 2753 
L 3553 4666 
L 4184 4666 
L 4184 0 
L 3553 0 
L 3553 2222 
L 1259 2222 
L 1259 0 
L 628 0 
L 628 4666 
z
" transform="scale(0.015625)"/>
       <path id="DejaVuSans-44" d="M 1259 4147 
L 1259 519 
L 2022 519 
Q 2988 519 3436 956 
Q 3884 1394 3884 2338 
Q 3884 3275 3436 3711 
Q 2988 4147 2022 4147 
L 1259 4147 
z
M 628 4666 
L 1925 4666 
Q 3281 4666 3915 4102 
Q 4550 3538 4550 2338 
Q 4550 1131 3912 565 
Q 3275 0 1925 0 
L 628 0 
L 628 4666 
z
" transform="scale(0.015625)"/>
      </defs>
      <use xlink:href="#DejaVuSans-48"/>
      <use xlink:href="#DejaVuSans-44" x="75.195312"/>
     </g>
    </g>
    <g id="line2d_37">
     <path d="M 243.91125 68.225625 
L 255.91125 68.225625 
L 267.91125 68.225625 
" style="fill: none; stroke: #ffe211; stroke-width: 1.8; stroke-linecap: square"/>
    </g>
    <g id="text_19">
     <!-- GND -->
     <g transform="translate(277.51125 72.425625) scale(0.12 -0.12)">
      <use xlink:href="#DejaVuSans-47"/>
      <use xlink:href="#DejaVuSans-4e" x="77.490234"/>
      <use xlink:href="#DejaVuSans-44" x="152.294922"/>
     </g>
    </g>
    <g id="line2d_38">
     <path d="M 243.91125 85.839375 
L 255.91125 85.839375 
L 267.91125 85.839375 
" style="fill: none; stroke: #39c5bb; stroke-width: 1.8; stroke-linecap: square"/>
    </g>
    <g id="text_20">
     <!-- BT -->
     <g transform="translate(277.51125 90.039375) scale(0.12 -0.12)">
      <defs>
       <path id="DejaVuSans-42" d="M 1259 2228 
L 1259 519 
L 2272 519 
Q 2781 519 3026 730 
Q 3272 941 3272 1375 
Q 3272 1813 3026 2020 
Q 2781 2228 2272 2228 
L 1259 2228 
z
M 1259 4147 
L 1259 2741 
L 2194 2741 
Q 2656 2741 2882 2914 
Q 3109 3088 3109 3444 
Q 3109 3797 2882 3972 
Q 2656 4147 2194 4147 
L 1259 4147 
z
M 628 4666 
L 2241 4666 
Q 2963 4666 3353 4366 
Q 3744 4066 3744 3513 
Q 3744 3084 3544 2831 
Q 3344 2578 2956 2516 
Q 3422 2416 3680 2098 
Q 3938 1781 3938 1306 
Q 3938 681 3513 340 
Q 3088 0 2303 0 
L 628 0 
L 628 4666 
z
" transform="scale(0.015625)"/>
       <path id="DejaVuSans-54" d="M -19 4666 
L 3928 4666 
L 3928 4134 
L 2272 4134 
L 2272 0 
L 1638 0 
L 1638 4134 
L -19 4134 
L -19 4666 
z
" transform="scale(0.015625)"/>
      </defs>
      <use xlink:href="#DejaVuSans-42"/>
      <use xlink:href="#DejaVuSans-54" x="68.603516"/>
     </g>
    </g>
    <g id="line2d_39">
     <path d="M 243.91125 103.453125 
L 255.91125 103.453125 
L 267.91125 103.453125 
" style="fill: none; stroke: #2a9d8f; stroke-width: 1.8; stroke-linecap: square"/>
    </g>
    <g id="text_21">
     <!-- DSTS-K -->
     <g transform="translate(277.51125 107.653125) scale(0.12 -0.12)">
      <defs>
       <path id="DejaVuSans-2d" d="M 313 2009 
L 1997 2009 
L 1997 1497 
L 313 1497 
L 313 2009 
z
" transform="scale(0.015625)"/>
       <path id="DejaVuSans-4b" d="M 628 4666 
L 1259 4666 
L 1259 2694 
L 3353 4666 
L 4166 4666 
L 1850 2491 
L 4331 0 
L 3500 0 
L 1259 2247 
L 1259 0 
L 628 0 
L 628 4666 
z
" transform="scale(0.015625)"/>
      </defs>
      <use xlink:href="#DejaVuSans-44"/>
      <use xlink:href="#DejaVuSans-53" x="77.001953"/>
      <use xlink:href="#DejaVuSans-54" x="140.478516"/>
      <use xlink:href="#DejaVuSans-53" x="201.5625"/>
      <use xlink:href="#DejaVuSans-2d" x="265.039062"/>
      <use xlink:href="#DejaVuSans-4b" x="301.123047"/>
     </g>
    </g>
    <g id="line2d_40">
     <path d="M 243.91125 121.066875 
L 255.91125 121.066875 
L 267.91125 121.066875 
" style="fill: none; stroke: #e76f51; stroke-width: 1.8; stroke-linecap: square"/>
    </g>
    <g id="text_22">
     <!-- DSTS-M -->
     <g transform="translate(277.51125 125.266875) scale(0.12 -0.12)">
      <defs>
       <path id="DejaVuSans-4d" d="M 628 4666 
L 1569 4666 
L 2759 1491 
L 3956 4666 
L 4897 4666 
L 4897 0 
L 4281 0 
L 4281 4097 
L 3078 897 
L 2444 897 
L 1241 4097 
L 1241 0 
L 628 0 
L 628 4666 
z
" transform="scale(0.015625)"/>
      </defs>
      <use xlink:href="#DejaVuSans-44"/>
      <use xlink:href="#DejaVuSans-53" x="77.001953"/>
      <use xlink:href="#DejaVuSans-54" x="140.478516"/>
      <use xlink:href="#DejaVuSans-53" x="201.5625"/>
      <use xlink:href="#DejaVuSans-2d" x="265.039062"/>
      <use xlink:href="#DejaVuSans-4d" x="301.123047"/>
     </g>
    </g>
   </g>
  </g>
 </g>
 <defs>
  <clipPath id="p3e3a5685e3">
   <rect x="54" y="17.28" width="280.8" height="371.52"/>
  </clipPath>
 </defs>
</svg>
