<?xml version="1.0" encoding="utf-8" standalone="no"?>
<!DOCTYPE svg PUBLIC "-//W3C//DTD SVG 1.1//EN"
  "http://www.w3.org/Graphics/SVG/1.1/DTD/svg11.dtd">
<svg xmlns:xlink="http://www.w3.org/1999/xlink" width="360pt" height="432pt" viewBox="0 0 360 432" xmlns="http://www.w3.org/2000/svg" version="1.1">
 <metadata>
  <rdf:RDF xmlns:dc="http://purl.org/dc/elements/1.1/" xmlns:cc="http://creativecommons.org/ns#" xmlns:rdf="http://www.w3.org/1999/02/22-rdf-syntax-ns#">
   <cc:Work>
    <dc:type rdf:resource="http://purl.org/dc/dcmitype/StillImage"/>
    <dc:date>2026-04-01T10:29:44.607761</dc:date>
    <dc:format>image/svg+xml</dc:format>
    <dc:creator>
     <cc:Agent>
      <dc:title>Matplotlib v3.6.3, https://matplotlib.org/</dc:title>
     </cc:Agent>
    </dc:creator>
   </cc:Work>
  </rdf:RDF>
 </metadata>
 <defs>
  <style type="text/css">*{stroke-linejoin: round; stroke-linecap: butt}</style>
 </defs>
 <g id="figure_1">
  <g id="patch_1">
   <path d="M 0 432 
L 360 432 
L 360 0 
L 0 0 
z
" style="fill: #ffffff"/>
  </g>
  <g id="axes_1">
   <g id="patch_2">
    <path d="M 54 388.8 
L 334.8 388.8 
L 334.8 17.28 
L 54 17.28 
z
" style="fill: #ffffff"/>
   </g>
   <g id="matplotlib.axis_1">
    <g id="xtick_1">
     <g id="line2d_1">
      <path d="M 54 388.8 
L 54 17.28 
" clip-path="url(#pf5912cf32f)" style="fill: none; stroke: #000000; stroke-opacity: 0.1; stroke-width: 0.7; stroke-linecap: square"/>
     </g>
     <g id="line2d_2">
      <defs>
       <path id="m7b6fa6ec19" d="M 0 0 
L 0 3.5 
" style="stroke: #000000; stroke-width: 0.8"/>
      </defs>
      <g>
       <use xlink:href="#m7b6fa6ec19" x="54" y="388.8" style="stroke: #000000; stroke-width: 0.8"/>
      </g>
     </g>
     <g id="text_1">
      <!-- 0.00 -->
      <g transform="translate(39.527344 405.677969) scale(0.13 -0.13)">
       <defs>
        <path id="DejaVuSans-30" d="M 2034 4250 
Q 1547 4250 1301 3770 
Q 1056 3291 1056 2328 
Q 1056 1369 1301 889 
Q 1547 409 2034 409 
Q 2525 409 2770 889 
Q 3016 1369 3016 2328 
Q 3016 3291 2770 3770 
Q 2525 4250 2034 4250 
z
M 2034 4750 
Q 2819 4750 3233 4129 
Q 3647 3509 3647 2328 
Q 3647 1150 3233 529 
Q 2819 -91 2034 -91 
Q 1250 -91 836 529 
Q 422 1150 422 2328 
Q 422 3509 836 4129 
Q 1250 4750 2034 4750 
z
" transform="scale(0.015625)"/>
        <path id="DejaVuSans-2e" d="M 684 794 
L 1344 794 
L 1344 0 
L 684 0 
L 684 794 
z
" transform="scale(0.015625)"/>
       </defs>
       <use xlink:href="#DejaVuSans-30"/>
       <use xlink:href="#DejaVuSans-2e" x="63.623047"/>
       <use xlink:href="#DejaVuSans-30" x="95.410156"/>
       <use xlink:href="#DejaVuSans-30" x="159.033203"/>
      </g>
     </g>
    </g>
    <g id="xtick_2">
     <g id="line2d_3">
      <path d="M 194.4 388.8 
L 194.4 17.28 
" clip-path="url(#pf5912cf32f)" style="fill: none; stroke: #000000; stroke-opacity: 0.1; stroke-width: 0.7; stroke-linecap: square"/>
     </g>
     <g id="line2d_4">
      <g>
       <use xlink:href="#m7b6fa6ec19" x="194.4" y="388.8" style="stroke: #000000; stroke-width: 0.8"/>
      </g>
     </g>
     <g id="text_2">
      <!-- 0.25 -->
      <g transform="translate(179.927344 405.677969) scale(0.13 -0.13)">
       <defs>
        <path id="DejaVuSans-32" d="M 1228 531 
L 3431 531 
L 3431 0 
L 469 0 
L 469 531 
Q 828 903 1448 1529 
Q 2069 2156 2228 2338 
Q 2531 2678 2651 2914 
Q 2772 3150 2772 3378 
Q 2772 3750 2511 3984 
Q 2250 4219 1831 4219 
Q 1534 4219 1204 4116 
Q 875 4013 500 3803 
L 500 4441 
Q 881 4594 1212 4672 
Q 1544 4750 1819 4750 
Q 2544 4750 2975 4387 
Q 3406 4025 3406 3419 
Q 3406 3131 3298 2873 
Q 3191 2616 2906 2266 
Q 2828 2175 2409 1742 
Q 1991 1309 1228 531 
z
" transform="scale(0.015625)"/>
        <path id="DejaVuSans-35" d="M 691 4666 
L 3169 4666 
L 3169 4134 
L 1269 4134 
L 1269 2991 
Q 1406 3038 1543 3061 
Q 1681 3084 1819 3084 
Q 2600 3084 3056 2656 
Q 3513 2228 3513 1497 
Q 3513 744 3044 326 
Q 2575 -91 1722 -91 
Q 1428 -91 1123 -41 
Q 819 9 494 109 
L 494 744 
Q 775 591 1075 516 
Q 1375 441 1709 441 
Q 2250 441 2565 725 
Q 2881 1009 2881 1497 
Q 2881 1984 2565 2268 
Q 2250 2553 1709 2553 
Q 1456 2553 1204 2497 
Q 953 2441 691 2322 
L 691 4666 
z
" transform="scale(0.015625)"/>
       </defs>
       <use xlink:href="#DejaVuSans-30"/>
       <use xlink:href="#DejaVuSans-2e" x="63.623047"/>
       <use xlink:href="#DejaVuSans-32" x="95.410156"/>
       <use xlink:href="#DejaVuSans-35" x="159.033203"/>
      </g>
     </g>
    </g>
    <g id="xtick_3">
     <g id="line2d_5">
      <path d="M 334.8 388.8 
L 334.8 17.28 
" clip-path="url(#pf5912cf32f)" style="fill: none; stroke: #000000; stroke-opacity: 0.1; stroke-width: 0.7; stroke-linecap: square"/>
     </g>
     <g id="line2d_6">
      <g>
       <use xlink:href="#m7b6fa6ec19" x="334.8" y="388.8" style="stroke: #000000; stroke-width: 0.8"/>
      </g>
     </g>
     <g id="text_3">
      <!-- 0.50 -->
      <g transform="translate(320.327344 405.677969) scale(0.13 -0.13)">
       <use xlink:href="#DejaVuSans-30"/>
       <use xlink:href="#DejaVuSans-2e" x="63.623047"/>
       <use xlink:href="#DejaVuSans-35" x="95.410156"/>
       <use xlink:href="#DejaVuSans-30" x="159.033203"/>
      </g>
     </g>
    </g>
    <g id="text_4">
     <!-- Attack Ratio -->
     <g transform="translate(145.78375 424.539062) scale(0.16 -0.16)">
      <defs>
       <path id="DejaVuSans-41" d="M 2188 4044 
L 1331 1722 
L 3047 1722 
L 2188 4044 
z
M 1831 4666 
L 2547 4666 
L 4325 0 
L 3669 0 
L 3244 1197 
L 1141 1197 
L 716 0 
L 50 0 
L 1831 4666 
z
" transform="scale(0.015625)"/>
       <path id="DejaVuSans-74" d="M 1172 4494 
L 1172 3500 
L 2356 3500 
L 2356 3053 
L 1172 3053 
L 1172 1153 
Q 1172 725 1289 603 
Q 1406 481 1766 481 
L 2356 481 
L 2356 0 
L 1766 0 
Q 1100 0 847 248 
Q 594 497 594 1153 
L 594 3053 
L 172 3053 
L 172 3500 
L 594 3500 
L 594 4494 
L 1172 4494 
z
" transform="scale(0.015625)"/>
       <path id="DejaVuSans-61" d="M 2194 1759 
Q 1497 1759 1228 1600 
Q 959 1441 959 1056 
Q 959 750 1161 570 
Q 1363 391 1709 391 
Q 2188 391 2477 730 
Q 2766 1069 2766 1631 
L 2766 1759 
L 2194 1759 
z
M 3341 1997 
L 3341 0 
L 2766 0 
L 2766 531 
Q 2569 213 2275 61 
Q 1981 -91 1556 -91 
Q 1019 -91 701 211 
Q 384 513 384 1019 
Q 384 1609 779 1909 
Q 1175 2209 1959 2209 
L 2766 2209 
L 2766 2266 
Q 2766 2663 2505 2880 
Q 2244 3097 1772 3097 
Q 1472 3097 1187 3025 
Q 903 2953 641 2809 
L 641 3341 
Q 956 3463 1253 3523 
Q 1550 3584 1831 3584 
Q 2591 3584 2966 3190 
Q 3341 2797 3341 1997 
z
" transform="scale(0.015625)"/>
       <path id="DejaVuSans-63" d="M 3122 3366 
L 3122 2828 
Q 2878 2963 2633 3030 
Q 2388 3097 2138 3097 
Q 1578 3097 1268 2742 
Q 959 2388 959 1747 
Q 959 1106 1268 751 
Q 1578 397 2138 397 
Q 2388 397 2633 464 
Q 2878 531 3122 666 
L 3122 134 
Q 2881 22 2623 -34 
Q 2366 -91 2075 -91 
Q 1284 -91 818 406 
Q 353 903 353 1747 
Q 353 2603 823 3093 
Q 1294 3584 2113 3584 
Q 2378 3584 2631 3529 
Q 2884 3475 3122 3366 
z
" transform="scale(0.015625)"/>
       <path id="DejaVuSans-6b" d="M 581 4863 
L 1159 4863 
L 1159 1991 
L 2875 3500 
L 3609 3500 
L 1753 1863 
L 3688 0 
L 2938 0 
L 1159 1709 
L 1159 0 
L 581 0 
L 581 4863 
z
" transform="scale(0.015625)"/>
       <path id="DejaVuSans-20" transform="scale(0.015625)"/>
       <path id="DejaVuSans-52" d="M 2841 2188 
Q 3044 2119 3236 1894 
Q 3428 1669 3622 1275 
L 4263 0 
L 3584 0 
L 2988 1197 
Q 2756 1666 2539 1819 
Q 2322 1972 1947 1972 
L 1259 1972 
L 1259 0 
L 628 0 
L 628 4666 
L 2053 4666 
Q 2853 4666 3247 4331 
Q 3641 3997 3641 3322 
Q 3641 2881 3436 2590 
Q 3231 2300 2841 2188 
z
M 1259 4147 
L 1259 2491 
L 2053 2491 
Q 2509 2491 2742 2702 
Q 2975 2913 2975 3322 
Q 2975 3731 2742 3939 
Q 2509 4147 2053 4147 
L 1259 4147 
z
" transform="scale(0.015625)"/>
       <path id="DejaVuSans-69" d="M 603 3500 
L 1178 3500 
L 1178 0 
L 603 0 
L 603 3500 
z
M 603 4863 
L 1178 4863 
L 1178 4134 
L 603 4134 
L 603 4863 
z
" transform="scale(0.015625)"/>
       <path id="DejaVuSans-6f" d="M 1959 3097 
Q 1497 3097 1228 2736 
Q 959 2375 959 1747 
Q 959 1119 1226 758 
Q 1494 397 1959 397 
Q 2419 397 2687 759 
Q 2956 1122 2956 1747 
Q 2956 2369 2687 2733 
Q 2419 3097 1959 3097 
z
M 1959 3584 
Q 2709 3584 3137 3096 
Q 3566 2609 3566 1747 
Q 3566 888 3137 398 
Q 2709 -91 1959 -91 
Q 1206 -91 779 398 
Q 353 888 353 1747 
Q 353 2609 779 3096 
Q 1206 3584 1959 3584 
z
" transform="scale(0.015625)"/>
      </defs>
      <use xlink:href="#DejaVuSans-41"/>
      <use xlink:href="#DejaVuSans-74" x="66.658203"/>
      <use xlink:href="#DejaVuSans-74" x="105.867188"/>
      <use xlink:href="#DejaVuSans-61" x="145.076172"/>
      <use xlink:href="#DejaVuSans-63" x="206.355469"/>
      <use xlink:href="#DejaVuSans-6b" x="261.335938"/>
      <use xlink:href="#DejaVuSans-20" x="319.246094"/>
      <use xlink:href="#DejaVuSans-52" x="351.033203"/>
      <use xlink:href="#DejaVuSans-61" x="418.265625"/>
      <use xlink:href="#DejaVuSans-74" x="479.544922"/>
      <use xlink:href="#DejaVuSans-69" x="518.753906"/>
      <use xlink:href="#DejaVuSans-6f" x="546.537109"/>
     </g>
    </g>
   </g>
   <g id="matplotlib.axis_2">
    <g id="ytick_1">
     <g id="line2d_7">
      <path d="M 54 388.8 
L 334.8 388.8 
" clip-path="url(#pf5912cf32f)" style="fill: none; stroke: #000000; stroke-opacity: 0.1; stroke-width: 0.7; stroke-linecap: square"/>
     </g>
     <g id="line2d_8">
      <defs>
       <path id="m4321516c11" d="M 0 0 
L -3.5 0 
" style="stroke: #000000; stroke-width: 0.8"/>
      </defs>
      <g>
       <use xlink:href="#m4321516c11" x="54" y="388.8" style="stroke: #000000; stroke-width: 0.8"/>
      </g>
     </g>
     <g id="text_5">
      <!-- 0.0 -->
      <g transform="translate(26.325937 393.738984) scale(0.13 -0.13)">
       <use xlink:href="#DejaVuSans-30"/>
       <use xlink:href="#DejaVuSans-2e" x="63.623047"/>
       <use xlink:href="#DejaVuSans-30" x="95.410156"/>
      </g>
     </g>
    </g>
    <g id="ytick_2">
     <g id="line2d_9">
      <path d="M 54 351.648 
L 334.8 351.648 
" clip-path="url(#pf5912cf32f)" style="fill: none; stroke: #000000; stroke-opacity: 0.1; stroke-width: 0.7; stroke-linecap: square"/>
     </g>
     <g id="line2d_10">
      <g>
       <use xlink:href="#m4321516c11" x="54" y="351.648" style="stroke: #000000; stroke-width: 0.8"/>
      </g>
     </g>
     <g id="text_6">
      <!-- 0.1 -->
      <g transform="translate(26.325937 356.586984) scale(0.13 -0.13)">
       <defs>
        <path id="DejaVuSans-31" d="M 794 531 
L 1825 531 
L 1825 4091 
L 703 3866 
L 703 4441 
L 1819 4666 
L 2450 4666 
L 2450 531 
L 3481 531 
L 3481 0 
L 794 0 
L 794 531 
z
" transform="scale(0.015625)"/>
       </defs>
       <use xlink:href="#DejaVuSans-30"/>
       <use xlink:href="#DejaVuSans-2e" x="63.623047"/>
       <use xlink:href="#DejaVuSans-31" x="95.410156"/>
      </g>
     </g>
    </g>
    <g id="ytick_3">
     <g id="line2d_11">
      <path d="M 54 314.496 
L 334.8 314.496 
" clip-path="url(#pf5912cf32f)" style="fill: none; stroke: #000000; stroke-opacity: 0.1; stroke-width: 0.7; stroke-linecap: square"/>
     </g>
     <g id="line2d_12">
      <g>
       <use xlink:href="#m4321516c11" x="54" y="314.496" style="stroke: #000000; stroke-width: 0.8"/>
      </g>
     </g>
     <g id="text_7">
      <!-- 0.2 -->
      <g transform="translate(26.325937 319.434984) scale(0.13 -0.13)">
       <use xlink:href="#DejaVuSans-30"/>
       <use xlink:href="#DejaVuSans-2e" x="63.623047"/>
       <use xlink:href="#DejaVuSans-32" x="95.410156"/>
      </g>
     </g>
    </g>
    <g id="ytick_4">
     <g id="line2d_13">
      <path d="M 54 277.344 
L 334.8 277.344 
" clip-path="url(#pf5912cf32f)" style="fill: none; stroke: #000000; stroke-opacity: 0.1; stroke-width: 0.7; stroke-linecap: square"/>
     </g>
     <g id="line2d_14">
      <g>
       <use xlink:href="#m4321516c11" x="54" y="277.344" style="stroke: #000000; stroke-width: 0.8"/>
      </g>
     </g>
     <g id="text_8">
      <!-- 0.3 -->
      <g transform="translate(26.325937 282.282984) scale(0.13 -0.13)">
       <defs>
        <path id="DejaVuSans-33" d="M 2597 2516 
Q 3050 2419 3304 2112 
Q 3559 1806 3559 1356 
Q 3559 666 3084 287 
Q 2609 -91 1734 -91 
Q 1441 -91 1130 -33 
Q 819 25 488 141 
L 488 750 
Q 750 597 1062 519 
Q 1375 441 1716 441 
Q 2309 441 2620 675 
Q 2931 909 2931 1356 
Q 2931 1769 2642 2001 
Q 2353 2234 1838 2234 
L 1294 2234 
L 1294 2753 
L 1863 2753 
Q 2328 2753 2575 2939 
Q 2822 3125 2822 3475 
Q 2822 3834 2567 4026 
Q 2313 4219 1838 4219 
Q 1578 4219 1281 4162 
Q 984 4106 628 3988 
L 628 4550 
Q 988 4650 1302 4700 
Q 1616 4750 1894 4750 
Q 2613 4750 3031 4423 
Q 3450 4097 3450 3541 
Q 3450 3153 3228 2886 
Q 3006 2619 2597 2516 
z
" transform="scale(0.015625)"/>
       </defs>
       <use xlink:href="#DejaVuSans-30"/>
       <use xlink:href="#DejaVuSans-2e" x="63.623047"/>
       <use xlink:href="#DejaVuSans-33" x="95.410156"/>
      </g>
     </g>
    </g>
    <g id="ytick_5">
     <g id="line2d_15">
      <path d="M 54 240.192 
L 334.8 240.192 
" clip-path="url(#pf5912cf32f)" style="fill: none; stroke: #000000; stroke-opacity: 0.1; stroke-width: 0.7; stroke-linecap: square"/>
     </g>
     <g id="line2d_16">
      <g>
       <use xlink:href="#m4321516c11" x="54" y="240.192" style="stroke: #000000; stroke-width: 0.8"/>
      </g>
     </g>
     <g id="text_9">
      <!-- 0.4 -->
      <g transform="translate(26.325937 245.130984) scale(0.13 -0.13)">
       <defs>
        <path id="DejaVuSans-34" d="M 2419 4116 
L 825 1625 
L 2419 1625 
L 2419 4116 
z
M 2253 4666 
L 3047 4666 
L 3047 1625 
L 3713 1625 
L 3713 1100 
L 3047 1100 
L 3047 0 
L 2419 0 
L 2419 1100 
L 313 1100 
L 313 1709 
L 2253 4666 
z
" transform="scale(0.015625)"/>
       </defs>
       <use xlink:href="#DejaVuSans-30"/>
       <use xlink:href="#DejaVuSans-2e" x="63.623047"/>
       <use xlink:href="#DejaVuSans-34" x="95.410156"/>
      </g>
     </g>
    </g>
    <g id="ytick_6">
     <g id="line2d_17">
      <path d="M 54 203.04 
L 334.8 203.04 
" clip-path="url(#pf5912cf32f)" style="fill: none; stroke: #000000; stroke-opacity: 0.1; stroke-width: 0.7; stroke-linecap: square"/>
     </g>
     <g id="line2d_18">
      <g>
       <use xlink:href="#m4321516c11" x="54" y="203.04" style="stroke: #000000; stroke-width: 0.8"/>
      </g>
     </g>
     <g id="text_10">
      <!-- 0.5 -->
      <g transform="translate(26.325937 207.978984) scale(0.13 -0.13)">
       <use xlink:href="#DejaVuSans-30"/>
       <use xlink:href="#DejaVuSans-2e" x="63.623047"/>
       <use xlink:href="#DejaVuSans-35" x="95.410156"/>
      </g>
     </g>
    </g>
    <g id="ytick_7">
     <g id="line2d_19">
      <path d="M 54 165.888 
L 334.8 165.888 
" clip-path="url(#pf5912cf32f)" style="fill: none; stroke: #000000; stroke-opacity: 0.1; stroke-width: 0.7; stroke-linecap: square"/>
     </g>
     <g id="line2d_20">
      <g>
       <use xlink:href="#m4321516c11" x="54" y="165.888" style="stroke: #000000; stroke-width: 0.8"/>
      </g>
     </g>
     <g id="text_11">
      <!-- 0.6 -->
      <g transform="translate(26.325937 170.826984) scale(0.13 -0.13)">
       <defs>
        <path id="DejaVuSans-36" d="M 2113 2584 
Q 1688 2584 1439 2293 
Q 1191 2003 1191 1497 
Q 1191 994 1439 701 
Q 1688 409 2113 409 
Q 2538 409 2786 701 
Q 3034 994 3034 1497 
Q 3034 2003 2786 2293 
Q 2538 2584 2113 2584 
z
M 3366 4563 
L 3366 3988 
Q 3128 4100 2886 4159 
Q 2644 4219 2406 4219 
Q 1781 4219 1451 3797 
Q 1122 3375 1075 2522 
Q 1259 2794 1537 2939 
Q 1816 3084 2150 3084 
Q 2853 3084 3261 2657 
Q 3669 2231 3669 1497 
Q 3669 778 3244 343 
Q 2819 -91 2113 -91 
Q 1303 -91 875 529 
Q 447 1150 447 2328 
Q 447 3434 972 4092 
Q 1497 4750 2381 4750 
Q 2619 4750 2861 4703 
Q 3103 4656 3366 4563 
z
" transform="scale(0.015625)"/>
       </defs>
       <use xlink:href="#DejaVuSans-30"/>
       <use xlink:href="#DejaVuSans-2e" x="63.623047"/>
       <use xlink:href="#DejaVuSans-36" x="95.410156"/>
      </g>
     </g>
    </g>
    <g id="ytick_8">
     <g id="line2d_21">
      <path d="M 54 128.736 
L 334.8 128.736 
" clip-path="url(#pf5912cf32f)" style="fill: none; stroke: #000000; stroke-opacity: 0.1; stroke-width: 0.7; stroke-linecap: square"/>
     </g>
     <g id="line2d_22">
      <g>
       <use xlink:href="#m4321516c11" x="54" y="128.736" style="stroke: #000000; stroke-width: 0.8"/>
      </g>
     </g>
     <g id="text_12">
      <!-- 0.7 -->
      <g transform="translate(26.325937 133.674984) scale(0.13 -0.13)">
       <defs>
        <path id="DejaVuSans-37" d="M 525 4666 
L 3525 4666 
L 3525 4397 
L 1831 0 
L 1172 0 
L 2766 4134 
L 525 4134 
L 525 4666 
z
" transform="scale(0.015625)"/>
       </defs>
       <use xlink:href="#DejaVuSans-30"/>
       <use xlink:href="#DejaVuSans-2e" x="63.623047"/>
       <use xlink:href="#DejaVuSans-37" x="95.410156"/>
      </g>
     </g>
    </g>
    <g id="ytick_9">
     <g id="line2d_23">
      <path d="M 54 91.584 
L 334.8 91.584 
" clip-path="url(#pf5912cf32f)" style="fill: none; stroke: #000000; stroke-opacity: 0.1; stroke-width: 0.7; stroke-linecap: square"/>
     </g>
     <g id="line2d_24">
      <g>
       <use xlink:href="#m4321516c11" x="54" y="91.584" style="stroke: #000000; stroke-width: 0.8"/>
      </g>
     </g>
     <g id="text_13">
      <!-- 0.8 -->
      <g transform="translate(26.325937 96.522984) scale(0.13 -0.13)">
       <defs>
        <path id="DejaVuSans-38" d="M 2034 2216 
Q 1584 2216 1326 1975 
Q 1069 1734 1069 1313 
Q 1069 891 1326 650 
Q 1584 409 2034 409 
Q 2484 409 2743 651 
Q 3003 894 3003 1313 
Q 3003 1734 2745 1975 
Q 2488 2216 2034 2216 
z
M 1403 2484 
Q 997 2584 770 2862 
Q 544 3141 544 3541 
Q 544 4100 942 4425 
Q 1341 4750 2034 4750 
Q 2731 4750 3128 4425 
Q 3525 4100 3525 3541 
Q 3525 3141 3298 2862 
Q 3072 2584 2669 2484 
Q 3125 2378 3379 2068 
Q 3634 1759 3634 1313 
Q 3634 634 3220 271 
Q 2806 -91 2034 -91 
Q 1263 -91 848 271 
Q 434 634 434 1313 
Q 434 1759 690 2068 
Q 947 2378 1403 2484 
z
M 1172 3481 
Q 1172 3119 1398 2916 
Q 1625 2713 2034 2713 
Q 2441 2713 2670 2916 
Q 2900 3119 2900 3481 
Q 2900 3844 2670 4047 
Q 2441 4250 2034 4250 
Q 1625 4250 1398 4047 
Q 1172 3844 1172 3481 
z
" transform="scale(0.015625)"/>
       </defs>
       <use xlink:href="#DejaVuSans-30"/>
       <use xlink:href="#DejaVuSans-2e" x="63.623047"/>
       <use xlink:href="#DejaVuSans-38" x="95.410156"/>
      </g>
     </g>
    </g>
    <g id="ytick_10">
     <g id="line2d_25">
      <path d="M 54 54.432 
L 334.8 54.432 
" clip-path="url(#pf5912cf32f)" style="fill: none; stroke: #000000; stroke-opacity: 0.1; stroke-width: 0.7; stroke-linecap: square"/>
     </g>
     <g id="line2d_26">
      <g>
       <use xlink:href="#m4321516c11" x="54" y="54.432" style="stroke: #000000; stroke-width: 0.8"/>
      </g>
     </g>
     <g id="text_14">
      <!-- 0.9 -->
      <g transform="translate(26.325937 59.370984) scale(0.13 -0.13)">
       <defs>
        <path id="DejaVuSans-39" d="M 703 97 
L 703 672 
Q 941 559 1184 500 
Q 1428 441 1663 441 
Q 2288 441 2617 861 
Q 2947 1281 2994 2138 
Q 2813 1869 2534 1725 
Q 2256 1581 1919 1581 
Q 1219 1581 811 2004 
Q 403 2428 403 3163 
Q 403 3881 828 4315 
Q 1253 4750 1959 4750 
Q 2769 4750 3195 4129 
Q 3622 3509 3622 2328 
Q 3622 1225 3098 567 
Q 2575 -91 1691 -91 
Q 1453 -91 1209 -44 
Q 966 3 703 97 
z
M 1959 2075 
Q 2384 2075 2632 2365 
Q 2881 2656 2881 3163 
Q 2881 3666 2632 3958 
Q 2384 4250 1959 4250 
Q 1534 4250 1286 3958 
Q 1038 3666 1038 3163 
Q 1038 2656 1286 2365 
Q 1534 2075 1959 2075 
z
" transform="scale(0.015625)"/>
       </defs>
       <use xlink:href="#DejaVuSans-30"/>
       <use xlink:href="#DejaVuSans-2e" x="63.623047"/>
       <use xlink:href="#DejaVuSans-39" x="95.410156"/>
      </g>
     </g>
    </g>
    <g id="ytick_11">
     <g id="line2d_27">
      <path d="M 54 17.28 
L 334.8 17.28 
" clip-path="url(#pf5912cf32f)" style="fill: none; stroke: #000000; stroke-opacity: 0.1; stroke-width: 0.7; stroke-linecap: square"/>
     </g>
     <g id="line2d_28">
      <g>
       <use xlink:href="#m4321516c11" x="54" y="17.28" style="stroke: #000000; stroke-width: 0.8"/>
      </g>
     </g>
     <g id="text_15">
      <!-- 1.0 -->
      <g transform="translate(26.325937 22.218984) scale(0.13 -0.13)">
       <use xlink:href="#DejaVuSans-31"/>
       <use xlink:href="#DejaVuSans-2e" x="63.623047"/>
       <use xlink:href="#DejaVuSans-30" x="95.410156"/>
      </g>
     </g>
    </g>
    <g id="text_16">
     <!-- GCC Size -->
     <g transform="translate(18.998437 239.37625) rotate(-90) scale(0.16 -0.16)">
      <defs>
       <path id="DejaVuSans-47" d="M 3809 666 
L 3809 1919 
L 2778 1919 
L 2778 2438 
L 4434 2438 
L 4434 434 
Q 4069 175 3628 42 
Q 3188 -91 2688 -91 
Q 1594 -91 976 548 
Q 359 1188 359 2328 
Q 359 3472 976 4111 
Q 1594 4750 2688 4750 
Q 3144 4750 3555 4637 
Q 3966 4525 4313 4306 
L 4313 3634 
Q 3963 3931 3569 4081 
Q 3175 4231 2741 4231 
Q 1884 4231 1454 3753 
Q 1025 3275 1025 2328 
Q 1025 1384 1454 906 
Q 1884 428 2741 428 
Q 3075 428 3337 486 
Q 3600 544 3809 666 
z
" transform="scale(0.015625)"/>
       <path id="DejaVuSans-43" d="M 4122 4306 
L 4122 3641 
Q 3803 3938 3442 4084 
Q 3081 4231 2675 4231 
Q 1875 4231 1450 3742 
Q 1025 3253 1025 2328 
Q 1025 1406 1450 917 
Q 1875 428 2675 428 
Q 3081 428 3442 575 
Q 3803 722 4122 1019 
L 4122 359 
Q 3791 134 3420 21 
Q 3050 -91 2638 -91 
Q 1578 -91 968 557 
Q 359 1206 359 2328 
Q 359 3453 968 4101 
Q 1578 4750 2638 4750 
Q 3056 4750 3426 4639 
Q 3797 4528 4122 4306 
z
" transform="scale(0.015625)"/>
       <path id="DejaVuSans-53" d="M 3425 4513 
L 3425 3897 
Q 3066 4069 2747 4153 
Q 2428 4238 2131 4238 
Q 1616 4238 1336 4038 
Q 1056 3838 1056 3469 
Q 1056 3159 1242 3001 
Q 1428 2844 1947 2747 
L 2328 2669 
Q 3034 2534 3370 2195 
Q 3706 1856 3706 1288 
Q 3706 609 3251 259 
Q 2797 -91 1919 -91 
Q 1588 -91 1214 -16 
Q 841 59 441 206 
L 441 856 
Q 825 641 1194 531 
Q 1563 422 1919 422 
Q 2459 422 2753 634 
Q 3047 847 3047 1241 
Q 3047 1584 2836 1778 
Q 2625 1972 2144 2069 
L 1759 2144 
Q 1053 2284 737 2584 
Q 422 2884 422 3419 
Q 422 4038 858 4394 
Q 1294 4750 2059 4750 
Q 2388 4750 2728 4690 
Q 3069 4631 3425 4513 
z
" transform="scale(0.015625)"/>
       <path id="DejaVuSans-7a" d="M 353 3500 
L 3084 3500 
L 3084 2975 
L 922 459 
L 3084 459 
L 3084 0 
L 275 0 
L 275 525 
L 2438 3041 
L 353 3041 
L 353 3500 
z
" transform="scale(0.015625)"/>
       <path id="DejaVuSans-65" d="M 3597 1894 
L 3597 1613 
L 953 1613 
Q 991 1019 1311 708 
Q 1631 397 2203 397 
Q 2534 397 2845 478 
Q 3156 559 3463 722 
L 3463 178 
Q 3153 47 2828 -22 
Q 2503 -91 2169 -91 
Q 1331 -91 842 396 
Q 353 884 353 1716 
Q 353 2575 817 3079 
Q 1281 3584 2069 3584 
Q 2775 3584 3186 3129 
Q 3597 2675 3597 1894 
z
M 3022 2063 
Q 3016 2534 2758 2815 
Q 2500 3097 2075 3097 
Q 1594 3097 1305 2825 
Q 1016 2553 972 2059 
L 3022 2063 
z
" transform="scale(0.015625)"/>
      </defs>
      <use xlink:href="#DejaVuSans-47"/>
      <use xlink:href="#DejaVuSans-43" x="77.490234"/>
      <use xlink:href="#DejaVuSans-43" x="147.314453"/>
      <use xlink:href="#DejaVuSans-20" x="217.138672"/>
      <use xlink:href="#DejaVuSans-53" x="248.925781"/>
      <use xlink:href="#DejaVuSans-69" x="312.402344"/>
      <use xlink:href="#DejaVuSans-7a" x="340.185547"/>
      <use xlink:href="#DejaVuSans-65" x="392.675781"/>
     </g>
    </g>
   </g>
   <g id="line2d_29">
    <path d="M 54.113661 17.355191 
L 54.227322 17.430383 
L 54.568306 18.182295 
L 54.795628 18.332678 
L 55.022951 19.460546 
L 55.250273 19.610929 
L 55.363934 19.911694 
L 55.477596 191.122186 
L 56.045902 191.498142 
L 56.159563 191.723716 
L 56.273224 217.664699 
L 56.614208 217.890273 
L 56.84153 218.416612 
L 56.955191 267.215738 
L 57.637158 267.666885 
L 57.75082 291.502514 
L 57.864481 291.652896 
L 58.091803 292.630383 
L 58.319126 292.780765 
L 58.660109 293.231913 
L 58.77377 293.307104 
L 58.887432 297.367432 
L 59.569399 297.89377 
L 59.910383 298.194536 
L 60.024044 309.924372 
L 60.137705 309.999563 
L 60.365027 310.300328 
L 60.478689 310.375519 
L 60.706011 310.676284 
L 61.046995 310.901858 
L 61.274317 311.202623 
L 61.387978 311.277814 
L 61.501639 313.383169 
L 61.615301 313.383169 
L 61.956284 313.834317 
L 62.069945 314.736612 
L 62.183607 321.80459 
L 62.638251 322.180546 
L 62.865574 322.857268 
L 63.43388 323.308415 
L 63.547541 323.458798 
L 63.661202 323.985137 
L 63.888525 326.240874 
L 64.115847 326.541639 
L 64.343169 328.195847 
L 64.570492 328.421421 
L 64.797814 328.646995 
L 64.911475 338.873005 
L 65.025137 338.948197 
L 65.252459 339.399344 
L 65.593443 339.474536 
L 65.707104 339.549727 
L 65.820765 339.775301 
L 65.934426 347.670383 
L 66.502732 348.12153 
L 66.730055 348.422295 
L 66.843716 353.535301 
L 67.184699 353.760874 
L 67.525683 354.287213 
L 67.753005 354.437596 
L 67.866667 357.144481 
L 68.093989 357.219672 
L 68.434973 357.520437 
L 68.662295 359.47541 
L 69.003279 359.776175 
L 69.11694 359.851366 
L 69.457923 360.377705 
L 70.253552 360.452896 
L 70.367213 361.731148 
L 70.594536 361.731148 
L 70.821858 363.68612 
L 71.04918 363.836503 
L 71.503825 365.189945 
L 71.731148 365.565902 
L 71.844809 365.641093 
L 72.185792 368.197596 
L 72.413115 368.723934 
L 73.322404 369.400656 
L 73.549727 370.754098 
L 73.777049 371.205246 
L 74.231694 371.280437 
L 74.572678 371.43082 
L 74.913661 371.43082 
L 75.027322 372.257923 
L 75.254645 372.333115 
L 75.595628 372.784262 
L 75.822951 372.934645 
L 76.050273 374.363279 
L 76.163934 374.43847 
L 76.618579 375.791913 
L 77.073224 375.867104 
L 77.300546 376.017486 
L 77.527869 376.24306 
L 77.755191 376.318251 
L 78.323497 376.393443 
L 78.55082 376.694208 
L 78.778142 376.694208 
L 79.005464 377.070164 
L 79.232787 377.145355 
L 79.460109 377.145355 
L 79.687432 377.295738 
L 79.801093 377.897268 
L 80.596721 377.972459 
L 80.824044 378.04765 
L 81.165027 378.04765 
L 81.619672 378.498798 
L 82.301639 378.573989 
L 82.528962 379.025137 
L 82.756284 379.100328 
L 82.983607 379.175519 
L 83.097268 379.175519 
L 83.32459 379.401093 
L 83.779235 379.401093 
L 84.006557 379.701858 
L 84.915847 379.777049 
L 85.143169 380.002623 
L 85.484153 380.303388 
L 86.16612 380.679344 
L 87.07541 380.754536 
L 87.871038 381.205683 
L 88.098361 381.205683 
L 88.325683 381.581639 
L 89.234973 381.656831 
L 90.485246 382.408743 
L 90.712568 382.408743 
L 91.053552 382.709508 
L 91.621858 382.784699 
L 92.076503 383.010273 
L 92.303825 383.010273 
L 92.531148 383.160656 
L 93.099454 383.235847 
L 93.554098 383.461421 
L 93.895082 383.461421 
L 94.122404 383.611803 
L 94.463388 383.686995 
L 94.69071 383.762186 
L 95.145355 383.837377 
L 95.372678 383.912568 
L 96.850273 383.98776 
L 97.191257 384.138142 
L 97.986885 384.213333 
L 98.214208 384.288525 
L 99.35082 384.363716 
L 99.691803 384.514098 
L 99.805464 384.514098 
L 100.032787 384.664481 
L 100.942077 384.739672 
L 101.169399 384.814863 
L 101.737705 384.890055 
L 101.965027 385.040437 
L 102.533333 385.115628 
L 102.760656 385.19082 
L 103.783607 385.266011 
L 104.12459 385.416393 
L 104.806557 385.491585 
L 105.03388 385.566776 
L 105.488525 385.641967 
L 105.829508 385.79235 
L 107.761749 385.867541 
L 107.989071 385.942732 
L 108.898361 385.942732 
L 109.125683 386.093115 
L 109.80765 386.168306 
L 110.034973 386.243497 
L 111.398907 386.318689 
L 111.62623 386.39388 
L 112.421858 386.469071 
L 112.64918 386.544262 
L 114.581421 386.619454 
L 114.808743 386.694645 
L 116.627322 386.769836 
L 116.854645 386.845027 
L 120.037158 386.920219 
L 120.264481 386.99541 
L 122.424044 387.070601 
L 122.651366 387.145792 
L 125.265574 387.220984 
L 125.492896 387.296175 
L 128.334426 387.371366 
L 128.561749 387.446557 
L 132.312568 387.521749 
L 132.539891 387.59694 
L 136.518033 387.672131 
L 136.745355 387.747322 
L 143.337705 387.822514 
L 143.565027 387.897705 
L 151.521311 387.972896 
L 151.748634 388.048087 
L 161.75082 388.123279 
L 161.978142 388.19847 
L 177.095082 388.273661 
L 177.322404 388.348852 
L 204.260109 388.424044 
L 204.37377 388.499235 
L 204.37377 388.499235 
" clip-path="url(#pf5912cf32f)" style="fill: none; stroke: #d80000; stroke-width: 1.8; stroke-linecap: square"/>
   </g>
   <g id="line2d_30">
    <path d="M 54.113661 17.28 
L 54.340984 17.355191 
L 54.90929 17.655956 
L 55.250273 17.731148 
L 55.591257 17.88153 
L 56.045902 17.956721 
L 56.500546 18.182295 
L 56.727869 18.257486 
L 57.523497 18.708634 
L 57.75082 18.783825 
L 59.910383 20.137268 
L 60.137705 20.212459 
L 61.615301 21.265137 
L 62.069945 22.017049 
L 64.456831 23.520874 
L 64.684153 23.596066 
L 65.025137 23.746448 
L 65.820765 23.821639 
L 66.048087 23.972022 
L 66.389071 24.122404 
L 66.730055 24.197596 
L 66.957377 24.423169 
L 67.298361 24.723934 
L 67.525683 24.874317 
L 67.866667 24.874317 
L 68.20765 25.175082 
L 68.434973 25.250273 
L 68.889617 25.475847 
L 69.344262 25.551038 
L 69.571585 25.62623 
L 70.02623 25.701421 
L 70.935519 26.22776 
L 71.390164 26.302951 
L 72.072131 26.678907 
L 72.86776 26.754098 
L 73.549727 27.130055 
L 73.89071 27.205246 
L 74.572678 27.581202 
L 74.686339 27.581202 
L 74.913661 27.957158 
L 75.140984 29.83694 
L 76.391257 30.588852 
L 76.73224 30.664044 
L 77.414208 31.04 
L 78.096175 31.115191 
L 78.209836 31.190383 
L 78.323497 32.017486 
L 78.664481 32.092678 
L 78.891803 32.24306 
L 79.005464 42.093115 
L 79.232787 42.168306 
L 79.57377 42.318689 
L 79.801093 42.39388 
L 80.937705 43.070601 
L 81.278689 43.145792 
L 81.506011 43.220984 
L 82.187978 43.296175 
L 82.642623 43.521749 
L 83.097268 43.59694 
L 83.551913 43.972896 
L 83.665574 44.123279 
L 84.006557 44.950383 
L 85.029508 45.551913 
L 85.370492 45.627104 
L 85.597814 45.852678 
L 85.825137 45.927869 
L 86.052459 46.00306 
L 86.279781 46.078251 
L 86.734426 46.303825 
L 87.07541 46.379016 
L 87.302732 46.529399 
L 87.984699 46.60459 
L 88.439344 46.830164 
L 89.234973 46.905355 
L 89.575956 47.20612 
L 89.803279 47.431694 
L 90.030601 47.582077 
L 90.144262 144.12765 
L 90.371585 144.202842 
L 90.939891 144.202842 
L 91.053552 144.353224 
L 91.167213 146.53377 
L 92.076503 146.608962 
L 92.417486 146.909727 
L 92.644809 146.984918 
L 92.75847 150.594098 
L 93.440437 150.970055 
L 93.895082 151.045246 
L 94.349727 151.27082 
L 94.918033 151.346011 
L 95.145355 151.496393 
L 95.259016 153.67694 
L 95.486339 153.67694 
L 95.713661 153.827322 
L 95.940984 153.902514 
L 96.395628 154.128087 
L 97.077596 154.203279 
L 97.304918 154.27847 
L 97.645902 154.353661 
L 97.986885 154.504044 
L 98.100546 156.609399 
L 99.009836 156.68459 
L 99.123497 156.834973 
L 99.35082 160.519344 
L 99.464481 162.399126 
L 100.37377 162.474317 
L 100.601093 162.549508 
L 100.714754 162.549508 
L 100.942077 162.925464 
L 101.624044 163.000656 
L 101.965027 163.151038 
L 102.646995 163.22623 
L 102.874317 163.301421 
L 103.215301 163.376612 
L 103.442623 163.451803 
L 104.238251 163.451803 
L 104.351913 165.181202 
L 105.147541 165.256393 
L 105.261202 165.331585 
L 105.374863 166.534645 
L 106.284153 166.609836 
L 106.625137 166.760219 
L 106.852459 166.83541 
L 107.079781 167.737705 
L 107.307104 167.963279 
L 107.534426 168.03847 
L 108.102732 168.113661 
L 108.330055 168.264044 
L 108.443716 169.166339 
L 110.603279 169.24153 
L 110.830601 171.121311 
L 110.944262 172.023607 
L 111.171585 172.023607 
L 111.285246 173.828197 
L 111.398907 173.828197 
L 111.512568 174.580109 
L 112.080874 174.655301 
L 112.308197 174.730492 
L 112.421858 174.730492 
L 112.762842 175.031257 
L 113.331148 175.106448 
L 114.013115 175.482404 
L 114.354098 175.482404 
L 114.581421 175.632787 
L 115.036066 175.858361 
L 116.627322 175.933552 
L 116.854645 176.008743 
L 116.968306 176.008743 
L 117.195628 176.159126 
L 117.877596 176.234317 
L 118.104918 178.114098 
L 118.218579 178.264481 
L 118.445902 178.79082 
L 118.673224 178.866011 
L 119.014208 180.369836 
L 119.355191 180.369836 
L 119.582514 181.121749 
L 119.809836 181.272131 
L 119.923497 182.475191 
L 120.264481 182.475191 
L 120.491803 182.775956 
L 120.946448 182.851148 
L 121.17377 183.302295 
L 122.196721 183.377486 
L 122.537705 183.527869 
L 122.765027 184.655738 
L 122.99235 184.655738 
L 123.219672 185.182077 
L 123.560656 185.332459 
L 123.787978 185.40765 
L 123.901639 185.633224 
L 124.128962 187.287432 
L 124.356284 188.415301 
L 124.583607 188.490492 
L 125.379235 188.565683 
L 125.606557 188.640874 
L 125.83388 188.640874 
L 126.061202 188.941639 
L 126.174863 191.046995 
L 126.288525 191.046995 
L 126.402186 191.648525 
L 127.311475 191.648525 
L 127.425137 192.325246 
L 127.538798 192.325246 
L 127.652459 193.077158 
L 127.879781 193.15235 
L 127.993443 193.75388 
L 128.67541 193.829071 
L 129.130055 194.054645 
L 129.243716 194.054645 
L 129.357377 194.731366 
L 129.698361 194.806557 
L 130.039344 196.611148 
L 131.062295 196.686339 
L 131.289617 197.212678 
L 131.857923 197.287869 
L 132.085246 197.96459 
L 132.994536 198.039781 
L 133.335519 198.190164 
L 133.562842 198.791694 
L 133.676503 198.866885 
L 134.131148 200.746667 
L 134.244809 200.821858 
L 134.472131 201.197814 
L 134.813115 201.197814 
L 134.926776 202.100109 
L 135.608743 202.100109 
L 135.836066 202.626448 
L 136.063388 202.701639 
L 136.518033 202.776831 
L 136.745355 204.731803 
L 137.313661 204.806995 
L 137.540984 205.182951 
L 137.881967 205.258142 
L 138.10929 205.483716 
L 138.222951 206.085246 
L 138.791257 206.085246 
L 139.018579 206.536393 
L 139.13224 206.536393 
L 139.359563 207.062732 
L 139.814208 207.062732 
L 140.04153 207.51388 
L 140.268852 207.739454 
L 140.723497 207.814645 
L 141.746448 210.220765 
L 142.542077 210.295956 
L 142.769399 210.371148 
L 143.110383 210.446339 
L 143.451366 210.596721 
L 143.79235 210.596721 
L 144.019672 210.972678 
L 144.246995 211.348634 
L 144.587978 211.499016 
L 144.815301 213.153224 
L 146.520219 213.153224 
L 146.861202 213.754754 
L 146.974863 213.754754 
L 147.543169 215.108197 
L 147.656831 215.183388 
L 147.997814 216.236066 
L 148.338798 216.311257 
L 148.56612 216.461639 
L 148.907104 216.461639 
L 149.248087 218.26623 
L 150.157377 218.341421 
L 150.271038 219.093333 
L 151.180328 219.093333 
L 151.40765 219.394098 
L 151.975956 219.46929 
L 152.089617 220.07082 
L 152.430601 220.07082 
L 152.771585 220.973115 
L 152.998907 221.349071 
L 153.339891 222.100984 
L 153.453552 222.100984 
L 153.680874 222.326557 
L 154.931148 222.326557 
L 155.15847 222.47694 
L 155.726776 222.47694 
L 155.954098 223.003279 
L 156.522404 223.003279 
L 156.749727 223.153661 
L 156.977049 223.153661 
L 157.204372 223.454426 
L 157.431694 224.131148 
L 157.545355 224.807869 
L 157.772678 224.88306 
L 157.886339 224.958251 
L 158 225.559781 
L 158.454645 225.634973 
L 158.681967 226.010929 
L 158.90929 226.010929 
L 159.136612 226.462077 
L 159.477596 226.462077 
L 159.818579 227.439563 
L 160.614208 228.793005 
L 162.77377 228.793005 
L 163.569399 229.695301 
L 163.68306 229.695301 
L 164.137705 230.597596 
L 164.251366 230.597596 
L 164.478689 230.898361 
L 164.819672 230.898361 
L 165.046995 231.048743 
L 165.160656 231.048743 
L 165.501639 231.499891 
L 165.615301 231.499891 
L 166.297268 232.702951 
L 167.888525 232.702951 
L 168.343169 233.379672 
L 169.025137 233.454863 
L 169.252459 233.755628 
L 169.479781 233.755628 
L 169.707104 234.131585 
L 169.820765 234.281967 
L 170.048087 234.883497 
L 170.27541 234.958689 
L 170.389071 286.013552 
L 170.843716 286.013552 
L 171.639344 287.742951 
L 171.866667 288.118907 
L 172.093989 288.494863 
L 172.775956 289.246776 
L 173.912568 289.246776 
L 174.139891 289.47235 
L 174.594536 289.923497 
L 175.617486 289.923497 
L 176.072131 290.374645 
L 177.663388 290.374645 
L 177.89071 290.750601 
L 178.004372 290.750601 
L 178.231694 290.900984 
L 178.913661 290.976175 
L 179.140984 291.352131 
L 179.368306 291.427322 
L 179.481967 291.427322 
L 179.822951 292.028852 
L 179.936612 292.028852 
L 180.277596 292.630383 
L 180.504918 292.630383 
L 180.73224 298.344918 
L 182.209836 301.126995 
L 182.437158 301.126995 
L 182.891803 302.02929 
L 185.619672 302.02929 
L 185.846995 302.405246 
L 186.187978 302.555628 
L 186.415301 302.856393 
L 190.620765 302.856393 
L 190.734426 309.24765 
L 193.121311 309.322842 
L 193.575956 310.074754 
L 194.030601 310.300328 
L 194.257923 310.300328 
L 194.598907 310.826667 
L 195.280874 310.826667 
L 195.735519 311.277814 
L 195.84918 311.277814 
L 196.190164 311.728962 
L 196.417486 311.879344 
L 199.145355 311.879344 
L 199.372678 312.405683 
L 199.486339 312.405683 
L 199.713661 312.556066 
L 200.054645 312.556066 
L 200.168306 313.458361 
L 203.123497 313.458361 
L 203.35082 313.608743 
L 203.919126 313.608743 
L 203.919126 313.608743 
" clip-path="url(#pf5912cf32f)" style="fill: none; stroke: #264653; stroke-width: 1.8; stroke-linecap: square"/>
   </g>
   <g id="line2d_31">
    <path d="M 54.113661 17.28 
L 54.568306 17.505574 
L 54.795628 17.580765 
L 55.363934 17.88153 
L 55.591257 18.558251 
L 55.93224 18.558251 
L 56.273224 18.859016 
L 56.386885 19.986885 
L 57.182514 20.062077 
L 57.409836 20.513224 
L 62.979235 20.588415 
L 63.320219 20.738798 
L 63.888525 20.813989 
L 64.115847 20.88918 
L 65.36612 20.964372 
L 65.593443 21.641093 
L 66.048087 21.716284 
L 66.161749 21.791475 
L 66.502732 22.242623 
L 66.730055 22.317814 
L 67.184699 22.317814 
L 67.525683 22.618579 
L 69.912568 22.69377 
L 70.367213 22.919344 
L 71.390164 22.994536 
L 71.503825 23.069727 
L 71.731148 23.520874 
L 71.844809 23.671257 
L 72.072131 24.197596 
L 72.299454 24.723934 
L 72.754098 24.949508 
L 73.095082 24.949508 
L 73.322404 25.099891 
L 73.89071 25.175082 
L 74.231694 25.325464 
L 74.8 25.400656 
L 75.027322 25.475847 
L 77.186885 25.551038 
L 77.527869 25.701421 
L 77.868852 25.776612 
L 77.982514 25.851803 
L 78.209836 26.152568 
L 78.55082 26.22776 
L 78.664481 26.302951 
L 78.891803 26.528525 
L 79.460109 26.528525 
L 79.687432 26.904481 
L 80.48306 26.979672 
L 80.596721 27.581202 
L 83.097268 27.656393 
L 83.32459 27.731585 
L 85.370492 27.806776 
L 85.711475 27.957158 
L 90.144262 28.03235 
L 90.712568 28.333115 
L 91.735519 28.408306 
L 92.303825 28.709071 
L 92.872131 28.784262 
L 93.213115 29.385792 
L 94.008743 29.460984 
L 94.236066 29.83694 
L 94.577049 29.83694 
L 94.69071 30.588852 
L 95.372678 30.664044 
L 95.827322 30.889617 
L 96.736612 30.964809 
L 96.963934 31.04 
L 97.873224 31.04 
L 98.214208 31.340765 
L 98.555191 31.491148 
L 99.691803 31.566339 
L 99.805464 32.619016 
L 100.487432 32.694208 
L 100.942077 32.919781 
L 101.28306 32.919781 
L 101.510383 33.145355 
L 103.783607 33.220546 
L 104.010929 33.295738 
L 104.579235 33.370929 
L 104.806557 36.378579 
L 105.715847 36.45377 
L 105.943169 36.528962 
L 106.625137 36.528962 
L 106.852459 36.904918 
L 107.648087 36.980109 
L 107.87541 37.130492 
L 107.989071 38.107978 
L 108.216393 38.183169 
L 108.443716 38.258361 
L 109.012022 38.258361 
L 109.239344 38.408743 
L 109.580328 38.408743 
L 109.693989 39.912568 
L 110.148634 39.98776 
L 110.71694 40.288525 
L 110.944262 40.288525 
L 111.171585 41.115628 
L 111.512568 41.416393 
L 111.739891 42.017923 
L 111.967213 42.168306 
L 112.308197 44.875191 
L 112.421858 44.950383 
L 112.64918 45.251148 
L 112.876503 45.326339 
L 113.331148 46.830164 
L 113.444809 46.905355 
L 113.55847 47.657268 
L 113.785792 47.732459 
L 114.695082 48.785137 
L 114.922404 49.762623 
L 115.263388 50.063388 
L 115.377049 50.138579 
L 115.604372 50.439344 
L 115.831694 51.867978 
L 116.286339 52.394317 
L 116.513661 53.14623 
L 116.740984 53.221421 
L 117.081967 53.522186 
L 117.195628 53.597377 
L 117.422951 54.048525 
L 117.650273 55.702732 
L 117.763934 55.777923 
L 118.104918 56.529836 
L 118.218579 56.605027 
L 118.445902 57.582514 
L 119.127869 59.16153 
L 119.355191 60.514973 
L 120.037158 60.890929 
L 120.264481 61.868415 
L 120.605464 62.16918 
L 120.832787 62.469945 
L 120.946448 62.545137 
L 121.17377 63.297049 
L 121.401093 63.597814 
L 121.628415 65.026448 
L 121.969399 65.252022 
L 122.196721 65.627978 
L 122.878689 66.079126 
L 123.106011 66.755847 
L 123.560656 67.056612 
L 123.787978 67.808525 
L 124.128962 68.184481 
L 124.583607 71.11694 
L 124.697268 71.192131 
L 124.92459 71.944044 
L 125.038251 72.019235 
L 125.265574 72.620765 
L 125.492896 73.372678 
L 125.606557 73.447869 
L 125.83388 74.049399 
L 126.174863 74.274973 
L 126.402186 74.876503 
L 126.515847 82.019672 
L 127.084153 82.320437 
L 127.425137 83.67388 
L 127.538798 83.749071 
L 127.76612 85.328087 
L 127.879781 85.403279 
L 127.993443 90.140328 
L 128.107104 90.140328 
L 128.448087 91.042623 
L 128.561749 92.396066 
L 128.789071 92.471257 
L 129.471038 95.253333 
L 129.925683 96.306011 
L 130.039344 96.381202 
L 130.266667 96.907541 
L 130.380328 96.982732 
L 130.60765 98.561749 
L 131.175956 99.464044 
L 131.289617 100.516721 
L 131.51694 100.516721 
L 131.744262 102.321311 
L 132.085246 102.321311 
L 132.653552 103.298798 
L 132.880874 104.276284 
L 133.108197 104.426667 
L 133.562842 105.178579 
L 133.903825 105.479344 
L 134.017486 105.629727 
L 134.244809 107.208743 
L 134.35847 107.359126 
L 134.585792 107.810273 
L 134.926776 108.261421 
L 135.154098 108.411803 
L 135.381421 109.38929 
L 135.608743 110.291585 
L 136.063388 111.344262 
L 136.29071 111.945792 
L 136.404372 111.945792 
L 136.631694 112.321749 
L 136.745355 112.321749 
L 137.313661 115.630164 
L 137.427322 115.705355 
L 137.654645 116.532459 
L 137.768306 116.532459 
L 138.336612 118.41224 
L 138.450273 118.41224 
L 138.677596 118.863388 
L 138.791257 118.938579 
L 139.13224 119.540109 
L 139.359563 119.991257 
L 139.586885 120.517596 
L 139.700546 120.592787 
L 139.927869 120.893552 
L 140.155191 121.119126 
L 140.382514 121.570273 
L 140.496175 121.570273 
L 140.723497 122.246995 
L 141.064481 122.472568 
L 141.291803 122.773333 
L 141.519126 125.104262 
L 141.746448 125.630601 
L 141.860109 125.630601 
L 142.542077 126.683279 
L 142.769399 126.984044 
L 143.224044 127.209617 
L 143.451366 127.284809 
L 143.565027 128.262295 
L 143.79235 128.262295 
L 143.906011 128.487869 
L 144.133333 129.76612 
L 144.474317 129.841311 
L 144.587978 129.916503 
L 144.701639 130.743607 
L 145.042623 130.743607 
L 145.269945 131.044372 
L 145.497268 131.194754 
L 145.72459 131.645902 
L 145.951913 131.796284 
L 147.088525 134.653552 
L 147.315847 135.931803 
L 147.429508 135.931803 
L 147.770492 137.886776 
L 147.997814 138.037158 
L 148.225137 138.638689 
L 148.338798 138.789071 
L 148.56612 139.465792 
L 148.793443 139.691366 
L 149.020765 140.443279 
L 149.47541 140.744044 
L 149.702732 141.72153 
L 149.816393 141.796721 
L 150.271038 142.699016 
L 150.839344 143.074973 
L 151.066667 143.450929 
L 151.40765 143.751694 
L 151.748634 144.052459 
L 151.975956 145.631475 
L 152.089617 170.895738 
L 152.203279 170.970929 
L 152.657923 172.24918 
L 153.22623 175.707978 
L 153.453552 175.707978 
L 153.567213 175.858361 
L 153.794536 187.81377 
L 154.135519 188.941639 
L 154.24918 189.016831 
L 154.476503 190.069508 
L 154.590164 190.144699 
L 154.817486 190.821421 
L 155.044809 192.024481 
L 155.272131 194.881749 
L 155.499454 195.483279 
L 155.726776 196.611148 
L 155.840437 196.611148 
L 156.06776 196.911913 
L 157.318033 196.911913 
L 157.545355 197.513443 
L 157.772678 197.588634 
L 158.227322 198.114973 
L 158.681967 198.190164 
L 158.795628 198.340546 
L 158.90929 199.318033 
L 159.022951 199.318033 
L 159.136612 199.693989 
L 159.477596 204.055082 
L 159.704918 204.656612 
L 160.045902 205.558907 
L 160.273224 206.987541 
L 160.614208 207.213115 
L 161.296175 208.792131 
L 161.864481 208.792131 
L 162.432787 210.897486 
L 162.546448 210.897486 
L 162.887432 211.423825 
L 163.455738 211.423825 
L 163.569399 211.649399 
L 163.796721 212.702077 
L 164.024044 212.777268 
L 164.59235 212.852459 
L 164.819672 213.52918 
L 164.933333 213.604372 
L 165.274317 214.431475 
L 165.387978 214.506667 
L 165.728962 215.709727 
L 165.842623 215.709727 
L 166.069945 216.160874 
L 166.297268 216.837596 
L 166.52459 219.243716 
L 166.638251 219.243716 
L 166.751913 219.920437 
L 166.979235 219.920437 
L 167.092896 220.371585 
L 167.320219 221.800219 
L 167.547541 222.025792 
L 167.661202 222.100984 
L 168.456831 223.454426 
L 169.593443 223.454426 
L 169.820765 223.604809 
L 169.934426 224.28153 
L 170.048087 224.28153 
L 170.27541 224.507104 
L 170.389071 224.507104 
L 170.730055 225.559781 
L 170.843716 225.559781 
L 171.071038 226.08612 
L 171.639344 228.041093 
L 172.093989 228.041093 
L 172.321311 228.266667 
L 172.434973 228.266667 
L 173.571585 231.048743 
L 173.685246 231.123934 
L 173.912568 231.951038 
L 174.139891 231.951038 
L 174.367213 232.928525 
L 174.480874 232.928525 
L 174.594536 233.755628 
L 174.708197 233.755628 
L 175.04918 234.808306 
L 175.276503 234.808306 
L 175.503825 235.03388 
L 175.617486 235.184262 
L 175.731148 280.750164 
L 175.95847 280.975738 
L 176.185792 280.975738 
L 176.526776 281.802842 
L 177.777049 281.802842 
L 178.004372 282.178798 
L 179.254645 282.178798 
L 179.70929 282.93071 
L 179.936612 282.93071 
L 180.618579 283.682623 
L 181.186885 283.682623 
L 181.527869 286.163934 
L 181.755191 286.389508 
L 182.096175 286.389508 
L 182.209836 286.690273 
L 182.323497 288.043716 
L 182.55082 288.043716 
L 182.778142 288.720437 
L 182.891803 288.795628 
L 183.119126 289.021202 
L 183.232787 289.021202 
L 183.687432 290.149071 
L 184.255738 290.149071 
L 184.369399 290.449836 
L 184.48306 291.652896 
L 184.596721 291.652896 
L 184.824044 292.104044 
L 184.937705 292.104044 
L 185.165027 292.630383 
L 185.506011 292.630383 
L 185.733333 292.855956 
L 185.846995 292.855956 
L 186.301639 293.532678 
L 186.528962 293.532678 
L 186.756284 293.833443 
L 186.983607 293.833443 
L 187.210929 294.134208 
L 191.643716 294.134208 
L 191.871038 294.359781 
L 192.098361 295.562842 
L 192.325683 295.562842 
L 192.553005 295.863607 
L 192.666667 295.863607 
L 192.893989 296.013989 
L 193.462295 296.013989 
L 193.803279 296.540328 
L 194.144262 296.540328 
L 194.371585 297.066667 
L 194.712568 297.29224 
L 195.167213 298.119344 
L 195.621858 298.119344 
L 195.84918 298.269727 
L 195.962842 298.269727 
L 196.190164 298.720874 
L 196.75847 298.720874 
L 197.099454 299.247213 
L 197.326776 299.698361 
L 197.554098 299.848743 
L 197.66776 299.848743 
L 197.781421 302.931585 
L 198.122404 302.931585 
L 198.918033 304.43541 
L 199.031694 304.43541 
L 199.259016 304.811366 
L 203.009836 304.811366 
L 203.35082 305.412896 
L 204.37377 305.412896 
L 204.37377 305.412896 
" clip-path="url(#pf5912cf32f)" style="fill: none; stroke: #ffe211; stroke-width: 1.8; stroke-linecap: square"/>
   </g>
   <g id="line2d_32">
    <path d="M 54.113661 17.355191 
L 54.340984 17.430383 
L 54.795628 17.505574 
L 55.818579 18.107104 
L 56.500546 18.182295 
L 56.727869 18.257486 
L 56.84153 18.257486 
L 57.068852 18.633443 
L 57.296175 18.708634 
L 57.637158 18.859016 
L 57.864481 18.934208 
L 58.546448 19.310164 
L 59.001093 19.385355 
L 60.365027 20.212459 
L 60.819672 20.28765 
L 60.933333 20.362842 
L 61.160656 20.88918 
L 61.615301 20.964372 
L 61.728962 21.039563 
L 61.956284 21.265137 
L 62.183607 21.340328 
L 62.52459 21.340328 
L 62.751913 21.641093 
L 63.206557 21.866667 
L 63.43388 21.941858 
L 63.774863 22.242623 
L 64.002186 22.393005 
L 64.570492 22.69377 
L 64.797814 22.768962 
L 65.252459 22.994536 
L 65.820765 23.069727 
L 66.048087 23.220109 
L 66.502732 23.295301 
L 66.730055 23.520874 
L 67.639344 24.047213 
L 67.866667 24.723934 
L 68.093989 24.799126 
L 68.321311 24.874317 
L 68.548634 24.949508 
L 68.662295 24.949508 
L 68.889617 25.400656 
L 69.457923 25.701421 
L 69.912568 25.776612 
L 70.367213 26.077377 
L 70.594536 26.378142 
L 71.04918 26.678907 
L 71.276503 27.054863 
L 72.526776 27.130055 
L 72.640437 27.205246 
L 72.754098 27.806776 
L 73.322404 27.881967 
L 73.777049 28.107541 
L 74.118033 28.107541 
L 74.459016 28.408306 
L 74.686339 28.483497 
L 74.8 28.483497 
L 75.027322 28.63388 
L 75.481967 28.709071 
L 76.050273 29.009836 
L 76.277596 29.085027 
L 76.618579 29.23541 
L 76.959563 29.310601 
L 77.414208 29.536175 
L 77.868852 29.611366 
L 77.982514 29.686557 
L 78.096175 30.288087 
L 78.437158 30.363279 
L 78.778142 30.664044 
L 79.005464 31.04 
L 79.460109 31.115191 
L 81.278689 32.24306 
L 81.506011 32.318251 
L 81.733333 32.769399 
L 81.960656 32.84459 
L 82.301639 32.994973 
L 82.528962 33.070164 
L 82.869945 33.44612 
L 83.097268 33.521311 
L 83.665574 33.822077 
L 84.006557 33.897268 
L 84.802186 34.423607 
L 85.029508 34.799563 
L 85.370492 34.874754 
L 86.393443 35.476284 
L 86.734426 35.551475 
L 87.530055 36.002623 
L 87.757377 36.002623 
L 87.984699 36.153005 
L 88.212022 36.228197 
L 88.325683 36.228197 
L 88.553005 36.754536 
L 88.780328 36.904918 
L 89.00765 37.957596 
L 89.575956 38.258361 
L 89.91694 38.333552 
L 90.82623 38.859891 
L 91.167213 38.935082 
L 91.508197 39.235847 
L 92.417486 40.363716 
L 92.531148 40.363716 
L 92.75847 40.514098 
L 93.099454 40.58929 
L 94.008743 41.115628 
L 94.349727 41.19082 
L 94.69071 41.491585 
L 94.918033 41.566776 
L 95.259016 41.717158 
L 95.486339 42.469071 
L 96.054645 42.769836 
L 96.281967 44.348852 
L 96.963934 44.724809 
L 97.304918 44.8 
L 97.645902 44.950383 
L 97.873224 45.025574 
L 98.100546 45.326339 
L 98.896175 45.40153 
L 99.123497 45.551913 
L 99.35082 45.852678 
L 99.805464 46.228634 
L 100.032787 46.454208 
L 100.260109 47.582077 
L 100.37377 47.582077 
L 100.601093 48.108415 
L 100.828415 48.183607 
L 101.055738 48.634754 
L 101.28306 48.709945 
L 101.396721 48.709945 
L 101.737705 49.311475 
L 101.965027 49.311475 
L 102.19235 49.461858 
L 102.306011 49.537049 
L 102.533333 49.913005 
L 102.760656 49.988197 
L 102.987978 50.364153 
L 104.351913 51.191257 
L 104.579235 51.266448 
L 105.03388 51.642404 
L 105.147541 52.770273 
L 105.261202 52.770273 
L 105.488525 53.071038 
L 105.715847 53.14623 
L 106.284153 53.221421 
L 106.96612 53.74776 
L 107.193443 53.898142 
L 107.87541 54.274098 
L 107.989071 55.101202 
L 108.330055 55.101202 
L 108.557377 56.980984 
L 108.784699 57.056175 
L 108.898361 57.131366 
L 109.012022 58.033661 
L 109.580328 58.108852 
L 109.80765 58.484809 
L 110.034973 58.635191 
L 110.375956 59.387104 
L 110.489617 59.387104 
L 110.71694 61.116503 
L 110.944262 63.146667 
L 112.194536 63.97377 
L 112.762842 65.778361 
L 112.990164 65.853552 
L 113.217486 65.928743 
L 113.331148 66.981421 
L 113.672131 67.056612 
L 114.013115 67.282186 
L 114.240437 68.786011 
L 114.354098 68.786011 
L 114.695082 70.214645 
L 115.036066 70.51541 
L 115.263388 71.793661 
L 115.604372 71.868852 
L 115.718033 71.944044 
L 115.945355 72.846339 
L 116.172678 72.92153 
L 116.513661 72.996721 
L 116.740984 73.297486 
L 116.968306 73.52306 
L 117.30929 76.906667 
L 117.422951 76.906667 
L 117.536612 77.583388 
L 117.650273 77.583388 
L 117.877596 78.560874 
L 118.218579 79.087213 
L 118.559563 79.162404 
L 118.900546 79.839126 
L 119.127869 80.515847 
L 119.355191 80.591038 
L 119.582514 80.66623 
L 119.809836 80.891803 
L 120.264481 81.342951 
L 120.378142 82.546011 
L 120.605464 82.621202 
L 120.832787 84.125027 
L 121.287432 84.200219 
L 121.742077 84.576175 
L 121.855738 85.252896 
L 121.969399 85.252896 
L 122.196721 86.606339 
L 122.310383 86.68153 
L 122.424044 87.583825 
L 122.765027 87.659016 
L 123.106011 87.809399 
L 123.333333 90.666667 
L 123.674317 90.89224 
L 124.015301 91.944918 
L 124.242623 92.772022 
L 124.469945 93.824699 
L 124.697268 94.877377 
L 124.92459 95.478907 
L 125.265574 95.554098 
L 125.492896 96.681967 
L 125.83388 96.907541 
L 126.061202 98.03541 
L 126.402186 98.110601 
L 126.743169 98.260984 
L 126.856831 98.260984 
L 127.197814 98.862514 
L 127.425137 98.862514 
L 127.652459 99.012896 
L 127.76612 99.088087 
L 127.993443 99.614426 
L 128.220765 99.915191 
L 128.334426 99.915191 
L 128.902732 102.622077 
L 129.243716 103.900328 
L 129.471038 103.975519 
L 129.698361 104.351475 
L 129.925683 104.501858 
L 130.153005 105.028197 
L 130.948634 109.38929 
L 131.175956 109.38929 
L 131.403279 110.366776 
L 132.085246 112.772896 
L 132.198907 112.772896 
L 132.42623 113.6 
L 132.539891 113.6 
L 132.880874 114.953443 
L 133.335519 116.306885 
L 133.44918 117.284372 
L 133.676503 117.359563 
L 133.790164 117.961093 
L 134.017486 118.036284 
L 134.35847 119.540109 
L 134.472131 119.615301 
L 135.040437 121.269508 
L 135.26776 122.54776 
L 135.495082 123.675628 
L 135.722404 124.95388 
L 135.836066 125.029071 
L 136.063388 126.307322 
L 136.29071 126.532896 
L 136.404372 126.532896 
L 136.631694 127.36 
L 136.859016 127.585574 
L 137.2 128.56306 
L 137.313661 128.56306 
L 137.540984 129.014208 
L 137.768306 129.089399 
L 137.995628 129.16459 
L 138.10929 129.239781 
L 138.336612 129.916503 
L 138.450273 130.743607 
L 138.563934 130.743607 
L 138.904918 131.946667 
L 139.245902 132.17224 
L 139.473224 133.074536 
L 139.814208 134.578361 
L 141.632787 139.616175 
L 141.746448 140.443279 
L 142.087432 140.51847 
L 142.201093 140.744044 
L 142.428415 141.571148 
L 142.655738 142.172678 
L 142.769399 142.172678 
L 142.996721 142.623825 
L 143.451366 142.699016 
L 143.565027 142.774208 
L 143.79235 143.300546 
L 144.019672 143.375738 
L 144.587978 145.405902 
L 144.815301 145.405902 
L 145.269945 146.909727 
L 145.383607 146.984918 
L 146.406557 150.06776 
L 146.520219 150.06776 
L 146.861202 150.443716 
L 146.974863 150.443716 
L 147.429508 152.774645 
L 147.770492 152.774645 
L 147.997814 153.376175 
L 148.338798 153.451366 
L 148.56612 154.203279 
L 148.793443 154.353661 
L 149.020765 155.255956 
L 149.134426 155.255956 
L 149.361749 156.158251 
L 149.47541 156.759781 
L 149.589071 156.759781 
L 150.271038 159.015519 
L 150.384699 159.015519 
L 150.612022 160.068197 
L 150.839344 160.368962 
L 151.066667 160.594536 
L 151.40765 160.669727 
L 151.748634 162.098361 
L 151.975956 162.549508 
L 152.203279 162.699891 
L 152.544262 163.301421 
L 152.657923 163.376612 
L 153.112568 164.203716 
L 153.453552 164.203716 
L 154.021858 165.782732 
L 154.135519 165.782732 
L 154.476503 167.060984 
L 154.817486 167.136175 
L 154.931148 167.211366 
L 155.499454 168.865574 
L 155.613115 168.865574 
L 156.06776 169.767869 
L 156.408743 169.767869 
L 156.522404 169.993443 
L 156.863388 171.121311 
L 156.977049 171.121311 
L 157.204372 171.64765 
L 157.318033 171.64765 
L 157.545355 171.873224 
L 157.886339 172.775519 
L 158.227322 173.602623 
L 159.022951 175.933552 
L 159.363934 176.083934 
L 159.591257 176.835847 
L 159.818579 177.437377 
L 160.386885 179.016393 
L 160.614208 179.016393 
L 161.182514 180.820984 
L 161.523497 181.497705 
L 161.978142 181.572896 
L 162.546448 182.775956 
L 163.001093 183.60306 
L 163.114754 183.60306 
L 163.228415 183.753443 
L 163.342077 184.354973 
L 163.455738 184.354973 
L 164.478689 187.588197 
L 164.59235 187.588197 
L 165.501639 189.392787 
L 165.615301 189.994317 
L 165.956284 189.994317 
L 166.069945 190.595847 
L 166.183607 190.595847 
L 167.320219 192.701202 
L 167.43388 192.776393 
L 167.661202 193.678689 
L 168.570492 195.257705 
L 168.684153 195.332896 
L 168.911475 195.708852 
L 169.479781 196.535956 
L 169.820765 197.137486 
L 170.389071 198.039781 
L 170.616393 198.56612 
L 170.730055 198.641311 
L 171.184699 199.76918 
L 171.298361 199.919563 
L 171.753005 201.348197 
L 171.866667 201.348197 
L 172.093989 201.724153 
L 172.321311 201.724153 
L 172.889617 203.528743 
L 173.003279 203.528743 
L 173.230601 204.205464 
L 173.571585 204.205464 
L 174.594536 205.70929 
L 174.821858 206.010055 
L 175.162842 206.010055 
L 175.390164 206.611585 
L 176.072131 207.814645 
L 176.185792 207.814645 
L 176.413115 208.11541 
L 176.754098 208.71694 
L 176.86776 208.71694 
L 177.095082 209.243279 
L 177.208743 209.393661 
L 177.549727 210.295956 
L 178.572678 212.100546 
L 178.8 212.250929 
L 179.027322 212.250929 
L 179.254645 212.852459 
L 179.481967 213.228415 
L 179.822951 213.905137 
L 180.050273 213.980328 
L 180.277596 214.356284 
L 180.73224 214.657049 
L 180.959563 214.957814 
L 182.096175 217.063169 
L 182.209836 217.063169 
L 182.664481 218.191038 
L 183.119126 218.191038 
L 183.346448 218.566995 
L 183.57377 218.566995 
L 183.687432 219.018142 
L 183.801093 220.296393 
L 184.028415 220.296393 
L 184.369399 220.747541 
L 184.596721 221.123497 
L 184.824044 221.349071 
L 184.937705 221.349071 
L 185.619672 223.379235 
L 186.301639 223.454426 
L 186.528962 223.529617 
L 186.756284 223.830383 
L 186.869945 223.830383 
L 187.210929 224.582295 
L 187.438251 224.582295 
L 188.347541 226.537268 
L 188.574863 226.988415 
L 188.688525 226.988415 
L 188.915847 227.138798 
L 189.143169 227.213989 
L 189.256831 227.28918 
L 189.484153 227.514754 
L 189.938798 227.514754 
L 190.393443 228.717814 
L 190.620765 228.717814 
L 190.848087 229.09377 
L 191.189071 229.319344 
L 191.416393 229.695301 
L 191.643716 229.695301 
L 191.871038 229.996066 
L 192.098361 230.372022 
L 192.212022 230.372022 
L 192.439344 230.597596 
L 193.234973 231.499891 
L 193.348634 231.499891 
L 193.575956 231.951038 
L 193.689617 231.951038 
L 194.144262 232.62776 
L 194.257923 232.778142 
L 194.485246 233.154098 
L 194.712568 233.454863 
L 195.280874 233.454863 
L 195.508197 233.605246 
L 195.84918 233.605246 
L 196.076503 233.83082 
L 196.190164 233.83082 
L 196.417486 233.981202 
L 197.326776 234.582732 
L 197.554098 234.808306 
L 197.781421 234.958689 
L 198.122404 234.958689 
L 198.463388 235.710601 
L 198.804372 235.860984 
L 199.713661 235.860984 
L 200.054645 236.688087 
L 200.281967 236.688087 
L 200.963934 237.891148 
L 201.418579 237.966339 
L 201.645902 238.116721 
L 201.873224 238.116721 
L 202.44153 239.094208 
L 202.668852 239.094208 
L 203.123497 240.522842 
L 203.578142 240.522842 
L 203.805464 240.673224 
L 204.260109 240.673224 
L 204.37377 240.823607 
L 204.37377 240.823607 
" clip-path="url(#pf5912cf32f)" style="fill: none; stroke: #39c5bb; stroke-width: 1.8; stroke-linecap: square"/>
   </g>
   <g id="line2d_33">
    <path d="M 54.113661 17.580765 
L 54.681967 18.031913 
L 54.90929 19.460546 
L 55.022951 19.535738 
L 55.363934 20.438033 
L 55.818579 20.813989 
L 56.045902 22.167432 
L 57.523497 23.220109 
L 57.637158 23.671257 
L 57.75082 115.554973 
L 59.001093 116.457268 
L 59.228415 116.682842 
L 59.342077 116.682842 
L 59.569399 117.735519 
L 59.796721 117.81071 
L 61.046995 117.885902 
L 61.387978 118.41224 
L 61.501639 118.487432 
L 61.728962 119.01377 
L 61.956284 119.314536 
L 62.297268 119.540109 
L 62.410929 169.617486 
L 62.751913 169.767869 
L 62.979235 170.895738 
L 63.092896 170.895738 
L 63.43388 171.196503 
L 63.774863 171.497268 
L 64.115847 172.173989 
L 64.343169 172.24918 
L 64.570492 172.24918 
L 64.797814 172.474754 
L 64.911475 172.474754 
L 65.138798 172.775519 
L 65.479781 173.076284 
L 65.707104 174.655301 
L 67.866667 174.730492 
L 68.20765 174.880874 
L 68.434973 174.956066 
L 68.548634 175.106448 
L 68.775956 175.632787 
L 68.889617 175.632787 
L 69.344262 176.083934 
L 69.457923 186.309945 
L 70.139891 186.385137 
L 70.480874 186.685902 
L 70.594536 201.122623 
L 71.844809 201.122623 
L 72.072131 201.799344 
L 72.185792 214.657049 
L 72.413115 214.882623 
L 72.526776 218.491803 
L 72.86776 218.566995 
L 74.118033 219.318907 
L 74.572678 219.394098 
L 74.686339 233.003716 
L 75.254645 233.078907 
L 75.595628 233.379672 
L 77.186885 233.454863 
L 77.414208 233.605246 
L 77.64153 233.906011 
L 78.209836 233.981202 
L 78.323497 234.582732 
L 79.232787 234.582732 
L 79.346448 236.913661 
L 79.914754 236.988852 
L 80.142077 237.064044 
L 80.48306 237.139235 
L 80.710383 237.364809 
L 81.506011 237.364809 
L 81.733333 244.207213 
L 81.960656 244.282404 
L 82.187978 244.357596 
L 82.301639 245.560656 
L 82.869945 245.635847 
L 83.551913 246.011803 
L 83.892896 246.086995 
L 84.006557 246.162186 
L 84.120219 249.019454 
L 84.461202 249.094645 
L 84.688525 249.320219 
L 84.802186 253.982077 
L 85.143169 254.057268 
L 85.711475 254.358033 
L 86.393443 254.433224 
L 86.848087 254.658798 
L 87.189071 254.733989 
L 87.302732 263.606557 
L 87.757377 263.681749 
L 87.984699 263.907322 
L 88.098361 263.907322 
L 88.439344 264.208087 
L 88.666667 264.35847 
L 88.780328 268.118033 
L 89.00765 268.118033 
L 89.234973 268.418798 
L 89.348634 271.426448 
L 90.371585 271.501639 
L 90.485246 271.652022 
L 90.712568 274.358907 
L 92.872131 274.434098 
L 93.099454 274.659672 
L 93.213115 277.667322 
L 93.781421 277.742514 
L 94.349727 278.043279 
L 94.463388 281.351694 
L 95.031694 281.351694 
L 95.145355 285.111257 
L 95.940984 285.111257 
L 96.054645 297.89377 
L 98.100546 297.968962 
L 98.214208 300.224699 
L 98.327869 300.224699 
L 98.555191 300.675847 
L 98.668852 300.751038 
L 98.896175 303.533115 
L 99.805464 303.533115 
L 99.919126 303.984262 
L 100.032787 305.713661 
L 101.396721 305.713661 
L 101.510383 309.398033 
L 101.624044 309.398033 
L 101.737705 310.977049 
L 102.646995 310.977049 
L 102.874317 327.443934 
L 104.579235 327.519126 
L 104.806557 327.744699 
L 106.284153 327.819891 
L 106.397814 332.406557 
L 106.738798 332.406557 
L 106.852459 341.730273 
L 108.898361 341.805464 
L 109.125683 342.10623 
L 110.830601 342.10623 
L 111.057923 342.632568 
L 112.535519 342.632568 
L 112.64918 347.444809 
L 113.103825 347.444809 
L 113.331148 347.595191 
L 116.059016 347.670383 
L 116.286339 347.745574 
L 116.4 347.745574 
L 116.627322 347.971148 
L 117.536612 347.971148 
L 117.650273 355.264699 
L 119.24153 355.339891 
L 119.582514 355.791038 
L 119.696175 357.896393 
L 125.720219 357.971585 
L 125.83388 359.47541 
L 129.243716 359.47541 
L 129.471038 359.926557 
L 129.812022 359.926557 
L 130.039344 365.189945 
L 131.971585 365.189945 
L 132.198907 366.69377 
L 133.903825 366.69377 
L 134.017486 367.596066 
L 136.859016 367.596066 
L 136.972678 368.648743 
L 137.427322 368.648743 
L 137.654645 369.099891 
L 141.064481 369.099891 
L 141.178142 369.325464 
L 141.405464 369.851803 
L 143.565027 369.851803 
L 143.79235 370.22776 
L 143.906011 370.22776 
L 144.133333 370.979672 
L 152.203279 370.979672 
L 152.430601 373.611366 
L 158.113661 373.686557 
L 158.340984 373.761749 
L 163.68306 373.761749 
L 164.024044 374.664044 
L 164.251366 374.964809 
L 164.365027 374.964809 
L 164.59235 375.415956 
L 170.957377 375.415956 
L 171.184699 375.64153 
L 180.73224 375.64153 
L 181.073224 376.619016 
L 181.186885 377.220546 
L 181.527869 377.295738 
L 181.755191 377.44612 
L 182.323497 377.44612 
L 182.664481 378.04765 
L 193.91694 378.04765 
L 194.144262 378.423607 
L 204.032787 378.498798 
L 204.032787 378.498798 
" clip-path="url(#pf5912cf32f)" style="fill: none; stroke: #2a9d8f; stroke-width: 1.8; stroke-linecap: square"/>
   </g>
   <g id="line2d_34">
    <path d="M 54.113661 17.355191 
L 54.340984 17.505574 
L 54.568306 17.956721 
L 54.681967 17.956721 
L 54.90929 18.107104 
L 55.250273 18.332678 
L 55.477596 19.761311 
L 55.818579 20.738798 
L 56.500546 21.114754 
L 56.727869 21.189945 
L 57.068852 21.49071 
L 57.296175 21.716284 
L 57.523497 22.242623 
L 57.637158 22.393005 
L 57.75082 114.276721 
L 58.77377 115.028634 
L 59.001093 115.930929 
L 59.342077 116.00612 
L 59.68306 116.382077 
L 60.933333 116.457268 
L 61.046995 116.532459 
L 61.728962 117.81071 
L 62.297268 117.885902 
L 62.410929 117.961093 
L 62.52459 118.863388 
L 62.638251 118.863388 
L 62.865574 119.164153 
L 63.320219 119.389727 
L 63.888525 120.667978 
L 64.229508 120.818361 
L 64.343169 120.818361 
L 64.684153 121.344699 
L 64.911475 122.021421 
L 65.252459 122.322186 
L 65.36612 122.848525 
L 65.593443 138.187541 
L 65.707104 138.337923 
L 65.820765 157.586885 
L 66.161749 157.88765 
L 66.389071 158.113224 
L 67.639344 158.113224 
L 67.866667 159.466667 
L 68.20765 159.541858 
L 68.662295 159.842623 
L 68.889617 160.368962 
L 69.11694 160.519344 
L 69.344262 161.647213 
L 69.571585 161.872787 
L 69.798907 161.947978 
L 70.139891 162.248743 
L 70.253552 179.016393 
L 70.935519 179.39235 
L 71.04918 205.70929 
L 72.413115 205.70929 
L 72.754098 206.010055 
L 72.981421 206.085246 
L 73.208743 206.235628 
L 73.322404 239.24459 
L 73.436066 239.620546 
L 73.549727 252.327869 
L 74.231694 252.327869 
L 74.345355 313.608743 
L 74.459016 313.608743 
L 74.572678 314.736612 
L 76.504918 314.736612 
L 76.618579 323.533989 
L 77.300546 323.60918 
L 77.414208 323.684372 
L 77.64153 323.985137 
L 77.868852 324.060328 
L 78.437158 324.135519 
L 78.55082 324.737049 
L 80.824044 324.737049 
L 81.051366 325.113005 
L 84.915847 325.188197 
L 85.029508 329.022951 
L 85.825137 329.098142 
L 85.938798 329.173333 
L 86.052459 330.526776 
L 86.393443 330.601967 
L 86.620765 330.677158 
L 86.961749 330.75235 
L 87.189071 330.827541 
L 88.325683 330.902732 
L 88.439344 335.865355 
L 90.371585 335.940546 
L 90.82623 336.16612 
L 90.939891 350.903607 
L 92.872131 350.903607 
L 93.099454 351.12918 
L 93.554098 351.12918 
L 93.66776 351.279563 
L 93.781421 354.512787 
L 97.304918 354.587978 
L 97.53224 354.663169 
L 98.668852 354.663169 
L 98.782514 356.918907 
L 102.646995 356.918907 
L 102.760656 358.723497 
L 107.079781 358.798689 
L 107.193443 366.468197 
L 107.989071 366.543388 
L 108.102732 367.972022 
L 108.671038 367.972022 
L 108.784699 370.378142 
L 110.148634 370.378142 
L 110.262295 372.257923 
L 111.285246 372.257923 
L 111.398907 373.611366 
L 118.33224 373.611366 
L 118.445902 375.491148 
L 119.468852 375.491148 
L 119.582514 376.619016 
L 124.242623 376.619016 
L 124.356284 377.370929 
L 124.583607 377.370929 
L 124.697268 378.04765 
L 125.151913 378.04765 
L 125.265574 378.64918 
L 132.653552 378.724372 
L 132.880874 379.25071 
L 138.336612 379.25071 
L 138.563934 379.701858 
L 142.314754 379.701858 
L 142.542077 380.002623 
L 144.133333 380.002623 
L 144.360656 380.378579 
L 146.974863 380.378579 
L 147.202186 380.754536 
L 148.225137 380.754536 
L 148.452459 381.055301 
L 150.953005 381.055301 
L 151.180328 381.506448 
L 152.657923 381.506448 
L 152.885246 381.732022 
L 166.297268 381.732022 
L 166.52459 382.183169 
L 174.253552 382.183169 
L 174.594536 382.784699 
L 182.664481 382.859891 
L 182.891803 383.085464 
L 183.005464 383.085464 
L 183.232787 383.38623 
L 186.301639 383.38623 
L 186.528962 383.686995 
L 191.416393 383.686995 
L 191.643716 383.837377 
L 199.940984 383.837377 
L 200.281967 384.438907 
L 203.35082 384.438907 
L 203.35082 384.438907 
" clip-path="url(#pf5912cf32f)" style="fill: none; stroke: #e76f51; stroke-width: 1.8; stroke-linecap: square"/>
   </g>
   <g id="patch_3">
    <path d="M 54 388.8 
L 54 17.28 
" style="fill: none; stroke: #000000; stroke-width: 0.8; stroke-linejoin: miter; stroke-linecap: square"/>
   </g>
   <g id="patch_4">
    <path d="M 334.8 388.8 
L 334.8 17.28 
" style="fill: none; stroke: #000000; stroke-width: 0.8; stroke-linejoin: miter; stroke-linecap: square"/>
   </g>
   <g id="patch_5">
    <path d="M 54 388.8 
L 334.8 388.8 
" style="fill: none; stroke: #000000; stroke-width: 0.8; stroke-linejoin: miter; stroke-linecap: square"/>
   </g>
   <g id="patch_6">
    <path d="M 54 17.28 
L 334.8 17.28 
" style="fill: none; stroke: #000000; stroke-width: 0.8; stroke-linejoin: miter; stroke-linecap: square"/>
   </g>
   <g id="legend_1">
    <g id="patch_7">
     <path d="M 241.51125 132.5625 
L 326.4 132.5625 
Q 328.8 132.5625 328.8 130.1625 
L 328.8 25.68 
Q 328.8 23.28 326.4 23.28 
L 241.51125 23.28 
Q 239.11125 23.28 239.11125 25.68 
L 239.11125 130.1625 
Q 239.11125 132.5625 241.51125 132.5625 
z
" style="fill: #ffffff; opacity: 0.8; stroke: #cccccc; stroke-linejoin: miter"/>
    </g>
    <g id="line2d_35">
     <path d="M 243.91125 32.998125 
L 255.91125 32.998125 
L 267.91125 32.998125 
" style="fill: none; stroke: #d80000; stroke-width: 1.8; stroke-linecap: square"/>
    </g>
    <g id="text_17">
     <!-- None -->
     <g transform="translate(277.51125 37.198125) scale(0.12 -0.12)">
      <defs>
       <path id="DejaVuSans-4e" d="M 628 4666 
L 1478 4666 
L 3547 763 
L 3547 4666 
L 4159 4666 
L 4159 0 
L 3309 0 
L 1241 3903 
L 1241 0 
L 628 0 
L 628 4666 
z
" transform="scale(0.015625)"/>
       <path id="DejaVuSans-6e" d="M 3513 2113 
L 3513 0 
L 2938 0 
L 2938 2094 
Q 2938 2591 2744 2837 
Q 2550 3084 2163 3084 
Q 1697 3084 1428 2787 
Q 1159 2491 1159 1978 
L 1159 0 
L 581 0 
L 581 3500 
L 1159 3500 
L 1159 2956 
Q 1366 3272 1645 3428 
Q 1925 3584 2291 3584 
Q 2894 3584 3203 3211 
Q 3513 2838 3513 2113 
z
" transform="scale(0.015625)"/>
      </defs>
      <use xlink:href="#DejaVuSans-4e"/>
      <use xlink:href="#DejaVuSans-6f" x="74.804688"/>
      <use xlink:href="#DejaVuSans-6e" x="135.986328"/>
      <use xlink:href="#DejaVuSans-65" x="199.365234"/>
     </g>
    </g>
    <g id="line2d_36">
     <path d="M 243.91125 50.611875 
L 255.91125 50.611875 
L 267.91125 50.611875 
" style="fill: none; stroke: #264653; stroke-width: 1.8; stroke-linecap: square"/>
    </g>
    <g id="text_18">
     <!-- HD -->
     <g transform="translate(277.51125 54.811875) scale(0.12 -0.12)">
      <defs>
       <path id="DejaVuSans-48" d="M 628 4666 
L 1259 4666 
L 1259 2753 
L 3553 2753 
L 3553 4666 
L 4184 4666 
L 4184 0 
L 3553 0 
L 3553 2222 
L 1259 2222 
L 1259 0 
L 628 0 
L 628 4666 
z
" transform="scale(0.015625)"/>
       <path id="DejaVuSans-44" d="M 1259 4147 
L 1259 519 
L 2022 519 
Q 2988 519 3436 956 
Q 3884 1394 3884 2338 
Q 3884 3275 3436 3711 
Q 2988 4147 2022 4147 
L 1259 4147 
z
M 628 4666 
L 1925 4666 
Q 3281 4666 3915 4102 
Q 4550 3538 4550 2338 
Q 4550 1131 3912 565 
Q 3275 0 1925 0 
L 628 0 
L 628 4666 
z
" transform="scale(0.015625)"/>
      </defs>
      <use xlink:href="#DejaVuSans-48"/>
      <use xlink:href="#DejaVuSans-44" x="75.195312"/>
     </g>
    </g>
    <g id="line2d_37">
     <path d="M 243.91125 68.225625 
L 255.91125 68.225625 
L 267.91125 68.225625 
" style="fill: none; stroke: #ffe211; stroke-width: 1.8; stroke-linecap: square"/>
    </g>
    <g id="text_19">
     <!-- GND -->
     <g transform="translate(277.51125 72.425625) scale(0.12 -0.12)">
      <use xlink:href="#DejaVuSans-47"/>
      <use xlink:href="#DejaVuSans-4e" x="77.490234"/>
      <use xlink:href="#DejaVuSans-44" x="152.294922"/>
     </g>
    </g>
    <g id="line2d_38">
     <path d="M 243.91125 85.839375 
L 255.91125 85.839375 
L 267.91125 85.839375 
" style="fill: none; stroke: #39c5bb; stroke-width: 1.8; stroke-linecap: square"/>
    </g>
    <g id="text_20">
     <!-- BT -->
     <g transform="translate(277.51125 90.039375) scale(0.12 -0.12)">
      <defs>
       <path id="DejaVuSans-42" d="M 1259 2228 
L 1259 519 
L 2272 519 
Q 2781 519 3026 730 
Q 3272 941 3272 1375 
Q 3272 1813 3026 2020 
Q 2781 2228 2272 2228 
L 1259 2228 
z
M 1259 4147 
L 1259 2741 
L 2194 2741 
Q 2656 2741 2882 2914 
Q 3109 3088 3109 3444 
Q 3109 3797 2882 3972 
Q 2656 4147 2194 4147 
L 1259 4147 
z
M 628 4666 
L 2241 4666 
Q 2963 4666 3353 4366 
Q 3744 4066 3744 3513 
Q 3744 3084 3544 2831 
Q 3344 2578 2956 2516 
Q 3422 2416 3680 2098 
Q 3938 1781 3938 1306 
Q 3938 681 3513 340 
Q 3088 0 2303 0 
L 628 0 
L 628 4666 
z
" transform="scale(0.015625)"/>
       <path id="DejaVuSans-54" d="M -19 4666 
L 3928 4666 
L 3928 4134 
L 2272 4134 
L 2272 0 
L 1638 0 
L 1638 4134 
L -19 4134 
L -19 4666 
z
" transform="scale(0.015625)"/>
      </defs>
      <use xlink:href="#DejaVuSans-42"/>
      <use xlink:href="#DejaVuSans-54" x="68.603516"/>
     </g>
    </g>
    <g id="line2d_39">
     <path d="M 243.91125 103.453125 
L 255.91125 103.453125 
L 267.91125 103.453125 
" style="fill: none; stroke: #2a9d8f; stroke-width: 1.8; stroke-linecap: square"/>
    </g>
    <g id="text_21">
     <!-- DSTS-K -->
     <g transform="translate(277.51125 107.653125) scale(0.12 -0.12)">
      <defs>
       <path id="DejaVuSans-2d" d="M 313 2009 
L 1997 2009 
L 1997 1497 
L 313 1497 
L 313 2009 
z
" transform="scale(0.015625)"/>
       <path id="DejaVuSans-4b" d="M 628 4666 
L 1259 4666 
L 1259 2694 
L 3353 4666 
L 4166 4666 
L 1850 2491 
L 4331 0 
L 3500 0 
L 1259 2247 
L 1259 0 
L 628 0 
L 628 4666 
z
" transform="scale(0.015625)"/>
      </defs>
      <use xlink:href="#DejaVuSans-44"/>
      <use xlink:href="#DejaVuSans-53" x="77.001953"/>
      <use xlink:href="#DejaVuSans-54" x="140.478516"/>
      <use xlink:href="#DejaVuSans-53" x="201.5625"/>
      <use xlink:href="#DejaVuSans-2d" x="265.039062"/>
      <use xlink:href="#DejaVuSans-4b" x="301.123047"/>
     </g>
    </g>
    <g id="line2d_40">
     <path d="M 243.91125 121.066875 
L 255.91125 121.066875 
L 267.91125 121.066875 
" style="fill: none; stroke: #e76f51; stroke-width: 1.8; stroke-linecap: square"/>
    </g>
    <g id="text_22">
     <!-- DSTS-M -->
     <g transform="translate(277.51125 125.266875) scale(0.12 -0.12)">
      <defs>
       <path id="DejaVuSans-4d" d="M 628 4666 
L 1569 4666 
L 2759 1491 
L 3956 4666 
L 4897 4666 
L 4897 0 
L 4281 0 
L 4281 4097 
L 3078 897 
L 2444 897 
L 1241 4097 
L 1241 0 
L 628 0 
L 628 4666 
z
" transform="scale(0.015625)"/>
      </defs>
      <use xlink:href="#DejaVuSans-44"/>
      <use xlink:href="#DejaVuSans-53" x="77.001953"/>
      <use xlink:href="#DejaVuSans-54" x="140.478516"/>
      <use xlink:href="#DejaVuSans-53" x="201.5625"/>
      <use xlink:href="#DejaVuSans-2d" x="265.039062"/>
      <use xlink:href="#DejaVuSans-4d" x="301.123047"/>
     </g>
    </g>
   </g>
  </g>
 </g>
 <defs>
  <clipPath id="pf5912cf32f">
   <rect x="54" y="17.28" width="280.8" height="371.52"/>
  </clipPath>
 </defs>
</svg>
