<?xml version="1.0" encoding="utf-8" standalone="no"?>
<!DOCTYPE svg PUBLIC "-//W3C//DTD SVG 1.1//EN"
  "http://www.w3.org/Graphics/SVG/1.1/DTD/svg11.dtd">
<svg xmlns:xlink="http://www.w3.org/1999/xlink" width="360pt" height="432pt" viewBox="0 0 360 432" xmlns="http://www.w3.org/2000/svg" version="1.1">
 <metadata>
  <rdf:RDF xmlns:dc="http://purl.org/dc/elements/1.1/" xmlns:cc="http://creativecommons.org/ns#" xmlns:rdf="http://www.w3.org/1999/02/22-rdf-syntax-ns#">
   <cc:Work>
    <dc:type rdf:resource="http://purl.org/dc/dcmitype/StillImage"/>
    <dc:date>2026-04-01T15:25:07.262400</dc:date>
    <dc:format>image/svg+xml</dc:format>
    <dc:creator>
     <cc:Agent>
      <dc:title>Matplotlib v3.6.3, https://matplotlib.org/</dc:title>
     </cc:Agent>
    </dc:creator>
   </cc:Work>
  </rdf:RDF>
 </metadata>
 <defs>
  <style type="text/css">*{stroke-linejoin: round; stroke-linecap: butt}</style>
 </defs>
 <g id="figure_1">
  <g id="patch_1">
   <path d="M 0 432 
L 360 432 
L 360 0 
L 0 0 
z
" style="fill: #ffffff"/>
  </g>
  <g id="axes_1">
   <g id="patch_2">
    <path d="M 54 388.8 
L 334.8 388.8 
L 334.8 17.28 
L 54 17.28 
z
" style="fill: #ffffff"/>
   </g>
   <g id="matplotlib.axis_1">
    <g id="xtick_1">
     <g id="line2d_1">
      <path d="M 54 388.8 
L 54 17.28 
" clip-path="url(#p975f3cff89)" style="fill: none; stroke: #000000; stroke-opacity: 0.1; stroke-width: 0.7; stroke-linecap: square"/>
     </g>
     <g id="line2d_2">
      <defs>
       <path id="mba491a1ac1" d="M 0 0 
L 0 3.5 
" style="stroke: #000000; stroke-width: 0.8"/>
      </defs>
      <g>
       <use xlink:href="#mba491a1ac1" x="54" y="388.8" style="stroke: #000000; stroke-width: 0.8"/>
      </g>
     </g>
     <g id="text_1">
      <!-- 0.00 -->
      <g transform="translate(39.527344 405.677969) scale(0.13 -0.13)">
       <defs>
        <path id="DejaVuSans-30" d="M 2034 4250 
Q 1547 4250 1301 3770 
Q 1056 3291 1056 2328 
Q 1056 1369 1301 889 
Q 1547 409 2034 409 
Q 2525 409 2770 889 
Q 3016 1369 3016 2328 
Q 3016 3291 2770 3770 
Q 2525 4250 2034 4250 
z
M 2034 4750 
Q 2819 4750 3233 4129 
Q 3647 3509 3647 2328 
Q 3647 1150 3233 529 
Q 2819 -91 2034 -91 
Q 1250 -91 836 529 
Q 422 1150 422 2328 
Q 422 3509 836 4129 
Q 1250 4750 2034 4750 
z
" transform="scale(0.015625)"/>
        <path id="DejaVuSans-2e" d="M 684 794 
L 1344 794 
L 1344 0 
L 684 0 
L 684 794 
z
" transform="scale(0.015625)"/>
       </defs>
       <use xlink:href="#DejaVuSans-30"/>
       <use xlink:href="#DejaVuSans-2e" x="63.623047"/>
       <use xlink:href="#DejaVuSans-30" x="95.410156"/>
       <use xlink:href="#DejaVuSans-30" x="159.033203"/>
      </g>
     </g>
    </g>
    <g id="xtick_2">
     <g id="line2d_3">
      <path d="M 194.4 388.8 
L 194.4 17.28 
" clip-path="url(#p975f3cff89)" style="fill: none; stroke: #000000; stroke-opacity: 0.1; stroke-width: 0.7; stroke-linecap: square"/>
     </g>
     <g id="line2d_4">
      <g>
       <use xlink:href="#mba491a1ac1" x="194.4" y="388.8" style="stroke: #000000; stroke-width: 0.8"/>
      </g>
     </g>
     <g id="text_2">
      <!-- 0.25 -->
      <g transform="translate(179.927344 405.677969) scale(0.13 -0.13)">
       <defs>
        <path id="DejaVuSans-32" d="M 1228 531 
L 3431 531 
L 3431 0 
L 469 0 
L 469 531 
Q 828 903 1448 1529 
Q 2069 2156 2228 2338 
Q 2531 2678 2651 2914 
Q 2772 3150 2772 3378 
Q 2772 3750 2511 3984 
Q 2250 4219 1831 4219 
Q 1534 4219 1204 4116 
Q 875 4013 500 3803 
L 500 4441 
Q 881 4594 1212 4672 
Q 1544 4750 1819 4750 
Q 2544 4750 2975 4387 
Q 3406 4025 3406 3419 
Q 3406 3131 3298 2873 
Q 3191 2616 2906 2266 
Q 2828 2175 2409 1742 
Q 1991 1309 1228 531 
z
" transform="scale(0.015625)"/>
        <path id="DejaVuSans-35" d="M 691 4666 
L 3169 4666 
L 3169 4134 
L 1269 4134 
L 1269 2991 
Q 1406 3038 1543 3061 
Q 1681 3084 1819 3084 
Q 2600 3084 3056 2656 
Q 3513 2228 3513 1497 
Q 3513 744 3044 326 
Q 2575 -91 1722 -91 
Q 1428 -91 1123 -41 
Q 819 9 494 109 
L 494 744 
Q 775 591 1075 516 
Q 1375 441 1709 441 
Q 2250 441 2565 725 
Q 2881 1009 2881 1497 
Q 2881 1984 2565 2268 
Q 2250 2553 1709 2553 
Q 1456 2553 1204 2497 
Q 953 2441 691 2322 
L 691 4666 
z
" transform="scale(0.015625)"/>
       </defs>
       <use xlink:href="#DejaVuSans-30"/>
       <use xlink:href="#DejaVuSans-2e" x="63.623047"/>
       <use xlink:href="#DejaVuSans-32" x="95.410156"/>
       <use xlink:href="#DejaVuSans-35" x="159.033203"/>
      </g>
     </g>
    </g>
    <g id="xtick_3">
     <g id="line2d_5">
      <path d="M 334.8 388.8 
L 334.8 17.28 
" clip-path="url(#p975f3cff89)" style="fill: none; stroke: #000000; stroke-opacity: 0.1; stroke-width: 0.7; stroke-linecap: square"/>
     </g>
     <g id="line2d_6">
      <g>
       <use xlink:href="#mba491a1ac1" x="334.8" y="388.8" style="stroke: #000000; stroke-width: 0.8"/>
      </g>
     </g>
     <g id="text_3">
      <!-- 0.50 -->
      <g transform="translate(320.327344 405.677969) scale(0.13 -0.13)">
       <use xlink:href="#DejaVuSans-30"/>
       <use xlink:href="#DejaVuSans-2e" x="63.623047"/>
       <use xlink:href="#DejaVuSans-35" x="95.410156"/>
       <use xlink:href="#DejaVuSans-30" x="159.033203"/>
      </g>
     </g>
    </g>
    <g id="text_4">
     <!-- Attack Ratio -->
     <g transform="translate(145.78375 424.539062) scale(0.16 -0.16)">
      <defs>
       <path id="DejaVuSans-41" d="M 2188 4044 
L 1331 1722 
L 3047 1722 
L 2188 4044 
z
M 1831 4666 
L 2547 4666 
L 4325 0 
L 3669 0 
L 3244 1197 
L 1141 1197 
L 716 0 
L 50 0 
L 1831 4666 
z
" transform="scale(0.015625)"/>
       <path id="DejaVuSans-74" d="M 1172 4494 
L 1172 3500 
L 2356 3500 
L 2356 3053 
L 1172 3053 
L 1172 1153 
Q 1172 725 1289 603 
Q 1406 481 1766 481 
L 2356 481 
L 2356 0 
L 1766 0 
Q 1100 0 847 248 
Q 594 497 594 1153 
L 594 3053 
L 172 3053 
L 172 3500 
L 594 3500 
L 594 4494 
L 1172 4494 
z
" transform="scale(0.015625)"/>
       <path id="DejaVuSans-61" d="M 2194 1759 
Q 1497 1759 1228 1600 
Q 959 1441 959 1056 
Q 959 750 1161 570 
Q 1363 391 1709 391 
Q 2188 391 2477 730 
Q 2766 1069 2766 1631 
L 2766 1759 
L 2194 1759 
z
M 3341 1997 
L 3341 0 
L 2766 0 
L 2766 531 
Q 2569 213 2275 61 
Q 1981 -91 1556 -91 
Q 1019 -91 701 211 
Q 384 513 384 1019 
Q 384 1609 779 1909 
Q 1175 2209 1959 2209 
L 2766 2209 
L 2766 2266 
Q 2766 2663 2505 2880 
Q 2244 3097 1772 3097 
Q 1472 3097 1187 3025 
Q 903 2953 641 2809 
L 641 3341 
Q 956 3463 1253 3523 
Q 1550 3584 1831 3584 
Q 2591 3584 2966 3190 
Q 3341 2797 3341 1997 
z
" transform="scale(0.015625)"/>
       <path id="DejaVuSans-63" d="M 3122 3366 
L 3122 2828 
Q 2878 2963 2633 3030 
Q 2388 3097 2138 3097 
Q 1578 3097 1268 2742 
Q 959 2388 959 1747 
Q 959 1106 1268 751 
Q 1578 397 2138 397 
Q 2388 397 2633 464 
Q 2878 531 3122 666 
L 3122 134 
Q 2881 22 2623 -34 
Q 2366 -91 2075 -91 
Q 1284 -91 818 406 
Q 353 903 353 1747 
Q 353 2603 823 3093 
Q 1294 3584 2113 3584 
Q 2378 3584 2631 3529 
Q 2884 3475 3122 3366 
z
" transform="scale(0.015625)"/>
       <path id="DejaVuSans-6b" d="M 581 4863 
L 1159 4863 
L 1159 1991 
L 2875 3500 
L 3609 3500 
L 1753 1863 
L 3688 0 
L 2938 0 
L 1159 1709 
L 1159 0 
L 581 0 
L 581 4863 
z
" transform="scale(0.015625)"/>
       <path id="DejaVuSans-20" transform="scale(0.015625)"/>
       <path id="DejaVuSans-52" d="M 2841 2188 
Q 3044 2119 3236 1894 
Q 3428 1669 3622 1275 
L 4263 0 
L 3584 0 
L 2988 1197 
Q 2756 1666 2539 1819 
Q 2322 1972 1947 1972 
L 1259 1972 
L 1259 0 
L 628 0 
L 628 4666 
L 2053 4666 
Q 2853 4666 3247 4331 
Q 3641 3997 3641 3322 
Q 3641 2881 3436 2590 
Q 3231 2300 2841 2188 
z
M 1259 4147 
L 1259 2491 
L 2053 2491 
Q 2509 2491 2742 2702 
Q 2975 2913 2975 3322 
Q 2975 3731 2742 3939 
Q 2509 4147 2053 4147 
L 1259 4147 
z
" transform="scale(0.015625)"/>
       <path id="DejaVuSans-69" d="M 603 3500 
L 1178 3500 
L 1178 0 
L 603 0 
L 603 3500 
z
M 603 4863 
L 1178 4863 
L 1178 4134 
L 603 4134 
L 603 4863 
z
" transform="scale(0.015625)"/>
       <path id="DejaVuSans-6f" d="M 1959 3097 
Q 1497 3097 1228 2736 
Q 959 2375 959 1747 
Q 959 1119 1226 758 
Q 1494 397 1959 397 
Q 2419 397 2687 759 
Q 2956 1122 2956 1747 
Q 2956 2369 2687 2733 
Q 2419 3097 1959 3097 
z
M 1959 3584 
Q 2709 3584 3137 3096 
Q 3566 2609 3566 1747 
Q 3566 888 3137 398 
Q 2709 -91 1959 -91 
Q 1206 -91 779 398 
Q 353 888 353 1747 
Q 353 2609 779 3096 
Q 1206 3584 1959 3584 
z
" transform="scale(0.015625)"/>
      </defs>
      <use xlink:href="#DejaVuSans-41"/>
      <use xlink:href="#DejaVuSans-74" x="66.658203"/>
      <use xlink:href="#DejaVuSans-74" x="105.867188"/>
      <use xlink:href="#DejaVuSans-61" x="145.076172"/>
      <use xlink:href="#DejaVuSans-63" x="206.355469"/>
      <use xlink:href="#DejaVuSans-6b" x="261.335938"/>
      <use xlink:href="#DejaVuSans-20" x="319.246094"/>
      <use xlink:href="#DejaVuSans-52" x="351.033203"/>
      <use xlink:href="#DejaVuSans-61" x="418.265625"/>
      <use xlink:href="#DejaVuSans-74" x="479.544922"/>
      <use xlink:href="#DejaVuSans-69" x="518.753906"/>
      <use xlink:href="#DejaVuSans-6f" x="546.537109"/>
     </g>
    </g>
   </g>
   <g id="matplotlib.axis_2">
    <g id="ytick_1">
     <g id="line2d_7">
      <path d="M 54 388.8 
L 334.8 388.8 
" clip-path="url(#p975f3cff89)" style="fill: none; stroke: #000000; stroke-opacity: 0.1; stroke-width: 0.7; stroke-linecap: square"/>
     </g>
     <g id="line2d_8">
      <defs>
       <path id="ma8a57117b7" d="M 0 0 
L -3.5 0 
" style="stroke: #000000; stroke-width: 0.8"/>
      </defs>
      <g>
       <use xlink:href="#ma8a57117b7" x="54" y="388.8" style="stroke: #000000; stroke-width: 0.8"/>
      </g>
     </g>
     <g id="text_5">
      <!-- 0.0 -->
      <g transform="translate(26.325937 393.738984) scale(0.13 -0.13)">
       <use xlink:href="#DejaVuSans-30"/>
       <use xlink:href="#DejaVuSans-2e" x="63.623047"/>
       <use xlink:href="#DejaVuSans-30" x="95.410156"/>
      </g>
     </g>
    </g>
    <g id="ytick_2">
     <g id="line2d_9">
      <path d="M 54 351.648 
L 334.8 351.648 
" clip-path="url(#p975f3cff89)" style="fill: none; stroke: #000000; stroke-opacity: 0.1; stroke-width: 0.7; stroke-linecap: square"/>
     </g>
     <g id="line2d_10">
      <g>
       <use xlink:href="#ma8a57117b7" x="54" y="351.648" style="stroke: #000000; stroke-width: 0.8"/>
      </g>
     </g>
     <g id="text_6">
      <!-- 0.1 -->
      <g transform="translate(26.325937 356.586984) scale(0.13 -0.13)">
       <defs>
        <path id="DejaVuSans-31" d="M 794 531 
L 1825 531 
L 1825 4091 
L 703 3866 
L 703 4441 
L 1819 4666 
L 2450 4666 
L 2450 531 
L 3481 531 
L 3481 0 
L 794 0 
L 794 531 
z
" transform="scale(0.015625)"/>
       </defs>
       <use xlink:href="#DejaVuSans-30"/>
       <use xlink:href="#DejaVuSans-2e" x="63.623047"/>
       <use xlink:href="#DejaVuSans-31" x="95.410156"/>
      </g>
     </g>
    </g>
    <g id="ytick_3">
     <g id="line2d_11">
      <path d="M 54 314.496 
L 334.8 314.496 
" clip-path="url(#p975f3cff89)" style="fill: none; stroke: #000000; stroke-opacity: 0.1; stroke-width: 0.7; stroke-linecap: square"/>
     </g>
     <g id="line2d_12">
      <g>
       <use xlink:href="#ma8a57117b7" x="54" y="314.496" style="stroke: #000000; stroke-width: 0.8"/>
      </g>
     </g>
     <g id="text_7">
      <!-- 0.2 -->
      <g transform="translate(26.325937 319.434984) scale(0.13 -0.13)">
       <use xlink:href="#DejaVuSans-30"/>
       <use xlink:href="#DejaVuSans-2e" x="63.623047"/>
       <use xlink:href="#DejaVuSans-32" x="95.410156"/>
      </g>
     </g>
    </g>
    <g id="ytick_4">
     <g id="line2d_13">
      <path d="M 54 277.344 
L 334.8 277.344 
" clip-path="url(#p975f3cff89)" style="fill: none; stroke: #000000; stroke-opacity: 0.1; stroke-width: 0.7; stroke-linecap: square"/>
     </g>
     <g id="line2d_14">
      <g>
       <use xlink:href="#ma8a57117b7" x="54" y="277.344" style="stroke: #000000; stroke-width: 0.8"/>
      </g>
     </g>
     <g id="text_8">
      <!-- 0.3 -->
      <g transform="translate(26.325937 282.282984) scale(0.13 -0.13)">
       <defs>
        <path id="DejaVuSans-33" d="M 2597 2516 
Q 3050 2419 3304 2112 
Q 3559 1806 3559 1356 
Q 3559 666 3084 287 
Q 2609 -91 1734 -91 
Q 1441 -91 1130 -33 
Q 819 25 488 141 
L 488 750 
Q 750 597 1062 519 
Q 1375 441 1716 441 
Q 2309 441 2620 675 
Q 2931 909 2931 1356 
Q 2931 1769 2642 2001 
Q 2353 2234 1838 2234 
L 1294 2234 
L 1294 2753 
L 1863 2753 
Q 2328 2753 2575 2939 
Q 2822 3125 2822 3475 
Q 2822 3834 2567 4026 
Q 2313 4219 1838 4219 
Q 1578 4219 1281 4162 
Q 984 4106 628 3988 
L 628 4550 
Q 988 4650 1302 4700 
Q 1616 4750 1894 4750 
Q 2613 4750 3031 4423 
Q 3450 4097 3450 3541 
Q 3450 3153 3228 2886 
Q 3006 2619 2597 2516 
z
" transform="scale(0.015625)"/>
       </defs>
       <use xlink:href="#DejaVuSans-30"/>
       <use xlink:href="#DejaVuSans-2e" x="63.623047"/>
       <use xlink:href="#DejaVuSans-33" x="95.410156"/>
      </g>
     </g>
    </g>
    <g id="ytick_5">
     <g id="line2d_15">
      <path d="M 54 240.192 
L 334.8 240.192 
" clip-path="url(#p975f3cff89)" style="fill: none; stroke: #000000; stroke-opacity: 0.1; stroke-width: 0.7; stroke-linecap: square"/>
     </g>
     <g id="line2d_16">
      <g>
       <use xlink:href="#ma8a57117b7" x="54" y="240.192" style="stroke: #000000; stroke-width: 0.8"/>
      </g>
     </g>
     <g id="text_9">
      <!-- 0.4 -->
      <g transform="translate(26.325937 245.130984) scale(0.13 -0.13)">
       <defs>
        <path id="DejaVuSans-34" d="M 2419 4116 
L 825 1625 
L 2419 1625 
L 2419 4116 
z
M 2253 4666 
L 3047 4666 
L 3047 1625 
L 3713 1625 
L 3713 1100 
L 3047 1100 
L 3047 0 
L 2419 0 
L 2419 1100 
L 313 1100 
L 313 1709 
L 2253 4666 
z
" transform="scale(0.015625)"/>
       </defs>
       <use xlink:href="#DejaVuSans-30"/>
       <use xlink:href="#DejaVuSans-2e" x="63.623047"/>
       <use xlink:href="#DejaVuSans-34" x="95.410156"/>
      </g>
     </g>
    </g>
    <g id="ytick_6">
     <g id="line2d_17">
      <path d="M 54 203.04 
L 334.8 203.04 
" clip-path="url(#p975f3cff89)" style="fill: none; stroke: #000000; stroke-opacity: 0.1; stroke-width: 0.7; stroke-linecap: square"/>
     </g>
     <g id="line2d_18">
      <g>
       <use xlink:href="#ma8a57117b7" x="54" y="203.04" style="stroke: #000000; stroke-width: 0.8"/>
      </g>
     </g>
     <g id="text_10">
      <!-- 0.5 -->
      <g transform="translate(26.325937 207.978984) scale(0.13 -0.13)">
       <use xlink:href="#DejaVuSans-30"/>
       <use xlink:href="#DejaVuSans-2e" x="63.623047"/>
       <use xlink:href="#DejaVuSans-35" x="95.410156"/>
      </g>
     </g>
    </g>
    <g id="ytick_7">
     <g id="line2d_19">
      <path d="M 54 165.888 
L 334.8 165.888 
" clip-path="url(#p975f3cff89)" style="fill: none; stroke: #000000; stroke-opacity: 0.1; stroke-width: 0.7; stroke-linecap: square"/>
     </g>
     <g id="line2d_20">
      <g>
       <use xlink:href="#ma8a57117b7" x="54" y="165.888" style="stroke: #000000; stroke-width: 0.8"/>
      </g>
     </g>
     <g id="text_11">
      <!-- 0.6 -->
      <g transform="translate(26.325937 170.826984) scale(0.13 -0.13)">
       <defs>
        <path id="DejaVuSans-36" d="M 2113 2584 
Q 1688 2584 1439 2293 
Q 1191 2003 1191 1497 
Q 1191 994 1439 701 
Q 1688 409 2113 409 
Q 2538 409 2786 701 
Q 3034 994 3034 1497 
Q 3034 2003 2786 2293 
Q 2538 2584 2113 2584 
z
M 3366 4563 
L 3366 3988 
Q 3128 4100 2886 4159 
Q 2644 4219 2406 4219 
Q 1781 4219 1451 3797 
Q 1122 3375 1075 2522 
Q 1259 2794 1537 2939 
Q 1816 3084 2150 3084 
Q 2853 3084 3261 2657 
Q 3669 2231 3669 1497 
Q 3669 778 3244 343 
Q 2819 -91 2113 -91 
Q 1303 -91 875 529 
Q 447 1150 447 2328 
Q 447 3434 972 4092 
Q 1497 4750 2381 4750 
Q 2619 4750 2861 4703 
Q 3103 4656 3366 4563 
z
" transform="scale(0.015625)"/>
       </defs>
       <use xlink:href="#DejaVuSans-30"/>
       <use xlink:href="#DejaVuSans-2e" x="63.623047"/>
       <use xlink:href="#DejaVuSans-36" x="95.410156"/>
      </g>
     </g>
    </g>
    <g id="ytick_8">
     <g id="line2d_21">
      <path d="M 54 128.736 
L 334.8 128.736 
" clip-path="url(#p975f3cff89)" style="fill: none; stroke: #000000; stroke-opacity: 0.1; stroke-width: 0.7; stroke-linecap: square"/>
     </g>
     <g id="line2d_22">
      <g>
       <use xlink:href="#ma8a57117b7" x="54" y="128.736" style="stroke: #000000; stroke-width: 0.8"/>
      </g>
     </g>
     <g id="text_12">
      <!-- 0.7 -->
      <g transform="translate(26.325937 133.674984) scale(0.13 -0.13)">
       <defs>
        <path id="DejaVuSans-37" d="M 525 4666 
L 3525 4666 
L 3525 4397 
L 1831 0 
L 1172 0 
L 2766 4134 
L 525 4134 
L 525 4666 
z
" transform="scale(0.015625)"/>
       </defs>
       <use xlink:href="#DejaVuSans-30"/>
       <use xlink:href="#DejaVuSans-2e" x="63.623047"/>
       <use xlink:href="#DejaVuSans-37" x="95.410156"/>
      </g>
     </g>
    </g>
    <g id="ytick_9">
     <g id="line2d_23">
      <path d="M 54 91.584 
L 334.8 91.584 
" clip-path="url(#p975f3cff89)" style="fill: none; stroke: #000000; stroke-opacity: 0.1; stroke-width: 0.7; stroke-linecap: square"/>
     </g>
     <g id="line2d_24">
      <g>
       <use xlink:href="#ma8a57117b7" x="54" y="91.584" style="stroke: #000000; stroke-width: 0.8"/>
      </g>
     </g>
     <g id="text_13">
      <!-- 0.8 -->
      <g transform="translate(26.325937 96.522984) scale(0.13 -0.13)">
       <defs>
        <path id="DejaVuSans-38" d="M 2034 2216 
Q 1584 2216 1326 1975 
Q 1069 1734 1069 1313 
Q 1069 891 1326 650 
Q 1584 409 2034 409 
Q 2484 409 2743 651 
Q 3003 894 3003 1313 
Q 3003 1734 2745 1975 
Q 2488 2216 2034 2216 
z
M 1403 2484 
Q 997 2584 770 2862 
Q 544 3141 544 3541 
Q 544 4100 942 4425 
Q 1341 4750 2034 4750 
Q 2731 4750 3128 4425 
Q 3525 4100 3525 3541 
Q 3525 3141 3298 2862 
Q 3072 2584 2669 2484 
Q 3125 2378 3379 2068 
Q 3634 1759 3634 1313 
Q 3634 634 3220 271 
Q 2806 -91 2034 -91 
Q 1263 -91 848 271 
Q 434 634 434 1313 
Q 434 1759 690 2068 
Q 947 2378 1403 2484 
z
M 1172 3481 
Q 1172 3119 1398 2916 
Q 1625 2713 2034 2713 
Q 2441 2713 2670 2916 
Q 2900 3119 2900 3481 
Q 2900 3844 2670 4047 
Q 2441 4250 2034 4250 
Q 1625 4250 1398 4047 
Q 1172 3844 1172 3481 
z
" transform="scale(0.015625)"/>
       </defs>
       <use xlink:href="#DejaVuSans-30"/>
       <use xlink:href="#DejaVuSans-2e" x="63.623047"/>
       <use xlink:href="#DejaVuSans-38" x="95.410156"/>
      </g>
     </g>
    </g>
    <g id="ytick_10">
     <g id="line2d_25">
      <path d="M 54 54.432 
L 334.8 54.432 
" clip-path="url(#p975f3cff89)" style="fill: none; stroke: #000000; stroke-opacity: 0.1; stroke-width: 0.7; stroke-linecap: square"/>
     </g>
     <g id="line2d_26">
      <g>
       <use xlink:href="#ma8a57117b7" x="54" y="54.432" style="stroke: #000000; stroke-width: 0.8"/>
      </g>
     </g>
     <g id="text_14">
      <!-- 0.9 -->
      <g transform="translate(26.325937 59.370984) scale(0.13 -0.13)">
       <defs>
        <path id="DejaVuSans-39" d="M 703 97 
L 703 672 
Q 941 559 1184 500 
Q 1428 441 1663 441 
Q 2288 441 2617 861 
Q 2947 1281 2994 2138 
Q 2813 1869 2534 1725 
Q 2256 1581 1919 1581 
Q 1219 1581 811 2004 
Q 403 2428 403 3163 
Q 403 3881 828 4315 
Q 1253 4750 1959 4750 
Q 2769 4750 3195 4129 
Q 3622 3509 3622 2328 
Q 3622 1225 3098 567 
Q 2575 -91 1691 -91 
Q 1453 -91 1209 -44 
Q 966 3 703 97 
z
M 1959 2075 
Q 2384 2075 2632 2365 
Q 2881 2656 2881 3163 
Q 2881 3666 2632 3958 
Q 2384 4250 1959 4250 
Q 1534 4250 1286 3958 
Q 1038 3666 1038 3163 
Q 1038 2656 1286 2365 
Q 1534 2075 1959 2075 
z
" transform="scale(0.015625)"/>
       </defs>
       <use xlink:href="#DejaVuSans-30"/>
       <use xlink:href="#DejaVuSans-2e" x="63.623047"/>
       <use xlink:href="#DejaVuSans-39" x="95.410156"/>
      </g>
     </g>
    </g>
    <g id="ytick_11">
     <g id="line2d_27">
      <path d="M 54 17.28 
L 334.8 17.28 
" clip-path="url(#p975f3cff89)" style="fill: none; stroke: #000000; stroke-opacity: 0.1; stroke-width: 0.7; stroke-linecap: square"/>
     </g>
     <g id="line2d_28">
      <g>
       <use xlink:href="#ma8a57117b7" x="54" y="17.28" style="stroke: #000000; stroke-width: 0.8"/>
      </g>
     </g>
     <g id="text_15">
      <!-- 1.0 -->
      <g transform="translate(26.325937 22.218984) scale(0.13 -0.13)">
       <use xlink:href="#DejaVuSans-31"/>
       <use xlink:href="#DejaVuSans-2e" x="63.623047"/>
       <use xlink:href="#DejaVuSans-30" x="95.410156"/>
      </g>
     </g>
    </g>
    <g id="text_16">
     <!-- GCC Size -->
     <g transform="translate(18.998437 239.37625) rotate(-90) scale(0.16 -0.16)">
      <defs>
       <path id="DejaVuSans-47" d="M 3809 666 
L 3809 1919 
L 2778 1919 
L 2778 2438 
L 4434 2438 
L 4434 434 
Q 4069 175 3628 42 
Q 3188 -91 2688 -91 
Q 1594 -91 976 548 
Q 359 1188 359 2328 
Q 359 3472 976 4111 
Q 1594 4750 2688 4750 
Q 3144 4750 3555 4637 
Q 3966 4525 4313 4306 
L 4313 3634 
Q 3963 3931 3569 4081 
Q 3175 4231 2741 4231 
Q 1884 4231 1454 3753 
Q 1025 3275 1025 2328 
Q 1025 1384 1454 906 
Q 1884 428 2741 428 
Q 3075 428 3337 486 
Q 3600 544 3809 666 
z
" transform="scale(0.015625)"/>
       <path id="DejaVuSans-43" d="M 4122 4306 
L 4122 3641 
Q 3803 3938 3442 4084 
Q 3081 4231 2675 4231 
Q 1875 4231 1450 3742 
Q 1025 3253 1025 2328 
Q 1025 1406 1450 917 
Q 1875 428 2675 428 
Q 3081 428 3442 575 
Q 3803 722 4122 1019 
L 4122 359 
Q 3791 134 3420 21 
Q 3050 -91 2638 -91 
Q 1578 -91 968 557 
Q 359 1206 359 2328 
Q 359 3453 968 4101 
Q 1578 4750 2638 4750 
Q 3056 4750 3426 4639 
Q 3797 4528 4122 4306 
z
" transform="scale(0.015625)"/>
       <path id="DejaVuSans-53" d="M 3425 4513 
L 3425 3897 
Q 3066 4069 2747 4153 
Q 2428 4238 2131 4238 
Q 1616 4238 1336 4038 
Q 1056 3838 1056 3469 
Q 1056 3159 1242 3001 
Q 1428 2844 1947 2747 
L 2328 2669 
Q 3034 2534 3370 2195 
Q 3706 1856 3706 1288 
Q 3706 609 3251 259 
Q 2797 -91 1919 -91 
Q 1588 -91 1214 -16 
Q 841 59 441 206 
L 441 856 
Q 825 641 1194 531 
Q 1563 422 1919 422 
Q 2459 422 2753 634 
Q 3047 847 3047 1241 
Q 3047 1584 2836 1778 
Q 2625 1972 2144 2069 
L 1759 2144 
Q 1053 2284 737 2584 
Q 422 2884 422 3419 
Q 422 4038 858 4394 
Q 1294 4750 2059 4750 
Q 2388 4750 2728 4690 
Q 3069 4631 3425 4513 
z
" transform="scale(0.015625)"/>
       <path id="DejaVuSans-7a" d="M 353 3500 
L 3084 3500 
L 3084 2975 
L 922 459 
L 3084 459 
L 3084 0 
L 275 0 
L 275 525 
L 2438 3041 
L 353 3041 
L 353 3500 
z
" transform="scale(0.015625)"/>
       <path id="DejaVuSans-65" d="M 3597 1894 
L 3597 1613 
L 953 1613 
Q 991 1019 1311 708 
Q 1631 397 2203 397 
Q 2534 397 2845 478 
Q 3156 559 3463 722 
L 3463 178 
Q 3153 47 2828 -22 
Q 2503 -91 2169 -91 
Q 1331 -91 842 396 
Q 353 884 353 1716 
Q 353 2575 817 3079 
Q 1281 3584 2069 3584 
Q 2775 3584 3186 3129 
Q 3597 2675 3597 1894 
z
M 3022 2063 
Q 3016 2534 2758 2815 
Q 2500 3097 2075 3097 
Q 1594 3097 1305 2825 
Q 1016 2553 972 2059 
L 3022 2063 
z
" transform="scale(0.015625)"/>
      </defs>
      <use xlink:href="#DejaVuSans-47"/>
      <use xlink:href="#DejaVuSans-43" x="77.490234"/>
      <use xlink:href="#DejaVuSans-43" x="147.314453"/>
      <use xlink:href="#DejaVuSans-20" x="217.138672"/>
      <use xlink:href="#DejaVuSans-53" x="248.925781"/>
      <use xlink:href="#DejaVuSans-69" x="312.402344"/>
      <use xlink:href="#DejaVuSans-7a" x="340.185547"/>
      <use xlink:href="#DejaVuSans-65" x="392.675781"/>
     </g>
    </g>
   </g>
   <g id="line2d_29">
    <path d="M 54.086747 17.337386 
L 54.346988 17.624319 
L 54.607229 19.001594 
L 54.954217 19.632845 
L 55.387952 20.723188 
L 55.561446 21.124893 
L 55.648193 21.18228 
L 56.255422 22.846487 
L 56.428916 24.510695 
L 56.515663 24.625468 
L 56.60241 26.06013 
L 56.775904 32.085709 
L 56.862651 32.430028 
L 57.036145 58.196552 
L 57.122892 58.253939 
L 57.46988 58.999963 
L 57.816867 61.467581 
L 58.424096 63.533494 
L 58.684337 65.140315 
L 58.857831 71.739759 
L 59.031325 72.657943 
L 59.118072 72.944875 
L 59.812048 78.568749 
L 59.985542 80.921594 
L 60.072289 80.978981 
L 60.33253 81.897164 
L 60.506024 84.651715 
L 60.679518 85.914217 
L 60.766265 85.971603 
L 61.026506 86.373309 
L 61.460241 93.030139 
L 61.546988 93.374458 
L 61.633735 96.129008 
L 61.807229 114.836997 
L 61.980723 115.984727 
L 62.06747 116.0995 
L 62.327711 118.739277 
L 62.501205 120.001779 
L 62.587952 120.116552 
L 62.761446 136.127377 
L 63.195181 140.373976 
L 63.368675 140.947841 
L 63.542169 144.391029 
L 63.715663 146.456942 
L 63.889157 196.555329 
L 64.062651 197.35874 
L 64.236145 197.588285 
L 64.322892 197.703058 
L 64.66988 199.13772 
L 64.843373 208.491715 
L 64.93012 209.467285 
L 65.103614 250.32645 
L 65.277108 251.47418 
L 65.363855 254.859981 
L 65.537349 278.560593 
L 65.624096 279.134458 
L 65.971084 285.733902 
L 66.057831 285.791288 
L 66.231325 291.759481 
L 66.491566 335.545357 
L 66.66506 335.717516 
L 66.838554 337.152178 
L 66.925301 337.209564 
L 67.098795 337.668656 
L 67.272289 340.136274 
L 67.792771 340.595366 
L 67.966265 351.09709 
L 68.139759 353.392549 
L 68.486747 353.909027 
L 68.833735 364.468137 
L 69.26747 364.468137 
L 69.354217 365.328934 
L 69.527711 368.886895 
L 69.701205 368.886895 
L 69.874699 374.33861 
L 69.961446 374.453383 
L 70.221687 375.371566 
L 70.308434 375.371566 
L 70.568675 378.470436 
L 70.742169 378.470436 
L 70.915663 378.699981 
L 71.089157 378.699981 
L 71.262651 378.814754 
L 71.783133 378.814754 
L 72.303614 379.388619 
L 72.477108 380.306803 
L 72.737349 380.364189 
L 72.910843 380.421576 
L 73.084337 380.708508 
L 73.691566 380.765894 
L 73.86506 381.684078 
L 73.951807 381.684078 
L 74.125301 382.257943 
L 74.298795 382.372715 
L 74.73253 382.372715 
L 75.079518 383.176126 
L 75.166265 383.176126 
L 75.339759 383.979537 
L 75.426506 383.979537 
L 75.6 384.610788 
L 75.860241 384.668174 
L 76.293976 385.06988 
L 76.727711 385.127266 
L 76.901205 385.242039 
L 76.987952 385.242039 
L 77.33494 385.586358 
L 77.421687 385.586358 
L 77.855422 386.045449 
L 78.20241 386.102836 
L 78.375904 386.389768 
L 79.243373 386.84886 
L 79.416867 386.84886 
L 79.590361 386.963633 
L 80.110843 387.021019 
L 80.371084 387.078406 
L 80.631325 387.135792 
L 80.891566 387.193179 
L 81.238554 387.250565 
L 81.585542 387.365338 
L 82.279518 387.422725 
L 82.626506 387.537498 
L 83.146988 387.594884 
L 83.493976 387.709657 
L 84.274699 387.767044 
L 84.53494 387.82443 
L 85.228916 387.881816 
L 85.489157 387.939203 
L 86.790361 387.996589 
L 87.050602 388.053976 
L 88.698795 388.111362 
L 88.959036 388.168749 
L 91.127711 388.226135 
L 91.387952 388.283522 
L 93.903614 388.340908 
L 94.163855 388.398295 
L 96.245783 388.455681 
L 96.245783 388.455681 
" clip-path="url(#p975f3cff89)" style="fill: none; stroke: #d80000; stroke-width: 1.8; stroke-linecap: square"/>
   </g>
   <g id="line2d_30">
    <path d="M 54.086747 17.28 
L 54.346988 17.28 
L 54.520482 17.394773 
L 56.168675 17.452159 
L 56.60241 17.624319 
L 57.903614 17.681705 
L 58.337349 17.853865 
L 60.419277 17.911251 
L 60.679518 17.968638 
L 61.893976 18.026024 
L 62.154217 18.083411 
L 62.93494 18.140797 
L 63.195181 18.198184 
L 65.79759 18.25557 
L 66.057831 18.312956 
L 67.098795 18.370343 
L 67.359036 18.427729 
L 67.792771 18.485116 
L 68.053012 18.542502 
L 68.226506 18.599889 
L 68.486747 18.657275 
L 68.573494 18.657275 
L 68.746988 18.772048 
L 69.007229 18.829435 
L 69.26747 18.886821 
L 70.221687 18.944208 
L 70.481928 19.001594 
L 71.00241 19.001594 
L 71.349398 19.288526 
L 72.477108 19.345913 
L 72.824096 19.460686 
L 72.910843 19.460686 
L 73.084337 19.632845 
L 73.86506 19.690232 
L 74.125301 19.747618 
L 75.513253 19.805005 
L 75.686747 20.034551 
L 76.120482 20.034551 
L 76.293976 20.149323 
L 76.640964 20.20671 
L 76.901205 20.264096 
L 77.161446 20.264096 
L 77.33494 20.378869 
L 78.028916 20.436256 
L 78.289157 20.493642 
L 78.549398 20.551029 
L 78.809639 20.608415 
L 78.983133 20.608415 
L 79.243373 20.780575 
L 79.590361 20.837961 
L 79.850602 20.895348 
L 80.19759 20.952734 
L 80.631325 21.124893 
L 81.06506 21.18228 
L 81.759036 21.526599 
L 82.106024 21.583985 
L 82.626506 21.813531 
L 82.973494 21.870918 
L 83.320482 21.98569 
L 84.621687 22.043077 
L 85.055422 22.215236 
L 85.142169 22.215236 
L 85.315663 22.330009 
L 85.922892 22.387396 
L 86.183133 22.444782 
L 87.224096 22.502169 
L 87.484337 22.674328 
L 87.744578 22.731715 
L 88.178313 22.789101 
L 88.959036 23.190806 
L 89.219277 23.248193 
L 89.479518 23.420352 
L 90 23.477739 
L 90.173494 23.592512 
L 90.433735 23.649898 
L 90.954217 23.879444 
L 91.73494 23.93683 
L 91.995181 23.994217 
L 92.342169 24.051603 
L 92.515663 24.166376 
L 92.689157 24.166376 
L 93.036145 24.453309 
L 93.383133 24.568082 
L 94.163855 24.625468 
L 94.510843 24.740241 
L 95.291566 24.797627 
L 95.378313 24.855014 
L 95.378313 24.855014 
" clip-path="url(#p975f3cff89)" style="fill: none; stroke: #264653; stroke-width: 1.8; stroke-linecap: square"/>
   </g>
   <g id="line2d_31">
    <path d="M 54.086747 17.28 
L 71.696386 17.337386 
L 71.956627 17.394773 
L 73.431325 17.452159 
L 73.604819 17.566932 
L 77.161446 17.566932 
L 77.421687 17.739092 
L 82.713253 17.796478 
L 82.973494 17.853865 
L 88.004819 17.853865 
L 88.178313 18.026024 
L 93.122892 18.026024 
L 93.296386 18.370343 
L 94.424096 18.427729 
L 94.684337 18.485116 
L 95.118072 18.542502 
L 95.291566 18.657275 
L 96.159036 18.657275 
L 96.33253 18.772048 
L 96.33253 18.772048 
" clip-path="url(#p975f3cff89)" style="fill: none; stroke: #ffe211; stroke-width: 1.8; stroke-linecap: square"/>
   </g>
   <g id="line2d_32">
    <path d="M 54.086747 17.28 
L 55.387952 17.337386 
L 55.648193 17.394773 
L 55.995181 17.452159 
L 56.255422 17.509546 
L 58.337349 17.566932 
L 58.59759 17.624319 
L 58.944578 17.681705 
L 59.204819 17.739092 
L 60.592771 17.796478 
L 60.853012 17.853865 
L 61.2 17.911251 
L 61.546988 18.026024 
L 64.062651 18.083411 
L 64.409639 18.198184 
L 64.66988 18.25557 
L 65.016867 18.370343 
L 65.537349 18.427729 
L 65.79759 18.485116 
L 66.318072 18.542502 
L 66.578313 18.599889 
L 66.925301 18.657275 
L 67.359036 18.829435 
L 67.792771 18.886821 
L 68.226506 19.058981 
L 68.573494 19.116367 
L 68.833735 19.173753 
L 70.048193 19.23114 
L 70.481928 19.403299 
L 71.262651 19.460686 
L 71.609639 19.575459 
L 71.86988 19.632845 
L 72.13012 19.690232 
L 72.99759 19.747618 
L 73.344578 19.862391 
L 74.125301 19.919778 
L 74.559036 20.091937 
L 75.6 20.149323 
L 76.120482 20.378869 
L 77.161446 20.436256 
L 77.508434 20.551029 
L 78.549398 20.608415 
L 78.896386 20.723188 
L 79.503614 20.780575 
L 80.024096 21.01012 
L 80.718072 21.067507 
L 81.238554 21.297053 
L 81.759036 21.354439 
L 82.192771 21.526599 
L 82.453012 21.583985 
L 82.8 21.698758 
L 83.146988 21.756145 
L 83.493976 21.870918 
L 84.274699 21.928304 
L 84.53494 21.98569 
L 84.795181 22.043077 
L 85.055422 22.100463 
L 85.922892 22.15785 
L 86.26988 22.272623 
L 87.050602 22.330009 
L 87.310843 22.387396 
L 87.831325 22.444782 
L 88.091566 22.502169 
L 88.525301 22.559555 
L 88.959036 22.731715 
L 89.653012 22.789101 
L 90 22.903874 
L 90.520482 22.96126 
L 91.040964 23.190806 
L 91.474699 23.248193 
L 91.648193 23.362966 
L 92.255422 23.420352 
L 92.60241 23.535125 
L 93.209639 23.592512 
L 93.73012 23.822057 
L 94.077108 23.879444 
L 94.771084 24.223763 
L 95.725301 24.281149 
L 95.812048 24.338536 
L 95.812048 24.338536 
" clip-path="url(#p975f3cff89)" style="fill: none; stroke: #39c5bb; stroke-width: 1.8; stroke-linecap: square"/>
   </g>
   <g id="line2d_33">
    <path d="M 54.086747 17.28 
L 54.780723 17.337386 
L 54.954217 17.566932 
L 55.040964 17.566932 
L 55.387952 17.853865 
L 55.908434 18.083411 
L 56.515663 18.140797 
L 57.296386 18.542502 
L 57.990361 18.599889 
L 58.59759 18.886821 
L 58.944578 18.886821 
L 59.118072 19.001594 
L 59.551807 19.058981 
L 60.592771 19.632845 
L 61.2 19.632845 
L 61.460241 19.805005 
L 61.633735 19.862391 
L 62.154217 20.091937 
L 62.587952 20.091937 
L 62.93494 20.378869 
L 63.455422 20.436256 
L 63.628916 20.551029 
L 64.149398 20.608415 
L 64.409639 20.665802 
L 64.496386 20.665802 
L 64.66988 20.780575 
L 65.103614 20.837961 
L 65.363855 21.01012 
L 66.578313 21.067507 
L 66.925301 21.354439 
L 67.53253 21.641372 
L 67.792771 21.698758 
L 68.226506 21.870918 
L 68.573494 21.928304 
L 68.833735 21.98569 
L 69.26747 22.043077 
L 69.874699 22.330009 
L 70.915663 22.387396 
L 71.696386 22.789101 
L 72.216867 22.846487 
L 72.477108 22.903874 
L 72.99759 22.96126 
L 73.257831 23.018647 
L 74.038554 23.076033 
L 74.385542 23.190806 
L 74.559036 23.248193 
L 74.906024 23.362966 
L 74.992771 23.362966 
L 75.166265 23.535125 
L 75.339759 23.535125 
L 75.513253 23.764671 
L 76.207229 24.10899 
L 76.293976 24.10899 
L 76.554217 24.281149 
L 76.987952 24.338536 
L 77.33494 24.453309 
L 77.681928 24.510695 
L 78.115663 24.682854 
L 78.462651 24.740241 
L 78.896386 24.9124 
L 79.590361 24.969787 
L 80.284337 25.314106 
L 80.718072 25.371492 
L 80.978313 25.428879 
L 81.151807 25.486265 
L 81.498795 25.601038 
L 81.845783 25.658424 
L 82.019277 26.06013 
L 82.192771 26.117516 
L 82.453012 26.174903 
L 82.713253 26.232289 
L 83.060241 26.347062 
L 83.320482 26.347062 
L 83.493976 26.461835 
L 84.187952 26.519222 
L 84.621687 26.691381 
L 84.968675 26.748767 
L 85.228916 26.920927 
L 85.315663 26.920927 
L 85.749398 27.322632 
L 86.009639 27.380019 
L 86.26988 27.437405 
L 86.443373 27.666951 
L 86.616867 27.83911 
L 86.790361 27.83911 
L 87.224096 28.240816 
L 87.39759 28.240816 
L 87.744578 28.527748 
L 88.091566 28.527748 
L 88.351807 28.699907 
L 88.438554 28.699907 
L 88.698795 28.872067 
L 88.785542 28.872067 
L 89.045783 29.044226 
L 89.566265 29.101613 
L 89.913253 29.388545 
L 90.086747 29.618091 
L 90.346988 29.618091 
L 90.520482 29.905023 
L 90.607229 29.905023 
L 90.780723 30.077183 
L 91.127711 30.364115 
L 91.474699 30.823207 
L 91.908434 30.880593 
L 92.515663 31.569231 
L 92.775904 31.569231 
L 93.036145 32.200482 
L 93.46988 32.372641 
L 93.556627 32.372641 
L 93.816867 32.659574 
L 94.337349 33.061279 
L 94.684337 33.749917 
L 95.378313 34.266395 
L 95.725301 34.840259 
L 95.898795 34.840259 
L 96.159036 35.471511 
L 96.159036 35.471511 
" clip-path="url(#p975f3cff89)" style="fill: none; stroke: #2a9d8f; stroke-width: 1.8; stroke-linecap: square"/>
   </g>
   <g id="line2d_34">
    <path d="M 54.086747 17.28 
L 54.433735 17.566932 
L 54.86747 17.624319 
L 55.040964 17.739092 
L 55.387952 17.796478 
L 55.73494 17.911251 
L 56.168675 17.911251 
L 56.342169 18.427729 
L 56.949398 18.714662 
L 57.383133 18.772048 
L 57.643373 18.944208 
L 58.337349 19.001594 
L 58.59759 19.058981 
L 58.857831 19.116367 
L 59.031325 19.23114 
L 59.638554 19.288526 
L 59.812048 19.403299 
L 60.159036 19.460686 
L 60.592771 19.632845 
L 60.939759 19.690232 
L 61.113253 19.805005 
L 61.2 19.805005 
L 61.460241 19.977164 
L 62.06747 20.034551 
L 62.240964 20.149323 
L 62.761446 20.20671 
L 63.455422 20.551029 
L 63.628916 20.551029 
L 63.80241 20.723188 
L 63.975904 20.780575 
L 64.322892 20.895348 
L 65.884337 20.952734 
L 66.144578 21.124893 
L 66.491566 21.239666 
L 66.751807 21.297053 
L 67.012048 21.354439 
L 67.879518 21.411826 
L 68.833735 21.928304 
L 69.440964 21.98569 
L 69.874699 22.15785 
L 70.221687 22.215236 
L 71.349398 22.846487 
L 71.609639 22.903874 
L 72.043373 23.076033 
L 72.477108 23.13342 
L 72.99759 23.362966 
L 73.518072 23.420352 
L 73.778313 23.477739 
L 74.125301 23.535125 
L 74.385542 23.592512 
L 75.166265 23.649898 
L 75.6 23.822057 
L 76.033735 23.879444 
L 76.46747 24.166376 
L 76.640964 24.395922 
L 76.814458 24.510695 
L 77.161446 24.568082 
L 77.33494 24.682854 
L 78.028916 24.740241 
L 78.20241 24.855014 
L 78.549398 24.855014 
L 78.809639 25.027173 
L 78.896386 25.027173 
L 79.156627 25.199333 
L 79.416867 25.256719 
L 79.763855 25.314106 
L 80.110843 25.543652 
L 80.284337 25.773197 
L 80.544578 25.830584 
L 80.804819 25.88797 
L 81.498795 26.232289 
L 82.019277 26.289676 
L 82.713253 26.633994 
L 82.886747 26.633994 
L 83.060241 27.0357 
L 83.233735 27.093086 
L 83.580723 27.207859 
L 84.187952 27.265246 
L 84.53494 27.380019 
L 84.708434 27.380019 
L 84.881928 27.494791 
L 85.142169 27.552178 
L 85.662651 27.781724 
L 85.749398 27.781724 
L 86.009639 27.953883 
L 86.443373 28.126043 
L 86.616867 28.183429 
L 86.877108 28.355589 
L 87.137349 28.412975 
L 87.310843 28.470361 
L 87.571084 28.527748 
L 87.831325 28.585134 
L 88.26506 28.98684 
L 88.351807 28.98684 
L 88.525301 29.101613 
L 88.612048 29.101613 
L 88.872289 29.331158 
L 89.045783 29.331158 
L 89.306024 29.503318 
L 90 29.560704 
L 91.214458 30.478888 
L 91.561446 30.76582 
L 91.821687 30.76582 
L 92.428916 31.74139 
L 92.949398 31.798777 
L 93.296386 32.257868 
L 93.643373 32.257868 
L 93.903614 32.430028 
L 94.163855 32.71696 
L 94.510843 33.233438 
L 94.771084 33.405598 
L 94.944578 33.69253 
L 95.118072 33.749917 
L 95.378313 33.979462 
L 95.551807 34.209008 
L 95.638554 34.209008 
L 96.072289 34.840259 
L 96.159036 34.840259 
L 96.419277 35.127192 
L 96.419277 35.127192 
" clip-path="url(#p975f3cff89)" style="fill: none; stroke: #e76f51; stroke-width: 1.8; stroke-linecap: square"/>
   </g>
   <g id="patch_3">
    <path d="M 54 388.8 
L 54 17.28 
" style="fill: none; stroke: #000000; stroke-width: 0.8; stroke-linejoin: miter; stroke-linecap: square"/>
   </g>
   <g id="patch_4">
    <path d="M 334.8 388.8 
L 334.8 17.28 
" style="fill: none; stroke: #000000; stroke-width: 0.8; stroke-linejoin: miter; stroke-linecap: square"/>
   </g>
   <g id="patch_5">
    <path d="M 54 388.8 
L 334.8 388.8 
" style="fill: none; stroke: #000000; stroke-width: 0.8; stroke-linejoin: miter; stroke-linecap: square"/>
   </g>
   <g id="patch_6">
    <path d="M 54 17.28 
L 334.8 17.28 
" style="fill: none; stroke: #000000; stroke-width: 0.8; stroke-linejoin: miter; stroke-linecap: square"/>
   </g>
   <g id="legend_1">
    <g id="patch_7">
     <path d="M 241.51125 132.5625 
L 326.4 132.5625 
Q 328.8 132.5625 328.8 130.1625 
L 328.8 25.68 
Q 328.8 23.28 326.4 23.28 
L 241.51125 23.28 
Q 239.11125 23.28 239.11125 25.68 
L 239.11125 130.1625 
Q 239.11125 132.5625 241.51125 132.5625 
z
" style="fill: #ffffff; opacity: 0.8; stroke: #cccccc; stroke-linejoin: miter"/>
    </g>
    <g id="line2d_35">
     <path d="M 243.91125 32.998125 
L 255.91125 32.998125 
L 267.91125 32.998125 
" style="fill: none; stroke: #d80000; stroke-width: 1.8; stroke-linecap: square"/>
    </g>
    <g id="text_17">
     <!-- None -->
     <g transform="translate(277.51125 37.198125) scale(0.12 -0.12)">
      <defs>
       <path id="DejaVuSans-4e" d="M 628 4666 
L 1478 4666 
L 3547 763 
L 3547 4666 
L 4159 4666 
L 4159 0 
L 3309 0 
L 1241 3903 
L 1241 0 
L 628 0 
L 628 4666 
z
" transform="scale(0.015625)"/>
       <path id="DejaVuSans-6e" d="M 3513 2113 
L 3513 0 
L 2938 0 
L 2938 2094 
Q 2938 2591 2744 2837 
Q 2550 3084 2163 3084 
Q 1697 3084 1428 2787 
Q 1159 2491 1159 1978 
L 1159 0 
L 581 0 
L 581 3500 
L 1159 3500 
L 1159 2956 
Q 1366 3272 1645 3428 
Q 1925 3584 2291 3584 
Q 2894 3584 3203 3211 
Q 3513 2838 3513 2113 
z
" transform="scale(0.015625)"/>
      </defs>
      <use xlink:href="#DejaVuSans-4e"/>
      <use xlink:href="#DejaVuSans-6f" x="74.804688"/>
      <use xlink:href="#DejaVuSans-6e" x="135.986328"/>
      <use xlink:href="#DejaVuSans-65" x="199.365234"/>
     </g>
    </g>
    <g id="line2d_36">
     <path d="M 243.91125 50.611875 
L 255.91125 50.611875 
L 267.91125 50.611875 
" style="fill: none; stroke: #264653; stroke-width: 1.8; stroke-linecap: square"/>
    </g>
    <g id="text_18">
     <!-- HD -->
     <g transform="translate(277.51125 54.811875) scale(0.12 -0.12)">
      <defs>
       <path id="DejaVuSans-48" d="M 628 4666 
L 1259 4666 
L 1259 2753 
L 3553 2753 
L 3553 4666 
L 4184 4666 
L 4184 0 
L 3553 0 
L 3553 2222 
L 1259 2222 
L 1259 0 
L 628 0 
L 628 4666 
z
" transform="scale(0.015625)"/>
       <path id="DejaVuSans-44" d="M 1259 4147 
L 1259 519 
L 2022 519 
Q 2988 519 3436 956 
Q 3884 1394 3884 2338 
Q 3884 3275 3436 3711 
Q 2988 4147 2022 4147 
L 1259 4147 
z
M 628 4666 
L 1925 4666 
Q 3281 4666 3915 4102 
Q 4550 3538 4550 2338 
Q 4550 1131 3912 565 
Q 3275 0 1925 0 
L 628 0 
L 628 4666 
z
" transform="scale(0.015625)"/>
      </defs>
      <use xlink:href="#DejaVuSans-48"/>
      <use xlink:href="#DejaVuSans-44" x="75.195312"/>
     </g>
    </g>
    <g id="line2d_37">
     <path d="M 243.91125 68.225625 
L 255.91125 68.225625 
L 267.91125 68.225625 
" style="fill: none; stroke: #ffe211; stroke-width: 1.8; stroke-linecap: square"/>
    </g>
    <g id="text_19">
     <!-- GND -->
     <g transform="translate(277.51125 72.425625) scale(0.12 -0.12)">
      <use xlink:href="#DejaVuSans-47"/>
      <use xlink:href="#DejaVuSans-4e" x="77.490234"/>
      <use xlink:href="#DejaVuSans-44" x="152.294922"/>
     </g>
    </g>
    <g id="line2d_38">
     <path d="M 243.91125 85.839375 
L 255.91125 85.839375 
L 267.91125 85.839375 
" style="fill: none; stroke: #39c5bb; stroke-width: 1.8; stroke-linecap: square"/>
    </g>
    <g id="text_20">
     <!-- BT -->
     <g transform="translate(277.51125 90.039375) scale(0.12 -0.12)">
      <defs>
       <path id="DejaVuSans-42" d="M 1259 2228 
L 1259 519 
L 2272 519 
Q 2781 519 3026 730 
Q 3272 941 3272 1375 
Q 3272 1813 3026 2020 
Q 2781 2228 2272 2228 
L 1259 2228 
z
M 1259 4147 
L 1259 2741 
L 2194 2741 
Q 2656 2741 2882 2914 
Q 3109 3088 3109 3444 
Q 3109 3797 2882 3972 
Q 2656 4147 2194 4147 
L 1259 4147 
z
M 628 4666 
L 2241 4666 
Q 2963 4666 3353 4366 
Q 3744 4066 3744 3513 
Q 3744 3084 3544 2831 
Q 3344 2578 2956 2516 
Q 3422 2416 3680 2098 
Q 3938 1781 3938 1306 
Q 3938 681 3513 340 
Q 3088 0 2303 0 
L 628 0 
L 628 4666 
z
" transform="scale(0.015625)"/>
       <path id="DejaVuSans-54" d="M -19 4666 
L 3928 4666 
L 3928 4134 
L 2272 4134 
L 2272 0 
L 1638 0 
L 1638 4134 
L -19 4134 
L -19 4666 
z
" transform="scale(0.015625)"/>
      </defs>
      <use xlink:href="#DejaVuSans-42"/>
      <use xlink:href="#DejaVuSans-54" x="68.603516"/>
     </g>
    </g>
    <g id="line2d_39">
     <path d="M 243.91125 103.453125 
L 255.91125 103.453125 
L 267.91125 103.453125 
" style="fill: none; stroke: #2a9d8f; stroke-width: 1.8; stroke-linecap: square"/>
    </g>
    <g id="text_21">
     <!-- DSTS-K -->
     <g transform="translate(277.51125 107.653125) scale(0.12 -0.12)">
      <defs>
       <path id="DejaVuSans-2d" d="M 313 2009 
L 1997 2009 
L 1997 1497 
L 313 1497 
L 313 2009 
z
" transform="scale(0.015625)"/>
       <path id="DejaVuSans-4b" d="M 628 4666 
L 1259 4666 
L 1259 2694 
L 3353 4666 
L 4166 4666 
L 1850 2491 
L 4331 0 
L 3500 0 
L 1259 2247 
L 1259 0 
L 628 0 
L 628 4666 
z
" transform="scale(0.015625)"/>
      </defs>
      <use xlink:href="#DejaVuSans-44"/>
      <use xlink:href="#DejaVuSans-53" x="77.001953"/>
      <use xlink:href="#DejaVuSans-54" x="140.478516"/>
      <use xlink:href="#DejaVuSans-53" x="201.5625"/>
      <use xlink:href="#DejaVuSans-2d" x="265.039062"/>
      <use xlink:href="#DejaVuSans-4b" x="301.123047"/>
     </g>
    </g>
    <g id="line2d_40">
     <path d="M 243.91125 121.066875 
L 255.91125 121.066875 
L 267.91125 121.066875 
" style="fill: none; stroke: #e76f51; stroke-width: 1.8; stroke-linecap: square"/>
    </g>
    <g id="text_22">
     <!-- DSTS-M -->
     <g transform="translate(277.51125 125.266875) scale(0.12 -0.12)">
      <defs>
       <path id="DejaVuSans-4d" d="M 628 4666 
L 1569 4666 
L 2759 1491 
L 3956 4666 
L 4897 4666 
L 4897 0 
L 4281 0 
L 4281 4097 
L 3078 897 
L 2444 897 
L 1241 4097 
L 1241 0 
L 628 0 
L 628 4666 
z
" transform="scale(0.015625)"/>
      </defs>
      <use xlink:href="#DejaVuSans-44"/>
      <use xlink:href="#DejaVuSans-53" x="77.001953"/>
      <use xlink:href="#DejaVuSans-54" x="140.478516"/>
      <use xlink:href="#DejaVuSans-53" x="201.5625"/>
      <use xlink:href="#DejaVuSans-2d" x="265.039062"/>
      <use xlink:href="#DejaVuSans-4d" x="301.123047"/>
     </g>
    </g>
   </g>
  </g>
 </g>
 <defs>
  <clipPath id="p975f3cff89">
   <rect x="54" y="17.28" width="280.8" height="371.52"/>
  </clipPath>
 </defs>
</svg>
