<?xml version="1.0" encoding="utf-8" standalone="no"?>
<!DOCTYPE svg PUBLIC "-//W3C//DTD SVG 1.1//EN"
  "http://www.w3.org/Graphics/SVG/1.1/DTD/svg11.dtd">
<svg xmlns:xlink="http://www.w3.org/1999/xlink" width="360pt" height="432pt" viewBox="0 0 360 432" xmlns="http://www.w3.org/2000/svg" version="1.1">
 <metadata>
  <rdf:RDF xmlns:dc="http://purl.org/dc/elements/1.1/" xmlns:cc="http://creativecommons.org/ns#" xmlns:rdf="http://www.w3.org/1999/02/22-rdf-syntax-ns#">
   <cc:Work>
    <dc:type rdf:resource="http://purl.org/dc/dcmitype/StillImage"/>
    <dc:date>2026-04-01T11:00:43.864415</dc:date>
    <dc:format>image/svg+xml</dc:format>
    <dc:creator>
     <cc:Agent>
      <dc:title>Matplotlib v3.6.3, https://matplotlib.org/</dc:title>
     </cc:Agent>
    </dc:creator>
   </cc:Work>
  </rdf:RDF>
 </metadata>
 <defs>
  <style type="text/css">*{stroke-linejoin: round; stroke-linecap: butt}</style>
 </defs>
 <g id="figure_1">
  <g id="patch_1">
   <path d="M 0 432 
L 360 432 
L 360 0 
L 0 0 
z
" style="fill: #ffffff"/>
  </g>
  <g id="axes_1">
   <g id="patch_2">
    <path d="M 54 388.8 
L 334.8 388.8 
L 334.8 17.28 
L 54 17.28 
z
" style="fill: #ffffff"/>
   </g>
   <g id="matplotlib.axis_1">
    <g id="xtick_1">
     <g id="line2d_1">
      <path d="M 54 388.8 
L 54 17.28 
" clip-path="url(#p36c70b0ffb)" style="fill: none; stroke: #000000; stroke-opacity: 0.1; stroke-width: 0.7; stroke-linecap: square"/>
     </g>
     <g id="line2d_2">
      <defs>
       <path id="macbb88fca0" d="M 0 0 
L 0 3.5 
" style="stroke: #000000; stroke-width: 0.8"/>
      </defs>
      <g>
       <use xlink:href="#macbb88fca0" x="54" y="388.8" style="stroke: #000000; stroke-width: 0.8"/>
      </g>
     </g>
     <g id="text_1">
      <!-- 0.00 -->
      <g transform="translate(39.527344 405.677969) scale(0.13 -0.13)">
       <defs>
        <path id="DejaVuSans-30" d="M 2034 4250 
Q 1547 4250 1301 3770 
Q 1056 3291 1056 2328 
Q 1056 1369 1301 889 
Q 1547 409 2034 409 
Q 2525 409 2770 889 
Q 3016 1369 3016 2328 
Q 3016 3291 2770 3770 
Q 2525 4250 2034 4250 
z
M 2034 4750 
Q 2819 4750 3233 4129 
Q 3647 3509 3647 2328 
Q 3647 1150 3233 529 
Q 2819 -91 2034 -91 
Q 1250 -91 836 529 
Q 422 1150 422 2328 
Q 422 3509 836 4129 
Q 1250 4750 2034 4750 
z
" transform="scale(0.015625)"/>
        <path id="DejaVuSans-2e" d="M 684 794 
L 1344 794 
L 1344 0 
L 684 0 
L 684 794 
z
" transform="scale(0.015625)"/>
       </defs>
       <use xlink:href="#DejaVuSans-30"/>
       <use xlink:href="#DejaVuSans-2e" x="63.623047"/>
       <use xlink:href="#DejaVuSans-30" x="95.410156"/>
       <use xlink:href="#DejaVuSans-30" x="159.033203"/>
      </g>
     </g>
    </g>
    <g id="xtick_2">
     <g id="line2d_3">
      <path d="M 194.4 388.8 
L 194.4 17.28 
" clip-path="url(#p36c70b0ffb)" style="fill: none; stroke: #000000; stroke-opacity: 0.1; stroke-width: 0.7; stroke-linecap: square"/>
     </g>
     <g id="line2d_4">
      <g>
       <use xlink:href="#macbb88fca0" x="194.4" y="388.8" style="stroke: #000000; stroke-width: 0.8"/>
      </g>
     </g>
     <g id="text_2">
      <!-- 0.25 -->
      <g transform="translate(179.927344 405.677969) scale(0.13 -0.13)">
       <defs>
        <path id="DejaVuSans-32" d="M 1228 531 
L 3431 531 
L 3431 0 
L 469 0 
L 469 531 
Q 828 903 1448 1529 
Q 2069 2156 2228 2338 
Q 2531 2678 2651 2914 
Q 2772 3150 2772 3378 
Q 2772 3750 2511 3984 
Q 2250 4219 1831 4219 
Q 1534 4219 1204 4116 
Q 875 4013 500 3803 
L 500 4441 
Q 881 4594 1212 4672 
Q 1544 4750 1819 4750 
Q 2544 4750 2975 4387 
Q 3406 4025 3406 3419 
Q 3406 3131 3298 2873 
Q 3191 2616 2906 2266 
Q 2828 2175 2409 1742 
Q 1991 1309 1228 531 
z
" transform="scale(0.015625)"/>
        <path id="DejaVuSans-35" d="M 691 4666 
L 3169 4666 
L 3169 4134 
L 1269 4134 
L 1269 2991 
Q 1406 3038 1543 3061 
Q 1681 3084 1819 3084 
Q 2600 3084 3056 2656 
Q 3513 2228 3513 1497 
Q 3513 744 3044 326 
Q 2575 -91 1722 -91 
Q 1428 -91 1123 -41 
Q 819 9 494 109 
L 494 744 
Q 775 591 1075 516 
Q 1375 441 1709 441 
Q 2250 441 2565 725 
Q 2881 1009 2881 1497 
Q 2881 1984 2565 2268 
Q 2250 2553 1709 2553 
Q 1456 2553 1204 2497 
Q 953 2441 691 2322 
L 691 4666 
z
" transform="scale(0.015625)"/>
       </defs>
       <use xlink:href="#DejaVuSans-30"/>
       <use xlink:href="#DejaVuSans-2e" x="63.623047"/>
       <use xlink:href="#DejaVuSans-32" x="95.410156"/>
       <use xlink:href="#DejaVuSans-35" x="159.033203"/>
      </g>
     </g>
    </g>
    <g id="xtick_3">
     <g id="line2d_5">
      <path d="M 334.8 388.8 
L 334.8 17.28 
" clip-path="url(#p36c70b0ffb)" style="fill: none; stroke: #000000; stroke-opacity: 0.1; stroke-width: 0.7; stroke-linecap: square"/>
     </g>
     <g id="line2d_6">
      <g>
       <use xlink:href="#macbb88fca0" x="334.8" y="388.8" style="stroke: #000000; stroke-width: 0.8"/>
      </g>
     </g>
     <g id="text_3">
      <!-- 0.50 -->
      <g transform="translate(320.327344 405.677969) scale(0.13 -0.13)">
       <use xlink:href="#DejaVuSans-30"/>
       <use xlink:href="#DejaVuSans-2e" x="63.623047"/>
       <use xlink:href="#DejaVuSans-35" x="95.410156"/>
       <use xlink:href="#DejaVuSans-30" x="159.033203"/>
      </g>
     </g>
    </g>
    <g id="text_4">
     <!-- Attack Ratio -->
     <g transform="translate(145.78375 424.539062) scale(0.16 -0.16)">
      <defs>
       <path id="DejaVuSans-41" d="M 2188 4044 
L 1331 1722 
L 3047 1722 
L 2188 4044 
z
M 1831 4666 
L 2547 4666 
L 4325 0 
L 3669 0 
L 3244 1197 
L 1141 1197 
L 716 0 
L 50 0 
L 1831 4666 
z
" transform="scale(0.015625)"/>
       <path id="DejaVuSans-74" d="M 1172 4494 
L 1172 3500 
L 2356 3500 
L 2356 3053 
L 1172 3053 
L 1172 1153 
Q 1172 725 1289 603 
Q 1406 481 1766 481 
L 2356 481 
L 2356 0 
L 1766 0 
Q 1100 0 847 248 
Q 594 497 594 1153 
L 594 3053 
L 172 3053 
L 172 3500 
L 594 3500 
L 594 4494 
L 1172 4494 
z
" transform="scale(0.015625)"/>
       <path id="DejaVuSans-61" d="M 2194 1759 
Q 1497 1759 1228 1600 
Q 959 1441 959 1056 
Q 959 750 1161 570 
Q 1363 391 1709 391 
Q 2188 391 2477 730 
Q 2766 1069 2766 1631 
L 2766 1759 
L 2194 1759 
z
M 3341 1997 
L 3341 0 
L 2766 0 
L 2766 531 
Q 2569 213 2275 61 
Q 1981 -91 1556 -91 
Q 1019 -91 701 211 
Q 384 513 384 1019 
Q 384 1609 779 1909 
Q 1175 2209 1959 2209 
L 2766 2209 
L 2766 2266 
Q 2766 2663 2505 2880 
Q 2244 3097 1772 3097 
Q 1472 3097 1187 3025 
Q 903 2953 641 2809 
L 641 3341 
Q 956 3463 1253 3523 
Q 1550 3584 1831 3584 
Q 2591 3584 2966 3190 
Q 3341 2797 3341 1997 
z
" transform="scale(0.015625)"/>
       <path id="DejaVuSans-63" d="M 3122 3366 
L 3122 2828 
Q 2878 2963 2633 3030 
Q 2388 3097 2138 3097 
Q 1578 3097 1268 2742 
Q 959 2388 959 1747 
Q 959 1106 1268 751 
Q 1578 397 2138 397 
Q 2388 397 2633 464 
Q 2878 531 3122 666 
L 3122 134 
Q 2881 22 2623 -34 
Q 2366 -91 2075 -91 
Q 1284 -91 818 406 
Q 353 903 353 1747 
Q 353 2603 823 3093 
Q 1294 3584 2113 3584 
Q 2378 3584 2631 3529 
Q 2884 3475 3122 3366 
z
" transform="scale(0.015625)"/>
       <path id="DejaVuSans-6b" d="M 581 4863 
L 1159 4863 
L 1159 1991 
L 2875 3500 
L 3609 3500 
L 1753 1863 
L 3688 0 
L 2938 0 
L 1159 1709 
L 1159 0 
L 581 0 
L 581 4863 
z
" transform="scale(0.015625)"/>
       <path id="DejaVuSans-20" transform="scale(0.015625)"/>
       <path id="DejaVuSans-52" d="M 2841 2188 
Q 3044 2119 3236 1894 
Q 3428 1669 3622 1275 
L 4263 0 
L 3584 0 
L 2988 1197 
Q 2756 1666 2539 1819 
Q 2322 1972 1947 1972 
L 1259 1972 
L 1259 0 
L 628 0 
L 628 4666 
L 2053 4666 
Q 2853 4666 3247 4331 
Q 3641 3997 3641 3322 
Q 3641 2881 3436 2590 
Q 3231 2300 2841 2188 
z
M 1259 4147 
L 1259 2491 
L 2053 2491 
Q 2509 2491 2742 2702 
Q 2975 2913 2975 3322 
Q 2975 3731 2742 3939 
Q 2509 4147 2053 4147 
L 1259 4147 
z
" transform="scale(0.015625)"/>
       <path id="DejaVuSans-69" d="M 603 3500 
L 1178 3500 
L 1178 0 
L 603 0 
L 603 3500 
z
M 603 4863 
L 1178 4863 
L 1178 4134 
L 603 4134 
L 603 4863 
z
" transform="scale(0.015625)"/>
       <path id="DejaVuSans-6f" d="M 1959 3097 
Q 1497 3097 1228 2736 
Q 959 2375 959 1747 
Q 959 1119 1226 758 
Q 1494 397 1959 397 
Q 2419 397 2687 759 
Q 2956 1122 2956 1747 
Q 2956 2369 2687 2733 
Q 2419 3097 1959 3097 
z
M 1959 3584 
Q 2709 3584 3137 3096 
Q 3566 2609 3566 1747 
Q 3566 888 3137 398 
Q 2709 -91 1959 -91 
Q 1206 -91 779 398 
Q 353 888 353 1747 
Q 353 2609 779 3096 
Q 1206 3584 1959 3584 
z
" transform="scale(0.015625)"/>
      </defs>
      <use xlink:href="#DejaVuSans-41"/>
      <use xlink:href="#DejaVuSans-74" x="66.658203"/>
      <use xlink:href="#DejaVuSans-74" x="105.867188"/>
      <use xlink:href="#DejaVuSans-61" x="145.076172"/>
      <use xlink:href="#DejaVuSans-63" x="206.355469"/>
      <use xlink:href="#DejaVuSans-6b" x="261.335938"/>
      <use xlink:href="#DejaVuSans-20" x="319.246094"/>
      <use xlink:href="#DejaVuSans-52" x="351.033203"/>
      <use xlink:href="#DejaVuSans-61" x="418.265625"/>
      <use xlink:href="#DejaVuSans-74" x="479.544922"/>
      <use xlink:href="#DejaVuSans-69" x="518.753906"/>
      <use xlink:href="#DejaVuSans-6f" x="546.537109"/>
     </g>
    </g>
   </g>
   <g id="matplotlib.axis_2">
    <g id="ytick_1">
     <g id="line2d_7">
      <path d="M 54 388.8 
L 334.8 388.8 
" clip-path="url(#p36c70b0ffb)" style="fill: none; stroke: #000000; stroke-opacity: 0.1; stroke-width: 0.7; stroke-linecap: square"/>
     </g>
     <g id="line2d_8">
      <defs>
       <path id="m547937a686" d="M 0 0 
L -3.5 0 
" style="stroke: #000000; stroke-width: 0.8"/>
      </defs>
      <g>
       <use xlink:href="#m547937a686" x="54" y="388.8" style="stroke: #000000; stroke-width: 0.8"/>
      </g>
     </g>
     <g id="text_5">
      <!-- 0.0 -->
      <g transform="translate(26.325937 393.738984) scale(0.13 -0.13)">
       <use xlink:href="#DejaVuSans-30"/>
       <use xlink:href="#DejaVuSans-2e" x="63.623047"/>
       <use xlink:href="#DejaVuSans-30" x="95.410156"/>
      </g>
     </g>
    </g>
    <g id="ytick_2">
     <g id="line2d_9">
      <path d="M 54 351.648 
L 334.8 351.648 
" clip-path="url(#p36c70b0ffb)" style="fill: none; stroke: #000000; stroke-opacity: 0.1; stroke-width: 0.7; stroke-linecap: square"/>
     </g>
     <g id="line2d_10">
      <g>
       <use xlink:href="#m547937a686" x="54" y="351.648" style="stroke: #000000; stroke-width: 0.8"/>
      </g>
     </g>
     <g id="text_6">
      <!-- 0.1 -->
      <g transform="translate(26.325937 356.586984) scale(0.13 -0.13)">
       <defs>
        <path id="DejaVuSans-31" d="M 794 531 
L 1825 531 
L 1825 4091 
L 703 3866 
L 703 4441 
L 1819 4666 
L 2450 4666 
L 2450 531 
L 3481 531 
L 3481 0 
L 794 0 
L 794 531 
z
" transform="scale(0.015625)"/>
       </defs>
       <use xlink:href="#DejaVuSans-30"/>
       <use xlink:href="#DejaVuSans-2e" x="63.623047"/>
       <use xlink:href="#DejaVuSans-31" x="95.410156"/>
      </g>
     </g>
    </g>
    <g id="ytick_3">
     <g id="line2d_11">
      <path d="M 54 314.496 
L 334.8 314.496 
" clip-path="url(#p36c70b0ffb)" style="fill: none; stroke: #000000; stroke-opacity: 0.1; stroke-width: 0.7; stroke-linecap: square"/>
     </g>
     <g id="line2d_12">
      <g>
       <use xlink:href="#m547937a686" x="54" y="314.496" style="stroke: #000000; stroke-width: 0.8"/>
      </g>
     </g>
     <g id="text_7">
      <!-- 0.2 -->
      <g transform="translate(26.325937 319.434984) scale(0.13 -0.13)">
       <use xlink:href="#DejaVuSans-30"/>
       <use xlink:href="#DejaVuSans-2e" x="63.623047"/>
       <use xlink:href="#DejaVuSans-32" x="95.410156"/>
      </g>
     </g>
    </g>
    <g id="ytick_4">
     <g id="line2d_13">
      <path d="M 54 277.344 
L 334.8 277.344 
" clip-path="url(#p36c70b0ffb)" style="fill: none; stroke: #000000; stroke-opacity: 0.1; stroke-width: 0.7; stroke-linecap: square"/>
     </g>
     <g id="line2d_14">
      <g>
       <use xlink:href="#m547937a686" x="54" y="277.344" style="stroke: #000000; stroke-width: 0.8"/>
      </g>
     </g>
     <g id="text_8">
      <!-- 0.3 -->
      <g transform="translate(26.325937 282.282984) scale(0.13 -0.13)">
       <defs>
        <path id="DejaVuSans-33" d="M 2597 2516 
Q 3050 2419 3304 2112 
Q 3559 1806 3559 1356 
Q 3559 666 3084 287 
Q 2609 -91 1734 -91 
Q 1441 -91 1130 -33 
Q 819 25 488 141 
L 488 750 
Q 750 597 1062 519 
Q 1375 441 1716 441 
Q 2309 441 2620 675 
Q 2931 909 2931 1356 
Q 2931 1769 2642 2001 
Q 2353 2234 1838 2234 
L 1294 2234 
L 1294 2753 
L 1863 2753 
Q 2328 2753 2575 2939 
Q 2822 3125 2822 3475 
Q 2822 3834 2567 4026 
Q 2313 4219 1838 4219 
Q 1578 4219 1281 4162 
Q 984 4106 628 3988 
L 628 4550 
Q 988 4650 1302 4700 
Q 1616 4750 1894 4750 
Q 2613 4750 3031 4423 
Q 3450 4097 3450 3541 
Q 3450 3153 3228 2886 
Q 3006 2619 2597 2516 
z
" transform="scale(0.015625)"/>
       </defs>
       <use xlink:href="#DejaVuSans-30"/>
       <use xlink:href="#DejaVuSans-2e" x="63.623047"/>
       <use xlink:href="#DejaVuSans-33" x="95.410156"/>
      </g>
     </g>
    </g>
    <g id="ytick_5">
     <g id="line2d_15">
      <path d="M 54 240.192 
L 334.8 240.192 
" clip-path="url(#p36c70b0ffb)" style="fill: none; stroke: #000000; stroke-opacity: 0.1; stroke-width: 0.7; stroke-linecap: square"/>
     </g>
     <g id="line2d_16">
      <g>
       <use xlink:href="#m547937a686" x="54" y="240.192" style="stroke: #000000; stroke-width: 0.8"/>
      </g>
     </g>
     <g id="text_9">
      <!-- 0.4 -->
      <g transform="translate(26.325937 245.130984) scale(0.13 -0.13)">
       <defs>
        <path id="DejaVuSans-34" d="M 2419 4116 
L 825 1625 
L 2419 1625 
L 2419 4116 
z
M 2253 4666 
L 3047 4666 
L 3047 1625 
L 3713 1625 
L 3713 1100 
L 3047 1100 
L 3047 0 
L 2419 0 
L 2419 1100 
L 313 1100 
L 313 1709 
L 2253 4666 
z
" transform="scale(0.015625)"/>
       </defs>
       <use xlink:href="#DejaVuSans-30"/>
       <use xlink:href="#DejaVuSans-2e" x="63.623047"/>
       <use xlink:href="#DejaVuSans-34" x="95.410156"/>
      </g>
     </g>
    </g>
    <g id="ytick_6">
     <g id="line2d_17">
      <path d="M 54 203.04 
L 334.8 203.04 
" clip-path="url(#p36c70b0ffb)" style="fill: none; stroke: #000000; stroke-opacity: 0.1; stroke-width: 0.7; stroke-linecap: square"/>
     </g>
     <g id="line2d_18">
      <g>
       <use xlink:href="#m547937a686" x="54" y="203.04" style="stroke: #000000; stroke-width: 0.8"/>
      </g>
     </g>
     <g id="text_10">
      <!-- 0.5 -->
      <g transform="translate(26.325937 207.978984) scale(0.13 -0.13)">
       <use xlink:href="#DejaVuSans-30"/>
       <use xlink:href="#DejaVuSans-2e" x="63.623047"/>
       <use xlink:href="#DejaVuSans-35" x="95.410156"/>
      </g>
     </g>
    </g>
    <g id="ytick_7">
     <g id="line2d_19">
      <path d="M 54 165.888 
L 334.8 165.888 
" clip-path="url(#p36c70b0ffb)" style="fill: none; stroke: #000000; stroke-opacity: 0.1; stroke-width: 0.7; stroke-linecap: square"/>
     </g>
     <g id="line2d_20">
      <g>
       <use xlink:href="#m547937a686" x="54" y="165.888" style="stroke: #000000; stroke-width: 0.8"/>
      </g>
     </g>
     <g id="text_11">
      <!-- 0.6 -->
      <g transform="translate(26.325937 170.826984) scale(0.13 -0.13)">
       <defs>
        <path id="DejaVuSans-36" d="M 2113 2584 
Q 1688 2584 1439 2293 
Q 1191 2003 1191 1497 
Q 1191 994 1439 701 
Q 1688 409 2113 409 
Q 2538 409 2786 701 
Q 3034 994 3034 1497 
Q 3034 2003 2786 2293 
Q 2538 2584 2113 2584 
z
M 3366 4563 
L 3366 3988 
Q 3128 4100 2886 4159 
Q 2644 4219 2406 4219 
Q 1781 4219 1451 3797 
Q 1122 3375 1075 2522 
Q 1259 2794 1537 2939 
Q 1816 3084 2150 3084 
Q 2853 3084 3261 2657 
Q 3669 2231 3669 1497 
Q 3669 778 3244 343 
Q 2819 -91 2113 -91 
Q 1303 -91 875 529 
Q 447 1150 447 2328 
Q 447 3434 972 4092 
Q 1497 4750 2381 4750 
Q 2619 4750 2861 4703 
Q 3103 4656 3366 4563 
z
" transform="scale(0.015625)"/>
       </defs>
       <use xlink:href="#DejaVuSans-30"/>
       <use xlink:href="#DejaVuSans-2e" x="63.623047"/>
       <use xlink:href="#DejaVuSans-36" x="95.410156"/>
      </g>
     </g>
    </g>
    <g id="ytick_8">
     <g id="line2d_21">
      <path d="M 54 128.736 
L 334.8 128.736 
" clip-path="url(#p36c70b0ffb)" style="fill: none; stroke: #000000; stroke-opacity: 0.1; stroke-width: 0.7; stroke-linecap: square"/>
     </g>
     <g id="line2d_22">
      <g>
       <use xlink:href="#m547937a686" x="54" y="128.736" style="stroke: #000000; stroke-width: 0.8"/>
      </g>
     </g>
     <g id="text_12">
      <!-- 0.7 -->
      <g transform="translate(26.325937 133.674984) scale(0.13 -0.13)">
       <defs>
        <path id="DejaVuSans-37" d="M 525 4666 
L 3525 4666 
L 3525 4397 
L 1831 0 
L 1172 0 
L 2766 4134 
L 525 4134 
L 525 4666 
z
" transform="scale(0.015625)"/>
       </defs>
       <use xlink:href="#DejaVuSans-30"/>
       <use xlink:href="#DejaVuSans-2e" x="63.623047"/>
       <use xlink:href="#DejaVuSans-37" x="95.410156"/>
      </g>
     </g>
    </g>
    <g id="ytick_9">
     <g id="line2d_23">
      <path d="M 54 91.584 
L 334.8 91.584 
" clip-path="url(#p36c70b0ffb)" style="fill: none; stroke: #000000; stroke-opacity: 0.1; stroke-width: 0.7; stroke-linecap: square"/>
     </g>
     <g id="line2d_24">
      <g>
       <use xlink:href="#m547937a686" x="54" y="91.584" style="stroke: #000000; stroke-width: 0.8"/>
      </g>
     </g>
     <g id="text_13">
      <!-- 0.8 -->
      <g transform="translate(26.325937 96.522984) scale(0.13 -0.13)">
       <defs>
        <path id="DejaVuSans-38" d="M 2034 2216 
Q 1584 2216 1326 1975 
Q 1069 1734 1069 1313 
Q 1069 891 1326 650 
Q 1584 409 2034 409 
Q 2484 409 2743 651 
Q 3003 894 3003 1313 
Q 3003 1734 2745 1975 
Q 2488 2216 2034 2216 
z
M 1403 2484 
Q 997 2584 770 2862 
Q 544 3141 544 3541 
Q 544 4100 942 4425 
Q 1341 4750 2034 4750 
Q 2731 4750 3128 4425 
Q 3525 4100 3525 3541 
Q 3525 3141 3298 2862 
Q 3072 2584 2669 2484 
Q 3125 2378 3379 2068 
Q 3634 1759 3634 1313 
Q 3634 634 3220 271 
Q 2806 -91 2034 -91 
Q 1263 -91 848 271 
Q 434 634 434 1313 
Q 434 1759 690 2068 
Q 947 2378 1403 2484 
z
M 1172 3481 
Q 1172 3119 1398 2916 
Q 1625 2713 2034 2713 
Q 2441 2713 2670 2916 
Q 2900 3119 2900 3481 
Q 2900 3844 2670 4047 
Q 2441 4250 2034 4250 
Q 1625 4250 1398 4047 
Q 1172 3844 1172 3481 
z
" transform="scale(0.015625)"/>
       </defs>
       <use xlink:href="#DejaVuSans-30"/>
       <use xlink:href="#DejaVuSans-2e" x="63.623047"/>
       <use xlink:href="#DejaVuSans-38" x="95.410156"/>
      </g>
     </g>
    </g>
    <g id="ytick_10">
     <g id="line2d_25">
      <path d="M 54 54.432 
L 334.8 54.432 
" clip-path="url(#p36c70b0ffb)" style="fill: none; stroke: #000000; stroke-opacity: 0.1; stroke-width: 0.7; stroke-linecap: square"/>
     </g>
     <g id="line2d_26">
      <g>
       <use xlink:href="#m547937a686" x="54" y="54.432" style="stroke: #000000; stroke-width: 0.8"/>
      </g>
     </g>
     <g id="text_14">
      <!-- 0.9 -->
      <g transform="translate(26.325937 59.370984) scale(0.13 -0.13)">
       <defs>
        <path id="DejaVuSans-39" d="M 703 97 
L 703 672 
Q 941 559 1184 500 
Q 1428 441 1663 441 
Q 2288 441 2617 861 
Q 2947 1281 2994 2138 
Q 2813 1869 2534 1725 
Q 2256 1581 1919 1581 
Q 1219 1581 811 2004 
Q 403 2428 403 3163 
Q 403 3881 828 4315 
Q 1253 4750 1959 4750 
Q 2769 4750 3195 4129 
Q 3622 3509 3622 2328 
Q 3622 1225 3098 567 
Q 2575 -91 1691 -91 
Q 1453 -91 1209 -44 
Q 966 3 703 97 
z
M 1959 2075 
Q 2384 2075 2632 2365 
Q 2881 2656 2881 3163 
Q 2881 3666 2632 3958 
Q 2384 4250 1959 4250 
Q 1534 4250 1286 3958 
Q 1038 3666 1038 3163 
Q 1038 2656 1286 2365 
Q 1534 2075 1959 2075 
z
" transform="scale(0.015625)"/>
       </defs>
       <use xlink:href="#DejaVuSans-30"/>
       <use xlink:href="#DejaVuSans-2e" x="63.623047"/>
       <use xlink:href="#DejaVuSans-39" x="95.410156"/>
      </g>
     </g>
    </g>
    <g id="ytick_11">
     <g id="line2d_27">
      <path d="M 54 17.28 
L 334.8 17.28 
" clip-path="url(#p36c70b0ffb)" style="fill: none; stroke: #000000; stroke-opacity: 0.1; stroke-width: 0.7; stroke-linecap: square"/>
     </g>
     <g id="line2d_28">
      <g>
       <use xlink:href="#m547937a686" x="54" y="17.28" style="stroke: #000000; stroke-width: 0.8"/>
      </g>
     </g>
     <g id="text_15">
      <!-- 1.0 -->
      <g transform="translate(26.325937 22.218984) scale(0.13 -0.13)">
       <use xlink:href="#DejaVuSans-31"/>
       <use xlink:href="#DejaVuSans-2e" x="63.623047"/>
       <use xlink:href="#DejaVuSans-30" x="95.410156"/>
      </g>
     </g>
    </g>
    <g id="text_16">
     <!-- GCC Size -->
     <g transform="translate(18.998437 239.37625) rotate(-90) scale(0.16 -0.16)">
      <defs>
       <path id="DejaVuSans-47" d="M 3809 666 
L 3809 1919 
L 2778 1919 
L 2778 2438 
L 4434 2438 
L 4434 434 
Q 4069 175 3628 42 
Q 3188 -91 2688 -91 
Q 1594 -91 976 548 
Q 359 1188 359 2328 
Q 359 3472 976 4111 
Q 1594 4750 2688 4750 
Q 3144 4750 3555 4637 
Q 3966 4525 4313 4306 
L 4313 3634 
Q 3963 3931 3569 4081 
Q 3175 4231 2741 4231 
Q 1884 4231 1454 3753 
Q 1025 3275 1025 2328 
Q 1025 1384 1454 906 
Q 1884 428 2741 428 
Q 3075 428 3337 486 
Q 3600 544 3809 666 
z
" transform="scale(0.015625)"/>
       <path id="DejaVuSans-43" d="M 4122 4306 
L 4122 3641 
Q 3803 3938 3442 4084 
Q 3081 4231 2675 4231 
Q 1875 4231 1450 3742 
Q 1025 3253 1025 2328 
Q 1025 1406 1450 917 
Q 1875 428 2675 428 
Q 3081 428 3442 575 
Q 3803 722 4122 1019 
L 4122 359 
Q 3791 134 3420 21 
Q 3050 -91 2638 -91 
Q 1578 -91 968 557 
Q 359 1206 359 2328 
Q 359 3453 968 4101 
Q 1578 4750 2638 4750 
Q 3056 4750 3426 4639 
Q 3797 4528 4122 4306 
z
" transform="scale(0.015625)"/>
       <path id="DejaVuSans-53" d="M 3425 4513 
L 3425 3897 
Q 3066 4069 2747 4153 
Q 2428 4238 2131 4238 
Q 1616 4238 1336 4038 
Q 1056 3838 1056 3469 
Q 1056 3159 1242 3001 
Q 1428 2844 1947 2747 
L 2328 2669 
Q 3034 2534 3370 2195 
Q 3706 1856 3706 1288 
Q 3706 609 3251 259 
Q 2797 -91 1919 -91 
Q 1588 -91 1214 -16 
Q 841 59 441 206 
L 441 856 
Q 825 641 1194 531 
Q 1563 422 1919 422 
Q 2459 422 2753 634 
Q 3047 847 3047 1241 
Q 3047 1584 2836 1778 
Q 2625 1972 2144 2069 
L 1759 2144 
Q 1053 2284 737 2584 
Q 422 2884 422 3419 
Q 422 4038 858 4394 
Q 1294 4750 2059 4750 
Q 2388 4750 2728 4690 
Q 3069 4631 3425 4513 
z
" transform="scale(0.015625)"/>
       <path id="DejaVuSans-7a" d="M 353 3500 
L 3084 3500 
L 3084 2975 
L 922 459 
L 3084 459 
L 3084 0 
L 275 0 
L 275 525 
L 2438 3041 
L 353 3041 
L 353 3500 
z
" transform="scale(0.015625)"/>
       <path id="DejaVuSans-65" d="M 3597 1894 
L 3597 1613 
L 953 1613 
Q 991 1019 1311 708 
Q 1631 397 2203 397 
Q 2534 397 2845 478 
Q 3156 559 3463 722 
L 3463 178 
Q 3153 47 2828 -22 
Q 2503 -91 2169 -91 
Q 1331 -91 842 396 
Q 353 884 353 1716 
Q 353 2575 817 3079 
Q 1281 3584 2069 3584 
Q 2775 3584 3186 3129 
Q 3597 2675 3597 1894 
z
M 3022 2063 
Q 3016 2534 2758 2815 
Q 2500 3097 2075 3097 
Q 1594 3097 1305 2825 
Q 1016 2553 972 2059 
L 3022 2063 
z
" transform="scale(0.015625)"/>
      </defs>
      <use xlink:href="#DejaVuSans-47"/>
      <use xlink:href="#DejaVuSans-43" x="77.490234"/>
      <use xlink:href="#DejaVuSans-43" x="147.314453"/>
      <use xlink:href="#DejaVuSans-20" x="217.138672"/>
      <use xlink:href="#DejaVuSans-53" x="248.925781"/>
      <use xlink:href="#DejaVuSans-69" x="312.402344"/>
      <use xlink:href="#DejaVuSans-7a" x="340.185547"/>
      <use xlink:href="#DejaVuSans-65" x="392.675781"/>
     </g>
    </g>
   </g>
   <g id="line2d_29">
    <path d="M 54.15162 17.380302 
L 54.606479 17.68121 
L 54.758099 22.896933 
L 55.516199 23.398445 
L 55.667819 24.200864 
L 55.971058 24.401469 
L 56.122678 26.407516 
L 56.274298 26.507819 
L 56.425918 28.915076 
L 57.184017 29.817797 
L 58.245356 30.519914 
L 58.396976 40.349546 
L 58.851836 40.750756 
L 59.155076 41.252268 
L 59.913175 41.75378 
L 60.064795 43.559222 
L 60.822894 44.161037 
L 60.974514 44.562246 
L 61.126134 46.467991 
L 61.580994 46.768898 
L 61.732613 54.191274 
L 62.187473 55.69581 
L 62.490713 56.097019 
L 62.642333 56.197322 
L 63.248812 57.200346 
L 63.400432 57.300648 
L 63.552052 57.80216 
L 64.310151 58.303672 
L 64.765011 59.106091 
L 65.21987 59.5073 
L 65.97797 60.811231 
L 66.28121 61.112138 
L 66.736069 62.516371 
L 66.887689 62.616674 
L 67.039309 63.419093 
L 67.645788 63.820302 
L 67.797408 64.923629 
L 68.100648 65.124233 
L 68.252268 66.026955 
L 68.403888 66.127257 
L 68.858747 69.036026 
L 69.010367 69.938747 
L 69.616847 70.339957 
L 69.920086 70.841469 
L 70.071706 70.941771 
L 70.223326 71.543585 
L 71.739525 72.546609 
L 71.891145 73.148423 
L 72.346004 73.44933 
L 72.497624 74.251749 
L 72.800864 74.552657 
L 73.104104 74.953866 
L 73.255724 75.054168 
L 73.710583 76.859611 
L 74.923542 77.762333 
L 75.226782 78.163542 
L 75.681641 78.464449 
L 75.984881 78.965961 
L 76.439741 79.266868 
L 76.742981 79.668078 
L 77.19784 80.16959 
L 77.80432 80.671102 
L 78.107559 81.272916 
L 78.259179 82.376242 
L 78.714039 82.877754 
L 79.017279 83.078359 
L 79.320518 83.479568 
L 79.623758 83.680173 
L 79.775378 84.281987 
L 79.926998 84.382289 
L 80.078618 86.08743 
L 80.988337 86.689244 
L 81.443197 87.591965 
L 81.746436 87.993175 
L 81.898056 88.093477 
L 82.352916 89.89892 
L 82.504536 90.500734 
L 83.111015 90.901944 
L 83.414255 92.406479 
L 83.717495 92.707387 
L 84.323974 93.208898 
L 84.475594 94.412527 
L 84.930454 94.813737 
L 85.233693 95.114644 
L 85.385313 95.214946 
L 85.536933 96.117667 
L 85.688553 102.13581 
L 85.991793 102.336415 
L 86.295032 102.837927 
L 86.446652 103.84095 
L 87.053132 104.342462 
L 87.507991 104.843974 
L 87.659611 104.944276 
L 88.266091 106.047603 
L 88.417711 106.749719 
L 88.56933 136.639827 
L 88.72095 138.144363 
L 89.02419 138.244665 
L 89.17581 138.44527 
L 89.32743 139.147387 
L 89.63067 139.347991 
L 89.933909 139.749201 
L 90.388769 140.250713 
L 90.995248 140.651922 
L 91.146868 140.952829 
L 91.450108 143.059179 
L 91.601728 143.360086 
L 91.753348 144.062203 
L 92.056587 144.36311 
L 92.814687 145.767343 
L 93.572786 146.369158 
L 93.876026 146.770367 
L 94.027646 148.57581 
L 95.392225 151.183672 
L 95.695464 151.384276 
L 95.847084 152.3873 
L 96.150324 152.688207 
L 96.301944 153.189719 
L 96.453564 153.290022 
L 96.756803 157.101512 
L 97.060043 157.302117 
L 97.363283 158.606048 
L 97.818143 158.906955 
L 97.969762 160.8127 
L 98.273002 161.213909 
L 98.727862 161.615119 
L 99.031102 162.718445 
L 99.182721 163.219957 
L 99.789201 163.621166 
L 100.092441 164.925097 
L 100.39568 165.727516 
L 101.00216 166.229028 
L 101.15378 166.73054 
L 101.608639 167.031447 
L 101.760259 167.332354 
L 101.911879 168.034471 
L 102.063499 168.134773 
L 102.518359 168.83689 
L 103.428078 169.940216 
L 103.731317 170.742635 
L 103.882937 170.842937 
L 104.034557 171.344449 
L 104.641037 171.845961 
L 104.944276 172.548078 
L 105.095896 172.748683 
L 105.399136 174.353521 
L 105.853996 174.554125 
L 106.005616 175.356544 
L 106.157235 175.456847 
L 106.308855 176.760778 
L 106.612095 176.961382 
L 106.763715 177.262289 
L 106.915335 191.20432 
L 107.825054 191.906436 
L 108.431533 192.608553 
L 108.886393 193.009762 
L 109.189633 193.31067 
L 109.796112 193.711879 
L 110.099352 194.113089 
L 110.402592 194.313693 
L 111.312311 196.018834 
L 111.463931 196.119136 
L 112.22203 197.623672 
L 112.37365 198.325788 
L 112.52527 198.426091 
L 112.82851 198.927603 
L 112.98013 199.027905 
L 113.434989 200.030929 
L 113.586609 202.63879 
L 113.738229 202.739093 
L 113.889849 203.44121 
L 114.041469 203.541512 
L 114.344708 204.243629 
L 114.496328 204.444233 
L 114.647948 230.92406 
L 115.709287 231.626177 
L 115.860907 231.927084 
L 116.467387 234.334341 
L 116.922246 234.635248 
L 117.377106 236.540994 
L 117.680346 236.942203 
L 117.831965 237.042505 
L 117.983585 238.847948 
L 119.044924 240.151879 
L 119.348164 241.556112 
L 119.499784 241.656415 
L 119.954644 242.358531 
L 121.015983 243.060648 
L 121.319222 243.56216 
L 121.774082 243.963369 
L 122.077322 244.364579 
L 122.380562 244.565184 
L 122.532181 245.367603 
L 122.835421 245.66851 
L 123.138661 246.170022 
L 123.441901 246.470929 
L 124.2 247.37365 
L 124.50324 248.376674 
L 124.806479 248.677581 
L 124.958099 248.878186 
L 125.412959 249.981512 
L 126.171058 250.583326 
L 126.474298 250.884233 
L 126.777538 251.18514 
L 126.929158 253.29149 
L 127.080778 253.492095 
L 127.384017 254.294514 
L 127.687257 254.896328 
L 127.838877 254.996631 
L 127.990497 255.598445 
L 128.142117 255.698747 
L 128.445356 256.200259 
L 128.596976 256.300562 
L 128.900216 258.406911 
L 129.051836 258.507214 
L 129.203456 259.109028 
L 129.355076 259.20933 
L 129.506695 297.123629 
L 129.658315 297.223931 
L 129.809935 297.926048 
L 131.174514 298.929071 
L 131.326134 299.129676 
L 131.629374 299.631188 
L 131.932613 299.932095 
L 132.235853 300.233002 
L 132.387473 301.035421 
L 132.690713 301.336328 
L 132.842333 305.047516 
L 133.145572 305.549028 
L 134.358531 306.451749 
L 134.813391 307.153866 
L 135.268251 307.454773 
L 135.41987 310.363542 
L 135.72311 310.764752 
L 135.87473 310.865054 
L 136.17797 311.266263 
L 136.48121 311.466868 
L 136.632829 312.770799 
L 136.784449 312.871102 
L 136.936069 313.673521 
L 137.694168 314.275335 
L 137.997408 314.576242 
L 138.149028 314.676544 
L 138.603888 316.281382 
L 138.755508 316.582289 
L 138.907127 318.187127 
L 139.058747 318.187127 
L 139.361987 320.895292 
L 139.665227 321.196199 
L 139.816847 321.697711 
L 140.271706 322.09892 
L 140.423326 322.299525 
L 140.574946 323.101944 
L 140.726566 323.202246 
L 141.333045 324.907387 
L 141.484665 325.007689 
L 141.636285 325.509201 
L 141.787905 325.609503 
L 141.939525 326.913434 
L 142.091145 347.475421 
L 142.242765 347.676026 
L 142.394384 348.378143 
L 142.697624 348.67905 
L 142.849244 351.487516 
L 143.000864 352.08933 
L 143.607343 352.590842 
L 144.062203 354.295983 
L 144.213823 354.396285 
L 145.426782 356.602937 
L 145.578402 356.70324 
L 146.184881 366.231965 
L 146.488121 366.532873 
L 146.639741 369.040432 
L 146.791361 369.541944 
L 147.0946 369.642246 
L 148.15594 370.344363 
L 148.762419 371.347387 
L 149.217279 371.447689 
L 149.975378 372.450713 
L 150.126998 373.554039 
L 150.430238 373.854946 
L 150.733477 374.757667 
L 151.188337 374.958272 
L 151.491577 375.058575 
L 151.643197 377.064622 
L 151.794816 377.064622 
L 152.098056 377.465832 
L 152.401296 377.766739 
L 153.159395 377.766739 
L 153.765875 378.769762 
L 153.917495 378.870065 
L 154.220734 379.672484 
L 154.523974 379.772786 
L 154.978834 379.873089 
L 155.282073 380.173996 
L 155.433693 380.3746 
L 155.585313 380.77581 
L 156.040173 380.876112 
L 156.343413 380.976415 
L 156.495032 380.976415 
L 156.949892 381.678531 
L 157.404752 381.678531 
L 157.556371 381.879136 
L 157.707991 382.380648 
L 158.011231 382.48095 
L 158.162851 382.48095 
L 158.466091 382.781857 
L 158.92095 382.88216 
L 159.22419 383.183067 
L 159.52743 383.483974 
L 159.83067 383.584276 
L 160.588769 383.584276 
L 160.740389 383.784881 
L 162.104968 383.885184 
L 162.863067 384.286393 
L 163.469546 384.386695 
L 163.621166 384.687603 
L 164.530886 384.787905 
L 164.834125 384.888207 
L 165.440605 384.98851 
L 165.592225 385.289417 
L 166.198704 385.389719 
L 166.805184 385.690626 
L 168.169762 385.790929 
L 168.321382 386.091836 
L 169.534341 386.192138 
L 169.685961 386.392743 
L 171.05054 386.493045 
L 171.35378 386.593348 
L 172.111879 386.69365 
L 172.415119 386.793952 
L 173.931317 386.894255 
L 174.234557 386.994557 
L 174.841037 387.09486 
L 175.144276 387.195162 
L 177.266955 387.295464 
L 177.570194 387.395767 
L 180.602592 387.496069 
L 180.905832 387.596371 
L 184.393089 387.696674 
L 184.696328 387.796976 
L 189.699784 387.897279 
L 190.003024 387.997581 
L 200.464795 388.097883 
L 200.768035 388.198186 
L 213.807343 388.298488 
L 214.110583 388.39879 
L 226.695032 388.499093 
L 226.695032 388.499093 
" clip-path="url(#p36c70b0ffb)" style="fill: none; stroke: #d80000; stroke-width: 1.8; stroke-linecap: square"/>
   </g>
   <g id="line2d_30">
    <path d="M 54.15162 17.28 
L 54.758099 17.580907 
L 55.061339 17.68121 
L 55.516199 17.881814 
L 55.819438 17.982117 
L 56.274298 18.182721 
L 56.729158 18.283024 
L 57.487257 18.684233 
L 58.093737 18.784536 
L 58.396976 18.884838 
L 58.851836 18.98514 
L 62.793952 21.4927 
L 62.945572 21.4927 
L 63.097192 21.693305 
L 64.158531 21.793607 
L 64.765011 22.094514 
L 65.068251 22.194816 
L 67.190929 23.498747 
L 67.494168 23.59905 
L 68.100648 23.899957 
L 69.161987 24.000259 
L 69.920086 24.401469 
L 70.223326 24.501771 
L 71.284665 25.103585 
L 71.587905 25.203888 
L 71.891145 25.605097 
L 73.407343 26.507819 
L 74.165443 26.608121 
L 74.923542 27.00933 
L 75.226782 27.109633 
L 76.439741 27.811749 
L 76.591361 27.811749 
L 76.742981 28.012354 
L 77.34946 28.112657 
L 77.80432 28.313261 
L 78.107559 28.413564 
L 78.562419 28.614168 
L 78.714039 29.215983 
L 79.168898 29.316285 
L 80.078618 29.817797 
L 80.988337 29.918099 
L 81.746436 30.319309 
L 82.201296 30.419611 
L 82.807775 30.720518 
L 82.959395 30.720518 
L 83.111015 31.021425 
L 83.414255 31.021425 
L 83.869114 31.522937 
L 84.172354 31.62324 
L 84.930454 32.024449 
L 85.385313 32.124752 
L 85.688553 32.225054 
L 86.143413 32.325356 
L 86.446652 32.425659 
L 86.749892 32.525961 
L 87.811231 33.127775 
L 87.962851 33.127775 
L 88.114471 33.629287 
L 88.417711 33.72959 
L 88.87257 33.829892 
L 90.692009 34.933218 
L 91.298488 35.033521 
L 92.966307 36.036544 
L 93.724406 36.136847 
L 94.179266 36.437754 
L 94.482505 36.838963 
L 94.785745 36.939266 
L 94.937365 37.440778 
L 95.543844 37.741685 
L 95.847084 37.841987 
L 96.301944 38.042592 
L 96.605184 38.142894 
L 97.060043 38.343499 
L 97.514903 38.443801 
L 98.273002 38.845011 
L 98.576242 38.945313 
L 99.031102 39.145918 
L 99.334341 39.24622 
L 99.485961 39.346523 
L 99.637581 39.64743 
L 100.092441 39.747732 
L 100.69892 40.048639 
L 100.85054 40.550151 
L 101.15378 40.650454 
L 101.457019 40.750756 
L 101.760259 40.851058 
L 102.518359 41.252268 
L 103.276458 41.35257 
L 104.186177 41.854082 
L 104.489417 41.954384 
L 104.944276 42.154989 
L 105.399136 42.255292 
L 106.157235 42.656501 
L 106.763715 42.756803 
L 108.431533 43.759827 
L 109.038013 43.86013 
L 109.492873 44.060734 
L 109.947732 44.161037 
L 111.767171 45.264363 
L 112.22203 45.364665 
L 112.67689 45.56527 
L 112.98013 45.665572 
L 113.283369 45.765875 
L 113.586609 45.866177 
L 114.344708 46.267387 
L 115.102808 46.367689 
L 115.254428 46.568294 
L 116.315767 46.668596 
L 116.619006 46.768898 
L 116.922246 46.869201 
L 117.225486 46.969503 
L 117.680346 47.069806 
L 117.983585 47.27041 
L 118.135205 47.771922 
L 119.348164 48.474039 
L 119.499784 48.474039 
L 119.651404 48.674644 
L 120.864363 48.774946 
L 121.470842 49.075853 
L 121.774082 49.176156 
L 122.532181 49.577365 
L 123.441901 49.677667 
L 124.35162 50.179179 
L 124.65486 50.279482 
L 124.958099 50.379784 
L 125.564579 50.480086 
L 126.171058 50.780994 
L 126.777538 50.881296 
L 127.080778 50.981598 
L 128.142117 51.081901 
L 128.596976 51.282505 
L 129.203456 51.382808 
L 130.871274 52.385832 
L 131.174514 52.486134 
L 131.477754 52.586436 
L 132.235853 52.686739 
L 133.752052 53.58946 
L 134.358531 53.689762 
L 134.813391 53.890367 
L 135.116631 53.99067 
L 135.72311 54.291577 
L 136.02635 54.391879 
L 136.632829 54.692786 
L 137.087689 54.793089 
L 137.390929 54.893391 
L 137.694168 54.993693 
L 138.452268 55.394903 
L 139.361987 55.495205 
L 140.423326 56.097019 
L 140.726566 56.197322 
L 141.939525 56.899438 
L 143.000864 56.999741 
L 143.455724 57.200346 
L 144.365443 57.300648 
L 144.820302 57.501253 
L 145.123542 57.601555 
L 145.730022 57.902462 
L 146.033261 58.002765 
L 146.488121 58.203369 
L 146.791361 58.303672 
L 148.00432 59.106091 
L 148.307559 59.5073 
L 149.368898 60.109114 
L 150.126998 60.209417 
L 150.733477 60.510324 
L 151.188337 60.610626 
L 152.401296 61.312743 
L 152.704536 61.312743 
L 153.007775 61.61365 
L 153.614255 61.914557 
L 153.765875 61.914557 
L 154.069114 62.215464 
L 155.282073 62.917581 
L 155.585313 63.017883 
L 155.736933 63.218488 
L 156.343413 63.31879 
L 156.646652 63.419093 
L 157.253132 63.519395 
L 157.859611 64.020907 
L 158.011231 64.221512 
L 158.314471 64.321814 
L 159.22419 64.823326 
L 160.133909 64.923629 
L 161.043629 65.42514 
L 161.498488 65.525443 
L 161.953348 65.726048 
L 162.559827 65.82635 
L 162.863067 66.127257 
L 163.166307 66.428164 
L 163.621166 66.628769 
L 163.924406 66.729071 
L 164.682505 67.130281 
L 164.985745 67.230583 
L 165.288985 67.53149 
L 166.350324 68.133305 
L 166.805184 68.233607 
L 167.411663 68.634816 
L 167.563283 68.935724 
L 167.866523 69.036026 
L 168.927862 69.63784 
L 169.534341 69.738143 
L 169.685961 70.139352 
L 170.140821 70.239654 
L 171.20216 70.841469 
L 171.5054 71.342981 
L 171.657019 71.443283 
L 172.263499 73.750238 
L 172.415119 73.750238 
L 172.718359 74.051145 
L 172.869978 74.151447 
L 173.173218 74.552657 
L 173.779698 74.853564 
L 174.082937 74.953866 
L 174.537797 75.154471 
L 174.841037 75.254773 
L 175.144276 75.55568 
L 175.750756 75.95689 
L 176.205616 76.659006 
L 176.508855 76.759309 
L 176.660475 76.759309 
L 176.812095 77.361123 
L 178.934773 78.665054 
L 179.238013 78.765356 
L 179.844492 79.166566 
L 179.996112 79.467473 
L 180.450972 79.567775 
L 180.602592 79.668078 
L 180.905832 80.069287 
L 181.057451 80.269892 
L 181.512311 80.370194 
L 181.815551 80.671102 
L 182.11879 81.072311 
L 182.27041 81.87473 
L 182.42203 81.975032 
L 182.72527 82.476544 
L 183.02851 82.677149 
L 183.331749 83.178661 
L 184.393089 83.780475 
L 184.696328 83.880778 
L 186.819006 85.385313 
L 186.970626 85.786523 
L 187.122246 85.786523 
L 187.273866 85.987127 
L 187.425486 85.987127 
L 188.486825 87.391361 
L 188.790065 87.491663 
L 189.093305 87.79257 
L 189.548164 87.993175 
L 189.851404 88.093477 
L 190.761123 88.795594 
L 190.912743 89.096501 
L 191.215983 89.196803 
L 191.670842 89.999222 
L 191.974082 90.199827 
L 192.277322 90.701339 
L 192.732181 91.002246 
L 193.035421 91.403456 
L 193.338661 91.704363 
L 193.490281 91.704363 
L 193.793521 92.00527 
L 194.24838 92.406479 
L 194.4 92.907991 
L 195.764579 93.911015 
L 196.067819 94.312225 
L 197.735637 95.515853 
L 198.645356 96.619179 
L 200.161555 97.622203 
L 200.464795 98.023413 
L 201.526134 98.725529 
L 201.829374 99.126739 
L 202.132613 99.227041 
L 202.587473 99.628251 
L 202.890713 99.929158 
L 203.800432 100.631274 
L 204.103672 101.032484 
L 204.406911 101.634298 
L 204.710151 101.7346 
L 205.165011 102.035508 
L 205.61987 103.239136 
L 206.07473 103.540043 
L 206.37797 103.941253 
L 206.68121 104.041555 
L 207.894168 104.743672 
L 208.197408 105.345486 
L 209.713607 106.448812 
L 210.016847 106.749719 
L 210.471706 107.150929 
L 210.774946 107.652441 
L 213.958963 109.859093 
L 214.717063 110.761814 
L 215.323542 111.263326 
L 215.626782 111.564233 
L 217.44622 112.868164 
L 217.74946 113.369676 
L 218.35594 113.871188 
L 218.962419 114.573305 
L 219.265659 114.673607 
L 220.478618 115.576328 
L 220.933477 116.07784 
L 221.843197 116.779957 
L 222.146436 117.281469 
L 224.117495 118.5854 
L 224.269114 118.986609 
L 224.420734 118.986609 
L 224.572354 119.287516 
L 224.572354 119.287516 
" clip-path="url(#p36c70b0ffb)" style="fill: none; stroke: #264653; stroke-width: 1.8; stroke-linecap: square"/>
   </g>
   <g id="line2d_31">
    <path d="M 54.15162 17.28 
L 96.453564 17.380302 
L 96.756803 17.480605 
L 106.915335 17.580907 
L 107.218575 17.68121 
L 107.825054 17.781512 
L 108.734773 18.283024 
L 109.189633 18.283024 
L 109.492873 18.583931 
L 110.554212 19.185745 
L 111.009071 19.286048 
L 111.312311 19.586955 
L 111.463931 19.787559 
L 111.91879 19.887862 
L 112.22203 20.088467 
L 112.37365 20.690281 
L 112.98013 20.690281 
L 113.131749 20.890886 
L 113.434989 20.991188 
L 114.647948 21.693305 
L 114.799568 22.194816 
L 115.557667 22.796631 
L 115.860907 23.19784 
L 118.590065 25.103585 
L 119.044924 25.605097 
L 119.348164 25.805702 
L 119.803024 26.608121 
L 120.864363 27.41054 
L 121.015983 28.012354 
L 121.167603 28.112657 
L 121.470842 28.614168 
L 121.622462 28.814773 
L 121.925702 28.915076 
L 122.835421 29.617192 
L 123.290281 30.118704 
L 124.2 30.720518 
L 124.50324 31.121728 
L 124.806479 31.422635 
L 126.625918 32.726566 
L 126.929158 33.228078 
L 130.719654 35.83594 
L 131.629374 36.939266 
L 131.932613 37.13987 
L 132.387473 37.942289 
L 135.41987 40.048639 
L 135.72311 40.349546 
L 138.603888 42.355594 
L 138.907127 42.656501 
L 141.636285 44.562246 
L 141.939525 44.863153 
L 142.394384 45.264363 
L 142.697624 45.665572 
L 144.971922 47.27041 
L 145.275162 47.67162 
L 148.610799 49.978575 
L 148.914039 50.279482 
L 149.823758 50.881296 
L 150.126998 51.282505 
L 150.430238 51.583413 
L 151.946436 52.686739 
L 152.249676 52.987646 
L 153.007775 53.58946 
L 153.614255 54.291577 
L 154.523974 54.893391 
L 154.827214 55.394903 
L 155.282073 55.796112 
L 155.585313 56.097019 
L 157.101512 57.100043 
L 157.404752 57.501253 
L 157.707991 57.80216 
L 158.162851 58.303672 
L 158.617711 58.704881 
L 158.92095 59.005788 
L 159.67905 59.607603 
L 160.285529 60.710929 
L 160.437149 62.115162 
L 160.892009 62.215464 
L 162.408207 63.31879 
L 162.863067 64.020907 
L 163.469546 64.522419 
L 163.924406 65.023931 
L 164.227646 65.224536 
L 164.530886 65.726048 
L 165.440605 66.428164 
L 165.895464 66.929676 
L 166.805184 67.53149 
L 166.956803 67.832397 
L 167.108423 69.838445 
L 167.411663 69.938747 
L 167.866523 70.339957 
L 168.018143 70.640864 
L 168.321382 71.443283 
L 169.837581 72.546609 
L 170.140821 72.947819 
L 170.44406 73.44933 
L 172.566739 74.953866 
L 172.869978 75.655983 
L 173.628078 76.157495 
L 173.779698 76.558704 
L 173.931317 77.762333 
L 174.386177 78.06324 
L 174.537797 78.564752 
L 175.144276 78.965961 
L 175.447516 79.467473 
L 176.053996 79.968985 
L 176.357235 80.269892 
L 177.266955 80.972009 
L 177.418575 81.573823 
L 179.541253 83.078359 
L 179.844492 83.379266 
L 180.299352 83.680173 
L 180.450972 83.98108 
L 180.602592 84.883801 
L 180.905832 85.184708 
L 181.057451 85.385313 
L 181.209071 86.187732 
L 181.512311 86.388337 
L 181.815551 86.889849 
L 182.87689 87.692268 
L 183.331749 88.494687 
L 183.938229 88.895896 
L 184.241469 89.397408 
L 185.151188 90.099525 
L 185.454428 90.400432 
L 186.212527 91.002246 
L 186.515767 91.303153 
L 187.122246 91.804665 
L 187.880346 92.707387 
L 188.486825 93.208898 
L 188.941685 93.911015 
L 189.244924 94.11162 
L 189.548164 94.512829 
L 190.306263 95.114644 
L 190.609503 95.515853 
L 191.064363 95.81676 
L 191.367603 96.318272 
L 191.670842 96.518877 
L 192.125702 97.321296 
L 192.580562 97.622203 
L 192.883801 98.123715 
L 193.793521 98.725529 
L 194.24838 99.929158 
L 194.4 99.929158 
L 194.70324 100.230065 
L 195.309719 100.731577 
L 195.461339 101.233089 
L 195.764579 101.433693 
L 196.067819 102.236112 
L 196.825918 102.737624 
L 196.977538 103.239136 
L 197.735637 103.84095 
L 198.038877 104.342462 
L 198.342117 104.843974 
L 198.948596 105.345486 
L 199.706695 106.248207 
L 200.161555 106.248207 
L 200.313175 106.448812 
L 200.464795 107.050626 
L 201.071274 107.451836 
L 201.374514 107.853045 
L 201.829374 108.254255 
L 202.587473 109.156976 
L 203.648812 109.959395 
L 203.952052 110.460907 
L 204.406911 110.862117 
L 204.710151 111.363629 
L 205.013391 111.463931 
L 205.316631 111.86514 
L 205.61987 112.065745 
L 206.07473 113.269374 
L 206.52959 113.97149 
L 206.832829 114.272397 
L 208.349028 115.275421 
L 208.652268 115.776933 
L 209.107127 116.178143 
L 209.410367 116.679654 
L 211.533045 118.18419 
L 211.836285 119.086911 
L 212.291145 119.387819 
L 212.594384 120.089935 
L 212.897624 120.390842 
L 214.565443 121.393866 
L 215.020302 121.494168 
L 215.323542 121.795076 
L 215.475162 121.99568 
L 215.778402 122.497192 
L 216.081641 122.798099 
L 216.233261 122.898402 
L 216.688121 123.600518 
L 218.810799 125.105054 
L 219.265659 125.606566 
L 220.175378 126.308683 
L 220.478618 126.810194 
L 220.630238 126.910497 
L 220.933477 127.412009 
L 221.236717 127.612613 
L 221.539957 128.013823 
L 222.904536 129.016847 
L 223.207775 129.418056 
L 223.662635 129.919568 
L 224.572354 130.42108 
L 224.875594 130.922592 
L 226.695032 132.226523 
L 226.846652 132.627732 
L 226.998272 132.627732 
L 227.453132 133.229546 
L 227.453132 133.229546 
" clip-path="url(#p36c70b0ffb)" style="fill: none; stroke: #ffe211; stroke-width: 1.8; stroke-linecap: square"/>
   </g>
   <g id="line2d_32">
    <path d="M 54.15162 17.380302 
L 54.758099 17.480605 
L 55.516199 17.881814 
L 55.819438 17.982117 
L 56.274298 18.182721 
L 56.577538 18.283024 
L 57.184017 18.583931 
L 57.487257 18.684233 
L 57.942117 18.884838 
L 58.245356 18.98514 
L 58.548596 19.085443 
L 59.003456 19.185745 
L 60.216415 19.887862 
L 60.519654 19.988164 
L 61.277754 20.389374 
L 61.884233 20.489676 
L 62.187473 20.790583 
L 63.552052 21.593002 
L 64.158531 21.693305 
L 64.461771 21.793607 
L 64.916631 21.893909 
L 65.37149 22.094514 
L 66.432829 22.194816 
L 67.494168 22.796631 
L 67.949028 22.896933 
L 68.403888 23.097538 
L 68.707127 23.19784 
L 69.465227 23.59905 
L 70.374946 23.699352 
L 70.829806 23.899957 
L 71.133045 24.000259 
L 71.587905 24.200864 
L 72.042765 24.301166 
L 72.346004 24.401469 
L 72.800864 24.501771 
L 73.407343 24.802678 
L 73.710583 24.902981 
L 74.771922 25.504795 
L 75.075162 25.605097 
L 76.136501 26.206911 
L 76.591361 26.307214 
L 79.320518 28.012354 
L 79.472138 28.012354 
L 79.775378 28.313261 
L 80.230238 28.513866 
L 80.685097 28.614168 
L 81.594816 29.11568 
L 82.352916 29.215983 
L 82.656156 29.316285 
L 82.959395 29.416587 
L 84.323974 30.219006 
L 84.778834 30.319309 
L 85.536933 30.720518 
L 85.991793 30.820821 
L 86.446652 31.021425 
L 86.749892 31.121728 
L 87.811231 31.723542 
L 88.114471 31.823844 
L 89.02419 32.325356 
L 89.47905 32.425659 
L 90.692009 33.127775 
L 90.995248 33.228078 
L 92.511447 34.130799 
L 93.269546 34.231102 
L 95.240605 35.43473 
L 96.605184 35.535032 
L 97.514903 36.036544 
L 97.969762 36.136847 
L 99.031102 36.738661 
L 99.334341 36.838963 
L 99.789201 37.039568 
L 100.39568 37.13987 
L 100.85054 37.340475 
L 101.15378 37.440778 
L 101.608639 37.641382 
L 101.911879 37.741685 
L 102.821598 38.243197 
L 103.428078 38.343499 
L 104.337797 38.845011 
L 105.247516 38.945313 
L 105.550756 39.045616 
L 106.005616 39.145918 
L 106.612095 39.446825 
L 106.915335 39.547127 
L 109.644492 41.252268 
L 109.947732 41.35257 
L 110.705832 41.75378 
L 111.009071 41.854082 
L 112.67689 42.857106 
L 112.98013 42.957408 
L 115.557667 44.562246 
L 115.860907 44.662549 
L 116.315767 44.863153 
L 117.073866 44.963456 
L 117.680346 45.264363 
L 118.286825 45.364665 
L 118.590065 45.665572 
L 119.044924 45.866177 
L 119.348164 45.966479 
L 120.712743 46.768898 
L 121.167603 46.869201 
L 123.593521 48.373737 
L 124.35162 48.474039 
L 124.50324 48.674644 
L 125.109719 48.774946 
L 125.412959 48.875248 
L 126.019438 48.975551 
L 129.051836 50.881296 
L 129.355076 50.981598 
L 130.416415 51.583413 
L 130.719654 51.683715 
L 132.084233 52.486134 
L 132.387473 52.586436 
L 133.903672 53.489158 
L 134.206911 53.58946 
L 136.784449 55.394903 
L 137.087689 55.69581 
L 137.390929 55.796112 
L 138.603888 56.498229 
L 138.907127 56.598531 
L 139.210367 56.899438 
L 140.574946 57.701857 
L 141.181425 57.80216 
L 142.091145 58.303672 
L 142.394384 58.403974 
L 145.123542 60.109114 
L 145.730022 60.209417 
L 147.24622 61.312743 
L 147.39784 61.513348 
L 147.70108 61.513348 
L 148.00432 61.914557 
L 153.159395 65.224536 
L 153.462635 65.324838 
L 154.069114 65.625745 
L 154.372354 65.726048 
L 156.798272 67.230583 
L 157.101512 67.330886 
L 157.556371 67.832397 
L 157.859611 67.9327 
L 158.466091 68.033002 
L 159.52743 68.634816 
L 159.83067 68.735119 
L 160.588769 69.136328 
L 160.892009 69.236631 
L 161.498488 69.537538 
L 161.953348 69.63784 
L 162.408207 69.838445 
L 163.317927 69.938747 
L 163.621166 70.03905 
L 163.924406 70.139352 
L 167.563283 72.446307 
L 167.866523 72.546609 
L 168.624622 72.947819 
L 168.927862 73.048121 
L 170.292441 73.85054 
L 170.59568 73.950842 
L 171.5054 74.452354 
L 171.808639 74.552657 
L 176.508855 77.561728 
L 176.963715 77.66203 
L 177.570194 78.163542 
L 177.873434 78.464449 
L 178.783153 78.965961 
L 178.934773 78.965961 
L 179.238013 79.266868 
L 179.541253 79.367171 
L 181.663931 80.671102 
L 182.11879 80.771404 
L 183.18013 81.573823 
L 183.483369 81.87473 
L 186.060907 83.479568 
L 186.364147 83.57987 
L 186.667387 83.880778 
L 188.031965 84.883801 
L 188.335205 85.184708 
L 188.790065 85.385313 
L 189.093305 85.485616 
L 189.851404 85.886825 
L 190.003024 85.886825 
L 190.306263 86.187732 
L 191.215983 86.689244 
L 191.822462 86.789546 
L 192.125702 87.090454 
L 192.277322 87.291058 
L 192.580562 87.391361 
L 195.309719 89.096501 
L 195.764579 89.196803 
L 197.887257 90.500734 
L 198.190497 90.601037 
L 198.645356 91.202851 
L 198.948596 91.303153 
L 202.284233 93.409503 
L 202.890713 93.509806 
L 206.22635 95.81676 
L 206.37797 96.017365 
L 206.68121 96.117667 
L 206.832829 96.318272 
L 206.984449 96.318272 
L 207.287689 96.619179 
L 209.107127 97.822808 
L 209.410367 98.224017 
L 212.139525 100.129762 
L 212.442765 100.43067 
L 215.020302 102.035508 
L 215.171922 102.035508 
L 215.475162 102.336415 
L 215.930022 102.436717 
L 218.507559 104.24216 
L 218.810799 104.543067 
L 220.781857 105.746695 
L 221.085097 105.846998 
L 221.843197 106.448812 
L 222.146436 106.950324 
L 222.449676 107.050626 
L 224.572354 108.354557 
L 224.875594 108.45486 
L 225.330454 108.856069 
L 225.633693 109.156976 
L 225.785313 109.156976 
L 225.785313 109.156976 
" clip-path="url(#p36c70b0ffb)" style="fill: none; stroke: #39c5bb; stroke-width: 1.8; stroke-linecap: square"/>
   </g>
   <g id="line2d_33">
    <path d="M 54.15162 17.380302 
L 55.516199 18.182721 
L 56.425918 18.283024 
L 58.245356 19.38635 
L 59.003456 19.486652 
L 59.155076 19.687257 
L 59.609935 19.787559 
L 60.519654 20.289071 
L 60.822894 20.389374 
L 62.035853 21.09149 
L 62.793952 21.191793 
L 63.248812 21.392397 
L 63.703672 21.4927 
L 64.158531 21.893909 
L 64.310151 22.094514 
L 64.613391 22.194816 
L 65.37149 22.596026 
L 65.52311 22.596026 
L 65.82635 22.997235 
L 66.736069 23.498747 
L 67.039309 23.498747 
L 67.342549 23.799654 
L 67.949028 24.100562 
L 68.100648 24.100562 
L 68.252268 24.301166 
L 68.707127 24.401469 
L 69.010367 24.702376 
L 69.616847 25.003283 
L 70.223326 25.103585 
L 70.981425 25.504795 
L 71.133045 26.106609 
L 72.952484 27.209935 
L 73.407343 27.310238 
L 74.013823 27.611145 
L 74.468683 27.711447 
L 75.833261 28.513866 
L 76.136501 28.513866 
L 76.439741 29.015378 
L 76.742981 29.11568 
L 77.6527 29.717495 
L 77.80432 30.018402 
L 78.107559 30.118704 
L 78.562419 30.620216 
L 79.168898 30.720518 
L 79.926998 31.121728 
L 80.230238 31.22203 
L 80.533477 31.422635 
L 80.685097 31.723542 
L 81.291577 31.823844 
L 83.111015 32.927171 
L 83.869114 33.027473 
L 84.475594 33.32838 
L 84.778834 33.428683 
L 85.233693 33.629287 
L 85.840173 33.72959 
L 86.749892 34.231102 
L 87.204752 34.331404 
L 87.811231 34.632311 
L 88.417711 34.732613 
L 88.56933 35.033521 
L 89.02419 35.133823 
L 90.540389 36.237149 
L 90.843629 36.538056 
L 91.298488 36.638359 
L 93.421166 37.942289 
L 93.876026 38.042592 
L 94.785745 38.544104 
L 95.392225 38.644406 
L 95.543844 39.145918 
L 97.514903 40.449849 
L 97.818143 40.951361 
L 98.424622 41.35257 
L 98.727862 42.255292 
L 98.879482 42.355594 
L 99.031102 42.857106 
L 101.15378 44.161037 
L 101.457019 44.261339 
L 101.608639 44.762851 
L 102.518359 45.264363 
L 103.124838 45.364665 
L 103.731317 45.665572 
L 104.034557 45.765875 
L 104.489417 45.966479 
L 104.792657 46.467991 
L 105.095896 46.467991 
L 105.399136 46.768898 
L 105.550756 46.869201 
L 105.853996 47.27041 
L 106.157235 47.370713 
L 106.612095 47.771922 
L 106.763715 48.173132 
L 107.218575 48.273434 
L 109.796112 49.878272 
L 110.099352 49.978575 
L 110.402592 50.078877 
L 110.705832 50.179179 
L 111.160691 50.379784 
L 111.615551 50.480086 
L 112.82851 51.182203 
L 113.131749 51.282505 
L 113.889849 51.784017 
L 114.193089 52.185227 
L 115.406048 52.887343 
L 115.709287 52.987646 
L 117.831965 54.291577 
L 118.135205 54.391879 
L 118.590065 54.592484 
L 119.044924 54.692786 
L 119.651404 54.993693 
L 119.954644 55.093996 
L 120.409503 55.595508 
L 120.864363 55.69581 
L 121.774082 56.197322 
L 122.380562 56.297624 
L 123.441901 56.899438 
L 123.593521 56.899438 
L 123.89676 57.200346 
L 124.2 57.300648 
L 124.958099 57.40095 
L 126.929158 58.604579 
L 127.535637 58.704881 
L 128.900216 59.5073 
L 129.658315 59.607603 
L 129.809935 59.808207 
L 130.264795 59.90851 
L 132.842333 61.513348 
L 133.145572 61.61365 
L 134.055292 62.115162 
L 134.358531 62.215464 
L 135.41987 62.817279 
L 135.87473 62.917581 
L 137.542549 63.920605 
L 137.997408 64.020907 
L 139.816847 65.124233 
L 140.120086 65.224536 
L 140.878186 65.625745 
L 141.484665 65.726048 
L 141.787905 65.82635 
L 142.242765 65.926652 
L 142.546004 66.127257 
L 142.849244 66.628769 
L 143.607343 67.029978 
L 144.365443 67.130281 
L 144.971922 67.431188 
L 145.275162 67.53149 
L 145.578402 67.9327 
L 145.881641 68.033002 
L 146.033261 68.133305 
L 146.336501 68.534514 
L 146.791361 68.735119 
L 147.0946 68.835421 
L 148.00432 69.537538 
L 148.459179 70.03905 
L 148.762419 70.139352 
L 149.672138 70.239654 
L 150.126998 70.640864 
L 150.278618 70.941771 
L 150.885097 71.042073 
L 151.036717 71.242678 
L 151.339957 71.342981 
L 153.614255 72.847516 
L 153.765875 73.148423 
L 153.917495 73.148423 
L 154.069114 73.549633 
L 154.675594 73.649935 
L 155.282073 74.151447 
L 155.585313 74.452354 
L 156.191793 74.552657 
L 157.404752 75.254773 
L 157.707991 75.355076 
L 158.011231 75.655983 
L 158.92095 76.358099 
L 159.07257 76.558704 
L 159.67905 76.659006 
L 161.346868 77.66203 
L 161.650108 77.762333 
L 161.801728 78.06324 
L 162.408207 78.163542 
L 164.379266 79.467473 
L 164.530886 79.868683 
L 164.834125 79.968985 
L 165.137365 80.269892 
L 165.440605 80.370194 
L 165.743844 80.470497 
L 167.411663 81.473521 
L 167.714903 81.573823 
L 168.018143 81.774428 
L 168.321382 82.175637 
L 168.776242 82.27594 
L 170.140821 83.078359 
L 170.44406 83.57987 
L 170.7473 83.680173 
L 171.5054 84.081382 
L 171.960259 84.181685 
L 172.869978 84.683197 
L 173.476458 84.783499 
L 174.082937 85.786523 
L 175.902376 86.889849 
L 176.053996 86.889849 
L 176.205616 87.491663 
L 176.508855 87.591965 
L 177.115335 87.892873 
L 177.266955 88.695292 
L 179.238013 89.89892 
L 179.389633 90.400432 
L 179.692873 90.601037 
L 179.996112 91.002246 
L 181.057451 91.60406 
L 181.360691 91.704363 
L 181.967171 92.406479 
L 182.57365 92.707387 
L 182.87689 93.208898 
L 183.02851 93.309201 
L 183.331749 93.810713 
L 183.786609 93.911015 
L 186.060907 95.315248 
L 186.515767 95.415551 
L 186.819006 95.616156 
L 187.122246 96.117667 
L 187.425486 96.318272 
L 187.728726 96.819784 
L 188.790065 97.622203 
L 189.093305 98.023413 
L 189.851404 98.424622 
L 190.457883 98.524924 
L 190.912743 99.026436 
L 191.064363 99.126739 
L 191.519222 99.929158 
L 192.428942 100.43067 
L 193.035421 100.530972 
L 193.641901 101.032484 
L 193.94514 101.433693 
L 194.4 101.634298 
L 194.85486 101.7346 
L 196.371058 102.837927 
L 196.522678 103.138834 
L 196.825918 103.239136 
L 197.432397 103.640346 
L 197.735637 104.041555 
L 198.796976 104.843974 
L 199.403456 105.546091 
L 201.222894 106.649417 
L 201.374514 106.649417 
L 201.829374 107.251231 
L 202.132613 107.351533 
L 203.042333 108.05365 
L 203.345572 108.45486 
L 203.648812 108.755767 
L 203.800432 108.956371 
L 204.103672 109.558186 
L 204.406911 109.658488 
L 204.710151 109.75879 
L 205.165011 110.962419 
L 205.77149 111.263326 
L 206.37797 111.363629 
L 207.894168 112.26635 
L 208.197408 112.26635 
L 208.500648 112.868164 
L 208.652268 112.868164 
L 209.258747 113.570281 
L 210.016847 114.071793 
L 210.471706 114.874212 
L 211.381425 115.576328 
L 211.836285 116.779957 
L 213.200864 117.782981 
L 213.352484 117.983585 
L 213.504104 117.983585 
L 213.807343 118.284492 
L 215.475162 119.287516 
L 215.778402 119.387819 
L 216.384881 120.089935 
L 218.962419 121.694773 
L 219.265659 121.795076 
L 220.326998 122.597495 
L 220.933477 123.299611 
L 222.298056 124.302635 
L 222.601296 124.703844 
L 224.269114 125.907473 
L 224.572354 126.408985 
L 224.875594 126.709892 
L 226.391793 127.813218 
L 226.846652 128.615637 
L 226.998272 128.71594 
L 227.149892 129.016847 
L 227.149892 129.016847 
" clip-path="url(#p36c70b0ffb)" style="fill: none; stroke: #2a9d8f; stroke-width: 1.8; stroke-linecap: square"/>
   </g>
   <g id="line2d_34">
    <path d="M 54.15162 17.380302 
L 55.061339 17.881814 
L 55.364579 17.982117 
L 55.971058 18.283024 
L 56.577538 18.383326 
L 57.638877 18.98514 
L 58.700216 19.085443 
L 60.216415 19.988164 
L 60.519654 20.088467 
L 61.277754 20.489676 
L 61.580994 20.489676 
L 61.732613 20.690281 
L 62.035853 20.690281 
L 62.339093 21.09149 
L 62.793952 21.292095 
L 63.248812 21.392397 
L 63.552052 21.693305 
L 64.006911 22.094514 
L 64.310151 22.495724 
L 65.068251 22.896933 
L 66.12959 22.997235 
L 66.432829 23.097538 
L 66.736069 23.19784 
L 67.039309 23.498747 
L 69.161987 24.802678 
L 69.313607 24.802678 
L 69.616847 25.203888 
L 69.920086 25.203888 
L 70.071706 25.805702 
L 70.374946 25.906004 
L 70.829806 26.206911 
L 70.981425 26.507819 
L 71.284665 26.608121 
L 71.739525 26.808726 
L 72.346004 26.909028 
L 72.497624 27.109633 
L 72.952484 27.209935 
L 73.862203 27.711447 
L 74.771922 27.811749 
L 75.378402 28.112657 
L 75.681641 28.212959 
L 76.136501 28.413564 
L 76.439741 28.513866 
L 78.107559 29.717495 
L 78.410799 30.018402 
L 78.865659 30.219006 
L 79.168898 30.319309 
L 79.623758 30.519914 
L 79.775378 30.519914 
L 80.078618 30.921123 
L 80.381857 31.021425 
L 80.685097 31.121728 
L 81.443197 31.522937 
L 81.746436 31.62324 
L 82.352916 31.924147 
L 82.807775 32.024449 
L 84.475594 33.027473 
L 85.536933 33.127775 
L 86.749892 33.829892 
L 87.356371 33.930194 
L 87.962851 34.231102 
L 88.114471 34.231102 
L 88.417711 34.732613 
L 94.785745 38.845011 
L 95.088985 38.945313 
L 96.150324 39.64743 
L 96.453564 40.550151 
L 96.908423 40.851058 
L 97.211663 41.854082 
L 99.940821 43.659525 
L 100.24406 44.060734 
L 100.69892 44.060734 
L 101.00216 44.361641 
L 101.15378 44.461944 
L 101.3054 44.762851 
L 101.608639 44.863153 
L 101.911879 44.963456 
L 102.518359 45.063758 
L 102.669978 45.264363 
L 102.973218 45.364665 
L 103.124838 45.665572 
L 103.428078 45.765875 
L 103.731317 45.866177 
L 103.882937 45.866177 
L 104.186177 46.167084 
L 104.641037 46.267387 
L 104.792657 46.768898 
L 107.218575 48.273434 
L 107.521814 48.373737 
L 109.189633 49.37676 
L 109.492873 49.477063 
L 110.250972 49.878272 
L 110.402592 49.878272 
L 110.705832 50.179179 
L 111.009071 50.279482 
L 111.312311 50.379784 
L 111.91879 50.680691 
L 112.37365 50.780994 
L 112.98013 51.081901 
L 113.131749 51.081901 
L 113.434989 51.48311 
L 113.738229 51.583413 
L 113.889849 51.784017 
L 114.041469 51.784017 
L 114.344708 52.185227 
L 115.254428 52.686739 
L 115.557667 52.787041 
L 116.467387 53.288553 
L 116.770626 53.388855 
L 117.377106 53.689762 
L 117.528726 53.689762 
L 117.680346 53.890367 
L 117.983585 53.99067 
L 118.893305 54.492181 
L 119.348164 54.592484 
L 119.499784 54.993693 
L 119.954644 55.093996 
L 120.712743 55.495205 
L 121.015983 55.595508 
L 121.622462 55.896415 
L 122.077322 55.996717 
L 122.228942 56.197322 
L 122.683801 56.297624 
L 124.04838 57.100043 
L 124.35162 57.200346 
L 124.806479 57.40095 
L 125.412959 57.501253 
L 125.564579 57.601555 
L 125.716199 57.902462 
L 125.867819 57.902462 
L 126.019438 58.103067 
L 126.474298 58.203369 
L 126.777538 58.303672 
L 127.080778 58.403974 
L 129.051836 59.607603 
L 129.355076 59.707905 
L 129.961555 60.008812 
L 130.568035 60.109114 
L 130.871274 60.209417 
L 131.174514 60.309719 
L 131.629374 60.510324 
L 131.932613 60.510324 
L 132.235853 60.811231 
L 132.387473 60.811231 
L 132.539093 61.011836 
L 132.993952 61.112138 
L 133.600432 61.413045 
L 133.903672 61.513348 
L 134.813391 62.01486 
L 135.116631 62.115162 
L 135.41987 62.215464 
L 135.72311 62.315767 
L 137.087689 63.118186 
L 137.390929 63.218488 
L 137.542549 63.419093 
L 137.997408 63.519395 
L 139.665227 64.522419 
L 139.968467 64.622721 
L 143.304104 66.929676 
L 143.607343 67.431188 
L 145.426782 68.735119 
L 145.730022 69.136328 
L 146.033261 69.236631 
L 146.639741 69.537538 
L 147.0946 69.63784 
L 147.70108 69.938747 
L 147.8527 69.938747 
L 148.15594 70.239654 
L 148.762419 70.540562 
L 149.065659 70.640864 
L 149.975378 71.142376 
L 150.278618 71.242678 
L 151.491577 71.944795 
L 151.946436 72.045097 
L 153.007775 72.847516 
L 153.159395 73.148423 
L 153.614255 73.248726 
L 153.917495 73.549633 
L 154.220734 73.950842 
L 154.523974 74.051145 
L 155.736933 74.753261 
L 156.040173 74.853564 
L 156.343413 74.953866 
L 156.949892 75.054168 
L 157.556371 75.355076 
L 157.859611 75.455378 
L 158.466091 75.95689 
L 158.76933 76.257797 
L 159.07257 76.257797 
L 159.37581 76.558704 
L 159.67905 76.558704 
L 159.83067 76.759309 
L 160.133909 76.859611 
L 161.043629 77.361123 
L 161.346868 77.461425 
L 161.498488 77.66203 
L 161.953348 77.762333 
L 162.408207 78.06324 
L 162.711447 78.464449 
L 163.014687 78.564752 
L 163.317927 78.665054 
L 163.469546 78.765356 
L 163.621166 79.066263 
L 164.076026 79.166566 
L 165.743844 80.269892 
L 166.047084 80.771404 
L 166.501944 80.871706 
L 168.018143 81.774428 
L 168.321382 81.87473 
L 170.44406 83.178661 
L 170.7473 83.278963 
L 170.89892 83.479568 
L 171.20216 83.57987 
L 171.808639 84.382289 
L 172.263499 84.482592 
L 172.718359 84.683197 
L 173.021598 84.783499 
L 173.779698 85.184708 
L 174.082937 85.285011 
L 174.841037 85.68622 
L 175.447516 85.786523 
L 175.750756 85.987127 
L 176.053996 86.388337 
L 176.812095 86.789546 
L 177.115335 86.889849 
L 178.631533 87.79257 
L 178.783153 87.79257 
L 178.934773 88.394384 
L 179.692873 88.795594 
L 180.147732 88.895896 
L 181.512311 89.89892 
L 181.663931 90.199827 
L 181.967171 90.199827 
L 182.27041 90.500734 
L 182.72527 90.601037 
L 183.634989 91.202851 
L 183.938229 91.904968 
L 184.089849 91.904968 
L 184.393089 92.306177 
L 184.847948 92.406479 
L 185.302808 92.607084 
L 185.606048 93.108596 
L 185.909287 93.208898 
L 186.364147 93.309201 
L 188.486825 94.813737 
L 188.790065 95.214946 
L 189.093305 95.315248 
L 189.548164 95.515853 
L 189.699784 95.515853 
L 190.154644 96.21797 
L 190.457883 96.518877 
L 190.609503 96.619179 
L 190.912743 97.020389 
L 192.732181 98.224017 
L 193.187041 99.026436 
L 193.490281 99.126739 
L 193.641901 99.227041 
L 193.793521 99.628251 
L 193.94514 99.628251 
L 194.09676 99.828855 
L 194.55162 99.929158 
L 195.461339 100.43067 
L 195.764579 100.530972 
L 195.916199 100.731577 
L 196.522678 100.831879 
L 197.280778 101.333391 
L 197.432397 101.634298 
L 197.735637 101.7346 
L 198.038877 102.035508 
L 198.190497 102.13581 
L 198.493737 102.637322 
L 198.796976 103.038531 
L 199.706695 104.141857 
L 200.161555 104.342462 
L 200.464795 104.442765 
L 201.071274 104.743672 
L 201.677754 104.843974 
L 202.284233 105.345486 
L 203.042333 106.248207 
L 204.103672 107.050626 
L 204.406911 107.451836 
L 204.710151 107.752743 
L 204.861771 107.953348 
L 205.165011 108.555162 
L 205.77149 108.956371 
L 206.22635 110.16 
L 206.37797 110.16 
L 206.52959 110.360605 
L 206.832829 110.460907 
L 208.349028 111.363629 
L 208.652268 111.965443 
L 209.107127 112.366652 
L 209.561987 112.868164 
L 210.774946 113.770886 
L 210.926566 113.97149 
L 211.229806 114.473002 
L 211.533045 114.573305 
L 211.987905 114.974514 
L 212.291145 115.275421 
L 215.171922 117.181166 
L 215.475162 117.582376 
L 215.778402 117.883283 
L 219.720518 120.591447 
L 220.175378 121.293564 
L 223.207775 123.399914 
L 223.662635 123.901425 
L 224.420734 124.402937 
L 224.723974 124.904449 
L 225.330454 125.405961 
L 225.785313 125.907473 
L 226.088553 126.007775 
L 226.543413 126.308683 
L 226.846652 126.709892 
L 226.998272 126.810194 
L 227.756371 128.114125 
L 227.756371 128.114125 
" clip-path="url(#p36c70b0ffb)" style="fill: none; stroke: #e76f51; stroke-width: 1.8; stroke-linecap: square"/>
   </g>
   <g id="patch_3">
    <path d="M 54 388.8 
L 54 17.28 
" style="fill: none; stroke: #000000; stroke-width: 0.8; stroke-linejoin: miter; stroke-linecap: square"/>
   </g>
   <g id="patch_4">
    <path d="M 334.8 388.8 
L 334.8 17.28 
" style="fill: none; stroke: #000000; stroke-width: 0.8; stroke-linejoin: miter; stroke-linecap: square"/>
   </g>
   <g id="patch_5">
    <path d="M 54 388.8 
L 334.8 388.8 
" style="fill: none; stroke: #000000; stroke-width: 0.8; stroke-linejoin: miter; stroke-linecap: square"/>
   </g>
   <g id="patch_6">
    <path d="M 54 17.28 
L 334.8 17.28 
" style="fill: none; stroke: #000000; stroke-width: 0.8; stroke-linejoin: miter; stroke-linecap: square"/>
   </g>
   <g id="legend_1">
    <g id="patch_7">
     <path d="M 241.51125 132.5625 
L 326.4 132.5625 
Q 328.8 132.5625 328.8 130.1625 
L 328.8 25.68 
Q 328.8 23.28 326.4 23.28 
L 241.51125 23.28 
Q 239.11125 23.28 239.11125 25.68 
L 239.11125 130.1625 
Q 239.11125 132.5625 241.51125 132.5625 
z
" style="fill: #ffffff; opacity: 0.8; stroke: #cccccc; stroke-linejoin: miter"/>
    </g>
    <g id="line2d_35">
     <path d="M 243.91125 32.998125 
L 255.91125 32.998125 
L 267.91125 32.998125 
" style="fill: none; stroke: #d80000; stroke-width: 1.8; stroke-linecap: square"/>
    </g>
    <g id="text_17">
     <!-- None -->
     <g transform="translate(277.51125 37.198125) scale(0.12 -0.12)">
      <defs>
       <path id="DejaVuSans-4e" d="M 628 4666 
L 1478 4666 
L 3547 763 
L 3547 4666 
L 4159 4666 
L 4159 0 
L 3309 0 
L 1241 3903 
L 1241 0 
L 628 0 
L 628 4666 
z
" transform="scale(0.015625)"/>
       <path id="DejaVuSans-6e" d="M 3513 2113 
L 3513 0 
L 2938 0 
L 2938 2094 
Q 2938 2591 2744 2837 
Q 2550 3084 2163 3084 
Q 1697 3084 1428 2787 
Q 1159 2491 1159 1978 
L 1159 0 
L 581 0 
L 581 3500 
L 1159 3500 
L 1159 2956 
Q 1366 3272 1645 3428 
Q 1925 3584 2291 3584 
Q 2894 3584 3203 3211 
Q 3513 2838 3513 2113 
z
" transform="scale(0.015625)"/>
      </defs>
      <use xlink:href="#DejaVuSans-4e"/>
      <use xlink:href="#DejaVuSans-6f" x="74.804688"/>
      <use xlink:href="#DejaVuSans-6e" x="135.986328"/>
      <use xlink:href="#DejaVuSans-65" x="199.365234"/>
     </g>
    </g>
    <g id="line2d_36">
     <path d="M 243.91125 50.611875 
L 255.91125 50.611875 
L 267.91125 50.611875 
" style="fill: none; stroke: #264653; stroke-width: 1.8; stroke-linecap: square"/>
    </g>
    <g id="text_18">
     <!-- HD -->
     <g transform="translate(277.51125 54.811875) scale(0.12 -0.12)">
      <defs>
       <path id="DejaVuSans-48" d="M 628 4666 
L 1259 4666 
L 1259 2753 
L 3553 2753 
L 3553 4666 
L 4184 4666 
L 4184 0 
L 3553 0 
L 3553 2222 
L 1259 2222 
L 1259 0 
L 628 0 
L 628 4666 
z
" transform="scale(0.015625)"/>
       <path id="DejaVuSans-44" d="M 1259 4147 
L 1259 519 
L 2022 519 
Q 2988 519 3436 956 
Q 3884 1394 3884 2338 
Q 3884 3275 3436 3711 
Q 2988 4147 2022 4147 
L 1259 4147 
z
M 628 4666 
L 1925 4666 
Q 3281 4666 3915 4102 
Q 4550 3538 4550 2338 
Q 4550 1131 3912 565 
Q 3275 0 1925 0 
L 628 0 
L 628 4666 
z
" transform="scale(0.015625)"/>
      </defs>
      <use xlink:href="#DejaVuSans-48"/>
      <use xlink:href="#DejaVuSans-44" x="75.195312"/>
     </g>
    </g>
    <g id="line2d_37">
     <path d="M 243.91125 68.225625 
L 255.91125 68.225625 
L 267.91125 68.225625 
" style="fill: none; stroke: #ffe211; stroke-width: 1.8; stroke-linecap: square"/>
    </g>
    <g id="text_19">
     <!-- GND -->
     <g transform="translate(277.51125 72.425625) scale(0.12 -0.12)">
      <use xlink:href="#DejaVuSans-47"/>
      <use xlink:href="#DejaVuSans-4e" x="77.490234"/>
      <use xlink:href="#DejaVuSans-44" x="152.294922"/>
     </g>
    </g>
    <g id="line2d_38">
     <path d="M 243.91125 85.839375 
L 255.91125 85.839375 
L 267.91125 85.839375 
" style="fill: none; stroke: #39c5bb; stroke-width: 1.8; stroke-linecap: square"/>
    </g>
    <g id="text_20">
     <!-- BT -->
     <g transform="translate(277.51125 90.039375) scale(0.12 -0.12)">
      <defs>
       <path id="DejaVuSans-42" d="M 1259 2228 
L 1259 519 
L 2272 519 
Q 2781 519 3026 730 
Q 3272 941 3272 1375 
Q 3272 1813 3026 2020 
Q 2781 2228 2272 2228 
L 1259 2228 
z
M 1259 4147 
L 1259 2741 
L 2194 2741 
Q 2656 2741 2882 2914 
Q 3109 3088 3109 3444 
Q 3109 3797 2882 3972 
Q 2656 4147 2194 4147 
L 1259 4147 
z
M 628 4666 
L 2241 4666 
Q 2963 4666 3353 4366 
Q 3744 4066 3744 3513 
Q 3744 3084 3544 2831 
Q 3344 2578 2956 2516 
Q 3422 2416 3680 2098 
Q 3938 1781 3938 1306 
Q 3938 681 3513 340 
Q 3088 0 2303 0 
L 628 0 
L 628 4666 
z
" transform="scale(0.015625)"/>
       <path id="DejaVuSans-54" d="M -19 4666 
L 3928 4666 
L 3928 4134 
L 2272 4134 
L 2272 0 
L 1638 0 
L 1638 4134 
L -19 4134 
L -19 4666 
z
" transform="scale(0.015625)"/>
      </defs>
      <use xlink:href="#DejaVuSans-42"/>
      <use xlink:href="#DejaVuSans-54" x="68.603516"/>
     </g>
    </g>
    <g id="line2d_39">
     <path d="M 243.91125 103.453125 
L 255.91125 103.453125 
L 267.91125 103.453125 
" style="fill: none; stroke: #2a9d8f; stroke-width: 1.8; stroke-linecap: square"/>
    </g>
    <g id="text_21">
     <!-- DSTS-K -->
     <g transform="translate(277.51125 107.653125) scale(0.12 -0.12)">
      <defs>
       <path id="DejaVuSans-2d" d="M 313 2009 
L 1997 2009 
L 1997 1497 
L 313 1497 
L 313 2009 
z
" transform="scale(0.015625)"/>
       <path id="DejaVuSans-4b" d="M 628 4666 
L 1259 4666 
L 1259 2694 
L 3353 4666 
L 4166 4666 
L 1850 2491 
L 4331 0 
L 3500 0 
L 1259 2247 
L 1259 0 
L 628 0 
L 628 4666 
z
" transform="scale(0.015625)"/>
      </defs>
      <use xlink:href="#DejaVuSans-44"/>
      <use xlink:href="#DejaVuSans-53" x="77.001953"/>
      <use xlink:href="#DejaVuSans-54" x="140.478516"/>
      <use xlink:href="#DejaVuSans-53" x="201.5625"/>
      <use xlink:href="#DejaVuSans-2d" x="265.039062"/>
      <use xlink:href="#DejaVuSans-4b" x="301.123047"/>
     </g>
    </g>
    <g id="line2d_40">
     <path d="M 243.91125 121.066875 
L 255.91125 121.066875 
L 267.91125 121.066875 
" style="fill: none; stroke: #e76f51; stroke-width: 1.8; stroke-linecap: square"/>
    </g>
    <g id="text_22">
     <!-- DSTS-M -->
     <g transform="translate(277.51125 125.266875) scale(0.12 -0.12)">
      <defs>
       <path id="DejaVuSans-4d" d="M 628 4666 
L 1569 4666 
L 2759 1491 
L 3956 4666 
L 4897 4666 
L 4897 0 
L 4281 0 
L 4281 4097 
L 3078 897 
L 2444 897 
L 1241 4097 
L 1241 0 
L 628 0 
L 628 4666 
z
" transform="scale(0.015625)"/>
      </defs>
      <use xlink:href="#DejaVuSans-44"/>
      <use xlink:href="#DejaVuSans-53" x="77.001953"/>
      <use xlink:href="#DejaVuSans-54" x="140.478516"/>
      <use xlink:href="#DejaVuSans-53" x="201.5625"/>
      <use xlink:href="#DejaVuSans-2d" x="265.039062"/>
      <use xlink:href="#DejaVuSans-4d" x="301.123047"/>
     </g>
    </g>
   </g>
  </g>
 </g>
 <defs>
  <clipPath id="p36c70b0ffb">
   <rect x="54" y="17.28" width="280.8" height="371.52"/>
  </clipPath>
 </defs>
</svg>
