<?xml version="1.0" encoding="utf-8" standalone="no"?>
<!DOCTYPE svg PUBLIC "-//W3C//DTD SVG 1.1//EN"
  "http://www.w3.org/Graphics/SVG/1.1/DTD/svg11.dtd">
<svg xmlns:xlink="http://www.w3.org/1999/xlink" width="360pt" height="432pt" viewBox="0 0 360 432" xmlns="http://www.w3.org/2000/svg" version="1.1">
 <metadata>
  <rdf:RDF xmlns:dc="http://purl.org/dc/elements/1.1/" xmlns:cc="http://creativecommons.org/ns#" xmlns:rdf="http://www.w3.org/1999/02/22-rdf-syntax-ns#">
   <cc:Work>
    <dc:type rdf:resource="http://purl.org/dc/dcmitype/StillImage"/>
    <dc:date>2026-04-01T10:26:25.356016</dc:date>
    <dc:format>image/svg+xml</dc:format>
    <dc:creator>
     <cc:Agent>
      <dc:title>Matplotlib v3.6.3, https://matplotlib.org/</dc:title>
     </cc:Agent>
    </dc:creator>
   </cc:Work>
  </rdf:RDF>
 </metadata>
 <defs>
  <style type="text/css">*{stroke-linejoin: round; stroke-linecap: butt}</style>
 </defs>
 <g id="figure_1">
  <g id="patch_1">
   <path d="M 0 432 
L 360 432 
L 360 0 
L 0 0 
z
" style="fill: #ffffff"/>
  </g>
  <g id="axes_1">
   <g id="patch_2">
    <path d="M 54 388.8 
L 334.8 388.8 
L 334.8 17.28 
L 54 17.28 
z
" style="fill: #ffffff"/>
   </g>
   <g id="matplotlib.axis_1">
    <g id="xtick_1">
     <g id="line2d_1">
      <path d="M 54 388.8 
L 54 17.28 
" clip-path="url(#p183e1c7f41)" style="fill: none; stroke: #000000; stroke-opacity: 0.1; stroke-width: 0.7; stroke-linecap: square"/>
     </g>
     <g id="line2d_2">
      <defs>
       <path id="m2b2812df32" d="M 0 0 
L 0 3.5 
" style="stroke: #000000; stroke-width: 0.8"/>
      </defs>
      <g>
       <use xlink:href="#m2b2812df32" x="54" y="388.8" style="stroke: #000000; stroke-width: 0.8"/>
      </g>
     </g>
     <g id="text_1">
      <!-- 0.00 -->
      <g transform="translate(39.527344 405.677969) scale(0.13 -0.13)">
       <defs>
        <path id="DejaVuSans-30" d="M 2034 4250 
Q 1547 4250 1301 3770 
Q 1056 3291 1056 2328 
Q 1056 1369 1301 889 
Q 1547 409 2034 409 
Q 2525 409 2770 889 
Q 3016 1369 3016 2328 
Q 3016 3291 2770 3770 
Q 2525 4250 2034 4250 
z
M 2034 4750 
Q 2819 4750 3233 4129 
Q 3647 3509 3647 2328 
Q 3647 1150 3233 529 
Q 2819 -91 2034 -91 
Q 1250 -91 836 529 
Q 422 1150 422 2328 
Q 422 3509 836 4129 
Q 1250 4750 2034 4750 
z
" transform="scale(0.015625)"/>
        <path id="DejaVuSans-2e" d="M 684 794 
L 1344 794 
L 1344 0 
L 684 0 
L 684 794 
z
" transform="scale(0.015625)"/>
       </defs>
       <use xlink:href="#DejaVuSans-30"/>
       <use xlink:href="#DejaVuSans-2e" x="63.623047"/>
       <use xlink:href="#DejaVuSans-30" x="95.410156"/>
       <use xlink:href="#DejaVuSans-30" x="159.033203"/>
      </g>
     </g>
    </g>
    <g id="xtick_2">
     <g id="line2d_3">
      <path d="M 194.4 388.8 
L 194.4 17.28 
" clip-path="url(#p183e1c7f41)" style="fill: none; stroke: #000000; stroke-opacity: 0.1; stroke-width: 0.7; stroke-linecap: square"/>
     </g>
     <g id="line2d_4">
      <g>
       <use xlink:href="#m2b2812df32" x="194.4" y="388.8" style="stroke: #000000; stroke-width: 0.8"/>
      </g>
     </g>
     <g id="text_2">
      <!-- 0.25 -->
      <g transform="translate(179.927344 405.677969) scale(0.13 -0.13)">
       <defs>
        <path id="DejaVuSans-32" d="M 1228 531 
L 3431 531 
L 3431 0 
L 469 0 
L 469 531 
Q 828 903 1448 1529 
Q 2069 2156 2228 2338 
Q 2531 2678 2651 2914 
Q 2772 3150 2772 3378 
Q 2772 3750 2511 3984 
Q 2250 4219 1831 4219 
Q 1534 4219 1204 4116 
Q 875 4013 500 3803 
L 500 4441 
Q 881 4594 1212 4672 
Q 1544 4750 1819 4750 
Q 2544 4750 2975 4387 
Q 3406 4025 3406 3419 
Q 3406 3131 3298 2873 
Q 3191 2616 2906 2266 
Q 2828 2175 2409 1742 
Q 1991 1309 1228 531 
z
" transform="scale(0.015625)"/>
        <path id="DejaVuSans-35" d="M 691 4666 
L 3169 4666 
L 3169 4134 
L 1269 4134 
L 1269 2991 
Q 1406 3038 1543 3061 
Q 1681 3084 1819 3084 
Q 2600 3084 3056 2656 
Q 3513 2228 3513 1497 
Q 3513 744 3044 326 
Q 2575 -91 1722 -91 
Q 1428 -91 1123 -41 
Q 819 9 494 109 
L 494 744 
Q 775 591 1075 516 
Q 1375 441 1709 441 
Q 2250 441 2565 725 
Q 2881 1009 2881 1497 
Q 2881 1984 2565 2268 
Q 2250 2553 1709 2553 
Q 1456 2553 1204 2497 
Q 953 2441 691 2322 
L 691 4666 
z
" transform="scale(0.015625)"/>
       </defs>
       <use xlink:href="#DejaVuSans-30"/>
       <use xlink:href="#DejaVuSans-2e" x="63.623047"/>
       <use xlink:href="#DejaVuSans-32" x="95.410156"/>
       <use xlink:href="#DejaVuSans-35" x="159.033203"/>
      </g>
     </g>
    </g>
    <g id="xtick_3">
     <g id="line2d_5">
      <path d="M 334.8 388.8 
L 334.8 17.28 
" clip-path="url(#p183e1c7f41)" style="fill: none; stroke: #000000; stroke-opacity: 0.1; stroke-width: 0.7; stroke-linecap: square"/>
     </g>
     <g id="line2d_6">
      <g>
       <use xlink:href="#m2b2812df32" x="334.8" y="388.8" style="stroke: #000000; stroke-width: 0.8"/>
      </g>
     </g>
     <g id="text_3">
      <!-- 0.50 -->
      <g transform="translate(320.327344 405.677969) scale(0.13 -0.13)">
       <use xlink:href="#DejaVuSans-30"/>
       <use xlink:href="#DejaVuSans-2e" x="63.623047"/>
       <use xlink:href="#DejaVuSans-35" x="95.410156"/>
       <use xlink:href="#DejaVuSans-30" x="159.033203"/>
      </g>
     </g>
    </g>
    <g id="text_4">
     <!-- Attack Ratio -->
     <g transform="translate(145.78375 424.539062) scale(0.16 -0.16)">
      <defs>
       <path id="DejaVuSans-41" d="M 2188 4044 
L 1331 1722 
L 3047 1722 
L 2188 4044 
z
M 1831 4666 
L 2547 4666 
L 4325 0 
L 3669 0 
L 3244 1197 
L 1141 1197 
L 716 0 
L 50 0 
L 1831 4666 
z
" transform="scale(0.015625)"/>
       <path id="DejaVuSans-74" d="M 1172 4494 
L 1172 3500 
L 2356 3500 
L 2356 3053 
L 1172 3053 
L 1172 1153 
Q 1172 725 1289 603 
Q 1406 481 1766 481 
L 2356 481 
L 2356 0 
L 1766 0 
Q 1100 0 847 248 
Q 594 497 594 1153 
L 594 3053 
L 172 3053 
L 172 3500 
L 594 3500 
L 594 4494 
L 1172 4494 
z
" transform="scale(0.015625)"/>
       <path id="DejaVuSans-61" d="M 2194 1759 
Q 1497 1759 1228 1600 
Q 959 1441 959 1056 
Q 959 750 1161 570 
Q 1363 391 1709 391 
Q 2188 391 2477 730 
Q 2766 1069 2766 1631 
L 2766 1759 
L 2194 1759 
z
M 3341 1997 
L 3341 0 
L 2766 0 
L 2766 531 
Q 2569 213 2275 61 
Q 1981 -91 1556 -91 
Q 1019 -91 701 211 
Q 384 513 384 1019 
Q 384 1609 779 1909 
Q 1175 2209 1959 2209 
L 2766 2209 
L 2766 2266 
Q 2766 2663 2505 2880 
Q 2244 3097 1772 3097 
Q 1472 3097 1187 3025 
Q 903 2953 641 2809 
L 641 3341 
Q 956 3463 1253 3523 
Q 1550 3584 1831 3584 
Q 2591 3584 2966 3190 
Q 3341 2797 3341 1997 
z
" transform="scale(0.015625)"/>
       <path id="DejaVuSans-63" d="M 3122 3366 
L 3122 2828 
Q 2878 2963 2633 3030 
Q 2388 3097 2138 3097 
Q 1578 3097 1268 2742 
Q 959 2388 959 1747 
Q 959 1106 1268 751 
Q 1578 397 2138 397 
Q 2388 397 2633 464 
Q 2878 531 3122 666 
L 3122 134 
Q 2881 22 2623 -34 
Q 2366 -91 2075 -91 
Q 1284 -91 818 406 
Q 353 903 353 1747 
Q 353 2603 823 3093 
Q 1294 3584 2113 3584 
Q 2378 3584 2631 3529 
Q 2884 3475 3122 3366 
z
" transform="scale(0.015625)"/>
       <path id="DejaVuSans-6b" d="M 581 4863 
L 1159 4863 
L 1159 1991 
L 2875 3500 
L 3609 3500 
L 1753 1863 
L 3688 0 
L 2938 0 
L 1159 1709 
L 1159 0 
L 581 0 
L 581 4863 
z
" transform="scale(0.015625)"/>
       <path id="DejaVuSans-20" transform="scale(0.015625)"/>
       <path id="DejaVuSans-52" d="M 2841 2188 
Q 3044 2119 3236 1894 
Q 3428 1669 3622 1275 
L 4263 0 
L 3584 0 
L 2988 1197 
Q 2756 1666 2539 1819 
Q 2322 1972 1947 1972 
L 1259 1972 
L 1259 0 
L 628 0 
L 628 4666 
L 2053 4666 
Q 2853 4666 3247 4331 
Q 3641 3997 3641 3322 
Q 3641 2881 3436 2590 
Q 3231 2300 2841 2188 
z
M 1259 4147 
L 1259 2491 
L 2053 2491 
Q 2509 2491 2742 2702 
Q 2975 2913 2975 3322 
Q 2975 3731 2742 3939 
Q 2509 4147 2053 4147 
L 1259 4147 
z
" transform="scale(0.015625)"/>
       <path id="DejaVuSans-69" d="M 603 3500 
L 1178 3500 
L 1178 0 
L 603 0 
L 603 3500 
z
M 603 4863 
L 1178 4863 
L 1178 4134 
L 603 4134 
L 603 4863 
z
" transform="scale(0.015625)"/>
       <path id="DejaVuSans-6f" d="M 1959 3097 
Q 1497 3097 1228 2736 
Q 959 2375 959 1747 
Q 959 1119 1226 758 
Q 1494 397 1959 397 
Q 2419 397 2687 759 
Q 2956 1122 2956 1747 
Q 2956 2369 2687 2733 
Q 2419 3097 1959 3097 
z
M 1959 3584 
Q 2709 3584 3137 3096 
Q 3566 2609 3566 1747 
Q 3566 888 3137 398 
Q 2709 -91 1959 -91 
Q 1206 -91 779 398 
Q 353 888 353 1747 
Q 353 2609 779 3096 
Q 1206 3584 1959 3584 
z
" transform="scale(0.015625)"/>
      </defs>
      <use xlink:href="#DejaVuSans-41"/>
      <use xlink:href="#DejaVuSans-74" x="66.658203"/>
      <use xlink:href="#DejaVuSans-74" x="105.867188"/>
      <use xlink:href="#DejaVuSans-61" x="145.076172"/>
      <use xlink:href="#DejaVuSans-63" x="206.355469"/>
      <use xlink:href="#DejaVuSans-6b" x="261.335938"/>
      <use xlink:href="#DejaVuSans-20" x="319.246094"/>
      <use xlink:href="#DejaVuSans-52" x="351.033203"/>
      <use xlink:href="#DejaVuSans-61" x="418.265625"/>
      <use xlink:href="#DejaVuSans-74" x="479.544922"/>
      <use xlink:href="#DejaVuSans-69" x="518.753906"/>
      <use xlink:href="#DejaVuSans-6f" x="546.537109"/>
     </g>
    </g>
   </g>
   <g id="matplotlib.axis_2">
    <g id="ytick_1">
     <g id="line2d_7">
      <path d="M 54 388.8 
L 334.8 388.8 
" clip-path="url(#p183e1c7f41)" style="fill: none; stroke: #000000; stroke-opacity: 0.1; stroke-width: 0.7; stroke-linecap: square"/>
     </g>
     <g id="line2d_8">
      <defs>
       <path id="me19f8402c4" d="M 0 0 
L -3.5 0 
" style="stroke: #000000; stroke-width: 0.8"/>
      </defs>
      <g>
       <use xlink:href="#me19f8402c4" x="54" y="388.8" style="stroke: #000000; stroke-width: 0.8"/>
      </g>
     </g>
     <g id="text_5">
      <!-- 0.0 -->
      <g transform="translate(26.325937 393.738984) scale(0.13 -0.13)">
       <use xlink:href="#DejaVuSans-30"/>
       <use xlink:href="#DejaVuSans-2e" x="63.623047"/>
       <use xlink:href="#DejaVuSans-30" x="95.410156"/>
      </g>
     </g>
    </g>
    <g id="ytick_2">
     <g id="line2d_9">
      <path d="M 54 351.648 
L 334.8 351.648 
" clip-path="url(#p183e1c7f41)" style="fill: none; stroke: #000000; stroke-opacity: 0.1; stroke-width: 0.7; stroke-linecap: square"/>
     </g>
     <g id="line2d_10">
      <g>
       <use xlink:href="#me19f8402c4" x="54" y="351.648" style="stroke: #000000; stroke-width: 0.8"/>
      </g>
     </g>
     <g id="text_6">
      <!-- 0.1 -->
      <g transform="translate(26.325937 356.586984) scale(0.13 -0.13)">
       <defs>
        <path id="DejaVuSans-31" d="M 794 531 
L 1825 531 
L 1825 4091 
L 703 3866 
L 703 4441 
L 1819 4666 
L 2450 4666 
L 2450 531 
L 3481 531 
L 3481 0 
L 794 0 
L 794 531 
z
" transform="scale(0.015625)"/>
       </defs>
       <use xlink:href="#DejaVuSans-30"/>
       <use xlink:href="#DejaVuSans-2e" x="63.623047"/>
       <use xlink:href="#DejaVuSans-31" x="95.410156"/>
      </g>
     </g>
    </g>
    <g id="ytick_3">
     <g id="line2d_11">
      <path d="M 54 314.496 
L 334.8 314.496 
" clip-path="url(#p183e1c7f41)" style="fill: none; stroke: #000000; stroke-opacity: 0.1; stroke-width: 0.7; stroke-linecap: square"/>
     </g>
     <g id="line2d_12">
      <g>
       <use xlink:href="#me19f8402c4" x="54" y="314.496" style="stroke: #000000; stroke-width: 0.8"/>
      </g>
     </g>
     <g id="text_7">
      <!-- 0.2 -->
      <g transform="translate(26.325937 319.434984) scale(0.13 -0.13)">
       <use xlink:href="#DejaVuSans-30"/>
       <use xlink:href="#DejaVuSans-2e" x="63.623047"/>
       <use xlink:href="#DejaVuSans-32" x="95.410156"/>
      </g>
     </g>
    </g>
    <g id="ytick_4">
     <g id="line2d_13">
      <path d="M 54 277.344 
L 334.8 277.344 
" clip-path="url(#p183e1c7f41)" style="fill: none; stroke: #000000; stroke-opacity: 0.1; stroke-width: 0.7; stroke-linecap: square"/>
     </g>
     <g id="line2d_14">
      <g>
       <use xlink:href="#me19f8402c4" x="54" y="277.344" style="stroke: #000000; stroke-width: 0.8"/>
      </g>
     </g>
     <g id="text_8">
      <!-- 0.3 -->
      <g transform="translate(26.325937 282.282984) scale(0.13 -0.13)">
       <defs>
        <path id="DejaVuSans-33" d="M 2597 2516 
Q 3050 2419 3304 2112 
Q 3559 1806 3559 1356 
Q 3559 666 3084 287 
Q 2609 -91 1734 -91 
Q 1441 -91 1130 -33 
Q 819 25 488 141 
L 488 750 
Q 750 597 1062 519 
Q 1375 441 1716 441 
Q 2309 441 2620 675 
Q 2931 909 2931 1356 
Q 2931 1769 2642 2001 
Q 2353 2234 1838 2234 
L 1294 2234 
L 1294 2753 
L 1863 2753 
Q 2328 2753 2575 2939 
Q 2822 3125 2822 3475 
Q 2822 3834 2567 4026 
Q 2313 4219 1838 4219 
Q 1578 4219 1281 4162 
Q 984 4106 628 3988 
L 628 4550 
Q 988 4650 1302 4700 
Q 1616 4750 1894 4750 
Q 2613 4750 3031 4423 
Q 3450 4097 3450 3541 
Q 3450 3153 3228 2886 
Q 3006 2619 2597 2516 
z
" transform="scale(0.015625)"/>
       </defs>
       <use xlink:href="#DejaVuSans-30"/>
       <use xlink:href="#DejaVuSans-2e" x="63.623047"/>
       <use xlink:href="#DejaVuSans-33" x="95.410156"/>
      </g>
     </g>
    </g>
    <g id="ytick_5">
     <g id="line2d_15">
      <path d="M 54 240.192 
L 334.8 240.192 
" clip-path="url(#p183e1c7f41)" style="fill: none; stroke: #000000; stroke-opacity: 0.1; stroke-width: 0.7; stroke-linecap: square"/>
     </g>
     <g id="line2d_16">
      <g>
       <use xlink:href="#me19f8402c4" x="54" y="240.192" style="stroke: #000000; stroke-width: 0.8"/>
      </g>
     </g>
     <g id="text_9">
      <!-- 0.4 -->
      <g transform="translate(26.325937 245.130984) scale(0.13 -0.13)">
       <defs>
        <path id="DejaVuSans-34" d="M 2419 4116 
L 825 1625 
L 2419 1625 
L 2419 4116 
z
M 2253 4666 
L 3047 4666 
L 3047 1625 
L 3713 1625 
L 3713 1100 
L 3047 1100 
L 3047 0 
L 2419 0 
L 2419 1100 
L 313 1100 
L 313 1709 
L 2253 4666 
z
" transform="scale(0.015625)"/>
       </defs>
       <use xlink:href="#DejaVuSans-30"/>
       <use xlink:href="#DejaVuSans-2e" x="63.623047"/>
       <use xlink:href="#DejaVuSans-34" x="95.410156"/>
      </g>
     </g>
    </g>
    <g id="ytick_6">
     <g id="line2d_17">
      <path d="M 54 203.04 
L 334.8 203.04 
" clip-path="url(#p183e1c7f41)" style="fill: none; stroke: #000000; stroke-opacity: 0.1; stroke-width: 0.7; stroke-linecap: square"/>
     </g>
     <g id="line2d_18">
      <g>
       <use xlink:href="#me19f8402c4" x="54" y="203.04" style="stroke: #000000; stroke-width: 0.8"/>
      </g>
     </g>
     <g id="text_10">
      <!-- 0.5 -->
      <g transform="translate(26.325937 207.978984) scale(0.13 -0.13)">
       <use xlink:href="#DejaVuSans-30"/>
       <use xlink:href="#DejaVuSans-2e" x="63.623047"/>
       <use xlink:href="#DejaVuSans-35" x="95.410156"/>
      </g>
     </g>
    </g>
    <g id="ytick_7">
     <g id="line2d_19">
      <path d="M 54 165.888 
L 334.8 165.888 
" clip-path="url(#p183e1c7f41)" style="fill: none; stroke: #000000; stroke-opacity: 0.1; stroke-width: 0.7; stroke-linecap: square"/>
     </g>
     <g id="line2d_20">
      <g>
       <use xlink:href="#me19f8402c4" x="54" y="165.888" style="stroke: #000000; stroke-width: 0.8"/>
      </g>
     </g>
     <g id="text_11">
      <!-- 0.6 -->
      <g transform="translate(26.325937 170.826984) scale(0.13 -0.13)">
       <defs>
        <path id="DejaVuSans-36" d="M 2113 2584 
Q 1688 2584 1439 2293 
Q 1191 2003 1191 1497 
Q 1191 994 1439 701 
Q 1688 409 2113 409 
Q 2538 409 2786 701 
Q 3034 994 3034 1497 
Q 3034 2003 2786 2293 
Q 2538 2584 2113 2584 
z
M 3366 4563 
L 3366 3988 
Q 3128 4100 2886 4159 
Q 2644 4219 2406 4219 
Q 1781 4219 1451 3797 
Q 1122 3375 1075 2522 
Q 1259 2794 1537 2939 
Q 1816 3084 2150 3084 
Q 2853 3084 3261 2657 
Q 3669 2231 3669 1497 
Q 3669 778 3244 343 
Q 2819 -91 2113 -91 
Q 1303 -91 875 529 
Q 447 1150 447 2328 
Q 447 3434 972 4092 
Q 1497 4750 2381 4750 
Q 2619 4750 2861 4703 
Q 3103 4656 3366 4563 
z
" transform="scale(0.015625)"/>
       </defs>
       <use xlink:href="#DejaVuSans-30"/>
       <use xlink:href="#DejaVuSans-2e" x="63.623047"/>
       <use xlink:href="#DejaVuSans-36" x="95.410156"/>
      </g>
     </g>
    </g>
    <g id="ytick_8">
     <g id="line2d_21">
      <path d="M 54 128.736 
L 334.8 128.736 
" clip-path="url(#p183e1c7f41)" style="fill: none; stroke: #000000; stroke-opacity: 0.1; stroke-width: 0.7; stroke-linecap: square"/>
     </g>
     <g id="line2d_22">
      <g>
       <use xlink:href="#me19f8402c4" x="54" y="128.736" style="stroke: #000000; stroke-width: 0.8"/>
      </g>
     </g>
     <g id="text_12">
      <!-- 0.7 -->
      <g transform="translate(26.325937 133.674984) scale(0.13 -0.13)">
       <defs>
        <path id="DejaVuSans-37" d="M 525 4666 
L 3525 4666 
L 3525 4397 
L 1831 0 
L 1172 0 
L 2766 4134 
L 525 4134 
L 525 4666 
z
" transform="scale(0.015625)"/>
       </defs>
       <use xlink:href="#DejaVuSans-30"/>
       <use xlink:href="#DejaVuSans-2e" x="63.623047"/>
       <use xlink:href="#DejaVuSans-37" x="95.410156"/>
      </g>
     </g>
    </g>
    <g id="ytick_9">
     <g id="line2d_23">
      <path d="M 54 91.584 
L 334.8 91.584 
" clip-path="url(#p183e1c7f41)" style="fill: none; stroke: #000000; stroke-opacity: 0.1; stroke-width: 0.7; stroke-linecap: square"/>
     </g>
     <g id="line2d_24">
      <g>
       <use xlink:href="#me19f8402c4" x="54" y="91.584" style="stroke: #000000; stroke-width: 0.8"/>
      </g>
     </g>
     <g id="text_13">
      <!-- 0.8 -->
      <g transform="translate(26.325937 96.522984) scale(0.13 -0.13)">
       <defs>
        <path id="DejaVuSans-38" d="M 2034 2216 
Q 1584 2216 1326 1975 
Q 1069 1734 1069 1313 
Q 1069 891 1326 650 
Q 1584 409 2034 409 
Q 2484 409 2743 651 
Q 3003 894 3003 1313 
Q 3003 1734 2745 1975 
Q 2488 2216 2034 2216 
z
M 1403 2484 
Q 997 2584 770 2862 
Q 544 3141 544 3541 
Q 544 4100 942 4425 
Q 1341 4750 2034 4750 
Q 2731 4750 3128 4425 
Q 3525 4100 3525 3541 
Q 3525 3141 3298 2862 
Q 3072 2584 2669 2484 
Q 3125 2378 3379 2068 
Q 3634 1759 3634 1313 
Q 3634 634 3220 271 
Q 2806 -91 2034 -91 
Q 1263 -91 848 271 
Q 434 634 434 1313 
Q 434 1759 690 2068 
Q 947 2378 1403 2484 
z
M 1172 3481 
Q 1172 3119 1398 2916 
Q 1625 2713 2034 2713 
Q 2441 2713 2670 2916 
Q 2900 3119 2900 3481 
Q 2900 3844 2670 4047 
Q 2441 4250 2034 4250 
Q 1625 4250 1398 4047 
Q 1172 3844 1172 3481 
z
" transform="scale(0.015625)"/>
       </defs>
       <use xlink:href="#DejaVuSans-30"/>
       <use xlink:href="#DejaVuSans-2e" x="63.623047"/>
       <use xlink:href="#DejaVuSans-38" x="95.410156"/>
      </g>
     </g>
    </g>
    <g id="ytick_10">
     <g id="line2d_25">
      <path d="M 54 54.432 
L 334.8 54.432 
" clip-path="url(#p183e1c7f41)" style="fill: none; stroke: #000000; stroke-opacity: 0.1; stroke-width: 0.7; stroke-linecap: square"/>
     </g>
     <g id="line2d_26">
      <g>
       <use xlink:href="#me19f8402c4" x="54" y="54.432" style="stroke: #000000; stroke-width: 0.8"/>
      </g>
     </g>
     <g id="text_14">
      <!-- 0.9 -->
      <g transform="translate(26.325937 59.370984) scale(0.13 -0.13)">
       <defs>
        <path id="DejaVuSans-39" d="M 703 97 
L 703 672 
Q 941 559 1184 500 
Q 1428 441 1663 441 
Q 2288 441 2617 861 
Q 2947 1281 2994 2138 
Q 2813 1869 2534 1725 
Q 2256 1581 1919 1581 
Q 1219 1581 811 2004 
Q 403 2428 403 3163 
Q 403 3881 828 4315 
Q 1253 4750 1959 4750 
Q 2769 4750 3195 4129 
Q 3622 3509 3622 2328 
Q 3622 1225 3098 567 
Q 2575 -91 1691 -91 
Q 1453 -91 1209 -44 
Q 966 3 703 97 
z
M 1959 2075 
Q 2384 2075 2632 2365 
Q 2881 2656 2881 3163 
Q 2881 3666 2632 3958 
Q 2384 4250 1959 4250 
Q 1534 4250 1286 3958 
Q 1038 3666 1038 3163 
Q 1038 2656 1286 2365 
Q 1534 2075 1959 2075 
z
" transform="scale(0.015625)"/>
       </defs>
       <use xlink:href="#DejaVuSans-30"/>
       <use xlink:href="#DejaVuSans-2e" x="63.623047"/>
       <use xlink:href="#DejaVuSans-39" x="95.410156"/>
      </g>
     </g>
    </g>
    <g id="ytick_11">
     <g id="line2d_27">
      <path d="M 54 17.28 
L 334.8 17.28 
" clip-path="url(#p183e1c7f41)" style="fill: none; stroke: #000000; stroke-opacity: 0.1; stroke-width: 0.7; stroke-linecap: square"/>
     </g>
     <g id="line2d_28">
      <g>
       <use xlink:href="#me19f8402c4" x="54" y="17.28" style="stroke: #000000; stroke-width: 0.8"/>
      </g>
     </g>
     <g id="text_15">
      <!-- 1.0 -->
      <g transform="translate(26.325937 22.218984) scale(0.13 -0.13)">
       <use xlink:href="#DejaVuSans-31"/>
       <use xlink:href="#DejaVuSans-2e" x="63.623047"/>
       <use xlink:href="#DejaVuSans-30" x="95.410156"/>
      </g>
     </g>
    </g>
    <g id="text_16">
     <!-- GCC Size -->
     <g transform="translate(18.998437 239.37625) rotate(-90) scale(0.16 -0.16)">
      <defs>
       <path id="DejaVuSans-47" d="M 3809 666 
L 3809 1919 
L 2778 1919 
L 2778 2438 
L 4434 2438 
L 4434 434 
Q 4069 175 3628 42 
Q 3188 -91 2688 -91 
Q 1594 -91 976 548 
Q 359 1188 359 2328 
Q 359 3472 976 4111 
Q 1594 4750 2688 4750 
Q 3144 4750 3555 4637 
Q 3966 4525 4313 4306 
L 4313 3634 
Q 3963 3931 3569 4081 
Q 3175 4231 2741 4231 
Q 1884 4231 1454 3753 
Q 1025 3275 1025 2328 
Q 1025 1384 1454 906 
Q 1884 428 2741 428 
Q 3075 428 3337 486 
Q 3600 544 3809 666 
z
" transform="scale(0.015625)"/>
       <path id="DejaVuSans-43" d="M 4122 4306 
L 4122 3641 
Q 3803 3938 3442 4084 
Q 3081 4231 2675 4231 
Q 1875 4231 1450 3742 
Q 1025 3253 1025 2328 
Q 1025 1406 1450 917 
Q 1875 428 2675 428 
Q 3081 428 3442 575 
Q 3803 722 4122 1019 
L 4122 359 
Q 3791 134 3420 21 
Q 3050 -91 2638 -91 
Q 1578 -91 968 557 
Q 359 1206 359 2328 
Q 359 3453 968 4101 
Q 1578 4750 2638 4750 
Q 3056 4750 3426 4639 
Q 3797 4528 4122 4306 
z
" transform="scale(0.015625)"/>
       <path id="DejaVuSans-53" d="M 3425 4513 
L 3425 3897 
Q 3066 4069 2747 4153 
Q 2428 4238 2131 4238 
Q 1616 4238 1336 4038 
Q 1056 3838 1056 3469 
Q 1056 3159 1242 3001 
Q 1428 2844 1947 2747 
L 2328 2669 
Q 3034 2534 3370 2195 
Q 3706 1856 3706 1288 
Q 3706 609 3251 259 
Q 2797 -91 1919 -91 
Q 1588 -91 1214 -16 
Q 841 59 441 206 
L 441 856 
Q 825 641 1194 531 
Q 1563 422 1919 422 
Q 2459 422 2753 634 
Q 3047 847 3047 1241 
Q 3047 1584 2836 1778 
Q 2625 1972 2144 2069 
L 1759 2144 
Q 1053 2284 737 2584 
Q 422 2884 422 3419 
Q 422 4038 858 4394 
Q 1294 4750 2059 4750 
Q 2388 4750 2728 4690 
Q 3069 4631 3425 4513 
z
" transform="scale(0.015625)"/>
       <path id="DejaVuSans-7a" d="M 353 3500 
L 3084 3500 
L 3084 2975 
L 922 459 
L 3084 459 
L 3084 0 
L 275 0 
L 275 525 
L 2438 3041 
L 353 3041 
L 353 3500 
z
" transform="scale(0.015625)"/>
       <path id="DejaVuSans-65" d="M 3597 1894 
L 3597 1613 
L 953 1613 
Q 991 1019 1311 708 
Q 1631 397 2203 397 
Q 2534 397 2845 478 
Q 3156 559 3463 722 
L 3463 178 
Q 3153 47 2828 -22 
Q 2503 -91 2169 -91 
Q 1331 -91 842 396 
Q 353 884 353 1716 
Q 353 2575 817 3079 
Q 1281 3584 2069 3584 
Q 2775 3584 3186 3129 
Q 3597 2675 3597 1894 
z
M 3022 2063 
Q 3016 2534 2758 2815 
Q 2500 3097 2075 3097 
Q 1594 3097 1305 2825 
Q 1016 2553 972 2059 
L 3022 2063 
z
" transform="scale(0.015625)"/>
      </defs>
      <use xlink:href="#DejaVuSans-47"/>
      <use xlink:href="#DejaVuSans-43" x="77.490234"/>
      <use xlink:href="#DejaVuSans-43" x="147.314453"/>
      <use xlink:href="#DejaVuSans-20" x="217.138672"/>
      <use xlink:href="#DejaVuSans-53" x="248.925781"/>
      <use xlink:href="#DejaVuSans-69" x="312.402344"/>
      <use xlink:href="#DejaVuSans-7a" x="340.185547"/>
      <use xlink:href="#DejaVuSans-65" x="392.675781"/>
     </g>
    </g>
   </g>
   <g id="line2d_29">
    <path d="M 55.239735 18.100132 
L 58.95894 20.56053 
L 60.198675 35.322914 
L 61.438411 41.883974 
L 65.157616 44.344371 
L 66.397351 45.984636 
L 67.637086 46.804768 
L 70.116556 51.725563 
L 71.356291 51.725563 
L 72.596026 52.545695 
L 73.835762 66.487947 
L 76.315232 68.128212 
L 77.554967 74.689272 
L 80.034437 76.329536 
L 81.274172 79.610066 
L 82.513907 85.350993 
L 87.472848 88.631523 
L 88.712583 116.516026 
L 89.952318 117.336159 
L 91.192053 121.436821 
L 94.911258 123.897219 
L 96.150993 127.997881 
L 98.630464 129.638146 
L 101.109934 134.55894 
L 102.349669 155.062252 
L 103.589404 156.702517 
L 104.829139 157.522649 
L 106.068874 159.983046 
L 109.788079 162.443444 
L 111.027815 164.083709 
L 113.507285 165.723974 
L 114.74702 171.464901 
L 117.22649 178.02596 
L 118.466225 178.846093 
L 119.70596 204.270199 
L 128.384106 210.011126 
L 129.623841 213.291656 
L 130.863576 214.931921 
L 132.103311 217.392318 
L 133.343046 270.700927 
L 134.582781 282.182781 
L 135.822517 290.384106 
L 137.062252 292.024371 
L 138.301987 313.347815 
L 140.781457 314.988079 
L 142.021192 316.628344 
L 143.260927 326.469934 
L 144.500662 333.030993 
L 146.980132 334.671258 
L 148.219868 341.232318 
L 149.459603 342.05245 
L 150.699338 351.073907 
L 151.939073 358.455099 
L 153.178808 360.915497 
L 154.418543 361.735629 
L 155.658278 361.735629 
L 156.898013 362.555762 
L 158.137748 364.196026 
L 159.377483 365.016159 
L 160.617219 369.116821 
L 161.856954 371.577219 
L 163.096689 372.397351 
L 164.336424 372.397351 
L 165.576159 373.217483 
L 168.055629 373.217483 
L 169.295364 374.857748 
L 170.535099 374.857748 
L 171.774834 377.318146 
L 173.01457 378.138278 
L 174.254305 378.138278 
L 175.49404 379.778543 
L 179.213245 379.778543 
L 180.45298 380.598675 
L 185.411921 380.598675 
L 186.651656 381.418808 
L 189.131126 381.418808 
L 190.370861 382.23894 
L 202.768212 382.23894 
L 204.007947 383.059073 
L 207.727152 383.059073 
L 208.966887 383.879205 
L 213.925828 383.879205 
L 215.165563 384.699338 
L 239.960265 384.699338 
L 241.2 385.51947 
L 267.234437 385.51947 
L 268.474172 386.339603 
L 308.145695 386.339603 
L 309.38543 387.159735 
L 309.38543 387.159735 
" clip-path="url(#p183e1c7f41)" style="fill: none; stroke: #d80000; stroke-width: 1.8; stroke-linecap: square"/>
   </g>
   <g id="line2d_30">
    <path d="M 55.239735 17.28 
L 57.719205 18.920265 
L 58.95894 18.920265 
L 60.198675 19.740397 
L 61.438411 19.740397 
L 63.917881 21.380662 
L 65.157616 21.380662 
L 66.397351 22.200795 
L 70.116556 22.200795 
L 71.356291 23.020927 
L 72.596026 23.020927 
L 76.315232 25.481325 
L 77.554967 25.481325 
L 78.794702 26.301457 
L 80.034437 26.301457 
L 81.274172 27.121589 
L 82.513907 27.121589 
L 87.472848 30.402119 
L 88.712583 30.402119 
L 91.192053 32.042384 
L 93.671523 32.042384 
L 97.390728 34.502781 
L 101.109934 34.502781 
L 107.308609 38.603444 
L 108.548344 38.603444 
L 109.788079 39.423576 
L 113.507285 39.423576 
L 114.74702 40.243709 
L 115.986755 40.243709 
L 117.22649 41.063841 
L 118.466225 41.063841 
L 122.18543 43.524238 
L 123.425166 43.524238 
L 127.144371 45.984636 
L 128.384106 45.984636 
L 129.623841 46.804768 
L 132.103311 46.804768 
L 133.343046 47.624901 
L 140.781457 47.624901 
L 142.021192 48.445033 
L 146.980132 48.445033 
L 148.219868 49.265166 
L 149.459603 49.265166 
L 154.418543 52.545695 
L 155.658278 52.545695 
L 170.535099 62.387285 
L 171.774834 62.387285 
L 182.93245 69.768477 
L 184.172185 72.228874 
L 187.891391 74.689272 
L 189.131126 74.689272 
L 222.603974 96.832848 
L 223.843709 96.832848 
L 225.083444 99.293245 
L 248.638411 114.875762 
L 249.878146 116.516026 
L 259.796026 123.077086 
L 261.035762 124.717351 
L 277.152318 135.379073 
L 278.392053 137.019338 
L 283.350993 140.299868 
L 284.590728 141.940132 
L 310.625166 159.162914 
L 310.625166 159.162914 
" clip-path="url(#p183e1c7f41)" style="fill: none; stroke: #264653; stroke-width: 1.8; stroke-linecap: square"/>
   </g>
   <g id="line2d_31">
    <path d="M 55.239735 17.28 
L 102.349669 17.28 
L 103.589404 18.100132 
L 104.829139 18.100132 
L 107.308609 19.740397 
L 111.027815 19.740397 
L 115.986755 23.020927 
L 117.22649 23.020927 
L 118.466225 23.84106 
L 119.70596 23.84106 
L 182.93245 65.667815 
L 184.172185 68.128212 
L 185.411921 72.228874 
L 220.124503 95.192583 
L 221.364238 96.832848 
L 223.843709 98.473113 
L 225.083444 100.93351 
L 228.802649 103.393907 
L 230.042384 105.034172 
L 231.282119 105.854305 
L 232.521854 109.954967 
L 237.480795 113.235497 
L 238.72053 117.336159 
L 241.2 117.336159 
L 244.919205 119.796556 
L 246.15894 121.436821 
L 249.878146 123.897219 
L 251.117881 125.537483 
L 252.357616 126.357616 
L 254.837086 126.357616 
L 262.275497 131.278411 
L 263.515232 132.918675 
L 275.912583 141.12 
L 277.152318 142.760265 
L 278.392053 143.580397 
L 279.631788 145.220662 
L 280.871523 146.040795 
L 282.111258 148.501192 
L 287.070199 151.781722 
L 288.309934 153.421987 
L 294.508609 157.522649 
L 295.748344 159.162914 
L 310.625166 169.004503 
L 310.625166 169.004503 
" clip-path="url(#p183e1c7f41)" style="fill: none; stroke: #ffe211; stroke-width: 1.8; stroke-linecap: square"/>
   </g>
   <g id="line2d_32">
    <path d="M 55.239735 18.100132 
L 56.47947 18.100132 
L 58.95894 19.740397 
L 60.198675 19.740397 
L 61.438411 20.56053 
L 67.637086 20.56053 
L 71.356291 23.020927 
L 73.835762 23.020927 
L 75.075497 23.84106 
L 76.315232 23.84106 
L 77.554967 24.661192 
L 78.794702 24.661192 
L 81.274172 26.301457 
L 82.513907 26.301457 
L 84.993377 27.941722 
L 86.233113 27.941722 
L 87.472848 28.761854 
L 88.712583 28.761854 
L 89.952318 29.581987 
L 91.192053 29.581987 
L 92.431788 30.402119 
L 94.911258 30.402119 
L 101.109934 34.502781 
L 102.349669 34.502781 
L 104.829139 36.143046 
L 107.308609 36.143046 
L 112.26755 39.423576 
L 113.507285 39.423576 
L 114.74702 40.243709 
L 115.986755 40.243709 
L 118.466225 41.883974 
L 122.18543 41.883974 
L 135.822517 50.90543 
L 137.062252 50.90543 
L 140.781457 53.365828 
L 143.260927 53.365828 
L 144.500662 54.18596 
L 145.740397 54.18596 
L 146.980132 55.006093 
L 148.219868 55.006093 
L 149.459603 55.826225 
L 150.699338 55.826225 
L 153.178808 57.46649 
L 154.418543 57.46649 
L 159.377483 60.74702 
L 160.617219 60.74702 
L 170.535099 67.308079 
L 171.774834 67.308079 
L 182.93245 74.689272 
L 184.172185 74.689272 
L 223.843709 100.93351 
L 225.083444 100.93351 
L 231.282119 105.034172 
L 232.521854 105.034172 
L 237.480795 108.314702 
L 238.72053 108.314702 
L 247.398675 114.055629 
L 248.638411 114.055629 
L 258.556291 120.616689 
L 259.796026 122.256954 
L 263.515232 124.717351 
L 264.754967 126.357616 
L 274.672848 132.918675 
L 275.912583 132.918675 
L 308.145695 154.242119 
L 308.145695 154.242119 
" clip-path="url(#p183e1c7f41)" style="fill: none; stroke: #39c5bb; stroke-width: 1.8; stroke-linecap: square"/>
   </g>
   <g id="line2d_33">
    <path d="M 55.239735 17.28 
L 60.198675 20.56053 
L 62.678146 20.56053 
L 66.397351 23.020927 
L 67.637086 23.020927 
L 70.116556 24.661192 
L 71.356291 24.661192 
L 72.596026 25.481325 
L 75.075497 25.481325 
L 78.794702 27.941722 
L 80.034437 27.941722 
L 83.753642 30.402119 
L 84.993377 30.402119 
L 92.431788 35.322914 
L 93.671523 35.322914 
L 94.911258 36.143046 
L 96.150993 36.143046 
L 98.630464 37.783311 
L 99.870199 37.783311 
L 101.109934 38.603444 
L 102.349669 38.603444 
L 103.589404 39.423576 
L 104.829139 39.423576 
L 107.308609 41.063841 
L 112.26755 41.063841 
L 125.904636 50.085298 
L 127.144371 50.085298 
L 129.623841 51.725563 
L 130.863576 51.725563 
L 137.062252 55.826225 
L 138.301987 55.826225 
L 140.781457 57.46649 
L 146.980132 57.46649 
L 160.617219 66.487947 
L 161.856954 66.487947 
L 170.535099 72.228874 
L 171.774834 72.228874 
L 182.93245 79.610066 
L 184.172185 82.070464 
L 186.651656 83.710728 
L 187.891391 83.710728 
L 200.288742 91.912053 
L 201.528477 91.912053 
L 207.727152 96.012715 
L 208.966887 96.012715 
L 218.884768 102.573775 
L 220.124503 104.21404 
L 222.603974 105.854305 
L 223.843709 108.314702 
L 227.562914 110.775099 
L 230.042384 110.775099 
L 236.24106 114.875762 
L 238.72053 114.875762 
L 242.439735 117.336159 
L 243.67947 117.336159 
L 244.919205 118.156291 
L 246.15894 119.796556 
L 256.076821 126.357616 
L 257.316556 127.997881 
L 261.035762 130.458278 
L 262.275497 132.098543 
L 272.193377 138.659603 
L 274.672848 141.940132 
L 275.912583 142.760265 
L 277.152318 145.220662 
L 282.111258 148.501192 
L 283.350993 150.141457 
L 290.789404 155.062252 
L 292.029139 156.702517 
L 293.268874 156.702517 
L 294.508609 157.522649 
L 295.748344 159.162914 
L 298.227815 160.803179 
L 299.46755 160.803179 
L 310.625166 168.184371 
L 310.625166 168.184371 
" clip-path="url(#p183e1c7f41)" style="fill: none; stroke: #2a9d8f; stroke-width: 1.8; stroke-linecap: square"/>
   </g>
   <g id="line2d_34">
    <path d="M 55.239735 17.28 
L 57.719205 18.920265 
L 58.95894 18.920265 
L 60.198675 19.740397 
L 61.438411 19.740397 
L 63.917881 21.380662 
L 65.157616 21.380662 
L 68.876821 23.84106 
L 70.116556 23.84106 
L 71.356291 24.661192 
L 72.596026 24.661192 
L 73.835762 25.481325 
L 75.075497 25.481325 
L 80.034437 28.761854 
L 81.274172 28.761854 
L 87.472848 32.862517 
L 88.712583 32.862517 
L 89.952318 33.682649 
L 91.192053 33.682649 
L 93.671523 35.322914 
L 94.911258 35.322914 
L 96.150993 36.143046 
L 97.390728 36.143046 
L 98.630464 36.963179 
L 99.870199 36.963179 
L 104.829139 40.243709 
L 106.068874 40.243709 
L 107.308609 41.063841 
L 108.548344 41.063841 
L 112.26755 43.524238 
L 113.507285 43.524238 
L 115.986755 45.164503 
L 117.22649 45.164503 
L 118.466225 45.984636 
L 120.945695 45.984636 
L 128.384106 50.90543 
L 129.623841 50.90543 
L 134.582781 54.18596 
L 135.822517 54.18596 
L 138.301987 55.826225 
L 139.541722 55.826225 
L 142.021192 57.46649 
L 144.500662 57.46649 
L 145.740397 58.286623 
L 148.219868 58.286623 
L 160.617219 66.487947 
L 161.856954 66.487947 
L 170.535099 72.228874 
L 171.774834 72.228874 
L 182.93245 79.610066 
L 184.172185 82.070464 
L 200.288742 92.732185 
L 201.528477 92.732185 
L 206.487417 96.012715 
L 207.727152 96.012715 
L 215.165563 100.93351 
L 216.405298 102.573775 
L 218.884768 104.21404 
L 220.124503 106.674437 
L 225.083444 109.954967 
L 226.323179 109.954967 
L 232.521854 114.055629 
L 233.761589 114.055629 
L 236.24106 115.695894 
L 237.480795 115.695894 
L 242.439735 118.976424 
L 243.67947 118.976424 
L 244.919205 120.616689 
L 257.316556 128.818013 
L 258.556291 130.458278 
L 273.433113 140.299868 
L 274.672848 141.940132 
L 277.152318 143.580397 
L 278.392053 146.040795 
L 279.631788 146.860927 
L 280.871523 146.860927 
L 290.789404 153.421987 
L 292.029139 153.421987 
L 296.988079 156.702517 
L 298.227815 156.702517 
L 306.90596 162.443444 
L 306.90596 162.443444 
" clip-path="url(#p183e1c7f41)" style="fill: none; stroke: #e76f51; stroke-width: 1.8; stroke-linecap: square"/>
   </g>
   <g id="patch_3">
    <path d="M 54 388.8 
L 54 17.28 
" style="fill: none; stroke: #000000; stroke-width: 0.8; stroke-linejoin: miter; stroke-linecap: square"/>
   </g>
   <g id="patch_4">
    <path d="M 334.8 388.8 
L 334.8 17.28 
" style="fill: none; stroke: #000000; stroke-width: 0.8; stroke-linejoin: miter; stroke-linecap: square"/>
   </g>
   <g id="patch_5">
    <path d="M 54 388.8 
L 334.8 388.8 
" style="fill: none; stroke: #000000; stroke-width: 0.8; stroke-linejoin: miter; stroke-linecap: square"/>
   </g>
   <g id="patch_6">
    <path d="M 54 17.28 
L 334.8 17.28 
" style="fill: none; stroke: #000000; stroke-width: 0.8; stroke-linejoin: miter; stroke-linecap: square"/>
   </g>
   <g id="legend_1">
    <g id="patch_7">
     <path d="M 241.51125 382.8 
L 326.4 382.8 
Q 328.8 382.8 328.8 380.4 
L 328.8 275.9175 
Q 328.8 273.5175 326.4 273.5175 
L 241.51125 273.5175 
Q 239.11125 273.5175 239.11125 275.9175 
L 239.11125 380.4 
Q 239.11125 382.8 241.51125 382.8 
z
" style="fill: #ffffff; opacity: 0.8; stroke: #cccccc; stroke-linejoin: miter"/>
    </g>
    <g id="line2d_35">
     <path d="M 243.91125 283.235625 
L 255.91125 283.235625 
L 267.91125 283.235625 
" style="fill: none; stroke: #d80000; stroke-width: 1.8; stroke-linecap: square"/>
    </g>
    <g id="text_17">
     <!-- None -->
     <g transform="translate(277.51125 287.435625) scale(0.12 -0.12)">
      <defs>
       <path id="DejaVuSans-4e" d="M 628 4666 
L 1478 4666 
L 3547 763 
L 3547 4666 
L 4159 4666 
L 4159 0 
L 3309 0 
L 1241 3903 
L 1241 0 
L 628 0 
L 628 4666 
z
" transform="scale(0.015625)"/>
       <path id="DejaVuSans-6e" d="M 3513 2113 
L 3513 0 
L 2938 0 
L 2938 2094 
Q 2938 2591 2744 2837 
Q 2550 3084 2163 3084 
Q 1697 3084 1428 2787 
Q 1159 2491 1159 1978 
L 1159 0 
L 581 0 
L 581 3500 
L 1159 3500 
L 1159 2956 
Q 1366 3272 1645 3428 
Q 1925 3584 2291 3584 
Q 2894 3584 3203 3211 
Q 3513 2838 3513 2113 
z
" transform="scale(0.015625)"/>
      </defs>
      <use xlink:href="#DejaVuSans-4e"/>
      <use xlink:href="#DejaVuSans-6f" x="74.804688"/>
      <use xlink:href="#DejaVuSans-6e" x="135.986328"/>
      <use xlink:href="#DejaVuSans-65" x="199.365234"/>
     </g>
    </g>
    <g id="line2d_36">
     <path d="M 243.91125 300.849375 
L 255.91125 300.849375 
L 267.91125 300.849375 
" style="fill: none; stroke: #264653; stroke-width: 1.8; stroke-linecap: square"/>
    </g>
    <g id="text_18">
     <!-- HD -->
     <g transform="translate(277.51125 305.049375) scale(0.12 -0.12)">
      <defs>
       <path id="DejaVuSans-48" d="M 628 4666 
L 1259 4666 
L 1259 2753 
L 3553 2753 
L 3553 4666 
L 4184 4666 
L 4184 0 
L 3553 0 
L 3553 2222 
L 1259 2222 
L 1259 0 
L 628 0 
L 628 4666 
z
" transform="scale(0.015625)"/>
       <path id="DejaVuSans-44" d="M 1259 4147 
L 1259 519 
L 2022 519 
Q 2988 519 3436 956 
Q 3884 1394 3884 2338 
Q 3884 3275 3436 3711 
Q 2988 4147 2022 4147 
L 1259 4147 
z
M 628 4666 
L 1925 4666 
Q 3281 4666 3915 4102 
Q 4550 3538 4550 2338 
Q 4550 1131 3912 565 
Q 3275 0 1925 0 
L 628 0 
L 628 4666 
z
" transform="scale(0.015625)"/>
      </defs>
      <use xlink:href="#DejaVuSans-48"/>
      <use xlink:href="#DejaVuSans-44" x="75.195312"/>
     </g>
    </g>
    <g id="line2d_37">
     <path d="M 243.91125 318.463125 
L 255.91125 318.463125 
L 267.91125 318.463125 
" style="fill: none; stroke: #ffe211; stroke-width: 1.8; stroke-linecap: square"/>
    </g>
    <g id="text_19">
     <!-- GND -->
     <g transform="translate(277.51125 322.663125) scale(0.12 -0.12)">
      <use xlink:href="#DejaVuSans-47"/>
      <use xlink:href="#DejaVuSans-4e" x="77.490234"/>
      <use xlink:href="#DejaVuSans-44" x="152.294922"/>
     </g>
    </g>
    <g id="line2d_38">
     <path d="M 243.91125 336.076875 
L 255.91125 336.076875 
L 267.91125 336.076875 
" style="fill: none; stroke: #39c5bb; stroke-width: 1.8; stroke-linecap: square"/>
    </g>
    <g id="text_20">
     <!-- BT -->
     <g transform="translate(277.51125 340.276875) scale(0.12 -0.12)">
      <defs>
       <path id="DejaVuSans-42" d="M 1259 2228 
L 1259 519 
L 2272 519 
Q 2781 519 3026 730 
Q 3272 941 3272 1375 
Q 3272 1813 3026 2020 
Q 2781 2228 2272 2228 
L 1259 2228 
z
M 1259 4147 
L 1259 2741 
L 2194 2741 
Q 2656 2741 2882 2914 
Q 3109 3088 3109 3444 
Q 3109 3797 2882 3972 
Q 2656 4147 2194 4147 
L 1259 4147 
z
M 628 4666 
L 2241 4666 
Q 2963 4666 3353 4366 
Q 3744 4066 3744 3513 
Q 3744 3084 3544 2831 
Q 3344 2578 2956 2516 
Q 3422 2416 3680 2098 
Q 3938 1781 3938 1306 
Q 3938 681 3513 340 
Q 3088 0 2303 0 
L 628 0 
L 628 4666 
z
" transform="scale(0.015625)"/>
       <path id="DejaVuSans-54" d="M -19 4666 
L 3928 4666 
L 3928 4134 
L 2272 4134 
L 2272 0 
L 1638 0 
L 1638 4134 
L -19 4134 
L -19 4666 
z
" transform="scale(0.015625)"/>
      </defs>
      <use xlink:href="#DejaVuSans-42"/>
      <use xlink:href="#DejaVuSans-54" x="68.603516"/>
     </g>
    </g>
    <g id="line2d_39">
     <path d="M 243.91125 353.690625 
L 255.91125 353.690625 
L 267.91125 353.690625 
" style="fill: none; stroke: #2a9d8f; stroke-width: 1.8; stroke-linecap: square"/>
    </g>
    <g id="text_21">
     <!-- DSTS-K -->
     <g transform="translate(277.51125 357.890625) scale(0.12 -0.12)">
      <defs>
       <path id="DejaVuSans-2d" d="M 313 2009 
L 1997 2009 
L 1997 1497 
L 313 1497 
L 313 2009 
z
" transform="scale(0.015625)"/>
       <path id="DejaVuSans-4b" d="M 628 4666 
L 1259 4666 
L 1259 2694 
L 3353 4666 
L 4166 4666 
L 1850 2491 
L 4331 0 
L 3500 0 
L 1259 2247 
L 1259 0 
L 628 0 
L 628 4666 
z
" transform="scale(0.015625)"/>
      </defs>
      <use xlink:href="#DejaVuSans-44"/>
      <use xlink:href="#DejaVuSans-53" x="77.001953"/>
      <use xlink:href="#DejaVuSans-54" x="140.478516"/>
      <use xlink:href="#DejaVuSans-53" x="201.5625"/>
      <use xlink:href="#DejaVuSans-2d" x="265.039062"/>
      <use xlink:href="#DejaVuSans-4b" x="301.123047"/>
     </g>
    </g>
    <g id="line2d_40">
     <path d="M 243.91125 371.304375 
L 255.91125 371.304375 
L 267.91125 371.304375 
" style="fill: none; stroke: #e76f51; stroke-width: 1.8; stroke-linecap: square"/>
    </g>
    <g id="text_22">
     <!-- DSTS-M -->
     <g transform="translate(277.51125 375.504375) scale(0.12 -0.12)">
      <defs>
       <path id="DejaVuSans-4d" d="M 628 4666 
L 1569 4666 
L 2759 1491 
L 3956 4666 
L 4897 4666 
L 4897 0 
L 4281 0 
L 4281 4097 
L 3078 897 
L 2444 897 
L 1241 4097 
L 1241 0 
L 628 0 
L 628 4666 
z
" transform="scale(0.015625)"/>
      </defs>
      <use xlink:href="#DejaVuSans-44"/>
      <use xlink:href="#DejaVuSans-53" x="77.001953"/>
      <use xlink:href="#DejaVuSans-54" x="140.478516"/>
      <use xlink:href="#DejaVuSans-53" x="201.5625"/>
      <use xlink:href="#DejaVuSans-2d" x="265.039062"/>
      <use xlink:href="#DejaVuSans-4d" x="301.123047"/>
     </g>
    </g>
   </g>
  </g>
 </g>
 <defs>
  <clipPath id="p183e1c7f41">
   <rect x="54" y="17.28" width="280.8" height="371.52"/>
  </clipPath>
 </defs>
</svg>
