<?xml version="1.0" encoding="utf-8" standalone="no"?>
<!DOCTYPE svg PUBLIC "-//W3C//DTD SVG 1.1//EN"
  "http://www.w3.org/Graphics/SVG/1.1/DTD/svg11.dtd">
<svg xmlns:xlink="http://www.w3.org/1999/xlink" width="360pt" height="432pt" viewBox="0 0 360 432" xmlns="http://www.w3.org/2000/svg" version="1.1">
 <metadata>
  <rdf:RDF xmlns:dc="http://purl.org/dc/elements/1.1/" xmlns:cc="http://creativecommons.org/ns#" xmlns:rdf="http://www.w3.org/1999/02/22-rdf-syntax-ns#">
   <cc:Work>
    <dc:type rdf:resource="http://purl.org/dc/dcmitype/StillImage"/>
    <dc:date>2026-04-01T14:04:55.034337</dc:date>
    <dc:format>image/svg+xml</dc:format>
    <dc:creator>
     <cc:Agent>
      <dc:title>Matplotlib v3.6.3, https://matplotlib.org/</dc:title>
     </cc:Agent>
    </dc:creator>
   </cc:Work>
  </rdf:RDF>
 </metadata>
 <defs>
  <style type="text/css">*{stroke-linejoin: round; stroke-linecap: butt}</style>
 </defs>
 <g id="figure_1">
  <g id="patch_1">
   <path d="M 0 432 
L 360 432 
L 360 0 
L 0 0 
z
" style="fill: #ffffff"/>
  </g>
  <g id="axes_1">
   <g id="patch_2">
    <path d="M 54 388.8 
L 334.8 388.8 
L 334.8 17.28 
L 54 17.28 
z
" style="fill: #ffffff"/>
   </g>
   <g id="matplotlib.axis_1">
    <g id="xtick_1">
     <g id="line2d_1">
      <path d="M 54 388.8 
L 54 17.28 
" clip-path="url(#p6cf84a6825)" style="fill: none; stroke: #000000; stroke-opacity: 0.1; stroke-width: 0.7; stroke-linecap: square"/>
     </g>
     <g id="line2d_2">
      <defs>
       <path id="m917f73cad3" d="M 0 0 
L 0 3.5 
" style="stroke: #000000; stroke-width: 0.8"/>
      </defs>
      <g>
       <use xlink:href="#m917f73cad3" x="54" y="388.8" style="stroke: #000000; stroke-width: 0.8"/>
      </g>
     </g>
     <g id="text_1">
      <!-- 0.00 -->
      <g transform="translate(39.527344 405.677969) scale(0.13 -0.13)">
       <defs>
        <path id="DejaVuSans-30" d="M 2034 4250 
Q 1547 4250 1301 3770 
Q 1056 3291 1056 2328 
Q 1056 1369 1301 889 
Q 1547 409 2034 409 
Q 2525 409 2770 889 
Q 3016 1369 3016 2328 
Q 3016 3291 2770 3770 
Q 2525 4250 2034 4250 
z
M 2034 4750 
Q 2819 4750 3233 4129 
Q 3647 3509 3647 2328 
Q 3647 1150 3233 529 
Q 2819 -91 2034 -91 
Q 1250 -91 836 529 
Q 422 1150 422 2328 
Q 422 3509 836 4129 
Q 1250 4750 2034 4750 
z
" transform="scale(0.015625)"/>
        <path id="DejaVuSans-2e" d="M 684 794 
L 1344 794 
L 1344 0 
L 684 0 
L 684 794 
z
" transform="scale(0.015625)"/>
       </defs>
       <use xlink:href="#DejaVuSans-30"/>
       <use xlink:href="#DejaVuSans-2e" x="63.623047"/>
       <use xlink:href="#DejaVuSans-30" x="95.410156"/>
       <use xlink:href="#DejaVuSans-30" x="159.033203"/>
      </g>
     </g>
    </g>
    <g id="xtick_2">
     <g id="line2d_3">
      <path d="M 194.4 388.8 
L 194.4 17.28 
" clip-path="url(#p6cf84a6825)" style="fill: none; stroke: #000000; stroke-opacity: 0.1; stroke-width: 0.7; stroke-linecap: square"/>
     </g>
     <g id="line2d_4">
      <g>
       <use xlink:href="#m917f73cad3" x="194.4" y="388.8" style="stroke: #000000; stroke-width: 0.8"/>
      </g>
     </g>
     <g id="text_2">
      <!-- 0.25 -->
      <g transform="translate(179.927344 405.677969) scale(0.13 -0.13)">
       <defs>
        <path id="DejaVuSans-32" d="M 1228 531 
L 3431 531 
L 3431 0 
L 469 0 
L 469 531 
Q 828 903 1448 1529 
Q 2069 2156 2228 2338 
Q 2531 2678 2651 2914 
Q 2772 3150 2772 3378 
Q 2772 3750 2511 3984 
Q 2250 4219 1831 4219 
Q 1534 4219 1204 4116 
Q 875 4013 500 3803 
L 500 4441 
Q 881 4594 1212 4672 
Q 1544 4750 1819 4750 
Q 2544 4750 2975 4387 
Q 3406 4025 3406 3419 
Q 3406 3131 3298 2873 
Q 3191 2616 2906 2266 
Q 2828 2175 2409 1742 
Q 1991 1309 1228 531 
z
" transform="scale(0.015625)"/>
        <path id="DejaVuSans-35" d="M 691 4666 
L 3169 4666 
L 3169 4134 
L 1269 4134 
L 1269 2991 
Q 1406 3038 1543 3061 
Q 1681 3084 1819 3084 
Q 2600 3084 3056 2656 
Q 3513 2228 3513 1497 
Q 3513 744 3044 326 
Q 2575 -91 1722 -91 
Q 1428 -91 1123 -41 
Q 819 9 494 109 
L 494 744 
Q 775 591 1075 516 
Q 1375 441 1709 441 
Q 2250 441 2565 725 
Q 2881 1009 2881 1497 
Q 2881 1984 2565 2268 
Q 2250 2553 1709 2553 
Q 1456 2553 1204 2497 
Q 953 2441 691 2322 
L 691 4666 
z
" transform="scale(0.015625)"/>
       </defs>
       <use xlink:href="#DejaVuSans-30"/>
       <use xlink:href="#DejaVuSans-2e" x="63.623047"/>
       <use xlink:href="#DejaVuSans-32" x="95.410156"/>
       <use xlink:href="#DejaVuSans-35" x="159.033203"/>
      </g>
     </g>
    </g>
    <g id="xtick_3">
     <g id="line2d_5">
      <path d="M 334.8 388.8 
L 334.8 17.28 
" clip-path="url(#p6cf84a6825)" style="fill: none; stroke: #000000; stroke-opacity: 0.1; stroke-width: 0.7; stroke-linecap: square"/>
     </g>
     <g id="line2d_6">
      <g>
       <use xlink:href="#m917f73cad3" x="334.8" y="388.8" style="stroke: #000000; stroke-width: 0.8"/>
      </g>
     </g>
     <g id="text_3">
      <!-- 0.50 -->
      <g transform="translate(320.327344 405.677969) scale(0.13 -0.13)">
       <use xlink:href="#DejaVuSans-30"/>
       <use xlink:href="#DejaVuSans-2e" x="63.623047"/>
       <use xlink:href="#DejaVuSans-35" x="95.410156"/>
       <use xlink:href="#DejaVuSans-30" x="159.033203"/>
      </g>
     </g>
    </g>
    <g id="text_4">
     <!-- Attack Ratio -->
     <g transform="translate(145.78375 424.539062) scale(0.16 -0.16)">
      <defs>
       <path id="DejaVuSans-41" d="M 2188 4044 
L 1331 1722 
L 3047 1722 
L 2188 4044 
z
M 1831 4666 
L 2547 4666 
L 4325 0 
L 3669 0 
L 3244 1197 
L 1141 1197 
L 716 0 
L 50 0 
L 1831 4666 
z
" transform="scale(0.015625)"/>
       <path id="DejaVuSans-74" d="M 1172 4494 
L 1172 3500 
L 2356 3500 
L 2356 3053 
L 1172 3053 
L 1172 1153 
Q 1172 725 1289 603 
Q 1406 481 1766 481 
L 2356 481 
L 2356 0 
L 1766 0 
Q 1100 0 847 248 
Q 594 497 594 1153 
L 594 3053 
L 172 3053 
L 172 3500 
L 594 3500 
L 594 4494 
L 1172 4494 
z
" transform="scale(0.015625)"/>
       <path id="DejaVuSans-61" d="M 2194 1759 
Q 1497 1759 1228 1600 
Q 959 1441 959 1056 
Q 959 750 1161 570 
Q 1363 391 1709 391 
Q 2188 391 2477 730 
Q 2766 1069 2766 1631 
L 2766 1759 
L 2194 1759 
z
M 3341 1997 
L 3341 0 
L 2766 0 
L 2766 531 
Q 2569 213 2275 61 
Q 1981 -91 1556 -91 
Q 1019 -91 701 211 
Q 384 513 384 1019 
Q 384 1609 779 1909 
Q 1175 2209 1959 2209 
L 2766 2209 
L 2766 2266 
Q 2766 2663 2505 2880 
Q 2244 3097 1772 3097 
Q 1472 3097 1187 3025 
Q 903 2953 641 2809 
L 641 3341 
Q 956 3463 1253 3523 
Q 1550 3584 1831 3584 
Q 2591 3584 2966 3190 
Q 3341 2797 3341 1997 
z
" transform="scale(0.015625)"/>
       <path id="DejaVuSans-63" d="M 3122 3366 
L 3122 2828 
Q 2878 2963 2633 3030 
Q 2388 3097 2138 3097 
Q 1578 3097 1268 2742 
Q 959 2388 959 1747 
Q 959 1106 1268 751 
Q 1578 397 2138 397 
Q 2388 397 2633 464 
Q 2878 531 3122 666 
L 3122 134 
Q 2881 22 2623 -34 
Q 2366 -91 2075 -91 
Q 1284 -91 818 406 
Q 353 903 353 1747 
Q 353 2603 823 3093 
Q 1294 3584 2113 3584 
Q 2378 3584 2631 3529 
Q 2884 3475 3122 3366 
z
" transform="scale(0.015625)"/>
       <path id="DejaVuSans-6b" d="M 581 4863 
L 1159 4863 
L 1159 1991 
L 2875 3500 
L 3609 3500 
L 1753 1863 
L 3688 0 
L 2938 0 
L 1159 1709 
L 1159 0 
L 581 0 
L 581 4863 
z
" transform="scale(0.015625)"/>
       <path id="DejaVuSans-20" transform="scale(0.015625)"/>
       <path id="DejaVuSans-52" d="M 2841 2188 
Q 3044 2119 3236 1894 
Q 3428 1669 3622 1275 
L 4263 0 
L 3584 0 
L 2988 1197 
Q 2756 1666 2539 1819 
Q 2322 1972 1947 1972 
L 1259 1972 
L 1259 0 
L 628 0 
L 628 4666 
L 2053 4666 
Q 2853 4666 3247 4331 
Q 3641 3997 3641 3322 
Q 3641 2881 3436 2590 
Q 3231 2300 2841 2188 
z
M 1259 4147 
L 1259 2491 
L 2053 2491 
Q 2509 2491 2742 2702 
Q 2975 2913 2975 3322 
Q 2975 3731 2742 3939 
Q 2509 4147 2053 4147 
L 1259 4147 
z
" transform="scale(0.015625)"/>
       <path id="DejaVuSans-69" d="M 603 3500 
L 1178 3500 
L 1178 0 
L 603 0 
L 603 3500 
z
M 603 4863 
L 1178 4863 
L 1178 4134 
L 603 4134 
L 603 4863 
z
" transform="scale(0.015625)"/>
       <path id="DejaVuSans-6f" d="M 1959 3097 
Q 1497 3097 1228 2736 
Q 959 2375 959 1747 
Q 959 1119 1226 758 
Q 1494 397 1959 397 
Q 2419 397 2687 759 
Q 2956 1122 2956 1747 
Q 2956 2369 2687 2733 
Q 2419 3097 1959 3097 
z
M 1959 3584 
Q 2709 3584 3137 3096 
Q 3566 2609 3566 1747 
Q 3566 888 3137 398 
Q 2709 -91 1959 -91 
Q 1206 -91 779 398 
Q 353 888 353 1747 
Q 353 2609 779 3096 
Q 1206 3584 1959 3584 
z
" transform="scale(0.015625)"/>
      </defs>
      <use xlink:href="#DejaVuSans-41"/>
      <use xlink:href="#DejaVuSans-74" x="66.658203"/>
      <use xlink:href="#DejaVuSans-74" x="105.867188"/>
      <use xlink:href="#DejaVuSans-61" x="145.076172"/>
      <use xlink:href="#DejaVuSans-63" x="206.355469"/>
      <use xlink:href="#DejaVuSans-6b" x="261.335938"/>
      <use xlink:href="#DejaVuSans-20" x="319.246094"/>
      <use xlink:href="#DejaVuSans-52" x="351.033203"/>
      <use xlink:href="#DejaVuSans-61" x="418.265625"/>
      <use xlink:href="#DejaVuSans-74" x="479.544922"/>
      <use xlink:href="#DejaVuSans-69" x="518.753906"/>
      <use xlink:href="#DejaVuSans-6f" x="546.537109"/>
     </g>
    </g>
   </g>
   <g id="matplotlib.axis_2">
    <g id="ytick_1">
     <g id="line2d_7">
      <path d="M 54 388.8 
L 334.8 388.8 
" clip-path="url(#p6cf84a6825)" style="fill: none; stroke: #000000; stroke-opacity: 0.1; stroke-width: 0.7; stroke-linecap: square"/>
     </g>
     <g id="line2d_8">
      <defs>
       <path id="m3a1325dca7" d="M 0 0 
L -3.5 0 
" style="stroke: #000000; stroke-width: 0.8"/>
      </defs>
      <g>
       <use xlink:href="#m3a1325dca7" x="54" y="388.8" style="stroke: #000000; stroke-width: 0.8"/>
      </g>
     </g>
     <g id="text_5">
      <!-- 0.0 -->
      <g transform="translate(26.325937 393.738984) scale(0.13 -0.13)">
       <use xlink:href="#DejaVuSans-30"/>
       <use xlink:href="#DejaVuSans-2e" x="63.623047"/>
       <use xlink:href="#DejaVuSans-30" x="95.410156"/>
      </g>
     </g>
    </g>
    <g id="ytick_2">
     <g id="line2d_9">
      <path d="M 54 351.648 
L 334.8 351.648 
" clip-path="url(#p6cf84a6825)" style="fill: none; stroke: #000000; stroke-opacity: 0.1; stroke-width: 0.7; stroke-linecap: square"/>
     </g>
     <g id="line2d_10">
      <g>
       <use xlink:href="#m3a1325dca7" x="54" y="351.648" style="stroke: #000000; stroke-width: 0.8"/>
      </g>
     </g>
     <g id="text_6">
      <!-- 0.1 -->
      <g transform="translate(26.325937 356.586984) scale(0.13 -0.13)">
       <defs>
        <path id="DejaVuSans-31" d="M 794 531 
L 1825 531 
L 1825 4091 
L 703 3866 
L 703 4441 
L 1819 4666 
L 2450 4666 
L 2450 531 
L 3481 531 
L 3481 0 
L 794 0 
L 794 531 
z
" transform="scale(0.015625)"/>
       </defs>
       <use xlink:href="#DejaVuSans-30"/>
       <use xlink:href="#DejaVuSans-2e" x="63.623047"/>
       <use xlink:href="#DejaVuSans-31" x="95.410156"/>
      </g>
     </g>
    </g>
    <g id="ytick_3">
     <g id="line2d_11">
      <path d="M 54 314.496 
L 334.8 314.496 
" clip-path="url(#p6cf84a6825)" style="fill: none; stroke: #000000; stroke-opacity: 0.1; stroke-width: 0.7; stroke-linecap: square"/>
     </g>
     <g id="line2d_12">
      <g>
       <use xlink:href="#m3a1325dca7" x="54" y="314.496" style="stroke: #000000; stroke-width: 0.8"/>
      </g>
     </g>
     <g id="text_7">
      <!-- 0.2 -->
      <g transform="translate(26.325937 319.434984) scale(0.13 -0.13)">
       <use xlink:href="#DejaVuSans-30"/>
       <use xlink:href="#DejaVuSans-2e" x="63.623047"/>
       <use xlink:href="#DejaVuSans-32" x="95.410156"/>
      </g>
     </g>
    </g>
    <g id="ytick_4">
     <g id="line2d_13">
      <path d="M 54 277.344 
L 334.8 277.344 
" clip-path="url(#p6cf84a6825)" style="fill: none; stroke: #000000; stroke-opacity: 0.1; stroke-width: 0.7; stroke-linecap: square"/>
     </g>
     <g id="line2d_14">
      <g>
       <use xlink:href="#m3a1325dca7" x="54" y="277.344" style="stroke: #000000; stroke-width: 0.8"/>
      </g>
     </g>
     <g id="text_8">
      <!-- 0.3 -->
      <g transform="translate(26.325937 282.282984) scale(0.13 -0.13)">
       <defs>
        <path id="DejaVuSans-33" d="M 2597 2516 
Q 3050 2419 3304 2112 
Q 3559 1806 3559 1356 
Q 3559 666 3084 287 
Q 2609 -91 1734 -91 
Q 1441 -91 1130 -33 
Q 819 25 488 141 
L 488 750 
Q 750 597 1062 519 
Q 1375 441 1716 441 
Q 2309 441 2620 675 
Q 2931 909 2931 1356 
Q 2931 1769 2642 2001 
Q 2353 2234 1838 2234 
L 1294 2234 
L 1294 2753 
L 1863 2753 
Q 2328 2753 2575 2939 
Q 2822 3125 2822 3475 
Q 2822 3834 2567 4026 
Q 2313 4219 1838 4219 
Q 1578 4219 1281 4162 
Q 984 4106 628 3988 
L 628 4550 
Q 988 4650 1302 4700 
Q 1616 4750 1894 4750 
Q 2613 4750 3031 4423 
Q 3450 4097 3450 3541 
Q 3450 3153 3228 2886 
Q 3006 2619 2597 2516 
z
" transform="scale(0.015625)"/>
       </defs>
       <use xlink:href="#DejaVuSans-30"/>
       <use xlink:href="#DejaVuSans-2e" x="63.623047"/>
       <use xlink:href="#DejaVuSans-33" x="95.410156"/>
      </g>
     </g>
    </g>
    <g id="ytick_5">
     <g id="line2d_15">
      <path d="M 54 240.192 
L 334.8 240.192 
" clip-path="url(#p6cf84a6825)" style="fill: none; stroke: #000000; stroke-opacity: 0.1; stroke-width: 0.7; stroke-linecap: square"/>
     </g>
     <g id="line2d_16">
      <g>
       <use xlink:href="#m3a1325dca7" x="54" y="240.192" style="stroke: #000000; stroke-width: 0.8"/>
      </g>
     </g>
     <g id="text_9">
      <!-- 0.4 -->
      <g transform="translate(26.325937 245.130984) scale(0.13 -0.13)">
       <defs>
        <path id="DejaVuSans-34" d="M 2419 4116 
L 825 1625 
L 2419 1625 
L 2419 4116 
z
M 2253 4666 
L 3047 4666 
L 3047 1625 
L 3713 1625 
L 3713 1100 
L 3047 1100 
L 3047 0 
L 2419 0 
L 2419 1100 
L 313 1100 
L 313 1709 
L 2253 4666 
z
" transform="scale(0.015625)"/>
       </defs>
       <use xlink:href="#DejaVuSans-30"/>
       <use xlink:href="#DejaVuSans-2e" x="63.623047"/>
       <use xlink:href="#DejaVuSans-34" x="95.410156"/>
      </g>
     </g>
    </g>
    <g id="ytick_6">
     <g id="line2d_17">
      <path d="M 54 203.04 
L 334.8 203.04 
" clip-path="url(#p6cf84a6825)" style="fill: none; stroke: #000000; stroke-opacity: 0.1; stroke-width: 0.7; stroke-linecap: square"/>
     </g>
     <g id="line2d_18">
      <g>
       <use xlink:href="#m3a1325dca7" x="54" y="203.04" style="stroke: #000000; stroke-width: 0.8"/>
      </g>
     </g>
     <g id="text_10">
      <!-- 0.5 -->
      <g transform="translate(26.325937 207.978984) scale(0.13 -0.13)">
       <use xlink:href="#DejaVuSans-30"/>
       <use xlink:href="#DejaVuSans-2e" x="63.623047"/>
       <use xlink:href="#DejaVuSans-35" x="95.410156"/>
      </g>
     </g>
    </g>
    <g id="ytick_7">
     <g id="line2d_19">
      <path d="M 54 165.888 
L 334.8 165.888 
" clip-path="url(#p6cf84a6825)" style="fill: none; stroke: #000000; stroke-opacity: 0.1; stroke-width: 0.7; stroke-linecap: square"/>
     </g>
     <g id="line2d_20">
      <g>
       <use xlink:href="#m3a1325dca7" x="54" y="165.888" style="stroke: #000000; stroke-width: 0.8"/>
      </g>
     </g>
     <g id="text_11">
      <!-- 0.6 -->
      <g transform="translate(26.325937 170.826984) scale(0.13 -0.13)">
       <defs>
        <path id="DejaVuSans-36" d="M 2113 2584 
Q 1688 2584 1439 2293 
Q 1191 2003 1191 1497 
Q 1191 994 1439 701 
Q 1688 409 2113 409 
Q 2538 409 2786 701 
Q 3034 994 3034 1497 
Q 3034 2003 2786 2293 
Q 2538 2584 2113 2584 
z
M 3366 4563 
L 3366 3988 
Q 3128 4100 2886 4159 
Q 2644 4219 2406 4219 
Q 1781 4219 1451 3797 
Q 1122 3375 1075 2522 
Q 1259 2794 1537 2939 
Q 1816 3084 2150 3084 
Q 2853 3084 3261 2657 
Q 3669 2231 3669 1497 
Q 3669 778 3244 343 
Q 2819 -91 2113 -91 
Q 1303 -91 875 529 
Q 447 1150 447 2328 
Q 447 3434 972 4092 
Q 1497 4750 2381 4750 
Q 2619 4750 2861 4703 
Q 3103 4656 3366 4563 
z
" transform="scale(0.015625)"/>
       </defs>
       <use xlink:href="#DejaVuSans-30"/>
       <use xlink:href="#DejaVuSans-2e" x="63.623047"/>
       <use xlink:href="#DejaVuSans-36" x="95.410156"/>
      </g>
     </g>
    </g>
    <g id="ytick_8">
     <g id="line2d_21">
      <path d="M 54 128.736 
L 334.8 128.736 
" clip-path="url(#p6cf84a6825)" style="fill: none; stroke: #000000; stroke-opacity: 0.1; stroke-width: 0.7; stroke-linecap: square"/>
     </g>
     <g id="line2d_22">
      <g>
       <use xlink:href="#m3a1325dca7" x="54" y="128.736" style="stroke: #000000; stroke-width: 0.8"/>
      </g>
     </g>
     <g id="text_12">
      <!-- 0.7 -->
      <g transform="translate(26.325937 133.674984) scale(0.13 -0.13)">
       <defs>
        <path id="DejaVuSans-37" d="M 525 4666 
L 3525 4666 
L 3525 4397 
L 1831 0 
L 1172 0 
L 2766 4134 
L 525 4134 
L 525 4666 
z
" transform="scale(0.015625)"/>
       </defs>
       <use xlink:href="#DejaVuSans-30"/>
       <use xlink:href="#DejaVuSans-2e" x="63.623047"/>
       <use xlink:href="#DejaVuSans-37" x="95.410156"/>
      </g>
     </g>
    </g>
    <g id="ytick_9">
     <g id="line2d_23">
      <path d="M 54 91.584 
L 334.8 91.584 
" clip-path="url(#p6cf84a6825)" style="fill: none; stroke: #000000; stroke-opacity: 0.1; stroke-width: 0.7; stroke-linecap: square"/>
     </g>
     <g id="line2d_24">
      <g>
       <use xlink:href="#m3a1325dca7" x="54" y="91.584" style="stroke: #000000; stroke-width: 0.8"/>
      </g>
     </g>
     <g id="text_13">
      <!-- 0.8 -->
      <g transform="translate(26.325937 96.522984) scale(0.13 -0.13)">
       <defs>
        <path id="DejaVuSans-38" d="M 2034 2216 
Q 1584 2216 1326 1975 
Q 1069 1734 1069 1313 
Q 1069 891 1326 650 
Q 1584 409 2034 409 
Q 2484 409 2743 651 
Q 3003 894 3003 1313 
Q 3003 1734 2745 1975 
Q 2488 2216 2034 2216 
z
M 1403 2484 
Q 997 2584 770 2862 
Q 544 3141 544 3541 
Q 544 4100 942 4425 
Q 1341 4750 2034 4750 
Q 2731 4750 3128 4425 
Q 3525 4100 3525 3541 
Q 3525 3141 3298 2862 
Q 3072 2584 2669 2484 
Q 3125 2378 3379 2068 
Q 3634 1759 3634 1313 
Q 3634 634 3220 271 
Q 2806 -91 2034 -91 
Q 1263 -91 848 271 
Q 434 634 434 1313 
Q 434 1759 690 2068 
Q 947 2378 1403 2484 
z
M 1172 3481 
Q 1172 3119 1398 2916 
Q 1625 2713 2034 2713 
Q 2441 2713 2670 2916 
Q 2900 3119 2900 3481 
Q 2900 3844 2670 4047 
Q 2441 4250 2034 4250 
Q 1625 4250 1398 4047 
Q 1172 3844 1172 3481 
z
" transform="scale(0.015625)"/>
       </defs>
       <use xlink:href="#DejaVuSans-30"/>
       <use xlink:href="#DejaVuSans-2e" x="63.623047"/>
       <use xlink:href="#DejaVuSans-38" x="95.410156"/>
      </g>
     </g>
    </g>
    <g id="ytick_10">
     <g id="line2d_25">
      <path d="M 54 54.432 
L 334.8 54.432 
" clip-path="url(#p6cf84a6825)" style="fill: none; stroke: #000000; stroke-opacity: 0.1; stroke-width: 0.7; stroke-linecap: square"/>
     </g>
     <g id="line2d_26">
      <g>
       <use xlink:href="#m3a1325dca7" x="54" y="54.432" style="stroke: #000000; stroke-width: 0.8"/>
      </g>
     </g>
     <g id="text_14">
      <!-- 0.9 -->
      <g transform="translate(26.325937 59.370984) scale(0.13 -0.13)">
       <defs>
        <path id="DejaVuSans-39" d="M 703 97 
L 703 672 
Q 941 559 1184 500 
Q 1428 441 1663 441 
Q 2288 441 2617 861 
Q 2947 1281 2994 2138 
Q 2813 1869 2534 1725 
Q 2256 1581 1919 1581 
Q 1219 1581 811 2004 
Q 403 2428 403 3163 
Q 403 3881 828 4315 
Q 1253 4750 1959 4750 
Q 2769 4750 3195 4129 
Q 3622 3509 3622 2328 
Q 3622 1225 3098 567 
Q 2575 -91 1691 -91 
Q 1453 -91 1209 -44 
Q 966 3 703 97 
z
M 1959 2075 
Q 2384 2075 2632 2365 
Q 2881 2656 2881 3163 
Q 2881 3666 2632 3958 
Q 2384 4250 1959 4250 
Q 1534 4250 1286 3958 
Q 1038 3666 1038 3163 
Q 1038 2656 1286 2365 
Q 1534 2075 1959 2075 
z
" transform="scale(0.015625)"/>
       </defs>
       <use xlink:href="#DejaVuSans-30"/>
       <use xlink:href="#DejaVuSans-2e" x="63.623047"/>
       <use xlink:href="#DejaVuSans-39" x="95.410156"/>
      </g>
     </g>
    </g>
    <g id="ytick_11">
     <g id="line2d_27">
      <path d="M 54 17.28 
L 334.8 17.28 
" clip-path="url(#p6cf84a6825)" style="fill: none; stroke: #000000; stroke-opacity: 0.1; stroke-width: 0.7; stroke-linecap: square"/>
     </g>
     <g id="line2d_28">
      <g>
       <use xlink:href="#m3a1325dca7" x="54" y="17.28" style="stroke: #000000; stroke-width: 0.8"/>
      </g>
     </g>
     <g id="text_15">
      <!-- 1.0 -->
      <g transform="translate(26.325937 22.218984) scale(0.13 -0.13)">
       <use xlink:href="#DejaVuSans-31"/>
       <use xlink:href="#DejaVuSans-2e" x="63.623047"/>
       <use xlink:href="#DejaVuSans-30" x="95.410156"/>
      </g>
     </g>
    </g>
    <g id="text_16">
     <!-- GCC Size -->
     <g transform="translate(18.998437 239.37625) rotate(-90) scale(0.16 -0.16)">
      <defs>
       <path id="DejaVuSans-47" d="M 3809 666 
L 3809 1919 
L 2778 1919 
L 2778 2438 
L 4434 2438 
L 4434 434 
Q 4069 175 3628 42 
Q 3188 -91 2688 -91 
Q 1594 -91 976 548 
Q 359 1188 359 2328 
Q 359 3472 976 4111 
Q 1594 4750 2688 4750 
Q 3144 4750 3555 4637 
Q 3966 4525 4313 4306 
L 4313 3634 
Q 3963 3931 3569 4081 
Q 3175 4231 2741 4231 
Q 1884 4231 1454 3753 
Q 1025 3275 1025 2328 
Q 1025 1384 1454 906 
Q 1884 428 2741 428 
Q 3075 428 3337 486 
Q 3600 544 3809 666 
z
" transform="scale(0.015625)"/>
       <path id="DejaVuSans-43" d="M 4122 4306 
L 4122 3641 
Q 3803 3938 3442 4084 
Q 3081 4231 2675 4231 
Q 1875 4231 1450 3742 
Q 1025 3253 1025 2328 
Q 1025 1406 1450 917 
Q 1875 428 2675 428 
Q 3081 428 3442 575 
Q 3803 722 4122 1019 
L 4122 359 
Q 3791 134 3420 21 
Q 3050 -91 2638 -91 
Q 1578 -91 968 557 
Q 359 1206 359 2328 
Q 359 3453 968 4101 
Q 1578 4750 2638 4750 
Q 3056 4750 3426 4639 
Q 3797 4528 4122 4306 
z
" transform="scale(0.015625)"/>
       <path id="DejaVuSans-53" d="M 3425 4513 
L 3425 3897 
Q 3066 4069 2747 4153 
Q 2428 4238 2131 4238 
Q 1616 4238 1336 4038 
Q 1056 3838 1056 3469 
Q 1056 3159 1242 3001 
Q 1428 2844 1947 2747 
L 2328 2669 
Q 3034 2534 3370 2195 
Q 3706 1856 3706 1288 
Q 3706 609 3251 259 
Q 2797 -91 1919 -91 
Q 1588 -91 1214 -16 
Q 841 59 441 206 
L 441 856 
Q 825 641 1194 531 
Q 1563 422 1919 422 
Q 2459 422 2753 634 
Q 3047 847 3047 1241 
Q 3047 1584 2836 1778 
Q 2625 1972 2144 2069 
L 1759 2144 
Q 1053 2284 737 2584 
Q 422 2884 422 3419 
Q 422 4038 858 4394 
Q 1294 4750 2059 4750 
Q 2388 4750 2728 4690 
Q 3069 4631 3425 4513 
z
" transform="scale(0.015625)"/>
       <path id="DejaVuSans-7a" d="M 353 3500 
L 3084 3500 
L 3084 2975 
L 922 459 
L 3084 459 
L 3084 0 
L 275 0 
L 275 525 
L 2438 3041 
L 353 3041 
L 353 3500 
z
" transform="scale(0.015625)"/>
       <path id="DejaVuSans-65" d="M 3597 1894 
L 3597 1613 
L 953 1613 
Q 991 1019 1311 708 
Q 1631 397 2203 397 
Q 2534 397 2845 478 
Q 3156 559 3463 722 
L 3463 178 
Q 3153 47 2828 -22 
Q 2503 -91 2169 -91 
Q 1331 -91 842 396 
Q 353 884 353 1716 
Q 353 2575 817 3079 
Q 1281 3584 2069 3584 
Q 2775 3584 3186 3129 
Q 3597 2675 3597 1894 
z
M 3022 2063 
Q 3016 2534 2758 2815 
Q 2500 3097 2075 3097 
Q 1594 3097 1305 2825 
Q 1016 2553 972 2059 
L 3022 2063 
z
" transform="scale(0.015625)"/>
      </defs>
      <use xlink:href="#DejaVuSans-47"/>
      <use xlink:href="#DejaVuSans-43" x="77.490234"/>
      <use xlink:href="#DejaVuSans-43" x="147.314453"/>
      <use xlink:href="#DejaVuSans-20" x="217.138672"/>
      <use xlink:href="#DejaVuSans-53" x="248.925781"/>
      <use xlink:href="#DejaVuSans-69" x="312.402344"/>
      <use xlink:href="#DejaVuSans-7a" x="340.185547"/>
      <use xlink:href="#DejaVuSans-65" x="392.675781"/>
     </g>
    </g>
   </g>
   <g id="line2d_29">
    <path d="M 55.481794 31.003694 
L 56.963588 33.944485 
L 59.927177 35.905013 
L 61.408971 207.451187 
L 62.890765 218.23409 
L 64.372559 242.740686 
L 65.854354 243.72095 
L 67.336148 253.523588 
L 68.817942 257.444644 
L 70.299736 277.049921 
L 71.78153 278.030185 
L 73.263325 282.931504 
L 74.745119 283.911768 
L 76.226913 291.753879 
L 80.672296 291.753879 
L 82.15409 294.69467 
L 83.635884 296.655198 
L 85.117678 297.635462 
L 86.599472 318.221003 
L 88.081266 330.964433 
L 91.044855 332.92496 
L 92.526649 341.747335 
L 95.490237 343.707863 
L 96.972032 355.471029 
L 99.93562 355.471029 
L 101.417414 356.451293 
L 102.899208 365.273668 
L 104.381003 365.273668 
L 107.344591 367.234195 
L 108.826385 367.234195 
L 110.308179 368.214459 
L 113.271768 372.135515 
L 114.753562 372.135515 
L 116.235356 373.115778 
L 117.71715 373.115778 
L 119.198945 374.096042 
L 120.680739 374.096042 
L 122.162533 375.076306 
L 129.571504 375.076306 
L 134.016887 378.017098 
L 135.498681 378.017098 
L 136.980475 378.997361 
L 145.87124 378.997361 
L 147.353034 379.977625 
L 154.762005 379.977625 
L 156.243799 380.957889 
L 166.616359 380.957889 
L 168.098153 381.938153 
L 172.543536 381.938153 
L 174.02533 382.918417 
L 191.80686 382.918417 
L 193.288654 383.898681 
L 218.479156 383.898681 
L 219.96095 384.878945 
L 258.487599 384.878945 
L 259.969393 385.859208 
L 305.905013 385.859208 
L 307.386807 386.839472 
L 307.386807 386.839472 
" clip-path="url(#p6cf84a6825)" style="fill: none; stroke: #d80000; stroke-width: 1.8; stroke-linecap: square"/>
   </g>
   <g id="line2d_30">
    <path d="M 55.481794 17.28 
L 56.963588 18.260264 
L 58.445383 18.260264 
L 61.408971 20.220792 
L 68.817942 20.220792 
L 70.299736 21.201055 
L 71.78153 21.201055 
L 74.745119 23.161583 
L 85.117678 23.161583 
L 86.599472 24.141847 
L 88.081266 24.141847 
L 89.563061 25.122111 
L 91.044855 25.122111 
L 92.526649 26.102375 
L 99.93562 26.102375 
L 101.417414 43.747124 
L 105.862797 46.687916 
L 107.344591 46.687916 
L 110.308179 48.648443 
L 113.271768 48.648443 
L 116.235356 50.608971 
L 119.198945 50.608971 
L 120.680739 58.451082 
L 123.644327 60.411609 
L 125.126121 67.273456 
L 129.571504 70.214248 
L 131.053298 73.15504 
L 134.016887 73.15504 
L 135.498681 77.076095 
L 141.425858 77.076095 
L 142.907652 80.99715 
L 144.389446 89.819525 
L 147.353034 89.819525 
L 150.316623 91.780053 
L 151.798417 91.780053 
L 153.280211 93.74058 
L 154.762005 97.661636 
L 156.243799 102.562955 
L 159.207388 102.562955 
L 160.689182 103.543219 
L 162.170976 105.503747 
L 163.65277 108.444538 
L 165.134565 113.345858 
L 166.616359 117.266913 
L 168.098153 117.266913 
L 169.579947 123.148496 
L 171.061741 125.109024 
L 172.543536 126.089288 
L 174.02533 130.010343 
L 175.507124 130.010343 
L 176.988918 131.970871 
L 178.470712 137.852454 
L 181.434301 137.852454 
L 182.916095 142.753773 
L 187.361478 142.753773 
L 188.843272 143.734037 
L 190.325066 143.734037 
L 197.734037 148.635356 
L 200.697625 152.556412 
L 203.661214 154.516939 
L 205.143008 157.457731 
L 206.624802 159.418259 
L 208.106596 163.339314 
L 212.551979 163.339314 
L 216.997361 166.280106 
L 218.479156 170.201161 
L 221.442744 170.201161 
L 230.333509 176.082744 
L 231.815303 178.043272 
L 233.297098 181.964327 
L 236.260686 181.964327 
L 242.187863 185.885383 
L 243.669657 185.885383 
L 246.633245 187.84591 
L 252.560422 187.84591 
L 257.005805 190.786702 
L 258.487599 190.786702 
L 259.969393 192.74723 
L 262.932982 194.707757 
L 264.414776 194.707757 
L 268.860158 197.648549 
L 270.341953 200.58934 
L 271.823747 200.58934 
L 273.305541 201.569604 
L 274.787335 204.510396 
L 280.714512 208.431451 
L 282.196306 208.431451 
L 283.6781 209.411715 
L 285.159894 209.411715 
L 288.123483 211.372243 
L 289.605277 211.372243 
L 292.568865 213.33277 
L 294.05066 213.33277 
L 299.977836 217.253826 
L 302.941425 217.253826 
L 304.423219 218.23409 
L 305.905013 218.23409 
L 305.905013 218.23409 
" clip-path="url(#p6cf84a6825)" style="fill: none; stroke: #264653; stroke-width: 1.8; stroke-linecap: square"/>
   </g>
   <g id="line2d_31">
    <path d="M 55.481794 17.28 
L 108.826385 17.28 
L 110.308179 18.260264 
L 111.789974 38.845805 
L 113.271768 48.648443 
L 114.753562 49.628707 
L 116.235356 64.332665 
L 117.71715 64.332665 
L 119.198945 75.115567 
L 120.680739 82.957678 
L 122.162533 88.839261 
L 123.644327 89.819525 
L 125.126121 91.780053 
L 129.571504 94.720844 
L 131.053298 97.661636 
L 132.535092 101.582691 
L 134.016887 110.405066 
L 135.498681 110.405066 
L 136.980475 111.38533 
L 138.462269 115.306385 
L 139.944063 116.286649 
L 141.425858 124.12876 
L 142.907652 124.12876 
L 147.353034 127.069551 
L 148.834828 133.931398 
L 150.316623 133.931398 
L 151.798417 134.911662 
L 153.280211 134.911662 
L 154.762005 136.87219 
L 156.243799 136.87219 
L 157.725594 140.793245 
L 159.207388 145.694565 
L 163.65277 148.635356 
L 165.134565 150.595884 
L 166.616359 153.536675 
L 168.098153 153.536675 
L 169.579947 157.457731 
L 171.061741 162.35905 
L 172.543536 168.240633 
L 174.02533 168.240633 
L 175.507124 169.220897 
L 176.988918 173.141953 
L 179.952507 173.141953 
L 181.434301 178.043272 
L 182.916095 179.023536 
L 184.397889 183.924855 
L 187.361478 183.924855 
L 190.325066 185.885383 
L 191.80686 185.885383 
L 196.252243 188.826174 
L 202.17942 188.826174 
L 203.661214 190.786702 
L 205.143008 191.766966 
L 206.624802 194.707757 
L 208.106596 195.688021 
L 209.588391 199.609077 
L 214.033773 199.609077 
L 224.406332 206.470923 
L 227.369921 206.470923 
L 233.297098 210.391979 
L 234.778892 212.352507 
L 236.260686 215.293298 
L 239.224274 215.293298 
L 243.669657 218.23409 
L 248.11504 218.23409 
L 252.560422 221.174881 
L 257.005805 221.174881 
L 258.487599 222.155145 
L 265.89657 222.155145 
L 267.378364 223.135409 
L 268.860158 223.135409 
L 270.341953 225.095937 
L 273.305541 227.056464 
L 276.269129 227.056464 
L 280.714512 229.997256 
L 285.159894 229.997256 
L 286.641689 232.938047 
L 288.123483 233.918311 
L 291.087071 233.918311 
L 292.568865 234.898575 
L 294.05066 234.898575 
L 295.532454 235.878839 
L 297.014248 235.878839 
L 301.459631 238.819631 
L 302.941425 238.819631 
L 304.423219 239.799894 
L 305.905013 239.799894 
L 307.386807 240.780158 
L 308.868602 240.780158 
L 310.350396 241.760422 
L 313.313984 241.760422 
L 313.313984 241.760422 
" clip-path="url(#p6cf84a6825)" style="fill: none; stroke: #ffe211; stroke-width: 1.8; stroke-linecap: square"/>
   </g>
   <g id="line2d_32">
    <path d="M 55.481794 17.28 
L 65.854354 17.28 
L 67.336148 18.260264 
L 73.263325 18.260264 
L 74.745119 19.240528 
L 76.226913 19.240528 
L 79.190501 21.201055 
L 83.635884 21.201055 
L 85.117678 22.181319 
L 88.081266 22.181319 
L 89.563061 23.161583 
L 91.044855 23.161583 
L 92.526649 24.141847 
L 94.008443 24.141847 
L 95.490237 25.122111 
L 96.972032 25.122111 
L 98.453826 26.102375 
L 99.93562 26.102375 
L 101.417414 27.082639 
L 102.899208 27.082639 
L 105.862797 29.043166 
L 107.344591 29.043166 
L 108.826385 30.02343 
L 114.753562 30.02343 
L 116.235356 31.003694 
L 120.680739 31.003694 
L 122.162533 36.885277 
L 123.644327 37.865541 
L 125.126121 39.826069 
L 129.571504 42.76686 
L 131.053298 45.707652 
L 132.535092 49.628707 
L 134.016887 49.628707 
L 135.498681 53.549763 
L 138.462269 55.51029 
L 139.944063 63.352401 
L 141.425858 63.352401 
L 142.907652 67.273456 
L 145.87124 69.233984 
L 147.353034 69.233984 
L 150.316623 71.194512 
L 151.798417 74.135303 
L 153.280211 76.095831 
L 154.762005 80.016887 
L 156.243799 84.918206 
L 160.689182 87.858997 
L 162.170976 90.799789 
L 163.65277 95.701108 
L 165.134565 99.622164 
L 166.616359 99.622164 
L 168.098153 105.503747 
L 171.061741 107.464274 
L 172.543536 109.424802 
L 175.507124 111.38533 
L 176.988918 113.345858 
L 178.470712 114.326121 
L 179.952507 119.227441 
L 182.916095 119.227441 
L 185.879683 123.148496 
L 187.361478 128.049815 
L 188.843272 133.931398 
L 191.80686 133.931398 
L 197.734037 137.852454 
L 199.215831 139.812982 
L 200.697625 140.793245 
L 202.17942 143.734037 
L 206.624802 146.674828 
L 208.106596 148.635356 
L 230.333509 163.339314 
L 231.815303 167.260369 
L 233.297098 168.240633 
L 234.778892 170.201161 
L 237.74248 172.161689 
L 242.187863 172.161689 
L 248.11504 176.082744 
L 249.596834 178.043272 
L 251.078628 179.023536 
L 252.560422 179.023536 
L 255.524011 180.984063 
L 264.414776 180.984063 
L 268.860158 183.924855 
L 270.341953 183.924855 
L 271.823747 185.885383 
L 274.787335 187.84591 
L 276.269129 187.84591 
L 279.232718 189.806438 
L 280.714512 192.74723 
L 282.196306 192.74723 
L 283.6781 195.688021 
L 285.159894 196.668285 
L 288.123483 196.668285 
L 289.605277 199.609077 
L 292.568865 201.569604 
L 294.05066 204.510396 
L 298.496042 207.451187 
L 299.977836 207.451187 
L 301.459631 209.411715 
L 311.83219 216.273562 
L 311.83219 216.273562 
" clip-path="url(#p6cf84a6825)" style="fill: none; stroke: #39c5bb; stroke-width: 1.8; stroke-linecap: square"/>
   </g>
   <g id="line2d_33">
    <path d="M 55.481794 18.260264 
L 56.963588 18.260264 
L 59.927177 20.220792 
L 65.854354 20.220792 
L 67.336148 21.201055 
L 70.299736 21.201055 
L 71.78153 28.062902 
L 73.263325 33.944485 
L 74.745119 33.944485 
L 79.190501 36.885277 
L 80.672296 36.885277 
L 82.15409 37.865541 
L 88.081266 37.865541 
L 89.563061 38.845805 
L 91.044855 38.845805 
L 92.526649 39.826069 
L 95.490237 39.826069 
L 98.453826 41.786596 
L 99.93562 41.786596 
L 101.417414 42.76686 
L 102.899208 42.76686 
L 105.862797 44.727388 
L 107.344591 44.727388 
L 108.826385 45.707652 
L 110.308179 45.707652 
L 111.789974 46.687916 
L 113.271768 46.687916 
L 116.235356 48.648443 
L 120.680739 48.648443 
L 122.162533 49.628707 
L 123.644327 49.628707 
L 129.571504 53.549763 
L 131.053298 56.490554 
L 132.535092 60.411609 
L 134.016887 69.233984 
L 135.498681 73.15504 
L 138.462269 75.115567 
L 139.944063 75.115567 
L 141.425858 79.036623 
L 144.389446 80.99715 
L 145.87124 87.858997 
L 148.834828 89.819525 
L 150.316623 89.819525 
L 151.798417 91.780053 
L 153.280211 95.701108 
L 154.762005 100.602427 
L 156.243799 100.602427 
L 157.725594 106.484011 
L 159.207388 107.464274 
L 160.689182 109.424802 
L 162.170976 112.365594 
L 163.65277 117.266913 
L 168.098153 117.266913 
L 169.579947 119.227441 
L 171.061741 119.227441 
L 172.543536 124.12876 
L 174.02533 128.049815 
L 175.507124 129.030079 
L 176.988918 130.990607 
L 178.470712 130.990607 
L 185.879683 135.891926 
L 187.361478 135.891926 
L 196.252243 141.773509 
L 197.734037 143.734037 
L 202.17942 146.674828 
L 203.661214 146.674828 
L 205.143008 147.655092 
L 208.106596 147.655092 
L 225.888127 159.418259 
L 227.369921 163.339314 
L 230.333509 165.299842 
L 231.815303 167.260369 
L 236.260686 170.201161 
L 237.74248 172.161689 
L 239.224274 176.082744 
L 242.187863 178.043272 
L 243.669657 178.043272 
L 252.560422 183.924855 
L 255.524011 183.924855 
L 257.005805 184.905119 
L 264.414776 184.905119 
L 267.378364 186.865646 
L 268.860158 188.826174 
L 270.341953 189.806438 
L 273.305541 189.806438 
L 277.750923 192.74723 
L 279.232718 195.688021 
L 280.714512 196.668285 
L 283.6781 196.668285 
L 294.05066 203.530132 
L 297.014248 203.530132 
L 298.496042 205.49066 
L 304.423219 209.411715 
L 305.905013 209.411715 
L 307.386807 210.391979 
L 308.868602 210.391979 
L 310.350396 211.372243 
L 310.350396 211.372243 
" clip-path="url(#p6cf84a6825)" style="fill: none; stroke: #2a9d8f; stroke-width: 1.8; stroke-linecap: square"/>
   </g>
   <g id="line2d_34">
    <path d="M 55.481794 18.260264 
L 59.927177 18.260264 
L 61.408971 19.240528 
L 65.854354 19.240528 
L 67.336148 20.220792 
L 70.299736 20.220792 
L 71.78153 21.201055 
L 73.263325 21.201055 
L 74.745119 22.181319 
L 76.226913 22.181319 
L 77.708707 23.161583 
L 79.190501 29.043166 
L 82.15409 29.043166 
L 83.635884 30.02343 
L 85.117678 30.02343 
L 86.599472 31.983958 
L 88.081266 31.983958 
L 89.563061 32.964222 
L 91.044855 32.964222 
L 92.526649 33.944485 
L 95.490237 33.944485 
L 98.453826 35.905013 
L 99.93562 35.905013 
L 101.417414 36.885277 
L 102.899208 36.885277 
L 105.862797 38.845805 
L 107.344591 38.845805 
L 108.826385 39.826069 
L 110.308179 39.826069 
L 111.789974 40.806332 
L 116.235356 40.806332 
L 117.71715 41.786596 
L 120.680739 41.786596 
L 123.644327 43.747124 
L 125.126121 50.608971 
L 129.571504 53.549763 
L 131.053298 56.490554 
L 132.535092 60.411609 
L 134.016887 69.233984 
L 135.498681 73.15504 
L 136.980475 74.135303 
L 138.462269 74.135303 
L 139.944063 75.115567 
L 141.425858 79.036623 
L 142.907652 87.858997 
L 145.87124 87.858997 
L 148.834828 89.819525 
L 150.316623 92.760317 
L 151.798417 94.720844 
L 153.280211 98.6419 
L 154.762005 103.543219 
L 156.243799 104.523483 
L 157.725594 104.523483 
L 159.207388 105.503747 
L 160.689182 107.464274 
L 162.170976 110.405066 
L 163.65277 115.306385 
L 168.098153 115.306385 
L 171.061741 119.227441 
L 172.543536 120.207704 
L 174.02533 120.207704 
L 175.507124 125.109024 
L 176.988918 129.030079 
L 178.470712 130.010343 
L 179.952507 131.970871 
L 181.434301 132.951135 
L 182.916095 135.891926 
L 184.397889 140.793245 
L 188.843272 143.734037 
L 190.325066 146.674828 
L 193.288654 148.635356 
L 194.770449 148.635356 
L 200.697625 152.556412 
L 202.17942 154.516939 
L 203.661214 155.497203 
L 205.143008 158.437995 
L 206.624802 160.398522 
L 208.106596 160.398522 
L 209.588391 164.319578 
L 212.551979 164.319578 
L 227.369921 174.122216 
L 228.851715 176.082744 
L 230.333509 180.003799 
L 231.815303 180.003799 
L 233.297098 180.984063 
L 234.778892 180.984063 
L 243.669657 186.865646 
L 245.151451 186.865646 
L 246.633245 187.84591 
L 257.005805 187.84591 
L 259.969393 189.806438 
L 261.451187 191.766966 
L 264.414776 193.727493 
L 265.89657 193.727493 
L 274.787335 199.609077 
L 276.269129 202.549868 
L 277.750923 203.530132 
L 279.232718 203.530132 
L 280.714512 204.510396 
L 282.196306 204.510396 
L 288.123483 208.431451 
L 291.087071 208.431451 
L 298.496042 213.33277 
L 299.977836 213.33277 
L 301.459631 214.313034 
L 302.941425 214.313034 
L 302.941425 214.313034 
" clip-path="url(#p6cf84a6825)" style="fill: none; stroke: #e76f51; stroke-width: 1.8; stroke-linecap: square"/>
   </g>
   <g id="patch_3">
    <path d="M 54 388.8 
L 54 17.28 
" style="fill: none; stroke: #000000; stroke-width: 0.8; stroke-linejoin: miter; stroke-linecap: square"/>
   </g>
   <g id="patch_4">
    <path d="M 334.8 388.8 
L 334.8 17.28 
" style="fill: none; stroke: #000000; stroke-width: 0.8; stroke-linejoin: miter; stroke-linecap: square"/>
   </g>
   <g id="patch_5">
    <path d="M 54 388.8 
L 334.8 388.8 
" style="fill: none; stroke: #000000; stroke-width: 0.8; stroke-linejoin: miter; stroke-linecap: square"/>
   </g>
   <g id="patch_6">
    <path d="M 54 17.28 
L 334.8 17.28 
" style="fill: none; stroke: #000000; stroke-width: 0.8; stroke-linejoin: miter; stroke-linecap: square"/>
   </g>
   <g id="legend_1">
    <g id="patch_7">
     <path d="M 241.51125 132.5625 
L 326.4 132.5625 
Q 328.8 132.5625 328.8 130.1625 
L 328.8 25.68 
Q 328.8 23.28 326.4 23.28 
L 241.51125 23.28 
Q 239.11125 23.28 239.11125 25.68 
L 239.11125 130.1625 
Q 239.11125 132.5625 241.51125 132.5625 
z
" style="fill: #ffffff; opacity: 0.8; stroke: #cccccc; stroke-linejoin: miter"/>
    </g>
    <g id="line2d_35">
     <path d="M 243.91125 32.998125 
L 255.91125 32.998125 
L 267.91125 32.998125 
" style="fill: none; stroke: #d80000; stroke-width: 1.8; stroke-linecap: square"/>
    </g>
    <g id="text_17">
     <!-- None -->
     <g transform="translate(277.51125 37.198125) scale(0.12 -0.12)">
      <defs>
       <path id="DejaVuSans-4e" d="M 628 4666 
L 1478 4666 
L 3547 763 
L 3547 4666 
L 4159 4666 
L 4159 0 
L 3309 0 
L 1241 3903 
L 1241 0 
L 628 0 
L 628 4666 
z
" transform="scale(0.015625)"/>
       <path id="DejaVuSans-6e" d="M 3513 2113 
L 3513 0 
L 2938 0 
L 2938 2094 
Q 2938 2591 2744 2837 
Q 2550 3084 2163 3084 
Q 1697 3084 1428 2787 
Q 1159 2491 1159 1978 
L 1159 0 
L 581 0 
L 581 3500 
L 1159 3500 
L 1159 2956 
Q 1366 3272 1645 3428 
Q 1925 3584 2291 3584 
Q 2894 3584 3203 3211 
Q 3513 2838 3513 2113 
z
" transform="scale(0.015625)"/>
      </defs>
      <use xlink:href="#DejaVuSans-4e"/>
      <use xlink:href="#DejaVuSans-6f" x="74.804688"/>
      <use xlink:href="#DejaVuSans-6e" x="135.986328"/>
      <use xlink:href="#DejaVuSans-65" x="199.365234"/>
     </g>
    </g>
    <g id="line2d_36">
     <path d="M 243.91125 50.611875 
L 255.91125 50.611875 
L 267.91125 50.611875 
" style="fill: none; stroke: #264653; stroke-width: 1.8; stroke-linecap: square"/>
    </g>
    <g id="text_18">
     <!-- HD -->
     <g transform="translate(277.51125 54.811875) scale(0.12 -0.12)">
      <defs>
       <path id="DejaVuSans-48" d="M 628 4666 
L 1259 4666 
L 1259 2753 
L 3553 2753 
L 3553 4666 
L 4184 4666 
L 4184 0 
L 3553 0 
L 3553 2222 
L 1259 2222 
L 1259 0 
L 628 0 
L 628 4666 
z
" transform="scale(0.015625)"/>
       <path id="DejaVuSans-44" d="M 1259 4147 
L 1259 519 
L 2022 519 
Q 2988 519 3436 956 
Q 3884 1394 3884 2338 
Q 3884 3275 3436 3711 
Q 2988 4147 2022 4147 
L 1259 4147 
z
M 628 4666 
L 1925 4666 
Q 3281 4666 3915 4102 
Q 4550 3538 4550 2338 
Q 4550 1131 3912 565 
Q 3275 0 1925 0 
L 628 0 
L 628 4666 
z
" transform="scale(0.015625)"/>
      </defs>
      <use xlink:href="#DejaVuSans-48"/>
      <use xlink:href="#DejaVuSans-44" x="75.195312"/>
     </g>
    </g>
    <g id="line2d_37">
     <path d="M 243.91125 68.225625 
L 255.91125 68.225625 
L 267.91125 68.225625 
" style="fill: none; stroke: #ffe211; stroke-width: 1.8; stroke-linecap: square"/>
    </g>
    <g id="text_19">
     <!-- GND -->
     <g transform="translate(277.51125 72.425625) scale(0.12 -0.12)">
      <use xlink:href="#DejaVuSans-47"/>
      <use xlink:href="#DejaVuSans-4e" x="77.490234"/>
      <use xlink:href="#DejaVuSans-44" x="152.294922"/>
     </g>
    </g>
    <g id="line2d_38">
     <path d="M 243.91125 85.839375 
L 255.91125 85.839375 
L 267.91125 85.839375 
" style="fill: none; stroke: #39c5bb; stroke-width: 1.8; stroke-linecap: square"/>
    </g>
    <g id="text_20">
     <!-- BT -->
     <g transform="translate(277.51125 90.039375) scale(0.12 -0.12)">
      <defs>
       <path id="DejaVuSans-42" d="M 1259 2228 
L 1259 519 
L 2272 519 
Q 2781 519 3026 730 
Q 3272 941 3272 1375 
Q 3272 1813 3026 2020 
Q 2781 2228 2272 2228 
L 1259 2228 
z
M 1259 4147 
L 1259 2741 
L 2194 2741 
Q 2656 2741 2882 2914 
Q 3109 3088 3109 3444 
Q 3109 3797 2882 3972 
Q 2656 4147 2194 4147 
L 1259 4147 
z
M 628 4666 
L 2241 4666 
Q 2963 4666 3353 4366 
Q 3744 4066 3744 3513 
Q 3744 3084 3544 2831 
Q 3344 2578 2956 2516 
Q 3422 2416 3680 2098 
Q 3938 1781 3938 1306 
Q 3938 681 3513 340 
Q 3088 0 2303 0 
L 628 0 
L 628 4666 
z
" transform="scale(0.015625)"/>
       <path id="DejaVuSans-54" d="M -19 4666 
L 3928 4666 
L 3928 4134 
L 2272 4134 
L 2272 0 
L 1638 0 
L 1638 4134 
L -19 4134 
L -19 4666 
z
" transform="scale(0.015625)"/>
      </defs>
      <use xlink:href="#DejaVuSans-42"/>
      <use xlink:href="#DejaVuSans-54" x="68.603516"/>
     </g>
    </g>
    <g id="line2d_39">
     <path d="M 243.91125 103.453125 
L 255.91125 103.453125 
L 267.91125 103.453125 
" style="fill: none; stroke: #2a9d8f; stroke-width: 1.8; stroke-linecap: square"/>
    </g>
    <g id="text_21">
     <!-- DSTS-K -->
     <g transform="translate(277.51125 107.653125) scale(0.12 -0.12)">
      <defs>
       <path id="DejaVuSans-2d" d="M 313 2009 
L 1997 2009 
L 1997 1497 
L 313 1497 
L 313 2009 
z
" transform="scale(0.015625)"/>
       <path id="DejaVuSans-4b" d="M 628 4666 
L 1259 4666 
L 1259 2694 
L 3353 4666 
L 4166 4666 
L 1850 2491 
L 4331 0 
L 3500 0 
L 1259 2247 
L 1259 0 
L 628 0 
L 628 4666 
z
" transform="scale(0.015625)"/>
      </defs>
      <use xlink:href="#DejaVuSans-44"/>
      <use xlink:href="#DejaVuSans-53" x="77.001953"/>
      <use xlink:href="#DejaVuSans-54" x="140.478516"/>
      <use xlink:href="#DejaVuSans-53" x="201.5625"/>
      <use xlink:href="#DejaVuSans-2d" x="265.039062"/>
      <use xlink:href="#DejaVuSans-4b" x="301.123047"/>
     </g>
    </g>
    <g id="line2d_40">
     <path d="M 243.91125 121.066875 
L 255.91125 121.066875 
L 267.91125 121.066875 
" style="fill: none; stroke: #e76f51; stroke-width: 1.8; stroke-linecap: square"/>
    </g>
    <g id="text_22">
     <!-- DSTS-M -->
     <g transform="translate(277.51125 125.266875) scale(0.12 -0.12)">
      <defs>
       <path id="DejaVuSans-4d" d="M 628 4666 
L 1569 4666 
L 2759 1491 
L 3956 4666 
L 4897 4666 
L 4897 0 
L 4281 0 
L 4281 4097 
L 3078 897 
L 2444 897 
L 1241 4097 
L 1241 0 
L 628 0 
L 628 4666 
z
" transform="scale(0.015625)"/>
      </defs>
      <use xlink:href="#DejaVuSans-44"/>
      <use xlink:href="#DejaVuSans-53" x="77.001953"/>
      <use xlink:href="#DejaVuSans-54" x="140.478516"/>
      <use xlink:href="#DejaVuSans-53" x="201.5625"/>
      <use xlink:href="#DejaVuSans-2d" x="265.039062"/>
      <use xlink:href="#DejaVuSans-4d" x="301.123047"/>
     </g>
    </g>
   </g>
  </g>
 </g>
 <defs>
  <clipPath id="p6cf84a6825">
   <rect x="54" y="17.28" width="280.8" height="371.52"/>
  </clipPath>
 </defs>
</svg>
