<?xml version="1.0" encoding="utf-8" standalone="no"?>
<!DOCTYPE svg PUBLIC "-//W3C//DTD SVG 1.1//EN"
  "http://www.w3.org/Graphics/SVG/1.1/DTD/svg11.dtd">
<svg xmlns:xlink="http://www.w3.org/1999/xlink" width="360pt" height="432pt" viewBox="0 0 360 432" xmlns="http://www.w3.org/2000/svg" version="1.1">
 <metadata>
  <rdf:RDF xmlns:dc="http://purl.org/dc/elements/1.1/" xmlns:cc="http://creativecommons.org/ns#" xmlns:rdf="http://www.w3.org/1999/02/22-rdf-syntax-ns#">
   <cc:Work>
    <dc:type rdf:resource="http://purl.org/dc/dcmitype/StillImage"/>
    <dc:date>2026-04-01T11:57:25.318765</dc:date>
    <dc:format>image/svg+xml</dc:format>
    <dc:creator>
     <cc:Agent>
      <dc:title>Matplotlib v3.6.3, https://matplotlib.org/</dc:title>
     </cc:Agent>
    </dc:creator>
   </cc:Work>
  </rdf:RDF>
 </metadata>
 <defs>
  <style type="text/css">*{stroke-linejoin: round; stroke-linecap: butt}</style>
 </defs>
 <g id="figure_1">
  <g id="patch_1">
   <path d="M 0 432 
L 360 432 
L 360 0 
L 0 0 
z
" style="fill: #ffffff"/>
  </g>
  <g id="axes_1">
   <g id="patch_2">
    <path d="M 54 388.8 
L 334.8 388.8 
L 334.8 17.28 
L 54 17.28 
z
" style="fill: #ffffff"/>
   </g>
   <g id="matplotlib.axis_1">
    <g id="xtick_1">
     <g id="line2d_1">
      <path d="M 54 388.8 
L 54 17.28 
" clip-path="url(#p89cb070107)" style="fill: none; stroke: #000000; stroke-opacity: 0.1; stroke-width: 0.7; stroke-linecap: square"/>
     </g>
     <g id="line2d_2">
      <defs>
       <path id="m5eddb13f60" d="M 0 0 
L 0 3.5 
" style="stroke: #000000; stroke-width: 0.8"/>
      </defs>
      <g>
       <use xlink:href="#m5eddb13f60" x="54" y="388.8" style="stroke: #000000; stroke-width: 0.8"/>
      </g>
     </g>
     <g id="text_1">
      <!-- 0.00 -->
      <g transform="translate(39.527344 405.677969) scale(0.13 -0.13)">
       <defs>
        <path id="DejaVuSans-30" d="M 2034 4250 
Q 1547 4250 1301 3770 
Q 1056 3291 1056 2328 
Q 1056 1369 1301 889 
Q 1547 409 2034 409 
Q 2525 409 2770 889 
Q 3016 1369 3016 2328 
Q 3016 3291 2770 3770 
Q 2525 4250 2034 4250 
z
M 2034 4750 
Q 2819 4750 3233 4129 
Q 3647 3509 3647 2328 
Q 3647 1150 3233 529 
Q 2819 -91 2034 -91 
Q 1250 -91 836 529 
Q 422 1150 422 2328 
Q 422 3509 836 4129 
Q 1250 4750 2034 4750 
z
" transform="scale(0.015625)"/>
        <path id="DejaVuSans-2e" d="M 684 794 
L 1344 794 
L 1344 0 
L 684 0 
L 684 794 
z
" transform="scale(0.015625)"/>
       </defs>
       <use xlink:href="#DejaVuSans-30"/>
       <use xlink:href="#DejaVuSans-2e" x="63.623047"/>
       <use xlink:href="#DejaVuSans-30" x="95.410156"/>
       <use xlink:href="#DejaVuSans-30" x="159.033203"/>
      </g>
     </g>
    </g>
    <g id="xtick_2">
     <g id="line2d_3">
      <path d="M 194.4 388.8 
L 194.4 17.28 
" clip-path="url(#p89cb070107)" style="fill: none; stroke: #000000; stroke-opacity: 0.1; stroke-width: 0.7; stroke-linecap: square"/>
     </g>
     <g id="line2d_4">
      <g>
       <use xlink:href="#m5eddb13f60" x="194.4" y="388.8" style="stroke: #000000; stroke-width: 0.8"/>
      </g>
     </g>
     <g id="text_2">
      <!-- 0.25 -->
      <g transform="translate(179.927344 405.677969) scale(0.13 -0.13)">
       <defs>
        <path id="DejaVuSans-32" d="M 1228 531 
L 3431 531 
L 3431 0 
L 469 0 
L 469 531 
Q 828 903 1448 1529 
Q 2069 2156 2228 2338 
Q 2531 2678 2651 2914 
Q 2772 3150 2772 3378 
Q 2772 3750 2511 3984 
Q 2250 4219 1831 4219 
Q 1534 4219 1204 4116 
Q 875 4013 500 3803 
L 500 4441 
Q 881 4594 1212 4672 
Q 1544 4750 1819 4750 
Q 2544 4750 2975 4387 
Q 3406 4025 3406 3419 
Q 3406 3131 3298 2873 
Q 3191 2616 2906 2266 
Q 2828 2175 2409 1742 
Q 1991 1309 1228 531 
z
" transform="scale(0.015625)"/>
        <path id="DejaVuSans-35" d="M 691 4666 
L 3169 4666 
L 3169 4134 
L 1269 4134 
L 1269 2991 
Q 1406 3038 1543 3061 
Q 1681 3084 1819 3084 
Q 2600 3084 3056 2656 
Q 3513 2228 3513 1497 
Q 3513 744 3044 326 
Q 2575 -91 1722 -91 
Q 1428 -91 1123 -41 
Q 819 9 494 109 
L 494 744 
Q 775 591 1075 516 
Q 1375 441 1709 441 
Q 2250 441 2565 725 
Q 2881 1009 2881 1497 
Q 2881 1984 2565 2268 
Q 2250 2553 1709 2553 
Q 1456 2553 1204 2497 
Q 953 2441 691 2322 
L 691 4666 
z
" transform="scale(0.015625)"/>
       </defs>
       <use xlink:href="#DejaVuSans-30"/>
       <use xlink:href="#DejaVuSans-2e" x="63.623047"/>
       <use xlink:href="#DejaVuSans-32" x="95.410156"/>
       <use xlink:href="#DejaVuSans-35" x="159.033203"/>
      </g>
     </g>
    </g>
    <g id="xtick_3">
     <g id="line2d_5">
      <path d="M 334.8 388.8 
L 334.8 17.28 
" clip-path="url(#p89cb070107)" style="fill: none; stroke: #000000; stroke-opacity: 0.1; stroke-width: 0.7; stroke-linecap: square"/>
     </g>
     <g id="line2d_6">
      <g>
       <use xlink:href="#m5eddb13f60" x="334.8" y="388.8" style="stroke: #000000; stroke-width: 0.8"/>
      </g>
     </g>
     <g id="text_3">
      <!-- 0.50 -->
      <g transform="translate(320.327344 405.677969) scale(0.13 -0.13)">
       <use xlink:href="#DejaVuSans-30"/>
       <use xlink:href="#DejaVuSans-2e" x="63.623047"/>
       <use xlink:href="#DejaVuSans-35" x="95.410156"/>
       <use xlink:href="#DejaVuSans-30" x="159.033203"/>
      </g>
     </g>
    </g>
    <g id="text_4">
     <!-- Attack Ratio -->
     <g transform="translate(145.78375 424.539062) scale(0.16 -0.16)">
      <defs>
       <path id="DejaVuSans-41" d="M 2188 4044 
L 1331 1722 
L 3047 1722 
L 2188 4044 
z
M 1831 4666 
L 2547 4666 
L 4325 0 
L 3669 0 
L 3244 1197 
L 1141 1197 
L 716 0 
L 50 0 
L 1831 4666 
z
" transform="scale(0.015625)"/>
       <path id="DejaVuSans-74" d="M 1172 4494 
L 1172 3500 
L 2356 3500 
L 2356 3053 
L 1172 3053 
L 1172 1153 
Q 1172 725 1289 603 
Q 1406 481 1766 481 
L 2356 481 
L 2356 0 
L 1766 0 
Q 1100 0 847 248 
Q 594 497 594 1153 
L 594 3053 
L 172 3053 
L 172 3500 
L 594 3500 
L 594 4494 
L 1172 4494 
z
" transform="scale(0.015625)"/>
       <path id="DejaVuSans-61" d="M 2194 1759 
Q 1497 1759 1228 1600 
Q 959 1441 959 1056 
Q 959 750 1161 570 
Q 1363 391 1709 391 
Q 2188 391 2477 730 
Q 2766 1069 2766 1631 
L 2766 1759 
L 2194 1759 
z
M 3341 1997 
L 3341 0 
L 2766 0 
L 2766 531 
Q 2569 213 2275 61 
Q 1981 -91 1556 -91 
Q 1019 -91 701 211 
Q 384 513 384 1019 
Q 384 1609 779 1909 
Q 1175 2209 1959 2209 
L 2766 2209 
L 2766 2266 
Q 2766 2663 2505 2880 
Q 2244 3097 1772 3097 
Q 1472 3097 1187 3025 
Q 903 2953 641 2809 
L 641 3341 
Q 956 3463 1253 3523 
Q 1550 3584 1831 3584 
Q 2591 3584 2966 3190 
Q 3341 2797 3341 1997 
z
" transform="scale(0.015625)"/>
       <path id="DejaVuSans-63" d="M 3122 3366 
L 3122 2828 
Q 2878 2963 2633 3030 
Q 2388 3097 2138 3097 
Q 1578 3097 1268 2742 
Q 959 2388 959 1747 
Q 959 1106 1268 751 
Q 1578 397 2138 397 
Q 2388 397 2633 464 
Q 2878 531 3122 666 
L 3122 134 
Q 2881 22 2623 -34 
Q 2366 -91 2075 -91 
Q 1284 -91 818 406 
Q 353 903 353 1747 
Q 353 2603 823 3093 
Q 1294 3584 2113 3584 
Q 2378 3584 2631 3529 
Q 2884 3475 3122 3366 
z
" transform="scale(0.015625)"/>
       <path id="DejaVuSans-6b" d="M 581 4863 
L 1159 4863 
L 1159 1991 
L 2875 3500 
L 3609 3500 
L 1753 1863 
L 3688 0 
L 2938 0 
L 1159 1709 
L 1159 0 
L 581 0 
L 581 4863 
z
" transform="scale(0.015625)"/>
       <path id="DejaVuSans-20" transform="scale(0.015625)"/>
       <path id="DejaVuSans-52" d="M 2841 2188 
Q 3044 2119 3236 1894 
Q 3428 1669 3622 1275 
L 4263 0 
L 3584 0 
L 2988 1197 
Q 2756 1666 2539 1819 
Q 2322 1972 1947 1972 
L 1259 1972 
L 1259 0 
L 628 0 
L 628 4666 
L 2053 4666 
Q 2853 4666 3247 4331 
Q 3641 3997 3641 3322 
Q 3641 2881 3436 2590 
Q 3231 2300 2841 2188 
z
M 1259 4147 
L 1259 2491 
L 2053 2491 
Q 2509 2491 2742 2702 
Q 2975 2913 2975 3322 
Q 2975 3731 2742 3939 
Q 2509 4147 2053 4147 
L 1259 4147 
z
" transform="scale(0.015625)"/>
       <path id="DejaVuSans-69" d="M 603 3500 
L 1178 3500 
L 1178 0 
L 603 0 
L 603 3500 
z
M 603 4863 
L 1178 4863 
L 1178 4134 
L 603 4134 
L 603 4863 
z
" transform="scale(0.015625)"/>
       <path id="DejaVuSans-6f" d="M 1959 3097 
Q 1497 3097 1228 2736 
Q 959 2375 959 1747 
Q 959 1119 1226 758 
Q 1494 397 1959 397 
Q 2419 397 2687 759 
Q 2956 1122 2956 1747 
Q 2956 2369 2687 2733 
Q 2419 3097 1959 3097 
z
M 1959 3584 
Q 2709 3584 3137 3096 
Q 3566 2609 3566 1747 
Q 3566 888 3137 398 
Q 2709 -91 1959 -91 
Q 1206 -91 779 398 
Q 353 888 353 1747 
Q 353 2609 779 3096 
Q 1206 3584 1959 3584 
z
" transform="scale(0.015625)"/>
      </defs>
      <use xlink:href="#DejaVuSans-41"/>
      <use xlink:href="#DejaVuSans-74" x="66.658203"/>
      <use xlink:href="#DejaVuSans-74" x="105.867188"/>
      <use xlink:href="#DejaVuSans-61" x="145.076172"/>
      <use xlink:href="#DejaVuSans-63" x="206.355469"/>
      <use xlink:href="#DejaVuSans-6b" x="261.335938"/>
      <use xlink:href="#DejaVuSans-20" x="319.246094"/>
      <use xlink:href="#DejaVuSans-52" x="351.033203"/>
      <use xlink:href="#DejaVuSans-61" x="418.265625"/>
      <use xlink:href="#DejaVuSans-74" x="479.544922"/>
      <use xlink:href="#DejaVuSans-69" x="518.753906"/>
      <use xlink:href="#DejaVuSans-6f" x="546.537109"/>
     </g>
    </g>
   </g>
   <g id="matplotlib.axis_2">
    <g id="ytick_1">
     <g id="line2d_7">
      <path d="M 54 388.8 
L 334.8 388.8 
" clip-path="url(#p89cb070107)" style="fill: none; stroke: #000000; stroke-opacity: 0.1; stroke-width: 0.7; stroke-linecap: square"/>
     </g>
     <g id="line2d_8">
      <defs>
       <path id="md7ea25f18c" d="M 0 0 
L -3.5 0 
" style="stroke: #000000; stroke-width: 0.8"/>
      </defs>
      <g>
       <use xlink:href="#md7ea25f18c" x="54" y="388.8" style="stroke: #000000; stroke-width: 0.8"/>
      </g>
     </g>
     <g id="text_5">
      <!-- 0.0 -->
      <g transform="translate(26.325937 393.738984) scale(0.13 -0.13)">
       <use xlink:href="#DejaVuSans-30"/>
       <use xlink:href="#DejaVuSans-2e" x="63.623047"/>
       <use xlink:href="#DejaVuSans-30" x="95.410156"/>
      </g>
     </g>
    </g>
    <g id="ytick_2">
     <g id="line2d_9">
      <path d="M 54 351.648 
L 334.8 351.648 
" clip-path="url(#p89cb070107)" style="fill: none; stroke: #000000; stroke-opacity: 0.1; stroke-width: 0.7; stroke-linecap: square"/>
     </g>
     <g id="line2d_10">
      <g>
       <use xlink:href="#md7ea25f18c" x="54" y="351.648" style="stroke: #000000; stroke-width: 0.8"/>
      </g>
     </g>
     <g id="text_6">
      <!-- 0.1 -->
      <g transform="translate(26.325937 356.586984) scale(0.13 -0.13)">
       <defs>
        <path id="DejaVuSans-31" d="M 794 531 
L 1825 531 
L 1825 4091 
L 703 3866 
L 703 4441 
L 1819 4666 
L 2450 4666 
L 2450 531 
L 3481 531 
L 3481 0 
L 794 0 
L 794 531 
z
" transform="scale(0.015625)"/>
       </defs>
       <use xlink:href="#DejaVuSans-30"/>
       <use xlink:href="#DejaVuSans-2e" x="63.623047"/>
       <use xlink:href="#DejaVuSans-31" x="95.410156"/>
      </g>
     </g>
    </g>
    <g id="ytick_3">
     <g id="line2d_11">
      <path d="M 54 314.496 
L 334.8 314.496 
" clip-path="url(#p89cb070107)" style="fill: none; stroke: #000000; stroke-opacity: 0.1; stroke-width: 0.7; stroke-linecap: square"/>
     </g>
     <g id="line2d_12">
      <g>
       <use xlink:href="#md7ea25f18c" x="54" y="314.496" style="stroke: #000000; stroke-width: 0.8"/>
      </g>
     </g>
     <g id="text_7">
      <!-- 0.2 -->
      <g transform="translate(26.325937 319.434984) scale(0.13 -0.13)">
       <use xlink:href="#DejaVuSans-30"/>
       <use xlink:href="#DejaVuSans-2e" x="63.623047"/>
       <use xlink:href="#DejaVuSans-32" x="95.410156"/>
      </g>
     </g>
    </g>
    <g id="ytick_4">
     <g id="line2d_13">
      <path d="M 54 277.344 
L 334.8 277.344 
" clip-path="url(#p89cb070107)" style="fill: none; stroke: #000000; stroke-opacity: 0.1; stroke-width: 0.7; stroke-linecap: square"/>
     </g>
     <g id="line2d_14">
      <g>
       <use xlink:href="#md7ea25f18c" x="54" y="277.344" style="stroke: #000000; stroke-width: 0.8"/>
      </g>
     </g>
     <g id="text_8">
      <!-- 0.3 -->
      <g transform="translate(26.325937 282.282984) scale(0.13 -0.13)">
       <defs>
        <path id="DejaVuSans-33" d="M 2597 2516 
Q 3050 2419 3304 2112 
Q 3559 1806 3559 1356 
Q 3559 666 3084 287 
Q 2609 -91 1734 -91 
Q 1441 -91 1130 -33 
Q 819 25 488 141 
L 488 750 
Q 750 597 1062 519 
Q 1375 441 1716 441 
Q 2309 441 2620 675 
Q 2931 909 2931 1356 
Q 2931 1769 2642 2001 
Q 2353 2234 1838 2234 
L 1294 2234 
L 1294 2753 
L 1863 2753 
Q 2328 2753 2575 2939 
Q 2822 3125 2822 3475 
Q 2822 3834 2567 4026 
Q 2313 4219 1838 4219 
Q 1578 4219 1281 4162 
Q 984 4106 628 3988 
L 628 4550 
Q 988 4650 1302 4700 
Q 1616 4750 1894 4750 
Q 2613 4750 3031 4423 
Q 3450 4097 3450 3541 
Q 3450 3153 3228 2886 
Q 3006 2619 2597 2516 
z
" transform="scale(0.015625)"/>
       </defs>
       <use xlink:href="#DejaVuSans-30"/>
       <use xlink:href="#DejaVuSans-2e" x="63.623047"/>
       <use xlink:href="#DejaVuSans-33" x="95.410156"/>
      </g>
     </g>
    </g>
    <g id="ytick_5">
     <g id="line2d_15">
      <path d="M 54 240.192 
L 334.8 240.192 
" clip-path="url(#p89cb070107)" style="fill: none; stroke: #000000; stroke-opacity: 0.1; stroke-width: 0.7; stroke-linecap: square"/>
     </g>
     <g id="line2d_16">
      <g>
       <use xlink:href="#md7ea25f18c" x="54" y="240.192" style="stroke: #000000; stroke-width: 0.8"/>
      </g>
     </g>
     <g id="text_9">
      <!-- 0.4 -->
      <g transform="translate(26.325937 245.130984) scale(0.13 -0.13)">
       <defs>
        <path id="DejaVuSans-34" d="M 2419 4116 
L 825 1625 
L 2419 1625 
L 2419 4116 
z
M 2253 4666 
L 3047 4666 
L 3047 1625 
L 3713 1625 
L 3713 1100 
L 3047 1100 
L 3047 0 
L 2419 0 
L 2419 1100 
L 313 1100 
L 313 1709 
L 2253 4666 
z
" transform="scale(0.015625)"/>
       </defs>
       <use xlink:href="#DejaVuSans-30"/>
       <use xlink:href="#DejaVuSans-2e" x="63.623047"/>
       <use xlink:href="#DejaVuSans-34" x="95.410156"/>
      </g>
     </g>
    </g>
    <g id="ytick_6">
     <g id="line2d_17">
      <path d="M 54 203.04 
L 334.8 203.04 
" clip-path="url(#p89cb070107)" style="fill: none; stroke: #000000; stroke-opacity: 0.1; stroke-width: 0.7; stroke-linecap: square"/>
     </g>
     <g id="line2d_18">
      <g>
       <use xlink:href="#md7ea25f18c" x="54" y="203.04" style="stroke: #000000; stroke-width: 0.8"/>
      </g>
     </g>
     <g id="text_10">
      <!-- 0.5 -->
      <g transform="translate(26.325937 207.978984) scale(0.13 -0.13)">
       <use xlink:href="#DejaVuSans-30"/>
       <use xlink:href="#DejaVuSans-2e" x="63.623047"/>
       <use xlink:href="#DejaVuSans-35" x="95.410156"/>
      </g>
     </g>
    </g>
    <g id="ytick_7">
     <g id="line2d_19">
      <path d="M 54 165.888 
L 334.8 165.888 
" clip-path="url(#p89cb070107)" style="fill: none; stroke: #000000; stroke-opacity: 0.1; stroke-width: 0.7; stroke-linecap: square"/>
     </g>
     <g id="line2d_20">
      <g>
       <use xlink:href="#md7ea25f18c" x="54" y="165.888" style="stroke: #000000; stroke-width: 0.8"/>
      </g>
     </g>
     <g id="text_11">
      <!-- 0.6 -->
      <g transform="translate(26.325937 170.826984) scale(0.13 -0.13)">
       <defs>
        <path id="DejaVuSans-36" d="M 2113 2584 
Q 1688 2584 1439 2293 
Q 1191 2003 1191 1497 
Q 1191 994 1439 701 
Q 1688 409 2113 409 
Q 2538 409 2786 701 
Q 3034 994 3034 1497 
Q 3034 2003 2786 2293 
Q 2538 2584 2113 2584 
z
M 3366 4563 
L 3366 3988 
Q 3128 4100 2886 4159 
Q 2644 4219 2406 4219 
Q 1781 4219 1451 3797 
Q 1122 3375 1075 2522 
Q 1259 2794 1537 2939 
Q 1816 3084 2150 3084 
Q 2853 3084 3261 2657 
Q 3669 2231 3669 1497 
Q 3669 778 3244 343 
Q 2819 -91 2113 -91 
Q 1303 -91 875 529 
Q 447 1150 447 2328 
Q 447 3434 972 4092 
Q 1497 4750 2381 4750 
Q 2619 4750 2861 4703 
Q 3103 4656 3366 4563 
z
" transform="scale(0.015625)"/>
       </defs>
       <use xlink:href="#DejaVuSans-30"/>
       <use xlink:href="#DejaVuSans-2e" x="63.623047"/>
       <use xlink:href="#DejaVuSans-36" x="95.410156"/>
      </g>
     </g>
    </g>
    <g id="ytick_8">
     <g id="line2d_21">
      <path d="M 54 128.736 
L 334.8 128.736 
" clip-path="url(#p89cb070107)" style="fill: none; stroke: #000000; stroke-opacity: 0.1; stroke-width: 0.7; stroke-linecap: square"/>
     </g>
     <g id="line2d_22">
      <g>
       <use xlink:href="#md7ea25f18c" x="54" y="128.736" style="stroke: #000000; stroke-width: 0.8"/>
      </g>
     </g>
     <g id="text_12">
      <!-- 0.7 -->
      <g transform="translate(26.325937 133.674984) scale(0.13 -0.13)">
       <defs>
        <path id="DejaVuSans-37" d="M 525 4666 
L 3525 4666 
L 3525 4397 
L 1831 0 
L 1172 0 
L 2766 4134 
L 525 4134 
L 525 4666 
z
" transform="scale(0.015625)"/>
       </defs>
       <use xlink:href="#DejaVuSans-30"/>
       <use xlink:href="#DejaVuSans-2e" x="63.623047"/>
       <use xlink:href="#DejaVuSans-37" x="95.410156"/>
      </g>
     </g>
    </g>
    <g id="ytick_9">
     <g id="line2d_23">
      <path d="M 54 91.584 
L 334.8 91.584 
" clip-path="url(#p89cb070107)" style="fill: none; stroke: #000000; stroke-opacity: 0.1; stroke-width: 0.7; stroke-linecap: square"/>
     </g>
     <g id="line2d_24">
      <g>
       <use xlink:href="#md7ea25f18c" x="54" y="91.584" style="stroke: #000000; stroke-width: 0.8"/>
      </g>
     </g>
     <g id="text_13">
      <!-- 0.8 -->
      <g transform="translate(26.325937 96.522984) scale(0.13 -0.13)">
       <defs>
        <path id="DejaVuSans-38" d="M 2034 2216 
Q 1584 2216 1326 1975 
Q 1069 1734 1069 1313 
Q 1069 891 1326 650 
Q 1584 409 2034 409 
Q 2484 409 2743 651 
Q 3003 894 3003 1313 
Q 3003 1734 2745 1975 
Q 2488 2216 2034 2216 
z
M 1403 2484 
Q 997 2584 770 2862 
Q 544 3141 544 3541 
Q 544 4100 942 4425 
Q 1341 4750 2034 4750 
Q 2731 4750 3128 4425 
Q 3525 4100 3525 3541 
Q 3525 3141 3298 2862 
Q 3072 2584 2669 2484 
Q 3125 2378 3379 2068 
Q 3634 1759 3634 1313 
Q 3634 634 3220 271 
Q 2806 -91 2034 -91 
Q 1263 -91 848 271 
Q 434 634 434 1313 
Q 434 1759 690 2068 
Q 947 2378 1403 2484 
z
M 1172 3481 
Q 1172 3119 1398 2916 
Q 1625 2713 2034 2713 
Q 2441 2713 2670 2916 
Q 2900 3119 2900 3481 
Q 2900 3844 2670 4047 
Q 2441 4250 2034 4250 
Q 1625 4250 1398 4047 
Q 1172 3844 1172 3481 
z
" transform="scale(0.015625)"/>
       </defs>
       <use xlink:href="#DejaVuSans-30"/>
       <use xlink:href="#DejaVuSans-2e" x="63.623047"/>
       <use xlink:href="#DejaVuSans-38" x="95.410156"/>
      </g>
     </g>
    </g>
    <g id="ytick_10">
     <g id="line2d_25">
      <path d="M 54 54.432 
L 334.8 54.432 
" clip-path="url(#p89cb070107)" style="fill: none; stroke: #000000; stroke-opacity: 0.1; stroke-width: 0.7; stroke-linecap: square"/>
     </g>
     <g id="line2d_26">
      <g>
       <use xlink:href="#md7ea25f18c" x="54" y="54.432" style="stroke: #000000; stroke-width: 0.8"/>
      </g>
     </g>
     <g id="text_14">
      <!-- 0.9 -->
      <g transform="translate(26.325937 59.370984) scale(0.13 -0.13)">
       <defs>
        <path id="DejaVuSans-39" d="M 703 97 
L 703 672 
Q 941 559 1184 500 
Q 1428 441 1663 441 
Q 2288 441 2617 861 
Q 2947 1281 2994 2138 
Q 2813 1869 2534 1725 
Q 2256 1581 1919 1581 
Q 1219 1581 811 2004 
Q 403 2428 403 3163 
Q 403 3881 828 4315 
Q 1253 4750 1959 4750 
Q 2769 4750 3195 4129 
Q 3622 3509 3622 2328 
Q 3622 1225 3098 567 
Q 2575 -91 1691 -91 
Q 1453 -91 1209 -44 
Q 966 3 703 97 
z
M 1959 2075 
Q 2384 2075 2632 2365 
Q 2881 2656 2881 3163 
Q 2881 3666 2632 3958 
Q 2384 4250 1959 4250 
Q 1534 4250 1286 3958 
Q 1038 3666 1038 3163 
Q 1038 2656 1286 2365 
Q 1534 2075 1959 2075 
z
" transform="scale(0.015625)"/>
       </defs>
       <use xlink:href="#DejaVuSans-30"/>
       <use xlink:href="#DejaVuSans-2e" x="63.623047"/>
       <use xlink:href="#DejaVuSans-39" x="95.410156"/>
      </g>
     </g>
    </g>
    <g id="ytick_11">
     <g id="line2d_27">
      <path d="M 54 17.28 
L 334.8 17.28 
" clip-path="url(#p89cb070107)" style="fill: none; stroke: #000000; stroke-opacity: 0.1; stroke-width: 0.7; stroke-linecap: square"/>
     </g>
     <g id="line2d_28">
      <g>
       <use xlink:href="#md7ea25f18c" x="54" y="17.28" style="stroke: #000000; stroke-width: 0.8"/>
      </g>
     </g>
     <g id="text_15">
      <!-- 1.0 -->
      <g transform="translate(26.325937 22.218984) scale(0.13 -0.13)">
       <use xlink:href="#DejaVuSans-31"/>
       <use xlink:href="#DejaVuSans-2e" x="63.623047"/>
       <use xlink:href="#DejaVuSans-30" x="95.410156"/>
      </g>
     </g>
    </g>
    <g id="text_16">
     <!-- GCC Size -->
     <g transform="translate(18.998437 239.37625) rotate(-90) scale(0.16 -0.16)">
      <defs>
       <path id="DejaVuSans-47" d="M 3809 666 
L 3809 1919 
L 2778 1919 
L 2778 2438 
L 4434 2438 
L 4434 434 
Q 4069 175 3628 42 
Q 3188 -91 2688 -91 
Q 1594 -91 976 548 
Q 359 1188 359 2328 
Q 359 3472 976 4111 
Q 1594 4750 2688 4750 
Q 3144 4750 3555 4637 
Q 3966 4525 4313 4306 
L 4313 3634 
Q 3963 3931 3569 4081 
Q 3175 4231 2741 4231 
Q 1884 4231 1454 3753 
Q 1025 3275 1025 2328 
Q 1025 1384 1454 906 
Q 1884 428 2741 428 
Q 3075 428 3337 486 
Q 3600 544 3809 666 
z
" transform="scale(0.015625)"/>
       <path id="DejaVuSans-43" d="M 4122 4306 
L 4122 3641 
Q 3803 3938 3442 4084 
Q 3081 4231 2675 4231 
Q 1875 4231 1450 3742 
Q 1025 3253 1025 2328 
Q 1025 1406 1450 917 
Q 1875 428 2675 428 
Q 3081 428 3442 575 
Q 3803 722 4122 1019 
L 4122 359 
Q 3791 134 3420 21 
Q 3050 -91 2638 -91 
Q 1578 -91 968 557 
Q 359 1206 359 2328 
Q 359 3453 968 4101 
Q 1578 4750 2638 4750 
Q 3056 4750 3426 4639 
Q 3797 4528 4122 4306 
z
" transform="scale(0.015625)"/>
       <path id="DejaVuSans-53" d="M 3425 4513 
L 3425 3897 
Q 3066 4069 2747 4153 
Q 2428 4238 2131 4238 
Q 1616 4238 1336 4038 
Q 1056 3838 1056 3469 
Q 1056 3159 1242 3001 
Q 1428 2844 1947 2747 
L 2328 2669 
Q 3034 2534 3370 2195 
Q 3706 1856 3706 1288 
Q 3706 609 3251 259 
Q 2797 -91 1919 -91 
Q 1588 -91 1214 -16 
Q 841 59 441 206 
L 441 856 
Q 825 641 1194 531 
Q 1563 422 1919 422 
Q 2459 422 2753 634 
Q 3047 847 3047 1241 
Q 3047 1584 2836 1778 
Q 2625 1972 2144 2069 
L 1759 2144 
Q 1053 2284 737 2584 
Q 422 2884 422 3419 
Q 422 4038 858 4394 
Q 1294 4750 2059 4750 
Q 2388 4750 2728 4690 
Q 3069 4631 3425 4513 
z
" transform="scale(0.015625)"/>
       <path id="DejaVuSans-7a" d="M 353 3500 
L 3084 3500 
L 3084 2975 
L 922 459 
L 3084 459 
L 3084 0 
L 275 0 
L 275 525 
L 2438 3041 
L 353 3041 
L 353 3500 
z
" transform="scale(0.015625)"/>
       <path id="DejaVuSans-65" d="M 3597 1894 
L 3597 1613 
L 953 1613 
Q 991 1019 1311 708 
Q 1631 397 2203 397 
Q 2534 397 2845 478 
Q 3156 559 3463 722 
L 3463 178 
Q 3153 47 2828 -22 
Q 2503 -91 2169 -91 
Q 1331 -91 842 396 
Q 353 884 353 1716 
Q 353 2575 817 3079 
Q 1281 3584 2069 3584 
Q 2775 3584 3186 3129 
Q 3597 2675 3597 1894 
z
M 3022 2063 
Q 3016 2534 2758 2815 
Q 2500 3097 2075 3097 
Q 1594 3097 1305 2825 
Q 1016 2553 972 2059 
L 3022 2063 
z
" transform="scale(0.015625)"/>
      </defs>
      <use xlink:href="#DejaVuSans-47"/>
      <use xlink:href="#DejaVuSans-43" x="77.490234"/>
      <use xlink:href="#DejaVuSans-43" x="147.314453"/>
      <use xlink:href="#DejaVuSans-20" x="217.138672"/>
      <use xlink:href="#DejaVuSans-53" x="248.925781"/>
      <use xlink:href="#DejaVuSans-69" x="312.402344"/>
      <use xlink:href="#DejaVuSans-7a" x="340.185547"/>
      <use xlink:href="#DejaVuSans-65" x="392.675781"/>
     </g>
    </g>
   </g>
   <g id="line2d_29">
    <path d="M 54.052584 17.38436 
L 54.210337 17.871371 
L 54.36809 20.202067 
L 54.73618 21.419596 
L 54.893933 23.158921 
L 55.209438 23.924225 
L 55.262022 26.602787 
L 55.419775 36.621303 
L 55.787865 40.830472 
L 55.945618 42.674157 
L 56.155955 42.952449 
L 56.208539 42.987236 
L 56.629213 44.622202 
L 56.786966 87.583551 
L 56.944719 88.488 
L 57.365393 89.496809 
L 57.417978 89.531596 
L 57.57573 90.053393 
L 57.733483 90.192539 
L 57.891236 92.036225 
L 58.048989 94.78436 
L 58.101573 94.819146 
L 58.206742 96.28018 
L 58.364494 98.402157 
L 58.417079 98.436944 
L 58.574831 99.132674 
L 58.627416 99.167461 
L 59.100674 100.419775 
L 59.153258 100.454562 
L 59.311011 100.732854 
L 59.363596 100.76764 
L 59.626517 102.019955 
L 59.836854 102.263461 
L 59.889438 102.333034 
L 60.047191 102.993978 
L 60.15236 103.27227 
L 60.362697 104.281079 
L 60.467865 104.350652 
L 60.625618 105.255101 
L 60.678202 105.324674 
L 60.941124 106.403056 
L 61.256629 107.098787 
L 61.414382 108.177169 
L 61.519551 108.281528 
L 61.835056 110.85573 
L 61.940225 110.925303 
L 62.308315 113.464719 
L 62.360899 113.499506 
L 62.518652 114.264809 
L 62.676404 114.508315 
L 62.781573 114.577888 
L 62.886742 115.517124 
L 63.307416 118.334831 
L 63.412584 118.613124 
L 63.570337 119.935011 
L 63.833258 120.14373 
L 64.043596 121.361258 
L 64.201348 121.569978 
L 64.411685 122.822292 
L 64.779775 123.587596 
L 64.990112 125.500854 
L 65.147865 163.105079 
L 65.200449 163.139865 
L 65.673708 165.053124 
L 65.884045 165.435775 
L 66.094382 165.888 
L 66.252135 190.795146 
L 66.357303 190.864719 
L 66.462472 191.490876 
L 66.620225 192.499685 
L 66.830562 192.986697 
L 66.883146 193.021483 
L 67.093483 194.969528 
L 67.198652 195.526112 
L 67.408989 197.195865 
L 67.566742 221.650787 
L 68.092584 222.450876 
L 68.355506 223.390112 
L 68.671011 223.598831 
L 68.828764 225.651236 
L 69.039101 226.381753 
L 69.196854 275.152449 
L 69.249438 275.187236 
L 69.302022 276.335191 
L 69.459775 281.727101 
L 69.617528 283.292494 
L 70.195955 283.988225 
L 70.353708 325.940764 
L 70.406292 326.010337 
L 70.564045 333.17636 
L 70.774382 333.663371 
L 70.932135 334.046022 
L 71.089888 336.86373 
L 71.142472 336.898517 
L 71.563146 338.742202 
L 71.878652 339.124854 
L 71.931236 339.124854 
L 72.141573 339.611865 
L 72.404494 342.36 
L 72.457079 342.603506 
L 72.72 346.15173 
L 73.035506 346.221303 
L 73.193258 347.821483 
L 73.245843 347.960629 
L 73.403596 349.943461 
L 73.982022 350.04782 
L 74.034607 350.082607 
L 74.139775 351.091416 
L 74.402697 357.631281 
L 74.718202 358.500944 
L 74.875955 359.857618 
L 75.033708 359.961978 
L 75.244045 360.031551 
L 75.506966 360.657708 
L 75.664719 363.92764 
L 75.822472 364.101573 
L 76.085393 366.223551 
L 76.243146 366.32791 
L 76.453483 366.710562 
L 76.611236 367.684584 
L 76.874157 367.788944 
L 77.084494 368.241169 
L 77.505169 368.241169 
L 77.76809 369.284764 
L 77.978427 369.806562 
L 78.241348 372.380764 
L 78.399101 372.51991 
L 78.662022 372.589483 
L 78.819775 375.094112 
L 79.135281 375.198472 
L 79.345618 375.198472 
L 79.555955 376.31164 
L 79.713708 376.972584 
L 80.344719 377.042157 
L 80.502472 377.877034 
L 80.555056 377.981393 
L 80.817978 379.477213 
L 81.028315 379.651146 
L 81.34382 380.486022 
L 81.448989 380.486022 
L 81.606742 380.868674 
L 81.817079 380.973034 
L 82.027416 381.146966 
L 82.237753 382.086202 
L 82.342921 382.155775 
L 82.658427 382.399281 
L 83.447191 382.50364 
L 83.710112 382.921079 
L 83.762697 382.921079 
L 83.920449 383.095011 
L 84.604045 383.442876 
L 85.077303 383.512449 
L 85.235056 383.825528 
L 85.65573 383.895101 
L 86.181573 384.416899 
L 86.234157 384.416899 
L 86.444494 384.729978 
L 86.76 384.834337 
L 87.285843 385.077843 
L 87.443596 385.112629 
L 87.601348 385.321348 
L 87.969438 385.425708 
L 88.179775 385.460494 
L 88.495281 385.564854 
L 88.653034 385.669213 
L 88.968539 385.773573 
L 89.704719 385.843146 
L 89.862472 385.947506 
L 90.177978 386.051865 
L 90.546067 386.191011 
L 91.387416 386.295371 
L 91.755506 386.434517 
L 92.333933 386.538876 
L 92.649438 386.643236 
L 93.175281 386.747596 
L 93.543371 386.886742 
L 93.858876 386.991101 
L 94.069213 387.025888 
L 95.278652 387.130247 
L 95.488989 387.165034 
L 96.593258 387.269393 
L 96.85618 387.338966 
L 98.170787 387.443326 
L 98.381124 387.478112 
L 100.06382 387.582472 
L 100.274157 387.617258 
L 101.90427 387.721618 
L 102.114607 387.756404 
L 104.954157 387.860764 
L 105.164494 387.895551 
L 108.68764 387.99991 
L 108.897978 388.034697 
L 113.73573 388.139056 
L 113.946067 388.173843 
L 123.516404 388.278202 
L 123.726742 388.312989 
L 136.715056 388.417348 
L 136.76764 388.452135 
L 136.76764 388.452135 
" clip-path="url(#p89cb070107)" style="fill: none; stroke: #d80000; stroke-width: 1.8; stroke-linecap: square"/>
   </g>
   <g id="line2d_30">
    <path d="M 54.052584 17.38436 
L 54.157753 17.38436 
L 54.36809 17.662652 
L 54.578427 17.697438 
L 54.683596 17.732225 
L 54.841348 17.940944 
L 55.10427 17.940944 
L 55.419775 18.77582 
L 55.577528 18.88018 
L 55.840449 18.949753 
L 56.050787 19.158472 
L 56.313708 19.228045 
L 56.524045 19.401978 
L 56.576629 19.436764 
L 56.734382 19.68027 
L 57.049888 19.784629 
L 57.312809 19.854202 
L 58.259326 19.923775 
L 58.574831 20.167281 
L 58.942921 20.236854 
L 59.100674 20.515146 
L 59.258427 20.584719 
L 59.311011 20.584719 
L 59.468764 21.280449 
L 59.731685 21.315236 
L 59.889438 21.454382 
L 60.15236 21.558742 
L 60.520449 21.906607 
L 60.625618 21.941393 
L 60.783371 22.393618 
L 61.624719 22.845843 
L 62.25573 22.950202 
L 62.571236 23.228494 
L 62.62382 23.228494 
L 62.781573 23.611146 
L 63.044494 23.645933 
L 63.202247 23.750292 
L 63.570337 23.819865 
L 63.72809 23.889438 
L 63.938427 23.993798 
L 64.09618 24.202517 
L 65.410787 25.176539 
L 65.621124 25.315685 
L 65.726292 25.385258 
L 65.884045 25.802697 
L 66.357303 25.907056 
L 66.56764 25.976629 
L 66.725393 26.533213 
L 66.830562 26.637573 
L 67.040899 26.915865 
L 67.356404 26.985438 
L 67.514157 28.029034 
L 67.777079 28.098607 
L 68.04 28.133393 
L 68.302921 28.655191 
L 68.565843 28.759551 
L 68.723596 28.829124 
L 68.986517 28.898697 
L 69.249438 29.176989 
L 69.407191 29.385708 
L 69.775281 29.872719 
L 70.353708 30.151011 
L 70.458876 30.151011 
L 70.616629 30.533663 
L 71.037303 30.707596 
L 71.142472 30.742382 
L 71.300225 31.055461 
L 71.826067 31.15982 
L 72.088989 31.229393 
L 72.246742 31.229393 
L 72.404494 31.438112 
L 72.72 31.472899 
L 72.930337 31.646831 
L 72.982921 31.646831 
L 73.193258 32.06427 
L 73.508764 32.516494 
L 73.561348 32.516494 
L 73.719101 33.247011 
L 74.350112 33.56009 
L 74.928539 33.664449 
L 75.138876 33.699236 
L 75.244045 33.699236 
L 75.401798 33.942742 
L 75.559551 34.012315 
L 76.29573 34.116674 
L 76.558652 34.325393 
L 76.611236 34.325393 
L 76.768989 34.499326 
L 77.137079 34.638472 
L 77.452584 34.638472 
L 77.610337 34.847191 
L 77.925843 34.951551 
L 78.083596 35.16027 
L 78.293933 35.195056 
L 78.609438 35.299416 
L 78.924944 35.542921 
L 79.082697 35.682067 
L 79.450787 35.821213 
L 79.555955 35.856 
L 79.713708 36.099506 
L 79.924045 36.099506 
L 80.081798 36.273438 
L 80.134382 36.273438 
L 80.292135 36.586517 
L 80.765393 36.65609 
L 80.923146 37.595326 
L 81.186067 37.595326 
L 81.396404 38.047551 
L 81.501573 38.047551 
L 81.659326 38.395416 
L 82.763596 38.499775 
L 83.026517 39.299865 
L 83.447191 39.369438 
L 83.604944 41.282697 
L 83.762697 41.456629 
L 83.973034 41.560989 
L 84.235955 41.908854 
L 84.288539 41.908854 
L 84.446292 42.256719 
L 85.129888 42.256719 
L 85.28764 42.500225 
L 85.550562 42.604584 
L 85.760899 44.169978 
L 86.02382 44.378697 
L 86.076404 44.378697 
L 86.234157 45.03964 
L 86.39191 45.144 
L 86.549663 45.874517 
L 86.76 45.94409 
L 86.917753 46.222382 
L 88.390112 46.326742 
L 89.546966 46.987685 
L 89.915056 47.057258 
L 90.072809 47.126831 
L 90.125393 47.126831 
L 90.283146 47.335551 
L 90.440899 47.335551 
L 90.598652 48.727011 
L 90.808989 48.761798 
L 91.177079 48.866157 
L 91.492584 49.109663 
L 91.913258 49.179236 
L 91.965843 49.248809 
L 92.123596 51.649079 
L 92.807191 51.718652 
L 92.964944 52.13609 
L 93.017528 52.13609 
L 93.175281 52.483955 
L 93.280449 52.483955 
L 93.701124 53.597124 
L 93.806292 53.597124 
L 94.069213 54.501573 
L 94.542472 54.605933 
L 94.752809 54.640719 
L 95.173483 54.675506 
L 95.38382 54.988584 
L 95.646742 55.058157 
L 96.12 57.006202 
L 96.540674 57.040989 
L 96.961348 58.536809 
L 97.119101 58.571596 
L 97.171685 58.815101 
L 97.329438 60.032629 
L 97.855281 60.136989 
L 98.013034 60.902292 
L 98.118202 60.937079 
L 98.854382 63.406921 
L 99.064719 63.511281 
L 99.432809 64.694022 
L 99.537978 64.728809 
L 99.69573 65.32018 
L 100.011236 65.32018 
L 100.168989 66.085483 
L 100.484494 66.71164 
L 100.747416 66.746427 
L 100.905169 67.059506 
L 101.431011 67.163865 
L 101.588764 67.233438 
L 101.746517 67.685663 
L 101.90427 67.859596 
L 102.114607 68.31182 
L 102.27236 68.41618 
L 102.693034 69.042337 
L 102.850787 69.633708 
L 103.586966 69.668494 
L 103.744719 70.051146 
L 103.902472 70.155506 
L 104.00764 70.155506 
L 104.165393 70.329438 
L 104.323146 70.364225 
L 104.533483 71.477393 
L 104.901573 71.546966 
L 105.11191 72.416629 
L 105.322247 72.416629 
L 105.48 72.660135 
L 105.585169 72.660135 
L 105.742921 73.042787 
L 105.900674 73.982022 
L 105.953258 74.016809 
L 106.111011 74.225528 
L 106.321348 74.260315 
L 106.58427 74.364674 
L 106.742022 74.399461 
L 106.95236 75.025618 
L 107.057528 75.025618 
L 107.373034 76.730157 
L 107.478202 76.79973 
L 107.688539 77.356315 
L 108.056629 77.460674 
L 108.214382 78.434697 
L 108.372135 79.652225 
L 108.582472 80.69582 
L 108.740225 81.321978 
L 109.05573 81.391551 
L 109.213483 81.635056 
L 109.42382 81.739416 
L 109.581573 82.330787 
L 109.739326 82.365573 
L 109.79191 82.504719 
L 109.949663 83.09609 
L 110.212584 83.130876 
L 110.370337 84.035326 
L 110.580674 84.070112 
L 110.738427 84.383191 
L 110.791011 84.383191 
L 111.106517 84.904989 
L 111.211685 84.974562 
L 111.474607 85.49636 
L 111.63236 85.948584 
L 111.737528 85.948584 
L 111.895281 86.296449 
L 111.947865 86.296449 
L 112.105618 86.99218 
L 112.473708 87.200899 
L 112.631461 87.757483 
L 112.736629 88.070562 
L 112.894382 88.418427 
L 113.157303 88.522787 
L 113.525393 90.157753 
L 113.577978 90.157753 
L 113.73573 90.436045 
L 113.998652 90.436045 
L 114.261573 91.270921 
L 114.366742 91.305708 
L 114.524494 92.105798 
L 115.365843 92.210157 
L 115.523596 92.349303 
L 115.681348 92.905888 
L 116.049438 93.045034 
L 116.207191 93.636404 
L 116.627865 93.705978 
L 116.785618 94.192989 
L 117.258876 94.297348 
L 117.889888 94.958292 
L 118.731236 95.027865 
L 118.78382 95.201798 
L 118.941573 96.210607 
L 119.204494 96.28018 
L 119.52 97.776 
L 119.782921 97.845573 
L 119.940674 98.680449 
L 120.098427 98.750022 
L 120.308764 99.028315 
L 120.519101 99.097888 
L 121.255281 100.802427 
L 121.886292 100.906787 
L 122.044045 101.011146 
L 122.622472 101.011146 
L 122.832809 101.637303 
L 123.568989 101.67209 
L 123.779326 101.985169 
L 123.989663 102.159101 
L 124.410337 102.36782 
L 124.883596 104.07236 
L 124.988764 104.107146 
L 125.146517 104.281079 
L 125.199101 104.281079 
L 125.356854 104.489798 
L 125.409438 104.489798 
L 125.567191 104.837663 
L 125.67236 104.872449 
L 125.830112 105.046382 
L 126.198202 105.115955 
L 126.408539 105.429034 
L 126.724045 106.785708 
L 126.776629 106.820494 
L 127.092135 107.585798 
L 127.249888 107.690157 
L 127.460225 108.107596 
L 127.617978 108.177169 
L 127.880899 108.490247 
L 127.986067 108.490247 
L 128.14382 108.629393 
L 128.196404 108.698966 
L 128.406742 109.777348 
L 128.564494 109.812135 
L 128.774831 110.890517 
L 128.827416 110.96009 
L 128.985169 111.725393 
L 129.037753 111.725393 
L 129.300674 112.734202 
L 129.405843 112.838562 
L 129.563596 113.082067 
L 130.615281 114.960539 
L 131.035955 115.030112 
L 131.246292 115.65627 
L 131.614382 115.864989 
L 131.929888 116.978157 
L 131.982472 116.978157 
L 132.140225 117.569528 
L 132.876404 118.369618 
L 133.19191 118.473978 
L 133.349663 118.578337 
L 133.507416 119.239281 
L 133.980674 119.448 
L 134.559101 119.448 
L 135.242697 121.917843 
L 135.242697 121.917843 
" clip-path="url(#p89cb070107)" style="fill: none; stroke: #264653; stroke-width: 1.8; stroke-linecap: square"/>
   </g>
   <g id="line2d_31">
    <path d="M 54.052584 17.28 
L 56.839551 17.28 
L 56.997303 17.453933 
L 59.205843 17.558292 
L 59.363596 17.627865 
L 60.099775 17.627865 
L 60.257528 17.836584 
L 64.622022 17.940944 
L 64.83236 17.97573 
L 69.722697 18.08009 
L 69.880449 18.149663 
L 70.774382 18.254022 
L 70.984719 18.288809 
L 72.877753 18.393169 
L 73.193258 18.497528 
L 73.82427 18.567101 
L 74.087191 18.741034 
L 74.297528 18.845393 
L 74.560449 18.914966 
L 75.349213 19.019326 
L 75.664719 19.123685 
L 76.085393 19.158472 
L 76.243146 19.297618 
L 76.716404 19.401978 
L 76.874157 19.471551 
L 77.137079 19.57591 
L 77.347416 19.610697 
L 78.293933 19.715056 
L 78.50427 19.749843 
L 79.503371 19.784629 
L 79.766292 20.27164 
L 80.502472 20.376 
L 80.660225 20.48036 
L 80.870562 20.515146 
L 82.132584 20.549933 
L 82.290337 20.689079 
L 82.921348 20.758652 
L 83.079101 20.828225 
L 83.447191 20.828225 
L 83.604944 21.07173 
L 84.709213 21.17609 
L 84.919551 21.210876 
L 85.28764 21.210876 
L 85.445393 21.906607 
L 86.076404 22.010966 
L 86.39191 22.115326 
L 87.548764 22.219685 
L 87.706517 22.811056 
L 87.916854 22.845843 
L 88.810787 22.915416 
L 88.968539 25.037393 
L 89.494382 25.106966 
L 89.652135 25.176539 
L 90.125393 25.176539 
L 90.283146 25.454831 
L 90.808989 25.559191 
L 91.07191 25.733124 
L 91.597753 25.76791 
L 91.755506 26.707146 
L 92.228764 26.811506 
L 92.386517 26.915865 
L 92.54427 27.124584 
L 94.805393 27.194157 
L 94.963146 27.298517 
L 96.85618 27.36809 
L 97.013933 27.889888 
L 97.22427 27.924674 
L 97.382022 28.029034 
L 99.69573 28.06382 
L 99.853483 28.16818 
L 100.694831 28.237753 
L 100.852584 28.550831 
L 101.53618 28.620404 
L 101.693933 28.898697 
L 101.851685 28.898697 
L 102.009438 29.455281 
L 102.640449 29.455281 
L 102.798202 29.803146 
L 104.74382 29.872719 
L 104.901573 30.220584 
L 105.374831 30.290157 
L 105.532584 30.533663 
L 107.583371 30.568449 
L 107.741124 30.777169 
L 107.951461 30.777169 
L 108.161798 31.507685 
L 109.05573 31.542472 
L 109.213483 32.168629 
L 109.42382 32.203416 
L 109.949663 32.272989 
L 110.107416 32.586067 
L 110.265169 32.794787 
L 110.422921 33.177438 
L 110.580674 33.281798 
L 110.843596 33.803596 
L 111.106517 34.394966 
L 111.26427 34.916764 
L 111.474607 35.021124 
L 111.684944 36.343011 
L 112.000449 36.864809 
L 112.158202 37.003955 
L 112.421124 37.038742 
L 112.578876 37.421393 
L 113.840899 38.360629 
L 113.998652 39.334652 
L 114.261573 40.065169 
L 114.366742 40.099955 
L 114.84 41.35227 
L 115.050337 41.456629 
L 115.20809 41.769708 
L 115.365843 42.604584 
L 115.57618 43.300315 
L 115.786517 44.239551 
L 115.996854 44.900494 
L 116.207191 46.118022 
L 116.627865 47.613843 
L 116.785618 47.752989 
L 117.101124 48.274787 
L 117.416629 48.483506 
L 117.784719 49.387955 
L 117.837303 49.422742 
L 117.995056 49.874966 
L 118.100225 50.014112 
L 118.257978 50.222831 
L 118.310562 50.222831 
L 118.468315 50.988135 
L 118.678652 51.823011 
L 118.731236 51.823011 
L 118.888989 52.483955 
L 119.046742 53.075326 
L 119.099326 53.110112 
L 119.257079 53.423191 
L 119.572584 53.73627 
L 119.730337 54.745079 
L 119.782921 54.779865 
L 119.940674 56.066966 
L 120.045843 56.136539 
L 120.308764 56.936629 
L 120.413933 57.110562 
L 120.939775 58.815101 
L 121.150112 59.02382 
L 121.413034 59.997843 
L 121.728539 60.206562 
L 121.886292 60.72836 
L 122.359551 60.971865 
L 122.517303 61.911101 
L 122.622472 62.050247 
L 122.780225 63.406921 
L 122.937978 63.511281 
L 123.043146 63.859146 
L 123.200899 64.624449 
L 123.411236 64.624449 
L 123.621573 65.424539 
L 123.83191 65.528899 
L 124.357753 65.946337 
L 124.673258 66.502921 
L 124.725843 66.572494 
L 124.883596 66.955146 
L 125.093933 67.129079 
L 125.356854 67.963955 
L 125.514607 67.998742 
L 125.777528 68.868404 
L 125.935281 70.468584 
L 126.093034 70.572944 
L 126.461124 71.442607 
L 126.881798 71.825258 
L 127.880899 74.60818 
L 128.14382 75.686562 
L 128.301573 76.034427 
L 128.51191 77.112809 
L 128.564494 77.112809 
L 128.669663 77.495461 
L 128.932584 78.852135 
L 129.405843 79.130427 
L 129.668764 80.104449 
L 129.773933 80.243596 
L 130.036854 81.669843 
L 130.510112 83.79182 
L 130.562697 83.79182 
L 130.878202 84.348404 
L 131.035955 84.522337 
L 131.193708 85.044135 
L 131.298876 85.148494 
L 131.719551 86.226876 
L 131.824719 86.366022 
L 131.982472 86.679101 
L 132.140225 86.853034 
L 132.350562 87.861843 
L 132.403146 87.896629 
L 132.613483 88.905438 
L 133.086742 89.601169 
L 133.19191 89.879461 
L 133.507416 90.853483 
L 133.665169 91.514427 
L 133.717753 91.549213 
L 133.92809 92.349303 
L 134.085843 92.523236 
L 134.716854 93.87991 
L 134.874607 93.98427 
L 135.242697 95.167011 
L 135.400449 96.210607 
L 135.610787 96.593258 
L 136.084045 96.941124 
L 136.504719 98.019506 
L 136.609888 98.089079 
L 137.188315 101.498157 
L 137.188315 101.498157 
" clip-path="url(#p89cb070107)" style="fill: none; stroke: #ffe211; stroke-width: 1.8; stroke-linecap: square"/>
   </g>
   <g id="line2d_32">
    <path d="M 54.052584 17.28 
L 54.73618 17.38436 
L 55.156854 17.558292 
L 55.945618 17.662652 
L 56.103371 17.836584 
L 56.524045 17.836584 
L 56.786966 18.219236 
L 57.891236 18.323596 
L 58.206742 18.427955 
L 58.732584 18.497528 
L 59.04809 18.77582 
L 59.205843 18.77582 
L 59.363596 18.949753 
L 59.994607 19.262831 
L 60.310112 19.367191 
L 60.467865 19.436764 
L 60.520449 19.436764 
L 60.678202 19.57591 
L 60.888539 19.68027 
L 61.046292 19.819416 
L 61.309213 19.888989 
L 61.466966 19.993348 
L 61.519551 20.028135 
L 61.677303 20.236854 
L 61.88764 20.376 
L 62.045393 20.376 
L 62.203146 20.549933 
L 62.62382 20.654292 
L 62.834157 20.689079 
L 63.780674 20.793438 
L 64.043596 20.967371 
L 64.516854 21.07173 
L 65.095281 21.663101 
L 65.358202 21.767461 
L 65.621124 21.837034 
L 65.989213 21.941393 
L 66.199551 21.97618 
L 66.515056 22.080539 
L 66.725393 22.184899 
L 67.040899 22.254472 
L 67.356404 22.497978 
L 67.777079 22.67191 
L 68.618427 22.77627 
L 68.828764 22.950202 
L 69.091685 23.158921 
L 69.249438 23.332854 
L 69.617528 23.437213 
L 69.775281 23.541573 
L 70.248539 23.611146 
L 70.721798 24.098157 
L 70.826966 24.098157 
L 70.984719 24.237303 
L 71.24764 24.446022 
L 71.720899 24.550382 
L 72.194157 25.002607 
L 72.299326 25.037393 
L 72.509663 25.420045 
L 72.772584 25.489618 
L 72.877753 25.593978 
L 73.298427 25.76791 
L 73.982022 25.87227 
L 74.139775 25.941843 
L 74.297528 26.220135 
L 74.455281 26.220135 
L 74.613034 26.394067 
L 75.349213 26.950652 
L 75.559551 27.472449 
L 75.717303 27.681169 
L 76.190562 28.133393 
L 76.611236 28.516045 
L 76.768989 28.689978 
L 77.189663 28.794337 
L 77.4 28.96827 
L 77.610337 29.003056 
L 78.13618 29.107416 
L 78.714607 29.55964 
L 78.87236 29.733573 
L 79.187865 29.803146 
L 79.345618 29.907506 
L 79.555955 29.977079 
L 79.924045 30.290157 
L 80.292135 30.35973 
L 80.502472 30.498876 
L 80.660225 30.603236 
L 81.133483 30.985888 
L 81.291236 31.229393 
L 81.554157 31.298966 
L 82.342921 31.403326 
L 82.868764 31.646831 
L 83.026517 31.751191 
L 83.289438 31.820764 
L 83.920449 31.925124 
L 84.078202 31.994697 
L 84.130787 31.994697 
L 84.446292 32.586067 
L 84.761798 32.690427 
L 85.708315 32.794787 
L 85.971236 33.003506 
L 86.234157 33.107865 
L 86.39191 33.212225 
L 86.707416 33.316584 
L 87.285843 33.594876 
L 87.548764 33.699236 
L 87.759101 33.907955 
L 87.916854 34.25582 
L 88.074607 34.36018 
L 89.021124 35.090697 
L 89.231461 35.195056 
L 89.599551 35.299416 
L 89.96764 35.438562 
L 90.177978 35.542921 
L 90.70382 35.786427 
L 90.861573 35.786427 
L 91.019326 35.995146 
L 91.545169 36.064719 
L 91.702921 36.273438 
L 91.965843 36.516944 
L 92.123596 36.65609 
L 92.228764 36.725663 
L 92.386517 36.899596 
L 92.439101 36.899596 
L 92.596854 37.038742 
L 93.017528 37.35182 
L 93.175281 37.490966 
L 93.438202 37.560539 
L 93.648539 37.664899 
L 94.437303 38.291056 
L 94.752809 38.534562 
L 95.068315 38.604135 
L 95.38382 38.986787 
L 95.699326 39.091146 
L 95.857079 39.230292 
L 96.48809 39.299865 
L 96.85618 39.612944 
L 97.276854 39.786876 
L 97.644944 39.891236 
L 97.802697 40.099955 
L 97.855281 40.134742 
L 98.013034 40.413034 
L 99.275056 41.143551 
L 99.590562 41.143551 
L 99.748315 41.282697 
L 99.853483 41.317483 
L 100.011236 41.526202 
L 100.484494 41.630562 
L 101.273258 42.048 
L 101.431011 42.117573 
L 101.746517 42.569798 
L 102.062022 42.569798 
L 102.27236 42.84809 
L 102.430112 42.952449 
L 103.271461 43.404674 
L 103.744719 43.509034 
L 104.00764 43.822112 
L 104.217978 43.926472 
L 104.428315 44.030831 
L 104.74382 44.135191 
L 105.11191 44.830921 
L 105.217079 44.935281 
L 105.427416 45.283146 
L 106.794607 46.187596 
L 107.110112 46.848539 
L 107.267865 46.952899 
L 107.478202 47.405124 
L 107.530787 47.405124 
L 107.741124 47.822562 
L 108.056629 47.926921 
L 109.003146 48.657438 
L 109.528989 49.214022 
L 109.581573 49.214022 
L 109.739326 49.387955 
L 110.422921 49.874966 
L 110.633258 50.257618 
L 111.474607 51.23164 
L 111.527191 51.23164 
L 111.737528 51.509933 
L 112.158202 51.544719 
L 112.368539 51.753438 
L 112.421124 51.753438 
L 112.578876 52.066517 
L 112.894382 52.170876 
L 112.999551 52.240449 
L 113.209888 52.588315 
L 113.472809 52.866607 
L 113.630562 53.214472 
L 113.840899 53.666697 
L 113.946067 53.666697 
L 114.10382 53.944989 
L 114.892584 54.53636 
L 115.102921 54.779865 
L 116.102022 55.545169 
L 116.259775 55.788674 
L 116.417528 55.962607 
L 116.733034 56.345258 
L 117.048539 56.588764 
L 117.679551 57.110562 
L 118.04764 57.841079 
L 118.888989 58.432449 
L 119.099326 58.884674 
L 119.257079 58.989034 
L 119.88809 59.649978 
L 120.151011 59.719551 
L 120.782022 61.145798 
L 120.834607 61.145798 
L 121.044944 61.598022 
L 121.150112 61.737169 
L 121.307865 62.050247 
L 121.465618 62.154607 
L 121.991461 62.676404 
L 122.254382 62.954697 
L 122.517303 63.128629 
L 122.885393 63.232989 
L 123.09573 63.372135 
L 123.253483 63.61564 
L 123.411236 63.72 
L 123.621573 64.033079 
L 124.357753 65.076674 
L 124.515506 65.494112 
L 124.778427 65.598472 
L 125.409438 66.085483 
L 125.619775 66.328989 
L 125.830112 66.433348 
L 126.934382 67.720449 
L 127.039551 67.824809 
L 127.249888 68.277034 
L 127.302472 68.277034 
L 127.460225 68.41618 
L 127.723146 68.520539 
L 127.880899 68.729258 
L 128.248989 69.042337 
L 128.301573 69.042337 
L 128.51191 69.459775 
L 128.564494 69.494562 
L 128.774831 69.877213 
L 129.405843 70.920809 
L 129.563596 71.025169 
L 129.721348 71.338247 
L 130.825618 71.964404 
L 131.035955 72.068764 
L 131.246292 72.173124 
L 131.404045 72.20791 
L 131.614382 72.729708 
L 131.719551 72.799281 
L 131.929888 73.216719 
L 132.140225 73.321079 
L 132.45573 73.599371 
L 132.666067 73.70373 
L 133.349663 75.269124 
L 133.454831 75.269124 
L 133.665169 75.616989 
L 134.348764 76.104 
L 134.559101 76.486652 
L 134.769438 76.591011 
L 134.927191 76.834517 
L 135.347865 77.565034 
L 135.347865 77.565034 
" clip-path="url(#p89cb070107)" style="fill: none; stroke: #39c5bb; stroke-width: 1.8; stroke-linecap: square"/>
   </g>
   <g id="line2d_33">
    <path d="M 54.052584 17.349573 
L 54.105169 17.349573 
L 54.262921 17.558292 
L 54.36809 17.593079 
L 54.525843 18.114876 
L 54.631011 18.149663 
L 54.788764 18.288809 
L 54.893933 18.323596 
L 55.051685 18.427955 
L 56.313708 19.297618 
L 56.629213 20.236854 
L 57.312809 20.584719 
L 57.470562 20.584719 
L 57.628315 21.036944 
L 57.94382 21.141303 
L 58.154157 21.280449 
L 58.522247 21.384809 
L 58.732584 21.593528 
L 59.100674 22.567551 
L 59.205843 22.602337 
L 59.363596 22.950202 
L 59.679101 23.228494 
L 59.836854 23.298067 
L 60.15236 23.819865 
L 60.730787 24.411236 
L 60.835955 24.515596 
L 61.151461 24.828674 
L 61.309213 24.898247 
L 61.572135 24.898247 
L 61.782472 25.141753 
L 61.992809 25.246112 
L 62.150562 25.489618 
L 62.518652 25.628764 
L 62.834157 25.733124 
L 62.99191 25.802697 
L 63.149663 26.637573 
L 63.202247 26.67236 
L 63.36 27.26373 
L 63.465169 27.298517 
L 63.622921 27.507236 
L 63.938427 27.576809 
L 64.09618 27.750742 
L 64.359101 27.889888 
L 64.516854 28.307326 
L 64.83236 28.550831 
L 65.884045 29.142202 
L 66.252135 29.246562 
L 66.462472 29.455281 
L 66.830562 29.977079 
L 67.040899 30.011865 
L 67.30382 30.290157 
L 67.408989 30.290157 
L 67.566742 30.603236 
L 67.777079 30.707596 
L 68.302921 31.020674 
L 68.460674 31.403326 
L 68.77618 31.507685 
L 68.933933 31.751191 
L 69.091685 31.855551 
L 69.407191 32.06427 
L 69.564944 32.342562 
L 69.670112 32.412135 
L 69.827865 32.794787 
L 70.564045 34.081888 
L 70.826966 34.186247 
L 71.089888 34.36018 
L 71.405393 34.464539 
L 71.826067 34.568899 
L 72.141573 34.742831 
L 72.299326 35.229843 
L 72.35191 35.229843 
L 72.562247 35.508135 
L 72.667416 35.508135 
L 72.825169 35.821213 
L 73.193258 36.377798 
L 73.245843 36.377798 
L 73.403596 36.725663 
L 73.929438 37.525753 
L 74.244944 37.595326 
L 74.507865 38.012764 
L 74.928539 38.360629 
L 75.086292 38.499775 
L 75.401798 38.604135 
L 75.875056 38.812854 
L 76.032809 38.917213 
L 76.190562 39.160719 
L 76.400899 39.299865 
L 76.768989 39.404225 
L 77.873258 40.030382 
L 78.083596 40.134742 
L 78.399101 41.073978 
L 78.609438 41.282697 
L 78.767191 41.700135 
L 78.924944 41.734921 
L 79.135281 42.15236 
L 79.293034 42.291506 
L 79.450787 42.326292 
L 79.608539 42.500225 
L 79.661124 42.500225 
L 79.818876 42.74373 
L 79.871461 42.778517 
L 80.081798 43.230742 
L 80.449888 43.717753 
L 81.501573 44.378697 
L 81.659326 44.691775 
L 81.817079 44.761348 
L 81.974831 44.900494 
L 82.027416 44.900494 
L 82.185169 45.144 
L 82.342921 45.213573 
L 82.500674 45.352719 
L 83.289438 46.222382 
L 83.920449 46.709393 
L 84.183371 47.196404 
L 84.498876 47.300764 
L 84.972135 47.405124 
L 85.603146 47.752989 
L 85.760899 48.170427 
L 85.918652 48.274787 
L 87.233258 49.109663 
L 87.391011 49.770607 
L 87.811685 50.118472 
L 88.074607 50.53591 
L 89.021124 51.057708 
L 89.178876 51.127281 
L 89.494382 51.509933 
L 89.599551 51.509933 
L 89.757303 51.753438 
L 90.493483 52.13609 
L 90.546067 52.13609 
L 90.70382 52.275236 
L 91.755506 53.005753 
L 91.965843 53.423191 
L 92.281348 53.527551 
L 92.439101 54.014562 
L 92.702022 54.049348 
L 93.017528 54.571146 
L 93.385618 54.675506 
L 94.279551 55.371236 
L 94.437303 55.579955 
L 94.489888 55.614742 
L 94.64764 56.066966 
L 95.278652 56.171326 
L 95.962247 56.623551 
L 96.12 56.867056 
L 96.540674 57.040989 
L 96.645843 57.075775 
L 96.803596 57.284494 
L 96.85618 57.319281 
L 97.013933 57.771506 
L 97.119101 57.771506 
L 97.276854 58.502022 
L 97.329438 58.502022 
L 97.539775 58.884674 
L 97.697528 58.884674 
L 97.855281 59.093393 
L 98.433708 60.067416 
L 98.801798 60.136989 
L 99.064719 60.450067 
L 99.222472 60.554427 
L 99.537978 61.493663 
L 99.69573 61.598022 
L 99.748315 61.632809 
L 99.906067 62.154607 
L 100.06382 62.293753 
L 100.274157 62.537258 
L 100.642247 62.641618 
L 100.8 62.780764 
L 100.957753 63.093843 
L 101.115506 63.267775 
L 101.273258 63.511281 
L 101.588764 63.754787 
L 101.746517 63.893933 
L 102.009438 64.624449 
L 102.798202 65.041888 
L 103.008539 65.041888 
L 103.166292 65.285393 
L 103.324045 65.32018 
L 103.849888 66.12027 
L 103.955056 66.155056 
L 104.112809 66.328989 
L 104.323146 66.433348 
L 104.480899 67.581303 
L 104.533483 67.650876 
L 104.691236 68.033528 
L 104.796404 68.068315 
L 104.954157 68.31182 
L 105.11191 68.346607 
L 105.322247 68.868404 
L 105.374831 68.868404 
L 105.532584 69.390202 
L 106.268764 69.772854 
L 106.321348 69.772854 
L 106.58427 70.468584 
L 106.794607 70.572944 
L 107.267865 70.886022 
L 107.530787 71.860045 
L 107.688539 72.973213 
L 108.161798 73.042787 
L 108.319551 73.355865 
L 108.477303 73.425438 
L 108.635056 73.564584 
L 109.003146 73.668944 
L 109.318652 74.329888 
L 109.42382 74.434247 
L 109.581573 74.851685 
L 109.739326 74.956045 
L 110.002247 75.095191 
L 110.16 75.443056 
L 110.212584 75.443056 
L 110.475506 75.99964 
L 110.738427 76.104 
L 111.106517 76.625798 
L 111.422022 76.730157 
L 111.895281 77.773753 
L 111.947865 77.773753 
L 112.105618 78.017258 
L 113.157303 78.747775 
L 113.36764 79.09564 
L 113.525393 79.234787 
L 113.998652 80.974112 
L 114.051236 80.974112 
L 114.208989 81.321978 
L 114.261573 81.321978 
L 114.524494 81.704629 
L 114.682247 81.808989 
L 114.84 82.296 
L 114.945169 82.296 
L 115.102921 82.713438 
L 115.260674 83.235236 
L 115.418427 83.374382 
L 115.628764 83.687461 
L 115.891685 83.79182 
L 115.94427 83.89618 
L 116.102022 84.557124 
L 116.31236 84.731056 
L 116.627865 85.28764 
L 116.733034 85.322427 
L 116.890787 85.426787 
L 117.206292 85.531146 
L 117.364045 85.913798 
L 117.626966 86.018157 
L 117.837303 86.261663 
L 118.100225 86.88782 
L 118.205393 86.922607 
L 118.41573 87.096539 
L 118.468315 87.096539 
L 118.626067 87.444404 
L 118.678652 87.444404 
L 118.888989 87.827056 
L 119.046742 87.896629 
L 119.257079 88.279281 
L 119.414831 88.661933 
L 119.625169 89.357663 
L 119.940674 89.462022 
L 120.308764 89.949034 
L 120.571685 90.122966 
L 120.729438 90.609978 
L 121.097528 91.096989 
L 121.465618 91.236135 
L 121.781124 91.270921 
L 121.938876 91.47964 
L 122.149213 91.584 
L 122.990562 92.210157 
L 123.148315 92.349303 
L 123.358652 92.453663 
L 123.411236 92.488449 
L 123.674157 93.323326 
L 124.094831 93.601618 
L 124.56809 94.819146 
L 124.620674 94.819146 
L 124.831011 95.723596 
L 125.041348 95.932315 
L 125.199101 96.419326 
L 125.409438 96.697618 
L 125.567191 96.732404 
L 125.777528 97.288989 
L 125.882697 97.497708 
L 126.040449 97.88036 
L 126.986966 99.550112 
L 128.14382 100.419775 
L 128.617079 100.872 
L 128.722247 100.941573 
L 128.88 101.359011 
L 129.142921 102.054742 
L 129.24809 102.193888 
L 129.773933 103.341843 
L 129.931685 103.933213 
L 129.98427 103.968 
L 130.194607 104.420225 
L 130.457528 104.698517 
L 130.667865 104.942022 
L 130.773034 105.011596 
L 130.983371 105.811685 
L 131.404045 106.089978 
L 131.666966 106.924854 
L 131.982472 107.203146 
L 132.035056 107.203146 
L 132.192809 107.724944 
L 132.350562 107.724944 
L 132.508315 108.038022 
L 132.928989 108.420674 
L 133.244494 108.698966 
L 133.980674 109.986067 
L 134.033258 109.986067 
L 134.348764 110.786157 
L 134.822022 111.168809 
L 135.084944 111.794966 
L 135.190112 111.794966 
L 135.505618 112.595056 
L 135.715955 112.803775 
L 136.031461 112.908135 
L 136.241798 113.256 
L 136.241798 113.256 
" clip-path="url(#p89cb070107)" style="fill: none; stroke: #2a9d8f; stroke-width: 1.8; stroke-linecap: square"/>
   </g>
   <g id="line2d_34">
    <path d="M 54.052584 17.28 
L 54.315506 17.38436 
L 54.473258 17.488719 
L 54.578427 17.558292 
L 54.788764 17.801798 
L 54.841348 17.801798 
L 54.999101 18.010517 
L 55.156854 18.045303 
L 55.524944 18.741034 
L 55.840449 18.810607 
L 56.050787 18.914966 
L 56.261124 18.949753 
L 56.524045 19.401978 
L 56.734382 19.471551 
L 56.892135 19.68027 
L 56.944719 19.68027 
L 57.102472 20.132494 
L 57.680899 20.410787 
L 57.94382 20.515146 
L 58.101573 20.758652 
L 58.31191 20.967371 
L 58.522247 21.210876 
L 58.732584 21.245663 
L 58.890337 21.558742 
L 58.995506 21.628315 
L 59.153258 22.010966 
L 59.258427 22.115326 
L 59.41618 22.254472 
L 59.573933 22.324045 
L 59.78427 22.741483 
L 59.836854 22.741483 
L 59.994607 22.915416 
L 60.362697 22.984989 
L 60.783371 23.36764 
L 60.941124 23.36764 
L 61.098876 23.506787 
L 61.256629 23.611146 
L 61.466966 23.750292 
L 61.940225 23.819865 
L 62.308315 24.16773 
L 62.676404 24.27209 
L 63.254831 24.689528 
L 63.412584 24.898247 
L 64.09618 25.002607 
L 64.253933 25.280899 
L 64.569438 25.385258 
L 64.779775 25.489618 
L 65.200449 25.733124 
L 65.463371 26.359281 
L 65.515955 26.394067 
L 65.673708 26.602787 
L 65.778876 26.602787 
L 65.936629 26.915865 
L 66.094382 27.020225 
L 66.409888 27.089798 
L 66.777978 27.542022 
L 66.93573 27.889888 
L 67.146067 28.133393 
L 67.356404 28.272539 
L 67.514157 28.342112 
L 67.724494 28.446472 
L 68.092584 28.481258 
L 68.460674 29.524854 
L 68.565843 29.629213 
L 69.249438 30.394517 
L 69.51236 30.498876 
L 69.670112 30.603236 
L 70.143371 30.951101 
L 70.353708 31.333753 
L 70.458876 31.403326 
L 70.616629 31.785978 
L 70.774382 31.820764 
L 70.932135 31.95991 
L 71.300225 32.06427 
L 71.510562 32.272989 
L 71.878652 32.933933 
L 72.509663 33.247011 
L 72.614831 33.351371 
L 73.45618 34.290607 
L 73.666517 34.394966 
L 74.244944 34.986337 
L 74.402697 35.090697 
L 75.086292 35.438562 
L 75.138876 35.438562 
L 75.349213 36.064719 
L 75.506966 36.169079 
L 75.980225 36.586517 
L 76.190562 36.690876 
L 76.243146 36.725663 
L 76.558652 37.386607 
L 76.768989 37.490966 
L 77.084494 37.873618 
L 77.347416 37.943191 
L 77.557753 38.117124 
L 77.820674 38.221483 
L 78.609438 38.638921 
L 78.819775 38.743281 
L 79.293034 38.952 
L 79.503371 39.05636 
L 80.449888 40.134742 
L 80.555056 40.204315 
L 80.712809 40.44782 
L 80.923146 40.586966 
L 81.080899 40.760899 
L 81.291236 40.865258 
L 81.448989 41.282697 
L 81.606742 41.665348 
L 81.764494 42.117573 
L 81.974831 42.221933 
L 82.185169 42.326292 
L 82.395506 42.778517 
L 82.763596 42.882876 
L 82.921348 43.022022 
L 83.447191 43.126382 
L 83.762697 43.54382 
L 84.078202 43.64818 
L 84.235955 43.752539 
L 84.498876 43.822112 
L 84.761798 43.891685 
L 85.182472 44.274337 
L 85.392809 44.309124 
L 85.550562 44.761348 
L 85.708315 44.796135 
L 85.866067 45.109213 
L 86.02382 45.109213 
L 86.234157 45.457079 
L 87.811685 46.535461 
L 87.969438 47.092045 
L 88.127191 47.196404 
L 88.653034 47.54427 
L 88.810787 47.752989 
L 88.968539 47.822562 
L 89.178876 47.892135 
L 89.336629 47.961708 
L 89.546966 48.066067 
L 89.599551 48.100854 
L 89.757303 48.309573 
L 90.283146 48.413933 
L 90.966742 48.866157 
L 91.177079 49.248809 
L 91.387416 49.457528 
L 91.492584 49.457528 
L 91.650337 49.770607 
L 91.860674 49.84018 
L 92.018427 50.396764 
L 92.228764 50.431551 
L 92.386517 50.501124 
L 92.596854 50.744629 
L 92.807191 50.779416 
L 92.964944 51.092494 
L 93.595955 51.579506 
L 93.753708 51.996944 
L 94.069213 52.101303 
L 94.332135 52.275236 
L 94.384719 52.275236 
L 94.595056 52.866607 
L 94.752809 53.005753 
L 94.910562 53.110112 
L 95.173483 53.388404 
L 95.541573 53.701483 
L 95.699326 54.084135 
L 95.962247 54.32764 
L 96.172584 54.675506 
L 96.593258 54.779865 
L 96.751011 55.058157 
L 96.803596 55.092944 
L 96.961348 55.371236 
L 97.119101 55.649528 
L 97.22427 55.684315 
L 97.434607 55.893034 
L 97.539775 56.066966 
L 97.855281 56.484404 
L 98.696629 56.936629 
L 98.906966 56.971416 
L 99.222472 57.910652 
L 99.380225 57.980225 
L 99.643146 58.188944 
L 99.906067 58.22373 
L 100.168989 58.989034 
L 100.379326 59.302112 
L 100.642247 59.371685 
L 100.8 59.371685 
L 101.325843 60.484854 
L 102.167191 61.041438 
L 102.377528 61.563236 
L 102.640449 61.632809 
L 102.798202 62.572045 
L 103.113708 62.815551 
L 103.639551 63.059056 
L 104.00764 63.128629 
L 104.217978 63.302562 
L 104.428315 63.372135 
L 104.691236 63.685213 
L 104.74382 63.685213 
L 104.901573 63.928719 
L 105.059326 63.998292 
L 105.427416 64.067865 
L 105.690337 64.728809 
L 105.953258 64.798382 
L 106.479101 65.494112 
L 106.742022 67.059506 
L 106.794607 67.059506 
L 106.95236 67.476944 
L 107.162697 67.581303 
L 107.425618 67.755236 
L 107.583371 67.963955 
L 107.635955 67.963955 
L 107.793708 68.277034 
L 107.898876 68.346607 
L 108.056629 68.520539 
L 108.372135 68.555326 
L 108.582472 69.285843 
L 108.635056 69.285843 
L 109.266067 71.059955 
L 109.528989 71.164315 
L 110.16 71.616539 
L 110.370337 71.894831 
L 110.52809 71.999191 
L 110.685843 72.20791 
L 111.053933 72.555775 
L 111.159101 72.590562 
L 111.369438 72.834067 
L 111.579775 72.868854 
L 111.737528 72.90364 
L 111.895281 73.042787 
L 112.105618 73.147146 
L 112.263371 73.251506 
L 113.262472 73.80809 
L 113.525393 73.912449 
L 114.47191 74.60818 
L 114.629663 74.782112 
L 114.945169 74.816899 
L 115.313258 76.173573 
L 115.471011 76.243146 
L 115.733933 76.625798 
L 117.206292 77.495461 
L 117.311461 77.565034 
L 117.469213 77.70418 
L 117.626966 77.773753 
L 117.837303 77.982472 
L 118.257978 78.365124 
L 118.520899 79.234787 
L 118.78382 79.687011 
L 118.888989 79.756584 
L 119.52 80.765393 
L 120.151011 81.635056 
L 120.308764 82.296 
L 120.413933 82.435146 
L 120.571685 83.165663 
L 120.676854 83.339596 
L 120.939775 84.035326 
L 120.99236 84.035326 
L 121.255281 84.69627 
L 121.465618 84.800629 
L 121.570787 84.904989 
L 122.096629 85.28764 
L 122.254382 85.948584 
L 122.412135 86.052944 
L 122.72764 86.157303 
L 123.46382 86.226876 
L 123.621573 86.400809 
L 123.779326 86.400809 
L 124.094831 87.096539 
L 124.410337 87.479191 
L 124.620674 87.583551 
L 124.778427 87.861843 
L 124.93618 88.000989 
L 125.093933 88.279281 
L 125.146517 88.314067 
L 125.30427 88.975011 
L 125.356854 88.975011 
L 125.514607 89.253303 
L 125.724944 89.462022 
L 125.882697 89.601169 
L 126.145618 89.809888 
L 126.303371 90.227326 
L 126.408539 90.331685 
L 126.566292 91.027416 
L 127.039551 91.410067 
L 127.197303 91.827506 
L 127.302472 91.897079 
L 127.77573 92.836315 
L 127.986067 93.045034 
L 128.196404 93.462472 
L 128.354157 93.462472 
L 128.932584 94.749573 
L 129.142921 94.853933 
L 129.195506 94.888719 
L 129.405843 95.271371 
L 129.668764 95.37573 
L 129.773933 95.514876 
L 129.931685 96.071461 
L 130.510112 97.636854 
L 130.878202 98.158652 
L 130.983371 98.158652 
L 131.088539 98.715236 
L 131.298876 99.480539 
L 131.456629 99.550112 
L 131.614382 99.654472 
L 131.824719 99.793618 
L 131.982472 100.07191 
L 132.140225 100.07191 
L 132.403146 100.837213 
L 132.666067 101.011146 
L 133.297079 101.498157 
L 133.507416 102.298247 
L 133.56 102.298247 
L 133.822921 103.028764 
L 134.085843 103.133124 
L 134.243596 103.341843 
L 134.401348 103.550562 
L 134.611685 103.654921 
L 134.769438 103.933213 
L 134.874607 104.002787 
L 135.137528 104.907236 
L 135.453034 105.220315 
L 135.663371 105.46382 
L 135.715955 105.46382 
L 135.978876 106.055191 
L 136.084045 106.298697 
L 136.084045 106.298697 
" clip-path="url(#p89cb070107)" style="fill: none; stroke: #e76f51; stroke-width: 1.8; stroke-linecap: square"/>
   </g>
   <g id="patch_3">
    <path d="M 54 388.8 
L 54 17.28 
" style="fill: none; stroke: #000000; stroke-width: 0.8; stroke-linejoin: miter; stroke-linecap: square"/>
   </g>
   <g id="patch_4">
    <path d="M 334.8 388.8 
L 334.8 17.28 
" style="fill: none; stroke: #000000; stroke-width: 0.8; stroke-linejoin: miter; stroke-linecap: square"/>
   </g>
   <g id="patch_5">
    <path d="M 54 388.8 
L 334.8 388.8 
" style="fill: none; stroke: #000000; stroke-width: 0.8; stroke-linejoin: miter; stroke-linecap: square"/>
   </g>
   <g id="patch_6">
    <path d="M 54 17.28 
L 334.8 17.28 
" style="fill: none; stroke: #000000; stroke-width: 0.8; stroke-linejoin: miter; stroke-linecap: square"/>
   </g>
   <g id="legend_1">
    <g id="patch_7">
     <path d="M 241.51125 132.5625 
L 326.4 132.5625 
Q 328.8 132.5625 328.8 130.1625 
L 328.8 25.68 
Q 328.8 23.28 326.4 23.28 
L 241.51125 23.28 
Q 239.11125 23.28 239.11125 25.68 
L 239.11125 130.1625 
Q 239.11125 132.5625 241.51125 132.5625 
z
" style="fill: #ffffff; opacity: 0.8; stroke: #cccccc; stroke-linejoin: miter"/>
    </g>
    <g id="line2d_35">
     <path d="M 243.91125 32.998125 
L 255.91125 32.998125 
L 267.91125 32.998125 
" style="fill: none; stroke: #d80000; stroke-width: 1.8; stroke-linecap: square"/>
    </g>
    <g id="text_17">
     <!-- None -->
     <g transform="translate(277.51125 37.198125) scale(0.12 -0.12)">
      <defs>
       <path id="DejaVuSans-4e" d="M 628 4666 
L 1478 4666 
L 3547 763 
L 3547 4666 
L 4159 4666 
L 4159 0 
L 3309 0 
L 1241 3903 
L 1241 0 
L 628 0 
L 628 4666 
z
" transform="scale(0.015625)"/>
       <path id="DejaVuSans-6e" d="M 3513 2113 
L 3513 0 
L 2938 0 
L 2938 2094 
Q 2938 2591 2744 2837 
Q 2550 3084 2163 3084 
Q 1697 3084 1428 2787 
Q 1159 2491 1159 1978 
L 1159 0 
L 581 0 
L 581 3500 
L 1159 3500 
L 1159 2956 
Q 1366 3272 1645 3428 
Q 1925 3584 2291 3584 
Q 2894 3584 3203 3211 
Q 3513 2838 3513 2113 
z
" transform="scale(0.015625)"/>
      </defs>
      <use xlink:href="#DejaVuSans-4e"/>
      <use xlink:href="#DejaVuSans-6f" x="74.804688"/>
      <use xlink:href="#DejaVuSans-6e" x="135.986328"/>
      <use xlink:href="#DejaVuSans-65" x="199.365234"/>
     </g>
    </g>
    <g id="line2d_36">
     <path d="M 243.91125 50.611875 
L 255.91125 50.611875 
L 267.91125 50.611875 
" style="fill: none; stroke: #264653; stroke-width: 1.8; stroke-linecap: square"/>
    </g>
    <g id="text_18">
     <!-- HD -->
     <g transform="translate(277.51125 54.811875) scale(0.12 -0.12)">
      <defs>
       <path id="DejaVuSans-48" d="M 628 4666 
L 1259 4666 
L 1259 2753 
L 3553 2753 
L 3553 4666 
L 4184 4666 
L 4184 0 
L 3553 0 
L 3553 2222 
L 1259 2222 
L 1259 0 
L 628 0 
L 628 4666 
z
" transform="scale(0.015625)"/>
       <path id="DejaVuSans-44" d="M 1259 4147 
L 1259 519 
L 2022 519 
Q 2988 519 3436 956 
Q 3884 1394 3884 2338 
Q 3884 3275 3436 3711 
Q 2988 4147 2022 4147 
L 1259 4147 
z
M 628 4666 
L 1925 4666 
Q 3281 4666 3915 4102 
Q 4550 3538 4550 2338 
Q 4550 1131 3912 565 
Q 3275 0 1925 0 
L 628 0 
L 628 4666 
z
" transform="scale(0.015625)"/>
      </defs>
      <use xlink:href="#DejaVuSans-48"/>
      <use xlink:href="#DejaVuSans-44" x="75.195312"/>
     </g>
    </g>
    <g id="line2d_37">
     <path d="M 243.91125 68.225625 
L 255.91125 68.225625 
L 267.91125 68.225625 
" style="fill: none; stroke: #ffe211; stroke-width: 1.8; stroke-linecap: square"/>
    </g>
    <g id="text_19">
     <!-- GND -->
     <g transform="translate(277.51125 72.425625) scale(0.12 -0.12)">
      <use xlink:href="#DejaVuSans-47"/>
      <use xlink:href="#DejaVuSans-4e" x="77.490234"/>
      <use xlink:href="#DejaVuSans-44" x="152.294922"/>
     </g>
    </g>
    <g id="line2d_38">
     <path d="M 243.91125 85.839375 
L 255.91125 85.839375 
L 267.91125 85.839375 
" style="fill: none; stroke: #39c5bb; stroke-width: 1.8; stroke-linecap: square"/>
    </g>
    <g id="text_20">
     <!-- BT -->
     <g transform="translate(277.51125 90.039375) scale(0.12 -0.12)">
      <defs>
       <path id="DejaVuSans-42" d="M 1259 2228 
L 1259 519 
L 2272 519 
Q 2781 519 3026 730 
Q 3272 941 3272 1375 
Q 3272 1813 3026 2020 
Q 2781 2228 2272 2228 
L 1259 2228 
z
M 1259 4147 
L 1259 2741 
L 2194 2741 
Q 2656 2741 2882 2914 
Q 3109 3088 3109 3444 
Q 3109 3797 2882 3972 
Q 2656 4147 2194 4147 
L 1259 4147 
z
M 628 4666 
L 2241 4666 
Q 2963 4666 3353 4366 
Q 3744 4066 3744 3513 
Q 3744 3084 3544 2831 
Q 3344 2578 2956 2516 
Q 3422 2416 3680 2098 
Q 3938 1781 3938 1306 
Q 3938 681 3513 340 
Q 3088 0 2303 0 
L 628 0 
L 628 4666 
z
" transform="scale(0.015625)"/>
       <path id="DejaVuSans-54" d="M -19 4666 
L 3928 4666 
L 3928 4134 
L 2272 4134 
L 2272 0 
L 1638 0 
L 1638 4134 
L -19 4134 
L -19 4666 
z
" transform="scale(0.015625)"/>
      </defs>
      <use xlink:href="#DejaVuSans-42"/>
      <use xlink:href="#DejaVuSans-54" x="68.603516"/>
     </g>
    </g>
    <g id="line2d_39">
     <path d="M 243.91125 103.453125 
L 255.91125 103.453125 
L 267.91125 103.453125 
" style="fill: none; stroke: #2a9d8f; stroke-width: 1.8; stroke-linecap: square"/>
    </g>
    <g id="text_21">
     <!-- DSTS-K -->
     <g transform="translate(277.51125 107.653125) scale(0.12 -0.12)">
      <defs>
       <path id="DejaVuSans-2d" d="M 313 2009 
L 1997 2009 
L 1997 1497 
L 313 1497 
L 313 2009 
z
" transform="scale(0.015625)"/>
       <path id="DejaVuSans-4b" d="M 628 4666 
L 1259 4666 
L 1259 2694 
L 3353 4666 
L 4166 4666 
L 1850 2491 
L 4331 0 
L 3500 0 
L 1259 2247 
L 1259 0 
L 628 0 
L 628 4666 
z
" transform="scale(0.015625)"/>
      </defs>
      <use xlink:href="#DejaVuSans-44"/>
      <use xlink:href="#DejaVuSans-53" x="77.001953"/>
      <use xlink:href="#DejaVuSans-54" x="140.478516"/>
      <use xlink:href="#DejaVuSans-53" x="201.5625"/>
      <use xlink:href="#DejaVuSans-2d" x="265.039062"/>
      <use xlink:href="#DejaVuSans-4b" x="301.123047"/>
     </g>
    </g>
    <g id="line2d_40">
     <path d="M 243.91125 121.066875 
L 255.91125 121.066875 
L 267.91125 121.066875 
" style="fill: none; stroke: #e76f51; stroke-width: 1.8; stroke-linecap: square"/>
    </g>
    <g id="text_22">
     <!-- DSTS-M -->
     <g transform="translate(277.51125 125.266875) scale(0.12 -0.12)">
      <defs>
       <path id="DejaVuSans-4d" d="M 628 4666 
L 1569 4666 
L 2759 1491 
L 3956 4666 
L 4897 4666 
L 4897 0 
L 4281 0 
L 4281 4097 
L 3078 897 
L 2444 897 
L 1241 4097 
L 1241 0 
L 628 0 
L 628 4666 
z
" transform="scale(0.015625)"/>
      </defs>
      <use xlink:href="#DejaVuSans-44"/>
      <use xlink:href="#DejaVuSans-53" x="77.001953"/>
      <use xlink:href="#DejaVuSans-54" x="140.478516"/>
      <use xlink:href="#DejaVuSans-53" x="201.5625"/>
      <use xlink:href="#DejaVuSans-2d" x="265.039062"/>
      <use xlink:href="#DejaVuSans-4d" x="301.123047"/>
     </g>
    </g>
   </g>
  </g>
 </g>
 <defs>
  <clipPath id="p89cb070107">
   <rect x="54" y="17.28" width="280.8" height="371.52"/>
  </clipPath>
 </defs>
</svg>
