<?xml version="1.0" encoding="utf-8" standalone="no"?>
<!DOCTYPE svg PUBLIC "-//W3C//DTD SVG 1.1//EN"
  "http://www.w3.org/Graphics/SVG/1.1/DTD/svg11.dtd">
<svg xmlns:xlink="http://www.w3.org/1999/xlink" width="360pt" height="432pt" viewBox="0 0 360 432" xmlns="http://www.w3.org/2000/svg" version="1.1">
 <metadata>
  <rdf:RDF xmlns:dc="http://purl.org/dc/elements/1.1/" xmlns:cc="http://creativecommons.org/ns#" xmlns:rdf="http://www.w3.org/1999/02/22-rdf-syntax-ns#">
   <cc:Work>
    <dc:type rdf:resource="http://purl.org/dc/dcmitype/StillImage"/>
    <dc:date>2026-04-01T12:00:37.072019</dc:date>
    <dc:format>image/svg+xml</dc:format>
    <dc:creator>
     <cc:Agent>
      <dc:title>Matplotlib v3.6.3, https://matplotlib.org/</dc:title>
     </cc:Agent>
    </dc:creator>
   </cc:Work>
  </rdf:RDF>
 </metadata>
 <defs>
  <style type="text/css">*{stroke-linejoin: round; stroke-linecap: butt}</style>
 </defs>
 <g id="figure_1">
  <g id="patch_1">
   <path d="M 0 432 
L 360 432 
L 360 0 
L 0 0 
z
" style="fill: #ffffff"/>
  </g>
  <g id="axes_1">
   <g id="patch_2">
    <path d="M 54 388.8 
L 334.8 388.8 
L 334.8 17.28 
L 54 17.28 
z
" style="fill: #ffffff"/>
   </g>
   <g id="matplotlib.axis_1">
    <g id="xtick_1">
     <g id="line2d_1">
      <path d="M 54 388.8 
L 54 17.28 
" clip-path="url(#pac21c573bb)" style="fill: none; stroke: #000000; stroke-opacity: 0.1; stroke-width: 0.7; stroke-linecap: square"/>
     </g>
     <g id="line2d_2">
      <defs>
       <path id="m2f8a3b226e" d="M 0 0 
L 0 3.5 
" style="stroke: #000000; stroke-width: 0.8"/>
      </defs>
      <g>
       <use xlink:href="#m2f8a3b226e" x="54" y="388.8" style="stroke: #000000; stroke-width: 0.8"/>
      </g>
     </g>
     <g id="text_1">
      <!-- 0.00 -->
      <g transform="translate(39.527344 405.677969) scale(0.13 -0.13)">
       <defs>
        <path id="DejaVuSans-30" d="M 2034 4250 
Q 1547 4250 1301 3770 
Q 1056 3291 1056 2328 
Q 1056 1369 1301 889 
Q 1547 409 2034 409 
Q 2525 409 2770 889 
Q 3016 1369 3016 2328 
Q 3016 3291 2770 3770 
Q 2525 4250 2034 4250 
z
M 2034 4750 
Q 2819 4750 3233 4129 
Q 3647 3509 3647 2328 
Q 3647 1150 3233 529 
Q 2819 -91 2034 -91 
Q 1250 -91 836 529 
Q 422 1150 422 2328 
Q 422 3509 836 4129 
Q 1250 4750 2034 4750 
z
" transform="scale(0.015625)"/>
        <path id="DejaVuSans-2e" d="M 684 794 
L 1344 794 
L 1344 0 
L 684 0 
L 684 794 
z
" transform="scale(0.015625)"/>
       </defs>
       <use xlink:href="#DejaVuSans-30"/>
       <use xlink:href="#DejaVuSans-2e" x="63.623047"/>
       <use xlink:href="#DejaVuSans-30" x="95.410156"/>
       <use xlink:href="#DejaVuSans-30" x="159.033203"/>
      </g>
     </g>
    </g>
    <g id="xtick_2">
     <g id="line2d_3">
      <path d="M 194.4 388.8 
L 194.4 17.28 
" clip-path="url(#pac21c573bb)" style="fill: none; stroke: #000000; stroke-opacity: 0.1; stroke-width: 0.7; stroke-linecap: square"/>
     </g>
     <g id="line2d_4">
      <g>
       <use xlink:href="#m2f8a3b226e" x="194.4" y="388.8" style="stroke: #000000; stroke-width: 0.8"/>
      </g>
     </g>
     <g id="text_2">
      <!-- 0.25 -->
      <g transform="translate(179.927344 405.677969) scale(0.13 -0.13)">
       <defs>
        <path id="DejaVuSans-32" d="M 1228 531 
L 3431 531 
L 3431 0 
L 469 0 
L 469 531 
Q 828 903 1448 1529 
Q 2069 2156 2228 2338 
Q 2531 2678 2651 2914 
Q 2772 3150 2772 3378 
Q 2772 3750 2511 3984 
Q 2250 4219 1831 4219 
Q 1534 4219 1204 4116 
Q 875 4013 500 3803 
L 500 4441 
Q 881 4594 1212 4672 
Q 1544 4750 1819 4750 
Q 2544 4750 2975 4387 
Q 3406 4025 3406 3419 
Q 3406 3131 3298 2873 
Q 3191 2616 2906 2266 
Q 2828 2175 2409 1742 
Q 1991 1309 1228 531 
z
" transform="scale(0.015625)"/>
        <path id="DejaVuSans-35" d="M 691 4666 
L 3169 4666 
L 3169 4134 
L 1269 4134 
L 1269 2991 
Q 1406 3038 1543 3061 
Q 1681 3084 1819 3084 
Q 2600 3084 3056 2656 
Q 3513 2228 3513 1497 
Q 3513 744 3044 326 
Q 2575 -91 1722 -91 
Q 1428 -91 1123 -41 
Q 819 9 494 109 
L 494 744 
Q 775 591 1075 516 
Q 1375 441 1709 441 
Q 2250 441 2565 725 
Q 2881 1009 2881 1497 
Q 2881 1984 2565 2268 
Q 2250 2553 1709 2553 
Q 1456 2553 1204 2497 
Q 953 2441 691 2322 
L 691 4666 
z
" transform="scale(0.015625)"/>
       </defs>
       <use xlink:href="#DejaVuSans-30"/>
       <use xlink:href="#DejaVuSans-2e" x="63.623047"/>
       <use xlink:href="#DejaVuSans-32" x="95.410156"/>
       <use xlink:href="#DejaVuSans-35" x="159.033203"/>
      </g>
     </g>
    </g>
    <g id="xtick_3">
     <g id="line2d_5">
      <path d="M 334.8 388.8 
L 334.8 17.28 
" clip-path="url(#pac21c573bb)" style="fill: none; stroke: #000000; stroke-opacity: 0.1; stroke-width: 0.7; stroke-linecap: square"/>
     </g>
     <g id="line2d_6">
      <g>
       <use xlink:href="#m2f8a3b226e" x="334.8" y="388.8" style="stroke: #000000; stroke-width: 0.8"/>
      </g>
     </g>
     <g id="text_3">
      <!-- 0.50 -->
      <g transform="translate(320.327344 405.677969) scale(0.13 -0.13)">
       <use xlink:href="#DejaVuSans-30"/>
       <use xlink:href="#DejaVuSans-2e" x="63.623047"/>
       <use xlink:href="#DejaVuSans-35" x="95.410156"/>
       <use xlink:href="#DejaVuSans-30" x="159.033203"/>
      </g>
     </g>
    </g>
    <g id="text_4">
     <!-- Attack Ratio -->
     <g transform="translate(145.78375 424.539062) scale(0.16 -0.16)">
      <defs>
       <path id="DejaVuSans-41" d="M 2188 4044 
L 1331 1722 
L 3047 1722 
L 2188 4044 
z
M 1831 4666 
L 2547 4666 
L 4325 0 
L 3669 0 
L 3244 1197 
L 1141 1197 
L 716 0 
L 50 0 
L 1831 4666 
z
" transform="scale(0.015625)"/>
       <path id="DejaVuSans-74" d="M 1172 4494 
L 1172 3500 
L 2356 3500 
L 2356 3053 
L 1172 3053 
L 1172 1153 
Q 1172 725 1289 603 
Q 1406 481 1766 481 
L 2356 481 
L 2356 0 
L 1766 0 
Q 1100 0 847 248 
Q 594 497 594 1153 
L 594 3053 
L 172 3053 
L 172 3500 
L 594 3500 
L 594 4494 
L 1172 4494 
z
" transform="scale(0.015625)"/>
       <path id="DejaVuSans-61" d="M 2194 1759 
Q 1497 1759 1228 1600 
Q 959 1441 959 1056 
Q 959 750 1161 570 
Q 1363 391 1709 391 
Q 2188 391 2477 730 
Q 2766 1069 2766 1631 
L 2766 1759 
L 2194 1759 
z
M 3341 1997 
L 3341 0 
L 2766 0 
L 2766 531 
Q 2569 213 2275 61 
Q 1981 -91 1556 -91 
Q 1019 -91 701 211 
Q 384 513 384 1019 
Q 384 1609 779 1909 
Q 1175 2209 1959 2209 
L 2766 2209 
L 2766 2266 
Q 2766 2663 2505 2880 
Q 2244 3097 1772 3097 
Q 1472 3097 1187 3025 
Q 903 2953 641 2809 
L 641 3341 
Q 956 3463 1253 3523 
Q 1550 3584 1831 3584 
Q 2591 3584 2966 3190 
Q 3341 2797 3341 1997 
z
" transform="scale(0.015625)"/>
       <path id="DejaVuSans-63" d="M 3122 3366 
L 3122 2828 
Q 2878 2963 2633 3030 
Q 2388 3097 2138 3097 
Q 1578 3097 1268 2742 
Q 959 2388 959 1747 
Q 959 1106 1268 751 
Q 1578 397 2138 397 
Q 2388 397 2633 464 
Q 2878 531 3122 666 
L 3122 134 
Q 2881 22 2623 -34 
Q 2366 -91 2075 -91 
Q 1284 -91 818 406 
Q 353 903 353 1747 
Q 353 2603 823 3093 
Q 1294 3584 2113 3584 
Q 2378 3584 2631 3529 
Q 2884 3475 3122 3366 
z
" transform="scale(0.015625)"/>
       <path id="DejaVuSans-6b" d="M 581 4863 
L 1159 4863 
L 1159 1991 
L 2875 3500 
L 3609 3500 
L 1753 1863 
L 3688 0 
L 2938 0 
L 1159 1709 
L 1159 0 
L 581 0 
L 581 4863 
z
" transform="scale(0.015625)"/>
       <path id="DejaVuSans-20" transform="scale(0.015625)"/>
       <path id="DejaVuSans-52" d="M 2841 2188 
Q 3044 2119 3236 1894 
Q 3428 1669 3622 1275 
L 4263 0 
L 3584 0 
L 2988 1197 
Q 2756 1666 2539 1819 
Q 2322 1972 1947 1972 
L 1259 1972 
L 1259 0 
L 628 0 
L 628 4666 
L 2053 4666 
Q 2853 4666 3247 4331 
Q 3641 3997 3641 3322 
Q 3641 2881 3436 2590 
Q 3231 2300 2841 2188 
z
M 1259 4147 
L 1259 2491 
L 2053 2491 
Q 2509 2491 2742 2702 
Q 2975 2913 2975 3322 
Q 2975 3731 2742 3939 
Q 2509 4147 2053 4147 
L 1259 4147 
z
" transform="scale(0.015625)"/>
       <path id="DejaVuSans-69" d="M 603 3500 
L 1178 3500 
L 1178 0 
L 603 0 
L 603 3500 
z
M 603 4863 
L 1178 4863 
L 1178 4134 
L 603 4134 
L 603 4863 
z
" transform="scale(0.015625)"/>
       <path id="DejaVuSans-6f" d="M 1959 3097 
Q 1497 3097 1228 2736 
Q 959 2375 959 1747 
Q 959 1119 1226 758 
Q 1494 397 1959 397 
Q 2419 397 2687 759 
Q 2956 1122 2956 1747 
Q 2956 2369 2687 2733 
Q 2419 3097 1959 3097 
z
M 1959 3584 
Q 2709 3584 3137 3096 
Q 3566 2609 3566 1747 
Q 3566 888 3137 398 
Q 2709 -91 1959 -91 
Q 1206 -91 779 398 
Q 353 888 353 1747 
Q 353 2609 779 3096 
Q 1206 3584 1959 3584 
z
" transform="scale(0.015625)"/>
      </defs>
      <use xlink:href="#DejaVuSans-41"/>
      <use xlink:href="#DejaVuSans-74" x="66.658203"/>
      <use xlink:href="#DejaVuSans-74" x="105.867188"/>
      <use xlink:href="#DejaVuSans-61" x="145.076172"/>
      <use xlink:href="#DejaVuSans-63" x="206.355469"/>
      <use xlink:href="#DejaVuSans-6b" x="261.335938"/>
      <use xlink:href="#DejaVuSans-20" x="319.246094"/>
      <use xlink:href="#DejaVuSans-52" x="351.033203"/>
      <use xlink:href="#DejaVuSans-61" x="418.265625"/>
      <use xlink:href="#DejaVuSans-74" x="479.544922"/>
      <use xlink:href="#DejaVuSans-69" x="518.753906"/>
      <use xlink:href="#DejaVuSans-6f" x="546.537109"/>
     </g>
    </g>
   </g>
   <g id="matplotlib.axis_2">
    <g id="ytick_1">
     <g id="line2d_7">
      <path d="M 54 388.8 
L 334.8 388.8 
" clip-path="url(#pac21c573bb)" style="fill: none; stroke: #000000; stroke-opacity: 0.1; stroke-width: 0.7; stroke-linecap: square"/>
     </g>
     <g id="line2d_8">
      <defs>
       <path id="ma1ca076231" d="M 0 0 
L -3.5 0 
" style="stroke: #000000; stroke-width: 0.8"/>
      </defs>
      <g>
       <use xlink:href="#ma1ca076231" x="54" y="388.8" style="stroke: #000000; stroke-width: 0.8"/>
      </g>
     </g>
     <g id="text_5">
      <!-- 0.0 -->
      <g transform="translate(26.325937 393.738984) scale(0.13 -0.13)">
       <use xlink:href="#DejaVuSans-30"/>
       <use xlink:href="#DejaVuSans-2e" x="63.623047"/>
       <use xlink:href="#DejaVuSans-30" x="95.410156"/>
      </g>
     </g>
    </g>
    <g id="ytick_2">
     <g id="line2d_9">
      <path d="M 54 351.648 
L 334.8 351.648 
" clip-path="url(#pac21c573bb)" style="fill: none; stroke: #000000; stroke-opacity: 0.1; stroke-width: 0.7; stroke-linecap: square"/>
     </g>
     <g id="line2d_10">
      <g>
       <use xlink:href="#ma1ca076231" x="54" y="351.648" style="stroke: #000000; stroke-width: 0.8"/>
      </g>
     </g>
     <g id="text_6">
      <!-- 0.1 -->
      <g transform="translate(26.325937 356.586984) scale(0.13 -0.13)">
       <defs>
        <path id="DejaVuSans-31" d="M 794 531 
L 1825 531 
L 1825 4091 
L 703 3866 
L 703 4441 
L 1819 4666 
L 2450 4666 
L 2450 531 
L 3481 531 
L 3481 0 
L 794 0 
L 794 531 
z
" transform="scale(0.015625)"/>
       </defs>
       <use xlink:href="#DejaVuSans-30"/>
       <use xlink:href="#DejaVuSans-2e" x="63.623047"/>
       <use xlink:href="#DejaVuSans-31" x="95.410156"/>
      </g>
     </g>
    </g>
    <g id="ytick_3">
     <g id="line2d_11">
      <path d="M 54 314.496 
L 334.8 314.496 
" clip-path="url(#pac21c573bb)" style="fill: none; stroke: #000000; stroke-opacity: 0.1; stroke-width: 0.7; stroke-linecap: square"/>
     </g>
     <g id="line2d_12">
      <g>
       <use xlink:href="#ma1ca076231" x="54" y="314.496" style="stroke: #000000; stroke-width: 0.8"/>
      </g>
     </g>
     <g id="text_7">
      <!-- 0.2 -->
      <g transform="translate(26.325937 319.434984) scale(0.13 -0.13)">
       <use xlink:href="#DejaVuSans-30"/>
       <use xlink:href="#DejaVuSans-2e" x="63.623047"/>
       <use xlink:href="#DejaVuSans-32" x="95.410156"/>
      </g>
     </g>
    </g>
    <g id="ytick_4">
     <g id="line2d_13">
      <path d="M 54 277.344 
L 334.8 277.344 
" clip-path="url(#pac21c573bb)" style="fill: none; stroke: #000000; stroke-opacity: 0.1; stroke-width: 0.7; stroke-linecap: square"/>
     </g>
     <g id="line2d_14">
      <g>
       <use xlink:href="#ma1ca076231" x="54" y="277.344" style="stroke: #000000; stroke-width: 0.8"/>
      </g>
     </g>
     <g id="text_8">
      <!-- 0.3 -->
      <g transform="translate(26.325937 282.282984) scale(0.13 -0.13)">
       <defs>
        <path id="DejaVuSans-33" d="M 2597 2516 
Q 3050 2419 3304 2112 
Q 3559 1806 3559 1356 
Q 3559 666 3084 287 
Q 2609 -91 1734 -91 
Q 1441 -91 1130 -33 
Q 819 25 488 141 
L 488 750 
Q 750 597 1062 519 
Q 1375 441 1716 441 
Q 2309 441 2620 675 
Q 2931 909 2931 1356 
Q 2931 1769 2642 2001 
Q 2353 2234 1838 2234 
L 1294 2234 
L 1294 2753 
L 1863 2753 
Q 2328 2753 2575 2939 
Q 2822 3125 2822 3475 
Q 2822 3834 2567 4026 
Q 2313 4219 1838 4219 
Q 1578 4219 1281 4162 
Q 984 4106 628 3988 
L 628 4550 
Q 988 4650 1302 4700 
Q 1616 4750 1894 4750 
Q 2613 4750 3031 4423 
Q 3450 4097 3450 3541 
Q 3450 3153 3228 2886 
Q 3006 2619 2597 2516 
z
" transform="scale(0.015625)"/>
       </defs>
       <use xlink:href="#DejaVuSans-30"/>
       <use xlink:href="#DejaVuSans-2e" x="63.623047"/>
       <use xlink:href="#DejaVuSans-33" x="95.410156"/>
      </g>
     </g>
    </g>
    <g id="ytick_5">
     <g id="line2d_15">
      <path d="M 54 240.192 
L 334.8 240.192 
" clip-path="url(#pac21c573bb)" style="fill: none; stroke: #000000; stroke-opacity: 0.1; stroke-width: 0.7; stroke-linecap: square"/>
     </g>
     <g id="line2d_16">
      <g>
       <use xlink:href="#ma1ca076231" x="54" y="240.192" style="stroke: #000000; stroke-width: 0.8"/>
      </g>
     </g>
     <g id="text_9">
      <!-- 0.4 -->
      <g transform="translate(26.325937 245.130984) scale(0.13 -0.13)">
       <defs>
        <path id="DejaVuSans-34" d="M 2419 4116 
L 825 1625 
L 2419 1625 
L 2419 4116 
z
M 2253 4666 
L 3047 4666 
L 3047 1625 
L 3713 1625 
L 3713 1100 
L 3047 1100 
L 3047 0 
L 2419 0 
L 2419 1100 
L 313 1100 
L 313 1709 
L 2253 4666 
z
" transform="scale(0.015625)"/>
       </defs>
       <use xlink:href="#DejaVuSans-30"/>
       <use xlink:href="#DejaVuSans-2e" x="63.623047"/>
       <use xlink:href="#DejaVuSans-34" x="95.410156"/>
      </g>
     </g>
    </g>
    <g id="ytick_6">
     <g id="line2d_17">
      <path d="M 54 203.04 
L 334.8 203.04 
" clip-path="url(#pac21c573bb)" style="fill: none; stroke: #000000; stroke-opacity: 0.1; stroke-width: 0.7; stroke-linecap: square"/>
     </g>
     <g id="line2d_18">
      <g>
       <use xlink:href="#ma1ca076231" x="54" y="203.04" style="stroke: #000000; stroke-width: 0.8"/>
      </g>
     </g>
     <g id="text_10">
      <!-- 0.5 -->
      <g transform="translate(26.325937 207.978984) scale(0.13 -0.13)">
       <use xlink:href="#DejaVuSans-30"/>
       <use xlink:href="#DejaVuSans-2e" x="63.623047"/>
       <use xlink:href="#DejaVuSans-35" x="95.410156"/>
      </g>
     </g>
    </g>
    <g id="ytick_7">
     <g id="line2d_19">
      <path d="M 54 165.888 
L 334.8 165.888 
" clip-path="url(#pac21c573bb)" style="fill: none; stroke: #000000; stroke-opacity: 0.1; stroke-width: 0.7; stroke-linecap: square"/>
     </g>
     <g id="line2d_20">
      <g>
       <use xlink:href="#ma1ca076231" x="54" y="165.888" style="stroke: #000000; stroke-width: 0.8"/>
      </g>
     </g>
     <g id="text_11">
      <!-- 0.6 -->
      <g transform="translate(26.325937 170.826984) scale(0.13 -0.13)">
       <defs>
        <path id="DejaVuSans-36" d="M 2113 2584 
Q 1688 2584 1439 2293 
Q 1191 2003 1191 1497 
Q 1191 994 1439 701 
Q 1688 409 2113 409 
Q 2538 409 2786 701 
Q 3034 994 3034 1497 
Q 3034 2003 2786 2293 
Q 2538 2584 2113 2584 
z
M 3366 4563 
L 3366 3988 
Q 3128 4100 2886 4159 
Q 2644 4219 2406 4219 
Q 1781 4219 1451 3797 
Q 1122 3375 1075 2522 
Q 1259 2794 1537 2939 
Q 1816 3084 2150 3084 
Q 2853 3084 3261 2657 
Q 3669 2231 3669 1497 
Q 3669 778 3244 343 
Q 2819 -91 2113 -91 
Q 1303 -91 875 529 
Q 447 1150 447 2328 
Q 447 3434 972 4092 
Q 1497 4750 2381 4750 
Q 2619 4750 2861 4703 
Q 3103 4656 3366 4563 
z
" transform="scale(0.015625)"/>
       </defs>
       <use xlink:href="#DejaVuSans-30"/>
       <use xlink:href="#DejaVuSans-2e" x="63.623047"/>
       <use xlink:href="#DejaVuSans-36" x="95.410156"/>
      </g>
     </g>
    </g>
    <g id="ytick_8">
     <g id="line2d_21">
      <path d="M 54 128.736 
L 334.8 128.736 
" clip-path="url(#pac21c573bb)" style="fill: none; stroke: #000000; stroke-opacity: 0.1; stroke-width: 0.7; stroke-linecap: square"/>
     </g>
     <g id="line2d_22">
      <g>
       <use xlink:href="#ma1ca076231" x="54" y="128.736" style="stroke: #000000; stroke-width: 0.8"/>
      </g>
     </g>
     <g id="text_12">
      <!-- 0.7 -->
      <g transform="translate(26.325937 133.674984) scale(0.13 -0.13)">
       <defs>
        <path id="DejaVuSans-37" d="M 525 4666 
L 3525 4666 
L 3525 4397 
L 1831 0 
L 1172 0 
L 2766 4134 
L 525 4134 
L 525 4666 
z
" transform="scale(0.015625)"/>
       </defs>
       <use xlink:href="#DejaVuSans-30"/>
       <use xlink:href="#DejaVuSans-2e" x="63.623047"/>
       <use xlink:href="#DejaVuSans-37" x="95.410156"/>
      </g>
     </g>
    </g>
    <g id="ytick_9">
     <g id="line2d_23">
      <path d="M 54 91.584 
L 334.8 91.584 
" clip-path="url(#pac21c573bb)" style="fill: none; stroke: #000000; stroke-opacity: 0.1; stroke-width: 0.7; stroke-linecap: square"/>
     </g>
     <g id="line2d_24">
      <g>
       <use xlink:href="#ma1ca076231" x="54" y="91.584" style="stroke: #000000; stroke-width: 0.8"/>
      </g>
     </g>
     <g id="text_13">
      <!-- 0.8 -->
      <g transform="translate(26.325937 96.522984) scale(0.13 -0.13)">
       <defs>
        <path id="DejaVuSans-38" d="M 2034 2216 
Q 1584 2216 1326 1975 
Q 1069 1734 1069 1313 
Q 1069 891 1326 650 
Q 1584 409 2034 409 
Q 2484 409 2743 651 
Q 3003 894 3003 1313 
Q 3003 1734 2745 1975 
Q 2488 2216 2034 2216 
z
M 1403 2484 
Q 997 2584 770 2862 
Q 544 3141 544 3541 
Q 544 4100 942 4425 
Q 1341 4750 2034 4750 
Q 2731 4750 3128 4425 
Q 3525 4100 3525 3541 
Q 3525 3141 3298 2862 
Q 3072 2584 2669 2484 
Q 3125 2378 3379 2068 
Q 3634 1759 3634 1313 
Q 3634 634 3220 271 
Q 2806 -91 2034 -91 
Q 1263 -91 848 271 
Q 434 634 434 1313 
Q 434 1759 690 2068 
Q 947 2378 1403 2484 
z
M 1172 3481 
Q 1172 3119 1398 2916 
Q 1625 2713 2034 2713 
Q 2441 2713 2670 2916 
Q 2900 3119 2900 3481 
Q 2900 3844 2670 4047 
Q 2441 4250 2034 4250 
Q 1625 4250 1398 4047 
Q 1172 3844 1172 3481 
z
" transform="scale(0.015625)"/>
       </defs>
       <use xlink:href="#DejaVuSans-30"/>
       <use xlink:href="#DejaVuSans-2e" x="63.623047"/>
       <use xlink:href="#DejaVuSans-38" x="95.410156"/>
      </g>
     </g>
    </g>
    <g id="ytick_10">
     <g id="line2d_25">
      <path d="M 54 54.432 
L 334.8 54.432 
" clip-path="url(#pac21c573bb)" style="fill: none; stroke: #000000; stroke-opacity: 0.1; stroke-width: 0.7; stroke-linecap: square"/>
     </g>
     <g id="line2d_26">
      <g>
       <use xlink:href="#ma1ca076231" x="54" y="54.432" style="stroke: #000000; stroke-width: 0.8"/>
      </g>
     </g>
     <g id="text_14">
      <!-- 0.9 -->
      <g transform="translate(26.325937 59.370984) scale(0.13 -0.13)">
       <defs>
        <path id="DejaVuSans-39" d="M 703 97 
L 703 672 
Q 941 559 1184 500 
Q 1428 441 1663 441 
Q 2288 441 2617 861 
Q 2947 1281 2994 2138 
Q 2813 1869 2534 1725 
Q 2256 1581 1919 1581 
Q 1219 1581 811 2004 
Q 403 2428 403 3163 
Q 403 3881 828 4315 
Q 1253 4750 1959 4750 
Q 2769 4750 3195 4129 
Q 3622 3509 3622 2328 
Q 3622 1225 3098 567 
Q 2575 -91 1691 -91 
Q 1453 -91 1209 -44 
Q 966 3 703 97 
z
M 1959 2075 
Q 2384 2075 2632 2365 
Q 2881 2656 2881 3163 
Q 2881 3666 2632 3958 
Q 2384 4250 1959 4250 
Q 1534 4250 1286 3958 
Q 1038 3666 1038 3163 
Q 1038 2656 1286 2365 
Q 1534 2075 1959 2075 
z
" transform="scale(0.015625)"/>
       </defs>
       <use xlink:href="#DejaVuSans-30"/>
       <use xlink:href="#DejaVuSans-2e" x="63.623047"/>
       <use xlink:href="#DejaVuSans-39" x="95.410156"/>
      </g>
     </g>
    </g>
    <g id="ytick_11">
     <g id="line2d_27">
      <path d="M 54 17.28 
L 334.8 17.28 
" clip-path="url(#pac21c573bb)" style="fill: none; stroke: #000000; stroke-opacity: 0.1; stroke-width: 0.7; stroke-linecap: square"/>
     </g>
     <g id="line2d_28">
      <g>
       <use xlink:href="#ma1ca076231" x="54" y="17.28" style="stroke: #000000; stroke-width: 0.8"/>
      </g>
     </g>
     <g id="text_15">
      <!-- 1.0 -->
      <g transform="translate(26.325937 22.218984) scale(0.13 -0.13)">
       <use xlink:href="#DejaVuSans-31"/>
       <use xlink:href="#DejaVuSans-2e" x="63.623047"/>
       <use xlink:href="#DejaVuSans-30" x="95.410156"/>
      </g>
     </g>
    </g>
    <g id="text_16">
     <!-- GCC Size -->
     <g transform="translate(18.998437 239.37625) rotate(-90) scale(0.16 -0.16)">
      <defs>
       <path id="DejaVuSans-47" d="M 3809 666 
L 3809 1919 
L 2778 1919 
L 2778 2438 
L 4434 2438 
L 4434 434 
Q 4069 175 3628 42 
Q 3188 -91 2688 -91 
Q 1594 -91 976 548 
Q 359 1188 359 2328 
Q 359 3472 976 4111 
Q 1594 4750 2688 4750 
Q 3144 4750 3555 4637 
Q 3966 4525 4313 4306 
L 4313 3634 
Q 3963 3931 3569 4081 
Q 3175 4231 2741 4231 
Q 1884 4231 1454 3753 
Q 1025 3275 1025 2328 
Q 1025 1384 1454 906 
Q 1884 428 2741 428 
Q 3075 428 3337 486 
Q 3600 544 3809 666 
z
" transform="scale(0.015625)"/>
       <path id="DejaVuSans-43" d="M 4122 4306 
L 4122 3641 
Q 3803 3938 3442 4084 
Q 3081 4231 2675 4231 
Q 1875 4231 1450 3742 
Q 1025 3253 1025 2328 
Q 1025 1406 1450 917 
Q 1875 428 2675 428 
Q 3081 428 3442 575 
Q 3803 722 4122 1019 
L 4122 359 
Q 3791 134 3420 21 
Q 3050 -91 2638 -91 
Q 1578 -91 968 557 
Q 359 1206 359 2328 
Q 359 3453 968 4101 
Q 1578 4750 2638 4750 
Q 3056 4750 3426 4639 
Q 3797 4528 4122 4306 
z
" transform="scale(0.015625)"/>
       <path id="DejaVuSans-53" d="M 3425 4513 
L 3425 3897 
Q 3066 4069 2747 4153 
Q 2428 4238 2131 4238 
Q 1616 4238 1336 4038 
Q 1056 3838 1056 3469 
Q 1056 3159 1242 3001 
Q 1428 2844 1947 2747 
L 2328 2669 
Q 3034 2534 3370 2195 
Q 3706 1856 3706 1288 
Q 3706 609 3251 259 
Q 2797 -91 1919 -91 
Q 1588 -91 1214 -16 
Q 841 59 441 206 
L 441 856 
Q 825 641 1194 531 
Q 1563 422 1919 422 
Q 2459 422 2753 634 
Q 3047 847 3047 1241 
Q 3047 1584 2836 1778 
Q 2625 1972 2144 2069 
L 1759 2144 
Q 1053 2284 737 2584 
Q 422 2884 422 3419 
Q 422 4038 858 4394 
Q 1294 4750 2059 4750 
Q 2388 4750 2728 4690 
Q 3069 4631 3425 4513 
z
" transform="scale(0.015625)"/>
       <path id="DejaVuSans-7a" d="M 353 3500 
L 3084 3500 
L 3084 2975 
L 922 459 
L 3084 459 
L 3084 0 
L 275 0 
L 275 525 
L 2438 3041 
L 353 3041 
L 353 3500 
z
" transform="scale(0.015625)"/>
       <path id="DejaVuSans-65" d="M 3597 1894 
L 3597 1613 
L 953 1613 
Q 991 1019 1311 708 
Q 1631 397 2203 397 
Q 2534 397 2845 478 
Q 3156 559 3463 722 
L 3463 178 
Q 3153 47 2828 -22 
Q 2503 -91 2169 -91 
Q 1331 -91 842 396 
Q 353 884 353 1716 
Q 353 2575 817 3079 
Q 1281 3584 2069 3584 
Q 2775 3584 3186 3129 
Q 3597 2675 3597 1894 
z
M 3022 2063 
Q 3016 2534 2758 2815 
Q 2500 3097 2075 3097 
Q 1594 3097 1305 2825 
Q 1016 2553 972 2059 
L 3022 2063 
z
" transform="scale(0.015625)"/>
      </defs>
      <use xlink:href="#DejaVuSans-47"/>
      <use xlink:href="#DejaVuSans-43" x="77.490234"/>
      <use xlink:href="#DejaVuSans-43" x="147.314453"/>
      <use xlink:href="#DejaVuSans-20" x="217.138672"/>
      <use xlink:href="#DejaVuSans-53" x="248.925781"/>
      <use xlink:href="#DejaVuSans-69" x="312.402344"/>
      <use xlink:href="#DejaVuSans-7a" x="340.185547"/>
      <use xlink:href="#DejaVuSans-65" x="392.675781"/>
     </g>
    </g>
   </g>
   <g id="line2d_29">
    <path d="M 54.459574 18.800131 
L 54.919149 19.104157 
L 55.378723 19.712209 
L 56.297872 20.320262 
L 56.757447 21.840393 
L 62.731915 25.792733 
L 63.191489 26.704812 
L 65.029787 27.920917 
L 65.489362 29.137021 
L 67.32766 30.353126 
L 67.787234 30.961178 
L 71.923404 33.697414 
L 72.382979 34.305466 
L 72.842553 34.609493 
L 73.302128 38.257807 
L 73.761702 38.561833 
L 74.221277 39.473912 
L 74.680851 40.690016 
L 75.140426 40.994043 
L 75.6 42.210147 
L 76.059574 42.8182 
L 76.978723 43.426252 
L 77.438298 44.034304 
L 77.897872 45.554435 
L 78.357447 46.162488 
L 79.73617 47.074566 
L 80.195745 48.594697 
L 81.114894 49.20275 
L 81.574468 50.114828 
L 82.034043 50.722881 
L 84.331915 52.243011 
L 84.791489 53.763142 
L 86.629787 54.979247 
L 87.089362 57.715483 
L 87.548936 65.012111 
L 88.008511 65.620164 
L 88.468085 68.356399 
L 89.387234 69.572504 
L 89.846809 70.788609 
L 90.765957 72.004714 
L 91.225532 72.916792 
L 93.06383 75.349002 
L 94.442553 76.26108 
L 94.902128 76.869133 
L 96.740426 78.085237 
L 97.2 78.69329 
L 97.659574 79.909394 
L 98.119149 80.517447 
L 98.578723 80.821473 
L 99.957447 82.64563 
L 100.876596 83.253682 
L 101.33617 84.469787 
L 101.795745 84.773813 
L 102.255319 85.381866 
L 103.634043 86.293944 
L 104.093617 86.901997 
L 105.47234 87.814075 
L 105.931915 88.726154 
L 106.851064 89.334206 
L 107.310638 91.158363 
L 108.229787 91.766416 
L 108.689362 92.678494 
L 110.068085 93.590573 
L 110.52766 94.806678 
L 110.987234 95.41473 
L 111.446809 97.238887 
L 111.906383 97.846939 
L 114.204255 99.36707 
L 114.66383 99.975123 
L 115.582979 100.583175 
L 116.042553 101.191227 
L 116.502128 103.319411 
L 116.961702 103.927463 
L 117.421277 104.231489 
L 117.880851 104.839542 
L 118.8 106.663699 
L 120.178723 107.575777 
L 120.638298 108.487856 
L 121.557447 109.095908 
L 122.017021 110.616039 
L 122.476596 110.920065 
L 122.93617 111.528118 
L 126.153191 113.656301 
L 126.612766 114.264354 
L 127.531915 114.872406 
L 127.991489 115.480458 
L 128.451064 115.784484 
L 128.910638 117.304615 
L 129.370213 117.912668 
L 130.289362 119.736825 
L 132.12766 120.95293 
L 132.587234 122.169034 
L 133.046809 123.993191 
L 133.506383 125.209296 
L 134.425532 125.817349 
L 134.885106 126.425401 
L 135.344681 126.729427 
L 136.26383 127.945532 
L 137.642553 128.85761 
L 138.102128 129.465663 
L 138.561702 129.769689 
L 139.021277 130.377741 
L 140.859574 131.593846 
L 141.319149 134.330082 
L 141.778723 138.890475 
L 143.157447 139.802553 
L 143.617021 140.410606 
L 144.995745 141.322684 
L 145.455319 141.930736 
L 145.914894 143.146841 
L 146.374468 143.754894 
L 146.834043 144.05892 
L 147.293617 144.666972 
L 147.753191 144.970998 
L 148.212766 146.491129 
L 148.67234 146.795155 
L 149.131915 147.707234 
L 149.591489 148.315286 
L 153.268085 150.747496 
L 153.72766 151.355548 
L 156.025532 152.875679 
L 156.485106 153.787758 
L 156.944681 155.003863 
L 157.86383 155.611915 
L 158.323404 156.219967 
L 159.242553 156.82802 
L 159.702128 157.436072 
L 160.161702 158.956203 
L 160.621277 159.260229 
L 161.540426 160.476334 
L 162 160.78036 
L 162.919149 162.604517 
L 165.676596 164.428674 
L 166.13617 165.340753 
L 166.595745 165.644779 
L 167.974468 167.468936 
L 170.27234 168.989067 
L 170.731915 169.901146 
L 176.706383 173.853486 
L 178.085106 175.677643 
L 178.544681 175.981669 
L 179.004255 177.197774 
L 179.923404 177.805827 
L 181.761702 180.238036 
L 182.221277 180.542062 
L 182.680851 181.150115 
L 183.6 181.758167 
L 184.059574 182.366219 
L 186.357447 183.88635 
L 187.276596 185.102455 
L 188.195745 185.710507 
L 189.114894 187.838691 
L 189.574468 188.446743 
L 190.034043 189.358822 
L 190.493617 189.966874 
L 191.87234 190.878953 
L 192.331915 191.487005 
L 192.791489 249.556007 
L 193.251064 250.468085 
L 193.710638 251.076137 
L 194.170213 251.380164 
L 194.629787 251.988216 
L 195.548936 252.596268 
L 196.008511 253.204321 
L 196.92766 253.812373 
L 197.387234 255.028478 
L 197.846809 255.332504 
L 198.306383 256.244583 
L 198.765957 257.460687 
L 200.144681 258.372766 
L 200.604255 259.892897 
L 201.06383 260.196923 
L 201.523404 261.109002 
L 202.442553 261.717054 
L 202.902128 262.325106 
L 203.361702 263.237185 
L 205.2 264.45329 
L 206.119149 265.669394 
L 206.578723 266.885499 
L 207.038298 267.493552 
L 208.876596 268.709656 
L 209.33617 269.621735 
L 209.795745 270.229787 
L 214.391489 273.270049 
L 215.310638 274.486154 
L 216.689362 275.398232 
L 217.608511 277.22239 
L 218.068085 277.526416 
L 218.52766 278.438494 
L 218.987234 279.654599 
L 220.825532 280.870704 
L 221.285106 282.694861 
L 223.123404 283.910966 
L 223.582979 284.519018 
L 224.961702 285.431097 
L 225.421277 286.039149 
L 226.340426 286.647201 
L 226.8 287.55928 
L 227.259574 288.167332 
L 228.178723 288.775385 
L 228.638298 289.383437 
L 229.557447 289.991489 
L 230.017021 291.51162 
L 233.693617 293.94383 
L 234.153191 294.551882 
L 237.370213 296.680065 
L 237.829787 297.288118 
L 238.748936 297.89617 
L 239.208511 299.416301 
L 239.668085 301.544484 
L 241.046809 302.456563 
L 241.506383 303.368642 
L 241.965957 305.800851 
L 242.425532 306.104877 
L 242.885106 307.016956 
L 243.804255 307.625008 
L 244.26383 309.449165 
L 244.723404 309.753191 
L 245.182979 310.361244 
L 245.642553 310.66527 
L 246.102128 311.577349 
L 246.561702 312.185401 
L 247.021277 313.401506 
L 247.940426 314.009558 
L 248.4 315.529689 
L 248.859574 315.833715 
L 249.319149 317.04982 
L 249.778723 317.353846 
L 250.238298 318.265925 
L 250.697872 318.873977 
L 251.617021 319.482029 
L 252.076596 321.306187 
L 252.53617 321.610213 
L 252.995745 322.826318 
L 253.455319 323.130344 
L 254.834043 324.954501 
L 255.293617 325.258527 
L 255.753191 325.866579 
L 256.67234 326.474632 
L 257.131915 327.690736 
L 258.051064 328.906841 
L 258.510638 329.210867 
L 258.970213 330.122946 
L 259.889362 330.730998 
L 260.348936 331.339051 
L 260.808511 331.339051 
L 261.268085 331.643077 
L 262.187234 332.859182 
L 263.106383 333.467234 
L 264.025532 333.467234 
L 264.485106 333.77126 
L 264.944681 334.379313 
L 265.404255 335.291391 
L 266.782979 336.20347 
L 270.919149 336.20347 
L 271.838298 336.811522 
L 272.297872 338.635679 
L 272.757447 339.243732 
L 274.13617 340.15581 
L 274.595745 341.371915 
L 275.514894 341.979967 
L 275.974468 343.500098 
L 276.434043 343.500098 
L 278.731915 345.020229 
L 280.110638 345.020229 
L 281.489362 345.932308 
L 281.948936 346.54036 
L 283.787234 347.756465 
L 284.246809 348.668543 
L 284.706383 348.97257 
L 294.817021 348.97257 
L 297.574468 350.796727 
L 298.034043 352.012831 
L 299.412766 352.92491 
L 299.87234 353.836989 
L 301.251064 354.749067 
L 301.710638 359.917512 
L 302.170213 360.221538 
L 302.629787 361.741669 
L 303.548936 362.349722 
L 304.468085 363.565827 
L 304.92766 364.477905 
L 305.846809 365.085957 
L 306.306383 365.998036 
L 307.225532 365.998036 
L 307.685106 366.302062 
L 309.982979 369.342324 
L 311.361702 369.342324 
L 311.821277 369.950376 
L 312.280851 372.686612 
L 312.740426 372.990638 
L 313.2 373.902717 
L 313.659574 376.0309 
L 314.119149 376.334926 
L 314.578723 377.551031 
L 315.038298 379.679214 
L 315.497872 379.679214 
L 315.957447 382.111424 
L 316.417021 383.631555 
L 316.876596 383.935581 
L 317.33617 383.935581 
L 318.714894 384.84766 
L 319.634043 384.84766 
L 320.093617 385.455712 
L 320.553191 385.455712 
L 321.012766 386.063764 
L 321.47234 386.367791 
L 321.931915 386.367791 
L 322.391489 386.671817 
L 324.229787 386.671817 
L 324.689362 386.975843 
L 326.52766 386.975843 
L 326.987234 387.279869 
L 328.365957 387.279869 
L 328.825532 387.583895 
L 332.502128 387.583895 
L 332.961702 387.887921 
L 344.451064 387.887921 
L 344.910638 388.191948 
L 344.910638 388.191948 
" clip-path="url(#pac21c573bb)" style="fill: none; stroke: #d80000; stroke-width: 1.8; stroke-linecap: square"/>
   </g>
   <g id="line2d_30">
    <path d="M 54.459574 18.800131 
L 55.378723 19.408183 
L 55.838298 20.016236 
L 56.297872 20.320262 
L 56.757447 20.320262 
L 63.191489 24.576628 
L 63.651064 25.488707 
L 64.570213 26.096759 
L 65.029787 26.096759 
L 66.868085 27.312864 
L 67.32766 27.312864 
L 68.706383 28.224943 
L 69.165957 28.224943 
L 71.923404 30.0491 
L 72.382979 30.0491 
L 73.302128 30.657152 
L 73.761702 31.569231 
L 74.221277 31.569231 
L 74.680851 31.873257 
L 75.140426 32.481309 
L 75.6 32.481309 
L 76.059574 32.785336 
L 76.519149 33.393388 
L 76.978723 33.393388 
L 77.897872 34.00144 
L 79.276596 34.00144 
L 82.953191 36.43365 
L 83.412766 36.43365 
L 84.791489 37.345728 
L 85.251064 37.345728 
L 85.710638 38.865859 
L 86.629787 39.473912 
L 88.468085 39.473912 
L 89.387234 40.081964 
L 90.765957 40.081964 
L 91.225532 40.38599 
L 91.685106 40.38599 
L 92.144681 40.690016 
L 92.604255 40.690016 
L 93.06383 40.994043 
L 93.523404 40.994043 
L 95.821277 42.514173 
L 96.280851 43.122226 
L 97.659574 44.034304 
L 98.119149 44.034304 
L 98.578723 44.338331 
L 99.038298 44.338331 
L 99.497872 44.946383 
L 99.957447 45.250409 
L 100.876596 45.250409 
L 101.33617 45.858462 
L 103.174468 47.074566 
L 103.634043 47.682619 
L 104.093617 47.986645 
L 104.553191 48.594697 
L 105.012766 48.594697 
L 105.47234 48.898723 
L 105.931915 48.898723 
L 108.689362 50.722881 
L 109.148936 51.634959 
L 110.52766 52.547038 
L 110.987234 53.15509 
L 111.906383 53.15509 
L 112.825532 53.763142 
L 113.285106 53.763142 
L 113.744681 54.067169 
L 114.204255 54.675221 
L 115.582979 55.5873 
L 116.042553 56.499378 
L 116.502128 56.803404 
L 116.961702 57.715483 
L 117.421277 58.019509 
L 117.880851 58.627561 
L 119.259574 59.53964 
L 119.719149 60.147692 
L 120.178723 62.275876 
L 120.638298 62.579902 
L 121.097872 63.49198 
L 121.557447 64.100033 
L 122.017021 64.404059 
L 122.476596 64.404059 
L 123.395745 65.012111 
L 123.855319 65.012111 
L 124.314894 65.620164 
L 125.693617 66.532242 
L 126.612766 66.532242 
L 127.07234 66.836268 
L 127.531915 67.748347 
L 127.991489 68.052373 
L 128.451064 68.052373 
L 130.289362 69.268478 
L 130.748936 69.268478 
L 131.208511 69.572504 
L 132.12766 69.572504 
L 134.425532 71.092635 
L 134.885106 71.700687 
L 135.344681 71.700687 
L 136.26383 72.30874 
L 136.723404 72.30874 
L 138.102128 73.220818 
L 139.021277 73.220818 
L 141.319149 74.740949 
L 141.778723 74.740949 
L 142.238298 75.044975 
L 143.617021 75.044975 
L 144.076596 75.349002 
L 144.53617 75.349002 
L 144.995745 75.653028 
L 145.455319 76.26108 
L 145.914894 76.26108 
L 147.293617 77.173159 
L 147.753191 77.173159 
L 148.212766 77.781211 
L 148.67234 78.085237 
L 149.591489 78.085237 
L 150.510638 78.69329 
L 150.970213 78.69329 
L 151.429787 78.997316 
L 152.348936 78.997316 
L 155.565957 81.125499 
L 156.025532 81.125499 
L 156.485106 81.429525 
L 156.944681 81.429525 
L 157.86383 82.037578 
L 159.242553 82.037578 
L 159.702128 82.341604 
L 160.621277 82.341604 
L 161.080851 82.64563 
L 161.540426 82.64563 
L 162 82.949656 
L 162.459574 82.949656 
L 163.838298 83.861735 
L 164.297872 83.861735 
L 165.217021 84.469787 
L 166.595745 84.469787 
L 167.055319 84.773813 
L 167.514894 84.773813 
L 167.974468 85.07784 
L 168.434043 85.685892 
L 168.893617 85.685892 
L 171.191489 87.206023 
L 171.651064 87.206023 
L 172.110638 87.510049 
L 172.570213 87.510049 
L 173.029787 87.814075 
L 173.489362 87.814075 
L 173.948936 88.422128 
L 174.868085 89.03018 
L 175.32766 89.03018 
L 176.246809 89.638232 
L 177.165957 89.638232 
L 177.625532 90.246285 
L 178.085106 90.246285 
L 179.923404 91.46239 
L 180.842553 91.46239 
L 181.761702 92.070442 
L 182.221277 92.070442 
L 183.140426 92.678494 
L 183.6 93.286547 
L 184.059574 93.590573 
L 184.519149 93.590573 
L 184.978723 93.894599 
L 185.897872 93.894599 
L 186.817021 94.502651 
L 189.114894 94.502651 
L 189.574468 95.110704 
L 190.034043 95.41473 
L 190.493617 95.41473 
L 193.710638 97.542913 
L 194.170213 98.150966 
L 194.629787 98.454992 
L 195.089362 98.454992 
L 195.548936 99.063044 
L 196.92766 99.975123 
L 197.387234 99.975123 
L 199.225532 101.191227 
L 199.685106 101.79928 
L 200.604255 102.407332 
L 201.06383 103.015385 
L 204.280851 105.143568 
L 204.740426 105.143568 
L 213.012766 110.616039 
L 213.47234 111.224092 
L 215.310638 112.440196 
L 215.770213 112.440196 
L 216.229787 112.744223 
L 216.689362 112.744223 
L 217.148936 113.048249 
L 217.608511 113.048249 
L 221.285106 115.480458 
L 221.744681 115.480458 
L 223.582979 116.696563 
L 224.502128 116.696563 
L 227.719149 118.824746 
L 228.178723 119.432799 
L 229.097872 119.432799 
L 230.93617 120.648903 
L 231.395745 120.648903 
L 233.234043 121.865008 
L 233.693617 121.865008 
L 234.612766 122.473061 
L 235.531915 122.473061 
L 236.451064 123.081113 
L 236.910638 123.081113 
L 239.208511 124.601244 
L 239.668085 125.209296 
L 240.12766 125.513322 
L 240.587234 126.121375 
L 241.506383 126.729427 
L 241.965957 126.729427 
L 247.480851 130.377741 
L 247.940426 130.377741 
L 248.859574 130.985794 
L 249.778723 132.201899 
L 252.076596 133.722029 
L 252.53617 133.722029 
L 252.995745 134.026056 
L 253.455319 134.026056 
L 255.293617 135.24216 
L 255.753191 135.24216 
L 257.131915 136.154239 
L 257.591489 136.762291 
L 258.510638 137.370344 
L 258.970213 137.978396 
L 262.187234 140.106579 
L 262.646809 140.106579 
L 263.106383 140.714632 
L 263.565957 141.018658 
L 264.025532 141.62671 
L 264.944681 142.234763 
L 265.404255 142.842815 
L 270.459574 146.187103 
L 270.919149 146.187103 
L 271.378723 146.491129 
L 271.838298 147.403208 
L 272.297872 148.01126 
L 273.676596 148.923339 
L 274.13617 150.139444 
L 274.595745 150.44347 
L 275.055319 150.44347 
L 275.514894 150.747496 
L 275.974468 150.747496 
L 278.731915 152.571653 
L 279.191489 152.571653 
L 280.110638 153.179705 
L 280.570213 153.787758 
L 281.029787 153.787758 
L 281.489362 154.699836 
L 283.32766 155.915941 
L 283.787234 155.915941 
L 284.706383 156.523993 
L 285.165957 156.523993 
L 286.544681 157.436072 
L 287.004255 157.436072 
L 289.302128 158.956203 
L 289.761702 159.564255 
L 290.221277 159.868282 
L 290.680851 159.868282 
L 294.357447 162.300491 
L 294.817021 162.908543 
L 305.846809 170.205172 
L 306.306383 170.205172 
L 310.902128 173.245434 
L 311.361702 173.853486 
L 318.714894 178.717905 
L 319.174468 180.542062 
L 319.634043 180.846088 
L 320.553191 182.062193 
L 326.068085 185.710507 
L 326.52766 186.31856 
L 330.204255 188.750769 
L 330.66383 189.662848 
L 331.123404 190.2709 
L 332.042553 190.878953 
L 332.502128 190.878953 
L 332.961702 191.487005 
L 336.178723 193.615188 
L 336.638298 193.615188 
L 340.774468 196.351424 
L 341.234043 196.959476 
L 343.991489 198.783633 
L 344.451064 199.391686 
L 344.910638 199.695712 
L 344.910638 199.695712 
" clip-path="url(#pac21c573bb)" style="fill: none; stroke: #264653; stroke-width: 1.8; stroke-linecap: square"/>
   </g>
   <g id="line2d_31">
    <path d="M 54.459574 17.28 
L 59.055319 17.28 
L 59.514894 17.584026 
L 108.229787 17.584026 
L 108.689362 17.888052 
L 110.068085 17.888052 
L 111.446809 19.712209 
L 111.906383 20.624288 
L 112.825532 21.23234 
L 113.285106 21.840393 
L 114.66383 22.752471 
L 115.123404 23.66455 
L 116.502128 24.576628 
L 117.421277 25.792733 
L 117.880851 26.096759 
L 118.340426 27.008838 
L 118.8 27.312864 
L 119.259574 27.920917 
L 121.557447 29.441047 
L 122.476596 30.657152 
L 127.07234 33.697414 
L 127.531915 34.305466 
L 129.370213 35.521571 
L 129.829787 36.737676 
L 130.289362 37.041702 
L 130.748936 37.649755 
L 131.208511 37.953781 
L 131.668085 38.561833 
L 135.344681 40.994043 
L 135.804255 41.602095 
L 136.26383 41.906121 
L 136.723404 42.514173 
L 137.182979 43.426252 
L 137.642553 44.034304 
L 140.859574 46.162488 
L 141.319149 47.074566 
L 144.076596 48.898723 
L 144.53617 49.506776 
L 146.834043 51.026907 
L 147.293617 51.634959 
L 152.348936 54.979247 
L 152.808511 55.5873 
L 154.187234 56.499378 
L 154.646809 57.10743 
L 157.86383 59.235614 
L 158.323404 59.843666 
L 159.242553 60.451718 
L 159.702128 61.059771 
L 163.378723 63.49198 
L 163.838298 64.100033 
L 166.595745 65.92419 
L 167.055319 66.532242 
L 168.434043 67.444321 
L 168.893617 68.052373 
L 169.353191 68.356399 
L 169.812766 68.964452 
L 173.948936 71.700687 
L 174.408511 72.30874 
L 181.302128 76.869133 
L 181.761702 77.477185 
L 187.276596 81.125499 
L 187.73617 82.037578 
L 188.195745 82.341604 
L 188.655319 82.949656 
L 191.412766 84.773813 
L 191.87234 85.381866 
L 194.170213 86.901997 
L 194.629787 87.510049 
L 195.089362 87.814075 
L 195.548936 88.422128 
L 196.008511 88.726154 
L 196.468085 89.334206 
L 197.846809 90.246285 
L 198.306383 90.854337 
L 200.144681 92.070442 
L 200.604255 92.98252 
L 201.982979 93.894599 
L 202.442553 94.806678 
L 206.119149 97.238887 
L 206.578723 97.846939 
L 210.255319 100.279149 
L 210.714894 100.887201 
L 213.47234 102.711358 
L 213.931915 103.319411 
L 222.66383 109.095908 
L 223.123404 109.703961 
L 224.042553 110.312013 
L 224.502128 111.224092 
L 225.880851 112.13617 
L 226.340426 112.744223 
L 230.476596 115.480458 
L 230.93617 115.480458 
L 238.289362 120.344877 
L 239.208511 121.560982 
L 243.804255 124.601244 
L 244.26383 125.209296 
L 246.102128 126.425401 
L 246.561702 127.033453 
L 253.455319 131.593846 
L 253.914894 131.593846 
L 256.67234 133.418003 
L 258.051064 135.24216 
L 261.72766 137.67437 
L 262.187234 138.282422 
L 263.106383 138.890475 
L 264.025532 140.106579 
L 269.540426 143.754894 
L 270 144.362946 
L 270.919149 144.970998 
L 271.378723 145.579051 
L 271.838298 146.491129 
L 273.217021 147.403208 
L 273.676596 148.315286 
L 275.514894 149.531391 
L 275.974468 150.139444 
L 276.893617 150.747496 
L 277.353191 151.355548 
L 280.110638 153.179705 
L 280.570213 153.787758 
L 281.029787 154.091784 
L 281.489362 154.699836 
L 285.625532 157.436072 
L 286.085106 158.044124 
L 287.004255 158.652177 
L 287.46383 159.260229 
L 291.6 161.996465 
L 292.059574 162.908543 
L 292.519149 163.516596 
L 306.306383 172.637381 
L 306.765957 173.245434 
L 310.442553 175.677643 
L 310.902128 176.285696 
L 311.361702 176.589722 
L 311.821277 177.197774 
L 313.2 178.109853 
L 313.659574 178.717905 
L 317.33617 181.150115 
L 317.795745 182.366219 
L 318.714894 182.974272 
L 319.174468 185.102455 
L 319.634043 185.406481 
L 320.553191 186.622586 
L 322.851064 188.142717 
L 323.310638 188.750769 
L 326.068085 190.574926 
L 326.52766 191.182979 
L 327.446809 191.791031 
L 327.906383 192.399083 
L 330.204255 193.919214 
L 330.66383 194.831293 
L 331.123404 195.439345 
L 331.582979 195.743372 
L 332.042553 196.351424 
L 339.855319 201.519869 
L 340.774468 202.735974 
L 342.153191 203.648052 
L 342.612766 204.560131 
L 343.07234 204.864157 
L 343.531915 205.472209 
L 343.991489 205.776236 
L 343.991489 205.776236 
" clip-path="url(#pac21c573bb)" style="fill: none; stroke: #ffe211; stroke-width: 1.8; stroke-linecap: square"/>
   </g>
   <g id="line2d_32">
    <path d="M 54.459574 17.28 
L 54.919149 17.584026 
L 55.378723 18.192079 
L 55.838298 18.496105 
L 56.297872 18.496105 
L 59.055319 20.320262 
L 59.514894 20.320262 
L 59.974468 20.624288 
L 60.434043 20.624288 
L 65.029787 23.66455 
L 65.489362 23.66455 
L 65.948936 23.968576 
L 66.408511 23.968576 
L 67.32766 24.576628 
L 68.246809 24.576628 
L 68.706383 24.880655 
L 69.165957 25.488707 
L 70.085106 25.488707 
L 72.382979 27.008838 
L 73.761702 27.008838 
L 76.059574 28.528969 
L 76.978723 28.528969 
L 80.655319 30.961178 
L 81.114894 30.961178 
L 83.412766 32.481309 
L 83.87234 32.481309 
L 84.791489 33.089362 
L 85.251064 33.089362 
L 85.710638 33.393388 
L 88.92766 33.393388 
L 90.306383 34.305466 
L 90.765957 34.305466 
L 92.144681 35.217545 
L 92.604255 35.217545 
L 93.06383 35.521571 
L 93.523404 35.521571 
L 99.038298 39.169885 
L 99.497872 39.169885 
L 99.957447 39.473912 
L 100.417021 39.473912 
L 100.876596 39.777938 
L 101.33617 39.777938 
L 101.795745 40.081964 
L 102.255319 40.081964 
L 102.714894 40.690016 
L 105.012766 42.210147 
L 105.47234 42.210147 
L 106.391489 42.8182 
L 106.851064 42.8182 
L 107.770213 43.426252 
L 108.229787 43.426252 
L 109.148936 44.034304 
L 109.608511 44.642357 
L 110.068085 44.946383 
L 111.446809 44.946383 
L 113.285106 46.162488 
L 113.744681 46.77054 
L 114.204255 46.77054 
L 114.66383 47.074566 
L 115.582979 47.074566 
L 116.042553 47.378592 
L 116.502128 47.378592 
L 116.961702 47.682619 
L 117.421277 47.682619 
L 118.340426 48.290671 
L 118.8 48.290671 
L 119.259574 48.898723 
L 122.017021 50.722881 
L 122.93617 50.722881 
L 126.153191 52.851064 
L 126.612766 52.851064 
L 127.07234 53.15509 
L 127.531915 53.15509 
L 127.991489 53.459116 
L 128.910638 53.459116 
L 129.370213 54.067169 
L 129.829787 54.067169 
L 130.289362 54.371195 
L 130.748936 54.979247 
L 132.587234 56.195352 
L 133.046809 56.195352 
L 139.021277 60.147692 
L 139.480851 60.755745 
L 143.617021 63.49198 
L 144.53617 63.49198 
L 144.995745 63.796007 
L 145.914894 63.796007 
L 147.753191 65.012111 
L 148.212766 65.012111 
L 149.131915 65.620164 
L 149.591489 65.620164 
L 150.510638 66.228216 
L 152.808511 66.228216 
L 153.72766 66.836268 
L 154.646809 66.836268 
L 155.106383 67.140295 
L 155.565957 67.140295 
L 156.944681 68.052373 
L 157.404255 68.660426 
L 161.080851 71.092635 
L 162 71.092635 
L 162.919149 71.700687 
L 163.838298 71.700687 
L 164.757447 72.30874 
L 165.217021 72.916792 
L 165.676596 73.220818 
L 166.595745 74.436923 
L 167.055319 74.436923 
L 167.514894 74.740949 
L 168.434043 74.740949 
L 168.893617 75.044975 
L 169.353191 75.044975 
L 169.812766 75.349002 
L 170.27234 75.349002 
L 171.191489 75.957054 
L 171.651064 75.957054 
L 173.489362 77.173159 
L 173.948936 77.781211 
L 174.408511 78.085237 
L 174.868085 78.085237 
L 175.32766 78.389264 
L 175.787234 78.997316 
L 177.165957 79.909394 
L 177.625532 79.909394 
L 178.544681 80.517447 
L 179.004255 80.517447 
L 180.382979 81.429525 
L 180.842553 81.429525 
L 183.140426 82.949656 
L 184.059574 82.949656 
L 184.519149 83.557709 
L 184.978723 83.557709 
L 189.574468 86.597971 
L 190.034043 86.597971 
L 190.953191 87.206023 
L 191.412766 87.206023 
L 192.331915 87.814075 
L 192.791489 87.814075 
L 194.170213 88.726154 
L 194.629787 88.726154 
L 198.306383 91.158363 
L 198.765957 91.158363 
L 199.225532 91.46239 
L 199.685106 91.46239 
L 202.442553 93.286547 
L 202.902128 93.286547 
L 203.361702 93.590573 
L 204.280851 93.590573 
L 205.659574 94.502651 
L 207.497872 94.502651 
L 208.417021 95.110704 
L 208.876596 95.110704 
L 211.174468 96.630835 
L 211.634043 96.630835 
L 212.553191 97.238887 
L 213.012766 97.846939 
L 213.47234 97.846939 
L 215.310638 99.063044 
L 215.770213 99.063044 
L 217.608511 100.279149 
L 218.068085 100.279149 
L 219.906383 101.495254 
L 220.365957 101.495254 
L 221.744681 102.407332 
L 222.204255 102.407332 
L 222.66383 103.015385 
L 224.961702 104.535516 
L 225.880851 104.535516 
L 227.259574 105.447594 
L 227.719149 106.055646 
L 233.234043 109.703961 
L 233.693617 109.703961 
L 234.153191 110.007987 
L 235.07234 110.007987 
L 235.531915 110.616039 
L 235.991489 110.616039 
L 236.910638 111.224092 
L 237.829787 111.224092 
L 239.668085 112.440196 
L 240.587234 113.656301 
L 241.965957 114.56838 
L 242.425532 115.176432 
L 242.885106 115.480458 
L 243.344681 116.088511 
L 247.940426 119.128773 
L 248.4 119.736825 
L 249.319149 120.344877 
L 249.778723 120.95293 
L 250.238298 121.256956 
L 250.697872 121.256956 
L 251.157447 121.560982 
L 251.617021 121.560982 
L 253.914894 123.081113 
L 254.374468 123.689165 
L 258.051064 126.121375 
L 258.510638 126.729427 
L 270.459574 134.634108 
L 270.919149 134.634108 
L 271.838298 135.24216 
L 272.757447 136.458265 
L 273.217021 137.978396 
L 277.353191 140.714632 
L 277.812766 140.714632 
L 283.32766 144.362946 
L 283.787234 144.362946 
L 285.165957 145.275025 
L 285.625532 145.275025 
L 289.761702 148.01126 
L 290.221277 148.619313 
L 292.519149 150.139444 
L 292.978723 150.747496 
L 298.493617 154.39581 
L 298.953191 154.39581 
L 313.659574 164.124648 
L 314.119149 164.124648 
L 314.578723 164.7327 
L 317.33617 166.556858 
L 317.795745 167.16491 
L 319.634043 168.381015 
L 320.093617 168.989067 
L 320.553191 169.293093 
L 321.012766 169.901146 
L 322.391489 170.813224 
L 322.851064 171.421277 
L 323.310638 171.725303 
L 324.229787 172.941408 
L 325.148936 173.54946 
L 325.608511 174.461538 
L 326.987234 175.373617 
L 327.446809 175.981669 
L 331.123404 178.413879 
L 331.582979 179.021931 
L 335.259574 181.454141 
L 335.719149 182.062193 
L 336.178723 182.366219 
L 336.638298 182.974272 
L 337.097872 182.974272 
L 337.557447 183.278298 
L 337.557447 183.278298 
" clip-path="url(#pac21c573bb)" style="fill: none; stroke: #39c5bb; stroke-width: 1.8; stroke-linecap: square"/>
   </g>
   <g id="line2d_33">
    <path d="M 54.459574 17.584026 
L 55.378723 17.584026 
L 55.838298 18.192079 
L 63.191489 23.056498 
L 63.651064 23.968576 
L 64.570213 24.576628 
L 65.029787 24.576628 
L 67.32766 26.096759 
L 67.787234 26.096759 
L 68.246809 26.400786 
L 68.706383 29.441047 
L 69.165957 30.961178 
L 69.625532 31.873257 
L 70.085106 31.873257 
L 71.004255 32.481309 
L 71.46383 32.481309 
L 71.923404 32.785336 
L 72.382979 32.785336 
L 73.302128 33.393388 
L 73.761702 34.00144 
L 75.6 35.217545 
L 76.059574 35.217545 
L 76.519149 35.521571 
L 76.978723 36.129624 
L 77.438298 36.43365 
L 77.897872 37.041702 
L 78.357447 38.257807 
L 78.817021 38.561833 
L 79.276596 38.561833 
L 80.655319 39.473912 
L 81.114894 40.081964 
L 84.791489 42.514173 
L 85.251064 42.514173 
L 85.710638 42.8182 
L 86.629787 42.8182 
L 87.089362 43.122226 
L 87.548936 49.506776 
L 88.008511 51.330933 
L 88.468085 51.330933 
L 88.92766 51.634959 
L 89.387234 51.634959 
L 90.306383 52.243011 
L 90.765957 52.243011 
L 91.225532 52.547038 
L 91.685106 52.547038 
L 92.604255 53.15509 
L 93.06383 53.763142 
L 94.902128 54.979247 
L 96.740426 54.979247 
L 97.2 55.5873 
L 98.119149 56.195352 
L 99.038298 56.195352 
L 100.417021 57.10743 
L 101.33617 57.10743 
L 101.795745 57.715483 
L 103.634043 58.931588 
L 104.093617 59.53964 
L 106.851064 61.363797 
L 107.310638 61.363797 
L 108.229787 61.971849 
L 108.689362 62.883928 
L 110.068085 63.796007 
L 110.52766 63.796007 
L 110.987234 64.404059 
L 111.446809 64.708085 
L 111.906383 65.92419 
L 112.365957 65.92419 
L 112.825532 66.836268 
L 113.285106 66.836268 
L 113.744681 67.140295 
L 114.204255 68.052373 
L 116.502128 69.572504 
L 116.961702 70.180556 
L 117.880851 70.180556 
L 120.638298 72.004714 
L 121.097872 72.916792 
L 121.557447 73.220818 
L 122.017021 73.220818 
L 122.93617 73.828871 
L 123.395745 73.828871 
L 124.314894 74.436923 
L 124.774468 74.436923 
L 126.153191 75.349002 
L 126.612766 76.565106 
L 127.07234 76.565106 
L 128.451064 77.477185 
L 129.829787 77.477185 
L 130.289362 77.781211 
L 130.748936 77.781211 
L 131.208511 78.389264 
L 131.668085 78.389264 
L 133.046809 79.301342 
L 133.506383 80.517447 
L 134.885106 81.429525 
L 135.344681 81.429525 
L 135.804255 82.341604 
L 136.26383 82.949656 
L 136.723404 83.253682 
L 137.182979 83.253682 
L 137.642553 83.557709 
L 138.561702 83.557709 
L 140.4 84.773813 
L 141.319149 84.773813 
L 142.697872 85.685892 
L 143.157447 85.685892 
L 143.617021 85.989918 
L 144.53617 85.989918 
L 144.995745 86.597971 
L 145.914894 86.597971 
L 148.67234 88.422128 
L 149.131915 89.03018 
L 149.591489 89.03018 
L 150.051064 89.334206 
L 150.510638 89.942259 
L 150.970213 90.246285 
L 151.889362 90.246285 
L 152.808511 90.854337 
L 153.268085 91.46239 
L 154.187234 91.46239 
L 156.025532 92.678494 
L 156.485106 92.678494 
L 157.404255 93.286547 
L 157.86383 93.894599 
L 158.782979 94.502651 
L 159.242553 94.502651 
L 160.161702 95.110704 
L 161.080851 95.110704 
L 162 95.718756 
L 162.459574 95.718756 
L 162.919149 96.022782 
L 163.378723 96.630835 
L 164.297872 97.238887 
L 164.757447 97.238887 
L 165.676596 97.846939 
L 166.13617 98.454992 
L 166.595745 98.759018 
L 167.055319 98.759018 
L 167.514894 99.671097 
L 168.434043 99.671097 
L 168.893617 100.279149 
L 169.812766 100.279149 
L 171.191489 101.191227 
L 171.651064 101.191227 
L 172.110638 101.495254 
L 173.029787 101.495254 
L 173.489362 101.79928 
L 173.948936 102.407332 
L 174.408511 102.711358 
L 174.868085 102.711358 
L 175.32766 103.015385 
L 175.787234 103.623437 
L 176.246809 103.927463 
L 177.165957 103.927463 
L 178.085106 104.535516 
L 178.544681 104.535516 
L 179.923404 105.447594 
L 180.382979 106.055646 
L 180.842553 106.359673 
L 181.302128 106.967725 
L 181.761702 107.271751 
L 182.221277 107.271751 
L 182.680851 107.575777 
L 183.140426 107.575777 
L 184.059574 108.18383 
L 184.519149 108.18383 
L 185.438298 108.791882 
L 186.357447 108.791882 
L 187.276596 109.399935 
L 187.73617 110.312013 
L 188.655319 111.528118 
L 189.114894 111.528118 
L 189.574468 111.832144 
L 190.034043 111.832144 
L 191.87234 113.048249 
L 192.331915 113.048249 
L 192.791489 113.352275 
L 193.251064 113.960327 
L 194.170213 114.56838 
L 195.089362 114.56838 
L 195.548936 114.872406 
L 196.008511 115.480458 
L 196.92766 116.088511 
L 197.387234 116.696563 
L 200.604255 118.824746 
L 201.06383 118.824746 
L 202.442553 119.736825 
L 202.902128 120.95293 
L 205.659574 122.777087 
L 206.119149 123.385139 
L 207.038298 123.993191 
L 207.497872 123.993191 
L 211.174468 126.425401 
L 211.634043 126.425401 
L 213.47234 127.641506 
L 213.931915 127.641506 
L 215.770213 128.85761 
L 216.229787 128.85761 
L 217.148936 129.465663 
L 217.608511 130.073715 
L 218.52766 130.681768 
L 218.987234 131.28982 
L 219.446809 131.28982 
L 219.906383 131.593846 
L 220.365957 132.201899 
L 222.66383 133.722029 
L 223.123404 133.722029 
L 224.042553 134.330082 
L 224.502128 134.938134 
L 225.421277 135.546187 
L 225.880851 136.154239 
L 227.719149 137.370344 
L 228.178723 137.978396 
L 230.017021 139.194501 
L 230.476596 140.106579 
L 231.855319 141.018658 
L 232.314894 141.62671 
L 232.774468 141.62671 
L 237.370213 144.666972 
L 237.829787 145.275025 
L 238.748936 145.883077 
L 239.208511 146.491129 
L 239.668085 146.795155 
L 240.12766 146.795155 
L 240.587234 147.099182 
L 241.046809 147.707234 
L 242.425532 148.619313 
L 242.885106 149.227365 
L 243.344681 149.227365 
L 249.319149 153.179705 
L 249.778723 153.787758 
L 250.238298 154.091784 
L 250.697872 154.699836 
L 251.157447 155.003863 
L 252.076596 156.219967 
L 252.53617 156.523993 
L 252.995745 157.436072 
L 253.455319 157.436072 
L 253.914894 157.740098 
L 254.374468 158.348151 
L 258.051064 160.78036 
L 258.510638 161.692439 
L 259.429787 162.300491 
L 259.889362 162.908543 
L 261.268085 163.820622 
L 261.72766 163.820622 
L 262.646809 165.036727 
L 263.106383 165.340753 
L 263.565957 165.948805 
L 264.944681 166.860884 
L 265.404255 166.860884 
L 265.86383 167.16491 
L 266.323404 167.16491 
L 266.782979 167.468936 
L 267.242553 168.076989 
L 268.621277 168.989067 
L 269.080851 169.597119 
L 269.540426 169.901146 
L 270 170.509198 
L 270.459574 171.421277 
L 271.378723 172.029329 
L 271.838298 172.029329 
L 272.297872 172.333355 
L 272.757447 172.333355 
L 273.217021 172.637381 
L 273.676596 172.637381 
L 274.13617 172.941408 
L 274.595745 174.157512 
L 278.731915 176.893748 
L 279.191489 176.893748 
L 279.651064 177.197774 
L 280.110638 178.109853 
L 281.029787 178.717905 
L 282.408511 178.717905 
L 282.868085 179.021931 
L 285.165957 179.021931 
L 285.625532 179.629984 
L 286.544681 179.629984 
L 287.004255 180.238036 
L 287.46383 180.542062 
L 287.923404 180.542062 
L 288.842553 181.150115 
L 289.302128 181.150115 
L 290.221277 181.758167 
L 290.680851 181.758167 
L 291.140426 182.062193 
L 291.6 182.062193 
L 292.059574 182.366219 
L 292.519149 182.974272 
L 296.195745 185.406481 
L 296.655319 186.014534 
L 302.170213 189.662848 
L 302.629787 189.662848 
L 304.008511 190.574926 
L 304.468085 191.182979 
L 307.225532 193.007136 
L 307.685106 193.007136 
L 309.523404 194.223241 
L 309.982979 194.831293 
L 315.957447 198.783633 
L 316.417021 199.695712 
L 317.795745 200.607791 
L 318.255319 202.431948 
L 318.714894 202.735974 
L 319.634043 203.952079 
L 323.770213 206.688314 
L 324.229787 207.296367 
L 324.689362 207.600393 
L 325.148936 207.600393 
L 327.906383 209.42455 
L 328.365957 210.032602 
L 329.744681 210.944681 
L 330.204255 211.856759 
L 331.582979 212.768838 
L 332.042553 213.37689 
L 332.961702 213.984943 
L 333.421277 214.592995 
L 339.855319 218.849362 
L 340.314894 219.457414 
L 340.774468 219.76144 
L 341.234043 220.369493 
L 342.612766 221.281571 
L 343.07234 222.19365 
L 343.531915 222.497676 
L 343.991489 223.409755 
L 344.451064 223.713781 
L 344.451064 223.713781 
" clip-path="url(#pac21c573bb)" style="fill: none; stroke: #2a9d8f; stroke-width: 1.8; stroke-linecap: square"/>
   </g>
   <g id="line2d_34">
    <path d="M 54.459574 17.28 
L 55.378723 17.888052 
L 55.838298 18.496105 
L 56.297872 18.800131 
L 56.757447 18.800131 
L 62.27234 22.448445 
L 62.731915 23.360524 
L 65.489362 25.184681 
L 66.408511 25.184681 
L 67.32766 25.792733 
L 67.787234 26.400786 
L 68.246809 27.312864 
L 68.706383 27.61689 
L 69.165957 27.61689 
L 70.085106 28.224943 
L 70.544681 28.224943 
L 71.004255 29.745074 
L 71.46383 29.745074 
L 73.761702 31.265205 
L 74.221277 31.873257 
L 74.680851 32.177283 
L 75.140426 32.177283 
L 75.6 32.481309 
L 76.059574 35.825597 
L 77.897872 37.041702 
L 78.357447 37.041702 
L 78.817021 38.257807 
L 79.73617 38.865859 
L 80.195745 38.865859 
L 82.034043 40.081964 
L 82.493617 40.081964 
L 84.791489 41.602095 
L 85.251064 41.602095 
L 86.170213 42.210147 
L 86.629787 42.8182 
L 87.089362 49.20275 
L 87.548936 49.20275 
L 88.008511 51.026907 
L 88.468085 51.330933 
L 88.92766 51.330933 
L 89.846809 51.938985 
L 90.306383 51.938985 
L 91.225532 52.547038 
L 91.685106 52.547038 
L 93.523404 53.763142 
L 93.982979 53.763142 
L 94.442553 54.371195 
L 94.902128 54.371195 
L 95.361702 54.675221 
L 95.821277 54.675221 
L 96.280851 54.979247 
L 97.2 54.979247 
L 99.038298 56.195352 
L 99.497872 56.195352 
L 99.957447 56.803404 
L 100.417021 57.10743 
L 101.33617 57.10743 
L 101.795745 57.411457 
L 102.255319 58.019509 
L 102.714894 58.019509 
L 104.553191 59.235614 
L 105.012766 59.843666 
L 106.391489 60.755745 
L 106.851064 60.755745 
L 109.608511 62.579902 
L 110.068085 63.49198 
L 110.52766 63.49198 
L 110.987234 64.100033 
L 111.446809 65.620164 
L 111.906383 66.228216 
L 112.365957 66.228216 
L 112.825532 66.532242 
L 113.285106 67.444321 
L 113.744681 67.748347 
L 114.204255 68.660426 
L 115.123404 69.268478 
L 115.582979 69.268478 
L 116.961702 70.180556 
L 117.421277 70.788609 
L 117.880851 71.092635 
L 118.340426 71.092635 
L 118.8 71.396661 
L 119.719149 71.396661 
L 120.638298 72.004714 
L 121.097872 72.916792 
L 122.017021 73.524845 
L 122.93617 73.524845 
L 125.693617 75.349002 
L 127.531915 75.349002 
L 128.451064 75.957054 
L 128.910638 75.957054 
L 130.289362 76.869133 
L 130.748936 76.869133 
L 131.208511 77.173159 
L 131.668085 77.173159 
L 132.12766 77.477185 
L 133.046809 77.477185 
L 133.965957 78.085237 
L 134.885106 78.085237 
L 135.344681 79.301342 
L 138.102128 81.125499 
L 139.021277 81.125499 
L 139.480851 81.429525 
L 139.940426 82.64563 
L 142.238298 84.165761 
L 143.617021 84.165761 
L 144.076596 84.469787 
L 144.53617 84.469787 
L 144.995745 84.773813 
L 145.455319 84.773813 
L 145.914894 85.07784 
L 146.374468 85.685892 
L 146.834043 85.685892 
L 147.293617 85.989918 
L 147.753191 86.597971 
L 149.131915 87.510049 
L 149.591489 87.510049 
L 151.889362 89.03018 
L 152.348936 89.03018 
L 153.72766 89.942259 
L 154.646809 89.942259 
L 156.025532 90.854337 
L 157.404255 90.854337 
L 158.323404 92.070442 
L 159.242553 92.678494 
L 159.702128 92.678494 
L 161.080851 93.590573 
L 161.540426 93.590573 
L 162.919149 94.502651 
L 163.838298 94.502651 
L 164.297872 95.110704 
L 164.757447 95.41473 
L 165.217021 95.41473 
L 165.676596 95.718756 
L 166.595745 95.718756 
L 167.514894 96.934861 
L 167.974468 97.238887 
L 168.434043 97.846939 
L 168.893617 98.150966 
L 170.27234 98.150966 
L 172.110638 99.36707 
L 172.570213 99.36707 
L 173.029787 99.975123 
L 173.489362 100.279149 
L 173.948936 100.279149 
L 174.868085 100.887201 
L 175.32766 100.887201 
L 175.787234 101.191227 
L 176.246809 101.191227 
L 177.165957 101.79928 
L 178.544681 101.79928 
L 179.004255 102.103306 
L 179.46383 102.103306 
L 181.302128 103.319411 
L 181.761702 103.319411 
L 182.221277 103.623437 
L 182.680851 103.623437 
L 184.519149 104.839542 
L 184.978723 105.447594 
L 185.438298 105.447594 
L 185.897872 105.75162 
L 186.357447 105.75162 
L 186.817021 106.055646 
L 187.276596 106.055646 
L 187.73617 106.359673 
L 188.195745 107.271751 
L 189.574468 107.271751 
L 190.953191 108.18383 
L 191.412766 109.095908 
L 192.331915 109.703961 
L 192.791489 109.703961 
L 193.710638 110.312013 
L 195.089362 112.13617 
L 196.008511 112.744223 
L 196.468085 113.352275 
L 197.846809 114.264354 
L 198.306383 114.264354 
L 198.765957 114.872406 
L 200.144681 115.784484 
L 200.604255 115.784484 
L 202.442553 117.000589 
L 202.902128 117.608642 
L 203.361702 118.52072 
L 206.578723 120.648903 
L 207.038298 120.648903 
L 208.417021 121.560982 
L 208.876596 122.169034 
L 210.714894 123.385139 
L 211.174468 123.993191 
L 211.634043 124.297218 
L 212.553191 125.513322 
L 216.689362 128.249558 
L 217.148936 128.249558 
L 218.52766 129.161637 
L 218.987234 129.769689 
L 221.285106 131.28982 
L 221.744681 131.28982 
L 223.123404 132.201899 
L 223.582979 133.113977 
L 226.8 135.24216 
L 227.259574 135.24216 
L 235.07234 140.410606 
L 235.531915 140.410606 
L 235.991489 141.018658 
L 236.451064 141.322684 
L 236.910638 141.930736 
L 238.289362 142.842815 
L 238.748936 143.450867 
L 240.587234 144.666972 
L 241.046809 145.275025 
L 243.344681 146.795155 
L 244.723404 148.619313 
L 247.480851 150.44347 
L 247.940426 150.44347 
L 248.859574 151.051522 
L 249.319149 151.659574 
L 250.238298 152.267627 
L 251.157447 153.483732 
L 253.455319 155.003863 
L 253.914894 155.915941 
L 255.293617 156.82802 
L 256.212766 158.044124 
L 259.429787 160.172308 
L 259.889362 160.78036 
L 260.808511 161.388412 
L 261.268085 161.996465 
L 262.646809 162.908543 
L 263.106383 162.908543 
L 264.025532 164.124648 
L 265.86383 165.340753 
L 266.323404 165.948805 
L 269.540426 168.076989 
L 270 168.076989 
L 271.378723 168.989067 
L 271.838298 169.901146 
L 272.297872 170.509198 
L 273.217021 171.11725 
L 274.595745 171.11725 
L 275.514894 171.725303 
L 275.974468 172.941408 
L 280.570213 175.981669 
L 281.029787 175.981669 
L 281.948936 176.589722 
L 282.408511 176.589722 
L 282.868085 176.893748 
L 283.787234 176.893748 
L 284.246809 177.197774 
L 285.165957 177.197774 
L 285.625532 177.805827 
L 286.544681 178.413879 
L 287.004255 178.413879 
L 287.46383 179.021931 
L 287.923404 179.021931 
L 288.382979 179.93401 
L 288.842553 179.93401 
L 289.302128 180.542062 
L 289.761702 180.542062 
L 292.059574 182.062193 
L 293.897872 182.062193 
L 294.357447 182.366219 
L 294.817021 182.366219 
L 295.276596 182.670245 
L 295.73617 183.278298 
L 302.629787 187.838691 
L 303.089362 187.838691 
L 306.306383 189.966874 
L 306.765957 190.574926 
L 309.06383 192.095057 
L 309.523404 192.70311 
L 309.982979 192.70311 
L 311.361702 193.615188 
L 311.821277 194.223241 
L 317.33617 197.871555 
L 317.795745 198.479607 
L 318.714894 199.08766 
L 319.174468 200.911817 
L 319.634043 201.215843 
L 320.553191 202.431948 
L 325.148936 205.472209 
L 325.608511 206.080262 
L 326.068085 206.384288 
L 326.52766 206.384288 
L 329.744681 208.512471 
L 330.204255 209.42455 
L 330.66383 210.032602 
L 331.123404 210.336628 
L 331.582979 210.944681 
L 338.017021 215.201047 
L 338.476596 215.8091 
L 338.93617 216.113126 
L 339.395745 216.721178 
L 340.314894 217.329231 
L 340.774468 217.937283 
L 342.153191 218.849362 
L 342.612766 219.76144 
L 343.07234 220.065466 
L 343.07234 220.065466 
" clip-path="url(#pac21c573bb)" style="fill: none; stroke: #e76f51; stroke-width: 1.8; stroke-linecap: square"/>
   </g>
   <g id="patch_3">
    <path d="M 54 388.8 
L 54 17.28 
" style="fill: none; stroke: #000000; stroke-width: 0.8; stroke-linejoin: miter; stroke-linecap: square"/>
   </g>
   <g id="patch_4">
    <path d="M 334.8 388.8 
L 334.8 17.28 
" style="fill: none; stroke: #000000; stroke-width: 0.8; stroke-linejoin: miter; stroke-linecap: square"/>
   </g>
   <g id="patch_5">
    <path d="M 54 388.8 
L 334.8 388.8 
" style="fill: none; stroke: #000000; stroke-width: 0.8; stroke-linejoin: miter; stroke-linecap: square"/>
   </g>
   <g id="patch_6">
    <path d="M 54 17.28 
L 334.8 17.28 
" style="fill: none; stroke: #000000; stroke-width: 0.8; stroke-linejoin: miter; stroke-linecap: square"/>
   </g>
   <g id="legend_1">
    <g id="patch_7">
     <path d="M 62.4 382.8 
L 147.28875 382.8 
Q 149.68875 382.8 149.68875 380.4 
L 149.68875 275.9175 
Q 149.68875 273.5175 147.28875 273.5175 
L 62.4 273.5175 
Q 60 273.5175 60 275.9175 
L 60 380.4 
Q 60 382.8 62.4 382.8 
z
" style="fill: #ffffff; opacity: 0.8; stroke: #cccccc; stroke-linejoin: miter"/>
    </g>
    <g id="line2d_35">
     <path d="M 64.8 283.235625 
L 76.8 283.235625 
L 88.8 283.235625 
" style="fill: none; stroke: #d80000; stroke-width: 1.8; stroke-linecap: square"/>
    </g>
    <g id="text_17">
     <!-- None -->
     <g transform="translate(98.4 287.435625) scale(0.12 -0.12)">
      <defs>
       <path id="DejaVuSans-4e" d="M 628 4666 
L 1478 4666 
L 3547 763 
L 3547 4666 
L 4159 4666 
L 4159 0 
L 3309 0 
L 1241 3903 
L 1241 0 
L 628 0 
L 628 4666 
z
" transform="scale(0.015625)"/>
       <path id="DejaVuSans-6e" d="M 3513 2113 
L 3513 0 
L 2938 0 
L 2938 2094 
Q 2938 2591 2744 2837 
Q 2550 3084 2163 3084 
Q 1697 3084 1428 2787 
Q 1159 2491 1159 1978 
L 1159 0 
L 581 0 
L 581 3500 
L 1159 3500 
L 1159 2956 
Q 1366 3272 1645 3428 
Q 1925 3584 2291 3584 
Q 2894 3584 3203 3211 
Q 3513 2838 3513 2113 
z
" transform="scale(0.015625)"/>
      </defs>
      <use xlink:href="#DejaVuSans-4e"/>
      <use xlink:href="#DejaVuSans-6f" x="74.804688"/>
      <use xlink:href="#DejaVuSans-6e" x="135.986328"/>
      <use xlink:href="#DejaVuSans-65" x="199.365234"/>
     </g>
    </g>
    <g id="line2d_36">
     <path d="M 64.8 300.849375 
L 76.8 300.849375 
L 88.8 300.849375 
" style="fill: none; stroke: #264653; stroke-width: 1.8; stroke-linecap: square"/>
    </g>
    <g id="text_18">
     <!-- HD -->
     <g transform="translate(98.4 305.049375) scale(0.12 -0.12)">
      <defs>
       <path id="DejaVuSans-48" d="M 628 4666 
L 1259 4666 
L 1259 2753 
L 3553 2753 
L 3553 4666 
L 4184 4666 
L 4184 0 
L 3553 0 
L 3553 2222 
L 1259 2222 
L 1259 0 
L 628 0 
L 628 4666 
z
" transform="scale(0.015625)"/>
       <path id="DejaVuSans-44" d="M 1259 4147 
L 1259 519 
L 2022 519 
Q 2988 519 3436 956 
Q 3884 1394 3884 2338 
Q 3884 3275 3436 3711 
Q 2988 4147 2022 4147 
L 1259 4147 
z
M 628 4666 
L 1925 4666 
Q 3281 4666 3915 4102 
Q 4550 3538 4550 2338 
Q 4550 1131 3912 565 
Q 3275 0 1925 0 
L 628 0 
L 628 4666 
z
" transform="scale(0.015625)"/>
      </defs>
      <use xlink:href="#DejaVuSans-48"/>
      <use xlink:href="#DejaVuSans-44" x="75.195312"/>
     </g>
    </g>
    <g id="line2d_37">
     <path d="M 64.8 318.463125 
L 76.8 318.463125 
L 88.8 318.463125 
" style="fill: none; stroke: #ffe211; stroke-width: 1.8; stroke-linecap: square"/>
    </g>
    <g id="text_19">
     <!-- GND -->
     <g transform="translate(98.4 322.663125) scale(0.12 -0.12)">
      <use xlink:href="#DejaVuSans-47"/>
      <use xlink:href="#DejaVuSans-4e" x="77.490234"/>
      <use xlink:href="#DejaVuSans-44" x="152.294922"/>
     </g>
    </g>
    <g id="line2d_38">
     <path d="M 64.8 336.076875 
L 76.8 336.076875 
L 88.8 336.076875 
" style="fill: none; stroke: #39c5bb; stroke-width: 1.8; stroke-linecap: square"/>
    </g>
    <g id="text_20">
     <!-- BT -->
     <g transform="translate(98.4 340.276875) scale(0.12 -0.12)">
      <defs>
       <path id="DejaVuSans-42" d="M 1259 2228 
L 1259 519 
L 2272 519 
Q 2781 519 3026 730 
Q 3272 941 3272 1375 
Q 3272 1813 3026 2020 
Q 2781 2228 2272 2228 
L 1259 2228 
z
M 1259 4147 
L 1259 2741 
L 2194 2741 
Q 2656 2741 2882 2914 
Q 3109 3088 3109 3444 
Q 3109 3797 2882 3972 
Q 2656 4147 2194 4147 
L 1259 4147 
z
M 628 4666 
L 2241 4666 
Q 2963 4666 3353 4366 
Q 3744 4066 3744 3513 
Q 3744 3084 3544 2831 
Q 3344 2578 2956 2516 
Q 3422 2416 3680 2098 
Q 3938 1781 3938 1306 
Q 3938 681 3513 340 
Q 3088 0 2303 0 
L 628 0 
L 628 4666 
z
" transform="scale(0.015625)"/>
       <path id="DejaVuSans-54" d="M -19 4666 
L 3928 4666 
L 3928 4134 
L 2272 4134 
L 2272 0 
L 1638 0 
L 1638 4134 
L -19 4134 
L -19 4666 
z
" transform="scale(0.015625)"/>
      </defs>
      <use xlink:href="#DejaVuSans-42"/>
      <use xlink:href="#DejaVuSans-54" x="68.603516"/>
     </g>
    </g>
    <g id="line2d_39">
     <path d="M 64.8 353.690625 
L 76.8 353.690625 
L 88.8 353.690625 
" style="fill: none; stroke: #2a9d8f; stroke-width: 1.8; stroke-linecap: square"/>
    </g>
    <g id="text_21">
     <!-- DSTS-K -->
     <g transform="translate(98.4 357.890625) scale(0.12 -0.12)">
      <defs>
       <path id="DejaVuSans-2d" d="M 313 2009 
L 1997 2009 
L 1997 1497 
L 313 1497 
L 313 2009 
z
" transform="scale(0.015625)"/>
       <path id="DejaVuSans-4b" d="M 628 4666 
L 1259 4666 
L 1259 2694 
L 3353 4666 
L 4166 4666 
L 1850 2491 
L 4331 0 
L 3500 0 
L 1259 2247 
L 1259 0 
L 628 0 
L 628 4666 
z
" transform="scale(0.015625)"/>
      </defs>
      <use xlink:href="#DejaVuSans-44"/>
      <use xlink:href="#DejaVuSans-53" x="77.001953"/>
      <use xlink:href="#DejaVuSans-54" x="140.478516"/>
      <use xlink:href="#DejaVuSans-53" x="201.5625"/>
      <use xlink:href="#DejaVuSans-2d" x="265.039062"/>
      <use xlink:href="#DejaVuSans-4b" x="301.123047"/>
     </g>
    </g>
    <g id="line2d_40">
     <path d="M 64.8 371.304375 
L 76.8 371.304375 
L 88.8 371.304375 
" style="fill: none; stroke: #e76f51; stroke-width: 1.8; stroke-linecap: square"/>
    </g>
    <g id="text_22">
     <!-- DSTS-M -->
     <g transform="translate(98.4 375.504375) scale(0.12 -0.12)">
      <defs>
       <path id="DejaVuSans-4d" d="M 628 4666 
L 1569 4666 
L 2759 1491 
L 3956 4666 
L 4897 4666 
L 4897 0 
L 4281 0 
L 4281 4097 
L 3078 897 
L 2444 897 
L 1241 4097 
L 1241 0 
L 628 0 
L 628 4666 
z
" transform="scale(0.015625)"/>
      </defs>
      <use xlink:href="#DejaVuSans-44"/>
      <use xlink:href="#DejaVuSans-53" x="77.001953"/>
      <use xlink:href="#DejaVuSans-54" x="140.478516"/>
      <use xlink:href="#DejaVuSans-53" x="201.5625"/>
      <use xlink:href="#DejaVuSans-2d" x="265.039062"/>
      <use xlink:href="#DejaVuSans-4d" x="301.123047"/>
     </g>
    </g>
   </g>
  </g>
 </g>
 <defs>
  <clipPath id="pac21c573bb">
   <rect x="54" y="17.28" width="280.8" height="371.52"/>
  </clipPath>
 </defs>
</svg>
