<?xml version="1.0" encoding="utf-8" standalone="no"?>
<!DOCTYPE svg PUBLIC "-//W3C//DTD SVG 1.1//EN"
  "http://www.w3.org/Graphics/SVG/1.1/DTD/svg11.dtd">
<svg xmlns:xlink="http://www.w3.org/1999/xlink" width="360pt" height="432pt" viewBox="0 0 360 432" xmlns="http://www.w3.org/2000/svg" version="1.1">
 <metadata>
  <rdf:RDF xmlns:dc="http://purl.org/dc/elements/1.1/" xmlns:cc="http://creativecommons.org/ns#" xmlns:rdf="http://www.w3.org/1999/02/22-rdf-syntax-ns#">
   <cc:Work>
    <dc:type rdf:resource="http://purl.org/dc/dcmitype/StillImage"/>
    <dc:date>2026-04-01T14:07:43.021493</dc:date>
    <dc:format>image/svg+xml</dc:format>
    <dc:creator>
     <cc:Agent>
      <dc:title>Matplotlib v3.6.3, https://matplotlib.org/</dc:title>
     </cc:Agent>
    </dc:creator>
   </cc:Work>
  </rdf:RDF>
 </metadata>
 <defs>
  <style type="text/css">*{stroke-linejoin: round; stroke-linecap: butt}</style>
 </defs>
 <g id="figure_1">
  <g id="patch_1">
   <path d="M 0 432 
L 360 432 
L 360 0 
L 0 0 
z
" style="fill: #ffffff"/>
  </g>
  <g id="axes_1">
   <g id="patch_2">
    <path d="M 54 388.8 
L 334.8 388.8 
L 334.8 17.28 
L 54 17.28 
z
" style="fill: #ffffff"/>
   </g>
   <g id="matplotlib.axis_1">
    <g id="xtick_1">
     <g id="line2d_1">
      <path d="M 54 388.8 
L 54 17.28 
" clip-path="url(#p64d5976365)" style="fill: none; stroke: #000000; stroke-opacity: 0.1; stroke-width: 0.7; stroke-linecap: square"/>
     </g>
     <g id="line2d_2">
      <defs>
       <path id="m2fd7ed6dfe" d="M 0 0 
L 0 3.5 
" style="stroke: #000000; stroke-width: 0.8"/>
      </defs>
      <g>
       <use xlink:href="#m2fd7ed6dfe" x="54" y="388.8" style="stroke: #000000; stroke-width: 0.8"/>
      </g>
     </g>
     <g id="text_1">
      <!-- 0.00 -->
      <g transform="translate(39.527344 405.677969) scale(0.13 -0.13)">
       <defs>
        <path id="DejaVuSans-30" d="M 2034 4250 
Q 1547 4250 1301 3770 
Q 1056 3291 1056 2328 
Q 1056 1369 1301 889 
Q 1547 409 2034 409 
Q 2525 409 2770 889 
Q 3016 1369 3016 2328 
Q 3016 3291 2770 3770 
Q 2525 4250 2034 4250 
z
M 2034 4750 
Q 2819 4750 3233 4129 
Q 3647 3509 3647 2328 
Q 3647 1150 3233 529 
Q 2819 -91 2034 -91 
Q 1250 -91 836 529 
Q 422 1150 422 2328 
Q 422 3509 836 4129 
Q 1250 4750 2034 4750 
z
" transform="scale(0.015625)"/>
        <path id="DejaVuSans-2e" d="M 684 794 
L 1344 794 
L 1344 0 
L 684 0 
L 684 794 
z
" transform="scale(0.015625)"/>
       </defs>
       <use xlink:href="#DejaVuSans-30"/>
       <use xlink:href="#DejaVuSans-2e" x="63.623047"/>
       <use xlink:href="#DejaVuSans-30" x="95.410156"/>
       <use xlink:href="#DejaVuSans-30" x="159.033203"/>
      </g>
     </g>
    </g>
    <g id="xtick_2">
     <g id="line2d_3">
      <path d="M 194.4 388.8 
L 194.4 17.28 
" clip-path="url(#p64d5976365)" style="fill: none; stroke: #000000; stroke-opacity: 0.1; stroke-width: 0.7; stroke-linecap: square"/>
     </g>
     <g id="line2d_4">
      <g>
       <use xlink:href="#m2fd7ed6dfe" x="194.4" y="388.8" style="stroke: #000000; stroke-width: 0.8"/>
      </g>
     </g>
     <g id="text_2">
      <!-- 0.25 -->
      <g transform="translate(179.927344 405.677969) scale(0.13 -0.13)">
       <defs>
        <path id="DejaVuSans-32" d="M 1228 531 
L 3431 531 
L 3431 0 
L 469 0 
L 469 531 
Q 828 903 1448 1529 
Q 2069 2156 2228 2338 
Q 2531 2678 2651 2914 
Q 2772 3150 2772 3378 
Q 2772 3750 2511 3984 
Q 2250 4219 1831 4219 
Q 1534 4219 1204 4116 
Q 875 4013 500 3803 
L 500 4441 
Q 881 4594 1212 4672 
Q 1544 4750 1819 4750 
Q 2544 4750 2975 4387 
Q 3406 4025 3406 3419 
Q 3406 3131 3298 2873 
Q 3191 2616 2906 2266 
Q 2828 2175 2409 1742 
Q 1991 1309 1228 531 
z
" transform="scale(0.015625)"/>
        <path id="DejaVuSans-35" d="M 691 4666 
L 3169 4666 
L 3169 4134 
L 1269 4134 
L 1269 2991 
Q 1406 3038 1543 3061 
Q 1681 3084 1819 3084 
Q 2600 3084 3056 2656 
Q 3513 2228 3513 1497 
Q 3513 744 3044 326 
Q 2575 -91 1722 -91 
Q 1428 -91 1123 -41 
Q 819 9 494 109 
L 494 744 
Q 775 591 1075 516 
Q 1375 441 1709 441 
Q 2250 441 2565 725 
Q 2881 1009 2881 1497 
Q 2881 1984 2565 2268 
Q 2250 2553 1709 2553 
Q 1456 2553 1204 2497 
Q 953 2441 691 2322 
L 691 4666 
z
" transform="scale(0.015625)"/>
       </defs>
       <use xlink:href="#DejaVuSans-30"/>
       <use xlink:href="#DejaVuSans-2e" x="63.623047"/>
       <use xlink:href="#DejaVuSans-32" x="95.410156"/>
       <use xlink:href="#DejaVuSans-35" x="159.033203"/>
      </g>
     </g>
    </g>
    <g id="xtick_3">
     <g id="line2d_5">
      <path d="M 334.8 388.8 
L 334.8 17.28 
" clip-path="url(#p64d5976365)" style="fill: none; stroke: #000000; stroke-opacity: 0.1; stroke-width: 0.7; stroke-linecap: square"/>
     </g>
     <g id="line2d_6">
      <g>
       <use xlink:href="#m2fd7ed6dfe" x="334.8" y="388.8" style="stroke: #000000; stroke-width: 0.8"/>
      </g>
     </g>
     <g id="text_3">
      <!-- 0.50 -->
      <g transform="translate(320.327344 405.677969) scale(0.13 -0.13)">
       <use xlink:href="#DejaVuSans-30"/>
       <use xlink:href="#DejaVuSans-2e" x="63.623047"/>
       <use xlink:href="#DejaVuSans-35" x="95.410156"/>
       <use xlink:href="#DejaVuSans-30" x="159.033203"/>
      </g>
     </g>
    </g>
    <g id="text_4">
     <!-- Attack Ratio -->
     <g transform="translate(145.78375 424.539062) scale(0.16 -0.16)">
      <defs>
       <path id="DejaVuSans-41" d="M 2188 4044 
L 1331 1722 
L 3047 1722 
L 2188 4044 
z
M 1831 4666 
L 2547 4666 
L 4325 0 
L 3669 0 
L 3244 1197 
L 1141 1197 
L 716 0 
L 50 0 
L 1831 4666 
z
" transform="scale(0.015625)"/>
       <path id="DejaVuSans-74" d="M 1172 4494 
L 1172 3500 
L 2356 3500 
L 2356 3053 
L 1172 3053 
L 1172 1153 
Q 1172 725 1289 603 
Q 1406 481 1766 481 
L 2356 481 
L 2356 0 
L 1766 0 
Q 1100 0 847 248 
Q 594 497 594 1153 
L 594 3053 
L 172 3053 
L 172 3500 
L 594 3500 
L 594 4494 
L 1172 4494 
z
" transform="scale(0.015625)"/>
       <path id="DejaVuSans-61" d="M 2194 1759 
Q 1497 1759 1228 1600 
Q 959 1441 959 1056 
Q 959 750 1161 570 
Q 1363 391 1709 391 
Q 2188 391 2477 730 
Q 2766 1069 2766 1631 
L 2766 1759 
L 2194 1759 
z
M 3341 1997 
L 3341 0 
L 2766 0 
L 2766 531 
Q 2569 213 2275 61 
Q 1981 -91 1556 -91 
Q 1019 -91 701 211 
Q 384 513 384 1019 
Q 384 1609 779 1909 
Q 1175 2209 1959 2209 
L 2766 2209 
L 2766 2266 
Q 2766 2663 2505 2880 
Q 2244 3097 1772 3097 
Q 1472 3097 1187 3025 
Q 903 2953 641 2809 
L 641 3341 
Q 956 3463 1253 3523 
Q 1550 3584 1831 3584 
Q 2591 3584 2966 3190 
Q 3341 2797 3341 1997 
z
" transform="scale(0.015625)"/>
       <path id="DejaVuSans-63" d="M 3122 3366 
L 3122 2828 
Q 2878 2963 2633 3030 
Q 2388 3097 2138 3097 
Q 1578 3097 1268 2742 
Q 959 2388 959 1747 
Q 959 1106 1268 751 
Q 1578 397 2138 397 
Q 2388 397 2633 464 
Q 2878 531 3122 666 
L 3122 134 
Q 2881 22 2623 -34 
Q 2366 -91 2075 -91 
Q 1284 -91 818 406 
Q 353 903 353 1747 
Q 353 2603 823 3093 
Q 1294 3584 2113 3584 
Q 2378 3584 2631 3529 
Q 2884 3475 3122 3366 
z
" transform="scale(0.015625)"/>
       <path id="DejaVuSans-6b" d="M 581 4863 
L 1159 4863 
L 1159 1991 
L 2875 3500 
L 3609 3500 
L 1753 1863 
L 3688 0 
L 2938 0 
L 1159 1709 
L 1159 0 
L 581 0 
L 581 4863 
z
" transform="scale(0.015625)"/>
       <path id="DejaVuSans-20" transform="scale(0.015625)"/>
       <path id="DejaVuSans-52" d="M 2841 2188 
Q 3044 2119 3236 1894 
Q 3428 1669 3622 1275 
L 4263 0 
L 3584 0 
L 2988 1197 
Q 2756 1666 2539 1819 
Q 2322 1972 1947 1972 
L 1259 1972 
L 1259 0 
L 628 0 
L 628 4666 
L 2053 4666 
Q 2853 4666 3247 4331 
Q 3641 3997 3641 3322 
Q 3641 2881 3436 2590 
Q 3231 2300 2841 2188 
z
M 1259 4147 
L 1259 2491 
L 2053 2491 
Q 2509 2491 2742 2702 
Q 2975 2913 2975 3322 
Q 2975 3731 2742 3939 
Q 2509 4147 2053 4147 
L 1259 4147 
z
" transform="scale(0.015625)"/>
       <path id="DejaVuSans-69" d="M 603 3500 
L 1178 3500 
L 1178 0 
L 603 0 
L 603 3500 
z
M 603 4863 
L 1178 4863 
L 1178 4134 
L 603 4134 
L 603 4863 
z
" transform="scale(0.015625)"/>
       <path id="DejaVuSans-6f" d="M 1959 3097 
Q 1497 3097 1228 2736 
Q 959 2375 959 1747 
Q 959 1119 1226 758 
Q 1494 397 1959 397 
Q 2419 397 2687 759 
Q 2956 1122 2956 1747 
Q 2956 2369 2687 2733 
Q 2419 3097 1959 3097 
z
M 1959 3584 
Q 2709 3584 3137 3096 
Q 3566 2609 3566 1747 
Q 3566 888 3137 398 
Q 2709 -91 1959 -91 
Q 1206 -91 779 398 
Q 353 888 353 1747 
Q 353 2609 779 3096 
Q 1206 3584 1959 3584 
z
" transform="scale(0.015625)"/>
      </defs>
      <use xlink:href="#DejaVuSans-41"/>
      <use xlink:href="#DejaVuSans-74" x="66.658203"/>
      <use xlink:href="#DejaVuSans-74" x="105.867188"/>
      <use xlink:href="#DejaVuSans-61" x="145.076172"/>
      <use xlink:href="#DejaVuSans-63" x="206.355469"/>
      <use xlink:href="#DejaVuSans-6b" x="261.335938"/>
      <use xlink:href="#DejaVuSans-20" x="319.246094"/>
      <use xlink:href="#DejaVuSans-52" x="351.033203"/>
      <use xlink:href="#DejaVuSans-61" x="418.265625"/>
      <use xlink:href="#DejaVuSans-74" x="479.544922"/>
      <use xlink:href="#DejaVuSans-69" x="518.753906"/>
      <use xlink:href="#DejaVuSans-6f" x="546.537109"/>
     </g>
    </g>
   </g>
   <g id="matplotlib.axis_2">
    <g id="ytick_1">
     <g id="line2d_7">
      <path d="M 54 388.8 
L 334.8 388.8 
" clip-path="url(#p64d5976365)" style="fill: none; stroke: #000000; stroke-opacity: 0.1; stroke-width: 0.7; stroke-linecap: square"/>
     </g>
     <g id="line2d_8">
      <defs>
       <path id="mbe0116f1f6" d="M 0 0 
L -3.5 0 
" style="stroke: #000000; stroke-width: 0.8"/>
      </defs>
      <g>
       <use xlink:href="#mbe0116f1f6" x="54" y="388.8" style="stroke: #000000; stroke-width: 0.8"/>
      </g>
     </g>
     <g id="text_5">
      <!-- 0.0 -->
      <g transform="translate(26.325937 393.738984) scale(0.13 -0.13)">
       <use xlink:href="#DejaVuSans-30"/>
       <use xlink:href="#DejaVuSans-2e" x="63.623047"/>
       <use xlink:href="#DejaVuSans-30" x="95.410156"/>
      </g>
     </g>
    </g>
    <g id="ytick_2">
     <g id="line2d_9">
      <path d="M 54 351.648 
L 334.8 351.648 
" clip-path="url(#p64d5976365)" style="fill: none; stroke: #000000; stroke-opacity: 0.1; stroke-width: 0.7; stroke-linecap: square"/>
     </g>
     <g id="line2d_10">
      <g>
       <use xlink:href="#mbe0116f1f6" x="54" y="351.648" style="stroke: #000000; stroke-width: 0.8"/>
      </g>
     </g>
     <g id="text_6">
      <!-- 0.1 -->
      <g transform="translate(26.325937 356.586984) scale(0.13 -0.13)">
       <defs>
        <path id="DejaVuSans-31" d="M 794 531 
L 1825 531 
L 1825 4091 
L 703 3866 
L 703 4441 
L 1819 4666 
L 2450 4666 
L 2450 531 
L 3481 531 
L 3481 0 
L 794 0 
L 794 531 
z
" transform="scale(0.015625)"/>
       </defs>
       <use xlink:href="#DejaVuSans-30"/>
       <use xlink:href="#DejaVuSans-2e" x="63.623047"/>
       <use xlink:href="#DejaVuSans-31" x="95.410156"/>
      </g>
     </g>
    </g>
    <g id="ytick_3">
     <g id="line2d_11">
      <path d="M 54 314.496 
L 334.8 314.496 
" clip-path="url(#p64d5976365)" style="fill: none; stroke: #000000; stroke-opacity: 0.1; stroke-width: 0.7; stroke-linecap: square"/>
     </g>
     <g id="line2d_12">
      <g>
       <use xlink:href="#mbe0116f1f6" x="54" y="314.496" style="stroke: #000000; stroke-width: 0.8"/>
      </g>
     </g>
     <g id="text_7">
      <!-- 0.2 -->
      <g transform="translate(26.325937 319.434984) scale(0.13 -0.13)">
       <use xlink:href="#DejaVuSans-30"/>
       <use xlink:href="#DejaVuSans-2e" x="63.623047"/>
       <use xlink:href="#DejaVuSans-32" x="95.410156"/>
      </g>
     </g>
    </g>
    <g id="ytick_4">
     <g id="line2d_13">
      <path d="M 54 277.344 
L 334.8 277.344 
" clip-path="url(#p64d5976365)" style="fill: none; stroke: #000000; stroke-opacity: 0.1; stroke-width: 0.7; stroke-linecap: square"/>
     </g>
     <g id="line2d_14">
      <g>
       <use xlink:href="#mbe0116f1f6" x="54" y="277.344" style="stroke: #000000; stroke-width: 0.8"/>
      </g>
     </g>
     <g id="text_8">
      <!-- 0.3 -->
      <g transform="translate(26.325937 282.282984) scale(0.13 -0.13)">
       <defs>
        <path id="DejaVuSans-33" d="M 2597 2516 
Q 3050 2419 3304 2112 
Q 3559 1806 3559 1356 
Q 3559 666 3084 287 
Q 2609 -91 1734 -91 
Q 1441 -91 1130 -33 
Q 819 25 488 141 
L 488 750 
Q 750 597 1062 519 
Q 1375 441 1716 441 
Q 2309 441 2620 675 
Q 2931 909 2931 1356 
Q 2931 1769 2642 2001 
Q 2353 2234 1838 2234 
L 1294 2234 
L 1294 2753 
L 1863 2753 
Q 2328 2753 2575 2939 
Q 2822 3125 2822 3475 
Q 2822 3834 2567 4026 
Q 2313 4219 1838 4219 
Q 1578 4219 1281 4162 
Q 984 4106 628 3988 
L 628 4550 
Q 988 4650 1302 4700 
Q 1616 4750 1894 4750 
Q 2613 4750 3031 4423 
Q 3450 4097 3450 3541 
Q 3450 3153 3228 2886 
Q 3006 2619 2597 2516 
z
" transform="scale(0.015625)"/>
       </defs>
       <use xlink:href="#DejaVuSans-30"/>
       <use xlink:href="#DejaVuSans-2e" x="63.623047"/>
       <use xlink:href="#DejaVuSans-33" x="95.410156"/>
      </g>
     </g>
    </g>
    <g id="ytick_5">
     <g id="line2d_15">
      <path d="M 54 240.192 
L 334.8 240.192 
" clip-path="url(#p64d5976365)" style="fill: none; stroke: #000000; stroke-opacity: 0.1; stroke-width: 0.7; stroke-linecap: square"/>
     </g>
     <g id="line2d_16">
      <g>
       <use xlink:href="#mbe0116f1f6" x="54" y="240.192" style="stroke: #000000; stroke-width: 0.8"/>
      </g>
     </g>
     <g id="text_9">
      <!-- 0.4 -->
      <g transform="translate(26.325937 245.130984) scale(0.13 -0.13)">
       <defs>
        <path id="DejaVuSans-34" d="M 2419 4116 
L 825 1625 
L 2419 1625 
L 2419 4116 
z
M 2253 4666 
L 3047 4666 
L 3047 1625 
L 3713 1625 
L 3713 1100 
L 3047 1100 
L 3047 0 
L 2419 0 
L 2419 1100 
L 313 1100 
L 313 1709 
L 2253 4666 
z
" transform="scale(0.015625)"/>
       </defs>
       <use xlink:href="#DejaVuSans-30"/>
       <use xlink:href="#DejaVuSans-2e" x="63.623047"/>
       <use xlink:href="#DejaVuSans-34" x="95.410156"/>
      </g>
     </g>
    </g>
    <g id="ytick_6">
     <g id="line2d_17">
      <path d="M 54 203.04 
L 334.8 203.04 
" clip-path="url(#p64d5976365)" style="fill: none; stroke: #000000; stroke-opacity: 0.1; stroke-width: 0.7; stroke-linecap: square"/>
     </g>
     <g id="line2d_18">
      <g>
       <use xlink:href="#mbe0116f1f6" x="54" y="203.04" style="stroke: #000000; stroke-width: 0.8"/>
      </g>
     </g>
     <g id="text_10">
      <!-- 0.5 -->
      <g transform="translate(26.325937 207.978984) scale(0.13 -0.13)">
       <use xlink:href="#DejaVuSans-30"/>
       <use xlink:href="#DejaVuSans-2e" x="63.623047"/>
       <use xlink:href="#DejaVuSans-35" x="95.410156"/>
      </g>
     </g>
    </g>
    <g id="ytick_7">
     <g id="line2d_19">
      <path d="M 54 165.888 
L 334.8 165.888 
" clip-path="url(#p64d5976365)" style="fill: none; stroke: #000000; stroke-opacity: 0.1; stroke-width: 0.7; stroke-linecap: square"/>
     </g>
     <g id="line2d_20">
      <g>
       <use xlink:href="#mbe0116f1f6" x="54" y="165.888" style="stroke: #000000; stroke-width: 0.8"/>
      </g>
     </g>
     <g id="text_11">
      <!-- 0.6 -->
      <g transform="translate(26.325937 170.826984) scale(0.13 -0.13)">
       <defs>
        <path id="DejaVuSans-36" d="M 2113 2584 
Q 1688 2584 1439 2293 
Q 1191 2003 1191 1497 
Q 1191 994 1439 701 
Q 1688 409 2113 409 
Q 2538 409 2786 701 
Q 3034 994 3034 1497 
Q 3034 2003 2786 2293 
Q 2538 2584 2113 2584 
z
M 3366 4563 
L 3366 3988 
Q 3128 4100 2886 4159 
Q 2644 4219 2406 4219 
Q 1781 4219 1451 3797 
Q 1122 3375 1075 2522 
Q 1259 2794 1537 2939 
Q 1816 3084 2150 3084 
Q 2853 3084 3261 2657 
Q 3669 2231 3669 1497 
Q 3669 778 3244 343 
Q 2819 -91 2113 -91 
Q 1303 -91 875 529 
Q 447 1150 447 2328 
Q 447 3434 972 4092 
Q 1497 4750 2381 4750 
Q 2619 4750 2861 4703 
Q 3103 4656 3366 4563 
z
" transform="scale(0.015625)"/>
       </defs>
       <use xlink:href="#DejaVuSans-30"/>
       <use xlink:href="#DejaVuSans-2e" x="63.623047"/>
       <use xlink:href="#DejaVuSans-36" x="95.410156"/>
      </g>
     </g>
    </g>
    <g id="ytick_8">
     <g id="line2d_21">
      <path d="M 54 128.736 
L 334.8 128.736 
" clip-path="url(#p64d5976365)" style="fill: none; stroke: #000000; stroke-opacity: 0.1; stroke-width: 0.7; stroke-linecap: square"/>
     </g>
     <g id="line2d_22">
      <g>
       <use xlink:href="#mbe0116f1f6" x="54" y="128.736" style="stroke: #000000; stroke-width: 0.8"/>
      </g>
     </g>
     <g id="text_12">
      <!-- 0.7 -->
      <g transform="translate(26.325937 133.674984) scale(0.13 -0.13)">
       <defs>
        <path id="DejaVuSans-37" d="M 525 4666 
L 3525 4666 
L 3525 4397 
L 1831 0 
L 1172 0 
L 2766 4134 
L 525 4134 
L 525 4666 
z
" transform="scale(0.015625)"/>
       </defs>
       <use xlink:href="#DejaVuSans-30"/>
       <use xlink:href="#DejaVuSans-2e" x="63.623047"/>
       <use xlink:href="#DejaVuSans-37" x="95.410156"/>
      </g>
     </g>
    </g>
    <g id="ytick_9">
     <g id="line2d_23">
      <path d="M 54 91.584 
L 334.8 91.584 
" clip-path="url(#p64d5976365)" style="fill: none; stroke: #000000; stroke-opacity: 0.1; stroke-width: 0.7; stroke-linecap: square"/>
     </g>
     <g id="line2d_24">
      <g>
       <use xlink:href="#mbe0116f1f6" x="54" y="91.584" style="stroke: #000000; stroke-width: 0.8"/>
      </g>
     </g>
     <g id="text_13">
      <!-- 0.8 -->
      <g transform="translate(26.325937 96.522984) scale(0.13 -0.13)">
       <defs>
        <path id="DejaVuSans-38" d="M 2034 2216 
Q 1584 2216 1326 1975 
Q 1069 1734 1069 1313 
Q 1069 891 1326 650 
Q 1584 409 2034 409 
Q 2484 409 2743 651 
Q 3003 894 3003 1313 
Q 3003 1734 2745 1975 
Q 2488 2216 2034 2216 
z
M 1403 2484 
Q 997 2584 770 2862 
Q 544 3141 544 3541 
Q 544 4100 942 4425 
Q 1341 4750 2034 4750 
Q 2731 4750 3128 4425 
Q 3525 4100 3525 3541 
Q 3525 3141 3298 2862 
Q 3072 2584 2669 2484 
Q 3125 2378 3379 2068 
Q 3634 1759 3634 1313 
Q 3634 634 3220 271 
Q 2806 -91 2034 -91 
Q 1263 -91 848 271 
Q 434 634 434 1313 
Q 434 1759 690 2068 
Q 947 2378 1403 2484 
z
M 1172 3481 
Q 1172 3119 1398 2916 
Q 1625 2713 2034 2713 
Q 2441 2713 2670 2916 
Q 2900 3119 2900 3481 
Q 2900 3844 2670 4047 
Q 2441 4250 2034 4250 
Q 1625 4250 1398 4047 
Q 1172 3844 1172 3481 
z
" transform="scale(0.015625)"/>
       </defs>
       <use xlink:href="#DejaVuSans-30"/>
       <use xlink:href="#DejaVuSans-2e" x="63.623047"/>
       <use xlink:href="#DejaVuSans-38" x="95.410156"/>
      </g>
     </g>
    </g>
    <g id="ytick_10">
     <g id="line2d_25">
      <path d="M 54 54.432 
L 334.8 54.432 
" clip-path="url(#p64d5976365)" style="fill: none; stroke: #000000; stroke-opacity: 0.1; stroke-width: 0.7; stroke-linecap: square"/>
     </g>
     <g id="line2d_26">
      <g>
       <use xlink:href="#mbe0116f1f6" x="54" y="54.432" style="stroke: #000000; stroke-width: 0.8"/>
      </g>
     </g>
     <g id="text_14">
      <!-- 0.9 -->
      <g transform="translate(26.325937 59.370984) scale(0.13 -0.13)">
       <defs>
        <path id="DejaVuSans-39" d="M 703 97 
L 703 672 
Q 941 559 1184 500 
Q 1428 441 1663 441 
Q 2288 441 2617 861 
Q 2947 1281 2994 2138 
Q 2813 1869 2534 1725 
Q 2256 1581 1919 1581 
Q 1219 1581 811 2004 
Q 403 2428 403 3163 
Q 403 3881 828 4315 
Q 1253 4750 1959 4750 
Q 2769 4750 3195 4129 
Q 3622 3509 3622 2328 
Q 3622 1225 3098 567 
Q 2575 -91 1691 -91 
Q 1453 -91 1209 -44 
Q 966 3 703 97 
z
M 1959 2075 
Q 2384 2075 2632 2365 
Q 2881 2656 2881 3163 
Q 2881 3666 2632 3958 
Q 2384 4250 1959 4250 
Q 1534 4250 1286 3958 
Q 1038 3666 1038 3163 
Q 1038 2656 1286 2365 
Q 1534 2075 1959 2075 
z
" transform="scale(0.015625)"/>
       </defs>
       <use xlink:href="#DejaVuSans-30"/>
       <use xlink:href="#DejaVuSans-2e" x="63.623047"/>
       <use xlink:href="#DejaVuSans-39" x="95.410156"/>
      </g>
     </g>
    </g>
    <g id="ytick_11">
     <g id="line2d_27">
      <path d="M 54 17.28 
L 334.8 17.28 
" clip-path="url(#p64d5976365)" style="fill: none; stroke: #000000; stroke-opacity: 0.1; stroke-width: 0.7; stroke-linecap: square"/>
     </g>
     <g id="line2d_28">
      <g>
       <use xlink:href="#mbe0116f1f6" x="54" y="17.28" style="stroke: #000000; stroke-width: 0.8"/>
      </g>
     </g>
     <g id="text_15">
      <!-- 1.0 -->
      <g transform="translate(26.325937 22.218984) scale(0.13 -0.13)">
       <use xlink:href="#DejaVuSans-31"/>
       <use xlink:href="#DejaVuSans-2e" x="63.623047"/>
       <use xlink:href="#DejaVuSans-30" x="95.410156"/>
      </g>
     </g>
    </g>
    <g id="text_16">
     <!-- GCC Size -->
     <g transform="translate(18.998437 239.37625) rotate(-90) scale(0.16 -0.16)">
      <defs>
       <path id="DejaVuSans-47" d="M 3809 666 
L 3809 1919 
L 2778 1919 
L 2778 2438 
L 4434 2438 
L 4434 434 
Q 4069 175 3628 42 
Q 3188 -91 2688 -91 
Q 1594 -91 976 548 
Q 359 1188 359 2328 
Q 359 3472 976 4111 
Q 1594 4750 2688 4750 
Q 3144 4750 3555 4637 
Q 3966 4525 4313 4306 
L 4313 3634 
Q 3963 3931 3569 4081 
Q 3175 4231 2741 4231 
Q 1884 4231 1454 3753 
Q 1025 3275 1025 2328 
Q 1025 1384 1454 906 
Q 1884 428 2741 428 
Q 3075 428 3337 486 
Q 3600 544 3809 666 
z
" transform="scale(0.015625)"/>
       <path id="DejaVuSans-43" d="M 4122 4306 
L 4122 3641 
Q 3803 3938 3442 4084 
Q 3081 4231 2675 4231 
Q 1875 4231 1450 3742 
Q 1025 3253 1025 2328 
Q 1025 1406 1450 917 
Q 1875 428 2675 428 
Q 3081 428 3442 575 
Q 3803 722 4122 1019 
L 4122 359 
Q 3791 134 3420 21 
Q 3050 -91 2638 -91 
Q 1578 -91 968 557 
Q 359 1206 359 2328 
Q 359 3453 968 4101 
Q 1578 4750 2638 4750 
Q 3056 4750 3426 4639 
Q 3797 4528 4122 4306 
z
" transform="scale(0.015625)"/>
       <path id="DejaVuSans-53" d="M 3425 4513 
L 3425 3897 
Q 3066 4069 2747 4153 
Q 2428 4238 2131 4238 
Q 1616 4238 1336 4038 
Q 1056 3838 1056 3469 
Q 1056 3159 1242 3001 
Q 1428 2844 1947 2747 
L 2328 2669 
Q 3034 2534 3370 2195 
Q 3706 1856 3706 1288 
Q 3706 609 3251 259 
Q 2797 -91 1919 -91 
Q 1588 -91 1214 -16 
Q 841 59 441 206 
L 441 856 
Q 825 641 1194 531 
Q 1563 422 1919 422 
Q 2459 422 2753 634 
Q 3047 847 3047 1241 
Q 3047 1584 2836 1778 
Q 2625 1972 2144 2069 
L 1759 2144 
Q 1053 2284 737 2584 
Q 422 2884 422 3419 
Q 422 4038 858 4394 
Q 1294 4750 2059 4750 
Q 2388 4750 2728 4690 
Q 3069 4631 3425 4513 
z
" transform="scale(0.015625)"/>
       <path id="DejaVuSans-7a" d="M 353 3500 
L 3084 3500 
L 3084 2975 
L 922 459 
L 3084 459 
L 3084 0 
L 275 0 
L 275 525 
L 2438 3041 
L 353 3041 
L 353 3500 
z
" transform="scale(0.015625)"/>
       <path id="DejaVuSans-65" d="M 3597 1894 
L 3597 1613 
L 953 1613 
Q 991 1019 1311 708 
Q 1631 397 2203 397 
Q 2534 397 2845 478 
Q 3156 559 3463 722 
L 3463 178 
Q 3153 47 2828 -22 
Q 2503 -91 2169 -91 
Q 1331 -91 842 396 
Q 353 884 353 1716 
Q 353 2575 817 3079 
Q 1281 3584 2069 3584 
Q 2775 3584 3186 3129 
Q 3597 2675 3597 1894 
z
M 3022 2063 
Q 3016 2534 2758 2815 
Q 2500 3097 2075 3097 
Q 1594 3097 1305 2825 
Q 1016 2553 972 2059 
L 3022 2063 
z
" transform="scale(0.015625)"/>
      </defs>
      <use xlink:href="#DejaVuSans-47"/>
      <use xlink:href="#DejaVuSans-43" x="77.490234"/>
      <use xlink:href="#DejaVuSans-43" x="147.314453"/>
      <use xlink:href="#DejaVuSans-20" x="217.138672"/>
      <use xlink:href="#DejaVuSans-53" x="248.925781"/>
      <use xlink:href="#DejaVuSans-69" x="312.402344"/>
      <use xlink:href="#DejaVuSans-7a" x="340.185547"/>
      <use xlink:href="#DejaVuSans-65" x="392.675781"/>
     </g>
    </g>
   </g>
   <g id="line2d_29">
    <path d="M 54.252518 17.948201 
L 55.767626 18.950504 
L 56.272662 19.952806 
L 56.52518 23.293813 
L 56.777698 23.627914 
L 57.030216 24.964317 
L 57.535252 25.799568 
L 57.78777 25.966619 
L 58.040288 26.300719 
L 58.545324 29.140576 
L 59.555396 29.808777 
L 60.060432 30.309928 
L 60.565468 30.644029 
L 60.817986 31.980432 
L 61.323022 32.815683 
L 61.828058 33.483885 
L 62.080576 34.987338 
L 62.838129 35.488489 
L 63.595683 36.323741 
L 63.848201 36.490791 
L 64.100719 37.158993 
L 64.605755 37.493094 
L 64.858273 38.829496 
L 66.120863 39.664748 
L 66.373381 40.165899 
L 66.625899 41.001151 
L 67.130935 41.502302 
L 67.383453 41.669353 
L 68.393525 42.838705 
L 68.898561 44.175108 
L 69.908633 44.843309 
L 70.413669 45.678561 
L 70.666187 46.680863 
L 71.171223 47.014964 
L 71.423741 48.184317 
L 71.676259 48.685468 
L 72.686331 53.696978 
L 73.191367 54.866331 
L 73.948921 55.367482 
L 74.201439 57.205036 
L 74.453957 58.040288 
L 74.706475 58.207338 
L 74.958993 58.708489 
L 75.211511 64.722302 
L 75.464029 64.889353 
L 75.716547 66.058705 
L 76.726619 66.726906 
L 77.231655 67.228058 
L 77.484173 68.56446 
L 77.736691 68.731511 
L 77.989209 69.232662 
L 78.241727 70.569065 
L 78.999281 72.072518 
L 79.251799 72.239568 
L 79.504317 72.90777 
L 79.756835 75.246475 
L 80.009353 75.413525 
L 80.261871 76.749928 
L 81.019424 78.921583 
L 81.776978 79.422734 
L 82.029496 79.923885 
L 82.282014 80.759137 
L 82.78705 81.093237 
L 83.039568 81.761439 
L 83.292086 83.431942 
L 84.302158 84.100144 
L 84.807194 84.601295 
L 85.059712 85.436547 
L 85.31223 86.94 
L 85.564748 87.10705 
L 86.322302 88.443453 
L 86.827338 88.777554 
L 87.079856 89.111655 
L 87.332374 89.779856 
L 87.584892 90.113957 
L 87.83741 92.118561 
L 88.342446 92.619712 
L 88.594964 93.789065 
L 88.847482 94.123165 
L 89.1 95.125468 
L 89.605036 95.626619 
L 90.110072 95.960719 
L 90.615108 97.130072 
L 90.867626 97.965324 
L 91.372662 98.299424 
L 91.877698 100.471079 
L 93.392806 102.308633 
L 93.897842 102.642734 
L 94.15036 106.317842 
L 94.402878 106.986043 
L 95.41295 107.654245 
L 95.665468 109.825899 
L 95.917986 109.99295 
L 96.170504 110.494101 
L 96.423022 110.661151 
L 96.67554 111.329353 
L 98.190647 112.331655 
L 98.695683 113.333957 
L 99.705755 114.002158 
L 101.220863 115.839712 
L 101.725899 116.173813 
L 102.735971 117.343165 
L 102.988489 117.510216 
L 103.241007 118.011367 
L 103.998561 118.512518 
L 104.251079 119.013669 
L 105.008633 119.51482 
L 105.261151 120.015971 
L 105.513669 120.851223 
L 105.766187 122.187626 
L 106.776259 122.855827 
L 107.028777 123.356978 
L 107.281295 124.359281 
L 107.533813 124.860432 
L 107.786331 125.027482 
L 108.038849 126.029784 
L 108.543885 127.032086 
L 108.796403 127.199137 
L 109.806475 128.368489 
L 110.058993 134.048201 
L 110.311511 134.549353 
L 110.564029 136.553957 
L 111.826619 137.389209 
L 112.079137 137.723309 
L 112.331655 138.558561 
L 112.584173 138.725612 
L 114.099281 140.563165 
L 114.351799 141.565468 
L 114.856835 142.066619 
L 115.109353 142.233669 
L 115.614388 145.240576 
L 115.866906 145.574676 
L 116.119424 146.242878 
L 116.876978 146.744029 
L 117.129496 147.24518 
L 117.382014 148.414532 
L 117.634532 148.748633 
L 117.88705 150.586187 
L 118.139568 151.254388 
L 118.392086 151.588489 
L 118.644604 152.256691 
L 118.897122 153.426043 
L 119.654676 153.927194 
L 120.917266 157.769353 
L 121.422302 158.270504 
L 121.927338 158.604604 
L 122.179856 159.105755 
L 122.432374 160.609209 
L 122.93741 160.943309 
L 123.189928 164.117266 
L 123.947482 164.618417 
L 124.2 165.620719 
L 124.957554 166.957122 
L 125.210072 169.128777 
L 125.46259 169.462878 
L 125.715108 169.462878 
L 125.967626 171.801583 
L 126.220144 183.328058 
L 126.72518 183.829209 
L 126.977698 183.996259 
L 127.230216 185.833813 
L 127.482734 186.000863 
L 127.735252 187.003165 
L 127.98777 187.170216 
L 128.240288 188.339568 
L 128.492806 188.673669 
L 128.745324 189.341871 
L 128.997842 189.508921 
L 129.25036 190.344173 
L 130.260432 191.012374 
L 130.765468 191.847626 
L 131.270504 192.181727 
L 131.77554 193.351079 
L 132.028058 194.019281 
L 132.533094 194.353381 
L 132.785612 194.854532 
L 133.038129 195.856835 
L 133.290647 196.190935 
L 134.048201 198.028489 
L 134.553237 199.030791 
L 134.805755 199.197842 
L 135.058273 199.531942 
L 135.310791 200.367194 
L 135.815827 200.868345 
L 136.068345 210.223165 
L 136.320863 210.724317 
L 136.573381 211.559568 
L 136.825899 212.895971 
L 137.330935 213.731223 
L 137.583453 214.566475 
L 138.593525 215.234676 
L 139.603597 217.406331 
L 139.856115 218.241583 
L 140.108633 218.408633 
L 140.361151 219.745036 
L 140.613669 219.912086 
L 141.118705 220.413237 
L 141.371223 222.417842 
L 141.623741 222.918993 
L 141.876259 224.756547 
L 142.381295 225.257698 
L 142.886331 226.928201 
L 143.138849 227.763453 
L 144.148921 228.431655 
L 144.401439 229.433957 
L 146.169065 232.774964 
L 146.421583 243.132086 
L 146.926619 243.466187 
L 147.179137 243.800288 
L 147.431655 244.468489 
L 147.684173 246.306043 
L 147.936691 246.473094 
L 148.694245 247.308345 
L 149.199281 249.145899 
L 149.451799 249.31295 
L 149.704317 249.64705 
L 149.956835 250.315252 
L 150.714388 250.816403 
L 152.229496 252.988058 
L 152.482014 253.656259 
L 153.239568 254.491511 
L 153.492086 254.658561 
L 154.24964 256.496115 
L 154.502158 258.500719 
L 155.259712 259.670072 
L 155.51223 260.171223 
L 155.764748 261.674676 
L 156.269784 262.008777 
L 156.522302 263.34518 
L 157.279856 264.180432 
L 157.784892 267.020288 
L 158.542446 267.85554 
L 159.805036 268.690791 
L 160.057554 270.695396 
L 160.310072 270.862446 
L 160.815108 271.697698 
L 161.067626 272.365899 
L 161.320144 328.828921 
L 161.82518 329.163022 
L 162.330216 331.334676 
L 162.582734 332.002878 
L 163.340288 332.504029 
L 163.592806 332.504029 
L 163.845324 333.17223 
L 164.097842 335.176835 
L 164.35036 335.510935 
L 164.602878 340.355396 
L 164.855396 340.856547 
L 165.61295 341.357698 
L 166.370504 341.357698 
L 166.623022 341.524748 
L 167.128058 342.025899 
L 167.380576 352.215971 
L 167.633094 352.383022 
L 167.885612 355.222878 
L 168.138129 355.389928 
L 169.148201 359.566187 
L 169.400719 359.733237 
L 169.905755 359.733237 
L 170.158273 360.90259 
L 170.410791 362.907194 
L 170.663309 363.241295 
L 170.915827 367.083453 
L 171.168345 368.085755 
L 171.420863 370.09036 
L 171.673381 370.25741 
L 171.925899 373.264317 
L 172.178417 374.099568 
L 172.683453 374.600719 
L 173.188489 374.600719 
L 173.693525 377.440576 
L 173.946043 377.440576 
L 174.198561 377.774676 
L 174.451079 377.774676 
L 174.956115 378.108777 
L 175.208633 378.609928 
L 175.461151 379.44518 
L 175.966187 379.779281 
L 176.218705 381.282734 
L 176.471223 381.449784 
L 176.723741 381.950935 
L 176.976259 382.117986 
L 177.228777 382.786187 
L 177.481295 382.786187 
L 177.733813 382.953237 
L 177.986331 382.953237 
L 178.491367 383.454388 
L 179.248921 383.454388 
L 179.501439 383.621439 
L 179.753957 383.621439 
L 180.258993 384.456691 
L 180.511511 384.623741 
L 181.774101 384.623741 
L 182.279137 384.957842 
L 182.784173 384.957842 
L 183.036691 385.291942 
L 183.541727 385.291942 
L 183.794245 385.458993 
L 184.046763 385.458993 
L 184.299281 385.626043 
L 185.056835 385.626043 
L 185.561871 385.960144 
L 186.571942 385.960144 
L 186.82446 386.127194 
L 187.582014 386.127194 
L 187.834532 386.294245 
L 188.08705 386.294245 
L 188.339568 386.461295 
L 189.097122 386.461295 
L 189.34964 386.628345 
L 189.602158 386.628345 
L 189.854676 386.795396 
L 190.61223 386.795396 
L 190.864748 386.962446 
L 194.4 386.962446 
L 194.652518 387.129496 
L 195.915108 387.129496 
L 196.167626 387.296547 
L 199.702878 387.296547 
L 199.955396 387.463597 
L 201.217986 387.463597 
L 201.470504 387.630647 
L 206.268345 387.630647 
L 206.520863 387.797698 
L 211.823741 387.797698 
L 212.076259 387.964748 
L 219.146763 387.964748 
L 219.399281 388.131799 
L 228.489928 388.131799 
L 228.742446 388.298849 
L 244.146043 388.298849 
L 244.398561 388.465899 
L 244.398561 388.465899 
" clip-path="url(#p64d5976365)" style="fill: none; stroke: #d80000; stroke-width: 1.8; stroke-linecap: square"/>
   </g>
   <g id="line2d_30">
    <path d="M 54.252518 17.44705 
L 54.505036 17.44705 
L 54.757554 17.614101 
L 55.010072 17.614101 
L 55.26259 17.781151 
L 55.515108 18.282302 
L 56.777698 18.282302 
L 57.282734 18.616403 
L 57.78777 18.616403 
L 58.040288 18.783453 
L 58.292806 18.783453 
L 58.797842 19.284604 
L 59.302878 19.618705 
L 59.807914 20.119856 
L 60.060432 20.286906 
L 60.565468 20.286906 
L 61.070504 20.788058 
L 61.323022 20.955108 
L 61.57554 21.456259 
L 61.828058 21.456259 
L 62.333094 21.79036 
L 62.585612 22.959712 
L 62.838129 23.126763 
L 63.090647 23.126763 
L 63.848201 23.627914 
L 64.353237 24.296115 
L 64.605755 24.296115 
L 64.858273 24.964317 
L 65.363309 25.298417 
L 65.615827 25.298417 
L 66.373381 25.799568 
L 66.625899 26.63482 
L 66.878417 26.63482 
L 67.383453 26.968921 
L 67.635971 27.303022 
L 68.393525 27.303022 
L 68.646043 27.971223 
L 68.898561 28.138273 
L 69.151079 28.806475 
L 69.403597 28.806475 
L 70.161151 29.641727 
L 70.413669 29.641727 
L 70.666187 29.808777 
L 71.171223 29.808777 
L 72.181295 30.978129 
L 72.686331 31.31223 
L 72.938849 31.646331 
L 73.443885 31.646331 
L 73.696403 31.813381 
L 74.201439 32.982734 
L 74.453957 33.149784 
L 74.706475 33.149784 
L 74.958993 33.483885 
L 75.211511 33.483885 
L 75.464029 33.650935 
L 75.969065 34.152086 
L 76.221583 34.319137 
L 76.474101 34.319137 
L 76.726619 34.486187 
L 76.979137 34.486187 
L 77.231655 34.653237 
L 77.484173 34.653237 
L 77.736691 35.321439 
L 78.241727 35.65554 
L 78.494245 35.65554 
L 78.746763 35.98964 
L 79.251799 35.98964 
L 79.504317 36.156691 
L 79.756835 37.326043 
L 80.009353 37.326043 
L 80.261871 37.493094 
L 80.766906 37.493094 
L 82.029496 38.328345 
L 82.534532 38.996547 
L 82.78705 38.996547 
L 83.039568 39.330647 
L 83.292086 39.330647 
L 83.544604 39.664748 
L 84.04964 39.664748 
L 84.554676 40.165899 
L 84.807194 40.33295 
L 85.31223 41.502302 
L 85.564748 41.502302 
L 85.817266 41.669353 
L 86.827338 41.669353 
L 87.079856 41.836403 
L 87.584892 42.337554 
L 88.089928 42.671655 
L 88.342446 42.671655 
L 88.847482 43.172806 
L 89.1 43.172806 
L 89.857554 43.673957 
L 90.110072 43.673957 
L 90.36259 44.175108 
L 90.615108 44.175108 
L 91.120144 44.509209 
L 91.372662 45.01036 
L 91.62518 46.179712 
L 91.877698 46.179712 
L 92.130216 47.182014 
L 92.382734 47.182014 
L 92.635252 47.349065 
L 93.140288 47.349065 
L 93.392806 47.516115 
L 93.897842 48.017266 
L 94.15036 48.017266 
L 94.402878 48.184317 
L 94.907914 48.685468 
L 95.160432 48.852518 
L 95.41295 48.852518 
L 95.665468 49.520719 
L 95.917986 49.520719 
L 96.170504 49.68777 
L 96.67554 49.68777 
L 97.180576 50.021871 
L 97.433094 50.021871 
L 97.685612 50.188921 
L 97.938129 50.188921 
L 98.190647 50.355971 
L 98.443165 50.355971 
L 98.695683 50.523022 
L 98.948201 50.523022 
L 99.453237 50.857122 
L 99.705755 50.857122 
L 100.210791 51.191223 
L 100.715827 51.191223 
L 101.978417 52.026475 
L 102.230935 52.527626 
L 102.483453 52.694676 
L 103.998561 52.694676 
L 104.251079 53.028777 
L 105.261151 53.028777 
L 105.513669 53.195827 
L 106.271223 53.195827 
L 106.523741 53.362878 
L 106.776259 53.696978 
L 107.028777 53.696978 
L 107.533813 54.031079 
L 108.038849 54.53223 
L 108.291367 54.699281 
L 109.048921 54.699281 
L 109.301439 54.866331 
L 109.553957 55.367482 
L 109.806475 55.534532 
L 110.058993 55.534532 
L 110.311511 56.536835 
L 110.816547 56.870935 
L 111.069065 56.870935 
L 111.321583 57.037986 
L 111.826619 57.037986 
L 112.079137 57.205036 
L 112.331655 57.205036 
L 112.584173 57.372086 
L 112.836691 57.372086 
L 113.594245 57.873237 
L 113.846763 58.207338 
L 114.099281 58.207338 
L 114.351799 58.374388 
L 114.856835 58.374388 
L 115.109353 58.541439 
L 115.614388 58.541439 
L 116.119424 58.87554 
L 116.62446 58.87554 
L 117.382014 59.376691 
L 117.634532 59.376691 
L 117.88705 59.543741 
L 118.139568 59.877842 
L 118.644604 59.877842 
L 118.897122 60.211942 
L 119.14964 60.211942 
L 119.402158 60.378993 
L 119.654676 60.378993 
L 119.907194 60.546043 
L 120.159712 60.546043 
L 120.664748 61.047194 
L 121.169784 61.047194 
L 121.422302 61.214245 
L 121.67482 61.214245 
L 122.179856 61.715396 
L 122.93741 62.216547 
L 123.189928 62.550647 
L 123.442446 63.218849 
L 123.947482 63.55295 
L 124.452518 64.054101 
L 124.705036 64.221151 
L 124.957554 64.221151 
L 125.46259 64.722302 
L 125.715108 64.722302 
L 125.967626 64.889353 
L 126.220144 64.889353 
L 127.230216 65.557554 
L 127.735252 66.058705 
L 128.492806 66.559856 
L 128.745324 66.559856 
L 128.997842 66.726906 
L 129.25036 66.726906 
L 129.502878 66.893957 
L 129.755396 66.893957 
L 130.007914 67.395108 
L 130.260432 67.395108 
L 131.523022 68.23036 
L 131.77554 68.23036 
L 132.028058 68.39741 
L 132.533094 68.898561 
L 133.038129 68.898561 
L 133.290647 69.065612 
L 133.543165 69.399712 
L 134.048201 69.399712 
L 134.300719 69.566763 
L 134.553237 69.900863 
L 135.563309 69.900863 
L 135.815827 70.067914 
L 136.068345 70.067914 
L 136.320863 70.234964 
L 136.573381 70.234964 
L 136.825899 70.402014 
L 137.583453 70.402014 
L 137.835971 71.070216 
L 138.088489 71.070216 
L 138.341007 71.237266 
L 138.846043 71.237266 
L 139.098561 71.404317 
L 139.603597 71.404317 
L 140.108633 71.905468 
L 141.118705 71.905468 
L 141.371223 72.072518 
L 141.623741 72.072518 
L 142.128777 72.406619 
L 142.381295 72.740719 
L 143.138849 72.740719 
L 143.896403 73.241871 
L 144.148921 73.743022 
L 144.401439 73.910072 
L 145.158993 73.910072 
L 145.411511 74.077122 
L 145.664029 74.077122 
L 145.916547 74.244173 
L 146.169065 74.244173 
L 146.674101 74.578273 
L 147.179137 74.578273 
L 147.684173 74.912374 
L 148.694245 74.912374 
L 149.199281 75.246475 
L 149.451799 75.246475 
L 149.704317 75.747626 
L 149.956835 75.914676 
L 150.209353 75.914676 
L 150.461871 76.081727 
L 150.966906 76.582878 
L 151.471942 76.916978 
L 151.72446 77.58518 
L 151.976978 77.58518 
L 152.229496 77.75223 
L 152.734532 77.75223 
L 152.98705 77.919281 
L 153.492086 78.921583 
L 154.24964 79.422734 
L 154.502158 79.422734 
L 154.754676 79.589784 
L 155.007194 79.923885 
L 155.259712 79.923885 
L 155.51223 80.090935 
L 155.764748 80.090935 
L 156.269784 80.425036 
L 156.522302 80.425036 
L 156.77482 81.260288 
L 157.027338 81.260288 
L 157.279856 81.427338 
L 157.532374 81.427338 
L 158.289928 82.26259 
L 158.542446 82.42964 
L 158.794964 82.42964 
L 159.3 82.930791 
L 159.552518 83.097842 
L 160.057554 83.097842 
L 160.310072 83.264892 
L 160.815108 83.264892 
L 161.067626 83.431942 
L 161.82518 83.431942 
L 162.330216 83.933094 
L 162.582734 84.100144 
L 163.08777 84.601295 
L 163.340288 84.601295 
L 163.592806 84.935396 
L 163.845324 84.935396 
L 164.097842 85.102446 
L 164.35036 85.102446 
L 165.61295 86.605899 
L 165.865468 86.77295 
L 166.87554 86.77295 
L 167.380576 87.10705 
L 167.633094 87.10705 
L 167.885612 87.441151 
L 168.138129 87.441151 
L 168.390647 87.608201 
L 168.643165 88.443453 
L 168.895683 88.610504 
L 169.400719 88.610504 
L 169.653237 88.777554 
L 169.905755 88.777554 
L 170.410791 89.111655 
L 170.663309 89.111655 
L 170.915827 89.612806 
L 171.925899 90.281007 
L 172.683453 90.281007 
L 173.441007 90.782158 
L 173.693525 91.45036 
L 174.451079 91.951511 
L 174.703597 92.452662 
L 175.208633 92.452662 
L 175.966187 93.454964 
L 176.723741 93.454964 
L 176.976259 93.789065 
L 177.481295 93.789065 
L 179.753957 95.292518 
L 180.006475 96.795971 
L 180.258993 96.795971 
L 180.511511 96.963022 
L 180.764029 97.631223 
L 182.026619 99.134676 
L 182.279137 99.134676 
L 183.794245 100.136978 
L 184.299281 100.638129 
L 184.551799 100.638129 
L 184.804317 101.306331 
L 185.056835 101.473381 
L 185.309353 101.473381 
L 185.561871 101.807482 
L 185.814388 102.475683 
L 186.319424 102.475683 
L 186.571942 103.310935 
L 186.82446 103.310935 
L 187.076978 104.814388 
L 187.329496 104.981439 
L 187.582014 104.981439 
L 187.834532 105.148489 
L 188.339568 105.983741 
L 188.592086 106.484892 
L 188.844604 107.988345 
L 189.34964 108.489496 
L 189.854676 108.823597 
L 190.107194 108.823597 
L 190.359712 108.990647 
L 190.864748 110.995252 
L 191.117266 111.162302 
L 191.622302 111.162302 
L 191.87482 111.329353 
L 192.127338 111.329353 
L 193.13741 111.997554 
L 193.894964 112.832806 
L 194.147482 113.835108 
L 194.905036 114.336259 
L 195.157554 116.340863 
L 195.410072 117.009065 
L 195.66259 117.176115 
L 196.167626 117.677266 
L 196.420144 117.844317 
L 197.177698 118.679568 
L 197.430216 119.681871 
L 197.682734 120.015971 
L 197.935252 120.684173 
L 198.440288 121.352374 
L 198.692806 121.352374 
L 198.945324 121.686475 
L 199.197842 121.686475 
L 199.45036 122.855827 
L 199.702878 123.022878 
L 200.207914 124.359281 
L 201.97554 125.528633 
L 202.480576 125.528633 
L 202.985612 125.862734 
L 203.490647 125.862734 
L 203.743165 126.029784 
L 203.995683 126.530935 
L 204.248201 126.697986 
L 205.005755 127.700288 
L 205.510791 129.370791 
L 206.015827 130.038993 
L 206.268345 130.038993 
L 206.520863 130.707194 
L 206.773381 131.041295 
L 207.025899 131.041295 
L 207.530935 131.876547 
L 207.783453 131.876547 
L 208.035971 132.043597 
L 208.541007 132.878849 
L 208.793525 133.21295 
L 209.046043 134.048201 
L 209.298561 134.048201 
L 209.551079 134.883453 
L 210.056115 135.718705 
L 210.308633 136.386906 
L 210.813669 136.721007 
L 211.066187 137.556259 
L 211.571223 137.556259 
L 211.823741 137.89036 
L 212.076259 138.725612 
L 212.328777 139.059712 
L 212.833813 140.396115 
L 213.843885 141.565468 
L 214.096403 141.732518 
L 215.106475 143.235971 
L 215.358993 144.071223 
L 215.864029 144.572374 
L 216.116547 144.739424 
L 216.621583 145.407626 
L 216.874101 146.242878 
L 217.379137 146.911079 
L 217.884173 148.080432 
L 218.136691 148.414532 
L 218.389209 149.082734 
L 218.894245 149.416835 
L 219.146763 149.750935 
L 219.651799 151.421439 
L 219.904317 151.421439 
L 221.166906 153.258993 
L 221.671942 154.094245 
L 222.934532 155.597698 
L 223.18705 155.764748 
L 223.439568 156.43295 
L 223.944604 156.76705 
L 224.44964 157.268201 
L 224.954676 157.602302 
L 225.459712 158.270504 
L 225.71223 158.938705 
L 225.964748 158.938705 
L 226.217266 159.272806 
L 226.469784 159.941007 
L 226.722302 160.108058 
L 226.97482 160.442158 
L 227.479856 161.611511 
L 227.984892 161.945612 
L 228.23741 162.279712 
L 228.489928 162.279712 
L 228.742446 162.446763 
L 228.994964 162.947914 
L 229.247482 162.947914 
L 230.510072 164.451367 
L 230.76259 164.618417 
L 232.277698 166.455971 
L 233.035252 166.957122 
L 233.540288 167.458273 
L 234.297842 167.959424 
L 235.307914 169.796978 
L 235.81295 170.298129 
L 236.065468 170.46518 
L 236.317986 170.46518 
L 236.823022 170.799281 
L 237.07554 170.799281 
L 237.833094 171.634532 
L 238.085612 171.634532 
L 238.843165 172.469784 
L 239.095683 172.636835 
L 239.348201 173.137986 
L 239.600719 173.305036 
L 240.105755 173.806187 
L 240.358273 173.973237 
L 240.610791 174.307338 
L 240.863309 174.307338 
L 241.115827 174.474388 
L 241.368345 174.97554 
L 241.620863 175.14259 
L 242.378417 176.478993 
L 242.630935 176.478993 
L 242.883453 176.646043 
L 243.388489 177.147194 
L 243.641007 177.314245 
L 244.903597 178.817698 
L 245.408633 178.817698 
L 245.661151 179.318849 
L 245.913669 179.318849 
L 246.923741 180.655252 
L 246.923741 180.655252 
" clip-path="url(#p64d5976365)" style="fill: none; stroke: #264653; stroke-width: 1.8; stroke-linecap: square"/>
   </g>
   <g id="line2d_31">
    <path d="M 54.252518 17.28 
L 103.998561 17.28 
L 104.251079 17.44705 
L 104.756115 17.44705 
L 105.008633 17.781151 
L 107.281295 17.781151 
L 107.786331 18.115252 
L 108.796403 18.115252 
L 109.048921 18.616403 
L 110.564029 18.616403 
L 111.069065 18.950504 
L 111.321583 19.451655 
L 111.574101 19.618705 
L 111.826619 20.119856 
L 112.836691 20.788058 
L 113.594245 21.79036 
L 114.099281 23.627914 
L 115.109353 24.797266 
L 115.361871 24.964317 
L 116.119424 25.799568 
L 116.371942 27.303022 
L 116.62446 27.470072 
L 116.876978 28.138273 
L 117.88705 28.806475 
L 118.139568 29.641727 
L 118.392086 29.975827 
L 118.897122 31.31223 
L 119.402158 31.813381 
L 119.654676 31.980432 
L 119.907194 32.314532 
L 120.159712 32.982734 
L 120.917266 33.817986 
L 122.179856 34.653237 
L 122.432374 35.82259 
L 122.684892 36.156691 
L 123.947482 42.504604 
L 124.2 42.671655 
L 124.452518 43.172806 
L 124.705036 44.008058 
L 125.210072 44.342158 
L 125.46259 44.676259 
L 125.967626 45.845612 
L 127.230216 47.349065 
L 127.735252 47.683165 
L 127.98777 48.184317 
L 129.25036 49.019568 
L 129.502878 49.68777 
L 129.755396 49.85482 
L 130.007914 50.355971 
L 130.260432 51.358273 
L 130.51295 51.525324 
L 131.017986 52.694676 
L 131.270504 52.861727 
L 131.523022 53.362878 
L 132.028058 53.696978 
L 135.815827 58.541439 
L 136.068345 58.708489 
L 136.320863 59.543741 
L 136.573381 61.047194 
L 136.825899 61.214245 
L 137.078417 61.548345 
L 137.330935 63.051799 
L 137.583453 63.218849 
L 137.835971 64.054101 
L 138.593525 64.889353 
L 139.351079 65.390504 
L 139.603597 66.225755 
L 141.118705 68.063309 
L 141.371223 68.898561 
L 141.623741 69.065612 
L 142.128777 69.566763 
L 142.886331 70.067914 
L 143.643885 71.404317 
L 144.906475 72.239568 
L 145.158993 72.90777 
L 145.411511 73.07482 
L 146.169065 74.411223 
L 146.926619 74.912374 
L 147.684173 75.747626 
L 147.936691 75.914676 
L 148.946763 77.084029 
L 149.451799 77.418129 
L 150.209353 78.253381 
L 150.966906 78.754532 
L 151.219424 79.422734 
L 151.72446 81.260288 
L 152.482014 82.09554 
L 152.98705 82.42964 
L 153.239568 83.097842 
L 154.502158 83.933094 
L 154.754676 84.601295 
L 155.259712 84.935396 
L 155.51223 85.436547 
L 155.764748 86.94 
L 156.017266 87.441151 
L 156.269784 87.608201 
L 156.522302 88.443453 
L 157.532374 89.612806 
L 157.784892 89.779856 
L 158.794964 90.949209 
L 159.3 91.283309 
L 160.057554 92.118561 
L 160.310072 92.285612 
L 160.815108 93.120863 
L 161.067626 93.287914 
L 161.320144 94.457266 
L 161.572662 94.624317 
L 161.82518 95.459568 
L 163.340288 96.461871 
L 163.592806 97.297122 
L 164.35036 98.132374 
L 164.855396 99.969928 
L 166.623022 101.139281 
L 166.87554 101.974532 
L 167.633094 102.475683 
L 169.400719 104.814388 
L 169.653237 105.48259 
L 169.905755 105.64964 
L 170.410791 106.150791 
L 170.663309 106.317842 
L 171.168345 106.818993 
L 171.925899 108.990647 
L 172.178417 109.157698 
L 172.935971 109.99295 
L 173.188489 111.663453 
L 173.441007 111.830504 
L 173.693525 112.331655 
L 173.946043 113.333957 
L 174.956115 114.002158 
L 175.208633 114.67036 
L 175.461151 114.83741 
L 175.713669 115.672662 
L 176.471223 116.173813 
L 176.723741 117.176115 
L 176.976259 117.677266 
L 177.228777 120.350072 
L 177.481295 121.018273 
L 177.733813 121.185324 
L 177.986331 121.519424 
L 178.238849 122.688777 
L 178.743885 123.022878 
L 179.248921 123.524029 
L 180.006475 124.02518 
L 180.258993 124.526331 
L 180.764029 124.860432 
L 181.269065 125.361583 
L 181.521583 125.528633 
L 182.531655 127.533237 
L 182.784173 127.700288 
L 183.036691 128.368489 
L 183.289209 128.70259 
L 183.541727 128.70259 
L 183.794245 128.86964 
L 184.046763 130.038993 
L 184.299281 130.373094 
L 184.551799 131.041295 
L 184.804317 132.544748 
L 185.056835 133.045899 
L 185.309353 135.050504 
L 185.561871 135.217554 
L 186.319424 136.219856 
L 186.571942 136.219856 
L 186.82446 136.888058 
L 188.339568 138.725612 
L 189.854676 139.727914 
L 190.107194 141.398417 
L 190.864748 142.400719 
L 191.117266 143.068921 
L 191.369784 143.235971 
L 191.622302 145.240576 
L 192.379856 146.409928 
L 192.632374 147.41223 
L 193.642446 148.080432 
L 193.894964 149.249784 
L 194.905036 150.419137 
L 195.410072 153.091942 
L 195.915108 153.426043 
L 196.167626 153.760144 
L 196.420144 153.760144 
L 196.672662 153.927194 
L 196.92518 155.597698 
L 197.177698 156.098849 
L 197.430216 156.265899 
L 198.440288 158.103453 
L 199.702878 159.606906 
L 199.955396 160.442158 
L 200.71295 160.943309 
L 200.965468 161.611511 
L 201.217986 161.611511 
L 202.228058 162.780863 
L 202.480576 162.947914 
L 202.985612 163.783165 
L 203.490647 165.119568 
L 203.743165 165.286619 
L 204.248201 165.78777 
L 204.500719 165.95482 
L 204.753237 166.455971 
L 205.258273 166.790072 
L 205.510791 167.291223 
L 205.763309 167.458273 
L 206.015827 167.458273 
L 206.520863 169.462878 
L 206.773381 169.629928 
L 207.783453 172.135683 
L 208.035971 172.636835 
L 208.288489 172.803885 
L 208.541007 173.305036 
L 209.298561 175.643741 
L 209.551079 175.643741 
L 210.308633 177.147194 
L 210.561151 177.147194 
L 210.813669 178.149496 
L 211.318705 178.149496 
L 212.328777 179.318849 
L 213.086331 181.490504 
L 213.591367 182.325755 
L 214.096403 183.328058 
L 214.601439 183.662158 
L 214.853957 184.163309 
L 215.106475 184.163309 
L 215.358993 184.831511 
L 216.116547 185.666763 
L 216.369065 185.666763 
L 216.621583 186.334964 
L 216.874101 186.334964 
L 217.379137 187.838417 
L 217.631655 188.172518 
L 217.884173 188.840719 
L 218.389209 189.508921 
L 218.641727 190.177122 
L 218.894245 190.344173 
L 219.146763 190.678273 
L 219.399281 191.513525 
L 219.904317 191.847626 
L 220.409353 192.682878 
L 220.661871 193.351079 
L 221.419424 194.186331 
L 221.671942 194.353381 
L 223.439568 196.692086 
L 223.692086 197.360288 
L 224.197122 197.861439 
L 224.954676 198.36259 
L 225.207194 198.696691 
L 225.459712 199.364892 
L 225.71223 199.364892 
L 226.722302 201.369496 
L 226.97482 201.536547 
L 227.227338 202.037698 
L 227.732374 202.037698 
L 227.984892 202.204748 
L 228.23741 202.705899 
L 228.489928 202.87295 
L 228.994964 203.708201 
L 229.5 203.708201 
L 229.752518 203.875252 
L 230.005036 203.875252 
L 230.257554 204.042302 
L 230.510072 204.376403 
L 230.76259 204.376403 
L 231.015108 204.543453 
L 231.267626 205.545755 
L 232.530216 207.049209 
L 232.782734 207.049209 
L 233.28777 207.383309 
L 233.540288 207.88446 
L 233.792806 208.051511 
L 234.297842 208.886763 
L 235.055396 209.722014 
L 235.307914 209.722014 
L 235.81295 210.557266 
L 236.317986 210.891367 
L 236.570504 210.891367 
L 236.823022 211.058417 
L 240.358273 215.568777 
L 240.610791 215.735827 
L 241.620863 216.90518 
L 242.378417 217.406331 
L 243.135971 218.408633 
L 244.398561 218.408633 
L 245.156115 219.410935 
L 245.408633 219.410935 
L 245.408633 219.410935 
" clip-path="url(#p64d5976365)" style="fill: none; stroke: #ffe211; stroke-width: 1.8; stroke-linecap: square"/>
   </g>
   <g id="line2d_32">
    <path d="M 54.252518 17.44705 
L 54.505036 17.948201 
L 54.757554 18.115252 
L 55.515108 18.115252 
L 55.767626 18.282302 
L 57.030216 18.282302 
L 57.282734 18.449353 
L 57.78777 18.950504 
L 58.545324 18.950504 
L 58.797842 19.117554 
L 59.302878 19.117554 
L 59.807914 19.451655 
L 60.565468 20.453957 
L 60.817986 20.453957 
L 61.323022 20.955108 
L 61.57554 21.122158 
L 62.080576 21.122158 
L 62.585612 21.456259 
L 62.838129 21.79036 
L 63.090647 21.79036 
L 64.100719 22.458561 
L 64.353237 22.458561 
L 64.605755 22.625612 
L 64.858273 22.625612 
L 65.363309 22.959712 
L 65.615827 23.627914 
L 66.878417 24.463165 
L 67.635971 24.463165 
L 67.888489 24.797266 
L 68.393525 24.797266 
L 68.646043 25.131367 
L 68.898561 25.131367 
L 69.403597 25.465468 
L 69.908633 26.300719 
L 70.161151 26.46777 
L 71.171223 26.46777 
L 71.423741 26.63482 
L 71.676259 26.63482 
L 71.928777 26.801871 
L 72.433813 26.801871 
L 72.686331 27.470072 
L 73.191367 27.470072 
L 73.443885 27.971223 
L 73.696403 27.971223 
L 73.948921 28.138273 
L 74.201439 28.138273 
L 74.453957 28.305324 
L 74.958993 28.806475 
L 75.211511 28.806475 
L 75.969065 29.641727 
L 76.474101 29.975827 
L 76.726619 30.309928 
L 76.979137 30.309928 
L 77.484173 30.644029 
L 78.241727 30.644029 
L 78.746763 30.978129 
L 78.999281 30.978129 
L 80.009353 32.314532 
L 81.019424 32.314532 
L 81.52446 32.815683 
L 81.776978 32.815683 
L 82.78705 33.483885 
L 83.039568 33.483885 
L 83.292086 33.650935 
L 83.544604 33.650935 
L 83.797122 33.985036 
L 84.554676 33.985036 
L 85.059712 34.319137 
L 85.817266 35.154388 
L 86.322302 35.488489 
L 86.827338 35.488489 
L 87.332374 35.82259 
L 87.584892 35.82259 
L 87.83741 36.323741 
L 88.342446 36.323741 
L 88.594964 36.490791 
L 89.605036 36.490791 
L 89.857554 36.657842 
L 90.110072 36.657842 
L 90.36259 36.991942 
L 90.615108 36.991942 
L 91.372662 37.493094 
L 91.62518 37.493094 
L 91.877698 37.660144 
L 92.382734 37.660144 
L 93.392806 38.829496 
L 93.645324 38.829496 
L 93.897842 38.996547 
L 94.402878 38.996547 
L 94.655396 39.163597 
L 94.907914 39.163597 
L 95.160432 39.330647 
L 95.41295 39.664748 
L 95.665468 39.664748 
L 95.917986 39.831799 
L 96.423022 40.33295 
L 96.67554 40.33295 
L 96.928058 40.834101 
L 97.938129 41.502302 
L 98.443165 41.502302 
L 99.200719 42.003453 
L 99.453237 42.003453 
L 99.705755 42.170504 
L 100.210791 42.170504 
L 101.220863 42.838705 
L 101.473381 42.838705 
L 101.725899 43.005755 
L 101.978417 43.005755 
L 102.230935 43.172806 
L 102.483453 43.673957 
L 102.988489 43.673957 
L 103.241007 43.841007 
L 103.493525 44.175108 
L 103.746043 44.175108 
L 104.251079 44.676259 
L 105.513669 45.511511 
L 105.766187 45.511511 
L 106.018705 45.678561 
L 106.523741 45.678561 
L 106.776259 45.845612 
L 107.028777 45.845612 
L 107.281295 46.012662 
L 107.533813 46.012662 
L 107.786331 46.179712 
L 108.291367 46.179712 
L 108.543885 46.346763 
L 108.796403 46.847914 
L 109.048921 47.014964 
L 109.301439 47.014964 
L 110.058993 47.516115 
L 110.311511 47.516115 
L 110.816547 48.184317 
L 111.069065 48.184317 
L 111.574101 48.518417 
L 112.079137 48.518417 
L 112.584173 48.852518 
L 112.836691 48.852518 
L 113.089209 49.520719 
L 113.594245 49.85482 
L 113.846763 49.85482 
L 114.099281 50.355971 
L 114.351799 50.523022 
L 114.856835 50.523022 
L 115.361871 51.191223 
L 115.614388 51.191223 
L 115.866906 51.358273 
L 116.119424 51.358273 
L 116.371942 52.026475 
L 117.129496 52.527626 
L 118.139568 53.696978 
L 118.644604 54.031079 
L 119.14964 54.031079 
L 119.402158 54.198129 
L 119.654676 54.198129 
L 119.907194 54.36518 
L 120.159712 54.36518 
L 120.41223 54.53223 
L 120.917266 54.53223 
L 121.422302 54.866331 
L 121.67482 55.200432 
L 121.927338 55.200432 
L 122.179856 55.367482 
L 122.432374 55.367482 
L 122.93741 55.701583 
L 123.189928 55.701583 
L 123.442446 55.868633 
L 123.694964 55.868633 
L 123.947482 56.035683 
L 124.705036 56.035683 
L 125.210072 56.369784 
L 125.46259 56.703885 
L 126.220144 56.703885 
L 126.72518 57.037986 
L 127.230216 57.037986 
L 127.735252 57.706187 
L 128.492806 57.706187 
L 128.997842 58.040288 
L 129.25036 58.040288 
L 129.502878 58.207338 
L 129.755396 58.87554 
L 130.007914 58.87554 
L 130.260432 59.04259 
L 130.51295 59.543741 
L 130.765468 59.543741 
L 131.017986 59.877842 
L 131.523022 59.877842 
L 132.028058 60.378993 
L 132.280576 60.378993 
L 132.533094 60.880144 
L 132.785612 61.047194 
L 133.290647 61.548345 
L 133.795683 61.548345 
L 134.300719 61.882446 
L 134.553237 61.882446 
L 134.805755 62.049496 
L 135.058273 62.049496 
L 135.310791 62.550647 
L 135.563309 62.550647 
L 135.815827 62.717698 
L 136.068345 63.218849 
L 136.320863 63.385899 
L 136.573381 63.385899 
L 136.825899 63.55295 
L 137.078417 63.55295 
L 137.330935 63.72 
L 137.583453 63.72 
L 137.835971 63.88705 
L 138.088489 64.221151 
L 138.341007 64.221151 
L 138.846043 64.555252 
L 139.098561 64.555252 
L 139.351079 64.722302 
L 139.603597 64.722302 
L 139.856115 64.889353 
L 140.108633 64.889353 
L 140.361151 65.056403 
L 140.613669 65.056403 
L 141.118705 65.557554 
L 141.623741 65.891655 
L 142.128777 65.891655 
L 142.381295 66.225755 
L 142.633813 66.225755 
L 143.391367 66.726906 
L 143.896403 67.562158 
L 144.401439 68.39741 
L 145.158993 69.232662 
L 145.411511 69.232662 
L 145.664029 69.399712 
L 145.916547 69.399712 
L 146.169065 69.566763 
L 146.674101 69.566763 
L 146.926619 69.733813 
L 147.179137 70.569065 
L 147.431655 70.736115 
L 147.936691 71.237266 
L 148.189209 71.237266 
L 148.441727 71.404317 
L 148.694245 72.072518 
L 148.946763 72.239568 
L 149.704317 73.07482 
L 149.956835 73.07482 
L 150.209353 73.241871 
L 150.714388 73.743022 
L 151.219424 74.077122 
L 151.471942 74.077122 
L 151.72446 74.244173 
L 152.229496 74.244173 
L 152.482014 74.745324 
L 152.98705 75.079424 
L 153.492086 75.079424 
L 153.997122 75.413525 
L 154.24964 75.413525 
L 154.754676 75.747626 
L 155.007194 75.747626 
L 155.51223 76.248777 
L 156.269784 76.749928 
L 157.279856 78.086331 
L 157.784892 78.086331 
L 158.289928 78.420432 
L 158.542446 78.420432 
L 158.794964 78.587482 
L 159.047482 78.587482 
L 160.56259 79.589784 
L 161.067626 79.589784 
L 161.82518 80.425036 
L 162.330216 80.759137 
L 162.582734 80.759137 
L 163.340288 81.260288 
L 163.592806 81.260288 
L 164.35036 81.761439 
L 164.602878 81.761439 
L 165.107914 82.09554 
L 165.360432 82.09554 
L 166.117986 82.930791 
L 166.623022 82.930791 
L 166.87554 83.097842 
L 167.380576 83.598993 
L 168.138129 84.100144 
L 168.643165 84.601295 
L 168.895683 84.601295 
L 169.148201 85.102446 
L 169.400719 85.269496 
L 170.158273 85.269496 
L 170.410791 85.436547 
L 170.663309 86.271799 
L 171.168345 86.605899 
L 171.420863 86.94 
L 171.673381 86.94 
L 171.925899 87.608201 
L 172.683453 87.608201 
L 173.441007 88.109353 
L 173.946043 88.109353 
L 174.198561 88.276403 
L 174.451079 88.276403 
L 174.956115 88.610504 
L 176.218705 88.610504 
L 176.723741 89.111655 
L 176.976259 89.278705 
L 177.228777 89.278705 
L 177.481295 89.445755 
L 177.733813 89.445755 
L 178.238849 89.779856 
L 178.491367 89.779856 
L 178.996403 90.113957 
L 179.248921 90.113957 
L 179.501439 90.281007 
L 179.753957 90.281007 
L 180.006475 90.448058 
L 180.258993 90.448058 
L 180.764029 90.782158 
L 181.016547 90.782158 
L 181.521583 91.116259 
L 181.774101 91.45036 
L 182.026619 91.45036 
L 182.279137 91.61741 
L 182.784173 92.118561 
L 183.794245 92.786763 
L 184.046763 92.786763 
L 184.299281 92.953813 
L 184.551799 92.953813 
L 184.804317 93.454964 
L 185.056835 93.622014 
L 185.309353 93.622014 
L 185.561871 93.789065 
L 185.814388 94.123165 
L 186.066906 94.123165 
L 186.319424 94.791367 
L 186.571942 94.958417 
L 187.076978 94.958417 
L 187.834532 95.459568 
L 188.08705 95.459568 
L 188.592086 95.960719 
L 189.097122 95.960719 
L 189.34964 96.12777 
L 189.602158 96.963022 
L 189.854676 97.130072 
L 190.61223 97.965324 
L 190.864748 98.132374 
L 191.117266 98.633525 
L 192.379856 99.468777 
L 192.884892 100.136978 
L 193.13741 100.80518 
L 193.389928 100.97223 
L 193.642446 101.473381 
L 194.4 101.974532 
L 194.652518 101.974532 
L 194.905036 102.308633 
L 195.157554 102.308633 
L 195.410072 102.475683 
L 195.915108 103.812086 
L 196.167626 103.979137 
L 196.92518 105.31554 
L 198.440288 107.153094 
L 198.692806 107.320144 
L 198.945324 107.821295 
L 199.197842 107.988345 
L 199.45036 107.988345 
L 200.460432 108.656547 
L 201.217986 110.16 
L 201.470504 110.16 
L 201.97554 110.661151 
L 202.480576 110.995252 
L 202.985612 111.496403 
L 203.238129 111.663453 
L 203.490647 111.663453 
L 204.248201 113.333957 
L 204.500719 113.333957 
L 206.015827 115.171511 
L 206.268345 115.338561 
L 206.520863 115.839712 
L 206.773381 116.006763 
L 207.025899 116.674964 
L 207.278417 116.842014 
L 207.530935 116.842014 
L 207.783453 117.510216 
L 208.035971 117.844317 
L 208.288489 118.512518 
L 208.793525 119.013669 
L 209.046043 119.848921 
L 209.551079 120.517122 
L 210.056115 120.517122 
L 210.308633 120.851223 
L 210.561151 121.686475 
L 210.813669 121.686475 
L 211.066187 121.853525 
L 211.571223 122.521727 
L 211.823741 123.356978 
L 212.328777 123.691079 
L 212.581295 124.526331 
L 212.833813 124.693381 
L 213.086331 125.194532 
L 213.591367 125.528633 
L 214.601439 127.032086 
L 215.106475 127.867338 
L 215.864029 128.368489 
L 216.621583 129.871942 
L 216.874101 130.038993 
L 217.126619 130.540144 
L 217.379137 130.707194 
L 217.631655 131.542446 
L 217.884173 131.709496 
L 219.146763 133.38 
L 219.399281 133.38 
L 219.651799 134.215252 
L 219.904317 134.382302 
L 221.671942 137.723309 
L 221.92446 137.89036 
L 222.429496 138.725612 
L 222.934532 139.059712 
L 223.439568 139.560863 
L 224.197122 140.062014 
L 224.44964 140.062014 
L 224.954676 140.563165 
L 225.207194 140.730216 
L 226.217266 142.233669 
L 227.227338 144.071223 
L 227.732374 144.906475 
L 227.984892 145.407626 
L 228.489928 145.741727 
L 228.994964 146.911079 
L 230.005036 148.080432 
L 230.510072 148.414532 
L 231.520144 149.583885 
L 231.772662 149.750935 
L 232.530216 151.087338 
L 233.28777 151.92259 
L 233.792806 151.92259 
L 234.55036 152.423741 
L 235.307914 153.760144 
L 235.81295 154.094245 
L 236.317986 154.929496 
L 236.823022 155.263597 
L 237.07554 155.263597 
L 238.338129 156.098849 
L 239.348201 157.268201 
L 239.853237 157.602302 
L 241.620863 159.773957 
L 241.873381 159.941007 
L 242.378417 160.776259 
L 242.630935 160.943309 
L 243.135971 161.945612 
L 243.893525 162.446763 
L 245.156115 164.284317 
L 245.156115 164.284317 
" clip-path="url(#p64d5976365)" style="fill: none; stroke: #39c5bb; stroke-width: 1.8; stroke-linecap: square"/>
   </g>
   <g id="line2d_33">
    <path d="M 54.252518 17.44705 
L 54.757554 17.44705 
L 55.26259 17.781151 
L 55.767626 18.616403 
L 56.272662 18.950504 
L 57.030216 18.950504 
L 57.535252 19.451655 
L 57.78777 19.451655 
L 58.292806 19.785755 
L 58.545324 20.955108 
L 59.05036 21.289209 
L 59.302878 23.126763 
L 59.555396 23.126763 
L 59.807914 23.293813 
L 60.565468 24.129065 
L 60.817986 24.296115 
L 61.070504 24.797266 
L 61.323022 24.964317 
L 61.828058 24.964317 
L 62.585612 25.465468 
L 63.090647 26.46777 
L 63.848201 26.46777 
L 65.615827 27.637122 
L 65.868345 27.637122 
L 66.878417 28.305324 
L 67.383453 28.806475 
L 67.888489 28.806475 
L 68.141007 28.973525 
L 68.646043 30.811079 
L 68.898561 30.811079 
L 69.151079 30.978129 
L 69.403597 31.31223 
L 69.908633 34.152086 
L 70.161151 34.319137 
L 70.413669 34.319137 
L 70.918705 34.820288 
L 71.423741 35.154388 
L 72.433813 35.154388 
L 72.938849 36.490791 
L 73.191367 36.490791 
L 73.443885 37.158993 
L 73.696403 37.158993 
L 73.948921 37.326043 
L 74.201439 37.326043 
L 74.453957 37.994245 
L 75.211511 38.829496 
L 75.464029 38.829496 
L 75.716547 38.996547 
L 76.221583 38.996547 
L 76.726619 39.330647 
L 76.979137 39.998849 
L 77.231655 40.165899 
L 77.989209 40.165899 
L 78.241727 40.66705 
L 78.746763 41.001151 
L 79.251799 41.001151 
L 79.504317 42.337554 
L 79.756835 42.337554 
L 80.261871 43.339856 
L 80.766906 43.339856 
L 81.271942 43.673957 
L 81.776978 43.673957 
L 82.282014 44.008058 
L 82.534532 44.342158 
L 82.78705 45.678561 
L 83.292086 46.012662 
L 83.797122 46.012662 
L 84.04964 46.179712 
L 84.302158 46.179712 
L 84.554676 46.346763 
L 84.807194 46.680863 
L 85.059712 46.680863 
L 85.31223 47.182014 
L 85.564748 47.349065 
L 85.817266 47.683165 
L 86.069784 47.683165 
L 86.57482 48.017266 
L 86.827338 48.852518 
L 87.079856 48.852518 
L 87.584892 49.186619 
L 88.089928 50.523022 
L 88.594964 51.024173 
L 88.847482 51.191223 
L 89.1 51.191223 
L 89.605036 51.525324 
L 89.857554 51.859424 
L 90.110072 51.859424 
L 90.36259 52.193525 
L 90.615108 53.696978 
L 91.120144 53.696978 
L 91.62518 55.868633 
L 91.877698 56.369784 
L 92.382734 56.369784 
L 92.635252 56.536835 
L 92.88777 56.536835 
L 93.140288 57.205036 
L 93.645324 57.873237 
L 93.897842 57.873237 
L 94.15036 58.040288 
L 94.402878 58.040288 
L 94.907914 58.541439 
L 95.160432 58.541439 
L 95.41295 58.87554 
L 95.665468 58.87554 
L 96.170504 59.376691 
L 96.423022 59.376691 
L 96.67554 59.543741 
L 96.928058 59.877842 
L 97.433094 59.877842 
L 97.685612 60.044892 
L 97.938129 60.546043 
L 98.443165 60.546043 
L 98.695683 60.713094 
L 99.200719 61.214245 
L 99.958273 61.715396 
L 100.210791 62.216547 
L 100.715827 62.216547 
L 100.968345 62.383597 
L 101.473381 62.884748 
L 101.725899 63.051799 
L 101.978417 63.051799 
L 102.230935 63.218849 
L 102.483453 63.218849 
L 102.735971 63.88705 
L 102.988489 63.88705 
L 103.241007 64.388201 
L 103.493525 64.388201 
L 103.746043 64.889353 
L 103.998561 64.889353 
L 104.251079 65.056403 
L 104.756115 66.058705 
L 105.513669 66.559856 
L 106.271223 66.559856 
L 106.523741 67.061007 
L 107.028777 67.061007 
L 107.281295 68.063309 
L 107.533813 68.063309 
L 107.786331 68.23036 
L 108.291367 68.23036 
L 109.048921 69.065612 
L 109.301439 69.232662 
L 109.553957 69.232662 
L 109.806475 69.399712 
L 110.058993 69.399712 
L 110.564029 69.733813 
L 110.816547 69.733813 
L 111.069065 69.900863 
L 111.321583 69.900863 
L 111.574101 70.067914 
L 111.826619 70.067914 
L 112.079137 70.234964 
L 112.331655 70.569065 
L 112.584173 70.569065 
L 113.089209 71.404317 
L 113.341727 71.571367 
L 113.594245 72.90777 
L 114.099281 73.241871 
L 114.351799 73.743022 
L 115.361871 74.411223 
L 116.119424 74.411223 
L 116.371942 74.578273 
L 116.62446 75.246475 
L 117.129496 75.246475 
L 117.382014 75.413525 
L 117.634532 75.413525 
L 118.139568 75.747626 
L 118.392086 75.747626 
L 118.644604 76.081727 
L 119.14964 76.081727 
L 119.907194 76.916978 
L 120.664748 77.418129 
L 120.917266 77.418129 
L 121.169784 77.58518 
L 121.422302 78.420432 
L 121.67482 78.420432 
L 122.179856 78.754532 
L 122.432374 78.754532 
L 123.189928 79.255683 
L 123.442446 79.589784 
L 123.694964 79.589784 
L 123.947482 80.257986 
L 124.957554 80.257986 
L 125.715108 80.759137 
L 125.967626 81.928489 
L 126.220144 81.928489 
L 126.472662 82.26259 
L 126.72518 82.930791 
L 126.977698 83.097842 
L 127.230216 83.097842 
L 127.735252 83.598993 
L 127.98777 83.766043 
L 128.240288 83.766043 
L 128.492806 83.933094 
L 128.745324 83.933094 
L 128.997842 84.100144 
L 129.25036 84.100144 
L 130.007914 84.935396 
L 130.765468 84.935396 
L 131.017986 85.102446 
L 131.270504 85.770647 
L 131.523022 85.937698 
L 132.028058 86.438849 
L 132.280576 86.605899 
L 132.785612 87.10705 
L 133.038129 88.610504 
L 133.290647 89.111655 
L 133.543165 89.278705 
L 133.795683 89.278705 
L 134.048201 89.946906 
L 134.300719 89.946906 
L 134.553237 90.113957 
L 134.805755 90.448058 
L 135.563309 90.448058 
L 135.815827 90.615108 
L 136.068345 90.615108 
L 136.573381 91.116259 
L 136.825899 91.116259 
L 137.078417 91.283309 
L 137.330935 91.283309 
L 137.835971 91.61741 
L 138.088489 91.61741 
L 138.341007 91.78446 
L 138.593525 92.285612 
L 138.846043 92.285612 
L 139.098561 92.452662 
L 139.351079 92.953813 
L 139.603597 92.953813 
L 139.856115 93.287914 
L 140.108633 93.287914 
L 140.361151 93.956115 
L 140.613669 94.123165 
L 141.118705 94.123165 
L 141.371223 94.290216 
L 142.128777 95.125468 
L 142.633813 95.125468 
L 142.886331 95.626619 
L 143.643885 96.12777 
L 143.896403 96.12777 
L 144.906475 97.297122 
L 145.411511 99.802878 
L 145.916547 100.136978 
L 146.169065 100.136978 
L 146.421583 100.638129 
L 147.179137 101.139281 
L 147.431655 102.308633 
L 147.684173 102.308633 
L 147.936691 102.475683 
L 148.189209 102.475683 
L 148.694245 103.310935 
L 149.451799 103.310935 
L 149.704317 103.812086 
L 150.714388 103.812086 
L 150.966906 104.313237 
L 151.471942 104.647338 
L 151.72446 104.647338 
L 151.976978 104.814388 
L 152.229496 104.814388 
L 152.734532 105.148489 
L 152.98705 105.48259 
L 153.239568 105.48259 
L 154.24964 106.150791 
L 154.502158 106.150791 
L 154.754676 106.317842 
L 156.269784 106.317842 
L 156.522302 106.484892 
L 156.77482 106.484892 
L 157.279856 106.986043 
L 157.784892 106.986043 
L 158.542446 107.988345 
L 158.794964 107.988345 
L 159.3 108.322446 
L 159.552518 108.322446 
L 159.805036 108.489496 
L 160.057554 108.489496 
L 160.310072 109.157698 
L 160.56259 109.324748 
L 161.067626 109.324748 
L 161.320144 109.491799 
L 161.572662 110.16 
L 162.077698 110.661151 
L 162.330216 110.828201 
L 162.582734 111.162302 
L 162.835252 111.162302 
L 163.08777 111.329353 
L 163.340288 111.329353 
L 163.592806 112.164604 
L 163.845324 112.331655 
L 165.360432 114.169209 
L 165.61295 114.169209 
L 165.865468 114.336259 
L 166.117986 114.336259 
L 166.623022 114.67036 
L 167.128058 115.171511 
L 167.633094 115.171511 
L 168.138129 115.505612 
L 168.390647 115.505612 
L 170.410791 116.842014 
L 170.663309 117.176115 
L 171.420863 117.176115 
L 171.673381 117.343165 
L 171.925899 117.343165 
L 172.178417 117.844317 
L 172.430935 118.011367 
L 172.935971 118.011367 
L 173.188489 118.178417 
L 173.441007 118.178417 
L 173.693525 118.846619 
L 174.451079 119.34777 
L 174.703597 120.015971 
L 175.461151 120.851223 
L 175.713669 120.851223 
L 176.218705 121.185324 
L 176.471223 121.185324 
L 176.723741 121.352374 
L 177.481295 122.187626 
L 177.733813 122.354676 
L 177.986331 122.354676 
L 179.753957 123.524029 
L 180.006475 123.524029 
L 180.258993 123.691079 
L 180.511511 124.02518 
L 180.764029 124.02518 
L 181.269065 124.359281 
L 181.521583 124.359281 
L 181.774101 124.526331 
L 182.026619 124.860432 
L 182.279137 124.860432 
L 183.289209 125.528633 
L 183.541727 125.528633 
L 183.794245 125.862734 
L 184.046763 125.862734 
L 184.299281 126.029784 
L 184.551799 126.029784 
L 185.056835 126.363885 
L 185.561871 126.363885 
L 185.814388 127.032086 
L 186.066906 127.032086 
L 186.319424 127.199137 
L 186.82446 127.700288 
L 187.076978 127.867338 
L 187.329496 128.368489 
L 187.582014 129.203741 
L 188.08705 129.537842 
L 188.339568 129.537842 
L 188.592086 129.871942 
L 188.844604 129.871942 
L 189.097122 130.038993 
L 189.34964 130.038993 
L 189.602158 130.206043 
L 190.107194 131.375396 
L 190.359712 131.542446 
L 190.61223 132.210647 
L 191.369784 133.045899 
L 191.622302 134.716403 
L 191.87482 134.716403 
L 192.632374 135.217554 
L 193.642446 135.217554 
L 194.147482 136.052806 
L 194.4 137.055108 
L 194.905036 137.389209 
L 195.157554 138.725612 
L 195.410072 138.892662 
L 195.66259 139.560863 
L 197.177698 141.398417 
L 197.430216 141.565468 
L 197.682734 142.066619 
L 197.935252 143.068921 
L 198.18777 143.068921 
L 198.692806 143.570072 
L 198.945324 143.737122 
L 199.45036 144.572374 
L 199.702878 145.240576 
L 199.955396 145.407626 
L 200.207914 145.407626 
L 200.460432 145.574676 
L 200.71295 145.574676 
L 200.965468 145.741727 
L 201.217986 145.741727 
L 201.470504 145.908777 
L 201.723022 145.908777 
L 201.97554 146.075827 
L 202.228058 146.075827 
L 202.480576 146.242878 
L 202.733094 147.41223 
L 203.238129 147.746331 
L 203.490647 148.080432 
L 203.743165 148.080432 
L 204.248201 149.416835 
L 204.500719 149.416835 
L 205.005755 150.252086 
L 205.763309 150.753237 
L 206.773381 152.757842 
L 207.025899 152.757842 
L 207.278417 152.924892 
L 207.783453 153.760144 
L 208.035971 153.760144 
L 208.288489 154.428345 
L 209.298561 155.764748 
L 209.551079 155.764748 
L 209.803597 155.931799 
L 210.308633 157.769353 
L 210.561151 157.936403 
L 210.813669 158.771655 
L 211.066187 159.105755 
L 211.318705 159.941007 
L 211.571223 160.108058 
L 211.823741 160.108058 
L 212.328777 160.943309 
L 212.581295 160.943309 
L 212.833813 161.611511 
L 213.086331 161.778561 
L 213.338849 161.778561 
L 213.843885 162.613813 
L 214.096403 162.613813 
L 214.601439 163.783165 
L 214.853957 164.451367 
L 215.611511 165.286619 
L 215.864029 165.453669 
L 216.621583 166.623022 
L 216.874101 167.291223 
L 217.126619 167.625324 
L 217.379137 168.293525 
L 217.884173 168.794676 
L 218.136691 169.629928 
L 218.389209 169.629928 
L 218.894245 169.964029 
L 219.146763 170.63223 
L 219.904317 171.801583 
L 220.156835 172.302734 
L 220.409353 172.302734 
L 221.419424 173.472086 
L 221.671942 173.472086 
L 223.439568 175.643741 
L 224.197122 176.144892 
L 224.44964 176.813094 
L 224.702158 176.813094 
L 224.954676 177.314245 
L 225.207194 177.481295 
L 225.71223 178.650647 
L 225.964748 178.817698 
L 226.217266 179.318849 
L 226.722302 179.65295 
L 226.97482 180.154101 
L 227.227338 180.321151 
L 227.479856 180.989353 
L 227.984892 180.989353 
L 228.23741 181.657554 
L 228.742446 181.991655 
L 228.994964 181.991655 
L 229.247482 182.158705 
L 229.5 182.158705 
L 229.752518 182.325755 
L 230.005036 182.325755 
L 231.772662 184.49741 
L 232.277698 184.831511 
L 232.782734 185.666763 
L 235.055396 188.506619 
L 235.81295 189.00777 
L 236.570504 189.843022 
L 236.823022 189.843022 
L 237.07554 190.010072 
L 237.580576 190.511223 
L 237.833094 190.678273 
L 238.085612 190.678273 
L 239.095683 192.014676 
L 239.348201 192.014676 
L 240.358273 193.184029 
L 240.610791 193.184029 
L 241.115827 194.019281 
L 241.620863 194.687482 
L 241.873381 194.687482 
L 242.125899 194.854532 
L 242.630935 195.689784 
L 242.883453 196.190935 
L 243.388489 196.190935 
L 243.641007 196.525036 
L 243.893525 196.525036 
L 244.146043 196.692086 
L 244.398561 196.692086 
L 244.651079 197.026187 
L 245.156115 197.026187 
L 245.408633 197.360288 
L 245.661151 197.360288 
L 245.661151 197.360288 
" clip-path="url(#p64d5976365)" style="fill: none; stroke: #2a9d8f; stroke-width: 1.8; stroke-linecap: square"/>
   </g>
   <g id="line2d_34">
    <path d="M 54.252518 17.28 
L 54.757554 17.28 
L 55.515108 17.781151 
L 55.767626 17.781151 
L 56.020144 18.115252 
L 56.272662 18.115252 
L 56.52518 18.616403 
L 56.777698 18.783453 
L 57.282734 18.783453 
L 58.040288 19.618705 
L 58.797842 20.119856 
L 59.05036 21.623309 
L 59.555396 22.12446 
L 59.807914 22.291511 
L 60.31295 22.792662 
L 60.565468 24.129065 
L 60.817986 24.129065 
L 61.070504 24.296115 
L 61.323022 24.296115 
L 61.57554 24.797266 
L 62.333094 25.298417 
L 62.838129 25.298417 
L 63.090647 25.465468 
L 63.848201 25.465468 
L 64.605755 25.966619 
L 65.110791 25.966619 
L 65.363309 26.46777 
L 65.615827 26.46777 
L 66.373381 26.968921 
L 66.878417 26.968921 
L 67.383453 27.470072 
L 67.888489 27.804173 
L 68.141007 28.472374 
L 69.151079 28.472374 
L 69.656115 28.806475 
L 69.908633 28.806475 
L 70.161151 28.973525 
L 70.918705 29.808777 
L 71.423741 30.142878 
L 71.928777 30.978129 
L 72.181295 32.147482 
L 72.433813 32.147482 
L 72.686331 32.314532 
L 73.696403 33.650935 
L 73.948921 33.650935 
L 74.201439 34.987338 
L 74.706475 34.987338 
L 74.958993 36.657842 
L 75.211511 36.657842 
L 75.464029 36.824892 
L 75.716547 38.161295 
L 75.969065 38.328345 
L 76.474101 38.328345 
L 77.231655 38.829496 
L 77.736691 39.330647 
L 78.241727 39.664748 
L 79.504317 39.664748 
L 79.756835 39.831799 
L 80.009353 40.5 
L 80.261871 40.5 
L 80.514388 40.834101 
L 80.766906 40.834101 
L 81.019424 41.001151 
L 81.271942 41.001151 
L 81.776978 41.335252 
L 82.029496 41.836403 
L 82.282014 41.836403 
L 82.534532 42.003453 
L 82.78705 42.337554 
L 83.544604 42.337554 
L 84.04964 42.671655 
L 84.302158 42.671655 
L 84.554676 43.506906 
L 84.807194 43.841007 
L 85.059712 44.676259 
L 85.817266 45.511511 
L 86.069784 45.511511 
L 86.322302 45.678561 
L 86.827338 46.179712 
L 87.079856 46.346763 
L 87.332374 46.346763 
L 88.089928 46.847914 
L 88.342446 46.847914 
L 88.594964 47.516115 
L 88.847482 47.516115 
L 89.1 47.850216 
L 89.352518 49.019568 
L 89.605036 49.186619 
L 89.857554 49.186619 
L 90.110072 49.85482 
L 90.36259 49.85482 
L 90.615108 50.690072 
L 91.120144 50.690072 
L 91.62518 51.024173 
L 91.877698 51.525324 
L 92.635252 51.525324 
L 93.140288 51.859424 
L 93.645324 52.694676 
L 94.402878 52.694676 
L 94.655396 53.028777 
L 95.665468 53.028777 
L 95.917986 53.195827 
L 96.170504 53.195827 
L 96.423022 53.864029 
L 96.67554 54.031079 
L 97.180576 54.031079 
L 97.433094 54.198129 
L 97.685612 54.699281 
L 97.938129 54.866331 
L 98.190647 54.866331 
L 98.443165 55.200432 
L 98.695683 55.200432 
L 99.453237 56.202734 
L 99.705755 56.202734 
L 100.210791 56.536835 
L 100.463309 56.536835 
L 100.715827 56.703885 
L 100.968345 56.703885 
L 101.473381 57.037986 
L 101.725899 57.037986 
L 101.978417 57.205036 
L 102.230935 57.205036 
L 102.735971 57.706187 
L 102.988489 57.873237 
L 103.493525 57.873237 
L 104.251079 58.87554 
L 106.018705 58.87554 
L 106.271223 59.04259 
L 106.776259 59.04259 
L 107.028777 59.20964 
L 107.281295 59.20964 
L 107.533813 59.710791 
L 107.786331 59.877842 
L 108.038849 59.877842 
L 108.291367 60.044892 
L 108.543885 60.044892 
L 108.796403 60.546043 
L 109.048921 60.713094 
L 110.311511 62.216547 
L 110.564029 63.218849 
L 110.816547 63.218849 
L 111.574101 63.72 
L 112.079137 63.72 
L 113.089209 64.388201 
L 113.341727 64.889353 
L 113.594245 64.889353 
L 113.846763 65.056403 
L 114.099281 65.557554 
L 114.604317 65.891655 
L 114.856835 66.392806 
L 115.361871 66.726906 
L 116.62446 68.23036 
L 116.876978 68.39741 
L 117.382014 68.39741 
L 117.634532 68.56446 
L 117.88705 68.56446 
L 118.139568 69.566763 
L 118.392086 69.733813 
L 119.14964 69.733813 
L 119.402158 69.900863 
L 119.907194 69.900863 
L 120.159712 70.234964 
L 120.41223 70.234964 
L 120.664748 70.736115 
L 121.169784 70.736115 
L 121.927338 71.237266 
L 122.432374 71.738417 
L 123.189928 71.738417 
L 123.442446 72.239568 
L 123.694964 72.406619 
L 124.452518 73.241871 
L 124.957554 73.575971 
L 125.46259 74.077122 
L 126.220144 74.077122 
L 126.977698 74.578273 
L 127.482734 74.578273 
L 127.98777 74.912374 
L 128.240288 74.912374 
L 128.492806 75.079424 
L 128.745324 75.079424 
L 128.997842 75.246475 
L 129.502878 75.747626 
L 129.755396 75.747626 
L 130.007914 75.914676 
L 130.260432 77.418129 
L 131.270504 78.754532 
L 131.523022 79.422734 
L 131.77554 79.589784 
L 132.028058 80.257986 
L 132.785612 81.093237 
L 133.038129 81.260288 
L 133.290647 81.260288 
L 134.048201 82.09554 
L 134.553237 82.09554 
L 134.805755 82.42964 
L 135.310791 82.42964 
L 135.563309 83.097842 
L 135.815827 83.264892 
L 136.320863 83.264892 
L 136.573381 83.598993 
L 136.825899 83.598993 
L 137.330935 83.933094 
L 137.583453 84.267194 
L 137.835971 84.267194 
L 138.341007 84.601295 
L 138.846043 84.601295 
L 139.098561 84.935396 
L 140.108633 84.935396 
L 140.361151 85.102446 
L 140.613669 85.102446 
L 140.866187 85.269496 
L 141.118705 85.269496 
L 141.371223 85.436547 
L 141.623741 85.436547 
L 142.886331 86.271799 
L 144.401439 86.271799 
L 144.653957 86.438849 
L 144.906475 86.438849 
L 145.158993 86.605899 
L 145.411511 86.94 
L 146.169065 86.94 
L 146.674101 87.274101 
L 147.179137 87.775252 
L 147.684173 87.775252 
L 148.694245 88.443453 
L 149.199281 88.443453 
L 149.451799 88.944604 
L 150.461871 89.612806 
L 150.714388 89.612806 
L 151.976978 90.448058 
L 152.229496 90.448058 
L 152.98705 90.949209 
L 153.492086 91.78446 
L 153.744604 91.951511 
L 154.754676 93.287914 
L 155.007194 93.287914 
L 155.764748 93.789065 
L 156.269784 93.789065 
L 157.027338 94.290216 
L 157.279856 95.125468 
L 157.532374 95.125468 
L 158.03741 95.960719 
L 158.289928 97.464173 
L 158.794964 97.464173 
L 159.047482 97.965324 
L 159.3 98.132374 
L 159.805036 98.633525 
L 160.310072 98.633525 
L 160.815108 98.967626 
L 161.320144 98.967626 
L 161.572662 99.134676 
L 161.82518 99.468777 
L 162.077698 99.468777 
L 162.330216 99.635827 
L 163.08777 100.471079 
L 163.340288 100.471079 
L 163.592806 100.638129 
L 163.845324 100.638129 
L 164.097842 101.306331 
L 164.602878 101.306331 
L 164.855396 101.473381 
L 165.107914 101.473381 
L 165.61295 101.974532 
L 165.865468 101.974532 
L 166.87554 102.642734 
L 167.128058 102.642734 
L 167.380576 102.809784 
L 167.633094 103.645036 
L 168.390647 103.645036 
L 168.643165 103.812086 
L 168.895683 104.146187 
L 169.148201 104.146187 
L 169.400719 104.313237 
L 169.653237 104.313237 
L 170.158273 104.647338 
L 170.410791 104.647338 
L 171.420863 105.816691 
L 171.925899 106.150791 
L 172.178417 106.150791 
L 172.430935 106.818993 
L 173.441007 107.487194 
L 173.693525 108.155396 
L 174.451079 108.656547 
L 174.956115 109.491799 
L 175.208633 109.658849 
L 175.966187 110.661151 
L 176.218705 112.999856 
L 177.228777 114.169209 
L 177.481295 114.169209 
L 179.248921 115.338561 
L 179.501439 115.338561 
L 179.753957 115.505612 
L 180.258993 115.505612 
L 180.511511 115.672662 
L 180.764029 116.340863 
L 181.016547 116.340863 
L 181.521583 116.674964 
L 182.279137 116.674964 
L 183.289209 117.343165 
L 183.541727 117.343165 
L 184.046763 117.844317 
L 184.299281 118.011367 
L 184.804317 118.011367 
L 185.056835 118.178417 
L 185.309353 118.846619 
L 185.561871 119.013669 
L 185.814388 119.34777 
L 186.319424 119.34777 
L 186.82446 120.851223 
L 187.834532 120.851223 
L 188.339568 121.686475 
L 188.592086 122.187626 
L 188.844604 123.691079 
L 189.097122 123.858129 
L 189.34964 123.858129 
L 189.854676 126.029784 
L 190.107194 126.196835 
L 190.359712 126.196835 
L 190.864748 126.530935 
L 191.622302 127.366187 
L 192.127338 127.700288 
L 192.379856 127.700288 
L 192.632374 128.53554 
L 192.884892 128.86964 
L 193.13741 128.86964 
L 194.147482 129.537842 
L 194.905036 129.537842 
L 195.157554 129.704892 
L 195.410072 129.704892 
L 195.66259 129.871942 
L 196.420144 130.707194 
L 196.672662 131.709496 
L 197.430216 132.544748 
L 197.682734 132.544748 
L 197.935252 132.711799 
L 198.692806 133.54705 
L 198.945324 134.716403 
L 199.197842 134.883453 
L 199.45036 134.883453 
L 199.702878 135.384604 
L 200.71295 136.052806 
L 200.965468 136.052806 
L 201.470504 136.386906 
L 201.723022 136.386906 
L 202.480576 136.888058 
L 202.985612 136.888058 
L 203.743165 137.389209 
L 203.995683 138.558561 
L 204.248201 139.059712 
L 204.500719 139.226763 
L 204.753237 139.894964 
L 205.005755 139.894964 
L 207.278417 142.73482 
L 207.783453 144.071223 
L 209.298561 145.908777 
L 209.551079 146.911079 
L 210.308633 147.913381 
L 210.561151 148.581583 
L 211.066187 149.082734 
L 211.571223 150.920288 
L 211.823741 150.920288 
L 212.076259 151.254388 
L 212.328777 152.08964 
L 212.581295 152.256691 
L 212.833813 152.256691 
L 213.086331 152.757842 
L 213.338849 152.757842 
L 214.853957 154.595396 
L 215.106475 154.595396 
L 215.611511 155.931799 
L 215.864029 156.098849 
L 216.874101 157.435252 
L 217.379137 158.604604 
L 217.631655 158.771655 
L 218.136691 159.941007 
L 218.389209 160.108058 
L 218.641727 160.442158 
L 219.146763 162.112662 
L 219.399281 162.112662 
L 219.904317 162.613813 
L 220.409353 162.613813 
L 220.914388 163.783165 
L 222.176978 165.453669 
L 222.682014 166.790072 
L 223.439568 167.291223 
L 226.217266 170.966331 
L 226.469784 170.966331 
L 226.722302 171.300432 
L 226.97482 171.300432 
L 227.227338 171.467482 
L 227.479856 171.968633 
L 227.984892 171.968633 
L 228.23741 172.469784 
L 228.994964 172.970935 
L 229.247482 172.970935 
L 229.5 173.305036 
L 229.752518 173.305036 
L 230.76259 174.474388 
L 231.015108 174.641439 
L 231.267626 174.641439 
L 231.520144 174.97554 
L 231.772662 174.97554 
L 232.277698 175.476691 
L 232.530216 175.643741 
L 233.540288 177.147194 
L 233.792806 177.648345 
L 234.045324 177.815396 
L 234.802878 178.650647 
L 235.560432 179.151799 
L 236.570504 180.321151 
L 236.823022 180.321151 
L 238.590647 182.492806 
L 238.843165 182.659856 
L 239.348201 183.161007 
L 239.600719 183.328058 
L 239.853237 183.328058 
L 242.883453 187.170216 
L 243.135971 187.337266 
L 243.641007 188.172518 
L 243.893525 188.172518 
L 244.146043 188.506619 
L 244.398561 188.506619 
L 244.651079 189.00777 
L 244.903597 189.00777 
L 245.156115 189.341871 
L 245.408633 189.341871 
L 245.913669 189.843022 
L 245.913669 189.843022 
" clip-path="url(#p64d5976365)" style="fill: none; stroke: #e76f51; stroke-width: 1.8; stroke-linecap: square"/>
   </g>
   <g id="patch_3">
    <path d="M 54 388.8 
L 54 17.28 
" style="fill: none; stroke: #000000; stroke-width: 0.8; stroke-linejoin: miter; stroke-linecap: square"/>
   </g>
   <g id="patch_4">
    <path d="M 334.8 388.8 
L 334.8 17.28 
" style="fill: none; stroke: #000000; stroke-width: 0.8; stroke-linejoin: miter; stroke-linecap: square"/>
   </g>
   <g id="patch_5">
    <path d="M 54 388.8 
L 334.8 388.8 
" style="fill: none; stroke: #000000; stroke-width: 0.8; stroke-linejoin: miter; stroke-linecap: square"/>
   </g>
   <g id="patch_6">
    <path d="M 54 17.28 
L 334.8 17.28 
" style="fill: none; stroke: #000000; stroke-width: 0.8; stroke-linejoin: miter; stroke-linecap: square"/>
   </g>
   <g id="legend_1">
    <g id="patch_7">
     <path d="M 241.51125 132.5625 
L 326.4 132.5625 
Q 328.8 132.5625 328.8 130.1625 
L 328.8 25.68 
Q 328.8 23.28 326.4 23.28 
L 241.51125 23.28 
Q 239.11125 23.28 239.11125 25.68 
L 239.11125 130.1625 
Q 239.11125 132.5625 241.51125 132.5625 
z
" style="fill: #ffffff; opacity: 0.8; stroke: #cccccc; stroke-linejoin: miter"/>
    </g>
    <g id="line2d_35">
     <path d="M 243.91125 32.998125 
L 255.91125 32.998125 
L 267.91125 32.998125 
" style="fill: none; stroke: #d80000; stroke-width: 1.8; stroke-linecap: square"/>
    </g>
    <g id="text_17">
     <!-- None -->
     <g transform="translate(277.51125 37.198125) scale(0.12 -0.12)">
      <defs>
       <path id="DejaVuSans-4e" d="M 628 4666 
L 1478 4666 
L 3547 763 
L 3547 4666 
L 4159 4666 
L 4159 0 
L 3309 0 
L 1241 3903 
L 1241 0 
L 628 0 
L 628 4666 
z
" transform="scale(0.015625)"/>
       <path id="DejaVuSans-6e" d="M 3513 2113 
L 3513 0 
L 2938 0 
L 2938 2094 
Q 2938 2591 2744 2837 
Q 2550 3084 2163 3084 
Q 1697 3084 1428 2787 
Q 1159 2491 1159 1978 
L 1159 0 
L 581 0 
L 581 3500 
L 1159 3500 
L 1159 2956 
Q 1366 3272 1645 3428 
Q 1925 3584 2291 3584 
Q 2894 3584 3203 3211 
Q 3513 2838 3513 2113 
z
" transform="scale(0.015625)"/>
      </defs>
      <use xlink:href="#DejaVuSans-4e"/>
      <use xlink:href="#DejaVuSans-6f" x="74.804688"/>
      <use xlink:href="#DejaVuSans-6e" x="135.986328"/>
      <use xlink:href="#DejaVuSans-65" x="199.365234"/>
     </g>
    </g>
    <g id="line2d_36">
     <path d="M 243.91125 50.611875 
L 255.91125 50.611875 
L 267.91125 50.611875 
" style="fill: none; stroke: #264653; stroke-width: 1.8; stroke-linecap: square"/>
    </g>
    <g id="text_18">
     <!-- HD -->
     <g transform="translate(277.51125 54.811875) scale(0.12 -0.12)">
      <defs>
       <path id="DejaVuSans-48" d="M 628 4666 
L 1259 4666 
L 1259 2753 
L 3553 2753 
L 3553 4666 
L 4184 4666 
L 4184 0 
L 3553 0 
L 3553 2222 
L 1259 2222 
L 1259 0 
L 628 0 
L 628 4666 
z
" transform="scale(0.015625)"/>
       <path id="DejaVuSans-44" d="M 1259 4147 
L 1259 519 
L 2022 519 
Q 2988 519 3436 956 
Q 3884 1394 3884 2338 
Q 3884 3275 3436 3711 
Q 2988 4147 2022 4147 
L 1259 4147 
z
M 628 4666 
L 1925 4666 
Q 3281 4666 3915 4102 
Q 4550 3538 4550 2338 
Q 4550 1131 3912 565 
Q 3275 0 1925 0 
L 628 0 
L 628 4666 
z
" transform="scale(0.015625)"/>
      </defs>
      <use xlink:href="#DejaVuSans-48"/>
      <use xlink:href="#DejaVuSans-44" x="75.195312"/>
     </g>
    </g>
    <g id="line2d_37">
     <path d="M 243.91125 68.225625 
L 255.91125 68.225625 
L 267.91125 68.225625 
" style="fill: none; stroke: #ffe211; stroke-width: 1.8; stroke-linecap: square"/>
    </g>
    <g id="text_19">
     <!-- GND -->
     <g transform="translate(277.51125 72.425625) scale(0.12 -0.12)">
      <use xlink:href="#DejaVuSans-47"/>
      <use xlink:href="#DejaVuSans-4e" x="77.490234"/>
      <use xlink:href="#DejaVuSans-44" x="152.294922"/>
     </g>
    </g>
    <g id="line2d_38">
     <path d="M 243.91125 85.839375 
L 255.91125 85.839375 
L 267.91125 85.839375 
" style="fill: none; stroke: #39c5bb; stroke-width: 1.8; stroke-linecap: square"/>
    </g>
    <g id="text_20">
     <!-- BT -->
     <g transform="translate(277.51125 90.039375) scale(0.12 -0.12)">
      <defs>
       <path id="DejaVuSans-42" d="M 1259 2228 
L 1259 519 
L 2272 519 
Q 2781 519 3026 730 
Q 3272 941 3272 1375 
Q 3272 1813 3026 2020 
Q 2781 2228 2272 2228 
L 1259 2228 
z
M 1259 4147 
L 1259 2741 
L 2194 2741 
Q 2656 2741 2882 2914 
Q 3109 3088 3109 3444 
Q 3109 3797 2882 3972 
Q 2656 4147 2194 4147 
L 1259 4147 
z
M 628 4666 
L 2241 4666 
Q 2963 4666 3353 4366 
Q 3744 4066 3744 3513 
Q 3744 3084 3544 2831 
Q 3344 2578 2956 2516 
Q 3422 2416 3680 2098 
Q 3938 1781 3938 1306 
Q 3938 681 3513 340 
Q 3088 0 2303 0 
L 628 0 
L 628 4666 
z
" transform="scale(0.015625)"/>
       <path id="DejaVuSans-54" d="M -19 4666 
L 3928 4666 
L 3928 4134 
L 2272 4134 
L 2272 0 
L 1638 0 
L 1638 4134 
L -19 4134 
L -19 4666 
z
" transform="scale(0.015625)"/>
      </defs>
      <use xlink:href="#DejaVuSans-42"/>
      <use xlink:href="#DejaVuSans-54" x="68.603516"/>
     </g>
    </g>
    <g id="line2d_39">
     <path d="M 243.91125 103.453125 
L 255.91125 103.453125 
L 267.91125 103.453125 
" style="fill: none; stroke: #2a9d8f; stroke-width: 1.8; stroke-linecap: square"/>
    </g>
    <g id="text_21">
     <!-- DSTS-K -->
     <g transform="translate(277.51125 107.653125) scale(0.12 -0.12)">
      <defs>
       <path id="DejaVuSans-2d" d="M 313 2009 
L 1997 2009 
L 1997 1497 
L 313 1497 
L 313 2009 
z
" transform="scale(0.015625)"/>
       <path id="DejaVuSans-4b" d="M 628 4666 
L 1259 4666 
L 1259 2694 
L 3353 4666 
L 4166 4666 
L 1850 2491 
L 4331 0 
L 3500 0 
L 1259 2247 
L 1259 0 
L 628 0 
L 628 4666 
z
" transform="scale(0.015625)"/>
      </defs>
      <use xlink:href="#DejaVuSans-44"/>
      <use xlink:href="#DejaVuSans-53" x="77.001953"/>
      <use xlink:href="#DejaVuSans-54" x="140.478516"/>
      <use xlink:href="#DejaVuSans-53" x="201.5625"/>
      <use xlink:href="#DejaVuSans-2d" x="265.039062"/>
      <use xlink:href="#DejaVuSans-4b" x="301.123047"/>
     </g>
    </g>
    <g id="line2d_40">
     <path d="M 243.91125 121.066875 
L 255.91125 121.066875 
L 267.91125 121.066875 
" style="fill: none; stroke: #e76f51; stroke-width: 1.8; stroke-linecap: square"/>
    </g>
    <g id="text_22">
     <!-- DSTS-M -->
     <g transform="translate(277.51125 125.266875) scale(0.12 -0.12)">
      <defs>
       <path id="DejaVuSans-4d" d="M 628 4666 
L 1569 4666 
L 2759 1491 
L 3956 4666 
L 4897 4666 
L 4897 0 
L 4281 0 
L 4281 4097 
L 3078 897 
L 2444 897 
L 1241 4097 
L 1241 0 
L 628 0 
L 628 4666 
z
" transform="scale(0.015625)"/>
      </defs>
      <use xlink:href="#DejaVuSans-44"/>
      <use xlink:href="#DejaVuSans-53" x="77.001953"/>
      <use xlink:href="#DejaVuSans-54" x="140.478516"/>
      <use xlink:href="#DejaVuSans-53" x="201.5625"/>
      <use xlink:href="#DejaVuSans-2d" x="265.039062"/>
      <use xlink:href="#DejaVuSans-4d" x="301.123047"/>
     </g>
    </g>
   </g>
  </g>
 </g>
 <defs>
  <clipPath id="p64d5976365">
   <rect x="54" y="17.28" width="280.8" height="371.52"/>
  </clipPath>
 </defs>
</svg>
