<?xml version="1.0" encoding="utf-8" standalone="no"?>
<!DOCTYPE svg PUBLIC "-//W3C//DTD SVG 1.1//EN"
  "http://www.w3.org/Graphics/SVG/1.1/DTD/svg11.dtd">
<svg xmlns:xlink="http://www.w3.org/1999/xlink" width="360pt" height="432pt" viewBox="0 0 360 432" xmlns="http://www.w3.org/2000/svg" version="1.1">
 <metadata>
  <rdf:RDF xmlns:dc="http://purl.org/dc/elements/1.1/" xmlns:cc="http://creativecommons.org/ns#" xmlns:rdf="http://www.w3.org/1999/02/22-rdf-syntax-ns#">
   <cc:Work>
    <dc:type rdf:resource="http://purl.org/dc/dcmitype/StillImage"/>
    <dc:date>2026-04-01T14:15:15.947981</dc:date>
    <dc:format>image/svg+xml</dc:format>
    <dc:creator>
     <cc:Agent>
      <dc:title>Matplotlib v3.6.3, https://matplotlib.org/</dc:title>
     </cc:Agent>
    </dc:creator>
   </cc:Work>
  </rdf:RDF>
 </metadata>
 <defs>
  <style type="text/css">*{stroke-linejoin: round; stroke-linecap: butt}</style>
 </defs>
 <g id="figure_1">
  <g id="patch_1">
   <path d="M 0 432 
L 360 432 
L 360 0 
L 0 0 
z
" style="fill: #ffffff"/>
  </g>
  <g id="axes_1">
   <g id="patch_2">
    <path d="M 54 388.8 
L 334.8 388.8 
L 334.8 17.28 
L 54 17.28 
z
" style="fill: #ffffff"/>
   </g>
   <g id="matplotlib.axis_1">
    <g id="xtick_1">
     <g id="line2d_1">
      <path d="M 54 388.8 
L 54 17.28 
" clip-path="url(#p9e75c53dee)" style="fill: none; stroke: #000000; stroke-opacity: 0.1; stroke-width: 0.7; stroke-linecap: square"/>
     </g>
     <g id="line2d_2">
      <defs>
       <path id="m159e6e4d43" d="M 0 0 
L 0 3.5 
" style="stroke: #000000; stroke-width: 0.8"/>
      </defs>
      <g>
       <use xlink:href="#m159e6e4d43" x="54" y="388.8" style="stroke: #000000; stroke-width: 0.8"/>
      </g>
     </g>
     <g id="text_1">
      <!-- 0.00 -->
      <g transform="translate(39.527344 405.677969) scale(0.13 -0.13)">
       <defs>
        <path id="DejaVuSans-30" d="M 2034 4250 
Q 1547 4250 1301 3770 
Q 1056 3291 1056 2328 
Q 1056 1369 1301 889 
Q 1547 409 2034 409 
Q 2525 409 2770 889 
Q 3016 1369 3016 2328 
Q 3016 3291 2770 3770 
Q 2525 4250 2034 4250 
z
M 2034 4750 
Q 2819 4750 3233 4129 
Q 3647 3509 3647 2328 
Q 3647 1150 3233 529 
Q 2819 -91 2034 -91 
Q 1250 -91 836 529 
Q 422 1150 422 2328 
Q 422 3509 836 4129 
Q 1250 4750 2034 4750 
z
" transform="scale(0.015625)"/>
        <path id="DejaVuSans-2e" d="M 684 794 
L 1344 794 
L 1344 0 
L 684 0 
L 684 794 
z
" transform="scale(0.015625)"/>
       </defs>
       <use xlink:href="#DejaVuSans-30"/>
       <use xlink:href="#DejaVuSans-2e" x="63.623047"/>
       <use xlink:href="#DejaVuSans-30" x="95.410156"/>
       <use xlink:href="#DejaVuSans-30" x="159.033203"/>
      </g>
     </g>
    </g>
    <g id="xtick_2">
     <g id="line2d_3">
      <path d="M 194.4 388.8 
L 194.4 17.28 
" clip-path="url(#p9e75c53dee)" style="fill: none; stroke: #000000; stroke-opacity: 0.1; stroke-width: 0.7; stroke-linecap: square"/>
     </g>
     <g id="line2d_4">
      <g>
       <use xlink:href="#m159e6e4d43" x="194.4" y="388.8" style="stroke: #000000; stroke-width: 0.8"/>
      </g>
     </g>
     <g id="text_2">
      <!-- 0.25 -->
      <g transform="translate(179.927344 405.677969) scale(0.13 -0.13)">
       <defs>
        <path id="DejaVuSans-32" d="M 1228 531 
L 3431 531 
L 3431 0 
L 469 0 
L 469 531 
Q 828 903 1448 1529 
Q 2069 2156 2228 2338 
Q 2531 2678 2651 2914 
Q 2772 3150 2772 3378 
Q 2772 3750 2511 3984 
Q 2250 4219 1831 4219 
Q 1534 4219 1204 4116 
Q 875 4013 500 3803 
L 500 4441 
Q 881 4594 1212 4672 
Q 1544 4750 1819 4750 
Q 2544 4750 2975 4387 
Q 3406 4025 3406 3419 
Q 3406 3131 3298 2873 
Q 3191 2616 2906 2266 
Q 2828 2175 2409 1742 
Q 1991 1309 1228 531 
z
" transform="scale(0.015625)"/>
        <path id="DejaVuSans-35" d="M 691 4666 
L 3169 4666 
L 3169 4134 
L 1269 4134 
L 1269 2991 
Q 1406 3038 1543 3061 
Q 1681 3084 1819 3084 
Q 2600 3084 3056 2656 
Q 3513 2228 3513 1497 
Q 3513 744 3044 326 
Q 2575 -91 1722 -91 
Q 1428 -91 1123 -41 
Q 819 9 494 109 
L 494 744 
Q 775 591 1075 516 
Q 1375 441 1709 441 
Q 2250 441 2565 725 
Q 2881 1009 2881 1497 
Q 2881 1984 2565 2268 
Q 2250 2553 1709 2553 
Q 1456 2553 1204 2497 
Q 953 2441 691 2322 
L 691 4666 
z
" transform="scale(0.015625)"/>
       </defs>
       <use xlink:href="#DejaVuSans-30"/>
       <use xlink:href="#DejaVuSans-2e" x="63.623047"/>
       <use xlink:href="#DejaVuSans-32" x="95.410156"/>
       <use xlink:href="#DejaVuSans-35" x="159.033203"/>
      </g>
     </g>
    </g>
    <g id="xtick_3">
     <g id="line2d_5">
      <path d="M 334.8 388.8 
L 334.8 17.28 
" clip-path="url(#p9e75c53dee)" style="fill: none; stroke: #000000; stroke-opacity: 0.1; stroke-width: 0.7; stroke-linecap: square"/>
     </g>
     <g id="line2d_6">
      <g>
       <use xlink:href="#m159e6e4d43" x="334.8" y="388.8" style="stroke: #000000; stroke-width: 0.8"/>
      </g>
     </g>
     <g id="text_3">
      <!-- 0.50 -->
      <g transform="translate(320.327344 405.677969) scale(0.13 -0.13)">
       <use xlink:href="#DejaVuSans-30"/>
       <use xlink:href="#DejaVuSans-2e" x="63.623047"/>
       <use xlink:href="#DejaVuSans-35" x="95.410156"/>
       <use xlink:href="#DejaVuSans-30" x="159.033203"/>
      </g>
     </g>
    </g>
    <g id="text_4">
     <!-- Attack Ratio -->
     <g transform="translate(145.78375 424.539062) scale(0.16 -0.16)">
      <defs>
       <path id="DejaVuSans-41" d="M 2188 4044 
L 1331 1722 
L 3047 1722 
L 2188 4044 
z
M 1831 4666 
L 2547 4666 
L 4325 0 
L 3669 0 
L 3244 1197 
L 1141 1197 
L 716 0 
L 50 0 
L 1831 4666 
z
" transform="scale(0.015625)"/>
       <path id="DejaVuSans-74" d="M 1172 4494 
L 1172 3500 
L 2356 3500 
L 2356 3053 
L 1172 3053 
L 1172 1153 
Q 1172 725 1289 603 
Q 1406 481 1766 481 
L 2356 481 
L 2356 0 
L 1766 0 
Q 1100 0 847 248 
Q 594 497 594 1153 
L 594 3053 
L 172 3053 
L 172 3500 
L 594 3500 
L 594 4494 
L 1172 4494 
z
" transform="scale(0.015625)"/>
       <path id="DejaVuSans-61" d="M 2194 1759 
Q 1497 1759 1228 1600 
Q 959 1441 959 1056 
Q 959 750 1161 570 
Q 1363 391 1709 391 
Q 2188 391 2477 730 
Q 2766 1069 2766 1631 
L 2766 1759 
L 2194 1759 
z
M 3341 1997 
L 3341 0 
L 2766 0 
L 2766 531 
Q 2569 213 2275 61 
Q 1981 -91 1556 -91 
Q 1019 -91 701 211 
Q 384 513 384 1019 
Q 384 1609 779 1909 
Q 1175 2209 1959 2209 
L 2766 2209 
L 2766 2266 
Q 2766 2663 2505 2880 
Q 2244 3097 1772 3097 
Q 1472 3097 1187 3025 
Q 903 2953 641 2809 
L 641 3341 
Q 956 3463 1253 3523 
Q 1550 3584 1831 3584 
Q 2591 3584 2966 3190 
Q 3341 2797 3341 1997 
z
" transform="scale(0.015625)"/>
       <path id="DejaVuSans-63" d="M 3122 3366 
L 3122 2828 
Q 2878 2963 2633 3030 
Q 2388 3097 2138 3097 
Q 1578 3097 1268 2742 
Q 959 2388 959 1747 
Q 959 1106 1268 751 
Q 1578 397 2138 397 
Q 2388 397 2633 464 
Q 2878 531 3122 666 
L 3122 134 
Q 2881 22 2623 -34 
Q 2366 -91 2075 -91 
Q 1284 -91 818 406 
Q 353 903 353 1747 
Q 353 2603 823 3093 
Q 1294 3584 2113 3584 
Q 2378 3584 2631 3529 
Q 2884 3475 3122 3366 
z
" transform="scale(0.015625)"/>
       <path id="DejaVuSans-6b" d="M 581 4863 
L 1159 4863 
L 1159 1991 
L 2875 3500 
L 3609 3500 
L 1753 1863 
L 3688 0 
L 2938 0 
L 1159 1709 
L 1159 0 
L 581 0 
L 581 4863 
z
" transform="scale(0.015625)"/>
       <path id="DejaVuSans-20" transform="scale(0.015625)"/>
       <path id="DejaVuSans-52" d="M 2841 2188 
Q 3044 2119 3236 1894 
Q 3428 1669 3622 1275 
L 4263 0 
L 3584 0 
L 2988 1197 
Q 2756 1666 2539 1819 
Q 2322 1972 1947 1972 
L 1259 1972 
L 1259 0 
L 628 0 
L 628 4666 
L 2053 4666 
Q 2853 4666 3247 4331 
Q 3641 3997 3641 3322 
Q 3641 2881 3436 2590 
Q 3231 2300 2841 2188 
z
M 1259 4147 
L 1259 2491 
L 2053 2491 
Q 2509 2491 2742 2702 
Q 2975 2913 2975 3322 
Q 2975 3731 2742 3939 
Q 2509 4147 2053 4147 
L 1259 4147 
z
" transform="scale(0.015625)"/>
       <path id="DejaVuSans-69" d="M 603 3500 
L 1178 3500 
L 1178 0 
L 603 0 
L 603 3500 
z
M 603 4863 
L 1178 4863 
L 1178 4134 
L 603 4134 
L 603 4863 
z
" transform="scale(0.015625)"/>
       <path id="DejaVuSans-6f" d="M 1959 3097 
Q 1497 3097 1228 2736 
Q 959 2375 959 1747 
Q 959 1119 1226 758 
Q 1494 397 1959 397 
Q 2419 397 2687 759 
Q 2956 1122 2956 1747 
Q 2956 2369 2687 2733 
Q 2419 3097 1959 3097 
z
M 1959 3584 
Q 2709 3584 3137 3096 
Q 3566 2609 3566 1747 
Q 3566 888 3137 398 
Q 2709 -91 1959 -91 
Q 1206 -91 779 398 
Q 353 888 353 1747 
Q 353 2609 779 3096 
Q 1206 3584 1959 3584 
z
" transform="scale(0.015625)"/>
      </defs>
      <use xlink:href="#DejaVuSans-41"/>
      <use xlink:href="#DejaVuSans-74" x="66.658203"/>
      <use xlink:href="#DejaVuSans-74" x="105.867188"/>
      <use xlink:href="#DejaVuSans-61" x="145.076172"/>
      <use xlink:href="#DejaVuSans-63" x="206.355469"/>
      <use xlink:href="#DejaVuSans-6b" x="261.335938"/>
      <use xlink:href="#DejaVuSans-20" x="319.246094"/>
      <use xlink:href="#DejaVuSans-52" x="351.033203"/>
      <use xlink:href="#DejaVuSans-61" x="418.265625"/>
      <use xlink:href="#DejaVuSans-74" x="479.544922"/>
      <use xlink:href="#DejaVuSans-69" x="518.753906"/>
      <use xlink:href="#DejaVuSans-6f" x="546.537109"/>
     </g>
    </g>
   </g>
   <g id="matplotlib.axis_2">
    <g id="ytick_1">
     <g id="line2d_7">
      <path d="M 54 388.8 
L 334.8 388.8 
" clip-path="url(#p9e75c53dee)" style="fill: none; stroke: #000000; stroke-opacity: 0.1; stroke-width: 0.7; stroke-linecap: square"/>
     </g>
     <g id="line2d_8">
      <defs>
       <path id="m4f214848b9" d="M 0 0 
L -3.5 0 
" style="stroke: #000000; stroke-width: 0.8"/>
      </defs>
      <g>
       <use xlink:href="#m4f214848b9" x="54" y="388.8" style="stroke: #000000; stroke-width: 0.8"/>
      </g>
     </g>
     <g id="text_5">
      <!-- 0.0 -->
      <g transform="translate(26.325937 393.738984) scale(0.13 -0.13)">
       <use xlink:href="#DejaVuSans-30"/>
       <use xlink:href="#DejaVuSans-2e" x="63.623047"/>
       <use xlink:href="#DejaVuSans-30" x="95.410156"/>
      </g>
     </g>
    </g>
    <g id="ytick_2">
     <g id="line2d_9">
      <path d="M 54 351.648 
L 334.8 351.648 
" clip-path="url(#p9e75c53dee)" style="fill: none; stroke: #000000; stroke-opacity: 0.1; stroke-width: 0.7; stroke-linecap: square"/>
     </g>
     <g id="line2d_10">
      <g>
       <use xlink:href="#m4f214848b9" x="54" y="351.648" style="stroke: #000000; stroke-width: 0.8"/>
      </g>
     </g>
     <g id="text_6">
      <!-- 0.1 -->
      <g transform="translate(26.325937 356.586984) scale(0.13 -0.13)">
       <defs>
        <path id="DejaVuSans-31" d="M 794 531 
L 1825 531 
L 1825 4091 
L 703 3866 
L 703 4441 
L 1819 4666 
L 2450 4666 
L 2450 531 
L 3481 531 
L 3481 0 
L 794 0 
L 794 531 
z
" transform="scale(0.015625)"/>
       </defs>
       <use xlink:href="#DejaVuSans-30"/>
       <use xlink:href="#DejaVuSans-2e" x="63.623047"/>
       <use xlink:href="#DejaVuSans-31" x="95.410156"/>
      </g>
     </g>
    </g>
    <g id="ytick_3">
     <g id="line2d_11">
      <path d="M 54 314.496 
L 334.8 314.496 
" clip-path="url(#p9e75c53dee)" style="fill: none; stroke: #000000; stroke-opacity: 0.1; stroke-width: 0.7; stroke-linecap: square"/>
     </g>
     <g id="line2d_12">
      <g>
       <use xlink:href="#m4f214848b9" x="54" y="314.496" style="stroke: #000000; stroke-width: 0.8"/>
      </g>
     </g>
     <g id="text_7">
      <!-- 0.2 -->
      <g transform="translate(26.325937 319.434984) scale(0.13 -0.13)">
       <use xlink:href="#DejaVuSans-30"/>
       <use xlink:href="#DejaVuSans-2e" x="63.623047"/>
       <use xlink:href="#DejaVuSans-32" x="95.410156"/>
      </g>
     </g>
    </g>
    <g id="ytick_4">
     <g id="line2d_13">
      <path d="M 54 277.344 
L 334.8 277.344 
" clip-path="url(#p9e75c53dee)" style="fill: none; stroke: #000000; stroke-opacity: 0.1; stroke-width: 0.7; stroke-linecap: square"/>
     </g>
     <g id="line2d_14">
      <g>
       <use xlink:href="#m4f214848b9" x="54" y="277.344" style="stroke: #000000; stroke-width: 0.8"/>
      </g>
     </g>
     <g id="text_8">
      <!-- 0.3 -->
      <g transform="translate(26.325937 282.282984) scale(0.13 -0.13)">
       <defs>
        <path id="DejaVuSans-33" d="M 2597 2516 
Q 3050 2419 3304 2112 
Q 3559 1806 3559 1356 
Q 3559 666 3084 287 
Q 2609 -91 1734 -91 
Q 1441 -91 1130 -33 
Q 819 25 488 141 
L 488 750 
Q 750 597 1062 519 
Q 1375 441 1716 441 
Q 2309 441 2620 675 
Q 2931 909 2931 1356 
Q 2931 1769 2642 2001 
Q 2353 2234 1838 2234 
L 1294 2234 
L 1294 2753 
L 1863 2753 
Q 2328 2753 2575 2939 
Q 2822 3125 2822 3475 
Q 2822 3834 2567 4026 
Q 2313 4219 1838 4219 
Q 1578 4219 1281 4162 
Q 984 4106 628 3988 
L 628 4550 
Q 988 4650 1302 4700 
Q 1616 4750 1894 4750 
Q 2613 4750 3031 4423 
Q 3450 4097 3450 3541 
Q 3450 3153 3228 2886 
Q 3006 2619 2597 2516 
z
" transform="scale(0.015625)"/>
       </defs>
       <use xlink:href="#DejaVuSans-30"/>
       <use xlink:href="#DejaVuSans-2e" x="63.623047"/>
       <use xlink:href="#DejaVuSans-33" x="95.410156"/>
      </g>
     </g>
    </g>
    <g id="ytick_5">
     <g id="line2d_15">
      <path d="M 54 240.192 
L 334.8 240.192 
" clip-path="url(#p9e75c53dee)" style="fill: none; stroke: #000000; stroke-opacity: 0.1; stroke-width: 0.7; stroke-linecap: square"/>
     </g>
     <g id="line2d_16">
      <g>
       <use xlink:href="#m4f214848b9" x="54" y="240.192" style="stroke: #000000; stroke-width: 0.8"/>
      </g>
     </g>
     <g id="text_9">
      <!-- 0.4 -->
      <g transform="translate(26.325937 245.130984) scale(0.13 -0.13)">
       <defs>
        <path id="DejaVuSans-34" d="M 2419 4116 
L 825 1625 
L 2419 1625 
L 2419 4116 
z
M 2253 4666 
L 3047 4666 
L 3047 1625 
L 3713 1625 
L 3713 1100 
L 3047 1100 
L 3047 0 
L 2419 0 
L 2419 1100 
L 313 1100 
L 313 1709 
L 2253 4666 
z
" transform="scale(0.015625)"/>
       </defs>
       <use xlink:href="#DejaVuSans-30"/>
       <use xlink:href="#DejaVuSans-2e" x="63.623047"/>
       <use xlink:href="#DejaVuSans-34" x="95.410156"/>
      </g>
     </g>
    </g>
    <g id="ytick_6">
     <g id="line2d_17">
      <path d="M 54 203.04 
L 334.8 203.04 
" clip-path="url(#p9e75c53dee)" style="fill: none; stroke: #000000; stroke-opacity: 0.1; stroke-width: 0.7; stroke-linecap: square"/>
     </g>
     <g id="line2d_18">
      <g>
       <use xlink:href="#m4f214848b9" x="54" y="203.04" style="stroke: #000000; stroke-width: 0.8"/>
      </g>
     </g>
     <g id="text_10">
      <!-- 0.5 -->
      <g transform="translate(26.325937 207.978984) scale(0.13 -0.13)">
       <use xlink:href="#DejaVuSans-30"/>
       <use xlink:href="#DejaVuSans-2e" x="63.623047"/>
       <use xlink:href="#DejaVuSans-35" x="95.410156"/>
      </g>
     </g>
    </g>
    <g id="ytick_7">
     <g id="line2d_19">
      <path d="M 54 165.888 
L 334.8 165.888 
" clip-path="url(#p9e75c53dee)" style="fill: none; stroke: #000000; stroke-opacity: 0.1; stroke-width: 0.7; stroke-linecap: square"/>
     </g>
     <g id="line2d_20">
      <g>
       <use xlink:href="#m4f214848b9" x="54" y="165.888" style="stroke: #000000; stroke-width: 0.8"/>
      </g>
     </g>
     <g id="text_11">
      <!-- 0.6 -->
      <g transform="translate(26.325937 170.826984) scale(0.13 -0.13)">
       <defs>
        <path id="DejaVuSans-36" d="M 2113 2584 
Q 1688 2584 1439 2293 
Q 1191 2003 1191 1497 
Q 1191 994 1439 701 
Q 1688 409 2113 409 
Q 2538 409 2786 701 
Q 3034 994 3034 1497 
Q 3034 2003 2786 2293 
Q 2538 2584 2113 2584 
z
M 3366 4563 
L 3366 3988 
Q 3128 4100 2886 4159 
Q 2644 4219 2406 4219 
Q 1781 4219 1451 3797 
Q 1122 3375 1075 2522 
Q 1259 2794 1537 2939 
Q 1816 3084 2150 3084 
Q 2853 3084 3261 2657 
Q 3669 2231 3669 1497 
Q 3669 778 3244 343 
Q 2819 -91 2113 -91 
Q 1303 -91 875 529 
Q 447 1150 447 2328 
Q 447 3434 972 4092 
Q 1497 4750 2381 4750 
Q 2619 4750 2861 4703 
Q 3103 4656 3366 4563 
z
" transform="scale(0.015625)"/>
       </defs>
       <use xlink:href="#DejaVuSans-30"/>
       <use xlink:href="#DejaVuSans-2e" x="63.623047"/>
       <use xlink:href="#DejaVuSans-36" x="95.410156"/>
      </g>
     </g>
    </g>
    <g id="ytick_8">
     <g id="line2d_21">
      <path d="M 54 128.736 
L 334.8 128.736 
" clip-path="url(#p9e75c53dee)" style="fill: none; stroke: #000000; stroke-opacity: 0.1; stroke-width: 0.7; stroke-linecap: square"/>
     </g>
     <g id="line2d_22">
      <g>
       <use xlink:href="#m4f214848b9" x="54" y="128.736" style="stroke: #000000; stroke-width: 0.8"/>
      </g>
     </g>
     <g id="text_12">
      <!-- 0.7 -->
      <g transform="translate(26.325937 133.674984) scale(0.13 -0.13)">
       <defs>
        <path id="DejaVuSans-37" d="M 525 4666 
L 3525 4666 
L 3525 4397 
L 1831 0 
L 1172 0 
L 2766 4134 
L 525 4134 
L 525 4666 
z
" transform="scale(0.015625)"/>
       </defs>
       <use xlink:href="#DejaVuSans-30"/>
       <use xlink:href="#DejaVuSans-2e" x="63.623047"/>
       <use xlink:href="#DejaVuSans-37" x="95.410156"/>
      </g>
     </g>
    </g>
    <g id="ytick_9">
     <g id="line2d_23">
      <path d="M 54 91.584 
L 334.8 91.584 
" clip-path="url(#p9e75c53dee)" style="fill: none; stroke: #000000; stroke-opacity: 0.1; stroke-width: 0.7; stroke-linecap: square"/>
     </g>
     <g id="line2d_24">
      <g>
       <use xlink:href="#m4f214848b9" x="54" y="91.584" style="stroke: #000000; stroke-width: 0.8"/>
      </g>
     </g>
     <g id="text_13">
      <!-- 0.8 -->
      <g transform="translate(26.325937 96.522984) scale(0.13 -0.13)">
       <defs>
        <path id="DejaVuSans-38" d="M 2034 2216 
Q 1584 2216 1326 1975 
Q 1069 1734 1069 1313 
Q 1069 891 1326 650 
Q 1584 409 2034 409 
Q 2484 409 2743 651 
Q 3003 894 3003 1313 
Q 3003 1734 2745 1975 
Q 2488 2216 2034 2216 
z
M 1403 2484 
Q 997 2584 770 2862 
Q 544 3141 544 3541 
Q 544 4100 942 4425 
Q 1341 4750 2034 4750 
Q 2731 4750 3128 4425 
Q 3525 4100 3525 3541 
Q 3525 3141 3298 2862 
Q 3072 2584 2669 2484 
Q 3125 2378 3379 2068 
Q 3634 1759 3634 1313 
Q 3634 634 3220 271 
Q 2806 -91 2034 -91 
Q 1263 -91 848 271 
Q 434 634 434 1313 
Q 434 1759 690 2068 
Q 947 2378 1403 2484 
z
M 1172 3481 
Q 1172 3119 1398 2916 
Q 1625 2713 2034 2713 
Q 2441 2713 2670 2916 
Q 2900 3119 2900 3481 
Q 2900 3844 2670 4047 
Q 2441 4250 2034 4250 
Q 1625 4250 1398 4047 
Q 1172 3844 1172 3481 
z
" transform="scale(0.015625)"/>
       </defs>
       <use xlink:href="#DejaVuSans-30"/>
       <use xlink:href="#DejaVuSans-2e" x="63.623047"/>
       <use xlink:href="#DejaVuSans-38" x="95.410156"/>
      </g>
     </g>
    </g>
    <g id="ytick_10">
     <g id="line2d_25">
      <path d="M 54 54.432 
L 334.8 54.432 
" clip-path="url(#p9e75c53dee)" style="fill: none; stroke: #000000; stroke-opacity: 0.1; stroke-width: 0.7; stroke-linecap: square"/>
     </g>
     <g id="line2d_26">
      <g>
       <use xlink:href="#m4f214848b9" x="54" y="54.432" style="stroke: #000000; stroke-width: 0.8"/>
      </g>
     </g>
     <g id="text_14">
      <!-- 0.9 -->
      <g transform="translate(26.325937 59.370984) scale(0.13 -0.13)">
       <defs>
        <path id="DejaVuSans-39" d="M 703 97 
L 703 672 
Q 941 559 1184 500 
Q 1428 441 1663 441 
Q 2288 441 2617 861 
Q 2947 1281 2994 2138 
Q 2813 1869 2534 1725 
Q 2256 1581 1919 1581 
Q 1219 1581 811 2004 
Q 403 2428 403 3163 
Q 403 3881 828 4315 
Q 1253 4750 1959 4750 
Q 2769 4750 3195 4129 
Q 3622 3509 3622 2328 
Q 3622 1225 3098 567 
Q 2575 -91 1691 -91 
Q 1453 -91 1209 -44 
Q 966 3 703 97 
z
M 1959 2075 
Q 2384 2075 2632 2365 
Q 2881 2656 2881 3163 
Q 2881 3666 2632 3958 
Q 2384 4250 1959 4250 
Q 1534 4250 1286 3958 
Q 1038 3666 1038 3163 
Q 1038 2656 1286 2365 
Q 1534 2075 1959 2075 
z
" transform="scale(0.015625)"/>
       </defs>
       <use xlink:href="#DejaVuSans-30"/>
       <use xlink:href="#DejaVuSans-2e" x="63.623047"/>
       <use xlink:href="#DejaVuSans-39" x="95.410156"/>
      </g>
     </g>
    </g>
    <g id="ytick_11">
     <g id="line2d_27">
      <path d="M 54 17.28 
L 334.8 17.28 
" clip-path="url(#p9e75c53dee)" style="fill: none; stroke: #000000; stroke-opacity: 0.1; stroke-width: 0.7; stroke-linecap: square"/>
     </g>
     <g id="line2d_28">
      <g>
       <use xlink:href="#m4f214848b9" x="54" y="17.28" style="stroke: #000000; stroke-width: 0.8"/>
      </g>
     </g>
     <g id="text_15">
      <!-- 1.0 -->
      <g transform="translate(26.325937 22.218984) scale(0.13 -0.13)">
       <use xlink:href="#DejaVuSans-31"/>
       <use xlink:href="#DejaVuSans-2e" x="63.623047"/>
       <use xlink:href="#DejaVuSans-30" x="95.410156"/>
      </g>
     </g>
    </g>
    <g id="text_16">
     <!-- GCC Size -->
     <g transform="translate(18.998437 239.37625) rotate(-90) scale(0.16 -0.16)">
      <defs>
       <path id="DejaVuSans-47" d="M 3809 666 
L 3809 1919 
L 2778 1919 
L 2778 2438 
L 4434 2438 
L 4434 434 
Q 4069 175 3628 42 
Q 3188 -91 2688 -91 
Q 1594 -91 976 548 
Q 359 1188 359 2328 
Q 359 3472 976 4111 
Q 1594 4750 2688 4750 
Q 3144 4750 3555 4637 
Q 3966 4525 4313 4306 
L 4313 3634 
Q 3963 3931 3569 4081 
Q 3175 4231 2741 4231 
Q 1884 4231 1454 3753 
Q 1025 3275 1025 2328 
Q 1025 1384 1454 906 
Q 1884 428 2741 428 
Q 3075 428 3337 486 
Q 3600 544 3809 666 
z
" transform="scale(0.015625)"/>
       <path id="DejaVuSans-43" d="M 4122 4306 
L 4122 3641 
Q 3803 3938 3442 4084 
Q 3081 4231 2675 4231 
Q 1875 4231 1450 3742 
Q 1025 3253 1025 2328 
Q 1025 1406 1450 917 
Q 1875 428 2675 428 
Q 3081 428 3442 575 
Q 3803 722 4122 1019 
L 4122 359 
Q 3791 134 3420 21 
Q 3050 -91 2638 -91 
Q 1578 -91 968 557 
Q 359 1206 359 2328 
Q 359 3453 968 4101 
Q 1578 4750 2638 4750 
Q 3056 4750 3426 4639 
Q 3797 4528 4122 4306 
z
" transform="scale(0.015625)"/>
       <path id="DejaVuSans-53" d="M 3425 4513 
L 3425 3897 
Q 3066 4069 2747 4153 
Q 2428 4238 2131 4238 
Q 1616 4238 1336 4038 
Q 1056 3838 1056 3469 
Q 1056 3159 1242 3001 
Q 1428 2844 1947 2747 
L 2328 2669 
Q 3034 2534 3370 2195 
Q 3706 1856 3706 1288 
Q 3706 609 3251 259 
Q 2797 -91 1919 -91 
Q 1588 -91 1214 -16 
Q 841 59 441 206 
L 441 856 
Q 825 641 1194 531 
Q 1563 422 1919 422 
Q 2459 422 2753 634 
Q 3047 847 3047 1241 
Q 3047 1584 2836 1778 
Q 2625 1972 2144 2069 
L 1759 2144 
Q 1053 2284 737 2584 
Q 422 2884 422 3419 
Q 422 4038 858 4394 
Q 1294 4750 2059 4750 
Q 2388 4750 2728 4690 
Q 3069 4631 3425 4513 
z
" transform="scale(0.015625)"/>
       <path id="DejaVuSans-7a" d="M 353 3500 
L 3084 3500 
L 3084 2975 
L 922 459 
L 3084 459 
L 3084 0 
L 275 0 
L 275 525 
L 2438 3041 
L 353 3041 
L 353 3500 
z
" transform="scale(0.015625)"/>
       <path id="DejaVuSans-65" d="M 3597 1894 
L 3597 1613 
L 953 1613 
Q 991 1019 1311 708 
Q 1631 397 2203 397 
Q 2534 397 2845 478 
Q 3156 559 3463 722 
L 3463 178 
Q 3153 47 2828 -22 
Q 2503 -91 2169 -91 
Q 1331 -91 842 396 
Q 353 884 353 1716 
Q 353 2575 817 3079 
Q 1281 3584 2069 3584 
Q 2775 3584 3186 3129 
Q 3597 2675 3597 1894 
z
M 3022 2063 
Q 3016 2534 2758 2815 
Q 2500 3097 2075 3097 
Q 1594 3097 1305 2825 
Q 1016 2553 972 2059 
L 3022 2063 
z
" transform="scale(0.015625)"/>
      </defs>
      <use xlink:href="#DejaVuSans-47"/>
      <use xlink:href="#DejaVuSans-43" x="77.490234"/>
      <use xlink:href="#DejaVuSans-43" x="147.314453"/>
      <use xlink:href="#DejaVuSans-20" x="217.138672"/>
      <use xlink:href="#DejaVuSans-53" x="248.925781"/>
      <use xlink:href="#DejaVuSans-69" x="312.402344"/>
      <use xlink:href="#DejaVuSans-7a" x="340.185547"/>
      <use xlink:href="#DejaVuSans-65" x="392.675781"/>
     </g>
    </g>
   </g>
   <g id="line2d_29">
    <path d="M 54.111828 17.353978 
L 54.335484 17.575914 
L 55.341935 18.75957 
L 55.677419 19.055484 
L 55.901075 19.573333 
L 56.124731 19.795269 
L 56.236559 194.532473 
L 56.460215 194.976344 
L 56.907527 195.346237 
L 57.243011 201.930323 
L 57.466667 203.409892 
L 57.913978 236.034409 
L 58.137634 287.449462 
L 58.249462 287.523441 
L 58.36129 287.893333 
L 58.696774 292.701935 
L 59.144086 293.95957 
L 59.367742 302.689032 
L 59.47957 303.576774 
L 59.703226 308.977204 
L 60.03871 309.051183 
L 60.150538 309.495054 
L 60.374194 321.553548 
L 60.597849 325.474409 
L 60.821505 326.140215 
L 61.045161 338.19871 
L 61.156989 340.566022 
L 61.380645 346.55828 
L 61.492473 346.55828 
L 61.939785 348.629677 
L 62.163441 360.910108 
L 62.275269 360.984086 
L 62.498925 365.792688 
L 62.610753 365.866667 
L 62.946237 370.453333 
L 63.169892 370.60129 
L 63.393548 371.563011 
L 63.617204 371.858925 
L 63.84086 372.968602 
L 63.952688 372.968602 
L 64.064516 374.07828 
L 64.176344 374.07828 
L 64.623656 376.815484 
L 64.847312 377.185376 
L 64.95914 377.259355 
L 65.182796 377.555269 
L 65.294624 377.555269 
L 65.51828 378.147097 
L 65.630108 378.295054 
L 65.853763 379.182796 
L 66.077419 379.256774 
L 66.301075 380.218495 
L 66.636559 380.736344 
L 66.860215 381.624086 
L 67.083871 381.772043 
L 67.195699 381.772043 
L 67.419355 382.437849 
L 67.531183 382.511828 
L 67.754839 382.733763 
L 67.866667 382.733763 
L 68.313978 383.843441 
L 68.537634 384.139355 
L 68.76129 384.213333 
L 68.873118 384.213333 
L 69.096774 384.435269 
L 69.32043 384.509247 
L 69.544086 384.731183 
L 69.87957 384.805161 
L 70.215054 384.953118 
L 70.43871 384.953118 
L 70.662366 385.101075 
L 70.886022 385.101075 
L 71.109677 385.249032 
L 71.668817 385.323011 
L 71.892473 385.396989 
L 72.116129 385.470968 
L 72.675269 385.766882 
L 72.898925 385.84086 
L 73.234409 385.988817 
L 73.569892 386.062796 
L 73.905376 386.210753 
L 74.24086 386.284731 
L 74.464516 386.35871 
L 74.8 386.432688 
L 75.135484 386.580645 
L 76.253763 386.654624 
L 76.477419 386.728602 
L 77.036559 386.802581 
L 77.372043 386.950538 
L 78.266667 387.024516 
L 78.490323 387.098495 
L 79.273118 387.172473 
L 79.496774 387.246452 
L 80.391398 387.32043 
L 80.615054 387.394409 
L 81.174194 387.468387 
L 81.397849 387.542366 
L 83.410753 387.616344 
L 83.634409 387.690323 
L 85.2 387.764301 
L 85.423656 387.83828 
L 87.101075 387.912258 
L 87.324731 387.986237 
L 90.344086 388.060215 
L 90.567742 388.134194 
L 94.593548 388.208172 
L 94.817204 388.282151 
L 102.756989 388.356129 
L 102.868817 388.430108 
L 102.868817 388.430108 
" clip-path="url(#p9e75c53dee)" style="fill: none; stroke: #d80000; stroke-width: 1.8; stroke-linecap: square"/>
   </g>
   <g id="line2d_30">
    <path d="M 54.111828 17.28 
L 55.565591 17.353978 
L 55.901075 17.501935 
L 57.690323 17.575914 
L 57.913978 17.723871 
L 62.498925 17.797849 
L 62.722581 17.871828 
L 68.313978 17.945806 
L 68.537634 18.167742 
L 69.767742 18.167742 
L 69.991398 18.389677 
L 70.774194 18.463656 
L 70.997849 18.611613 
L 71.221505 18.685591 
L 71.780645 18.685591 
L 72.004301 18.907527 
L 72.339785 18.907527 
L 72.563441 19.129462 
L 72.675269 19.129462 
L 72.898925 19.425376 
L 73.122581 19.425376 
L 73.346237 19.647312 
L 74.576344 19.647312 
L 74.911828 20.23914 
L 75.35914 20.23914 
L 75.582796 20.461075 
L 76.701075 20.461075 
L 77.036559 20.904946 
L 77.260215 20.904946 
L 77.483871 21.052903 
L 77.931183 21.052903 
L 78.154839 21.348817 
L 78.266667 21.348817 
L 78.490323 21.570753 
L 79.049462 21.570753 
L 79.273118 21.71871 
L 80.055914 21.71871 
L 80.27957 21.940645 
L 80.503226 21.940645 
L 80.726882 22.162581 
L 81.286022 22.458495 
L 81.397849 22.458495 
L 81.621505 22.754409 
L 82.404301 22.754409 
L 82.627957 23.124301 
L 82.739785 23.124301 
L 82.963441 23.272258 
L 83.075269 23.272258 
L 83.298925 23.494194 
L 83.410753 23.494194 
L 83.858065 24.012043 
L 84.193548 24.012043 
L 84.417204 24.16 
L 84.864516 24.16 
L 85.2 24.455914 
L 86.541935 24.455914 
L 86.765591 24.603871 
L 87.324731 24.603871 
L 87.548387 24.899785 
L 87.772043 24.899785 
L 87.995699 25.12172 
L 88.219355 25.12172 
L 88.554839 25.417634 
L 89.337634 25.417634 
L 89.56129 25.713548 
L 90.12043 25.713548 
L 90.344086 26.157419 
L 90.567742 26.231398 
L 90.903226 26.231398 
L 91.23871 26.675269 
L 91.574194 26.971183 
L 91.686022 26.971183 
L 92.133333 27.415054 
L 92.245161 27.415054 
L 92.468817 27.932903 
L 92.580645 27.932903 
L 92.916129 29.116559 
L 93.139785 29.116559 
L 93.363441 29.56043 
L 93.475269 29.56043 
L 93.810753 29.856344 
L 94.034409 29.856344 
L 94.369892 30.152258 
L 94.48172 30.152258 
L 94.593548 30.300215 
L 94.817204 30.818065 
L 95.376344 30.892043 
L 95.6 31.04 
L 96.494624 31.04 
L 96.71828 31.187957 
L 97.501075 31.261935 
L 97.724731 31.631828 
L 97.948387 31.853763 
L 98.060215 32.00172 
L 98.283871 32.51957 
L 98.731183 32.51957 
L 98.954839 32.667527 
L 99.066667 32.667527 
L 99.290323 33.037419 
L 99.402151 33.037419 
L 99.625806 33.259355 
L 99.96129 33.259355 
L 101.07957 34.590968 
L 101.303226 34.590968 
L 101.526882 34.812903 
L 101.63871 34.812903 
L 101.862366 35.108817 
L 102.086022 35.626667 
L 102.197849 35.626667 
L 102.421505 35.848602 
L 102.756989 36.070538 
L 102.980645 36.292473 
L 102.980645 36.292473 
" clip-path="url(#p9e75c53dee)" style="fill: none; stroke: #264653; stroke-width: 1.8; stroke-linecap: square"/>
   </g>
   <g id="line2d_31">
    <path d="M 54.111828 17.28 
L 70.215054 17.353978 
L 70.43871 17.501935 
L 70.774194 17.501935 
L 70.997849 17.797849 
L 71.780645 17.797849 
L 72.004301 18.019785 
L 72.339785 18.019785 
L 72.563441 18.24172 
L 72.787097 18.24172 
L 73.122581 18.685591 
L 81.733333 18.75957 
L 81.956989 18.907527 
L 84.752688 18.907527 
L 84.976344 19.055484 
L 85.423656 19.055484 
L 85.647312 19.277419 
L 86.989247 19.277419 
L 87.212903 19.425376 
L 88.443011 19.425376 
L 88.666667 19.573333 
L 89.225806 19.573333 
L 89.449462 19.795269 
L 91.23871 19.869247 
L 91.462366 20.091183 
L 91.797849 20.091183 
L 92.021505 20.23914 
L 92.468817 20.23914 
L 92.804301 20.609032 
L 93.587097 20.609032 
L 93.810753 20.756989 
L 94.48172 20.756989 
L 94.705376 21.348817 
L 95.376344 21.348817 
L 95.6 21.866667 
L 95.935484 21.866667 
L 96.15914 22.014624 
L 97.948387 22.014624 
L 98.283871 22.310538 
L 98.395699 22.310538 
L 98.619355 22.458495 
L 99.849462 22.458495 
L 100.184946 22.754409 
L 102.086022 22.754409 
L 102.309677 22.976344 
L 102.868817 22.976344 
L 102.868817 22.976344 
" clip-path="url(#p9e75c53dee)" style="fill: none; stroke: #ffe211; stroke-width: 1.8; stroke-linecap: square"/>
   </g>
   <g id="line2d_32">
    <path d="M 54.111828 17.28 
L 55.565591 17.353978 
L 55.789247 17.427957 
L 56.460215 17.501935 
L 56.683871 17.575914 
L 58.473118 17.649892 
L 58.696774 17.723871 
L 60.486022 17.723871 
L 60.709677 17.871828 
L 65.070968 17.945806 
L 65.294624 18.093763 
L 66.636559 18.167742 
L 66.860215 18.24172 
L 68.313978 18.315699 
L 68.537634 18.463656 
L 69.655914 18.537634 
L 69.87957 18.75957 
L 70.326882 18.833548 
L 70.550538 19.055484 
L 71.780645 19.055484 
L 72.116129 19.425376 
L 72.675269 19.425376 
L 72.898925 19.647312 
L 73.346237 19.647312 
L 73.569892 19.869247 
L 75.35914 19.869247 
L 75.582796 20.091183 
L 75.806452 20.165161 
L 76.253763 20.387097 
L 76.701075 20.387097 
L 77.036559 20.830968 
L 77.260215 20.830968 
L 77.483871 21.052903 
L 78.266667 21.052903 
L 78.490323 21.20086 
L 79.16129 21.20086 
L 79.384946 21.348817 
L 80.503226 21.422796 
L 80.726882 21.644731 
L 80.950538 21.71871 
L 81.062366 21.71871 
L 81.286022 21.866667 
L 82.739785 21.940645 
L 82.963441 22.088602 
L 84.752688 22.088602 
L 84.976344 22.236559 
L 85.423656 22.458495 
L 85.535484 22.458495 
L 85.75914 22.606452 
L 87.548387 22.606452 
L 87.772043 22.828387 
L 87.995699 22.828387 
L 88.331183 23.124301 
L 89.673118 23.124301 
L 89.896774 23.272258 
L 91.015054 23.346237 
L 91.350538 23.642151 
L 91.462366 23.642151 
L 91.909677 24.086022 
L 94.034409 24.086022 
L 94.258065 24.233978 
L 94.369892 24.233978 
L 94.593548 24.381935 
L 94.929032 24.381935 
L 95.152688 24.529892 
L 96.15914 25.12172 
L 96.382796 25.12172 
L 96.606452 25.269677 
L 97.612903 25.343656 
L 97.836559 25.491613 
L 97.948387 25.491613 
L 98.172043 25.63957 
L 98.507527 25.63957 
L 98.731183 25.787527 
L 99.290323 25.787527 
L 99.625806 26.083441 
L 99.737634 26.157419 
L 100.073118 26.60129 
L 100.184946 26.60129 
L 100.408602 26.749247 
L 100.52043 26.749247 
L 100.744086 26.971183 
L 101.07957 26.971183 
L 101.303226 27.11914 
L 101.63871 27.193118 
L 101.862366 27.341075 
L 102.086022 27.341075 
L 102.086022 27.341075 
" clip-path="url(#p9e75c53dee)" style="fill: none; stroke: #39c5bb; stroke-width: 1.8; stroke-linecap: square"/>
   </g>
   <g id="line2d_33">
    <path d="M 54.111828 17.353978 
L 54.447312 17.353978 
L 54.670968 17.797849 
L 55.341935 17.871828 
L 55.453763 17.945806 
L 55.677419 18.389677 
L 56.572043 18.463656 
L 56.795699 19.277419 
L 57.019355 19.351398 
L 57.131183 19.351398 
L 57.354839 19.573333 
L 57.913978 19.573333 
L 58.137634 19.72129 
L 58.249462 19.795269 
L 58.584946 20.609032 
L 58.696774 20.609032 
L 58.92043 20.904946 
L 59.926882 20.904946 
L 60.150538 21.348817 
L 60.374194 21.422796 
L 63.952688 21.496774 
L 64.176344 21.71871 
L 66.301075 21.792688 
L 66.524731 22.014624 
L 66.860215 22.088602 
L 67.083871 22.458495 
L 67.531183 22.532473 
L 67.643011 22.606452 
L 67.866667 22.828387 
L 68.313978 22.828387 
L 68.537634 23.050323 
L 68.873118 23.050323 
L 69.096774 23.494194 
L 69.767742 23.494194 
L 69.991398 23.716129 
L 70.215054 23.716129 
L 70.43871 24.012043 
L 70.774194 24.012043 
L 71.445161 24.825806 
L 71.668817 24.825806 
L 71.892473 25.047742 
L 72.451613 25.12172 
L 72.675269 25.195699 
L 73.122581 25.195699 
L 73.346237 25.491613 
L 73.458065 25.491613 
L 73.793548 25.861505 
L 74.352688 25.861505 
L 75.35914 27.636989 
L 75.694624 28.006882 
L 76.477419 28.08086 
L 76.589247 28.302796 
L 76.812903 28.820645 
L 76.924731 28.820645 
L 77.260215 29.264516 
L 78.154839 29.264516 
L 78.602151 30.300215 
L 78.713978 30.300215 
L 78.937634 30.892043 
L 79.273118 30.892043 
L 79.496774 31.04 
L 79.72043 31.04 
L 79.944086 31.409892 
L 80.27957 31.409892 
L 80.503226 31.631828 
L 80.726882 31.631828 
L 80.950538 31.853763 
L 81.509677 32.149677 
L 81.621505 32.149677 
L 81.845161 32.593548 
L 81.956989 32.593548 
L 82.180645 32.963441 
L 82.516129 32.963441 
L 82.851613 33.777204 
L 82.963441 33.925161 
L 83.187097 34.295054 
L 83.522581 34.295054 
L 83.746237 34.443011 
L 83.858065 34.443011 
L 84.193548 35.330753 
L 85.088172 35.330753 
L 85.423656 35.626667 
L 85.535484 35.626667 
L 85.75914 36.144516 
L 86.653763 36.144516 
L 86.877419 36.588387 
L 87.548387 36.588387 
L 87.772043 36.884301 
L 87.995699 36.884301 
L 88.443011 37.550108 
L 88.778495 37.846022 
L 89.337634 37.846022 
L 89.56129 38.437849 
L 90.008602 40.657204 
L 90.12043 40.805161 
L 90.455914 42.580645 
L 90.567742 42.654624 
L 90.791398 43.394409 
L 91.015054 44.060215 
L 91.350538 44.504086 
L 91.462366 44.652043 
L 91.797849 45.983656 
L 92.245161 46.427527 
L 92.356989 46.427527 
L 92.580645 46.945376 
L 92.692473 46.945376 
L 93.363441 49.978495 
L 93.587097 49.978495 
L 93.922581 51.310108 
L 94.034409 51.310108 
L 94.258065 52.049892 
L 94.705376 52.493763 
L 95.376344 55.156989 
L 95.935484 55.526882 
L 96.382796 57.08043 
L 96.494624 57.08043 
L 96.606452 57.228387 
L 97.053763 58.707957 
L 97.277419 58.781935 
L 97.724731 60.409462 
L 97.836559 60.557419 
L 98.060215 61.075269 
L 98.172043 61.075269 
L 98.395699 61.815054 
L 98.507527 61.815054 
L 98.731183 62.48086 
L 98.954839 63.146667 
L 99.178495 63.96043 
L 99.290323 63.96043 
L 99.625806 64.47828 
L 100.073118 64.774194 
L 100.408602 65.366022 
L 100.52043 65.366022 
L 100.744086 65.661935 
L 101.07957 66.697634 
L 101.303226 66.993548 
L 101.526882 67.437419 
L 101.750538 67.955269 
L 101.862366 68.103226 
L 102.197849 69.212903 
L 102.309677 69.212903 
L 102.421505 69.36086 
L 102.756989 70.470538 
L 102.756989 70.470538 
" clip-path="url(#p9e75c53dee)" style="fill: none; stroke: #2a9d8f; stroke-width: 1.8; stroke-linecap: square"/>
   </g>
   <g id="line2d_34">
    <path d="M 54.111828 17.649892 
L 54.447312 17.797849 
L 54.782796 17.797849 
L 55.006452 18.315699 
L 55.565591 18.389677 
L 55.789247 18.537634 
L 56.460215 18.611613 
L 56.795699 18.75957 
L 57.131183 18.75957 
L 57.354839 19.573333 
L 57.466667 19.573333 
L 57.690323 19.72129 
L 57.913978 19.72129 
L 58.137634 19.869247 
L 58.36129 19.943226 
L 58.696774 20.756989 
L 58.808602 20.756989 
L 59.032258 21.052903 
L 59.926882 21.052903 
L 60.150538 21.570753 
L 65.406452 21.644731 
L 65.630108 21.71871 
L 66.301075 21.71871 
L 66.524731 21.940645 
L 66.860215 22.014624 
L 67.083871 22.384516 
L 67.643011 22.458495 
L 67.754839 22.532473 
L 67.978495 22.754409 
L 68.313978 22.754409 
L 68.537634 22.976344 
L 68.873118 22.976344 
L 69.096774 23.420215 
L 69.767742 23.420215 
L 69.991398 23.642151 
L 70.215054 23.716129 
L 70.326882 23.716129 
L 70.550538 24.012043 
L 70.997849 24.012043 
L 71.221505 24.307957 
L 71.445161 24.307957 
L 71.668817 24.529892 
L 72.787097 24.603871 
L 73.122581 25.269677 
L 73.68172 25.565591 
L 73.905376 25.565591 
L 74.129032 25.787527 
L 74.24086 25.787527 
L 74.464516 26.527312 
L 74.911828 27.341075 
L 75.023656 27.341075 
L 75.247312 27.710968 
L 75.35914 27.710968 
L 75.582796 27.932903 
L 76.141935 28.006882 
L 76.701075 28.968602 
L 76.812903 28.968602 
L 77.148387 29.412473 
L 78.266667 29.412473 
L 78.937634 30.892043 
L 79.384946 30.892043 
L 79.608602 31.04 
L 79.72043 31.04 
L 79.944086 31.409892 
L 80.27957 31.409892 
L 80.503226 31.631828 
L 80.726882 31.631828 
L 80.950538 31.853763 
L 81.174194 31.927742 
L 81.621505 31.927742 
L 81.845161 32.223656 
L 81.956989 32.223656 
L 82.180645 32.593548 
L 82.516129 32.593548 
L 82.851613 33.407312 
L 82.963441 33.555269 
L 83.187097 33.925161 
L 83.522581 33.925161 
L 83.969892 34.590968 
L 84.193548 34.96086 
L 84.864516 34.96086 
L 85.311828 35.47871 
L 85.535484 35.996559 
L 86.430108 35.996559 
L 86.653763 36.44043 
L 87.324731 36.44043 
L 87.548387 36.736344 
L 87.772043 36.736344 
L 88.219355 37.402151 
L 88.554839 37.698065 
L 89.002151 37.698065 
L 89.449462 38.511828 
L 90.12043 42.210753 
L 90.344086 42.654624 
L 90.455914 42.728602 
L 90.791398 44.356129 
L 91.015054 44.430108 
L 91.126882 44.430108 
L 91.350538 44.8 
L 91.686022 46.131613 
L 92.133333 46.575484 
L 92.245161 46.575484 
L 92.468817 46.871398 
L 92.804301 47.685161 
L 93.363441 50.126452 
L 93.587097 50.274409 
L 93.922581 51.606022 
L 94.146237 51.606022 
L 94.48172 51.901935 
L 94.705376 52.715699 
L 94.817204 52.863656 
L 95.488172 55.526882 
L 96.047312 55.896774 
L 96.494624 57.450323 
L 96.606452 57.450323 
L 96.71828 57.59828 
L 97.165591 59.077849 
L 97.389247 59.151828 
L 97.836559 61.00129 
L 98.172043 61.297204 
L 98.395699 61.297204 
L 98.619355 62.036989 
L 98.731183 62.036989 
L 99.178495 63.590538 
L 99.402151 63.96043 
L 99.849462 64.626237 
L 99.96129 64.626237 
L 100.855914 65.735914 
L 101.191398 66.771613 
L 101.303226 66.845591 
L 101.526882 67.289462 
L 101.63871 67.437419 
L 101.974194 68.39914 
L 102.086022 68.39914 
L 102.309677 68.843011 
L 102.421505 68.990968 
L 102.756989 70.100645 
L 102.756989 70.100645 
" clip-path="url(#p9e75c53dee)" style="fill: none; stroke: #e76f51; stroke-width: 1.8; stroke-linecap: square"/>
   </g>
   <g id="patch_3">
    <path d="M 54 388.8 
L 54 17.28 
" style="fill: none; stroke: #000000; stroke-width: 0.8; stroke-linejoin: miter; stroke-linecap: square"/>
   </g>
   <g id="patch_4">
    <path d="M 334.8 388.8 
L 334.8 17.28 
" style="fill: none; stroke: #000000; stroke-width: 0.8; stroke-linejoin: miter; stroke-linecap: square"/>
   </g>
   <g id="patch_5">
    <path d="M 54 388.8 
L 334.8 388.8 
" style="fill: none; stroke: #000000; stroke-width: 0.8; stroke-linejoin: miter; stroke-linecap: square"/>
   </g>
   <g id="patch_6">
    <path d="M 54 17.28 
L 334.8 17.28 
" style="fill: none; stroke: #000000; stroke-width: 0.8; stroke-linejoin: miter; stroke-linecap: square"/>
   </g>
   <g id="legend_1">
    <g id="patch_7">
     <path d="M 241.51125 132.5625 
L 326.4 132.5625 
Q 328.8 132.5625 328.8 130.1625 
L 328.8 25.68 
Q 328.8 23.28 326.4 23.28 
L 241.51125 23.28 
Q 239.11125 23.28 239.11125 25.68 
L 239.11125 130.1625 
Q 239.11125 132.5625 241.51125 132.5625 
z
" style="fill: #ffffff; opacity: 0.8; stroke: #cccccc; stroke-linejoin: miter"/>
    </g>
    <g id="line2d_35">
     <path d="M 243.91125 32.998125 
L 255.91125 32.998125 
L 267.91125 32.998125 
" style="fill: none; stroke: #d80000; stroke-width: 1.8; stroke-linecap: square"/>
    </g>
    <g id="text_17">
     <!-- None -->
     <g transform="translate(277.51125 37.198125) scale(0.12 -0.12)">
      <defs>
       <path id="DejaVuSans-4e" d="M 628 4666 
L 1478 4666 
L 3547 763 
L 3547 4666 
L 4159 4666 
L 4159 0 
L 3309 0 
L 1241 3903 
L 1241 0 
L 628 0 
L 628 4666 
z
" transform="scale(0.015625)"/>
       <path id="DejaVuSans-6e" d="M 3513 2113 
L 3513 0 
L 2938 0 
L 2938 2094 
Q 2938 2591 2744 2837 
Q 2550 3084 2163 3084 
Q 1697 3084 1428 2787 
Q 1159 2491 1159 1978 
L 1159 0 
L 581 0 
L 581 3500 
L 1159 3500 
L 1159 2956 
Q 1366 3272 1645 3428 
Q 1925 3584 2291 3584 
Q 2894 3584 3203 3211 
Q 3513 2838 3513 2113 
z
" transform="scale(0.015625)"/>
      </defs>
      <use xlink:href="#DejaVuSans-4e"/>
      <use xlink:href="#DejaVuSans-6f" x="74.804688"/>
      <use xlink:href="#DejaVuSans-6e" x="135.986328"/>
      <use xlink:href="#DejaVuSans-65" x="199.365234"/>
     </g>
    </g>
    <g id="line2d_36">
     <path d="M 243.91125 50.611875 
L 255.91125 50.611875 
L 267.91125 50.611875 
" style="fill: none; stroke: #264653; stroke-width: 1.8; stroke-linecap: square"/>
    </g>
    <g id="text_18">
     <!-- HD -->
     <g transform="translate(277.51125 54.811875) scale(0.12 -0.12)">
      <defs>
       <path id="DejaVuSans-48" d="M 628 4666 
L 1259 4666 
L 1259 2753 
L 3553 2753 
L 3553 4666 
L 4184 4666 
L 4184 0 
L 3553 0 
L 3553 2222 
L 1259 2222 
L 1259 0 
L 628 0 
L 628 4666 
z
" transform="scale(0.015625)"/>
       <path id="DejaVuSans-44" d="M 1259 4147 
L 1259 519 
L 2022 519 
Q 2988 519 3436 956 
Q 3884 1394 3884 2338 
Q 3884 3275 3436 3711 
Q 2988 4147 2022 4147 
L 1259 4147 
z
M 628 4666 
L 1925 4666 
Q 3281 4666 3915 4102 
Q 4550 3538 4550 2338 
Q 4550 1131 3912 565 
Q 3275 0 1925 0 
L 628 0 
L 628 4666 
z
" transform="scale(0.015625)"/>
      </defs>
      <use xlink:href="#DejaVuSans-48"/>
      <use xlink:href="#DejaVuSans-44" x="75.195312"/>
     </g>
    </g>
    <g id="line2d_37">
     <path d="M 243.91125 68.225625 
L 255.91125 68.225625 
L 267.91125 68.225625 
" style="fill: none; stroke: #ffe211; stroke-width: 1.8; stroke-linecap: square"/>
    </g>
    <g id="text_19">
     <!-- GND -->
     <g transform="translate(277.51125 72.425625) scale(0.12 -0.12)">
      <use xlink:href="#DejaVuSans-47"/>
      <use xlink:href="#DejaVuSans-4e" x="77.490234"/>
      <use xlink:href="#DejaVuSans-44" x="152.294922"/>
     </g>
    </g>
    <g id="line2d_38">
     <path d="M 243.91125 85.839375 
L 255.91125 85.839375 
L 267.91125 85.839375 
" style="fill: none; stroke: #39c5bb; stroke-width: 1.8; stroke-linecap: square"/>
    </g>
    <g id="text_20">
     <!-- BT -->
     <g transform="translate(277.51125 90.039375) scale(0.12 -0.12)">
      <defs>
       <path id="DejaVuSans-42" d="M 1259 2228 
L 1259 519 
L 2272 519 
Q 2781 519 3026 730 
Q 3272 941 3272 1375 
Q 3272 1813 3026 2020 
Q 2781 2228 2272 2228 
L 1259 2228 
z
M 1259 4147 
L 1259 2741 
L 2194 2741 
Q 2656 2741 2882 2914 
Q 3109 3088 3109 3444 
Q 3109 3797 2882 3972 
Q 2656 4147 2194 4147 
L 1259 4147 
z
M 628 4666 
L 2241 4666 
Q 2963 4666 3353 4366 
Q 3744 4066 3744 3513 
Q 3744 3084 3544 2831 
Q 3344 2578 2956 2516 
Q 3422 2416 3680 2098 
Q 3938 1781 3938 1306 
Q 3938 681 3513 340 
Q 3088 0 2303 0 
L 628 0 
L 628 4666 
z
" transform="scale(0.015625)"/>
       <path id="DejaVuSans-54" d="M -19 4666 
L 3928 4666 
L 3928 4134 
L 2272 4134 
L 2272 0 
L 1638 0 
L 1638 4134 
L -19 4134 
L -19 4666 
z
" transform="scale(0.015625)"/>
      </defs>
      <use xlink:href="#DejaVuSans-42"/>
      <use xlink:href="#DejaVuSans-54" x="68.603516"/>
     </g>
    </g>
    <g id="line2d_39">
     <path d="M 243.91125 103.453125 
L 255.91125 103.453125 
L 267.91125 103.453125 
" style="fill: none; stroke: #2a9d8f; stroke-width: 1.8; stroke-linecap: square"/>
    </g>
    <g id="text_21">
     <!-- DSTS-K -->
     <g transform="translate(277.51125 107.653125) scale(0.12 -0.12)">
      <defs>
       <path id="DejaVuSans-2d" d="M 313 2009 
L 1997 2009 
L 1997 1497 
L 313 1497 
L 313 2009 
z
" transform="scale(0.015625)"/>
       <path id="DejaVuSans-4b" d="M 628 4666 
L 1259 4666 
L 1259 2694 
L 3353 4666 
L 4166 4666 
L 1850 2491 
L 4331 0 
L 3500 0 
L 1259 2247 
L 1259 0 
L 628 0 
L 628 4666 
z
" transform="scale(0.015625)"/>
      </defs>
      <use xlink:href="#DejaVuSans-44"/>
      <use xlink:href="#DejaVuSans-53" x="77.001953"/>
      <use xlink:href="#DejaVuSans-54" x="140.478516"/>
      <use xlink:href="#DejaVuSans-53" x="201.5625"/>
      <use xlink:href="#DejaVuSans-2d" x="265.039062"/>
      <use xlink:href="#DejaVuSans-4b" x="301.123047"/>
     </g>
    </g>
    <g id="line2d_40">
     <path d="M 243.91125 121.066875 
L 255.91125 121.066875 
L 267.91125 121.066875 
" style="fill: none; stroke: #e76f51; stroke-width: 1.8; stroke-linecap: square"/>
    </g>
    <g id="text_22">
     <!-- DSTS-M -->
     <g transform="translate(277.51125 125.266875) scale(0.12 -0.12)">
      <defs>
       <path id="DejaVuSans-4d" d="M 628 4666 
L 1569 4666 
L 2759 1491 
L 3956 4666 
L 4897 4666 
L 4897 0 
L 4281 0 
L 4281 4097 
L 3078 897 
L 2444 897 
L 1241 4097 
L 1241 0 
L 628 0 
L 628 4666 
z
" transform="scale(0.015625)"/>
      </defs>
      <use xlink:href="#DejaVuSans-44"/>
      <use xlink:href="#DejaVuSans-53" x="77.001953"/>
      <use xlink:href="#DejaVuSans-54" x="140.478516"/>
      <use xlink:href="#DejaVuSans-53" x="201.5625"/>
      <use xlink:href="#DejaVuSans-2d" x="265.039062"/>
      <use xlink:href="#DejaVuSans-4d" x="301.123047"/>
     </g>
    </g>
   </g>
  </g>
 </g>
 <defs>
  <clipPath id="p9e75c53dee">
   <rect x="54" y="17.28" width="280.8" height="371.52"/>
  </clipPath>
 </defs>
</svg>
