<?xml version="1.0" encoding="utf-8" standalone="no"?>
<!DOCTYPE svg PUBLIC "-//W3C//DTD SVG 1.1//EN"
  "http://www.w3.org/Graphics/SVG/1.1/DTD/svg11.dtd">
<svg xmlns:xlink="http://www.w3.org/1999/xlink" width="360pt" height="432pt" viewBox="0 0 360 432" xmlns="http://www.w3.org/2000/svg" version="1.1">
 <metadata>
  <rdf:RDF xmlns:dc="http://purl.org/dc/elements/1.1/" xmlns:cc="http://creativecommons.org/ns#" xmlns:rdf="http://www.w3.org/1999/02/22-rdf-syntax-ns#">
   <cc:Work>
    <dc:type rdf:resource="http://purl.org/dc/dcmitype/StillImage"/>
    <dc:date>2026-04-01T15:26:11.930050</dc:date>
    <dc:format>image/svg+xml</dc:format>
    <dc:creator>
     <cc:Agent>
      <dc:title>Matplotlib v3.6.3, https://matplotlib.org/</dc:title>
     </cc:Agent>
    </dc:creator>
   </cc:Work>
  </rdf:RDF>
 </metadata>
 <defs>
  <style type="text/css">*{stroke-linejoin: round; stroke-linecap: butt}</style>
 </defs>
 <g id="figure_1">
  <g id="patch_1">
   <path d="M 0 432 
L 360 432 
L 360 0 
L 0 0 
z
" style="fill: #ffffff"/>
  </g>
  <g id="axes_1">
   <g id="patch_2">
    <path d="M 54 388.8 
L 334.8 388.8 
L 334.8 17.28 
L 54 17.28 
z
" style="fill: #ffffff"/>
   </g>
   <g id="matplotlib.axis_1">
    <g id="xtick_1">
     <g id="line2d_1">
      <path d="M 54 388.8 
L 54 17.28 
" clip-path="url(#pa0c4bab577)" style="fill: none; stroke: #000000; stroke-opacity: 0.1; stroke-width: 0.7; stroke-linecap: square"/>
     </g>
     <g id="line2d_2">
      <defs>
       <path id="mea968ab6a0" d="M 0 0 
L 0 3.5 
" style="stroke: #000000; stroke-width: 0.8"/>
      </defs>
      <g>
       <use xlink:href="#mea968ab6a0" x="54" y="388.8" style="stroke: #000000; stroke-width: 0.8"/>
      </g>
     </g>
     <g id="text_1">
      <!-- 0.00 -->
      <g transform="translate(39.527344 405.677969) scale(0.13 -0.13)">
       <defs>
        <path id="DejaVuSans-30" d="M 2034 4250 
Q 1547 4250 1301 3770 
Q 1056 3291 1056 2328 
Q 1056 1369 1301 889 
Q 1547 409 2034 409 
Q 2525 409 2770 889 
Q 3016 1369 3016 2328 
Q 3016 3291 2770 3770 
Q 2525 4250 2034 4250 
z
M 2034 4750 
Q 2819 4750 3233 4129 
Q 3647 3509 3647 2328 
Q 3647 1150 3233 529 
Q 2819 -91 2034 -91 
Q 1250 -91 836 529 
Q 422 1150 422 2328 
Q 422 3509 836 4129 
Q 1250 4750 2034 4750 
z
" transform="scale(0.015625)"/>
        <path id="DejaVuSans-2e" d="M 684 794 
L 1344 794 
L 1344 0 
L 684 0 
L 684 794 
z
" transform="scale(0.015625)"/>
       </defs>
       <use xlink:href="#DejaVuSans-30"/>
       <use xlink:href="#DejaVuSans-2e" x="63.623047"/>
       <use xlink:href="#DejaVuSans-30" x="95.410156"/>
       <use xlink:href="#DejaVuSans-30" x="159.033203"/>
      </g>
     </g>
    </g>
    <g id="xtick_2">
     <g id="line2d_3">
      <path d="M 194.4 388.8 
L 194.4 17.28 
" clip-path="url(#pa0c4bab577)" style="fill: none; stroke: #000000; stroke-opacity: 0.1; stroke-width: 0.7; stroke-linecap: square"/>
     </g>
     <g id="line2d_4">
      <g>
       <use xlink:href="#mea968ab6a0" x="194.4" y="388.8" style="stroke: #000000; stroke-width: 0.8"/>
      </g>
     </g>
     <g id="text_2">
      <!-- 0.25 -->
      <g transform="translate(179.927344 405.677969) scale(0.13 -0.13)">
       <defs>
        <path id="DejaVuSans-32" d="M 1228 531 
L 3431 531 
L 3431 0 
L 469 0 
L 469 531 
Q 828 903 1448 1529 
Q 2069 2156 2228 2338 
Q 2531 2678 2651 2914 
Q 2772 3150 2772 3378 
Q 2772 3750 2511 3984 
Q 2250 4219 1831 4219 
Q 1534 4219 1204 4116 
Q 875 4013 500 3803 
L 500 4441 
Q 881 4594 1212 4672 
Q 1544 4750 1819 4750 
Q 2544 4750 2975 4387 
Q 3406 4025 3406 3419 
Q 3406 3131 3298 2873 
Q 3191 2616 2906 2266 
Q 2828 2175 2409 1742 
Q 1991 1309 1228 531 
z
" transform="scale(0.015625)"/>
        <path id="DejaVuSans-35" d="M 691 4666 
L 3169 4666 
L 3169 4134 
L 1269 4134 
L 1269 2991 
Q 1406 3038 1543 3061 
Q 1681 3084 1819 3084 
Q 2600 3084 3056 2656 
Q 3513 2228 3513 1497 
Q 3513 744 3044 326 
Q 2575 -91 1722 -91 
Q 1428 -91 1123 -41 
Q 819 9 494 109 
L 494 744 
Q 775 591 1075 516 
Q 1375 441 1709 441 
Q 2250 441 2565 725 
Q 2881 1009 2881 1497 
Q 2881 1984 2565 2268 
Q 2250 2553 1709 2553 
Q 1456 2553 1204 2497 
Q 953 2441 691 2322 
L 691 4666 
z
" transform="scale(0.015625)"/>
       </defs>
       <use xlink:href="#DejaVuSans-30"/>
       <use xlink:href="#DejaVuSans-2e" x="63.623047"/>
       <use xlink:href="#DejaVuSans-32" x="95.410156"/>
       <use xlink:href="#DejaVuSans-35" x="159.033203"/>
      </g>
     </g>
    </g>
    <g id="xtick_3">
     <g id="line2d_5">
      <path d="M 334.8 388.8 
L 334.8 17.28 
" clip-path="url(#pa0c4bab577)" style="fill: none; stroke: #000000; stroke-opacity: 0.1; stroke-width: 0.7; stroke-linecap: square"/>
     </g>
     <g id="line2d_6">
      <g>
       <use xlink:href="#mea968ab6a0" x="334.8" y="388.8" style="stroke: #000000; stroke-width: 0.8"/>
      </g>
     </g>
     <g id="text_3">
      <!-- 0.50 -->
      <g transform="translate(320.327344 405.677969) scale(0.13 -0.13)">
       <use xlink:href="#DejaVuSans-30"/>
       <use xlink:href="#DejaVuSans-2e" x="63.623047"/>
       <use xlink:href="#DejaVuSans-35" x="95.410156"/>
       <use xlink:href="#DejaVuSans-30" x="159.033203"/>
      </g>
     </g>
    </g>
    <g id="text_4">
     <!-- Attack Ratio -->
     <g transform="translate(145.78375 424.539062) scale(0.16 -0.16)">
      <defs>
       <path id="DejaVuSans-41" d="M 2188 4044 
L 1331 1722 
L 3047 1722 
L 2188 4044 
z
M 1831 4666 
L 2547 4666 
L 4325 0 
L 3669 0 
L 3244 1197 
L 1141 1197 
L 716 0 
L 50 0 
L 1831 4666 
z
" transform="scale(0.015625)"/>
       <path id="DejaVuSans-74" d="M 1172 4494 
L 1172 3500 
L 2356 3500 
L 2356 3053 
L 1172 3053 
L 1172 1153 
Q 1172 725 1289 603 
Q 1406 481 1766 481 
L 2356 481 
L 2356 0 
L 1766 0 
Q 1100 0 847 248 
Q 594 497 594 1153 
L 594 3053 
L 172 3053 
L 172 3500 
L 594 3500 
L 594 4494 
L 1172 4494 
z
" transform="scale(0.015625)"/>
       <path id="DejaVuSans-61" d="M 2194 1759 
Q 1497 1759 1228 1600 
Q 959 1441 959 1056 
Q 959 750 1161 570 
Q 1363 391 1709 391 
Q 2188 391 2477 730 
Q 2766 1069 2766 1631 
L 2766 1759 
L 2194 1759 
z
M 3341 1997 
L 3341 0 
L 2766 0 
L 2766 531 
Q 2569 213 2275 61 
Q 1981 -91 1556 -91 
Q 1019 -91 701 211 
Q 384 513 384 1019 
Q 384 1609 779 1909 
Q 1175 2209 1959 2209 
L 2766 2209 
L 2766 2266 
Q 2766 2663 2505 2880 
Q 2244 3097 1772 3097 
Q 1472 3097 1187 3025 
Q 903 2953 641 2809 
L 641 3341 
Q 956 3463 1253 3523 
Q 1550 3584 1831 3584 
Q 2591 3584 2966 3190 
Q 3341 2797 3341 1997 
z
" transform="scale(0.015625)"/>
       <path id="DejaVuSans-63" d="M 3122 3366 
L 3122 2828 
Q 2878 2963 2633 3030 
Q 2388 3097 2138 3097 
Q 1578 3097 1268 2742 
Q 959 2388 959 1747 
Q 959 1106 1268 751 
Q 1578 397 2138 397 
Q 2388 397 2633 464 
Q 2878 531 3122 666 
L 3122 134 
Q 2881 22 2623 -34 
Q 2366 -91 2075 -91 
Q 1284 -91 818 406 
Q 353 903 353 1747 
Q 353 2603 823 3093 
Q 1294 3584 2113 3584 
Q 2378 3584 2631 3529 
Q 2884 3475 3122 3366 
z
" transform="scale(0.015625)"/>
       <path id="DejaVuSans-6b" d="M 581 4863 
L 1159 4863 
L 1159 1991 
L 2875 3500 
L 3609 3500 
L 1753 1863 
L 3688 0 
L 2938 0 
L 1159 1709 
L 1159 0 
L 581 0 
L 581 4863 
z
" transform="scale(0.015625)"/>
       <path id="DejaVuSans-20" transform="scale(0.015625)"/>
       <path id="DejaVuSans-52" d="M 2841 2188 
Q 3044 2119 3236 1894 
Q 3428 1669 3622 1275 
L 4263 0 
L 3584 0 
L 2988 1197 
Q 2756 1666 2539 1819 
Q 2322 1972 1947 1972 
L 1259 1972 
L 1259 0 
L 628 0 
L 628 4666 
L 2053 4666 
Q 2853 4666 3247 4331 
Q 3641 3997 3641 3322 
Q 3641 2881 3436 2590 
Q 3231 2300 2841 2188 
z
M 1259 4147 
L 1259 2491 
L 2053 2491 
Q 2509 2491 2742 2702 
Q 2975 2913 2975 3322 
Q 2975 3731 2742 3939 
Q 2509 4147 2053 4147 
L 1259 4147 
z
" transform="scale(0.015625)"/>
       <path id="DejaVuSans-69" d="M 603 3500 
L 1178 3500 
L 1178 0 
L 603 0 
L 603 3500 
z
M 603 4863 
L 1178 4863 
L 1178 4134 
L 603 4134 
L 603 4863 
z
" transform="scale(0.015625)"/>
       <path id="DejaVuSans-6f" d="M 1959 3097 
Q 1497 3097 1228 2736 
Q 959 2375 959 1747 
Q 959 1119 1226 758 
Q 1494 397 1959 397 
Q 2419 397 2687 759 
Q 2956 1122 2956 1747 
Q 2956 2369 2687 2733 
Q 2419 3097 1959 3097 
z
M 1959 3584 
Q 2709 3584 3137 3096 
Q 3566 2609 3566 1747 
Q 3566 888 3137 398 
Q 2709 -91 1959 -91 
Q 1206 -91 779 398 
Q 353 888 353 1747 
Q 353 2609 779 3096 
Q 1206 3584 1959 3584 
z
" transform="scale(0.015625)"/>
      </defs>
      <use xlink:href="#DejaVuSans-41"/>
      <use xlink:href="#DejaVuSans-74" x="66.658203"/>
      <use xlink:href="#DejaVuSans-74" x="105.867188"/>
      <use xlink:href="#DejaVuSans-61" x="145.076172"/>
      <use xlink:href="#DejaVuSans-63" x="206.355469"/>
      <use xlink:href="#DejaVuSans-6b" x="261.335938"/>
      <use xlink:href="#DejaVuSans-20" x="319.246094"/>
      <use xlink:href="#DejaVuSans-52" x="351.033203"/>
      <use xlink:href="#DejaVuSans-61" x="418.265625"/>
      <use xlink:href="#DejaVuSans-74" x="479.544922"/>
      <use xlink:href="#DejaVuSans-69" x="518.753906"/>
      <use xlink:href="#DejaVuSans-6f" x="546.537109"/>
     </g>
    </g>
   </g>
   <g id="matplotlib.axis_2">
    <g id="ytick_1">
     <g id="line2d_7">
      <path d="M 54 388.8 
L 334.8 388.8 
" clip-path="url(#pa0c4bab577)" style="fill: none; stroke: #000000; stroke-opacity: 0.1; stroke-width: 0.7; stroke-linecap: square"/>
     </g>
     <g id="line2d_8">
      <defs>
       <path id="m5a3321a9ee" d="M 0 0 
L -3.5 0 
" style="stroke: #000000; stroke-width: 0.8"/>
      </defs>
      <g>
       <use xlink:href="#m5a3321a9ee" x="54" y="388.8" style="stroke: #000000; stroke-width: 0.8"/>
      </g>
     </g>
     <g id="text_5">
      <!-- 0.0 -->
      <g transform="translate(26.325937 393.738984) scale(0.13 -0.13)">
       <use xlink:href="#DejaVuSans-30"/>
       <use xlink:href="#DejaVuSans-2e" x="63.623047"/>
       <use xlink:href="#DejaVuSans-30" x="95.410156"/>
      </g>
     </g>
    </g>
    <g id="ytick_2">
     <g id="line2d_9">
      <path d="M 54 351.648 
L 334.8 351.648 
" clip-path="url(#pa0c4bab577)" style="fill: none; stroke: #000000; stroke-opacity: 0.1; stroke-width: 0.7; stroke-linecap: square"/>
     </g>
     <g id="line2d_10">
      <g>
       <use xlink:href="#m5a3321a9ee" x="54" y="351.648" style="stroke: #000000; stroke-width: 0.8"/>
      </g>
     </g>
     <g id="text_6">
      <!-- 0.1 -->
      <g transform="translate(26.325937 356.586984) scale(0.13 -0.13)">
       <defs>
        <path id="DejaVuSans-31" d="M 794 531 
L 1825 531 
L 1825 4091 
L 703 3866 
L 703 4441 
L 1819 4666 
L 2450 4666 
L 2450 531 
L 3481 531 
L 3481 0 
L 794 0 
L 794 531 
z
" transform="scale(0.015625)"/>
       </defs>
       <use xlink:href="#DejaVuSans-30"/>
       <use xlink:href="#DejaVuSans-2e" x="63.623047"/>
       <use xlink:href="#DejaVuSans-31" x="95.410156"/>
      </g>
     </g>
    </g>
    <g id="ytick_3">
     <g id="line2d_11">
      <path d="M 54 314.496 
L 334.8 314.496 
" clip-path="url(#pa0c4bab577)" style="fill: none; stroke: #000000; stroke-opacity: 0.1; stroke-width: 0.7; stroke-linecap: square"/>
     </g>
     <g id="line2d_12">
      <g>
       <use xlink:href="#m5a3321a9ee" x="54" y="314.496" style="stroke: #000000; stroke-width: 0.8"/>
      </g>
     </g>
     <g id="text_7">
      <!-- 0.2 -->
      <g transform="translate(26.325937 319.434984) scale(0.13 -0.13)">
       <use xlink:href="#DejaVuSans-30"/>
       <use xlink:href="#DejaVuSans-2e" x="63.623047"/>
       <use xlink:href="#DejaVuSans-32" x="95.410156"/>
      </g>
     </g>
    </g>
    <g id="ytick_4">
     <g id="line2d_13">
      <path d="M 54 277.344 
L 334.8 277.344 
" clip-path="url(#pa0c4bab577)" style="fill: none; stroke: #000000; stroke-opacity: 0.1; stroke-width: 0.7; stroke-linecap: square"/>
     </g>
     <g id="line2d_14">
      <g>
       <use xlink:href="#m5a3321a9ee" x="54" y="277.344" style="stroke: #000000; stroke-width: 0.8"/>
      </g>
     </g>
     <g id="text_8">
      <!-- 0.3 -->
      <g transform="translate(26.325937 282.282984) scale(0.13 -0.13)">
       <defs>
        <path id="DejaVuSans-33" d="M 2597 2516 
Q 3050 2419 3304 2112 
Q 3559 1806 3559 1356 
Q 3559 666 3084 287 
Q 2609 -91 1734 -91 
Q 1441 -91 1130 -33 
Q 819 25 488 141 
L 488 750 
Q 750 597 1062 519 
Q 1375 441 1716 441 
Q 2309 441 2620 675 
Q 2931 909 2931 1356 
Q 2931 1769 2642 2001 
Q 2353 2234 1838 2234 
L 1294 2234 
L 1294 2753 
L 1863 2753 
Q 2328 2753 2575 2939 
Q 2822 3125 2822 3475 
Q 2822 3834 2567 4026 
Q 2313 4219 1838 4219 
Q 1578 4219 1281 4162 
Q 984 4106 628 3988 
L 628 4550 
Q 988 4650 1302 4700 
Q 1616 4750 1894 4750 
Q 2613 4750 3031 4423 
Q 3450 4097 3450 3541 
Q 3450 3153 3228 2886 
Q 3006 2619 2597 2516 
z
" transform="scale(0.015625)"/>
       </defs>
       <use xlink:href="#DejaVuSans-30"/>
       <use xlink:href="#DejaVuSans-2e" x="63.623047"/>
       <use xlink:href="#DejaVuSans-33" x="95.410156"/>
      </g>
     </g>
    </g>
    <g id="ytick_5">
     <g id="line2d_15">
      <path d="M 54 240.192 
L 334.8 240.192 
" clip-path="url(#pa0c4bab577)" style="fill: none; stroke: #000000; stroke-opacity: 0.1; stroke-width: 0.7; stroke-linecap: square"/>
     </g>
     <g id="line2d_16">
      <g>
       <use xlink:href="#m5a3321a9ee" x="54" y="240.192" style="stroke: #000000; stroke-width: 0.8"/>
      </g>
     </g>
     <g id="text_9">
      <!-- 0.4 -->
      <g transform="translate(26.325937 245.130984) scale(0.13 -0.13)">
       <defs>
        <path id="DejaVuSans-34" d="M 2419 4116 
L 825 1625 
L 2419 1625 
L 2419 4116 
z
M 2253 4666 
L 3047 4666 
L 3047 1625 
L 3713 1625 
L 3713 1100 
L 3047 1100 
L 3047 0 
L 2419 0 
L 2419 1100 
L 313 1100 
L 313 1709 
L 2253 4666 
z
" transform="scale(0.015625)"/>
       </defs>
       <use xlink:href="#DejaVuSans-30"/>
       <use xlink:href="#DejaVuSans-2e" x="63.623047"/>
       <use xlink:href="#DejaVuSans-34" x="95.410156"/>
      </g>
     </g>
    </g>
    <g id="ytick_6">
     <g id="line2d_17">
      <path d="M 54 203.04 
L 334.8 203.04 
" clip-path="url(#pa0c4bab577)" style="fill: none; stroke: #000000; stroke-opacity: 0.1; stroke-width: 0.7; stroke-linecap: square"/>
     </g>
     <g id="line2d_18">
      <g>
       <use xlink:href="#m5a3321a9ee" x="54" y="203.04" style="stroke: #000000; stroke-width: 0.8"/>
      </g>
     </g>
     <g id="text_10">
      <!-- 0.5 -->
      <g transform="translate(26.325937 207.978984) scale(0.13 -0.13)">
       <use xlink:href="#DejaVuSans-30"/>
       <use xlink:href="#DejaVuSans-2e" x="63.623047"/>
       <use xlink:href="#DejaVuSans-35" x="95.410156"/>
      </g>
     </g>
    </g>
    <g id="ytick_7">
     <g id="line2d_19">
      <path d="M 54 165.888 
L 334.8 165.888 
" clip-path="url(#pa0c4bab577)" style="fill: none; stroke: #000000; stroke-opacity: 0.1; stroke-width: 0.7; stroke-linecap: square"/>
     </g>
     <g id="line2d_20">
      <g>
       <use xlink:href="#m5a3321a9ee" x="54" y="165.888" style="stroke: #000000; stroke-width: 0.8"/>
      </g>
     </g>
     <g id="text_11">
      <!-- 0.6 -->
      <g transform="translate(26.325937 170.826984) scale(0.13 -0.13)">
       <defs>
        <path id="DejaVuSans-36" d="M 2113 2584 
Q 1688 2584 1439 2293 
Q 1191 2003 1191 1497 
Q 1191 994 1439 701 
Q 1688 409 2113 409 
Q 2538 409 2786 701 
Q 3034 994 3034 1497 
Q 3034 2003 2786 2293 
Q 2538 2584 2113 2584 
z
M 3366 4563 
L 3366 3988 
Q 3128 4100 2886 4159 
Q 2644 4219 2406 4219 
Q 1781 4219 1451 3797 
Q 1122 3375 1075 2522 
Q 1259 2794 1537 2939 
Q 1816 3084 2150 3084 
Q 2853 3084 3261 2657 
Q 3669 2231 3669 1497 
Q 3669 778 3244 343 
Q 2819 -91 2113 -91 
Q 1303 -91 875 529 
Q 447 1150 447 2328 
Q 447 3434 972 4092 
Q 1497 4750 2381 4750 
Q 2619 4750 2861 4703 
Q 3103 4656 3366 4563 
z
" transform="scale(0.015625)"/>
       </defs>
       <use xlink:href="#DejaVuSans-30"/>
       <use xlink:href="#DejaVuSans-2e" x="63.623047"/>
       <use xlink:href="#DejaVuSans-36" x="95.410156"/>
      </g>
     </g>
    </g>
    <g id="ytick_8">
     <g id="line2d_21">
      <path d="M 54 128.736 
L 334.8 128.736 
" clip-path="url(#pa0c4bab577)" style="fill: none; stroke: #000000; stroke-opacity: 0.1; stroke-width: 0.7; stroke-linecap: square"/>
     </g>
     <g id="line2d_22">
      <g>
       <use xlink:href="#m5a3321a9ee" x="54" y="128.736" style="stroke: #000000; stroke-width: 0.8"/>
      </g>
     </g>
     <g id="text_12">
      <!-- 0.7 -->
      <g transform="translate(26.325937 133.674984) scale(0.13 -0.13)">
       <defs>
        <path id="DejaVuSans-37" d="M 525 4666 
L 3525 4666 
L 3525 4397 
L 1831 0 
L 1172 0 
L 2766 4134 
L 525 4134 
L 525 4666 
z
" transform="scale(0.015625)"/>
       </defs>
       <use xlink:href="#DejaVuSans-30"/>
       <use xlink:href="#DejaVuSans-2e" x="63.623047"/>
       <use xlink:href="#DejaVuSans-37" x="95.410156"/>
      </g>
     </g>
    </g>
    <g id="ytick_9">
     <g id="line2d_23">
      <path d="M 54 91.584 
L 334.8 91.584 
" clip-path="url(#pa0c4bab577)" style="fill: none; stroke: #000000; stroke-opacity: 0.1; stroke-width: 0.7; stroke-linecap: square"/>
     </g>
     <g id="line2d_24">
      <g>
       <use xlink:href="#m5a3321a9ee" x="54" y="91.584" style="stroke: #000000; stroke-width: 0.8"/>
      </g>
     </g>
     <g id="text_13">
      <!-- 0.8 -->
      <g transform="translate(26.325937 96.522984) scale(0.13 -0.13)">
       <defs>
        <path id="DejaVuSans-38" d="M 2034 2216 
Q 1584 2216 1326 1975 
Q 1069 1734 1069 1313 
Q 1069 891 1326 650 
Q 1584 409 2034 409 
Q 2484 409 2743 651 
Q 3003 894 3003 1313 
Q 3003 1734 2745 1975 
Q 2488 2216 2034 2216 
z
M 1403 2484 
Q 997 2584 770 2862 
Q 544 3141 544 3541 
Q 544 4100 942 4425 
Q 1341 4750 2034 4750 
Q 2731 4750 3128 4425 
Q 3525 4100 3525 3541 
Q 3525 3141 3298 2862 
Q 3072 2584 2669 2484 
Q 3125 2378 3379 2068 
Q 3634 1759 3634 1313 
Q 3634 634 3220 271 
Q 2806 -91 2034 -91 
Q 1263 -91 848 271 
Q 434 634 434 1313 
Q 434 1759 690 2068 
Q 947 2378 1403 2484 
z
M 1172 3481 
Q 1172 3119 1398 2916 
Q 1625 2713 2034 2713 
Q 2441 2713 2670 2916 
Q 2900 3119 2900 3481 
Q 2900 3844 2670 4047 
Q 2441 4250 2034 4250 
Q 1625 4250 1398 4047 
Q 1172 3844 1172 3481 
z
" transform="scale(0.015625)"/>
       </defs>
       <use xlink:href="#DejaVuSans-30"/>
       <use xlink:href="#DejaVuSans-2e" x="63.623047"/>
       <use xlink:href="#DejaVuSans-38" x="95.410156"/>
      </g>
     </g>
    </g>
    <g id="ytick_10">
     <g id="line2d_25">
      <path d="M 54 54.432 
L 334.8 54.432 
" clip-path="url(#pa0c4bab577)" style="fill: none; stroke: #000000; stroke-opacity: 0.1; stroke-width: 0.7; stroke-linecap: square"/>
     </g>
     <g id="line2d_26">
      <g>
       <use xlink:href="#m5a3321a9ee" x="54" y="54.432" style="stroke: #000000; stroke-width: 0.8"/>
      </g>
     </g>
     <g id="text_14">
      <!-- 0.9 -->
      <g transform="translate(26.325937 59.370984) scale(0.13 -0.13)">
       <defs>
        <path id="DejaVuSans-39" d="M 703 97 
L 703 672 
Q 941 559 1184 500 
Q 1428 441 1663 441 
Q 2288 441 2617 861 
Q 2947 1281 2994 2138 
Q 2813 1869 2534 1725 
Q 2256 1581 1919 1581 
Q 1219 1581 811 2004 
Q 403 2428 403 3163 
Q 403 3881 828 4315 
Q 1253 4750 1959 4750 
Q 2769 4750 3195 4129 
Q 3622 3509 3622 2328 
Q 3622 1225 3098 567 
Q 2575 -91 1691 -91 
Q 1453 -91 1209 -44 
Q 966 3 703 97 
z
M 1959 2075 
Q 2384 2075 2632 2365 
Q 2881 2656 2881 3163 
Q 2881 3666 2632 3958 
Q 2384 4250 1959 4250 
Q 1534 4250 1286 3958 
Q 1038 3666 1038 3163 
Q 1038 2656 1286 2365 
Q 1534 2075 1959 2075 
z
" transform="scale(0.015625)"/>
       </defs>
       <use xlink:href="#DejaVuSans-30"/>
       <use xlink:href="#DejaVuSans-2e" x="63.623047"/>
       <use xlink:href="#DejaVuSans-39" x="95.410156"/>
      </g>
     </g>
    </g>
    <g id="ytick_11">
     <g id="line2d_27">
      <path d="M 54 17.28 
L 334.8 17.28 
" clip-path="url(#pa0c4bab577)" style="fill: none; stroke: #000000; stroke-opacity: 0.1; stroke-width: 0.7; stroke-linecap: square"/>
     </g>
     <g id="line2d_28">
      <g>
       <use xlink:href="#m5a3321a9ee" x="54" y="17.28" style="stroke: #000000; stroke-width: 0.8"/>
      </g>
     </g>
     <g id="text_15">
      <!-- 1.0 -->
      <g transform="translate(26.325937 22.218984) scale(0.13 -0.13)">
       <use xlink:href="#DejaVuSans-31"/>
       <use xlink:href="#DejaVuSans-2e" x="63.623047"/>
       <use xlink:href="#DejaVuSans-30" x="95.410156"/>
      </g>
     </g>
    </g>
    <g id="text_16">
     <!-- GCC Size -->
     <g transform="translate(18.998437 239.37625) rotate(-90) scale(0.16 -0.16)">
      <defs>
       <path id="DejaVuSans-47" d="M 3809 666 
L 3809 1919 
L 2778 1919 
L 2778 2438 
L 4434 2438 
L 4434 434 
Q 4069 175 3628 42 
Q 3188 -91 2688 -91 
Q 1594 -91 976 548 
Q 359 1188 359 2328 
Q 359 3472 976 4111 
Q 1594 4750 2688 4750 
Q 3144 4750 3555 4637 
Q 3966 4525 4313 4306 
L 4313 3634 
Q 3963 3931 3569 4081 
Q 3175 4231 2741 4231 
Q 1884 4231 1454 3753 
Q 1025 3275 1025 2328 
Q 1025 1384 1454 906 
Q 1884 428 2741 428 
Q 3075 428 3337 486 
Q 3600 544 3809 666 
z
" transform="scale(0.015625)"/>
       <path id="DejaVuSans-43" d="M 4122 4306 
L 4122 3641 
Q 3803 3938 3442 4084 
Q 3081 4231 2675 4231 
Q 1875 4231 1450 3742 
Q 1025 3253 1025 2328 
Q 1025 1406 1450 917 
Q 1875 428 2675 428 
Q 3081 428 3442 575 
Q 3803 722 4122 1019 
L 4122 359 
Q 3791 134 3420 21 
Q 3050 -91 2638 -91 
Q 1578 -91 968 557 
Q 359 1206 359 2328 
Q 359 3453 968 4101 
Q 1578 4750 2638 4750 
Q 3056 4750 3426 4639 
Q 3797 4528 4122 4306 
z
" transform="scale(0.015625)"/>
       <path id="DejaVuSans-53" d="M 3425 4513 
L 3425 3897 
Q 3066 4069 2747 4153 
Q 2428 4238 2131 4238 
Q 1616 4238 1336 4038 
Q 1056 3838 1056 3469 
Q 1056 3159 1242 3001 
Q 1428 2844 1947 2747 
L 2328 2669 
Q 3034 2534 3370 2195 
Q 3706 1856 3706 1288 
Q 3706 609 3251 259 
Q 2797 -91 1919 -91 
Q 1588 -91 1214 -16 
Q 841 59 441 206 
L 441 856 
Q 825 641 1194 531 
Q 1563 422 1919 422 
Q 2459 422 2753 634 
Q 3047 847 3047 1241 
Q 3047 1584 2836 1778 
Q 2625 1972 2144 2069 
L 1759 2144 
Q 1053 2284 737 2584 
Q 422 2884 422 3419 
Q 422 4038 858 4394 
Q 1294 4750 2059 4750 
Q 2388 4750 2728 4690 
Q 3069 4631 3425 4513 
z
" transform="scale(0.015625)"/>
       <path id="DejaVuSans-7a" d="M 353 3500 
L 3084 3500 
L 3084 2975 
L 922 459 
L 3084 459 
L 3084 0 
L 275 0 
L 275 525 
L 2438 3041 
L 353 3041 
L 353 3500 
z
" transform="scale(0.015625)"/>
       <path id="DejaVuSans-65" d="M 3597 1894 
L 3597 1613 
L 953 1613 
Q 991 1019 1311 708 
Q 1631 397 2203 397 
Q 2534 397 2845 478 
Q 3156 559 3463 722 
L 3463 178 
Q 3153 47 2828 -22 
Q 2503 -91 2169 -91 
Q 1331 -91 842 396 
Q 353 884 353 1716 
Q 353 2575 817 3079 
Q 1281 3584 2069 3584 
Q 2775 3584 3186 3129 
Q 3597 2675 3597 1894 
z
M 3022 2063 
Q 3016 2534 2758 2815 
Q 2500 3097 2075 3097 
Q 1594 3097 1305 2825 
Q 1016 2553 972 2059 
L 3022 2063 
z
" transform="scale(0.015625)"/>
      </defs>
      <use xlink:href="#DejaVuSans-47"/>
      <use xlink:href="#DejaVuSans-43" x="77.490234"/>
      <use xlink:href="#DejaVuSans-43" x="147.314453"/>
      <use xlink:href="#DejaVuSans-20" x="217.138672"/>
      <use xlink:href="#DejaVuSans-53" x="248.925781"/>
      <use xlink:href="#DejaVuSans-69" x="312.402344"/>
      <use xlink:href="#DejaVuSans-7a" x="340.185547"/>
      <use xlink:href="#DejaVuSans-65" x="392.675781"/>
     </g>
    </g>
   </g>
   <g id="line2d_29">
    <path d="M 54.548437 17.642813 
L 55.645313 18.368438 
L 56.19375 21.996563 
L 57.290625 22.722188 
L 57.839062 30.34125 
L 58.3875 31.066875 
L 58.935938 32.518125 
L 64.96875 36.509063 
L 65.517188 37.234688 
L 66.065625 37.5975 
L 66.614063 38.323125 
L 67.710938 39.04875 
L 68.259375 39.774375 
L 69.35625 40.5 
L 69.904687 45.942188 
L 71.001563 46.667813 
L 71.55 47.393438 
L 73.74375 48.844688 
L 74.292187 50.295938 
L 78.13125 52.835625 
L 78.679688 53.56125 
L 79.228125 53.924063 
L 79.776562 55.738125 
L 84.164062 58.640625 
L 84.7125 62.26875 
L 85.809375 67.348125 
L 86.357812 68.07375 
L 89.648438 70.250625 
L 90.196875 71.701875 
L 90.745313 73.87875 
L 91.29375 77.144063 
L 96.778125 80.772188 
L 97.326562 81.497813 
L 98.423438 82.223438 
L 98.971875 82.949063 
L 99.520313 84.0375 
L 100.617188 84.763125 
L 101.165625 85.48875 
L 101.714063 85.851562 
L 102.2625 90.568125 
L 103.359375 91.29375 
L 103.907813 94.559063 
L 104.45625 95.6475 
L 105.004688 96.010312 
L 105.553125 97.461563 
L 106.101562 98.187188 
L 109.392188 100.364063 
L 109.940625 101.4525 
L 111.585938 102.540938 
L 112.134375 106.169063 
L 114.328125 107.620313 
L 114.876563 108.70875 
L 115.973438 109.434375 
L 116.521875 110.16 
L 117.070312 111.248438 
L 118.167187 111.974063 
L 118.715625 112.699688 
L 119.8125 122.858438 
L 131.329688 130.4775 
L 131.878125 131.203125 
L 132.426562 132.654375 
L 133.523438 133.38 
L 134.071875 134.105625 
L 136.265625 135.556875 
L 136.814063 140.63625 
L 137.3625 142.0875 
L 138.459375 142.813125 
L 139.007812 143.53875 
L 140.104688 144.264375 
L 140.653125 144.99 
L 142.298438 146.078438 
L 142.846875 146.804063 
L 143.395312 147.8925 
L 143.94375 148.255313 
L 144.492188 148.980938 
L 148.33125 151.520625 
L 148.879687 152.24625 
L 149.428125 152.609063 
L 149.976562 153.334688 
L 153.267188 155.511563 
L 153.815625 160.228125 
L 154.364062 161.316563 
L 154.9125 165.3075 
L 156.009375 166.75875 
L 156.557813 167.121563 
L 157.654688 168.572813 
L 158.203125 168.935625 
L 158.751563 170.386875 
L 159.3 171.475313 
L 159.848437 174.015 
L 162.042188 175.46625 
L 162.590625 176.191875 
L 163.6875 178.36875 
L 164.235938 178.731563 
L 164.784375 183.810938 
L 165.332812 184.899375 
L 166.429688 185.625 
L 166.978125 187.439063 
L 167.526563 187.801875 
L 168.075 208.845 
L 170.26875 210.29625 
L 170.817187 211.384688 
L 171.365625 211.7475 
L 171.914062 213.19875 
L 173.010938 213.924375 
L 173.559375 215.375625 
L 174.107813 216.464063 
L 174.65625 216.826875 
L 175.753125 218.278125 
L 176.301562 221.180625 
L 176.85 221.90625 
L 177.398438 224.80875 
L 177.946875 225.897188 
L 178.495313 226.26 
L 179.04375 226.985625 
L 179.592188 227.348438 
L 180.140625 228.436875 
L 180.689063 229.888125 
L 181.2375 230.61375 
L 181.785937 230.976563 
L 182.334375 232.065 
L 182.882812 232.427813 
L 183.43125 240.046875 
L 184.528125 240.7725 
L 185.076562 241.498125 
L 187.270313 242.949375 
L 187.81875 244.400625 
L 188.367188 244.763438 
L 188.915625 246.214688 
L 190.0125 246.940313 
L 190.560937 249.842813 
L 193.851562 252.019688 
L 194.4 252.745313 
L 195.496875 253.470938 
L 196.045312 256.010625 
L 196.59375 256.73625 
L 197.142188 257.099063 
L 197.690625 258.550313 
L 198.239063 259.63875 
L 198.7875 260.364375 
L 199.335938 260.727188 
L 199.884375 261.815625 
L 200.98125 262.54125 
L 201.529687 263.629688 
L 202.078125 264.355313 
L 202.626563 264.718125 
L 203.175 266.169375 
L 203.723438 266.532188 
L 204.271875 267.620625 
L 205.36875 268.34625 
L 205.917188 269.071875 
L 206.465625 269.434687 
L 207.014062 270.523125 
L 207.5625 294.831563 
L 208.110938 295.194375 
L 208.659375 296.282813 
L 209.207813 296.645625 
L 209.75625 297.37125 
L 210.304688 298.8225 
L 210.853125 299.548125 
L 211.401563 307.53 
L 213.046875 308.618438 
L 213.595313 309.344063 
L 214.14375 310.4325 
L 214.692188 310.795313 
L 215.240625 311.88375 
L 216.3375 313.335 
L 216.885938 313.697812 
L 217.434375 319.502813 
L 218.53125 320.228438 
L 219.079688 321.316875 
L 219.628125 322.768125 
L 220.176563 323.130938 
L 220.725 324.582188 
L 221.273438 326.39625 
L 221.821875 327.121875 
L 222.370313 327.484688 
L 222.91875 328.935938 
L 224.564063 330.024375 
L 225.1125 330.75 
L 225.660938 346.71375 
L 226.209375 347.802188 
L 227.854688 348.890625 
L 228.403125 349.61625 
L 228.951562 364.12875 
L 230.596875 365.217188 
L 231.145313 368.119687 
L 231.69375 368.4825 
L 232.242188 372.110625 
L 232.790625 372.83625 
L 233.339063 373.199063 
L 233.8875 375.013125 
L 234.435937 375.375938 
L 234.984375 376.827188 
L 238.275 376.827188 
L 238.823438 378.278437 
L 239.371875 379.004063 
L 241.017188 379.004063 
L 241.565625 379.366875 
L 242.114063 379.366875 
L 242.6625 380.0925 
L 243.210938 380.0925 
L 244.307813 381.54375 
L 244.85625 381.54375 
L 245.404687 381.906563 
L 245.953125 382.632187 
L 247.598438 382.632187 
L 248.695312 383.357813 
L 249.24375 383.357813 
L 249.792188 383.720625 
L 250.889062 383.720625 
L 251.4375 384.083438 
L 253.082813 384.083438 
L 254.179688 384.809063 
L 255.825 384.809063 
L 256.921875 385.534688 
L 259.115625 385.534688 
L 259.664062 385.8975 
L 260.760938 385.8975 
L 261.309375 386.260312 
L 263.503125 386.260312 
L 264.051563 386.623125 
L 268.9875 386.623125 
L 269.535938 386.985938 
L 273.923437 386.985938 
L 274.471875 387.34875 
L 282.15 387.34875 
L 282.698438 387.711563 
L 298.603125 387.711563 
L 299.151563 388.074375 
L 299.151563 388.074375 
" clip-path="url(#pa0c4bab577)" style="fill: none; stroke: #d80000; stroke-width: 1.8; stroke-linecap: square"/>
   </g>
   <g id="line2d_30">
    <path d="M 54.548437 17.28 
L 55.645313 17.28 
L 58.935938 19.456875 
L 59.484375 19.456875 
L 62.775 21.63375 
L 63.323437 21.63375 
L 64.420312 22.359375 
L 65.517188 22.359375 
L 66.614063 23.085 
L 67.1625 23.085 
L 72.098438 26.350313 
L 72.646875 26.350313 
L 77.034375 29.252813 
L 77.582813 29.252813 
L 79.228125 30.34125 
L 79.776562 30.34125 
L 80.873437 31.066875 
L 81.421875 31.066875 
L 84.164062 32.880938 
L 85.809375 32.880938 
L 86.357812 33.24375 
L 88.003125 33.24375 
L 88.551563 33.606563 
L 89.1 33.606563 
L 89.648438 33.969375 
L 90.196875 33.969375 
L 91.29375 34.695 
L 91.842187 34.695 
L 92.390625 35.057813 
L 92.939063 35.057813 
L 95.68125 36.871875 
L 96.778125 36.871875 
L 98.971875 38.323125 
L 99.520313 38.323125 
L 103.359375 40.862813 
L 104.45625 40.862813 
L 105.553125 41.588438 
L 106.65 41.588438 
L 107.746875 42.314063 
L 109.392188 42.314063 
L 110.489063 43.039688 
L 111.0375 43.039688 
L 113.779687 44.85375 
L 114.328125 44.85375 
L 115.973438 45.942188 
L 116.521875 45.942188 
L 117.070312 46.305 
L 118.167187 46.305 
L 118.715625 46.667813 
L 119.264063 46.667813 
L 120.360938 47.393438 
L 120.909375 47.393438 
L 121.457813 47.75625 
L 122.00625 47.75625 
L 123.651562 48.844688 
L 124.2 48.844688 
L 126.39375 50.295938 
L 126.942188 50.295938 
L 127.490625 51.021563 
L 128.039062 51.021563 
L 128.5875 51.384375 
L 129.135938 51.384375 
L 132.426562 53.56125 
L 132.975 53.56125 
L 133.523438 53.924063 
L 134.071875 53.924063 
L 137.910937 56.46375 
L 138.459375 56.46375 
L 141.201563 58.277813 
L 141.75 58.277813 
L 142.298438 58.640625 
L 142.846875 58.640625 
L 143.395312 59.003438 
L 143.94375 59.003438 
L 146.1375 60.454688 
L 146.685938 61.180313 
L 148.33125 62.26875 
L 148.879687 62.994375 
L 149.428125 63.357188 
L 149.976562 63.357188 
L 151.073438 64.082813 
L 152.170313 64.082813 
L 153.267188 64.808438 
L 153.815625 64.808438 
L 154.364062 65.17125 
L 154.9125 65.17125 
L 155.460938 65.534063 
L 156.009375 66.259688 
L 157.654688 67.348125 
L 158.751563 67.348125 
L 159.848437 68.07375 
L 160.396875 68.07375 
L 162.042188 69.162188 
L 162.590625 69.162188 
L 163.6875 69.887813 
L 165.332812 69.887813 
L 166.429688 70.613438 
L 167.526563 70.613438 
L 168.623438 71.339063 
L 169.171875 71.339063 
L 171.365625 72.790313 
L 171.914062 73.515938 
L 174.65625 75.33 
L 175.204688 75.33 
L 175.753125 75.692813 
L 176.85 75.692813 
L 179.04375 77.144063 
L 179.592188 77.144063 
L 181.785937 78.595313 
L 182.334375 78.595313 
L 182.882812 78.958125 
L 183.979688 78.958125 
L 188.367188 81.860625 
L 188.915625 81.860625 
L 192.20625 84.0375 
L 192.754688 84.0375 
L 195.496875 85.851562 
L 196.045312 85.851562 
L 196.59375 86.214375 
L 197.690625 86.214375 
L 199.335938 87.302813 
L 199.884375 87.302813 
L 201.529687 88.39125 
L 202.078125 88.39125 
L 202.626563 88.754063 
L 203.175 88.754063 
L 203.723438 89.116875 
L 204.271875 89.8425 
L 205.36875 89.8425 
L 208.659375 92.019375 
L 209.207813 92.019375 
L 213.595313 94.921875 
L 214.14375 94.921875 
L 215.789062 96.010312 
L 216.3375 96.010312 
L 219.628125 98.187188 
L 220.176563 98.912813 
L 221.821875 100.00125 
L 222.370313 100.00125 
L 222.91875 100.364063 
L 223.467187 100.364063 
L 230.596875 105.080625 
L 231.145313 105.80625 
L 232.242188 106.531875 
L 232.790625 107.2575 
L 233.339063 107.620313 
L 233.8875 107.620313 
L 235.532813 108.70875 
L 236.08125 108.70875 
L 236.629688 109.071563 
L 237.726562 109.071563 
L 238.275 109.434375 
L 238.823438 109.434375 
L 239.920312 110.16 
L 240.46875 110.16 
L 241.017188 110.522813 
L 241.565625 110.522813 
L 243.210938 111.61125 
L 243.759375 111.61125 
L 253.63125 118.141875 
L 254.179688 118.141875 
L 255.825 119.230313 
L 256.373438 119.955938 
L 256.921875 120.31875 
L 257.470312 120.31875 
L 261.309375 122.858438 
L 262.40625 124.309688 
L 262.954687 124.6725 
L 263.503125 125.398125 
L 264.051563 125.760938 
L 264.6 125.760938 
L 266.245313 126.849375 
L 266.79375 127.575 
L 268.439062 128.663438 
L 268.9875 129.389063 
L 279.407812 136.2825 
L 279.95625 137.008125 
L 280.504688 137.370938 
L 281.053125 138.096563 
L 281.601562 138.459375 
L 282.15 139.185 
L 282.698438 140.273438 
L 285.440625 142.0875 
L 285.989063 142.0875 
L 287.634375 143.175938 
L 288.182813 143.175938 
L 290.376562 144.627188 
L 290.925 145.352813 
L 295.860937 148.618125 
L 296.409375 149.34375 
L 300.796875 152.24625 
L 300.796875 152.24625 
" clip-path="url(#pa0c4bab577)" style="fill: none; stroke: #264653; stroke-width: 1.8; stroke-linecap: square"/>
   </g>
   <g id="line2d_31">
    <path d="M 54.548437 17.28 
L 107.198438 17.28 
L 107.746875 19.456875 
L 108.84375 20.1825 
L 109.392188 21.270938 
L 111.0375 22.359375 
L 111.585938 22.359375 
L 113.23125 23.447813 
L 113.779687 24.173438 
L 114.876563 24.899063 
L 115.425 24.899063 
L 115.973438 27.075938 
L 116.521875 27.43875 
L 117.070312 27.43875 
L 118.167187 28.164375 
L 118.715625 28.89 
L 119.264063 28.89 
L 124.2 32.155313 
L 124.748438 35.783438 
L 125.296875 36.14625 
L 125.845313 37.5975 
L 128.039062 39.04875 
L 128.5875 39.774375 
L 137.910937 45.942188 
L 138.459375 46.667813 
L 141.201563 48.481875 
L 141.75 49.570312 
L 144.492188 51.384375 
L 145.040625 52.11 
L 152.71875 57.189375 
L 153.267188 63.72 
L 154.364062 64.445625 
L 154.9125 65.17125 
L 155.460938 68.07375 
L 157.10625 69.162188 
L 157.654688 69.887813 
L 163.139063 73.515938 
L 163.6875 74.604375 
L 164.235938 75.33 
L 167.526563 77.506875 
L 168.075 78.2325 
L 170.26875 79.68375 
L 170.817187 80.409375 
L 171.914062 81.135 
L 172.4625 81.860625 
L 174.107813 82.949063 
L 174.65625 85.125938 
L 175.204688 85.48875 
L 175.753125 86.577188 
L 176.301562 86.94 
L 177.946875 89.116875 
L 182.334375 92.019375 
L 182.882812 92.745 
L 192.754688 99.275625 
L 193.303125 100.00125 
L 194.4 100.726875 
L 195.496875 102.178125 
L 196.045312 102.540938 
L 196.59375 103.266563 
L 198.7875 104.717813 
L 199.335938 105.443438 
L 202.078125 107.2575 
L 202.626563 107.983125 
L 207.5625 111.248438 
L 208.110938 111.974063 
L 210.304688 113.425313 
L 210.853125 114.51375 
L 219.079688 119.955938 
L 219.628125 120.681563 
L 224.564063 123.946875 
L 225.1125 124.6725 
L 230.048438 127.937813 
L 230.596875 128.663438 
L 232.242188 129.751875 
L 232.790625 130.4775 
L 236.08125 132.654375 
L 236.629688 133.38 
L 237.178125 133.742813 
L 237.726562 134.468438 
L 242.6625 137.73375 
L 243.210938 138.459375 
L 243.759375 138.822188 
L 244.307813 139.547813 
L 244.85625 140.63625 
L 245.953125 142.0875 
L 250.340625 144.99 
L 250.889062 148.255313 
L 251.4375 149.34375 
L 251.985938 150.795 
L 253.63125 151.883438 
L 254.179688 152.609063 
L 255.276563 153.334688 
L 256.373438 158.414063 
L 256.921875 158.776875 
L 257.470312 159.5025 
L 261.309375 162.042188 
L 262.40625 163.493438 
L 262.954687 163.85625 
L 263.503125 165.670313 
L 264.051563 165.670313 
L 265.148438 166.395938 
L 265.696875 167.121563 
L 266.245313 167.484375 
L 266.79375 169.298438 
L 267.890625 170.024063 
L 268.439062 170.749688 
L 268.9875 171.838125 
L 270.632812 172.926563 
L 271.18125 173.652188 
L 273.375 175.103438 
L 273.923437 175.103438 
L 274.471875 175.46625 
L 275.020313 176.191875 
L 277.214063 177.643125 
L 277.7625 178.731563 
L 279.407812 179.82 
L 279.95625 180.545625 
L 280.504688 181.634063 
L 281.053125 181.996875 
L 281.601562 183.085313 
L 282.15 183.448125 
L 282.698438 184.536563 
L 295.860937 193.244063 
L 296.957813 193.244063 
L 298.054688 193.969688 
L 299.151563 195.420938 
L 299.7 196.509375 
L 300.248438 197.235 
L 300.248438 197.235 
" clip-path="url(#pa0c4bab577)" style="fill: none; stroke: #ffe211; stroke-width: 1.8; stroke-linecap: square"/>
   </g>
   <g id="line2d_32">
    <path d="M 54.548437 17.28 
L 56.742188 18.73125 
L 57.290625 18.73125 
L 58.3875 19.456875 
L 59.484375 19.456875 
L 60.58125 20.1825 
L 61.129688 20.1825 
L 63.323437 21.63375 
L 63.871875 21.63375 
L 69.904687 25.624688 
L 70.453125 25.624688 
L 71.001563 25.9875 
L 72.098438 25.9875 
L 72.646875 26.350313 
L 73.195312 26.350313 
L 74.292187 27.075938 
L 75.9375 27.075938 
L 77.582813 28.164375 
L 78.13125 28.164375 
L 80.873437 29.978438 
L 81.421875 29.978438 
L 83.067188 31.066875 
L 84.164062 31.066875 
L 86.357812 32.518125 
L 86.90625 32.518125 
L 88.003125 33.24375 
L 88.551563 33.24375 
L 89.648438 33.969375 
L 90.196875 33.969375 
L 90.745313 34.332188 
L 91.29375 34.332188 
L 94.584375 36.509063 
L 95.68125 36.509063 
L 96.229688 36.871875 
L 96.778125 36.871875 
L 98.971875 38.323125 
L 100.617188 38.323125 
L 102.810937 39.774375 
L 104.45625 39.774375 
L 107.198438 41.588438 
L 107.746875 41.588438 
L 108.84375 42.314063 
L 109.392188 42.314063 
L 111.0375 43.4025 
L 112.134375 43.4025 
L 115.425 45.579375 
L 115.973438 45.579375 
L 116.521875 45.942188 
L 117.61875 45.942188 
L 120.360938 47.75625 
L 123.103125 47.75625 
L 123.651562 48.119063 
L 124.2 48.119063 
L 125.296875 48.844688 
L 126.39375 48.844688 
L 127.490625 49.570312 
L 128.5875 49.570312 
L 129.684375 50.295938 
L 130.232813 50.295938 
L 131.329688 51.021563 
L 131.878125 51.021563 
L 134.071875 52.472813 
L 134.620313 52.472813 
L 135.717188 53.198438 
L 136.265625 53.198438 
L 136.814063 53.56125 
L 137.910937 53.56125 
L 139.007812 54.286875 
L 139.55625 54.286875 
L 141.201563 55.375313 
L 142.846875 55.375313 
L 143.395312 55.738125 
L 143.94375 55.738125 
L 145.589063 56.826563 
L 146.1375 57.552188 
L 150.525 60.454688 
L 151.073438 60.454688 
L 151.621875 60.8175 
L 152.170313 60.8175 
L 153.815625 61.905938 
L 154.364062 61.905938 
L 157.10625 63.72 
L 157.654688 63.72 
L 158.751563 64.445625 
L 159.3 64.445625 
L 159.848437 64.808438 
L 160.396875 64.808438 
L 161.49375 65.534063 
L 162.042188 65.534063 
L 165.332812 67.710938 
L 166.429688 67.710938 
L 166.978125 68.07375 
L 167.526563 68.07375 
L 169.171875 69.162188 
L 170.26875 69.162188 
L 173.559375 71.339063 
L 175.204688 71.339063 
L 175.753125 72.064688 
L 176.301562 72.4275 
L 176.85 72.4275 
L 179.04375 73.87875 
L 179.592188 73.87875 
L 180.689063 74.604375 
L 181.2375 74.604375 
L 192.754688 82.223438 
L 193.303125 82.223438 
L 193.851562 82.58625 
L 194.4 82.58625 
L 196.045312 83.674688 
L 196.59375 83.674688 
L 198.239063 84.763125 
L 198.7875 84.763125 
L 199.335938 85.125938 
L 199.884375 85.125938 
L 210.853125 92.382188 
L 211.401563 92.382188 
L 211.95 92.745 
L 212.498437 92.745 
L 213.046875 93.107813 
L 213.595313 93.107813 
L 219.628125 97.09875 
L 220.176563 97.824375 
L 221.273438 98.55 
L 221.821875 98.55 
L 227.30625 102.178125 
L 227.854688 102.178125 
L 230.048438 103.629375 
L 230.596875 103.629375 
L 232.242188 104.717813 
L 232.790625 104.717813 
L 233.339063 105.080625 
L 233.8875 105.080625 
L 235.532813 106.169063 
L 236.08125 106.169063 
L 236.629688 106.531875 
L 237.726562 106.531875 
L 241.565625 109.071563 
L 242.114063 109.071563 
L 243.759375 110.16 
L 244.307813 110.16 
L 249.24375 113.425313 
L 249.792188 113.425313 
L 255.825 117.41625 
L 256.373438 118.141875 
L 256.921875 118.504688 
L 257.470312 118.504688 
L 261.309375 121.044375 
L 261.857813 121.77 
L 262.40625 121.77 
L 262.954687 122.132812 
L 263.503125 122.858438 
L 264.051563 123.22125 
L 264.6 123.22125 
L 266.245313 124.309688 
L 266.79375 125.035313 
L 267.890625 125.760938 
L 268.439062 125.760938 
L 271.18125 127.575 
L 271.729688 128.300625 
L 274.471875 130.114688 
L 275.020313 130.840313 
L 278.859375 133.38 
L 279.407812 133.38 
L 279.95625 133.742813 
L 280.504688 134.468438 
L 281.601562 135.194063 
L 282.15 135.919688 
L 284.892187 137.73375 
L 285.440625 137.73375 
L 301.345312 148.255313 
L 301.345312 148.255313 
" clip-path="url(#pa0c4bab577)" style="fill: none; stroke: #39c5bb; stroke-width: 1.8; stroke-linecap: square"/>
   </g>
   <g id="line2d_33">
    <path d="M 54.548437 17.642813 
L 56.19375 18.73125 
L 56.742188 18.73125 
L 58.935938 20.1825 
L 59.484375 20.1825 
L 60.032812 20.545313 
L 60.58125 20.545313 
L 63.323437 22.359375 
L 63.871875 22.359375 
L 64.420312 22.722188 
L 64.96875 22.722188 
L 65.517188 23.085 
L 66.065625 23.085 
L 67.1625 23.810625 
L 67.710938 23.810625 
L 68.807812 24.53625 
L 69.35625 24.53625 
L 73.195312 27.075938 
L 73.74375 27.075938 
L 76.485938 28.89 
L 80.325 28.89 
L 81.421875 29.615625 
L 81.970313 29.615625 
L 82.51875 29.978438 
L 83.067188 29.978438 
L 84.164062 30.704063 
L 84.7125 30.704063 
L 90.745313 34.695 
L 91.29375 34.695 
L 94.584375 36.871875 
L 95.132812 36.871875 
L 97.875 38.685938 
L 98.971875 38.685938 
L 99.520313 39.411563 
L 102.810937 41.588438 
L 103.359375 41.588438 
L 104.45625 42.314063 
L 105.004688 43.765313 
L 106.101562 44.490938 
L 106.65 44.490938 
L 107.198438 44.85375 
L 107.746875 44.85375 
L 110.489063 46.667813 
L 111.585938 46.667813 
L 112.682813 47.393438 
L 114.328125 47.393438 
L 122.00625 52.472813 
L 122.554688 52.472813 
L 124.2 53.56125 
L 125.296875 53.56125 
L 131.329688 57.552188 
L 131.878125 57.552188 
L 132.975 58.277813 
L 133.523438 58.277813 
L 134.071875 58.640625 
L 134.620313 58.640625 
L 136.265625 59.729063 
L 136.814063 59.729063 
L 139.007812 61.180313 
L 139.55625 61.180313 
L 140.104688 61.543125 
L 141.201563 61.543125 
L 143.94375 63.357188 
L 145.040625 63.357188 
L 146.1375 64.082813 
L 146.685938 64.082813 
L 147.234375 64.445625 
L 148.33125 64.445625 
L 148.879687 64.808438 
L 149.428125 65.896875 
L 151.621875 67.348125 
L 152.170313 67.348125 
L 157.654688 70.97625 
L 158.203125 71.701875 
L 158.751563 71.701875 
L 159.848437 72.4275 
L 160.396875 72.4275 
L 160.945312 72.790313 
L 161.49375 72.790313 
L 163.139063 73.87875 
L 163.6875 73.87875 
L 164.235938 74.241563 
L 164.784375 74.967188 
L 167.526563 76.78125 
L 168.075 77.506875 
L 169.720313 78.595313 
L 170.26875 78.595313 
L 174.65625 81.497813 
L 175.204688 81.497813 
L 175.753125 83.311875 
L 176.301562 83.674688 
L 176.85 84.400313 
L 178.495313 85.48875 
L 179.04375 85.48875 
L 179.592188 85.851562 
L 180.140625 85.851562 
L 181.2375 86.577188 
L 182.334375 86.577188 
L 183.43125 87.302813 
L 183.979688 87.302813 
L 202.078125 99.275625 
L 202.626563 99.275625 
L 203.175 99.638438 
L 203.723438 99.638438 
L 204.820312 100.364063 
L 205.36875 100.364063 
L 207.014062 101.4525 
L 207.5625 101.4525 
L 208.110938 101.815313 
L 208.659375 101.815313 
L 212.498437 104.355 
L 213.046875 104.355 
L 213.595313 104.717813 
L 214.14375 104.717813 
L 216.885938 106.531875 
L 217.434375 106.531875 
L 218.53125 107.2575 
L 219.079688 107.983125 
L 224.564063 111.61125 
L 226.757812 111.61125 
L 228.403125 112.699688 
L 228.951562 112.699688 
L 230.048438 113.425313 
L 230.596875 114.150937 
L 232.790625 115.602188 
L 233.339063 116.327813 
L 233.8875 116.327813 
L 236.629688 118.141875 
L 238.275 118.141875 
L 239.920312 119.230313 
L 240.46875 119.230313 
L 241.017188 119.593125 
L 241.565625 119.593125 
L 242.6625 120.31875 
L 244.307813 120.31875 
L 245.404687 121.044375 
L 245.953125 121.044375 
L 249.24375 123.22125 
L 249.792188 123.22125 
L 252.534375 125.035313 
L 253.082813 125.035313 
L 254.179688 125.760938 
L 255.276563 125.760938 
L 255.825 126.12375 
L 256.373438 126.849375 
L 256.921875 127.212188 
L 258.01875 127.212188 
L 261.309375 129.389063 
L 262.40625 130.840313 
L 262.954687 131.203125 
L 263.503125 131.92875 
L 265.148438 133.017188 
L 265.696875 133.017188 
L 266.245313 133.38 
L 266.79375 134.105625 
L 271.18125 137.008125 
L 271.729688 137.008125 
L 273.375 138.096563 
L 274.471875 138.096563 
L 275.020313 138.459375 
L 276.117188 138.459375 
L 279.407812 140.63625 
L 280.504688 142.0875 
L 281.601562 142.813125 
L 282.15 143.53875 
L 282.698438 144.99 
L 283.246875 145.352813 
L 283.795313 145.352813 
L 284.34375 145.715625 
L 284.892187 145.715625 
L 288.73125 148.255313 
L 289.279688 148.255313 
L 294.215625 151.520625 
L 294.764063 152.24625 
L 298.054688 154.423125 
L 298.603125 155.511563 
L 299.151563 155.874375 
L 299.151563 155.874375 
" clip-path="url(#pa0c4bab577)" style="fill: none; stroke: #2a9d8f; stroke-width: 1.8; stroke-linecap: square"/>
   </g>
   <g id="line2d_34">
    <path d="M 54.548437 17.642813 
L 56.19375 18.73125 
L 57.290625 18.73125 
L 60.58125 20.908125 
L 61.129688 20.908125 
L 61.678125 21.270938 
L 62.226562 21.270938 
L 63.323437 21.996563 
L 63.871875 21.996563 
L 66.614063 23.810625 
L 67.710938 23.810625 
L 69.35625 24.899063 
L 69.904687 24.899063 
L 73.74375 27.43875 
L 74.292187 27.43875 
L 74.840625 27.801563 
L 75.9375 27.801563 
L 78.13125 29.252813 
L 78.679688 29.252813 
L 79.776562 29.978438 
L 80.873437 29.978438 
L 81.421875 31.429688 
L 84.164062 33.24375 
L 85.809375 33.24375 
L 87.454688 34.332188 
L 88.003125 34.332188 
L 88.551563 34.695 
L 89.1 34.695 
L 90.196875 35.420625 
L 90.745313 35.420625 
L 91.29375 35.783438 
L 91.842187 35.783438 
L 95.68125 38.323125 
L 96.229688 38.323125 
L 98.423438 39.774375 
L 98.971875 39.774375 
L 99.520313 40.137188 
L 100.06875 40.862813 
L 100.617188 40.862813 
L 101.165625 41.225625 
L 101.714063 42.314063 
L 102.2625 42.314063 
L 102.810937 42.676875 
L 103.359375 43.4025 
L 104.45625 44.128125 
L 105.004688 44.128125 
L 105.553125 45.579375 
L 106.101562 45.579375 
L 107.198438 46.305 
L 107.746875 46.305 
L 109.392188 47.393438 
L 109.940625 47.393438 
L 113.779687 49.933125 
L 114.328125 49.933125 
L 115.425 50.65875 
L 116.521875 50.65875 
L 117.61875 51.384375 
L 118.715625 51.384375 
L 122.00625 53.56125 
L 122.554688 53.56125 
L 123.103125 53.924063 
L 123.651562 53.924063 
L 124.2 54.286875 
L 126.39375 54.286875 
L 127.490625 55.0125 
L 128.039062 55.738125 
L 128.5875 55.738125 
L 134.071875 59.36625 
L 134.620313 60.091875 
L 140.104688 63.72 
L 140.653125 63.72 
L 141.75 64.445625 
L 142.298438 64.445625 
L 145.589063 66.6225 
L 146.1375 66.6225 
L 147.782813 67.710938 
L 148.879687 67.710938 
L 149.976562 68.436563 
L 150.525 68.436563 
L 151.621875 69.162188 
L 152.170313 69.162188 
L 152.71875 69.525 
L 153.267188 69.525 
L 157.654688 72.4275 
L 158.203125 72.4275 
L 158.751563 72.790313 
L 159.3 73.515938 
L 159.848437 73.87875 
L 160.396875 73.87875 
L 163.6875 76.055625 
L 164.235938 76.78125 
L 164.784375 77.144063 
L 165.332812 77.869688 
L 167.526563 79.320938 
L 168.075 80.409375 
L 169.720313 81.497813 
L 170.26875 81.497813 
L 171.914062 82.58625 
L 172.4625 82.58625 
L 173.010938 82.949063 
L 173.559375 84.400313 
L 174.107813 85.125938 
L 175.204688 85.851562 
L 175.753125 85.851562 
L 177.398438 86.94 
L 177.946875 86.94 
L 178.495313 87.302813 
L 179.592188 87.302813 
L 180.689063 88.028438 
L 181.2375 88.028438 
L 183.979688 89.8425 
L 184.528125 89.8425 
L 186.721875 91.29375 
L 187.270313 91.29375 
L 190.0125 93.107813 
L 191.109375 93.107813 
L 193.851562 94.921875 
L 194.4 94.921875 
L 202.626563 100.364063 
L 203.175 100.364063 
L 203.723438 100.726875 
L 204.271875 100.726875 
L 208.110938 103.266563 
L 208.659375 103.266563 
L 213.046875 106.169063 
L 213.595313 106.169063 
L 215.240625 107.2575 
L 215.789062 107.983125 
L 216.3375 107.983125 
L 216.885938 108.345938 
L 217.434375 108.345938 
L 219.628125 109.797188 
L 220.176563 109.797188 
L 221.273438 110.522813 
L 221.821875 110.522813 
L 223.467187 111.61125 
L 224.015625 112.336875 
L 224.564063 112.336875 
L 225.660938 113.0625 
L 226.209375 113.0625 
L 227.854688 114.150937 
L 228.951562 114.150937 
L 230.048438 114.876563 
L 230.596875 115.602188 
L 232.790625 117.053438 
L 233.339063 117.779063 
L 233.8875 117.779063 
L 235.532813 118.8675 
L 236.08125 118.8675 
L 236.629688 119.230313 
L 237.726562 119.230313 
L 239.371875 120.31875 
L 239.920312 120.31875 
L 242.6625 122.132812 
L 243.210938 122.858438 
L 244.307813 122.858438 
L 249.24375 126.12375 
L 249.792188 126.12375 
L 252.534375 127.937813 
L 253.082813 127.937813 
L 254.179688 128.663438 
L 255.276563 128.663438 
L 255.825 129.02625 
L 256.373438 129.751875 
L 256.921875 130.114688 
L 258.01875 130.114688 
L 259.115625 130.840313 
L 259.664062 130.840313 
L 261.309375 131.92875 
L 262.40625 133.38 
L 262.954687 133.742813 
L 263.503125 134.468438 
L 265.148438 135.556875 
L 265.696875 135.556875 
L 266.245313 135.919688 
L 266.79375 137.73375 
L 268.439062 138.822188 
L 268.9875 139.547813 
L 274.471875 143.175938 
L 275.020313 143.175938 
L 276.117188 143.901563 
L 276.665625 143.901563 
L 279.95625 146.078438 
L 280.504688 146.804063 
L 281.601562 147.529688 
L 282.15 148.255313 
L 283.246875 148.980938 
L 283.795313 148.980938 
L 284.34375 149.34375 
L 284.892187 149.34375 
L 288.73125 151.883438 
L 289.828125 151.883438 
L 290.376562 152.609063 
L 294.764063 155.511563 
L 295.3125 156.237188 
L 298.603125 158.414063 
L 299.151563 159.5025 
L 300.248438 160.228125 
L 300.248438 160.228125 
" clip-path="url(#pa0c4bab577)" style="fill: none; stroke: #e76f51; stroke-width: 1.8; stroke-linecap: square"/>
   </g>
   <g id="patch_3">
    <path d="M 54 388.8 
L 54 17.28 
" style="fill: none; stroke: #000000; stroke-width: 0.8; stroke-linejoin: miter; stroke-linecap: square"/>
   </g>
   <g id="patch_4">
    <path d="M 334.8 388.8 
L 334.8 17.28 
" style="fill: none; stroke: #000000; stroke-width: 0.8; stroke-linejoin: miter; stroke-linecap: square"/>
   </g>
   <g id="patch_5">
    <path d="M 54 388.8 
L 334.8 388.8 
" style="fill: none; stroke: #000000; stroke-width: 0.8; stroke-linejoin: miter; stroke-linecap: square"/>
   </g>
   <g id="patch_6">
    <path d="M 54 17.28 
L 334.8 17.28 
" style="fill: none; stroke: #000000; stroke-width: 0.8; stroke-linejoin: miter; stroke-linecap: square"/>
   </g>
   <g id="legend_1">
    <g id="patch_7">
     <path d="M 62.4 382.8 
L 147.28875 382.8 
Q 149.68875 382.8 149.68875 380.4 
L 149.68875 275.9175 
Q 149.68875 273.5175 147.28875 273.5175 
L 62.4 273.5175 
Q 60 273.5175 60 275.9175 
L 60 380.4 
Q 60 382.8 62.4 382.8 
z
" style="fill: #ffffff; opacity: 0.8; stroke: #cccccc; stroke-linejoin: miter"/>
    </g>
    <g id="line2d_35">
     <path d="M 64.8 283.235625 
L 76.8 283.235625 
L 88.8 283.235625 
" style="fill: none; stroke: #d80000; stroke-width: 1.8; stroke-linecap: square"/>
    </g>
    <g id="text_17">
     <!-- None -->
     <g transform="translate(98.4 287.435625) scale(0.12 -0.12)">
      <defs>
       <path id="DejaVuSans-4e" d="M 628 4666 
L 1478 4666 
L 3547 763 
L 3547 4666 
L 4159 4666 
L 4159 0 
L 3309 0 
L 1241 3903 
L 1241 0 
L 628 0 
L 628 4666 
z
" transform="scale(0.015625)"/>
       <path id="DejaVuSans-6e" d="M 3513 2113 
L 3513 0 
L 2938 0 
L 2938 2094 
Q 2938 2591 2744 2837 
Q 2550 3084 2163 3084 
Q 1697 3084 1428 2787 
Q 1159 2491 1159 1978 
L 1159 0 
L 581 0 
L 581 3500 
L 1159 3500 
L 1159 2956 
Q 1366 3272 1645 3428 
Q 1925 3584 2291 3584 
Q 2894 3584 3203 3211 
Q 3513 2838 3513 2113 
z
" transform="scale(0.015625)"/>
      </defs>
      <use xlink:href="#DejaVuSans-4e"/>
      <use xlink:href="#DejaVuSans-6f" x="74.804688"/>
      <use xlink:href="#DejaVuSans-6e" x="135.986328"/>
      <use xlink:href="#DejaVuSans-65" x="199.365234"/>
     </g>
    </g>
    <g id="line2d_36">
     <path d="M 64.8 300.849375 
L 76.8 300.849375 
L 88.8 300.849375 
" style="fill: none; stroke: #264653; stroke-width: 1.8; stroke-linecap: square"/>
    </g>
    <g id="text_18">
     <!-- HD -->
     <g transform="translate(98.4 305.049375) scale(0.12 -0.12)">
      <defs>
       <path id="DejaVuSans-48" d="M 628 4666 
L 1259 4666 
L 1259 2753 
L 3553 2753 
L 3553 4666 
L 4184 4666 
L 4184 0 
L 3553 0 
L 3553 2222 
L 1259 2222 
L 1259 0 
L 628 0 
L 628 4666 
z
" transform="scale(0.015625)"/>
       <path id="DejaVuSans-44" d="M 1259 4147 
L 1259 519 
L 2022 519 
Q 2988 519 3436 956 
Q 3884 1394 3884 2338 
Q 3884 3275 3436 3711 
Q 2988 4147 2022 4147 
L 1259 4147 
z
M 628 4666 
L 1925 4666 
Q 3281 4666 3915 4102 
Q 4550 3538 4550 2338 
Q 4550 1131 3912 565 
Q 3275 0 1925 0 
L 628 0 
L 628 4666 
z
" transform="scale(0.015625)"/>
      </defs>
      <use xlink:href="#DejaVuSans-48"/>
      <use xlink:href="#DejaVuSans-44" x="75.195312"/>
     </g>
    </g>
    <g id="line2d_37">
     <path d="M 64.8 318.463125 
L 76.8 318.463125 
L 88.8 318.463125 
" style="fill: none; stroke: #ffe211; stroke-width: 1.8; stroke-linecap: square"/>
    </g>
    <g id="text_19">
     <!-- GND -->
     <g transform="translate(98.4 322.663125) scale(0.12 -0.12)">
      <use xlink:href="#DejaVuSans-47"/>
      <use xlink:href="#DejaVuSans-4e" x="77.490234"/>
      <use xlink:href="#DejaVuSans-44" x="152.294922"/>
     </g>
    </g>
    <g id="line2d_38">
     <path d="M 64.8 336.076875 
L 76.8 336.076875 
L 88.8 336.076875 
" style="fill: none; stroke: #39c5bb; stroke-width: 1.8; stroke-linecap: square"/>
    </g>
    <g id="text_20">
     <!-- BT -->
     <g transform="translate(98.4 340.276875) scale(0.12 -0.12)">
      <defs>
       <path id="DejaVuSans-42" d="M 1259 2228 
L 1259 519 
L 2272 519 
Q 2781 519 3026 730 
Q 3272 941 3272 1375 
Q 3272 1813 3026 2020 
Q 2781 2228 2272 2228 
L 1259 2228 
z
M 1259 4147 
L 1259 2741 
L 2194 2741 
Q 2656 2741 2882 2914 
Q 3109 3088 3109 3444 
Q 3109 3797 2882 3972 
Q 2656 4147 2194 4147 
L 1259 4147 
z
M 628 4666 
L 2241 4666 
Q 2963 4666 3353 4366 
Q 3744 4066 3744 3513 
Q 3744 3084 3544 2831 
Q 3344 2578 2956 2516 
Q 3422 2416 3680 2098 
Q 3938 1781 3938 1306 
Q 3938 681 3513 340 
Q 3088 0 2303 0 
L 628 0 
L 628 4666 
z
" transform="scale(0.015625)"/>
       <path id="DejaVuSans-54" d="M -19 4666 
L 3928 4666 
L 3928 4134 
L 2272 4134 
L 2272 0 
L 1638 0 
L 1638 4134 
L -19 4134 
L -19 4666 
z
" transform="scale(0.015625)"/>
      </defs>
      <use xlink:href="#DejaVuSans-42"/>
      <use xlink:href="#DejaVuSans-54" x="68.603516"/>
     </g>
    </g>
    <g id="line2d_39">
     <path d="M 64.8 353.690625 
L 76.8 353.690625 
L 88.8 353.690625 
" style="fill: none; stroke: #2a9d8f; stroke-width: 1.8; stroke-linecap: square"/>
    </g>
    <g id="text_21">
     <!-- DSTS-K -->
     <g transform="translate(98.4 357.890625) scale(0.12 -0.12)">
      <defs>
       <path id="DejaVuSans-2d" d="M 313 2009 
L 1997 2009 
L 1997 1497 
L 313 1497 
L 313 2009 
z
" transform="scale(0.015625)"/>
       <path id="DejaVuSans-4b" d="M 628 4666 
L 1259 4666 
L 1259 2694 
L 3353 4666 
L 4166 4666 
L 1850 2491 
L 4331 0 
L 3500 0 
L 1259 2247 
L 1259 0 
L 628 0 
L 628 4666 
z
" transform="scale(0.015625)"/>
      </defs>
      <use xlink:href="#DejaVuSans-44"/>
      <use xlink:href="#DejaVuSans-53" x="77.001953"/>
      <use xlink:href="#DejaVuSans-54" x="140.478516"/>
      <use xlink:href="#DejaVuSans-53" x="201.5625"/>
      <use xlink:href="#DejaVuSans-2d" x="265.039062"/>
      <use xlink:href="#DejaVuSans-4b" x="301.123047"/>
     </g>
    </g>
    <g id="line2d_40">
     <path d="M 64.8 371.304375 
L 76.8 371.304375 
L 88.8 371.304375 
" style="fill: none; stroke: #e76f51; stroke-width: 1.8; stroke-linecap: square"/>
    </g>
    <g id="text_22">
     <!-- DSTS-M -->
     <g transform="translate(98.4 375.504375) scale(0.12 -0.12)">
      <defs>
       <path id="DejaVuSans-4d" d="M 628 4666 
L 1569 4666 
L 2759 1491 
L 3956 4666 
L 4897 4666 
L 4897 0 
L 4281 0 
L 4281 4097 
L 3078 897 
L 2444 897 
L 1241 4097 
L 1241 0 
L 628 0 
L 628 4666 
z
" transform="scale(0.015625)"/>
      </defs>
      <use xlink:href="#DejaVuSans-44"/>
      <use xlink:href="#DejaVuSans-53" x="77.001953"/>
      <use xlink:href="#DejaVuSans-54" x="140.478516"/>
      <use xlink:href="#DejaVuSans-53" x="201.5625"/>
      <use xlink:href="#DejaVuSans-2d" x="265.039062"/>
      <use xlink:href="#DejaVuSans-4d" x="301.123047"/>
     </g>
    </g>
   </g>
  </g>
 </g>
 <defs>
  <clipPath id="pa0c4bab577">
   <rect x="54" y="17.28" width="280.8" height="371.52"/>
  </clipPath>
 </defs>
</svg>
