<?xml version="1.0" encoding="utf-8" standalone="no"?>
<!DOCTYPE svg PUBLIC "-//W3C//DTD SVG 1.1//EN"
  "http://www.w3.org/Graphics/SVG/1.1/DTD/svg11.dtd">
<svg xmlns:xlink="http://www.w3.org/1999/xlink" width="360pt" height="432pt" viewBox="0 0 360 432" xmlns="http://www.w3.org/2000/svg" version="1.1">
 <metadata>
  <rdf:RDF xmlns:dc="http://purl.org/dc/elements/1.1/" xmlns:cc="http://creativecommons.org/ns#" xmlns:rdf="http://www.w3.org/1999/02/22-rdf-syntax-ns#">
   <cc:Work>
    <dc:type rdf:resource="http://purl.org/dc/dcmitype/StillImage"/>
    <dc:date>2026-04-01T10:39:53.338364</dc:date>
    <dc:format>image/svg+xml</dc:format>
    <dc:creator>
     <cc:Agent>
      <dc:title>Matplotlib v3.6.3, https://matplotlib.org/</dc:title>
     </cc:Agent>
    </dc:creator>
   </cc:Work>
  </rdf:RDF>
 </metadata>
 <defs>
  <style type="text/css">*{stroke-linejoin: round; stroke-linecap: butt}</style>
 </defs>
 <g id="figure_1">
  <g id="patch_1">
   <path d="M 0 432 
L 360 432 
L 360 0 
L 0 0 
z
" style="fill: #ffffff"/>
  </g>
  <g id="axes_1">
   <g id="patch_2">
    <path d="M 54 388.8 
L 334.8 388.8 
L 334.8 17.28 
L 54 17.28 
z
" style="fill: #ffffff"/>
   </g>
   <g id="matplotlib.axis_1">
    <g id="xtick_1">
     <g id="line2d_1">
      <path d="M 54 388.8 
L 54 17.28 
" clip-path="url(#pb5916d5da1)" style="fill: none; stroke: #000000; stroke-opacity: 0.1; stroke-width: 0.7; stroke-linecap: square"/>
     </g>
     <g id="line2d_2">
      <defs>
       <path id="ma21b5e8739" d="M 0 0 
L 0 3.5 
" style="stroke: #000000; stroke-width: 0.8"/>
      </defs>
      <g>
       <use xlink:href="#ma21b5e8739" x="54" y="388.8" style="stroke: #000000; stroke-width: 0.8"/>
      </g>
     </g>
     <g id="text_1">
      <!-- 0.00 -->
      <g transform="translate(39.527344 405.677969) scale(0.13 -0.13)">
       <defs>
        <path id="DejaVuSans-30" d="M 2034 4250 
Q 1547 4250 1301 3770 
Q 1056 3291 1056 2328 
Q 1056 1369 1301 889 
Q 1547 409 2034 409 
Q 2525 409 2770 889 
Q 3016 1369 3016 2328 
Q 3016 3291 2770 3770 
Q 2525 4250 2034 4250 
z
M 2034 4750 
Q 2819 4750 3233 4129 
Q 3647 3509 3647 2328 
Q 3647 1150 3233 529 
Q 2819 -91 2034 -91 
Q 1250 -91 836 529 
Q 422 1150 422 2328 
Q 422 3509 836 4129 
Q 1250 4750 2034 4750 
z
" transform="scale(0.015625)"/>
        <path id="DejaVuSans-2e" d="M 684 794 
L 1344 794 
L 1344 0 
L 684 0 
L 684 794 
z
" transform="scale(0.015625)"/>
       </defs>
       <use xlink:href="#DejaVuSans-30"/>
       <use xlink:href="#DejaVuSans-2e" x="63.623047"/>
       <use xlink:href="#DejaVuSans-30" x="95.410156"/>
       <use xlink:href="#DejaVuSans-30" x="159.033203"/>
      </g>
     </g>
    </g>
    <g id="xtick_2">
     <g id="line2d_3">
      <path d="M 194.4 388.8 
L 194.4 17.28 
" clip-path="url(#pb5916d5da1)" style="fill: none; stroke: #000000; stroke-opacity: 0.1; stroke-width: 0.7; stroke-linecap: square"/>
     </g>
     <g id="line2d_4">
      <g>
       <use xlink:href="#ma21b5e8739" x="194.4" y="388.8" style="stroke: #000000; stroke-width: 0.8"/>
      </g>
     </g>
     <g id="text_2">
      <!-- 0.25 -->
      <g transform="translate(179.927344 405.677969) scale(0.13 -0.13)">
       <defs>
        <path id="DejaVuSans-32" d="M 1228 531 
L 3431 531 
L 3431 0 
L 469 0 
L 469 531 
Q 828 903 1448 1529 
Q 2069 2156 2228 2338 
Q 2531 2678 2651 2914 
Q 2772 3150 2772 3378 
Q 2772 3750 2511 3984 
Q 2250 4219 1831 4219 
Q 1534 4219 1204 4116 
Q 875 4013 500 3803 
L 500 4441 
Q 881 4594 1212 4672 
Q 1544 4750 1819 4750 
Q 2544 4750 2975 4387 
Q 3406 4025 3406 3419 
Q 3406 3131 3298 2873 
Q 3191 2616 2906 2266 
Q 2828 2175 2409 1742 
Q 1991 1309 1228 531 
z
" transform="scale(0.015625)"/>
        <path id="DejaVuSans-35" d="M 691 4666 
L 3169 4666 
L 3169 4134 
L 1269 4134 
L 1269 2991 
Q 1406 3038 1543 3061 
Q 1681 3084 1819 3084 
Q 2600 3084 3056 2656 
Q 3513 2228 3513 1497 
Q 3513 744 3044 326 
Q 2575 -91 1722 -91 
Q 1428 -91 1123 -41 
Q 819 9 494 109 
L 494 744 
Q 775 591 1075 516 
Q 1375 441 1709 441 
Q 2250 441 2565 725 
Q 2881 1009 2881 1497 
Q 2881 1984 2565 2268 
Q 2250 2553 1709 2553 
Q 1456 2553 1204 2497 
Q 953 2441 691 2322 
L 691 4666 
z
" transform="scale(0.015625)"/>
       </defs>
       <use xlink:href="#DejaVuSans-30"/>
       <use xlink:href="#DejaVuSans-2e" x="63.623047"/>
       <use xlink:href="#DejaVuSans-32" x="95.410156"/>
       <use xlink:href="#DejaVuSans-35" x="159.033203"/>
      </g>
     </g>
    </g>
    <g id="xtick_3">
     <g id="line2d_5">
      <path d="M 334.8 388.8 
L 334.8 17.28 
" clip-path="url(#pb5916d5da1)" style="fill: none; stroke: #000000; stroke-opacity: 0.1; stroke-width: 0.7; stroke-linecap: square"/>
     </g>
     <g id="line2d_6">
      <g>
       <use xlink:href="#ma21b5e8739" x="334.8" y="388.8" style="stroke: #000000; stroke-width: 0.8"/>
      </g>
     </g>
     <g id="text_3">
      <!-- 0.50 -->
      <g transform="translate(320.327344 405.677969) scale(0.13 -0.13)">
       <use xlink:href="#DejaVuSans-30"/>
       <use xlink:href="#DejaVuSans-2e" x="63.623047"/>
       <use xlink:href="#DejaVuSans-35" x="95.410156"/>
       <use xlink:href="#DejaVuSans-30" x="159.033203"/>
      </g>
     </g>
    </g>
    <g id="text_4">
     <!-- Attack Ratio -->
     <g transform="translate(145.78375 424.539062) scale(0.16 -0.16)">
      <defs>
       <path id="DejaVuSans-41" d="M 2188 4044 
L 1331 1722 
L 3047 1722 
L 2188 4044 
z
M 1831 4666 
L 2547 4666 
L 4325 0 
L 3669 0 
L 3244 1197 
L 1141 1197 
L 716 0 
L 50 0 
L 1831 4666 
z
" transform="scale(0.015625)"/>
       <path id="DejaVuSans-74" d="M 1172 4494 
L 1172 3500 
L 2356 3500 
L 2356 3053 
L 1172 3053 
L 1172 1153 
Q 1172 725 1289 603 
Q 1406 481 1766 481 
L 2356 481 
L 2356 0 
L 1766 0 
Q 1100 0 847 248 
Q 594 497 594 1153 
L 594 3053 
L 172 3053 
L 172 3500 
L 594 3500 
L 594 4494 
L 1172 4494 
z
" transform="scale(0.015625)"/>
       <path id="DejaVuSans-61" d="M 2194 1759 
Q 1497 1759 1228 1600 
Q 959 1441 959 1056 
Q 959 750 1161 570 
Q 1363 391 1709 391 
Q 2188 391 2477 730 
Q 2766 1069 2766 1631 
L 2766 1759 
L 2194 1759 
z
M 3341 1997 
L 3341 0 
L 2766 0 
L 2766 531 
Q 2569 213 2275 61 
Q 1981 -91 1556 -91 
Q 1019 -91 701 211 
Q 384 513 384 1019 
Q 384 1609 779 1909 
Q 1175 2209 1959 2209 
L 2766 2209 
L 2766 2266 
Q 2766 2663 2505 2880 
Q 2244 3097 1772 3097 
Q 1472 3097 1187 3025 
Q 903 2953 641 2809 
L 641 3341 
Q 956 3463 1253 3523 
Q 1550 3584 1831 3584 
Q 2591 3584 2966 3190 
Q 3341 2797 3341 1997 
z
" transform="scale(0.015625)"/>
       <path id="DejaVuSans-63" d="M 3122 3366 
L 3122 2828 
Q 2878 2963 2633 3030 
Q 2388 3097 2138 3097 
Q 1578 3097 1268 2742 
Q 959 2388 959 1747 
Q 959 1106 1268 751 
Q 1578 397 2138 397 
Q 2388 397 2633 464 
Q 2878 531 3122 666 
L 3122 134 
Q 2881 22 2623 -34 
Q 2366 -91 2075 -91 
Q 1284 -91 818 406 
Q 353 903 353 1747 
Q 353 2603 823 3093 
Q 1294 3584 2113 3584 
Q 2378 3584 2631 3529 
Q 2884 3475 3122 3366 
z
" transform="scale(0.015625)"/>
       <path id="DejaVuSans-6b" d="M 581 4863 
L 1159 4863 
L 1159 1991 
L 2875 3500 
L 3609 3500 
L 1753 1863 
L 3688 0 
L 2938 0 
L 1159 1709 
L 1159 0 
L 581 0 
L 581 4863 
z
" transform="scale(0.015625)"/>
       <path id="DejaVuSans-20" transform="scale(0.015625)"/>
       <path id="DejaVuSans-52" d="M 2841 2188 
Q 3044 2119 3236 1894 
Q 3428 1669 3622 1275 
L 4263 0 
L 3584 0 
L 2988 1197 
Q 2756 1666 2539 1819 
Q 2322 1972 1947 1972 
L 1259 1972 
L 1259 0 
L 628 0 
L 628 4666 
L 2053 4666 
Q 2853 4666 3247 4331 
Q 3641 3997 3641 3322 
Q 3641 2881 3436 2590 
Q 3231 2300 2841 2188 
z
M 1259 4147 
L 1259 2491 
L 2053 2491 
Q 2509 2491 2742 2702 
Q 2975 2913 2975 3322 
Q 2975 3731 2742 3939 
Q 2509 4147 2053 4147 
L 1259 4147 
z
" transform="scale(0.015625)"/>
       <path id="DejaVuSans-69" d="M 603 3500 
L 1178 3500 
L 1178 0 
L 603 0 
L 603 3500 
z
M 603 4863 
L 1178 4863 
L 1178 4134 
L 603 4134 
L 603 4863 
z
" transform="scale(0.015625)"/>
       <path id="DejaVuSans-6f" d="M 1959 3097 
Q 1497 3097 1228 2736 
Q 959 2375 959 1747 
Q 959 1119 1226 758 
Q 1494 397 1959 397 
Q 2419 397 2687 759 
Q 2956 1122 2956 1747 
Q 2956 2369 2687 2733 
Q 2419 3097 1959 3097 
z
M 1959 3584 
Q 2709 3584 3137 3096 
Q 3566 2609 3566 1747 
Q 3566 888 3137 398 
Q 2709 -91 1959 -91 
Q 1206 -91 779 398 
Q 353 888 353 1747 
Q 353 2609 779 3096 
Q 1206 3584 1959 3584 
z
" transform="scale(0.015625)"/>
      </defs>
      <use xlink:href="#DejaVuSans-41"/>
      <use xlink:href="#DejaVuSans-74" x="66.658203"/>
      <use xlink:href="#DejaVuSans-74" x="105.867188"/>
      <use xlink:href="#DejaVuSans-61" x="145.076172"/>
      <use xlink:href="#DejaVuSans-63" x="206.355469"/>
      <use xlink:href="#DejaVuSans-6b" x="261.335938"/>
      <use xlink:href="#DejaVuSans-20" x="319.246094"/>
      <use xlink:href="#DejaVuSans-52" x="351.033203"/>
      <use xlink:href="#DejaVuSans-61" x="418.265625"/>
      <use xlink:href="#DejaVuSans-74" x="479.544922"/>
      <use xlink:href="#DejaVuSans-69" x="518.753906"/>
      <use xlink:href="#DejaVuSans-6f" x="546.537109"/>
     </g>
    </g>
   </g>
   <g id="matplotlib.axis_2">
    <g id="ytick_1">
     <g id="line2d_7">
      <path d="M 54 388.8 
L 334.8 388.8 
" clip-path="url(#pb5916d5da1)" style="fill: none; stroke: #000000; stroke-opacity: 0.1; stroke-width: 0.7; stroke-linecap: square"/>
     </g>
     <g id="line2d_8">
      <defs>
       <path id="m7afc93341a" d="M 0 0 
L -3.5 0 
" style="stroke: #000000; stroke-width: 0.8"/>
      </defs>
      <g>
       <use xlink:href="#m7afc93341a" x="54" y="388.8" style="stroke: #000000; stroke-width: 0.8"/>
      </g>
     </g>
     <g id="text_5">
      <!-- 0.0 -->
      <g transform="translate(26.325937 393.738984) scale(0.13 -0.13)">
       <use xlink:href="#DejaVuSans-30"/>
       <use xlink:href="#DejaVuSans-2e" x="63.623047"/>
       <use xlink:href="#DejaVuSans-30" x="95.410156"/>
      </g>
     </g>
    </g>
    <g id="ytick_2">
     <g id="line2d_9">
      <path d="M 54 351.648 
L 334.8 351.648 
" clip-path="url(#pb5916d5da1)" style="fill: none; stroke: #000000; stroke-opacity: 0.1; stroke-width: 0.7; stroke-linecap: square"/>
     </g>
     <g id="line2d_10">
      <g>
       <use xlink:href="#m7afc93341a" x="54" y="351.648" style="stroke: #000000; stroke-width: 0.8"/>
      </g>
     </g>
     <g id="text_6">
      <!-- 0.1 -->
      <g transform="translate(26.325937 356.586984) scale(0.13 -0.13)">
       <defs>
        <path id="DejaVuSans-31" d="M 794 531 
L 1825 531 
L 1825 4091 
L 703 3866 
L 703 4441 
L 1819 4666 
L 2450 4666 
L 2450 531 
L 3481 531 
L 3481 0 
L 794 0 
L 794 531 
z
" transform="scale(0.015625)"/>
       </defs>
       <use xlink:href="#DejaVuSans-30"/>
       <use xlink:href="#DejaVuSans-2e" x="63.623047"/>
       <use xlink:href="#DejaVuSans-31" x="95.410156"/>
      </g>
     </g>
    </g>
    <g id="ytick_3">
     <g id="line2d_11">
      <path d="M 54 314.496 
L 334.8 314.496 
" clip-path="url(#pb5916d5da1)" style="fill: none; stroke: #000000; stroke-opacity: 0.1; stroke-width: 0.7; stroke-linecap: square"/>
     </g>
     <g id="line2d_12">
      <g>
       <use xlink:href="#m7afc93341a" x="54" y="314.496" style="stroke: #000000; stroke-width: 0.8"/>
      </g>
     </g>
     <g id="text_7">
      <!-- 0.2 -->
      <g transform="translate(26.325937 319.434984) scale(0.13 -0.13)">
       <use xlink:href="#DejaVuSans-30"/>
       <use xlink:href="#DejaVuSans-2e" x="63.623047"/>
       <use xlink:href="#DejaVuSans-32" x="95.410156"/>
      </g>
     </g>
    </g>
    <g id="ytick_4">
     <g id="line2d_13">
      <path d="M 54 277.344 
L 334.8 277.344 
" clip-path="url(#pb5916d5da1)" style="fill: none; stroke: #000000; stroke-opacity: 0.1; stroke-width: 0.7; stroke-linecap: square"/>
     </g>
     <g id="line2d_14">
      <g>
       <use xlink:href="#m7afc93341a" x="54" y="277.344" style="stroke: #000000; stroke-width: 0.8"/>
      </g>
     </g>
     <g id="text_8">
      <!-- 0.3 -->
      <g transform="translate(26.325937 282.282984) scale(0.13 -0.13)">
       <defs>
        <path id="DejaVuSans-33" d="M 2597 2516 
Q 3050 2419 3304 2112 
Q 3559 1806 3559 1356 
Q 3559 666 3084 287 
Q 2609 -91 1734 -91 
Q 1441 -91 1130 -33 
Q 819 25 488 141 
L 488 750 
Q 750 597 1062 519 
Q 1375 441 1716 441 
Q 2309 441 2620 675 
Q 2931 909 2931 1356 
Q 2931 1769 2642 2001 
Q 2353 2234 1838 2234 
L 1294 2234 
L 1294 2753 
L 1863 2753 
Q 2328 2753 2575 2939 
Q 2822 3125 2822 3475 
Q 2822 3834 2567 4026 
Q 2313 4219 1838 4219 
Q 1578 4219 1281 4162 
Q 984 4106 628 3988 
L 628 4550 
Q 988 4650 1302 4700 
Q 1616 4750 1894 4750 
Q 2613 4750 3031 4423 
Q 3450 4097 3450 3541 
Q 3450 3153 3228 2886 
Q 3006 2619 2597 2516 
z
" transform="scale(0.015625)"/>
       </defs>
       <use xlink:href="#DejaVuSans-30"/>
       <use xlink:href="#DejaVuSans-2e" x="63.623047"/>
       <use xlink:href="#DejaVuSans-33" x="95.410156"/>
      </g>
     </g>
    </g>
    <g id="ytick_5">
     <g id="line2d_15">
      <path d="M 54 240.192 
L 334.8 240.192 
" clip-path="url(#pb5916d5da1)" style="fill: none; stroke: #000000; stroke-opacity: 0.1; stroke-width: 0.7; stroke-linecap: square"/>
     </g>
     <g id="line2d_16">
      <g>
       <use xlink:href="#m7afc93341a" x="54" y="240.192" style="stroke: #000000; stroke-width: 0.8"/>
      </g>
     </g>
     <g id="text_9">
      <!-- 0.4 -->
      <g transform="translate(26.325937 245.130984) scale(0.13 -0.13)">
       <defs>
        <path id="DejaVuSans-34" d="M 2419 4116 
L 825 1625 
L 2419 1625 
L 2419 4116 
z
M 2253 4666 
L 3047 4666 
L 3047 1625 
L 3713 1625 
L 3713 1100 
L 3047 1100 
L 3047 0 
L 2419 0 
L 2419 1100 
L 313 1100 
L 313 1709 
L 2253 4666 
z
" transform="scale(0.015625)"/>
       </defs>
       <use xlink:href="#DejaVuSans-30"/>
       <use xlink:href="#DejaVuSans-2e" x="63.623047"/>
       <use xlink:href="#DejaVuSans-34" x="95.410156"/>
      </g>
     </g>
    </g>
    <g id="ytick_6">
     <g id="line2d_17">
      <path d="M 54 203.04 
L 334.8 203.04 
" clip-path="url(#pb5916d5da1)" style="fill: none; stroke: #000000; stroke-opacity: 0.1; stroke-width: 0.7; stroke-linecap: square"/>
     </g>
     <g id="line2d_18">
      <g>
       <use xlink:href="#m7afc93341a" x="54" y="203.04" style="stroke: #000000; stroke-width: 0.8"/>
      </g>
     </g>
     <g id="text_10">
      <!-- 0.5 -->
      <g transform="translate(26.325937 207.978984) scale(0.13 -0.13)">
       <use xlink:href="#DejaVuSans-30"/>
       <use xlink:href="#DejaVuSans-2e" x="63.623047"/>
       <use xlink:href="#DejaVuSans-35" x="95.410156"/>
      </g>
     </g>
    </g>
    <g id="ytick_7">
     <g id="line2d_19">
      <path d="M 54 165.888 
L 334.8 165.888 
" clip-path="url(#pb5916d5da1)" style="fill: none; stroke: #000000; stroke-opacity: 0.1; stroke-width: 0.7; stroke-linecap: square"/>
     </g>
     <g id="line2d_20">
      <g>
       <use xlink:href="#m7afc93341a" x="54" y="165.888" style="stroke: #000000; stroke-width: 0.8"/>
      </g>
     </g>
     <g id="text_11">
      <!-- 0.6 -->
      <g transform="translate(26.325937 170.826984) scale(0.13 -0.13)">
       <defs>
        <path id="DejaVuSans-36" d="M 2113 2584 
Q 1688 2584 1439 2293 
Q 1191 2003 1191 1497 
Q 1191 994 1439 701 
Q 1688 409 2113 409 
Q 2538 409 2786 701 
Q 3034 994 3034 1497 
Q 3034 2003 2786 2293 
Q 2538 2584 2113 2584 
z
M 3366 4563 
L 3366 3988 
Q 3128 4100 2886 4159 
Q 2644 4219 2406 4219 
Q 1781 4219 1451 3797 
Q 1122 3375 1075 2522 
Q 1259 2794 1537 2939 
Q 1816 3084 2150 3084 
Q 2853 3084 3261 2657 
Q 3669 2231 3669 1497 
Q 3669 778 3244 343 
Q 2819 -91 2113 -91 
Q 1303 -91 875 529 
Q 447 1150 447 2328 
Q 447 3434 972 4092 
Q 1497 4750 2381 4750 
Q 2619 4750 2861 4703 
Q 3103 4656 3366 4563 
z
" transform="scale(0.015625)"/>
       </defs>
       <use xlink:href="#DejaVuSans-30"/>
       <use xlink:href="#DejaVuSans-2e" x="63.623047"/>
       <use xlink:href="#DejaVuSans-36" x="95.410156"/>
      </g>
     </g>
    </g>
    <g id="ytick_8">
     <g id="line2d_21">
      <path d="M 54 128.736 
L 334.8 128.736 
" clip-path="url(#pb5916d5da1)" style="fill: none; stroke: #000000; stroke-opacity: 0.1; stroke-width: 0.7; stroke-linecap: square"/>
     </g>
     <g id="line2d_22">
      <g>
       <use xlink:href="#m7afc93341a" x="54" y="128.736" style="stroke: #000000; stroke-width: 0.8"/>
      </g>
     </g>
     <g id="text_12">
      <!-- 0.7 -->
      <g transform="translate(26.325937 133.674984) scale(0.13 -0.13)">
       <defs>
        <path id="DejaVuSans-37" d="M 525 4666 
L 3525 4666 
L 3525 4397 
L 1831 0 
L 1172 0 
L 2766 4134 
L 525 4134 
L 525 4666 
z
" transform="scale(0.015625)"/>
       </defs>
       <use xlink:href="#DejaVuSans-30"/>
       <use xlink:href="#DejaVuSans-2e" x="63.623047"/>
       <use xlink:href="#DejaVuSans-37" x="95.410156"/>
      </g>
     </g>
    </g>
    <g id="ytick_9">
     <g id="line2d_23">
      <path d="M 54 91.584 
L 334.8 91.584 
" clip-path="url(#pb5916d5da1)" style="fill: none; stroke: #000000; stroke-opacity: 0.1; stroke-width: 0.7; stroke-linecap: square"/>
     </g>
     <g id="line2d_24">
      <g>
       <use xlink:href="#m7afc93341a" x="54" y="91.584" style="stroke: #000000; stroke-width: 0.8"/>
      </g>
     </g>
     <g id="text_13">
      <!-- 0.8 -->
      <g transform="translate(26.325937 96.522984) scale(0.13 -0.13)">
       <defs>
        <path id="DejaVuSans-38" d="M 2034 2216 
Q 1584 2216 1326 1975 
Q 1069 1734 1069 1313 
Q 1069 891 1326 650 
Q 1584 409 2034 409 
Q 2484 409 2743 651 
Q 3003 894 3003 1313 
Q 3003 1734 2745 1975 
Q 2488 2216 2034 2216 
z
M 1403 2484 
Q 997 2584 770 2862 
Q 544 3141 544 3541 
Q 544 4100 942 4425 
Q 1341 4750 2034 4750 
Q 2731 4750 3128 4425 
Q 3525 4100 3525 3541 
Q 3525 3141 3298 2862 
Q 3072 2584 2669 2484 
Q 3125 2378 3379 2068 
Q 3634 1759 3634 1313 
Q 3634 634 3220 271 
Q 2806 -91 2034 -91 
Q 1263 -91 848 271 
Q 434 634 434 1313 
Q 434 1759 690 2068 
Q 947 2378 1403 2484 
z
M 1172 3481 
Q 1172 3119 1398 2916 
Q 1625 2713 2034 2713 
Q 2441 2713 2670 2916 
Q 2900 3119 2900 3481 
Q 2900 3844 2670 4047 
Q 2441 4250 2034 4250 
Q 1625 4250 1398 4047 
Q 1172 3844 1172 3481 
z
" transform="scale(0.015625)"/>
       </defs>
       <use xlink:href="#DejaVuSans-30"/>
       <use xlink:href="#DejaVuSans-2e" x="63.623047"/>
       <use xlink:href="#DejaVuSans-38" x="95.410156"/>
      </g>
     </g>
    </g>
    <g id="ytick_10">
     <g id="line2d_25">
      <path d="M 54 54.432 
L 334.8 54.432 
" clip-path="url(#pb5916d5da1)" style="fill: none; stroke: #000000; stroke-opacity: 0.1; stroke-width: 0.7; stroke-linecap: square"/>
     </g>
     <g id="line2d_26">
      <g>
       <use xlink:href="#m7afc93341a" x="54" y="54.432" style="stroke: #000000; stroke-width: 0.8"/>
      </g>
     </g>
     <g id="text_14">
      <!-- 0.9 -->
      <g transform="translate(26.325937 59.370984) scale(0.13 -0.13)">
       <defs>
        <path id="DejaVuSans-39" d="M 703 97 
L 703 672 
Q 941 559 1184 500 
Q 1428 441 1663 441 
Q 2288 441 2617 861 
Q 2947 1281 2994 2138 
Q 2813 1869 2534 1725 
Q 2256 1581 1919 1581 
Q 1219 1581 811 2004 
Q 403 2428 403 3163 
Q 403 3881 828 4315 
Q 1253 4750 1959 4750 
Q 2769 4750 3195 4129 
Q 3622 3509 3622 2328 
Q 3622 1225 3098 567 
Q 2575 -91 1691 -91 
Q 1453 -91 1209 -44 
Q 966 3 703 97 
z
M 1959 2075 
Q 2384 2075 2632 2365 
Q 2881 2656 2881 3163 
Q 2881 3666 2632 3958 
Q 2384 4250 1959 4250 
Q 1534 4250 1286 3958 
Q 1038 3666 1038 3163 
Q 1038 2656 1286 2365 
Q 1534 2075 1959 2075 
z
" transform="scale(0.015625)"/>
       </defs>
       <use xlink:href="#DejaVuSans-30"/>
       <use xlink:href="#DejaVuSans-2e" x="63.623047"/>
       <use xlink:href="#DejaVuSans-39" x="95.410156"/>
      </g>
     </g>
    </g>
    <g id="ytick_11">
     <g id="line2d_27">
      <path d="M 54 17.28 
L 334.8 17.28 
" clip-path="url(#pb5916d5da1)" style="fill: none; stroke: #000000; stroke-opacity: 0.1; stroke-width: 0.7; stroke-linecap: square"/>
     </g>
     <g id="line2d_28">
      <g>
       <use xlink:href="#m7afc93341a" x="54" y="17.28" style="stroke: #000000; stroke-width: 0.8"/>
      </g>
     </g>
     <g id="text_15">
      <!-- 1.0 -->
      <g transform="translate(26.325937 22.218984) scale(0.13 -0.13)">
       <use xlink:href="#DejaVuSans-31"/>
       <use xlink:href="#DejaVuSans-2e" x="63.623047"/>
       <use xlink:href="#DejaVuSans-30" x="95.410156"/>
      </g>
     </g>
    </g>
    <g id="text_16">
     <!-- GCC Size -->
     <g transform="translate(18.998437 239.37625) rotate(-90) scale(0.16 -0.16)">
      <defs>
       <path id="DejaVuSans-47" d="M 3809 666 
L 3809 1919 
L 2778 1919 
L 2778 2438 
L 4434 2438 
L 4434 434 
Q 4069 175 3628 42 
Q 3188 -91 2688 -91 
Q 1594 -91 976 548 
Q 359 1188 359 2328 
Q 359 3472 976 4111 
Q 1594 4750 2688 4750 
Q 3144 4750 3555 4637 
Q 3966 4525 4313 4306 
L 4313 3634 
Q 3963 3931 3569 4081 
Q 3175 4231 2741 4231 
Q 1884 4231 1454 3753 
Q 1025 3275 1025 2328 
Q 1025 1384 1454 906 
Q 1884 428 2741 428 
Q 3075 428 3337 486 
Q 3600 544 3809 666 
z
" transform="scale(0.015625)"/>
       <path id="DejaVuSans-43" d="M 4122 4306 
L 4122 3641 
Q 3803 3938 3442 4084 
Q 3081 4231 2675 4231 
Q 1875 4231 1450 3742 
Q 1025 3253 1025 2328 
Q 1025 1406 1450 917 
Q 1875 428 2675 428 
Q 3081 428 3442 575 
Q 3803 722 4122 1019 
L 4122 359 
Q 3791 134 3420 21 
Q 3050 -91 2638 -91 
Q 1578 -91 968 557 
Q 359 1206 359 2328 
Q 359 3453 968 4101 
Q 1578 4750 2638 4750 
Q 3056 4750 3426 4639 
Q 3797 4528 4122 4306 
z
" transform="scale(0.015625)"/>
       <path id="DejaVuSans-53" d="M 3425 4513 
L 3425 3897 
Q 3066 4069 2747 4153 
Q 2428 4238 2131 4238 
Q 1616 4238 1336 4038 
Q 1056 3838 1056 3469 
Q 1056 3159 1242 3001 
Q 1428 2844 1947 2747 
L 2328 2669 
Q 3034 2534 3370 2195 
Q 3706 1856 3706 1288 
Q 3706 609 3251 259 
Q 2797 -91 1919 -91 
Q 1588 -91 1214 -16 
Q 841 59 441 206 
L 441 856 
Q 825 641 1194 531 
Q 1563 422 1919 422 
Q 2459 422 2753 634 
Q 3047 847 3047 1241 
Q 3047 1584 2836 1778 
Q 2625 1972 2144 2069 
L 1759 2144 
Q 1053 2284 737 2584 
Q 422 2884 422 3419 
Q 422 4038 858 4394 
Q 1294 4750 2059 4750 
Q 2388 4750 2728 4690 
Q 3069 4631 3425 4513 
z
" transform="scale(0.015625)"/>
       <path id="DejaVuSans-7a" d="M 353 3500 
L 3084 3500 
L 3084 2975 
L 922 459 
L 3084 459 
L 3084 0 
L 275 0 
L 275 525 
L 2438 3041 
L 353 3041 
L 353 3500 
z
" transform="scale(0.015625)"/>
       <path id="DejaVuSans-65" d="M 3597 1894 
L 3597 1613 
L 953 1613 
Q 991 1019 1311 708 
Q 1631 397 2203 397 
Q 2534 397 2845 478 
Q 3156 559 3463 722 
L 3463 178 
Q 3153 47 2828 -22 
Q 2503 -91 2169 -91 
Q 1331 -91 842 396 
Q 353 884 353 1716 
Q 353 2575 817 3079 
Q 1281 3584 2069 3584 
Q 2775 3584 3186 3129 
Q 3597 2675 3597 1894 
z
M 3022 2063 
Q 3016 2534 2758 2815 
Q 2500 3097 2075 3097 
Q 1594 3097 1305 2825 
Q 1016 2553 972 2059 
L 3022 2063 
z
" transform="scale(0.015625)"/>
      </defs>
      <use xlink:href="#DejaVuSans-47"/>
      <use xlink:href="#DejaVuSans-43" x="77.490234"/>
      <use xlink:href="#DejaVuSans-43" x="147.314453"/>
      <use xlink:href="#DejaVuSans-20" x="217.138672"/>
      <use xlink:href="#DejaVuSans-53" x="248.925781"/>
      <use xlink:href="#DejaVuSans-69" x="312.402344"/>
      <use xlink:href="#DejaVuSans-7a" x="340.185547"/>
      <use xlink:href="#DejaVuSans-65" x="392.675781"/>
     </g>
    </g>
   </g>
   <g id="line2d_29">
    <path d="M 54.148768 17.378416 
L 54.446305 18.756238 
L 54.595073 18.854654 
L 54.892609 19.248318 
L 55.338914 19.641981 
L 55.63645 20.134061 
L 55.785219 20.232477 
L 56.082755 20.62614 
L 56.231523 21.610299 
L 56.677828 22.299211 
L 56.826596 24.070697 
L 57.124132 24.46436 
L 58.16551 25.251687 
L 58.463046 25.645351 
L 58.611815 25.743767 
L 58.760583 27.023174 
L 59.058119 27.515253 
L 59.206887 27.613669 
L 59.504424 28.30258 
L 59.950728 32.534464 
L 60.248265 33.420207 
L 60.397033 34.896445 
L 60.843338 35.880604 
L 60.992106 36.667931 
L 61.289642 36.963179 
L 61.438411 37.455258 
L 61.587179 40.899815 
L 61.884715 41.096646 
L 62.033483 41.391894 
L 62.182252 42.868132 
L 62.33102 43.064964 
L 62.628556 44.049123 
L 62.777325 44.147539 
L 62.926093 44.541203 
L 63.223629 44.639619 
L 63.521166 45.426946 
L 64.116238 46.312689 
L 64.413775 46.804768 
L 64.711311 47.0016 
L 64.860079 47.493679 
L 65.008848 47.592095 
L 65.157616 48.182591 
L 65.603921 48.477838 
L 65.752689 49.461997 
L 65.901457 49.560413 
L 66.050225 51.036652 
L 66.49653 51.430315 
L 66.794066 51.922395 
L 66.942834 52.020811 
L 67.240371 52.414474 
L 67.537907 52.709722 
L 68.13298 53.103385 
L 69.025589 54.776456 
L 69.471894 55.170119 
L 69.76943 56.154278 
L 70.066967 56.843189 
L 70.364503 57.138437 
L 70.959576 57.827348 
L 71.405881 58.221012 
L 71.554649 58.417844 
L 71.703417 59.106755 
L 72.149722 59.500419 
L 72.29849 60.287746 
L 72.447258 60.386162 
L 72.596026 61.173489 
L 72.744795 61.271905 
L 73.042331 61.763984 
L 73.191099 61.8624 
L 73.339868 62.452895 
L 73.93494 62.944975 
L 74.083709 63.240223 
L 74.232477 66.586363 
L 74.530013 67.078442 
L 74.976318 67.964185 
L 75.273854 68.948344 
L 75.571391 69.735672 
L 75.720159 69.834087 
L 76.017695 70.326167 
L 76.315232 70.522999 
L 76.612768 71.21191 
L 76.761536 71.310326 
L 77.059073 71.703989 
L 77.356609 71.900821 
L 77.505377 73.278644 
L 77.654146 73.37706 
L 77.951682 73.869139 
L 78.249219 74.164387 
L 78.397987 74.262803 
L 78.695523 75.935873 
L 78.99306 76.821616 
L 79.141828 80.56142 
L 79.290596 80.758252 
L 79.439364 81.348747 
L 79.588132 81.447163 
L 80.331974 82.72657 
L 80.480742 90.009346 
L 80.778278 90.304593 
L 81.075815 92.371327 
L 81.224583 92.469743 
L 81.373351 92.961823 
L 81.670887 93.158654 
L 82.26596 94.93014 
L 82.414728 96.603211 
L 82.563497 96.701626 
L 82.712265 97.193706 
L 82.861033 97.292122 
L 83.15857 99.162024 
L 83.456106 99.457272 
L 83.902411 100.146183 
L 84.943788 100.93351 
L 85.241325 101.917669 
L 85.390093 102.016085 
L 85.687629 102.704996 
L 85.836397 103.885987 
L 85.985166 104.082819 
L 86.43147 105.559057 
L 86.729007 105.755889 
L 87.026543 106.740048 
L 87.175311 106.936879 
L 87.472848 107.625791 
L 87.919152 108.019454 
L 88.514225 109.692525 
L 88.662993 129.277287 
L 88.811762 129.670951 
L 89.109298 131.442437 
L 89.258066 131.442437 
L 90.448212 133.902834 
L 90.59698 134.788577 
L 90.745748 134.985409 
L 91.043285 137.347391 
L 91.192053 137.741054 
L 91.935894 142.760265 
L 92.084662 146.500069 
L 92.679735 147.484228 
L 92.977272 147.779475 
L 93.12604 148.665219 
L 93.274808 148.86205 
L 93.572344 149.452546 
L 93.721113 149.649377 
L 94.018649 150.535121 
L 94.167417 152.306607 
L 94.464954 152.70027 
L 94.613722 152.798686 
L 94.76249 153.586013 
L 94.911258 153.684429 
L 95.060026 154.078093 
L 95.208795 156.735322 
L 95.655099 157.424233 
L 95.803868 158.014728 
L 95.952636 158.113144 
L 96.845245 159.88463 
L 96.994013 161.459285 
L 97.142781 161.459285 
L 97.589086 162.148196 
L 97.737854 163.132355 
L 97.886623 166.380079 
L 98.332927 167.167407 
L 98.481695 167.856318 
L 98.779232 168.05315 
L 99.076768 168.545229 
L 99.523073 168.840477 
L 99.820609 169.627804 
L 99.969377 169.72622 
L 100.266914 170.415131 
L 100.861987 174.450183 
L 101.010755 174.647015 
L 101.159523 175.729589 
L 101.308291 175.828005 
L 101.45706 176.221669 
L 101.605828 177.894739 
L 101.754596 182.520286 
L 102.052132 183.209197 
L 102.944742 183.898109 
L 103.09351 184.193356 
L 103.391046 187.539497 
L 103.688583 187.736328 
L 103.986119 190.984053 
L 104.283656 191.180885 
L 104.72996 193.93653 
L 105.027497 194.428609 
L 105.176265 199.644652 
L 105.325033 200.136731 
L 105.473801 200.235147 
L 105.62257 200.530395 
L 105.771338 201.12089 
L 106.366411 201.61297 
L 106.663947 202.105049 
L 106.961483 202.400297 
L 107.110252 203.778119 
L 107.854093 204.368615 
L 108.746702 206.041685 
L 108.89547 208.010003 
L 109.193007 208.206834 
L 109.341775 208.600498 
L 109.490543 209.387825 
L 109.639311 213.127629 
L 110.085616 213.422877 
L 110.383152 214.603868 
L 110.829457 215.292779 
L 110.978225 215.391195 
L 111.126993 215.883274 
L 111.275762 215.98169 
L 111.42453 216.47377 
L 111.573298 217.457928 
L 111.870834 217.753176 
L 112.168371 218.540503 
L 112.317139 220.508821 
L 112.465907 220.607237 
L 112.763444 221.000901 
L 113.507285 221.591396 
L 113.804821 223.362882 
L 114.399894 225.134368 
L 114.548662 226.020111 
L 114.69743 226.118527 
L 114.994967 227.49635 
L 115.143735 227.693181 
L 115.292503 228.874172 
L 115.441272 228.972588 
L 115.738808 229.858331 
L 116.036344 230.153579 
L 116.482649 233.00764 
L 116.631417 234.582294 
L 117.22649 235.271205 
L 117.375258 235.763285 
L 117.524026 235.861701 
L 118.119099 236.84586 
L 118.267868 236.944275 
L 118.565404 237.731603 
L 119.75555 239.995168 
L 120.350623 240.388832 
L 120.796927 241.077743 
L 120.945695 242.061902 
L 121.243232 242.258734 
L 121.392 242.553981 
L 121.540768 243.144477 
L 121.689536 243.242893 
L 121.987073 245.900122 
L 122.433377 246.293785 
L 123.325987 250.230421 
L 123.772291 250.624085 
L 124.218596 251.411412 
L 124.367364 253.182898 
L 124.516132 253.281314 
L 124.813669 254.265473 
L 124.962437 254.757552 
L 125.259974 256.430623 
L 125.408742 256.529038 
L 125.55751 259.678347 
L 126.003815 260.859338 
L 126.598887 261.351417 
L 127.19396 262.433992 
L 127.342728 264.40231 
L 127.640265 265.189637 
L 127.789033 265.288053 
L 128.235338 266.173796 
L 128.830411 266.56746 
L 129.127947 267.059539 
L 129.276715 267.157955 
L 129.574252 267.945282 
L 129.72302 268.831025 
L 130.169325 269.224689 
L 130.466861 269.9136 
L 130.615629 272.767661 
L 130.764397 272.866077 
L 131.061934 273.653404 
L 131.35947 276.113801 
L 131.508238 276.507465 
L 131.657007 277.885287 
L 132.103311 278.574199 
L 132.252079 279.952021 
L 132.549616 285.069648 
L 132.698384 285.168064 
L 132.847152 285.660143 
L 132.995921 290.77777 
L 133.293457 291.663513 
L 133.442225 291.761928 
L 133.590993 292.549256 
L 133.88853 292.844503 
L 134.186066 293.730246 
L 134.334834 293.927078 
L 134.483603 294.517574 
L 134.632371 294.615989 
L 134.781139 295.698564 
L 135.078675 295.993812 
L 135.227444 296.485891 
L 135.376212 296.584307 
L 135.822517 297.666882 
L 136.120053 301.701934 
L 136.417589 302.292429 
L 136.566358 302.489261 
L 136.715126 304.555995 
L 136.863894 304.555995 
L 137.310199 305.441738 
L 137.458967 316.267486 
L 137.607735 316.562734 
L 137.905272 317.350061 
L 138.05404 317.448477 
L 138.500344 319.810458 
L 138.649113 319.908874 
L 138.946649 321.188281 
L 139.095417 321.385113 
L 139.244185 322.467687 
L 139.69049 322.762935 
L 139.988026 323.451846 
L 140.136795 324.436005 
L 140.285563 329.159968 
L 140.731868 330.045711 
L 140.880636 330.242543 
L 141.029404 331.128286 
L 141.178172 333.096604 
L 141.475709 333.588683 
L 141.773245 333.883931 
L 141.922013 333.982347 
L 142.368318 334.671258 
L 142.665854 336.147497 
L 142.814623 336.442744 
L 142.963391 337.918983 
L 143.112159 338.115815 
L 143.707232 339.690469 
L 144.004768 343.627105 
L 144.153536 343.725521 
L 144.302305 344.316016 
L 144.451073 345.497007 
L 144.599841 355.929091 
L 144.748609 356.716419 
L 144.897377 356.814834 
L 145.046146 359.0784 
L 145.194914 359.275232 
L 145.343682 360.849886 
L 145.49245 367.148503 
L 145.641219 367.246919 
L 145.789987 368.526326 
L 146.087523 368.723158 
L 146.236291 369.018405 
L 146.38506 370.494644 
L 146.533828 373.151873 
L 146.682596 373.643952 
L 147.277669 374.037616 
L 147.426437 375.021775 
L 147.575205 375.218607 
L 147.723974 375.710686 
L 148.02151 378.171083 
L 148.319046 378.171083 
L 148.467815 378.663163 
L 148.616583 378.761579 
L 148.914119 381.714056 
L 149.65796 382.107719 
L 149.806728 382.107719 
L 149.955497 383.485542 
L 150.253033 383.485542 
L 150.401801 384.076037 
L 150.699338 384.174453 
L 150.996874 384.469701 
L 151.145642 384.666532 
L 151.443179 384.764948 
L 151.740715 385.060196 
L 152.335788 385.355444 
L 152.484556 385.749107 
L 152.782093 385.847523 
L 152.930861 385.945939 
L 153.228397 386.339603 
L 154.269775 386.930098 
L 154.716079 387.028514 
L 155.162384 387.225346 
L 155.757457 387.323762 
L 156.054993 387.422177 
L 157.840212 387.520593 
L 158.286517 387.717425 
L 160.369272 387.815841 
L 160.666808 387.914257 
L 164.088477 388.012673 
L 164.386013 388.111089 
L 168.105219 388.209505 
L 168.402755 388.307921 
L 180.155444 388.406336 
L 180.304212 388.504752 
L 180.304212 388.504752 
" clip-path="url(#pb5916d5da1)" style="fill: none; stroke: #d80000; stroke-width: 1.8; stroke-linecap: square"/>
   </g>
   <g id="line2d_30">
    <path d="M 54.148768 17.378416 
L 54.743841 17.476832 
L 55.041377 17.575248 
L 55.63645 17.673664 
L 57.421669 18.756238 
L 58.016742 18.854654 
L 59.80196 19.937229 
L 60.248265 20.035645 
L 61.587179 20.921388 
L 61.735947 21.216636 
L 62.33102 21.315052 
L 63.074861 21.708715 
L 63.521166 21.807131 
L 63.96747 22.003963 
L 65.157616 22.102379 
L 65.752689 22.397626 
L 65.901457 22.397626 
L 66.198993 22.692874 
L 66.794066 22.79129 
L 67.537907 23.184954 
L 67.984212 23.28337 
L 68.281748 23.578617 
L 68.579285 23.677033 
L 68.728053 23.677033 
L 68.876821 23.972281 
L 69.471894 24.070697 
L 69.76943 24.169113 
L 70.215735 24.267528 
L 70.959576 24.759608 
L 71.257113 25.251687 
L 72.000954 25.350103 
L 72.596026 25.645351 
L 72.744795 25.645351 
L 72.893563 25.842183 
L 73.191099 25.940599 
L 73.637404 26.432678 
L 74.232477 26.531094 
L 74.530013 26.924758 
L 74.678781 26.924758 
L 74.976318 27.220005 
L 76.612768 28.204164 
L 77.059073 28.30258 
L 77.207841 28.400996 
L 77.356609 28.696244 
L 77.951682 28.79466 
L 78.844291 29.286739 
L 79.736901 29.385155 
L 80.183205 29.581987 
L 80.62951 29.680403 
L 80.927046 29.778819 
L 81.522119 29.877234 
L 82.26596 30.369314 
L 82.414728 30.664562 
L 82.712265 30.664562 
L 83.15857 31.353473 
L 83.604874 31.845552 
L 83.753642 31.943968 
L 84.051179 32.337632 
L 84.199947 32.337632 
L 84.497483 32.632879 
L 84.79502 32.632879 
L 85.092556 33.124959 
L 85.241325 33.321791 
L 85.985166 33.420207 
L 86.729007 34.010702 
L 86.877775 34.30595 
L 87.324079 34.30595 
L 87.472848 34.502781 
L 87.621616 34.502781 
L 87.770384 34.699613 
L 88.216689 34.699613 
L 88.514225 34.994861 
L 89.258066 35.093277 
L 89.704371 35.290109 
L 90.150675 35.388525 
L 90.448212 35.782188 
L 90.745748 36.372683 
L 91.043285 36.471099 
L 91.340821 36.569515 
L 91.935894 36.864763 
L 92.084662 36.864763 
L 92.23343 37.061595 
L 92.530967 37.061595 
L 92.828503 37.356842 
L 93.423576 37.455258 
L 94.316185 37.947338 
L 95.060026 38.045754 
L 95.952636 38.537833 
L 96.101404 38.537833 
L 96.39894 38.833081 
L 96.696477 38.931497 
L 97.589086 39.029913 
L 98.035391 39.226744 
L 98.779232 39.32516 
L 99.225536 39.620408 
L 99.523073 40.210903 
L 100.266914 40.702983 
L 100.56445 41.195062 
L 100.861987 41.293478 
L 101.159523 41.785558 
L 101.903364 41.883974 
L 102.200901 41.982389 
L 102.647205 42.080805 
L 102.944742 42.277637 
L 103.242278 42.671301 
L 103.688583 42.769717 
L 104.134887 42.966548 
L 105.176265 43.064964 
L 105.62257 43.261796 
L 105.920106 43.360212 
L 106.217642 43.458628 
L 106.366411 43.458628 
L 106.515179 43.753875 
L 106.812715 43.852291 
L 107.25902 44.049123 
L 107.854093 44.147539 
L 108.597934 44.639619 
L 108.89547 45.033282 
L 109.044238 45.230114 
L 109.788079 45.32853 
L 109.936848 45.426946 
L 110.085616 45.722193 
L 110.680689 45.820609 
L 111.275762 46.115857 
L 111.573298 46.214273 
L 112.168371 46.509521 
L 112.912212 46.607936 
L 114.399894 47.493679 
L 114.846199 47.592095 
L 115.143735 47.887343 
L 115.59004 48.084175 
L 116.333881 48.182591 
L 116.928954 48.477838 
L 117.077722 48.477838 
L 117.22649 48.67467 
L 118.119099 48.773086 
L 118.565404 48.969918 
L 119.309245 49.068334 
L 119.75555 49.265166 
L 120.648159 49.363581 
L 121.094464 49.560413 
L 121.540768 49.560413 
L 121.838305 49.855661 
L 122.730914 49.954077 
L 123.02845 50.052493 
L 123.325987 50.150909 
L 123.474755 50.249325 
L 123.772291 50.642988 
L 124.516132 50.741404 
L 124.813669 50.83982 
L 125.706278 50.938236 
L 125.855046 51.135068 
L 127.045192 51.135068 
L 127.19396 51.331899 
L 127.491497 51.430315 
L 128.235338 51.823979 
L 128.384106 51.823979 
L 128.681642 52.217642 
L 129.127947 52.316058 
L 129.425483 52.414474 
L 129.574252 52.414474 
L 129.72302 52.611306 
L 130.318093 52.709722 
L 130.615629 52.808138 
L 132.103311 52.906554 
L 132.549616 53.300217 
L 132.847152 53.595465 
L 132.995921 53.595465 
L 133.144689 53.792297 
L 133.739762 53.890713 
L 134.037298 53.989128 
L 134.334834 54.087544 
L 134.632371 54.18596 
L 135.227444 54.284376 
L 135.376212 54.481208 
L 135.822517 54.579624 
L 136.268821 54.776456 
L 136.566358 54.874872 
L 136.863894 54.973287 
L 137.16143 55.071703 
L 137.607735 55.563783 
L 138.202808 55.662199 
L 138.500344 55.957446 
L 139.244185 56.449526 
L 139.392954 56.941605 
L 140.285563 57.040021 
L 140.880636 57.335269 
L 141.624477 57.335269 
L 141.773245 57.532101 
L 141.922013 57.532101 
L 142.070781 57.827348 
L 143.409695 57.925764 
L 144.004768 58.221012 
L 145.49245 58.319428 
L 146.087523 58.614675 
L 146.831364 58.713091 
L 147.128901 58.811507 
L 147.575205 58.909923 
L 148.02151 59.106755 
L 148.467815 59.205171 
L 148.914119 59.402003 
L 149.65796 59.500419 
L 150.699338 60.18933 
L 150.996874 60.582993 
L 151.443179 61.075073 
L 153.079629 62.059232 
L 153.525934 62.157648 
L 153.674702 62.256064 
L 153.972238 62.748143 
L 154.269775 62.944975 
L 154.567311 63.437054 
L 155.162384 63.53547 
L 156.203762 64.322797 
L 156.501298 64.618045 
L 156.947603 64.716461 
L 157.096371 64.913293 
L 157.245139 64.913293 
L 157.542675 65.405372 
L 157.98898 65.995868 
L 158.286517 67.37369 
L 158.732821 67.472106 
L 158.881589 67.767354 
L 159.030358 67.767354 
L 159.327894 68.357849 
L 159.476662 68.357849 
L 159.62543 68.554681 
L 159.922967 68.554681 
L 160.220503 68.948344 
L 160.369272 68.948344 
L 160.964344 69.637256 
L 161.708185 70.227751 
L 162.005722 70.621415 
L 162.749563 71.113494 
L 162.898331 71.703989 
L 163.493404 72.196069 
L 163.939709 72.88498 
L 164.088477 72.983396 
L 164.534781 73.967555 
L 165.278623 74.459634 
L 165.427391 74.853298 
L 165.724927 74.951714 
L 165.873695 75.443793 
L 166.617536 76.034289 
L 167.063841 76.526368 
L 167.361377 76.526368 
L 167.807682 77.412111 
L 167.95645 77.608943 
L 168.105219 77.608943 
L 168.402755 78.297854 
L 168.551523 78.494686 
L 168.700291 78.494686 
L 168.997828 78.789934 
L 169.295364 79.085181 
L 169.890437 80.06934 
L 171.378119 81.151915 
L 171.526887 81.643995 
L 172.270728 82.23449 
L 172.568265 82.529738 
L 172.717033 82.628154 
L 173.01457 83.317065 
L 173.758411 83.90756 
L 174.65102 84.990135 
L 174.948556 85.285383 
L 175.097325 85.482215 
L 175.543629 85.58063 
L 175.692397 85.679046 
L 175.841166 85.974294 
L 176.138702 86.07271 
L 176.733775 86.761621 
L 176.882543 86.761621 
L 177.180079 87.056869 
L 177.477616 87.155285 
L 177.923921 87.253701 
L 178.81653 88.434691 
L 179.262834 89.320434 
L 179.560371 89.714098 
L 179.709139 89.91093 
L 180.006675 89.91093 
L 180.006675 89.91093 
" clip-path="url(#pb5916d5da1)" style="fill: none; stroke: #264653; stroke-width: 1.8; stroke-linecap: square"/>
   </g>
   <g id="line2d_31">
    <path d="M 54.148768 17.28 
L 59.206887 17.378416 
L 59.504424 17.476832 
L 62.628556 17.476832 
L 62.777325 17.673664 
L 64.265007 17.673664 
L 64.413775 18.165743 
L 70.215735 18.264159 
L 70.364503 18.460991 
L 77.654146 18.460991 
L 77.802914 18.756238 
L 80.778278 18.854654 
L 80.927046 19.051486 
L 82.26596 19.149902 
L 82.414728 19.543566 
L 84.943788 19.641981 
L 85.241325 19.740397 
L 86.282702 19.838813 
L 87.026543 20.232477 
L 87.324079 20.330893 
L 87.621616 20.724556 
L 88.067921 20.822972 
L 88.365457 21.11822 
L 88.96053 21.11822 
L 89.109298 21.315052 
L 89.406834 21.413468 
L 89.853139 21.610299 
L 90.150675 21.610299 
L 90.448212 21.905547 
L 90.745748 22.003963 
L 91.043285 22.102379 
L 91.340821 22.200795 
L 91.787126 22.397626 
L 92.084662 22.496042 
L 92.23343 23.086538 
L 93.274808 23.184954 
L 93.423576 23.381785 
L 93.721113 23.381785 
L 94.018649 23.775449 
L 94.464954 23.873865 
L 94.613722 25.054856 
L 95.506331 25.054856 
L 95.655099 25.645351 
L 96.696477 25.743767 
L 96.994013 25.842183 
L 97.29155 25.842183 
L 97.589086 26.235846 
L 98.332927 26.727926 
L 98.630464 27.121589 
L 98.779232 27.121589 
L 98.928 27.613669 
L 99.374305 27.613669 
L 99.820609 28.105748 
L 100.713219 28.696244 
L 100.861987 28.991491 
L 101.159523 28.991491 
L 101.308291 29.483571 
L 101.903364 29.483571 
L 102.200901 29.778819 
L 102.349669 29.778819 
L 102.647205 30.270898 
L 103.837351 30.369314 
L 104.72996 30.861393 
L 104.878728 31.353473 
L 105.027497 31.451889 
L 105.176265 32.436048 
L 105.771338 33.321791 
L 106.217642 34.010702 
L 107.110252 34.502781 
L 107.25902 34.502781 
L 107.407788 34.699613 
L 107.556556 35.290109 
L 108.002861 35.683772 
L 108.151629 35.880604 
L 108.300397 36.471099 
L 109.936848 37.65209 
L 110.234384 37.947338 
L 110.680689 38.341001 
L 110.829457 38.537833 
L 111.275762 38.636249 
L 111.42453 38.734665 
L 111.870834 39.423576 
L 112.763444 39.915656 
L 113.209748 40.99823 
L 114.69743 42.080805 
L 114.994967 42.376053 
L 116.185113 43.261796 
L 116.631417 43.753875 
L 116.780185 43.753875 
L 116.928954 43.950707 
L 117.077722 43.950707 
L 117.524026 44.639619 
L 117.970331 45.131698 
L 118.119099 45.131698 
L 118.267868 45.722193 
L 118.565404 45.820609 
L 118.86294 46.312689 
L 119.75555 46.903184 
L 120.201854 47.592095 
L 120.499391 47.690511 
L 121.094464 48.182591 
L 121.392 48.576254 
L 121.540768 49.757245 
L 121.987073 50.052493 
L 122.284609 50.741404 
L 122.582146 50.83982 
L 123.325987 51.430315 
L 123.772291 51.922395 
L 123.92106 52.020811 
L 124.218596 52.709722 
L 125.408742 53.595465 
L 125.706278 54.67804 
L 125.855046 54.874872 
L 126.003815 55.760615 
L 126.301351 55.760615 
L 126.450119 55.957446 
L 126.598887 55.957446 
L 127.045192 56.843189 
L 127.19396 56.941605 
L 127.491497 57.433685 
L 127.640265 57.728932 
L 127.937801 58.614675 
L 128.384106 59.106755 
L 128.830411 59.500419 
L 129.574252 60.484577 
L 129.72302 60.878241 
L 130.020556 60.976657 
L 130.318093 61.173489 
L 130.764397 61.8624 
L 131.35947 62.354479 
L 131.508238 63.043391 
L 131.805775 63.240223 
L 131.954543 63.830718 
L 132.103311 63.929134 
L 132.995921 65.503788 
L 134.037298 66.291115 
L 134.632371 67.275274 
L 134.781139 67.275274 
L 135.078675 67.767354 
L 135.971285 68.259433 
L 136.120053 68.259433 
L 136.417589 68.554681 
L 137.458967 69.342008 
L 137.905272 70.818246 
L 138.202808 71.507158 
L 138.351576 71.605574 
L 138.649113 72.392901 
L 138.946649 72.688148 
L 139.244185 73.081812 
L 139.392954 73.180228 
L 139.69049 73.770723 
L 139.839258 74.361219 
L 139.988026 74.459634 
L 140.285563 74.951714 
L 140.880636 75.345377 
L 141.32694 76.132705 
L 141.475709 76.231121 
L 141.624477 76.526368 
L 141.922013 77.412111 
L 142.21955 77.707359 
L 142.517086 78.297854 
L 142.963391 78.593102 
L 143.260927 79.970925 
L 143.409695 80.463004 
L 143.707232 80.758252 
L 144.004768 81.348747 
L 144.153536 81.447163 
L 144.302305 83.120233 
L 144.599841 83.612313 
L 145.046146 84.005976 
L 145.343682 84.39964 
L 145.641219 84.694887 
L 145.938755 84.891719 
L 146.236291 85.383799 
L 146.533828 85.679046 
L 146.980132 86.171126 
L 147.277669 87.155285 
L 147.426437 87.253701 
L 147.575205 88.23786 
L 147.872742 88.533107 
L 148.170278 88.631523 
L 148.467815 89.320434 
L 148.616583 89.41885 
L 148.914119 90.796673 
L 149.509192 91.190336 
L 149.806728 91.584 
L 150.104265 91.584 
L 150.401801 91.977664 
L 150.55057 92.764991 
L 150.848106 92.863407 
L 151.443179 94.142813 
L 151.591947 94.142813 
L 151.889483 94.536477 
L 152.038252 94.536477 
L 152.18702 94.733309 
L 152.335788 94.733309 
L 152.484556 94.93014 
L 152.782093 94.93014 
L 153.079629 95.717468 
L 153.377166 97.09529 
L 153.674702 97.193706 
L 153.82347 97.193706 
L 154.121007 97.58737 
L 154.269775 97.685785 
L 154.567311 98.177865 
L 154.716079 98.177865 
L 154.864848 98.669944 
L 155.311152 98.965192 
L 156.203762 100.539846 
L 157.096371 101.228758 
L 157.542675 101.720837 
L 157.691444 102.311332 
L 158.137748 102.508164 
L 158.435285 103.000244 
L 158.584053 103.197075 
L 158.732821 103.197075 
L 159.179126 103.787571 
L 159.62543 103.885987 
L 160.815576 105.559057 
L 161.113113 106.051136 
L 161.410649 106.346384 
L 162.005722 106.838464 
L 162.303258 107.330543 
L 162.749563 107.724207 
L 163.195868 108.511534 
L 163.344636 108.60995 
L 163.642172 109.003613 
L 164.386013 109.594109 
L 164.68355 110.086188 
L 165.129854 110.381436 
L 165.427391 110.971931 
L 165.576159 111.168763 
L 165.724927 111.168763 
L 165.873695 111.365595 
L 166.32 111.464011 
L 166.617536 111.759258 
L 166.915073 111.95609 
L 167.212609 112.645001 
L 168.105219 113.333913 
L 168.402755 113.825992 
L 168.997828 114.318072 
L 169.146596 114.514903 
L 169.444132 115.105399 
L 169.741669 115.105399 
L 170.039205 115.597478 
L 170.48551 115.991142 
L 170.783046 116.384805 
L 171.229351 116.975301 
L 171.378119 116.975301 
L 171.675656 117.368964 
L 171.824424 117.368964 
L 172.12196 117.861044 
L 173.163338 118.451539 
L 173.460874 118.549955 
L 173.758411 119.238866 
L 174.055947 119.534114 
L 174.502252 120.321441 
L 175.543629 121.010352 
L 175.989934 121.797679 
L 176.28747 121.896095 
L 176.436238 122.092927 
L 176.585007 122.486591 
L 176.882543 122.486591 
L 176.882543 122.486591 
" clip-path="url(#pb5916d5da1)" style="fill: none; stroke: #ffe211; stroke-width: 1.8; stroke-linecap: square"/>
   </g>
   <g id="line2d_32">
    <path d="M 54.148768 17.28 
L 55.190146 17.870495 
L 55.338914 17.870495 
L 55.487682 18.067327 
L 56.52906 18.165743 
L 56.826596 18.264159 
L 57.421669 18.362575 
L 57.719205 18.460991 
L 58.463046 18.559407 
L 59.355656 19.051486 
L 60.099497 19.051486 
L 60.248265 19.248318 
L 60.992106 19.346734 
L 61.735947 19.740397 
L 62.033483 19.838813 
L 63.074861 20.429309 
L 63.669934 20.527725 
L 64.265007 20.822972 
L 65.008848 20.921388 
L 65.901457 21.413468 
L 66.645298 21.511883 
L 67.091603 21.708715 
L 67.537907 21.807131 
L 68.430517 22.299211 
L 69.174358 22.397626 
L 69.620662 22.594458 
L 70.215735 22.692874 
L 70.513272 22.988122 
L 71.257113 23.086538 
L 71.554649 23.381785 
L 72.744795 24.070697 
L 73.93494 24.169113 
L 74.083709 24.365944 
L 74.232477 24.365944 
L 74.530013 24.661192 
L 74.976318 24.858024 
L 75.125086 24.858024 
L 75.273854 25.054856 
L 75.571391 25.054856 
L 76.017695 25.546935 
L 76.761536 25.645351 
L 77.505377 26.039015 
L 77.951682 26.13743 
L 78.397987 26.334262 
L 79.588132 26.432678 
L 80.778278 27.121589 
L 81.224583 27.121589 
L 81.522119 27.416837 
L 83.753642 28.79466 
L 84.199947 28.893075 
L 84.79502 29.188323 
L 85.687629 29.286739 
L 86.282702 29.581987 
L 86.580238 29.581987 
L 86.877775 29.877234 
L 87.621616 29.97565 
L 88.216689 30.270898 
L 88.811762 30.369314 
L 89.109298 30.664562 
L 89.406834 30.762977 
L 89.555603 30.762977 
L 89.853139 31.156641 
L 90.001907 31.156641 
L 90.299444 31.550305 
L 90.59698 31.648721 
L 90.894517 31.747136 
L 91.192053 31.845552 
L 91.489589 32.1408 
L 91.787126 32.436048 
L 92.23343 32.534464 
L 92.530967 32.632879 
L 93.274808 32.731295 
L 94.018649 33.124959 
L 94.316185 33.223375 
L 95.952636 34.207534 
L 96.39894 34.30595 
L 96.696477 34.404366 
L 97.142781 34.502781 
L 97.886623 34.896445 
L 98.332927 34.994861 
L 98.779232 35.191693 
L 99.820609 35.290109 
L 100.56445 35.683772 
L 101.010755 35.782188 
L 101.159523 35.97902 
L 101.605828 36.077436 
L 101.903364 36.175852 
L 102.200901 36.274268 
L 102.498437 36.372683 
L 102.795974 36.471099 
L 103.09351 36.569515 
L 103.391046 36.667931 
L 103.986119 36.963179 
L 104.72996 37.061595 
L 105.176265 37.258426 
L 105.62257 37.356842 
L 105.771338 37.553674 
L 106.217642 37.65209 
L 106.515179 37.750506 
L 106.812715 37.848922 
L 107.407788 38.14417 
L 108.151629 38.242585 
L 109.193007 38.833081 
L 109.490543 38.833081 
L 109.639311 39.029913 
L 109.936848 39.128328 
L 110.680689 39.521992 
L 111.126993 39.620408 
L 111.42453 39.718824 
L 111.722066 39.81724 
L 112.763444 40.407735 
L 113.358517 40.506151 
L 114.548662 41.391894 
L 114.846199 41.687142 
L 115.292503 41.883974 
L 115.59004 41.982389 
L 116.780185 42.671301 
L 117.821563 42.769717 
L 118.267868 43.261796 
L 119.011709 43.360212 
L 120.053086 43.950707 
L 120.648159 44.049123 
L 120.945695 44.147539 
L 121.540768 44.245955 
L 122.433377 44.738034 
L 122.879682 44.83645 
L 124.516132 45.820609 
L 124.962437 45.919025 
L 125.855046 46.607936 
L 126.301351 47.100016 
L 126.896424 47.395264 
L 127.342728 47.493679 
L 127.937801 47.788927 
L 128.532874 47.887343 
L 129.127947 48.182591 
L 129.276715 48.182591 
L 129.72302 48.67467 
L 130.020556 48.773086 
L 130.318093 48.773086 
L 130.466861 48.969918 
L 131.210702 49.068334 
L 131.35947 49.265166 
L 132.698384 49.363581 
L 134.781139 50.642988 
L 135.376212 50.741404 
L 136.566358 51.430315 
L 136.863894 51.528731 
L 137.16143 51.627147 
L 137.607735 51.627147 
L 137.905272 51.922395 
L 138.946649 52.51289 
L 139.244185 52.611306 
L 139.541722 52.709722 
L 139.988026 52.808138 
L 140.285563 53.103385 
L 140.583099 53.103385 
L 141.029404 53.595465 
L 141.32694 53.693881 
L 141.624477 53.792297 
L 141.922013 53.890713 
L 142.368318 53.989128 
L 142.814623 54.18596 
L 143.260927 54.284376 
L 143.558464 54.579624 
L 144.302305 54.973287 
L 144.897377 55.071703 
L 145.789987 55.563783 
L 146.236291 55.662199 
L 146.831364 55.957446 
L 147.277669 56.055862 
L 148.02151 56.449526 
L 148.467815 56.547942 
L 149.65796 57.236853 
L 150.104265 57.335269 
L 150.699338 57.630517 
L 151.145642 57.728932 
L 155.013616 60.18933 
L 155.311152 60.287746 
L 156.798834 61.173489 
L 156.947603 61.173489 
L 157.096371 61.370321 
L 157.691444 61.468736 
L 157.98898 61.8624 
L 158.286517 61.8624 
L 158.584053 62.157648 
L 158.881589 62.256064 
L 159.030358 62.256064 
L 159.179126 62.551311 
L 159.476662 62.551311 
L 159.774199 62.846559 
L 160.666808 62.944975 
L 161.559417 63.633886 
L 162.005722 64.125966 
L 162.452026 64.224381 
L 163.642172 64.913293 
L 163.79094 64.913293 
L 164.088477 65.20854 
L 164.386013 65.503788 
L 164.68355 65.897452 
L 165.427391 66.291115 
L 165.724927 66.389531 
L 166.022464 66.487947 
L 166.468768 66.586363 
L 166.915073 67.078442 
L 167.361377 67.176858 
L 167.95645 67.86577 
L 168.253987 68.161017 
L 168.551523 68.554681 
L 168.84906 68.653097 
L 169.592901 69.04676 
L 169.890437 69.145176 
L 170.634278 69.735672 
L 170.783046 69.932503 
L 171.080583 70.030919 
L 171.229351 70.227751 
L 171.526887 70.326167 
L 173.163338 71.507158 
L 173.758411 72.196069 
L 174.799788 72.983396 
L 174.948556 73.180228 
L 175.246093 73.278644 
L 176.138702 73.967555 
L 176.585007 74.459634 
L 177.775152 75.345377 
L 178.221457 75.837457 
L 178.518993 76.132705 
L 178.667762 76.329536 
L 178.81653 76.329536 
L 179.262834 77.116864 
L 179.709139 77.510527 
L 179.857907 77.805775 
L 180.155444 77.904191 
L 180.155444 77.904191 
" clip-path="url(#pb5916d5da1)" style="fill: none; stroke: #39c5bb; stroke-width: 1.8; stroke-linecap: square"/>
   </g>
   <g id="line2d_33">
    <path d="M 54.148768 17.28 
L 54.595073 17.378416 
L 55.041377 17.870495 
L 55.487682 17.968911 
L 56.082755 18.264159 
L 56.826596 18.264159 
L 57.124132 18.559407 
L 57.421669 18.657823 
L 58.016742 18.95307 
L 58.16551 18.95307 
L 58.314278 19.248318 
L 58.760583 19.346734 
L 58.909351 19.44515 
L 59.206887 19.838813 
L 59.80196 20.134061 
L 60.099497 20.232477 
L 60.248265 20.429309 
L 61.289642 20.527725 
L 62.033483 20.921388 
L 62.926093 21.019804 
L 63.372397 21.216636 
L 63.818702 21.315052 
L 64.562543 21.708715 
L 65.306384 21.807131 
L 66.645298 22.594458 
L 66.794066 22.594458 
L 67.091603 22.988122 
L 67.835444 23.086538 
L 68.13298 23.184954 
L 68.728053 23.28337 
L 69.025589 23.480201 
L 69.174358 23.775449 
L 69.76943 23.873865 
L 70.066967 23.972281 
L 70.364503 24.070697 
L 70.66204 24.365944 
L 70.959576 24.46436 
L 71.257113 24.562776 
L 71.703417 24.858024 
L 71.852185 25.153272 
L 72.149722 25.153272 
L 72.29849 25.350103 
L 72.596026 25.448519 
L 73.042331 25.645351 
L 73.191099 25.645351 
L 73.488636 25.940599 
L 73.93494 26.039015 
L 74.083709 26.334262 
L 74.381245 26.334262 
L 74.678781 26.62951 
L 75.571391 27.121589 
L 76.017695 27.220005 
L 76.464 27.416837 
L 76.612768 27.416837 
L 76.761536 27.712085 
L 77.059073 27.712085 
L 77.207841 27.908917 
L 77.356609 27.908917 
L 77.505377 28.105748 
L 77.951682 28.204164 
L 78.546755 28.499412 
L 78.99306 28.597828 
L 79.290596 28.696244 
L 79.439364 28.696244 
L 79.588132 28.991491 
L 79.885669 28.991491 
L 80.331974 29.581987 
L 80.927046 29.680403 
L 81.224583 29.778819 
L 81.522119 30.270898 
L 81.670887 30.369314 
L 81.819656 30.664562 
L 82.117192 30.664562 
L 82.26596 30.861393 
L 82.563497 31.353473 
L 82.712265 31.353473 
L 83.307338 32.042384 
L 83.753642 32.042384 
L 83.902411 32.239216 
L 84.943788 32.337632 
L 85.390093 32.829711 
L 86.282702 32.829711 
L 86.580238 33.223375 
L 86.877775 33.223375 
L 87.026543 33.420207 
L 87.175311 33.420207 
L 87.472848 34.010702 
L 88.365457 34.109118 
L 89.109298 34.994861 
L 89.704371 35.093277 
L 90.59698 35.585356 
L 90.745748 35.585356 
L 90.894517 35.880604 
L 91.340821 35.97902 
L 91.935894 36.274268 
L 92.382199 36.372683 
L 93.12604 36.766347 
L 93.572344 36.864763 
L 94.018649 37.061595 
L 94.316185 37.061595 
L 94.613722 37.356842 
L 95.803868 38.045754 
L 96.101404 38.045754 
L 96.547709 38.537833 
L 97.142781 38.636249 
L 97.440318 38.734665 
L 97.886623 38.833081 
L 98.779232 39.32516 
L 99.225536 39.423576 
L 99.523073 39.718824 
L 100.118146 40.014072 
L 100.266914 40.014072 
L 100.56445 40.309319 
L 100.713219 40.309319 
L 100.861987 40.702983 
L 101.308291 40.801399 
L 101.754596 40.99823 
L 101.903364 41.49031 
L 102.944742 41.588726 
L 103.391046 41.785558 
L 104.134887 41.883974 
L 104.72996 42.376053 
L 105.176265 42.868132 
L 106.068874 43.557044 
L 106.366411 43.950707 
L 106.812715 44.049123 
L 107.110252 44.147539 
L 107.407788 44.245955 
L 108.300397 44.934866 
L 108.449166 45.230114 
L 109.193007 45.32853 
L 109.639311 45.623777 
L 109.936848 46.017441 
L 111.573298 46.115857 
L 112.168371 46.607936 
L 112.763444 47.296848 
L 113.358517 47.592095 
L 113.656053 47.690511 
L 114.69743 48.281007 
L 115.143735 48.379423 
L 115.59004 48.576254 
L 115.887576 48.576254 
L 116.185113 48.871502 
L 116.780185 48.969918 
L 117.22649 49.16675 
L 117.524026 49.265166 
L 118.119099 49.560413 
L 118.416636 49.658829 
L 119.011709 49.954077 
L 119.309245 50.052493 
L 119.606781 50.446156 
L 120.053086 50.642988 
L 120.201854 50.642988 
L 120.499391 50.938236 
L 120.648159 50.938236 
L 120.796927 51.135068 
L 121.392 51.233483 
L 121.987073 51.528731 
L 123.325987 51.627147 
L 123.623523 51.725563 
L 124.516132 51.823979 
L 125.855046 52.611306 
L 126.450119 52.709722 
L 126.598887 52.906554 
L 127.045192 53.00497 
L 127.342728 53.103385 
L 128.235338 53.201801 
L 128.384106 53.398633 
L 129.276715 53.398633 
L 129.425483 53.989128 
L 130.318093 54.481208 
L 131.210702 54.579624 
L 131.508238 54.874872 
L 131.954543 54.973287 
L 132.252079 55.366951 
L 132.549616 55.465367 
L 133.293457 55.85903 
L 133.88853 55.957446 
L 135.673748 57.040021 
L 136.268821 57.138437 
L 136.715126 57.335269 
L 137.012662 57.433685 
L 137.905272 57.925764 
L 138.946649 58.02418 
L 140.731868 59.106755 
L 141.029404 59.106755 
L 141.32694 59.402003 
L 142.517086 59.500419 
L 142.963391 59.69725 
L 143.409695 59.795666 
L 144.302305 60.287746 
L 144.748609 60.386162 
L 145.343682 60.681409 
L 145.938755 60.779825 
L 146.38506 61.075073 
L 146.533828 61.370321 
L 147.426437 61.468736 
L 148.02151 61.763984 
L 148.467815 61.8624 
L 148.914119 62.059232 
L 149.360424 62.157648 
L 149.806728 62.354479 
L 150.401801 62.452895 
L 150.55057 62.551311 
L 150.699338 62.846559 
L 151.294411 62.944975 
L 152.038252 63.53547 
L 152.335788 63.929134 
L 152.930861 64.02755 
L 153.377166 64.224381 
L 153.525934 64.224381 
L 153.82347 64.618045 
L 154.121007 64.913293 
L 154.418543 65.20854 
L 154.716079 66.094283 
L 155.162384 66.192699 
L 155.906225 66.586363 
L 156.501298 66.684779 
L 157.096371 67.472106 
L 157.245139 67.472106 
L 157.542675 67.964185 
L 157.98898 68.554681 
L 158.286517 69.932503 
L 158.584053 70.030919 
L 158.732821 70.129335 
L 158.881589 70.424583 
L 159.030358 70.424583 
L 159.62543 71.21191 
L 159.774199 71.21191 
L 160.220503 71.802405 
L 160.369272 71.802405 
L 160.964344 72.491317 
L 162.452026 73.573891 
L 162.600795 73.869139 
L 162.898331 73.967555 
L 163.344636 74.262803 
L 163.79094 75.05013 
L 164.088477 75.148546 
L 164.386013 75.739041 
L 164.68355 75.837457 
L 165.278623 76.132705 
L 165.576159 76.7232 
L 166.32 77.215279 
L 166.617536 77.707359 
L 167.212609 78.002607 
L 167.510146 78.002607 
L 168.105219 78.691518 
L 168.402755 78.986766 
L 168.700291 79.282013 
L 168.997828 79.577261 
L 169.295364 80.06934 
L 169.444132 80.167756 
L 169.741669 80.56142 
L 170.48551 81.151915 
L 171.080583 81.840826 
L 171.229351 82.332906 
L 172.419497 83.021817 
L 172.865801 83.90756 
L 173.163338 83.90756 
L 174.055947 84.990135 
L 174.353483 85.088551 
L 174.799788 85.58063 
L 175.394861 86.07271 
L 175.692397 86.466374 
L 176.28747 87.155285 
L 177.626384 88.139444 
L 178.072689 88.631523 
L 178.370225 88.926771 
L 178.667762 89.41885 
L 179.114066 90.206177 
L 179.560371 90.599841 
L 179.857907 90.895089 
L 179.857907 90.895089 
" clip-path="url(#pb5916d5da1)" style="fill: none; stroke: #2a9d8f; stroke-width: 1.8; stroke-linecap: square"/>
   </g>
   <g id="line2d_34">
    <path d="M 54.148768 17.378416 
L 54.446305 17.378416 
L 54.595073 17.575248 
L 55.041377 17.673664 
L 55.63645 17.968911 
L 55.785219 17.968911 
L 55.933987 18.165743 
L 56.826596 18.264159 
L 58.16551 19.051486 
L 59.058119 19.149902 
L 59.355656 19.346734 
L 59.504424 19.641981 
L 59.80196 19.740397 
L 60.099497 19.838813 
L 60.992106 19.937229 
L 61.884715 20.429309 
L 62.33102 20.429309 
L 62.926093 21.11822 
L 63.223629 21.216636 
L 63.521166 21.315052 
L 63.96747 21.413468 
L 64.711311 21.807131 
L 65.157616 21.905547 
L 65.603921 22.102379 
L 65.901457 22.200795 
L 66.49653 22.496042 
L 66.794066 22.594458 
L 67.091603 22.988122 
L 67.537907 22.988122 
L 67.686675 23.184954 
L 67.984212 23.184954 
L 68.281748 23.578617 
L 68.430517 23.677033 
L 68.579285 23.972281 
L 68.728053 23.972281 
L 69.025589 24.267528 
L 69.76943 24.365944 
L 69.918199 24.46436 
L 70.066967 24.759608 
L 70.364503 24.759608 
L 70.513272 24.95644 
L 70.810808 25.054856 
L 71.405881 25.350103 
L 71.554649 25.350103 
L 71.703417 25.546935 
L 72.29849 25.645351 
L 74.530013 27.220005 
L 74.678781 27.416837 
L 75.273854 27.515253 
L 76.017695 27.908917 
L 76.464 28.007332 
L 76.910305 28.204164 
L 77.654146 28.30258 
L 78.546755 28.79466 
L 79.141828 28.893075 
L 80.331974 29.581987 
L 81.224583 29.680403 
L 81.522119 29.778819 
L 82.414728 29.778819 
L 82.563497 29.97565 
L 83.902411 30.074066 
L 84.79502 30.566146 
L 85.390093 30.664562 
L 85.538861 30.861393 
L 85.836397 30.861393 
L 86.877775 32.239216 
L 87.175311 32.337632 
L 87.770384 32.632879 
L 88.067921 32.632879 
L 88.216689 32.928127 
L 88.514225 33.026543 
L 88.662993 33.420207 
L 88.811762 33.420207 
L 89.109298 33.715454 
L 89.555603 33.81387 
L 89.853139 34.207534 
L 90.001907 34.601197 
L 90.150675 34.601197 
L 90.448212 34.994861 
L 90.894517 35.093277 
L 91.787126 36.175852 
L 92.23343 36.372683 
L 92.977272 36.471099 
L 93.869881 36.963179 
L 94.316185 37.061595 
L 94.911258 37.356842 
L 95.060026 37.356842 
L 95.357563 37.65209 
L 95.952636 37.750506 
L 96.101404 37.947338 
L 97.142781 38.045754 
L 99.374305 39.423576 
L 99.523073 39.423576 
L 99.820609 39.718824 
L 100.56445 39.81724 
L 100.713219 40.014072 
L 100.861987 40.014072 
L 101.159523 40.506151 
L 101.754596 40.899815 
L 101.903364 41.49031 
L 102.052132 41.49031 
L 102.200901 41.785558 
L 102.795974 41.883974 
L 103.242278 42.080805 
L 103.986119 42.179221 
L 104.134887 42.376053 
L 104.432424 42.474469 
L 105.176265 42.868132 
L 105.62257 42.966548 
L 106.068874 43.360212 
L 106.366411 43.65546 
L 106.663947 43.753875 
L 107.110252 43.950707 
L 107.25902 43.950707 
L 107.407788 44.147539 
L 107.705325 44.245955 
L 107.854093 44.541203 
L 108.449166 44.639619 
L 108.746702 45.033282 
L 109.193007 45.131698 
L 109.490543 45.230114 
L 110.085616 45.230114 
L 110.383152 45.623777 
L 110.978225 45.919025 
L 111.573298 46.017441 
L 112.168371 46.312689 
L 112.614675 46.411105 
L 112.763444 46.706352 
L 113.209748 46.804768 
L 113.507285 47.100016 
L 114.251126 47.690511 
L 114.548662 48.084175 
L 115.143735 48.182591 
L 115.441272 48.281007 
L 115.887576 48.379423 
L 116.185113 48.67467 
L 116.780185 48.773086 
L 117.375258 49.068334 
L 117.970331 49.068334 
L 118.267868 49.461997 
L 120.350623 50.741404 
L 121.094464 50.83982 
L 121.540768 51.036652 
L 121.689536 51.036652 
L 121.987073 51.331899 
L 122.433377 51.430315 
L 123.325987 51.922395 
L 124.516132 52.020811 
L 125.111205 52.316058 
L 125.706278 52.414474 
L 126.450119 52.808138 
L 126.598887 52.808138 
L 126.747656 53.00497 
L 126.896424 53.595465 
L 127.342728 53.693881 
L 127.937801 53.989128 
L 128.681642 54.087544 
L 128.830411 54.284376 
L 129.574252 54.382792 
L 129.871788 54.776456 
L 130.169325 54.776456 
L 130.318093 54.973287 
L 130.764397 54.973287 
L 130.913166 55.170119 
L 131.657007 55.268535 
L 131.954543 55.366951 
L 132.847152 55.465367 
L 133.293457 55.662199 
L 133.739762 55.760615 
L 134.334834 56.055862 
L 134.929907 56.154278 
L 135.227444 56.252694 
L 135.52498 56.252694 
L 135.822517 56.547942 
L 136.417589 56.646358 
L 136.863894 56.843189 
L 137.310199 56.843189 
L 137.607735 57.138437 
L 138.05404 57.236853 
L 138.351576 57.335269 
L 138.797881 57.433685 
L 139.095417 57.532101 
L 139.541722 57.630517 
L 141.029404 58.51626 
L 141.32694 58.614675 
L 141.624477 58.909923 
L 142.665854 59.008339 
L 143.707232 59.598834 
L 144.302305 59.69725 
L 144.748609 59.894082 
L 145.49245 59.992498 
L 146.087523 60.287746 
L 146.236291 60.287746 
L 146.533828 60.681409 
L 146.980132 60.681409 
L 147.128901 60.878241 
L 148.319046 60.976657 
L 148.914119 61.271905 
L 149.062887 61.271905 
L 149.211656 61.468736 
L 149.806728 61.567152 
L 150.401801 61.8624 
L 150.55057 61.8624 
L 150.699338 62.059232 
L 150.996874 62.059232 
L 151.294411 62.452895 
L 152.930861 63.437054 
L 153.228397 63.53547 
L 153.525934 63.929134 
L 153.82347 64.02755 
L 154.269775 64.421213 
L 154.567311 65.306956 
L 155.013616 65.405372 
L 155.757457 65.995868 
L 155.906225 66.192699 
L 156.054993 66.586363 
L 156.35253 66.684779 
L 156.501298 66.881611 
L 156.650066 67.964185 
L 157.096371 68.357849 
L 157.245139 68.653097 
L 157.542675 68.751513 
L 157.691444 68.948344 
L 157.840212 68.948344 
L 157.98898 69.243592 
L 158.286517 69.342008 
L 158.881589 70.326167 
L 159.179126 70.326167 
L 159.62543 70.916662 
L 159.774199 70.916662 
L 160.071735 71.21191 
L 160.666808 71.507158 
L 160.815576 71.507158 
L 161.113113 71.900821 
L 161.410649 71.900821 
L 161.559417 72.196069 
L 161.708185 72.196069 
L 161.856954 72.491317 
L 162.005722 72.491317 
L 162.452026 73.278644 
L 163.493404 73.869139 
L 163.79094 73.967555 
L 165.278623 74.853298 
L 165.576159 74.951714 
L 166.468768 76.034289 
L 166.617536 76.034289 
L 167.063841 76.526368 
L 167.361377 76.821616 
L 167.95645 77.510527 
L 168.551523 78.002607 
L 169.295364 79.282013 
L 170.187974 79.970925 
L 170.48551 80.364588 
L 170.783046 80.463004 
L 171.378119 81.151915 
L 171.973192 81.545579 
L 172.270728 82.23449 
L 172.568265 82.529738 
L 172.865801 83.218649 
L 173.163338 83.317065 
L 174.055947 84.005976 
L 174.353483 84.39964 
L 174.799788 84.891719 
L 175.246093 85.285383 
L 175.543629 85.679046 
L 176.138702 86.367958 
L 176.882543 86.958453 
L 177.180079 87.253701 
L 178.221457 88.041028 
L 178.518993 88.434691 
L 178.965298 89.123603 
L 179.262834 89.615682 
L 179.560371 89.812514 
L 179.709139 90.206177 
L 179.709139 90.206177 
" clip-path="url(#pb5916d5da1)" style="fill: none; stroke: #e76f51; stroke-width: 1.8; stroke-linecap: square"/>
   </g>
   <g id="patch_3">
    <path d="M 54 388.8 
L 54 17.28 
" style="fill: none; stroke: #000000; stroke-width: 0.8; stroke-linejoin: miter; stroke-linecap: square"/>
   </g>
   <g id="patch_4">
    <path d="M 334.8 388.8 
L 334.8 17.28 
" style="fill: none; stroke: #000000; stroke-width: 0.8; stroke-linejoin: miter; stroke-linecap: square"/>
   </g>
   <g id="patch_5">
    <path d="M 54 388.8 
L 334.8 388.8 
" style="fill: none; stroke: #000000; stroke-width: 0.8; stroke-linejoin: miter; stroke-linecap: square"/>
   </g>
   <g id="patch_6">
    <path d="M 54 17.28 
L 334.8 17.28 
" style="fill: none; stroke: #000000; stroke-width: 0.8; stroke-linejoin: miter; stroke-linecap: square"/>
   </g>
   <g id="legend_1">
    <g id="patch_7">
     <path d="M 241.51125 132.5625 
L 326.4 132.5625 
Q 328.8 132.5625 328.8 130.1625 
L 328.8 25.68 
Q 328.8 23.28 326.4 23.28 
L 241.51125 23.28 
Q 239.11125 23.28 239.11125 25.68 
L 239.11125 130.1625 
Q 239.11125 132.5625 241.51125 132.5625 
z
" style="fill: #ffffff; opacity: 0.8; stroke: #cccccc; stroke-linejoin: miter"/>
    </g>
    <g id="line2d_35">
     <path d="M 243.91125 32.998125 
L 255.91125 32.998125 
L 267.91125 32.998125 
" style="fill: none; stroke: #d80000; stroke-width: 1.8; stroke-linecap: square"/>
    </g>
    <g id="text_17">
     <!-- None -->
     <g transform="translate(277.51125 37.198125) scale(0.12 -0.12)">
      <defs>
       <path id="DejaVuSans-4e" d="M 628 4666 
L 1478 4666 
L 3547 763 
L 3547 4666 
L 4159 4666 
L 4159 0 
L 3309 0 
L 1241 3903 
L 1241 0 
L 628 0 
L 628 4666 
z
" transform="scale(0.015625)"/>
       <path id="DejaVuSans-6e" d="M 3513 2113 
L 3513 0 
L 2938 0 
L 2938 2094 
Q 2938 2591 2744 2837 
Q 2550 3084 2163 3084 
Q 1697 3084 1428 2787 
Q 1159 2491 1159 1978 
L 1159 0 
L 581 0 
L 581 3500 
L 1159 3500 
L 1159 2956 
Q 1366 3272 1645 3428 
Q 1925 3584 2291 3584 
Q 2894 3584 3203 3211 
Q 3513 2838 3513 2113 
z
" transform="scale(0.015625)"/>
      </defs>
      <use xlink:href="#DejaVuSans-4e"/>
      <use xlink:href="#DejaVuSans-6f" x="74.804688"/>
      <use xlink:href="#DejaVuSans-6e" x="135.986328"/>
      <use xlink:href="#DejaVuSans-65" x="199.365234"/>
     </g>
    </g>
    <g id="line2d_36">
     <path d="M 243.91125 50.611875 
L 255.91125 50.611875 
L 267.91125 50.611875 
" style="fill: none; stroke: #264653; stroke-width: 1.8; stroke-linecap: square"/>
    </g>
    <g id="text_18">
     <!-- HD -->
     <g transform="translate(277.51125 54.811875) scale(0.12 -0.12)">
      <defs>
       <path id="DejaVuSans-48" d="M 628 4666 
L 1259 4666 
L 1259 2753 
L 3553 2753 
L 3553 4666 
L 4184 4666 
L 4184 0 
L 3553 0 
L 3553 2222 
L 1259 2222 
L 1259 0 
L 628 0 
L 628 4666 
z
" transform="scale(0.015625)"/>
       <path id="DejaVuSans-44" d="M 1259 4147 
L 1259 519 
L 2022 519 
Q 2988 519 3436 956 
Q 3884 1394 3884 2338 
Q 3884 3275 3436 3711 
Q 2988 4147 2022 4147 
L 1259 4147 
z
M 628 4666 
L 1925 4666 
Q 3281 4666 3915 4102 
Q 4550 3538 4550 2338 
Q 4550 1131 3912 565 
Q 3275 0 1925 0 
L 628 0 
L 628 4666 
z
" transform="scale(0.015625)"/>
      </defs>
      <use xlink:href="#DejaVuSans-48"/>
      <use xlink:href="#DejaVuSans-44" x="75.195312"/>
     </g>
    </g>
    <g id="line2d_37">
     <path d="M 243.91125 68.225625 
L 255.91125 68.225625 
L 267.91125 68.225625 
" style="fill: none; stroke: #ffe211; stroke-width: 1.8; stroke-linecap: square"/>
    </g>
    <g id="text_19">
     <!-- GND -->
     <g transform="translate(277.51125 72.425625) scale(0.12 -0.12)">
      <use xlink:href="#DejaVuSans-47"/>
      <use xlink:href="#DejaVuSans-4e" x="77.490234"/>
      <use xlink:href="#DejaVuSans-44" x="152.294922"/>
     </g>
    </g>
    <g id="line2d_38">
     <path d="M 243.91125 85.839375 
L 255.91125 85.839375 
L 267.91125 85.839375 
" style="fill: none; stroke: #39c5bb; stroke-width: 1.8; stroke-linecap: square"/>
    </g>
    <g id="text_20">
     <!-- BT -->
     <g transform="translate(277.51125 90.039375) scale(0.12 -0.12)">
      <defs>
       <path id="DejaVuSans-42" d="M 1259 2228 
L 1259 519 
L 2272 519 
Q 2781 519 3026 730 
Q 3272 941 3272 1375 
Q 3272 1813 3026 2020 
Q 2781 2228 2272 2228 
L 1259 2228 
z
M 1259 4147 
L 1259 2741 
L 2194 2741 
Q 2656 2741 2882 2914 
Q 3109 3088 3109 3444 
Q 3109 3797 2882 3972 
Q 2656 4147 2194 4147 
L 1259 4147 
z
M 628 4666 
L 2241 4666 
Q 2963 4666 3353 4366 
Q 3744 4066 3744 3513 
Q 3744 3084 3544 2831 
Q 3344 2578 2956 2516 
Q 3422 2416 3680 2098 
Q 3938 1781 3938 1306 
Q 3938 681 3513 340 
Q 3088 0 2303 0 
L 628 0 
L 628 4666 
z
" transform="scale(0.015625)"/>
       <path id="DejaVuSans-54" d="M -19 4666 
L 3928 4666 
L 3928 4134 
L 2272 4134 
L 2272 0 
L 1638 0 
L 1638 4134 
L -19 4134 
L -19 4666 
z
" transform="scale(0.015625)"/>
      </defs>
      <use xlink:href="#DejaVuSans-42"/>
      <use xlink:href="#DejaVuSans-54" x="68.603516"/>
     </g>
    </g>
    <g id="line2d_39">
     <path d="M 243.91125 103.453125 
L 255.91125 103.453125 
L 267.91125 103.453125 
" style="fill: none; stroke: #2a9d8f; stroke-width: 1.8; stroke-linecap: square"/>
    </g>
    <g id="text_21">
     <!-- DSTS-K -->
     <g transform="translate(277.51125 107.653125) scale(0.12 -0.12)">
      <defs>
       <path id="DejaVuSans-2d" d="M 313 2009 
L 1997 2009 
L 1997 1497 
L 313 1497 
L 313 2009 
z
" transform="scale(0.015625)"/>
       <path id="DejaVuSans-4b" d="M 628 4666 
L 1259 4666 
L 1259 2694 
L 3353 4666 
L 4166 4666 
L 1850 2491 
L 4331 0 
L 3500 0 
L 1259 2247 
L 1259 0 
L 628 0 
L 628 4666 
z
" transform="scale(0.015625)"/>
      </defs>
      <use xlink:href="#DejaVuSans-44"/>
      <use xlink:href="#DejaVuSans-53" x="77.001953"/>
      <use xlink:href="#DejaVuSans-54" x="140.478516"/>
      <use xlink:href="#DejaVuSans-53" x="201.5625"/>
      <use xlink:href="#DejaVuSans-2d" x="265.039062"/>
      <use xlink:href="#DejaVuSans-4b" x="301.123047"/>
     </g>
    </g>
    <g id="line2d_40">
     <path d="M 243.91125 121.066875 
L 255.91125 121.066875 
L 267.91125 121.066875 
" style="fill: none; stroke: #e76f51; stroke-width: 1.8; stroke-linecap: square"/>
    </g>
    <g id="text_22">
     <!-- DSTS-M -->
     <g transform="translate(277.51125 125.266875) scale(0.12 -0.12)">
      <defs>
       <path id="DejaVuSans-4d" d="M 628 4666 
L 1569 4666 
L 2759 1491 
L 3956 4666 
L 4897 4666 
L 4897 0 
L 4281 0 
L 4281 4097 
L 3078 897 
L 2444 897 
L 1241 4097 
L 1241 0 
L 628 0 
L 628 4666 
z
" transform="scale(0.015625)"/>
      </defs>
      <use xlink:href="#DejaVuSans-44"/>
      <use xlink:href="#DejaVuSans-53" x="77.001953"/>
      <use xlink:href="#DejaVuSans-54" x="140.478516"/>
      <use xlink:href="#DejaVuSans-53" x="201.5625"/>
      <use xlink:href="#DejaVuSans-2d" x="265.039062"/>
      <use xlink:href="#DejaVuSans-4d" x="301.123047"/>
     </g>
    </g>
   </g>
  </g>
 </g>
 <defs>
  <clipPath id="pb5916d5da1">
   <rect x="54" y="17.28" width="280.8" height="371.52"/>
  </clipPath>
 </defs>
</svg>
