<?xml version="1.0" encoding="utf-8" standalone="no"?>
<!DOCTYPE svg PUBLIC "-//W3C//DTD SVG 1.1//EN"
  "http://www.w3.org/Graphics/SVG/1.1/DTD/svg11.dtd">
<svg xmlns:xlink="http://www.w3.org/1999/xlink" width="360pt" height="432pt" viewBox="0 0 360 432" xmlns="http://www.w3.org/2000/svg" version="1.1">
 <metadata>
  <rdf:RDF xmlns:dc="http://purl.org/dc/elements/1.1/" xmlns:cc="http://creativecommons.org/ns#" xmlns:rdf="http://www.w3.org/1999/02/22-rdf-syntax-ns#">
   <cc:Work>
    <dc:type rdf:resource="http://purl.org/dc/dcmitype/StillImage"/>
    <dc:date>2026-04-01T15:46:42.976556</dc:date>
    <dc:format>image/svg+xml</dc:format>
    <dc:creator>
     <cc:Agent>
      <dc:title>Matplotlib v3.6.3, https://matplotlib.org/</dc:title>
     </cc:Agent>
    </dc:creator>
   </cc:Work>
  </rdf:RDF>
 </metadata>
 <defs>
  <style type="text/css">*{stroke-linejoin: round; stroke-linecap: butt}</style>
 </defs>
 <g id="figure_1">
  <g id="patch_1">
   <path d="M 0 432 
L 360 432 
L 360 0 
L 0 0 
z
" style="fill: #ffffff"/>
  </g>
  <g id="axes_1">
   <g id="patch_2">
    <path d="M 54 388.8 
L 334.8 388.8 
L 334.8 17.28 
L 54 17.28 
z
" style="fill: #ffffff"/>
   </g>
   <g id="matplotlib.axis_1">
    <g id="xtick_1">
     <g id="line2d_1">
      <path d="M 54 388.8 
L 54 17.28 
" clip-path="url(#p167e683238)" style="fill: none; stroke: #000000; stroke-opacity: 0.1; stroke-width: 0.7; stroke-linecap: square"/>
     </g>
     <g id="line2d_2">
      <defs>
       <path id="m8b17041983" d="M 0 0 
L 0 3.5 
" style="stroke: #000000; stroke-width: 0.8"/>
      </defs>
      <g>
       <use xlink:href="#m8b17041983" x="54" y="388.8" style="stroke: #000000; stroke-width: 0.8"/>
      </g>
     </g>
     <g id="text_1">
      <!-- 0.00 -->
      <g transform="translate(39.527344 405.677969) scale(0.13 -0.13)">
       <defs>
        <path id="DejaVuSans-30" d="M 2034 4250 
Q 1547 4250 1301 3770 
Q 1056 3291 1056 2328 
Q 1056 1369 1301 889 
Q 1547 409 2034 409 
Q 2525 409 2770 889 
Q 3016 1369 3016 2328 
Q 3016 3291 2770 3770 
Q 2525 4250 2034 4250 
z
M 2034 4750 
Q 2819 4750 3233 4129 
Q 3647 3509 3647 2328 
Q 3647 1150 3233 529 
Q 2819 -91 2034 -91 
Q 1250 -91 836 529 
Q 422 1150 422 2328 
Q 422 3509 836 4129 
Q 1250 4750 2034 4750 
z
" transform="scale(0.015625)"/>
        <path id="DejaVuSans-2e" d="M 684 794 
L 1344 794 
L 1344 0 
L 684 0 
L 684 794 
z
" transform="scale(0.015625)"/>
       </defs>
       <use xlink:href="#DejaVuSans-30"/>
       <use xlink:href="#DejaVuSans-2e" x="63.623047"/>
       <use xlink:href="#DejaVuSans-30" x="95.410156"/>
       <use xlink:href="#DejaVuSans-30" x="159.033203"/>
      </g>
     </g>
    </g>
    <g id="xtick_2">
     <g id="line2d_3">
      <path d="M 194.4 388.8 
L 194.4 17.28 
" clip-path="url(#p167e683238)" style="fill: none; stroke: #000000; stroke-opacity: 0.1; stroke-width: 0.7; stroke-linecap: square"/>
     </g>
     <g id="line2d_4">
      <g>
       <use xlink:href="#m8b17041983" x="194.4" y="388.8" style="stroke: #000000; stroke-width: 0.8"/>
      </g>
     </g>
     <g id="text_2">
      <!-- 0.25 -->
      <g transform="translate(179.927344 405.677969) scale(0.13 -0.13)">
       <defs>
        <path id="DejaVuSans-32" d="M 1228 531 
L 3431 531 
L 3431 0 
L 469 0 
L 469 531 
Q 828 903 1448 1529 
Q 2069 2156 2228 2338 
Q 2531 2678 2651 2914 
Q 2772 3150 2772 3378 
Q 2772 3750 2511 3984 
Q 2250 4219 1831 4219 
Q 1534 4219 1204 4116 
Q 875 4013 500 3803 
L 500 4441 
Q 881 4594 1212 4672 
Q 1544 4750 1819 4750 
Q 2544 4750 2975 4387 
Q 3406 4025 3406 3419 
Q 3406 3131 3298 2873 
Q 3191 2616 2906 2266 
Q 2828 2175 2409 1742 
Q 1991 1309 1228 531 
z
" transform="scale(0.015625)"/>
        <path id="DejaVuSans-35" d="M 691 4666 
L 3169 4666 
L 3169 4134 
L 1269 4134 
L 1269 2991 
Q 1406 3038 1543 3061 
Q 1681 3084 1819 3084 
Q 2600 3084 3056 2656 
Q 3513 2228 3513 1497 
Q 3513 744 3044 326 
Q 2575 -91 1722 -91 
Q 1428 -91 1123 -41 
Q 819 9 494 109 
L 494 744 
Q 775 591 1075 516 
Q 1375 441 1709 441 
Q 2250 441 2565 725 
Q 2881 1009 2881 1497 
Q 2881 1984 2565 2268 
Q 2250 2553 1709 2553 
Q 1456 2553 1204 2497 
Q 953 2441 691 2322 
L 691 4666 
z
" transform="scale(0.015625)"/>
       </defs>
       <use xlink:href="#DejaVuSans-30"/>
       <use xlink:href="#DejaVuSans-2e" x="63.623047"/>
       <use xlink:href="#DejaVuSans-32" x="95.410156"/>
       <use xlink:href="#DejaVuSans-35" x="159.033203"/>
      </g>
     </g>
    </g>
    <g id="xtick_3">
     <g id="line2d_5">
      <path d="M 334.8 388.8 
L 334.8 17.28 
" clip-path="url(#p167e683238)" style="fill: none; stroke: #000000; stroke-opacity: 0.1; stroke-width: 0.7; stroke-linecap: square"/>
     </g>
     <g id="line2d_6">
      <g>
       <use xlink:href="#m8b17041983" x="334.8" y="388.8" style="stroke: #000000; stroke-width: 0.8"/>
      </g>
     </g>
     <g id="text_3">
      <!-- 0.50 -->
      <g transform="translate(320.327344 405.677969) scale(0.13 -0.13)">
       <use xlink:href="#DejaVuSans-30"/>
       <use xlink:href="#DejaVuSans-2e" x="63.623047"/>
       <use xlink:href="#DejaVuSans-35" x="95.410156"/>
       <use xlink:href="#DejaVuSans-30" x="159.033203"/>
      </g>
     </g>
    </g>
    <g id="text_4">
     <!-- Attack Ratio -->
     <g transform="translate(145.78375 424.539062) scale(0.16 -0.16)">
      <defs>
       <path id="DejaVuSans-41" d="M 2188 4044 
L 1331 1722 
L 3047 1722 
L 2188 4044 
z
M 1831 4666 
L 2547 4666 
L 4325 0 
L 3669 0 
L 3244 1197 
L 1141 1197 
L 716 0 
L 50 0 
L 1831 4666 
z
" transform="scale(0.015625)"/>
       <path id="DejaVuSans-74" d="M 1172 4494 
L 1172 3500 
L 2356 3500 
L 2356 3053 
L 1172 3053 
L 1172 1153 
Q 1172 725 1289 603 
Q 1406 481 1766 481 
L 2356 481 
L 2356 0 
L 1766 0 
Q 1100 0 847 248 
Q 594 497 594 1153 
L 594 3053 
L 172 3053 
L 172 3500 
L 594 3500 
L 594 4494 
L 1172 4494 
z
" transform="scale(0.015625)"/>
       <path id="DejaVuSans-61" d="M 2194 1759 
Q 1497 1759 1228 1600 
Q 959 1441 959 1056 
Q 959 750 1161 570 
Q 1363 391 1709 391 
Q 2188 391 2477 730 
Q 2766 1069 2766 1631 
L 2766 1759 
L 2194 1759 
z
M 3341 1997 
L 3341 0 
L 2766 0 
L 2766 531 
Q 2569 213 2275 61 
Q 1981 -91 1556 -91 
Q 1019 -91 701 211 
Q 384 513 384 1019 
Q 384 1609 779 1909 
Q 1175 2209 1959 2209 
L 2766 2209 
L 2766 2266 
Q 2766 2663 2505 2880 
Q 2244 3097 1772 3097 
Q 1472 3097 1187 3025 
Q 903 2953 641 2809 
L 641 3341 
Q 956 3463 1253 3523 
Q 1550 3584 1831 3584 
Q 2591 3584 2966 3190 
Q 3341 2797 3341 1997 
z
" transform="scale(0.015625)"/>
       <path id="DejaVuSans-63" d="M 3122 3366 
L 3122 2828 
Q 2878 2963 2633 3030 
Q 2388 3097 2138 3097 
Q 1578 3097 1268 2742 
Q 959 2388 959 1747 
Q 959 1106 1268 751 
Q 1578 397 2138 397 
Q 2388 397 2633 464 
Q 2878 531 3122 666 
L 3122 134 
Q 2881 22 2623 -34 
Q 2366 -91 2075 -91 
Q 1284 -91 818 406 
Q 353 903 353 1747 
Q 353 2603 823 3093 
Q 1294 3584 2113 3584 
Q 2378 3584 2631 3529 
Q 2884 3475 3122 3366 
z
" transform="scale(0.015625)"/>
       <path id="DejaVuSans-6b" d="M 581 4863 
L 1159 4863 
L 1159 1991 
L 2875 3500 
L 3609 3500 
L 1753 1863 
L 3688 0 
L 2938 0 
L 1159 1709 
L 1159 0 
L 581 0 
L 581 4863 
z
" transform="scale(0.015625)"/>
       <path id="DejaVuSans-20" transform="scale(0.015625)"/>
       <path id="DejaVuSans-52" d="M 2841 2188 
Q 3044 2119 3236 1894 
Q 3428 1669 3622 1275 
L 4263 0 
L 3584 0 
L 2988 1197 
Q 2756 1666 2539 1819 
Q 2322 1972 1947 1972 
L 1259 1972 
L 1259 0 
L 628 0 
L 628 4666 
L 2053 4666 
Q 2853 4666 3247 4331 
Q 3641 3997 3641 3322 
Q 3641 2881 3436 2590 
Q 3231 2300 2841 2188 
z
M 1259 4147 
L 1259 2491 
L 2053 2491 
Q 2509 2491 2742 2702 
Q 2975 2913 2975 3322 
Q 2975 3731 2742 3939 
Q 2509 4147 2053 4147 
L 1259 4147 
z
" transform="scale(0.015625)"/>
       <path id="DejaVuSans-69" d="M 603 3500 
L 1178 3500 
L 1178 0 
L 603 0 
L 603 3500 
z
M 603 4863 
L 1178 4863 
L 1178 4134 
L 603 4134 
L 603 4863 
z
" transform="scale(0.015625)"/>
       <path id="DejaVuSans-6f" d="M 1959 3097 
Q 1497 3097 1228 2736 
Q 959 2375 959 1747 
Q 959 1119 1226 758 
Q 1494 397 1959 397 
Q 2419 397 2687 759 
Q 2956 1122 2956 1747 
Q 2956 2369 2687 2733 
Q 2419 3097 1959 3097 
z
M 1959 3584 
Q 2709 3584 3137 3096 
Q 3566 2609 3566 1747 
Q 3566 888 3137 398 
Q 2709 -91 1959 -91 
Q 1206 -91 779 398 
Q 353 888 353 1747 
Q 353 2609 779 3096 
Q 1206 3584 1959 3584 
z
" transform="scale(0.015625)"/>
      </defs>
      <use xlink:href="#DejaVuSans-41"/>
      <use xlink:href="#DejaVuSans-74" x="66.658203"/>
      <use xlink:href="#DejaVuSans-74" x="105.867188"/>
      <use xlink:href="#DejaVuSans-61" x="145.076172"/>
      <use xlink:href="#DejaVuSans-63" x="206.355469"/>
      <use xlink:href="#DejaVuSans-6b" x="261.335938"/>
      <use xlink:href="#DejaVuSans-20" x="319.246094"/>
      <use xlink:href="#DejaVuSans-52" x="351.033203"/>
      <use xlink:href="#DejaVuSans-61" x="418.265625"/>
      <use xlink:href="#DejaVuSans-74" x="479.544922"/>
      <use xlink:href="#DejaVuSans-69" x="518.753906"/>
      <use xlink:href="#DejaVuSans-6f" x="546.537109"/>
     </g>
    </g>
   </g>
   <g id="matplotlib.axis_2">
    <g id="ytick_1">
     <g id="line2d_7">
      <path d="M 54 388.8 
L 334.8 388.8 
" clip-path="url(#p167e683238)" style="fill: none; stroke: #000000; stroke-opacity: 0.1; stroke-width: 0.7; stroke-linecap: square"/>
     </g>
     <g id="line2d_8">
      <defs>
       <path id="m2279489435" d="M 0 0 
L -3.5 0 
" style="stroke: #000000; stroke-width: 0.8"/>
      </defs>
      <g>
       <use xlink:href="#m2279489435" x="54" y="388.8" style="stroke: #000000; stroke-width: 0.8"/>
      </g>
     </g>
     <g id="text_5">
      <!-- 0.0 -->
      <g transform="translate(26.325937 393.738984) scale(0.13 -0.13)">
       <use xlink:href="#DejaVuSans-30"/>
       <use xlink:href="#DejaVuSans-2e" x="63.623047"/>
       <use xlink:href="#DejaVuSans-30" x="95.410156"/>
      </g>
     </g>
    </g>
    <g id="ytick_2">
     <g id="line2d_9">
      <path d="M 54 351.648 
L 334.8 351.648 
" clip-path="url(#p167e683238)" style="fill: none; stroke: #000000; stroke-opacity: 0.1; stroke-width: 0.7; stroke-linecap: square"/>
     </g>
     <g id="line2d_10">
      <g>
       <use xlink:href="#m2279489435" x="54" y="351.648" style="stroke: #000000; stroke-width: 0.8"/>
      </g>
     </g>
     <g id="text_6">
      <!-- 0.1 -->
      <g transform="translate(26.325937 356.586984) scale(0.13 -0.13)">
       <defs>
        <path id="DejaVuSans-31" d="M 794 531 
L 1825 531 
L 1825 4091 
L 703 3866 
L 703 4441 
L 1819 4666 
L 2450 4666 
L 2450 531 
L 3481 531 
L 3481 0 
L 794 0 
L 794 531 
z
" transform="scale(0.015625)"/>
       </defs>
       <use xlink:href="#DejaVuSans-30"/>
       <use xlink:href="#DejaVuSans-2e" x="63.623047"/>
       <use xlink:href="#DejaVuSans-31" x="95.410156"/>
      </g>
     </g>
    </g>
    <g id="ytick_3">
     <g id="line2d_11">
      <path d="M 54 314.496 
L 334.8 314.496 
" clip-path="url(#p167e683238)" style="fill: none; stroke: #000000; stroke-opacity: 0.1; stroke-width: 0.7; stroke-linecap: square"/>
     </g>
     <g id="line2d_12">
      <g>
       <use xlink:href="#m2279489435" x="54" y="314.496" style="stroke: #000000; stroke-width: 0.8"/>
      </g>
     </g>
     <g id="text_7">
      <!-- 0.2 -->
      <g transform="translate(26.325937 319.434984) scale(0.13 -0.13)">
       <use xlink:href="#DejaVuSans-30"/>
       <use xlink:href="#DejaVuSans-2e" x="63.623047"/>
       <use xlink:href="#DejaVuSans-32" x="95.410156"/>
      </g>
     </g>
    </g>
    <g id="ytick_4">
     <g id="line2d_13">
      <path d="M 54 277.344 
L 334.8 277.344 
" clip-path="url(#p167e683238)" style="fill: none; stroke: #000000; stroke-opacity: 0.1; stroke-width: 0.7; stroke-linecap: square"/>
     </g>
     <g id="line2d_14">
      <g>
       <use xlink:href="#m2279489435" x="54" y="277.344" style="stroke: #000000; stroke-width: 0.8"/>
      </g>
     </g>
     <g id="text_8">
      <!-- 0.3 -->
      <g transform="translate(26.325937 282.282984) scale(0.13 -0.13)">
       <defs>
        <path id="DejaVuSans-33" d="M 2597 2516 
Q 3050 2419 3304 2112 
Q 3559 1806 3559 1356 
Q 3559 666 3084 287 
Q 2609 -91 1734 -91 
Q 1441 -91 1130 -33 
Q 819 25 488 141 
L 488 750 
Q 750 597 1062 519 
Q 1375 441 1716 441 
Q 2309 441 2620 675 
Q 2931 909 2931 1356 
Q 2931 1769 2642 2001 
Q 2353 2234 1838 2234 
L 1294 2234 
L 1294 2753 
L 1863 2753 
Q 2328 2753 2575 2939 
Q 2822 3125 2822 3475 
Q 2822 3834 2567 4026 
Q 2313 4219 1838 4219 
Q 1578 4219 1281 4162 
Q 984 4106 628 3988 
L 628 4550 
Q 988 4650 1302 4700 
Q 1616 4750 1894 4750 
Q 2613 4750 3031 4423 
Q 3450 4097 3450 3541 
Q 3450 3153 3228 2886 
Q 3006 2619 2597 2516 
z
" transform="scale(0.015625)"/>
       </defs>
       <use xlink:href="#DejaVuSans-30"/>
       <use xlink:href="#DejaVuSans-2e" x="63.623047"/>
       <use xlink:href="#DejaVuSans-33" x="95.410156"/>
      </g>
     </g>
    </g>
    <g id="ytick_5">
     <g id="line2d_15">
      <path d="M 54 240.192 
L 334.8 240.192 
" clip-path="url(#p167e683238)" style="fill: none; stroke: #000000; stroke-opacity: 0.1; stroke-width: 0.7; stroke-linecap: square"/>
     </g>
     <g id="line2d_16">
      <g>
       <use xlink:href="#m2279489435" x="54" y="240.192" style="stroke: #000000; stroke-width: 0.8"/>
      </g>
     </g>
     <g id="text_9">
      <!-- 0.4 -->
      <g transform="translate(26.325937 245.130984) scale(0.13 -0.13)">
       <defs>
        <path id="DejaVuSans-34" d="M 2419 4116 
L 825 1625 
L 2419 1625 
L 2419 4116 
z
M 2253 4666 
L 3047 4666 
L 3047 1625 
L 3713 1625 
L 3713 1100 
L 3047 1100 
L 3047 0 
L 2419 0 
L 2419 1100 
L 313 1100 
L 313 1709 
L 2253 4666 
z
" transform="scale(0.015625)"/>
       </defs>
       <use xlink:href="#DejaVuSans-30"/>
       <use xlink:href="#DejaVuSans-2e" x="63.623047"/>
       <use xlink:href="#DejaVuSans-34" x="95.410156"/>
      </g>
     </g>
    </g>
    <g id="ytick_6">
     <g id="line2d_17">
      <path d="M 54 203.04 
L 334.8 203.04 
" clip-path="url(#p167e683238)" style="fill: none; stroke: #000000; stroke-opacity: 0.1; stroke-width: 0.7; stroke-linecap: square"/>
     </g>
     <g id="line2d_18">
      <g>
       <use xlink:href="#m2279489435" x="54" y="203.04" style="stroke: #000000; stroke-width: 0.8"/>
      </g>
     </g>
     <g id="text_10">
      <!-- 0.5 -->
      <g transform="translate(26.325937 207.978984) scale(0.13 -0.13)">
       <use xlink:href="#DejaVuSans-30"/>
       <use xlink:href="#DejaVuSans-2e" x="63.623047"/>
       <use xlink:href="#DejaVuSans-35" x="95.410156"/>
      </g>
     </g>
    </g>
    <g id="ytick_7">
     <g id="line2d_19">
      <path d="M 54 165.888 
L 334.8 165.888 
" clip-path="url(#p167e683238)" style="fill: none; stroke: #000000; stroke-opacity: 0.1; stroke-width: 0.7; stroke-linecap: square"/>
     </g>
     <g id="line2d_20">
      <g>
       <use xlink:href="#m2279489435" x="54" y="165.888" style="stroke: #000000; stroke-width: 0.8"/>
      </g>
     </g>
     <g id="text_11">
      <!-- 0.6 -->
      <g transform="translate(26.325937 170.826984) scale(0.13 -0.13)">
       <defs>
        <path id="DejaVuSans-36" d="M 2113 2584 
Q 1688 2584 1439 2293 
Q 1191 2003 1191 1497 
Q 1191 994 1439 701 
Q 1688 409 2113 409 
Q 2538 409 2786 701 
Q 3034 994 3034 1497 
Q 3034 2003 2786 2293 
Q 2538 2584 2113 2584 
z
M 3366 4563 
L 3366 3988 
Q 3128 4100 2886 4159 
Q 2644 4219 2406 4219 
Q 1781 4219 1451 3797 
Q 1122 3375 1075 2522 
Q 1259 2794 1537 2939 
Q 1816 3084 2150 3084 
Q 2853 3084 3261 2657 
Q 3669 2231 3669 1497 
Q 3669 778 3244 343 
Q 2819 -91 2113 -91 
Q 1303 -91 875 529 
Q 447 1150 447 2328 
Q 447 3434 972 4092 
Q 1497 4750 2381 4750 
Q 2619 4750 2861 4703 
Q 3103 4656 3366 4563 
z
" transform="scale(0.015625)"/>
       </defs>
       <use xlink:href="#DejaVuSans-30"/>
       <use xlink:href="#DejaVuSans-2e" x="63.623047"/>
       <use xlink:href="#DejaVuSans-36" x="95.410156"/>
      </g>
     </g>
    </g>
    <g id="ytick_8">
     <g id="line2d_21">
      <path d="M 54 128.736 
L 334.8 128.736 
" clip-path="url(#p167e683238)" style="fill: none; stroke: #000000; stroke-opacity: 0.1; stroke-width: 0.7; stroke-linecap: square"/>
     </g>
     <g id="line2d_22">
      <g>
       <use xlink:href="#m2279489435" x="54" y="128.736" style="stroke: #000000; stroke-width: 0.8"/>
      </g>
     </g>
     <g id="text_12">
      <!-- 0.7 -->
      <g transform="translate(26.325937 133.674984) scale(0.13 -0.13)">
       <defs>
        <path id="DejaVuSans-37" d="M 525 4666 
L 3525 4666 
L 3525 4397 
L 1831 0 
L 1172 0 
L 2766 4134 
L 525 4134 
L 525 4666 
z
" transform="scale(0.015625)"/>
       </defs>
       <use xlink:href="#DejaVuSans-30"/>
       <use xlink:href="#DejaVuSans-2e" x="63.623047"/>
       <use xlink:href="#DejaVuSans-37" x="95.410156"/>
      </g>
     </g>
    </g>
    <g id="ytick_9">
     <g id="line2d_23">
      <path d="M 54 91.584 
L 334.8 91.584 
" clip-path="url(#p167e683238)" style="fill: none; stroke: #000000; stroke-opacity: 0.1; stroke-width: 0.7; stroke-linecap: square"/>
     </g>
     <g id="line2d_24">
      <g>
       <use xlink:href="#m2279489435" x="54" y="91.584" style="stroke: #000000; stroke-width: 0.8"/>
      </g>
     </g>
     <g id="text_13">
      <!-- 0.8 -->
      <g transform="translate(26.325937 96.522984) scale(0.13 -0.13)">
       <defs>
        <path id="DejaVuSans-38" d="M 2034 2216 
Q 1584 2216 1326 1975 
Q 1069 1734 1069 1313 
Q 1069 891 1326 650 
Q 1584 409 2034 409 
Q 2484 409 2743 651 
Q 3003 894 3003 1313 
Q 3003 1734 2745 1975 
Q 2488 2216 2034 2216 
z
M 1403 2484 
Q 997 2584 770 2862 
Q 544 3141 544 3541 
Q 544 4100 942 4425 
Q 1341 4750 2034 4750 
Q 2731 4750 3128 4425 
Q 3525 4100 3525 3541 
Q 3525 3141 3298 2862 
Q 3072 2584 2669 2484 
Q 3125 2378 3379 2068 
Q 3634 1759 3634 1313 
Q 3634 634 3220 271 
Q 2806 -91 2034 -91 
Q 1263 -91 848 271 
Q 434 634 434 1313 
Q 434 1759 690 2068 
Q 947 2378 1403 2484 
z
M 1172 3481 
Q 1172 3119 1398 2916 
Q 1625 2713 2034 2713 
Q 2441 2713 2670 2916 
Q 2900 3119 2900 3481 
Q 2900 3844 2670 4047 
Q 2441 4250 2034 4250 
Q 1625 4250 1398 4047 
Q 1172 3844 1172 3481 
z
" transform="scale(0.015625)"/>
       </defs>
       <use xlink:href="#DejaVuSans-30"/>
       <use xlink:href="#DejaVuSans-2e" x="63.623047"/>
       <use xlink:href="#DejaVuSans-38" x="95.410156"/>
      </g>
     </g>
    </g>
    <g id="ytick_10">
     <g id="line2d_25">
      <path d="M 54 54.432 
L 334.8 54.432 
" clip-path="url(#p167e683238)" style="fill: none; stroke: #000000; stroke-opacity: 0.1; stroke-width: 0.7; stroke-linecap: square"/>
     </g>
     <g id="line2d_26">
      <g>
       <use xlink:href="#m2279489435" x="54" y="54.432" style="stroke: #000000; stroke-width: 0.8"/>
      </g>
     </g>
     <g id="text_14">
      <!-- 0.9 -->
      <g transform="translate(26.325937 59.370984) scale(0.13 -0.13)">
       <defs>
        <path id="DejaVuSans-39" d="M 703 97 
L 703 672 
Q 941 559 1184 500 
Q 1428 441 1663 441 
Q 2288 441 2617 861 
Q 2947 1281 2994 2138 
Q 2813 1869 2534 1725 
Q 2256 1581 1919 1581 
Q 1219 1581 811 2004 
Q 403 2428 403 3163 
Q 403 3881 828 4315 
Q 1253 4750 1959 4750 
Q 2769 4750 3195 4129 
Q 3622 3509 3622 2328 
Q 3622 1225 3098 567 
Q 2575 -91 1691 -91 
Q 1453 -91 1209 -44 
Q 966 3 703 97 
z
M 1959 2075 
Q 2384 2075 2632 2365 
Q 2881 2656 2881 3163 
Q 2881 3666 2632 3958 
Q 2384 4250 1959 4250 
Q 1534 4250 1286 3958 
Q 1038 3666 1038 3163 
Q 1038 2656 1286 2365 
Q 1534 2075 1959 2075 
z
" transform="scale(0.015625)"/>
       </defs>
       <use xlink:href="#DejaVuSans-30"/>
       <use xlink:href="#DejaVuSans-2e" x="63.623047"/>
       <use xlink:href="#DejaVuSans-39" x="95.410156"/>
      </g>
     </g>
    </g>
    <g id="ytick_11">
     <g id="line2d_27">
      <path d="M 54 17.28 
L 334.8 17.28 
" clip-path="url(#p167e683238)" style="fill: none; stroke: #000000; stroke-opacity: 0.1; stroke-width: 0.7; stroke-linecap: square"/>
     </g>
     <g id="line2d_28">
      <g>
       <use xlink:href="#m2279489435" x="54" y="17.28" style="stroke: #000000; stroke-width: 0.8"/>
      </g>
     </g>
     <g id="text_15">
      <!-- 1.0 -->
      <g transform="translate(26.325937 22.218984) scale(0.13 -0.13)">
       <use xlink:href="#DejaVuSans-31"/>
       <use xlink:href="#DejaVuSans-2e" x="63.623047"/>
       <use xlink:href="#DejaVuSans-30" x="95.410156"/>
      </g>
     </g>
    </g>
    <g id="text_16">
     <!-- GCC Size -->
     <g transform="translate(18.998437 239.37625) rotate(-90) scale(0.16 -0.16)">
      <defs>
       <path id="DejaVuSans-47" d="M 3809 666 
L 3809 1919 
L 2778 1919 
L 2778 2438 
L 4434 2438 
L 4434 434 
Q 4069 175 3628 42 
Q 3188 -91 2688 -91 
Q 1594 -91 976 548 
Q 359 1188 359 2328 
Q 359 3472 976 4111 
Q 1594 4750 2688 4750 
Q 3144 4750 3555 4637 
Q 3966 4525 4313 4306 
L 4313 3634 
Q 3963 3931 3569 4081 
Q 3175 4231 2741 4231 
Q 1884 4231 1454 3753 
Q 1025 3275 1025 2328 
Q 1025 1384 1454 906 
Q 1884 428 2741 428 
Q 3075 428 3337 486 
Q 3600 544 3809 666 
z
" transform="scale(0.015625)"/>
       <path id="DejaVuSans-43" d="M 4122 4306 
L 4122 3641 
Q 3803 3938 3442 4084 
Q 3081 4231 2675 4231 
Q 1875 4231 1450 3742 
Q 1025 3253 1025 2328 
Q 1025 1406 1450 917 
Q 1875 428 2675 428 
Q 3081 428 3442 575 
Q 3803 722 4122 1019 
L 4122 359 
Q 3791 134 3420 21 
Q 3050 -91 2638 -91 
Q 1578 -91 968 557 
Q 359 1206 359 2328 
Q 359 3453 968 4101 
Q 1578 4750 2638 4750 
Q 3056 4750 3426 4639 
Q 3797 4528 4122 4306 
z
" transform="scale(0.015625)"/>
       <path id="DejaVuSans-53" d="M 3425 4513 
L 3425 3897 
Q 3066 4069 2747 4153 
Q 2428 4238 2131 4238 
Q 1616 4238 1336 4038 
Q 1056 3838 1056 3469 
Q 1056 3159 1242 3001 
Q 1428 2844 1947 2747 
L 2328 2669 
Q 3034 2534 3370 2195 
Q 3706 1856 3706 1288 
Q 3706 609 3251 259 
Q 2797 -91 1919 -91 
Q 1588 -91 1214 -16 
Q 841 59 441 206 
L 441 856 
Q 825 641 1194 531 
Q 1563 422 1919 422 
Q 2459 422 2753 634 
Q 3047 847 3047 1241 
Q 3047 1584 2836 1778 
Q 2625 1972 2144 2069 
L 1759 2144 
Q 1053 2284 737 2584 
Q 422 2884 422 3419 
Q 422 4038 858 4394 
Q 1294 4750 2059 4750 
Q 2388 4750 2728 4690 
Q 3069 4631 3425 4513 
z
" transform="scale(0.015625)"/>
       <path id="DejaVuSans-7a" d="M 353 3500 
L 3084 3500 
L 3084 2975 
L 922 459 
L 3084 459 
L 3084 0 
L 275 0 
L 275 525 
L 2438 3041 
L 353 3041 
L 353 3500 
z
" transform="scale(0.015625)"/>
       <path id="DejaVuSans-65" d="M 3597 1894 
L 3597 1613 
L 953 1613 
Q 991 1019 1311 708 
Q 1631 397 2203 397 
Q 2534 397 2845 478 
Q 3156 559 3463 722 
L 3463 178 
Q 3153 47 2828 -22 
Q 2503 -91 2169 -91 
Q 1331 -91 842 396 
Q 353 884 353 1716 
Q 353 2575 817 3079 
Q 1281 3584 2069 3584 
Q 2775 3584 3186 3129 
Q 3597 2675 3597 1894 
z
M 3022 2063 
Q 3016 2534 2758 2815 
Q 2500 3097 2075 3097 
Q 1594 3097 1305 2825 
Q 1016 2553 972 2059 
L 3022 2063 
z
" transform="scale(0.015625)"/>
      </defs>
      <use xlink:href="#DejaVuSans-47"/>
      <use xlink:href="#DejaVuSans-43" x="77.490234"/>
      <use xlink:href="#DejaVuSans-43" x="147.314453"/>
      <use xlink:href="#DejaVuSans-20" x="217.138672"/>
      <use xlink:href="#DejaVuSans-53" x="248.925781"/>
      <use xlink:href="#DejaVuSans-69" x="312.402344"/>
      <use xlink:href="#DejaVuSans-7a" x="340.185547"/>
      <use xlink:href="#DejaVuSans-65" x="392.675781"/>
     </g>
    </g>
   </g>
   <g id="line2d_29">
    <path d="M 54.095591 17.469712 
L 54.382366 17.722662 
L 54.573549 18.102087 
L 54.764732 18.228562 
L 54.955915 18.544749 
L 55.242689 18.797699 
L 55.529464 19.050649 
L 55.720647 19.683023 
L 56.007421 19.99921 
L 56.198604 20.568347 
L 56.485379 20.884534 
L 56.676562 21.137484 
L 56.867745 41.05728 
L 56.963336 41.120517 
L 57.058928 41.436705 
L 57.250111 43.52354 
L 57.441294 43.966203 
L 57.728068 44.725052 
L 57.919251 44.914764 
L 58.110434 45.736851 
L 58.301617 45.989801 
L 59.353123 46.811888 
L 60.022264 47.570737 
L 60.500221 47.886924 
L 60.786996 48.456061 
L 60.978179 48.709011 
L 61.264953 48.961961 
L 61.360545 49.025198 
L 61.551728 49.657573 
L 61.647319 49.72081 
L 61.934094 50.22671 
L 62.029685 50.289947 
L 62.220868 51.870883 
L 62.603234 52.503258 
L 62.794417 53.831244 
L 63.176783 54.147431 
L 63.463557 54.779806 
L 63.65474 55.538655 
L 64.228289 55.981317 
L 64.515064 56.360742 
L 64.801838 56.676929 
L 64.993021 57.246066 
L 65.662162 57.751966 
L 66.044528 59.016715 
L 66.331302 59.902039 
L 66.426894 59.965277 
L 66.618077 60.281464 
L 66.713668 60.344701 
L 66.80926 60.597651 
L 67.000443 61.988875 
L 67.191626 62.937437 
L 67.573991 63.822761 
L 67.765174 64.32866 
L 67.860766 64.391898 
L 68.051949 66.099309 
L 68.434315 66.921396 
L 68.625498 68.565569 
L 69.007864 69.387656 
L 69.199047 70.842117 
L 69.294638 70.968592 
L 69.485821 71.411254 
L 69.772596 71.664204 
L 69.868187 71.853917 
L 70.154962 73.434853 
L 70.346145 73.624565 
L 70.537328 74.320177 
L 70.728511 74.509889 
L 70.919694 75.079026 
L 71.110877 76.97615 
L 71.30206 77.102625 
L 71.493243 78.430611 
L 72.066791 78.936511 
L 72.544749 80.264497 
L 72.831523 80.580684 
L 73.022706 80.833634 
L 73.213889 83.17342 
L 73.500664 83.489607 
L 73.691847 88.61184 
L 73.787438 88.675077 
L 73.978621 90.256014 
L 74.074213 90.888388 
L 74.265396 95.947384 
L 74.360987 96.073859 
L 74.647762 99.046019 
L 74.743353 99.172494 
L 74.838945 99.488681 
L 74.934536 100.310768 
L 75.125719 103.535877 
L 75.221311 103.599115 
L 75.412494 104.610914 
L 75.603677 105.053576 
L 75.699268 105.243289 
L 75.890451 106.128613 
L 76.081634 108.91106 
L 76.177226 108.974298 
L 76.655183 109.986097 
L 76.750774 110.175809 
L 77.228732 111.88322 
L 77.324323 111.946458 
L 77.515506 112.515595 
L 77.611098 112.705307 
L 77.897872 115.36128 
L 77.993464 115.424517 
L 78.184647 116.562791 
L 78.662604 117.005454 
L 78.853787 117.195166 
L 79.04497 117.764303 
L 79.331745 118.08049 
L 79.809702 118.712865 
L 80.096477 119.724664 
L 80.383251 120.040851 
L 80.765617 120.420276 
L 80.861209 120.483513 
L 81.052391 122.064449 
L 81.339166 122.570349 
L 81.434757 122.696824 
L 81.62594 123.329198 
L 81.721532 123.518911 
L 81.912715 132.245678 
L 82.199489 132.751578 
L 82.486264 133.573665 
L 82.677447 138.126761 
L 82.773038 138.189998 
L 82.86863 138.442948 
L 83.059813 139.454747 
L 83.155404 139.897409 
L 83.346587 141.415108 
L 83.53777 141.668058 
L 83.633362 141.731295 
L 83.824545 142.173957 
L 83.920136 142.237195 
L 84.398094 144.134318 
L 84.589277 144.260793 
L 84.78046 144.893168 
L 84.876051 144.956405 
L 85.067234 145.715254 
L 85.162826 145.841729 
L 85.640783 147.359428 
L 85.927557 147.612378 
L 86.11874 147.865328 
L 86.692289 151.343387 
L 86.787881 151.406625 
L 87.074655 152.481661 
L 87.839387 153.936123 
L 88.126162 156.528858 
L 88.412936 156.592095 
L 88.604119 157.603894 
L 88.795302 171.32642 
L 88.986485 171.83232 
L 89.177668 172.08527 
L 89.368851 172.591169 
L 89.655626 172.844119 
L 89.846809 173.033831 
L 90.324766 174.425055 
L 90.61154 175.500092 
L 90.802723 175.753042 
L 90.993906 176.385416 
L 91.376272 177.27074 
L 91.471864 177.397215 
L 91.85423 178.28254 
L 92.045413 178.661964 
L 92.236596 179.231101 
L 92.427779 179.420814 
L 92.618962 181.317937 
L 92.905736 182.013549 
L 93.096919 182.203261 
L 93.383694 182.835636 
L 93.479285 182.898873 
L 93.670468 183.97391 
L 93.861651 184.353334 
L 94.244017 187.262257 
L 94.913157 188.716718 
L 95.008749 189.096143 
L 95.199932 190.297654 
L 95.295523 190.424129 
L 95.486706 192.13154 
L 95.677889 192.258015 
L 95.869072 192.574203 
L 95.964664 192.700677 
L 96.442621 194.597801 
L 96.538213 194.724276 
L 96.729396 195.293413 
L 96.824987 195.35665 
L 97.01617 195.925787 
L 97.207353 196.368449 
L 97.398536 201.174495 
L 97.876494 202.502482 
L 98.067677 204.083418 
L 98.163268 204.209893 
L 98.354451 205.727591 
L 98.545634 205.980541 
L 98.641226 206.043779 
L 98.928 207.182053 
L 99.119183 207.624715 
L 99.310366 208.383564 
L 99.405957 208.636514 
L 99.692732 209.9645 
L 99.788323 210.027738 
L 99.979506 211.482199 
L 100.075098 211.798386 
L 100.266281 212.873423 
L 100.361872 213.379323 
L 100.553055 214.960259 
L 100.83983 215.149971 
L 101.031013 215.466158 
L 101.317787 215.972058 
L 101.604562 216.477957 
L 101.700153 216.541195 
L 101.891336 216.92062 
L 102.082519 217.110332 
L 102.273702 217.805944 
L 102.656068 218.944218 
L 102.847251 219.450117 
L 102.942843 219.576592 
L 103.134026 220.335442 
L 103.4208 220.651629 
L 103.803166 221.85314 
L 103.994349 222.675227 
L 104.08994 222.86494 
L 104.281123 225.457675 
L 104.567898 228.935734 
L 104.663489 228.998972 
L 104.854672 231.591707 
L 105.045855 231.78142 
L 105.237038 232.856456 
L 105.619404 234.374155 
L 105.714996 234.627105 
L 106.192953 237.915452 
L 106.384136 238.231639 
L 106.479728 238.611064 
L 106.766502 241.014087 
L 106.957685 241.519986 
L 107.148868 242.215598 
L 107.340051 243.733297 
L 107.435643 243.796534 
L 107.626826 244.681859 
L 107.818009 245.061283 
L 108.009191 245.250996 
L 108.200374 245.693658 
L 108.487149 246.515745 
L 108.58274 246.578982 
L 109.060698 249.10848 
L 109.156289 249.234955 
L 109.538655 251.511503 
L 109.729838 253.029202 
L 110.016613 253.282151 
L 110.112204 253.282151 
L 110.303387 258.594097 
L 110.398979 258.657334 
L 110.590162 260.048558 
L 110.685753 260.111796 
L 110.876936 260.554458 
L 110.972528 260.617695 
L 111.546077 262.578056 
L 111.641668 262.641294 
L 111.832851 263.526618 
L 111.928443 263.589855 
L 112.119626 264.538417 
L 112.597583 265.234029 
L 112.884357 266.372303 
L 113.07554 267.826764 
L 113.171132 268.079714 
L 113.649089 270.925399 
L 113.840272 271.115111 
L 114.031455 271.431299 
L 114.31823 273.075472 
L 114.509413 273.39166 
L 114.891779 273.897559 
L 115.082962 274.593171 
L 115.465328 274.909358 
L 115.752102 276.11087 
L 116.134468 276.490294 
L 116.708017 277.628569 
L 116.8992 278.640368 
L 117.090383 278.893317 
L 117.185974 279.08303 
L 117.377157 279.588929 
L 117.472749 279.841879 
L 117.663932 281.422815 
L 117.759523 281.486053 
L 118.428664 283.446414 
L 118.906621 285.153825 
L 119.002213 285.343537 
L 119.193396 287.114186 
L 119.288987 287.177423 
L 119.48017 288.378934 
L 119.766945 288.884834 
L 120.053719 290.592245 
L 120.244902 292.742318 
L 120.436085 293.501168 
L 120.531677 293.627643 
L 120.72286 295.208579 
L 121.009634 296.030666 
L 121.105226 296.093903 
L 121.678774 297.421889 
L 121.869957 298.496926 
L 122.347915 299.192538 
L 122.443506 299.88815 
L 122.634689 311.77679 
L 122.825872 312.282689 
L 123.112647 312.598877 
L 123.30383 313.926863 
L 123.399421 313.9901 
L 123.590604 315.0019 
L 123.686196 315.065137 
L 123.877379 315.760749 
L 123.97297 315.887224 
L 124.259745 316.835786 
L 124.450928 317.278448 
L 124.833294 321.452119 
L 125.024477 335.933494 
L 125.21566 336.186444 
L 125.406843 337.008531 
L 125.598026 343.205801 
L 125.693617 343.269038 
L 125.789209 343.521988 
L 126.075983 345.355874 
L 126.267166 345.608824 
L 126.458349 345.735299 
L 126.55394 345.988249 
L 126.745123 347.000048 
L 126.840715 347.379472 
L 127.031898 363.568259 
L 127.127489 364.263871 
L 127.605447 371.030277 
L 127.79663 371.409702 
L 127.987813 372.611214 
L 128.083404 372.800926 
L 128.274587 373.749488 
L 128.943728 373.749488 
L 129.326094 374.571574 
L 129.804051 377.796684 
L 130.186417 377.859922 
L 130.282009 378.049634 
L 130.568783 380.832082 
L 130.855557 381.148269 
L 131.04674 381.148269 
L 131.429106 382.982155 
L 131.811472 382.982155 
L 132.480613 383.804242 
L 132.576204 383.804242 
L 133.245345 385.005753 
L 133.723302 385.068991 
L 133.914485 385.701365 
L 134.010077 385.701365 
L 134.20126 385.82784 
L 134.774809 386.08079 
L 135.061583 386.144027 
L 135.252766 386.33374 
L 135.921906 386.396977 
L 136.113089 386.523452 
L 136.78223 386.839639 
L 136.973413 386.902877 
L 137.642553 387.219064 
L 139.649974 387.282301 
L 139.936749 387.345539 
L 140.605889 387.408776 
L 140.892664 387.472014 
L 141.27503 387.535251 
L 141.657396 387.661726 
L 142.230945 387.724963 
L 142.517719 387.788201 
L 143.378043 387.851438 
L 143.664817 387.914676 
L 145.098689 387.977913 
L 145.385464 388.041151 
L 146.723745 388.104388 
L 147.010519 388.167626 
L 149.782672 388.230863 
L 150.069447 388.2941 
L 154.562247 388.357338 
L 154.849021 388.420575 
L 157.429991 388.483813 
L 157.429991 388.483813 
" clip-path="url(#p167e683238)" style="fill: none; stroke: #d80000; stroke-width: 1.8; stroke-linecap: square"/>
   </g>
   <g id="line2d_30">
    <path d="M 54.095591 17.343237 
L 54.191183 17.343237 
L 54.382366 17.469712 
L 54.573549 17.53295 
L 54.860323 17.596187 
L 55.051506 17.596187 
L 55.338281 17.849137 
L 55.529464 17.912374 
L 56.772153 18.607986 
L 57.058928 18.671224 
L 57.345702 18.734461 
L 57.441294 18.734461 
L 57.728068 19.050649 
L 57.82366 19.050649 
L 58.014843 19.177123 
L 58.397209 19.240361 
L 59.16194 19.619786 
L 59.544306 19.683023 
L 60.117855 19.935973 
L 60.213447 19.935973 
L 60.500221 20.188923 
L 60.786996 20.25216 
L 61.551728 20.631585 
L 61.838502 20.694822 
L 62.698826 21.137484 
L 63.081191 21.200722 
L 64.419472 21.959571 
L 64.801838 21.959571 
L 64.993021 22.149283 
L 65.375387 22.275758 
L 65.470979 22.275758 
L 65.757753 22.528708 
L 65.948936 22.781658 
L 66.140119 22.908133 
L 66.522485 22.97137 
L 67.573991 23.540507 
L 67.765174 23.603745 
L 68.434315 23.919932 
L 68.625498 23.983169 
L 68.816681 24.172882 
L 69.007864 24.236119 
L 69.294638 24.299357 
L 69.772596 24.362594 
L 70.919694 25.247918 
L 71.206468 25.500868 
L 71.780017 25.564106 
L 72.162383 25.69058 
L 72.257974 25.69058 
L 72.544749 25.94353 
L 73.213889 26.259717 
L 73.500664 26.259717 
L 73.787438 26.512667 
L 74.074213 26.765617 
L 74.265396 27.018567 
L 74.55217 27.081804 
L 74.838945 27.271517 
L 75.030128 27.524466 
L 75.316902 27.587704 
L 75.79486 27.777416 
L 76.177226 27.840654 
L 77.037549 28.283316 
L 77.419915 28.346553 
L 78.089055 28.66274 
L 78.567013 28.725978 
L 78.853787 28.978928 
L 79.140562 29.042165 
L 79.809702 29.105403 
L 80.383251 29.484827 
L 80.574434 29.801014 
L 80.9568 29.864252 
L 81.339166 29.990727 
L 81.530349 30.053964 
L 81.721532 30.180439 
L 81.912715 30.433389 
L 82.103898 30.496626 
L 83.346587 31.192238 
L 84.493685 31.192238 
L 84.684868 31.445188 
L 84.971643 31.508426 
L 85.162826 31.571663 
L 85.640783 31.761375 
L 85.736374 31.761375 
L 85.927557 31.88785 
L 87.170247 32.583462 
L 87.457021 32.6467 
L 88.795302 33.405549 
L 89.27326 33.468786 
L 90.420357 34.101161 
L 90.61154 34.164398 
L 90.707132 34.227636 
L 90.898315 34.543823 
L 91.567455 34.60706 
L 92.427779 35.049723 
L 92.714553 35.049723 
L 92.905736 35.239435 
L 93.479285 35.302672 
L 93.670468 35.555622 
L 94.052834 35.61886 
L 94.339609 35.682097 
L 94.721974 35.745334 
L 95.10434 35.871809 
L 95.295523 35.935047 
L 95.677889 36.061522 
L 95.964664 36.124759 
L 96.920579 36.630659 
L 97.111762 36.693896 
L 97.398536 36.757134 
L 97.780902 36.757134 
L 98.067677 37.010083 
L 98.736817 37.073321 
L 99.119183 37.199796 
L 99.788323 37.263033 
L 100.553055 37.642458 
L 101.031013 37.705695 
L 101.413379 37.83217 
L 101.604562 37.895408 
L 102.082519 38.08512 
L 102.273702 38.148357 
L 102.464885 38.274832 
L 102.560477 38.274832 
L 102.75166 38.401307 
L 103.4208 38.717494 
L 104.08994 38.780732 
L 104.472306 38.907207 
L 104.759081 38.970444 
L 105.045855 39.033682 
L 105.141447 39.033682 
L 105.33263 39.286631 
L 105.619404 39.349869 
L 106.00177 39.476344 
L 106.670911 39.539581 
L 106.957685 39.602819 
L 107.148868 39.602819 
L 107.340051 39.792531 
L 107.722417 39.855769 
L 108.295966 40.108718 
L 108.678332 40.108718 
L 108.965106 40.361668 
L 109.060698 40.361668 
L 109.251881 40.488143 
L 109.729838 40.677855 
L 110.112204 40.741093 
L 110.685753 40.994043 
L 111.068119 41.05728 
L 112.119626 41.626417 
L 112.4064 41.689654 
L 112.693174 41.879367 
L 112.884357 42.132317 
L 113.362315 42.322029 
L 113.935864 42.385266 
L 114.413821 42.574979 
L 114.700596 42.638216 
L 115.847694 43.270591 
L 116.516834 43.333828 
L 116.994791 43.52354 
L 117.090383 43.52354 
L 117.281566 43.713253 
L 117.759523 43.77649 
L 118.237481 43.966203 
L 118.524255 44.02944 
L 118.81103 44.28239 
L 119.097804 44.28239 
L 119.384579 44.598577 
L 119.958128 44.661814 
L 120.436085 44.851527 
L 120.72286 44.914764 
L 120.914043 45.041239 
L 121.105226 45.420664 
L 121.392 45.420664 
L 121.583183 45.673614 
L 121.965549 45.736851 
L 123.112647 46.369226 
L 123.495013 46.432463 
L 124.546519 47.0016 
L 125.024477 47.064837 
L 125.789209 47.444262 
L 126.075983 47.5075 
L 127.127489 48.076637 
L 127.318672 48.139874 
L 127.79663 48.329586 
L 128.083404 48.392824 
L 128.274587 48.519299 
L 128.656953 48.582536 
L 129.326094 48.898723 
L 129.70846 48.961961 
L 130.3776 49.278148 
L 130.568783 49.278148 
L 130.759966 49.404623 
L 131.04674 49.46786 
L 131.811472 49.847285 
L 133.340936 49.910523 
L 133.532119 50.036997 
L 133.818894 50.100235 
L 134.010077 50.416422 
L 134.583626 50.47966 
L 135.348357 50.859084 
L 135.53954 50.922322 
L 136.208681 51.238509 
L 136.399864 51.238509 
L 136.686638 51.491459 
L 137.164596 51.554696 
L 137.546962 51.681171 
L 137.642553 51.681171 
L 137.833736 51.934121 
L 138.311694 51.934121 
L 138.598468 52.187071 
L 139.172017 52.44002 
L 139.745566 52.503258 
L 140.988255 53.19887 
L 141.27503 53.262107 
L 141.561804 53.515057 
L 141.752987 53.578294 
L 142.326536 53.831244 
L 143.282451 53.831244 
L 143.473634 54.020957 
L 143.856 54.084194 
L 144.811915 54.779806 
L 145.003098 54.969518 
L 145.194281 54.969518 
L 145.481055 55.222468 
L 145.863421 55.285706 
L 147.870843 56.740167 
L 148.253209 57.751966 
L 148.539983 58.068153 
L 148.635574 58.068153 
L 148.922349 58.510815 
L 149.209123 58.827003 
L 149.400306 59.016715 
L 151.025362 59.965277 
L 151.216545 60.028514 
L 152.076868 60.534414 
L 152.268051 60.850601 
L 152.650417 61.040313 
L 152.8416 61.546213 
L 153.032783 61.60945 
L 153.223966 61.8624 
L 153.415149 62.11535 
L 153.51074 62.11535 
L 153.797515 62.494774 
L 153.988698 62.558012 
L 154.562247 62.937437 
L 154.849021 63.633049 
L 155.135796 63.949236 
L 155.326979 64.265423 
L 155.518162 64.391898 
L 155.709345 64.391898 
L 156.378485 65.150747 
L 156.474077 65.150747 
L 156.760851 65.403697 
L 158.577089 66.668446 
L 158.863864 67.047871 
L 159.055047 67.30082 
L 159.341821 67.55377 
L 159.533004 67.617008 
L 159.91537 67.743483 
L 160.202145 67.743483 
L 160.584511 68.628807 
L 160.584511 68.628807 
" clip-path="url(#p167e683238)" style="fill: none; stroke: #264653; stroke-width: 1.8; stroke-linecap: square"/>
   </g>
   <g id="line2d_31">
    <path d="M 54.095591 17.28 
L 87.170247 17.343237 
L 87.457021 17.406475 
L 104.08994 17.469712 
L 104.376715 17.53295 
L 105.045855 17.596187 
L 105.523813 18.797699 
L 106.097362 18.860936 
L 106.384136 18.924174 
L 107.148868 18.987411 
L 107.722417 19.240361 
L 108.58274 19.303598 
L 108.869515 19.366836 
L 109.060698 19.430073 
L 109.251881 19.556548 
L 110.398979 19.619786 
L 111.832851 20.694822 
L 112.119626 20.947772 
L 112.4064 21.263959 
L 112.597583 21.516909 
L 112.979949 21.896334 
L 113.171132 22.086046 
L 114.509413 23.097845 
L 114.98737 23.603745 
L 116.134468 24.489069 
L 116.708017 25.121443 
L 116.803609 25.184681 
L 116.994791 25.564106 
L 117.090383 25.627343 
L 117.56834 26.70238 
L 117.855115 27.018567 
L 118.046298 27.461229 
L 118.141889 27.524466 
L 118.333072 27.840654 
L 118.428664 27.903891 
L 118.619847 28.473028 
L 119.002213 28.789215 
L 119.384579 29.548065 
L 119.766945 29.927489 
L 119.862536 30.053964 
L 120.149311 30.686339 
L 120.531677 30.939289 
L 120.914043 32.204037 
L 121.105226 32.330512 
L 121.296409 32.773174 
L 121.678774 33.152599 
L 121.869957 33.468786 
L 122.156732 33.721736 
L 122.347915 33.848211 
L 122.539098 34.227636 
L 123.495013 34.986485 
L 123.781787 35.492385 
L 124.355336 36.124759 
L 124.546519 37.199796 
L 124.928885 37.515983 
L 125.120068 38.021883 
L 125.311251 38.211595 
L 125.406843 38.211595 
L 125.598026 38.527782 
L 125.789209 38.717494 
L 125.980391 39.286631 
L 126.171574 39.539581 
L 126.458349 40.108718 
L 126.745123 40.361668 
L 126.936306 40.55138 
L 127.223081 40.930805 
L 127.414264 41.05728 
L 127.605447 41.183755 
L 127.79663 41.56318 
L 127.987813 42.322029 
L 128.274587 42.574979 
L 128.561362 42.764691 
L 128.752545 44.219152 
L 128.943728 44.978002 
L 129.039319 44.978002 
L 129.326094 45.483901 
L 129.995234 46.053038 
L 130.568783 46.685413 
L 130.759966 46.875125 
L 131.04674 48.076637 
L 131.142332 48.139874 
L 131.429106 48.645774 
L 132.002655 49.088436 
L 132.193838 49.341386 
L 133.054162 50.036997 
L 133.818894 51.870883 
L 133.914485 51.870883 
L 134.105668 52.313546 
L 134.296851 52.566495 
L 134.965991 53.135632 
L 135.157174 53.45182 
L 135.443949 53.768007 
L 135.635132 54.020957 
L 135.826315 54.147431 
L 136.017498 55.222468 
L 136.113089 55.538655 
L 136.304272 56.360742 
L 136.78223 56.803404 
L 137.355779 57.751966 
L 137.929328 58.194628 
L 138.120511 58.574053 
L 138.502877 58.827003 
L 138.789651 59.39614 
L 139.076426 59.585852 
L 139.3632 60.281464 
L 139.936749 60.724126 
L 140.03234 60.977076 
L 140.223523 61.925637 
L 140.414706 62.11535 
L 140.605889 62.3683 
L 141.466213 63.063911 
L 141.752987 63.506574 
L 141.94417 63.822761 
L 143.856 65.08751 
L 144.047183 65.719884 
L 144.333957 66.036071 
L 145.194281 67.237583 
L 145.385464 67.80672 
L 145.576647 68.05967 
L 146.054604 68.565569 
L 147.201702 69.450894 
L 147.584068 70.52593 
L 147.966434 70.905355 
L 148.062026 71.158305 
L 148.253209 71.980391 
L 148.444391 72.106866 
L 148.731166 72.802478 
L 148.826757 72.865716 
L 149.113532 73.687803 
L 149.400306 74.130465 
L 149.687081 74.446652 
L 149.878264 74.699602 
L 150.547404 75.268739 
L 150.834179 76.154063 
L 151.503319 76.7232 
L 151.981277 77.355574 
L 152.268051 78.051186 
L 152.650417 78.620323 
L 153.032783 78.999748 
L 153.51074 79.44241 
L 153.797515 79.94831 
L 154.562247 80.517447 
L 154.944613 81.655721 
L 155.326979 82.035146 
L 155.709345 82.477808 
L 155.996119 83.426369 
L 156.569668 83.805794 
L 156.760851 84.248456 
L 157.047626 84.501406 
L 157.907949 85.13378 
L 158.099132 85.38673 
L 158.290315 85.63968 
L 158.481498 86.019105 
L 158.768272 86.398529 
L 158.959455 86.651479 
L 159.055047 86.777954 
L 159.341821 87.347091 
L 159.724187 87.726516 
L 160.106553 88.042703 
L 160.584511 88.86479 
L 160.584511 88.86479 
" clip-path="url(#p167e683238)" style="fill: none; stroke: #ffe211; stroke-width: 1.8; stroke-linecap: square"/>
   </g>
   <g id="line2d_32">
    <path d="M 54.095591 17.28 
L 54.286774 17.406475 
L 55.147098 17.849137 
L 55.433872 17.912374 
L 55.91183 18.102087 
L 56.103013 18.102087 
L 56.294196 18.228562 
L 56.485379 18.291799 
L 56.867745 18.418274 
L 57.058928 18.481511 
L 57.345702 18.734461 
L 57.441294 18.734461 
L 57.728068 18.987411 
L 58.4928 19.366836 
L 58.683983 19.430073 
L 58.970757 19.493311 
L 59.16194 19.556548 
L 59.735489 19.809498 
L 60.117855 19.872735 
L 60.691404 20.125685 
L 61.169362 20.188923 
L 61.360545 20.315397 
L 62.31646 20.821297 
L 62.507643 20.884534 
L 62.890009 21.011009 
L 63.081191 21.011009 
L 63.367966 21.327197 
L 63.65474 21.390434 
L 64.801838 22.022809 
L 65.56657 22.086046 
L 67.000443 22.908133 
L 67.287217 22.97137 
L 67.860766 23.22432 
L 68.14754 23.287557 
L 69.007864 23.73022 
L 69.39023 23.793457 
L 69.677004 23.856694 
L 70.05937 23.919932 
L 70.441736 24.046407 
L 70.824102 24.109644 
L 72.066791 24.805256 
L 72.353566 24.868494 
L 72.831523 25.058206 
L 73.022706 25.058206 
L 73.213889 25.184681 
L 73.309481 25.184681 
L 73.500664 25.311156 
L 73.978621 25.374393 
L 74.360987 25.500868 
L 74.838945 25.564106 
L 75.221311 25.69058 
L 75.412494 25.753818 
L 75.986043 26.006768 
L 76.177226 26.006768 
L 76.368409 26.133243 
L 76.655183 26.19648 
L 77.037549 26.322955 
L 77.228732 26.386192 
L 78.184647 26.892092 
L 78.662604 26.955329 
L 79.618519 27.461229 
L 80.192068 27.524466 
L 80.670026 27.714179 
L 80.9568 27.777416 
L 81.434757 27.967129 
L 81.817123 28.030366 
L 82.677447 28.473028 
L 82.964221 28.536266 
L 83.155404 28.66274 
L 83.728953 28.725978 
L 84.302502 28.978928 
L 85.067234 29.042165 
L 85.354009 29.105403 
L 85.640783 29.16864 
L 85.927557 29.231877 
L 86.11874 29.231877 
L 86.309923 29.42159 
L 86.501106 29.484827 
L 86.979064 29.67454 
L 88.03057 29.737777 
L 88.986485 30.243677 
L 89.655626 30.306914 
L 89.9424 30.370151 
L 90.229174 30.433389 
L 90.707132 30.623101 
L 91.089498 30.686339 
L 91.85423 31.065763 
L 92.141004 31.129001 
L 92.618962 31.318713 
L 92.714553 31.318713 
L 92.905736 31.445188 
L 93.192511 31.508426 
L 94.052834 31.951088 
L 94.339609 32.014325 
L 95.295523 32.520225 
L 95.677889 32.583462 
L 96.155847 32.773174 
L 96.34703 32.836412 
L 97.398536 33.405549 
L 97.780902 33.405549 
L 97.972085 33.595261 
L 98.067677 33.595261 
L 98.25886 33.721736 
L 98.832409 33.974686 
L 99.119183 34.037923 
L 99.310366 34.227636 
L 99.59714 34.227636 
L 99.788323 34.417348 
L 100.361872 34.480586 
L 101.317787 34.986485 
L 101.795745 35.049723 
L 102.464885 35.36591 
L 102.560477 35.36591 
L 102.847251 35.61886 
L 103.229617 35.682097 
L 103.707574 35.871809 
L 103.994349 35.935047 
L 104.663489 36.251234 
L 105.141447 36.314471 
L 105.523813 36.440946 
L 105.714996 36.504184 
L 106.766502 37.073321 
L 107.053277 37.136558 
L 107.818009 37.515983 
L 108.200374 37.57922 
L 108.58274 37.705695 
L 108.773923 37.768933 
L 109.538655 38.148357 
L 110.016613 38.211595 
L 110.49457 38.401307 
L 111.068119 38.464545 
L 111.354894 38.717494 
L 112.4064 39.286631 
L 112.788766 39.349869 
L 113.171132 39.476344 
L 113.266723 39.476344 
L 113.457906 39.602819 
L 113.935864 39.666056 
L 114.509413 39.919006 
L 114.796187 39.982243 
L 115.082962 40.045481 
L 115.274145 40.108718 
L 116.421243 40.741093 
L 117.090383 40.80433 
L 117.855115 41.183755 
L 118.046298 41.246992 
L 118.428664 41.373467 
L 119.002213 41.436705 
L 119.671353 41.752892 
L 119.766945 41.752892 
L 119.958128 41.942604 
L 120.340494 42.005842 
L 120.72286 42.132317 
L 121.105226 42.195554 
L 121.583183 42.385266 
L 121.965549 42.385266 
L 122.156732 42.574979 
L 122.825872 42.638216 
L 123.30383 42.827929 
L 123.97297 42.891166 
L 124.546519 43.144116 
L 124.833294 43.207353 
L 125.311251 43.397066 
L 125.789209 43.460303 
L 126.840715 44.02944 
L 127.127489 44.092677 
L 127.318672 44.219152 
L 127.79663 44.28239 
L 128.561362 44.661814 
L 128.848136 44.725052 
L 129.421685 44.978002 
L 129.612868 45.041239 
L 130.759966 45.673614 
L 131.04674 45.736851 
L 131.620289 45.989801 
L 131.811472 46.053038 
L 132.193838 46.432463 
L 133.054162 46.875125 
L 133.436528 46.938363 
L 133.914485 47.128075 
L 134.20126 47.191312 
L 134.392443 47.381025 
L 134.583626 47.444262 
L 135.061583 47.633974 
L 135.348357 47.633974 
L 135.635132 47.886924 
L 136.017498 47.950162 
L 136.495455 48.139874 
L 136.686638 48.203111 
L 136.973413 48.456061 
L 137.164596 48.519299 
L 137.833736 48.835486 
L 138.024919 48.898723 
L 139.458791 49.72081 
L 139.841157 49.784048 
L 140.892664 50.353185 
L 141.083847 50.416422 
L 143.18686 51.681171 
L 143.473634 51.744409 
L 144.907506 52.566495 
L 145.289872 52.629733 
L 147.966434 54.273906 
L 148.157617 54.337144 
L 148.3488 54.463619 
L 148.731166 54.526856 
L 149.113532 54.906281 
L 150.26063 55.538655 
L 150.642996 55.601893 
L 151.598911 56.107792 
L 151.790094 56.17103 
L 152.17246 56.297505 
L 152.459234 56.360742 
L 152.746009 56.613692 
L 154.275472 57.499016 
L 154.562247 57.562254 
L 158.194723 59.838802 
L 158.385906 59.902039 
L 159.341821 60.407939 
L 159.628596 60.407939 
L 159.819779 60.534414 
L 159.819779 60.534414 
" clip-path="url(#p167e683238)" style="fill: none; stroke: #39c5bb; stroke-width: 1.8; stroke-linecap: square"/>
   </g>
   <g id="line2d_33">
    <path d="M 54.095591 17.28 
L 54.573549 17.343237 
L 54.764732 17.469712 
L 54.955915 17.53295 
L 55.720647 17.912374 
L 56.198604 17.975612 
L 56.389787 18.165324 
L 57.536885 18.797699 
L 57.728068 18.860936 
L 58.206026 19.050649 
L 58.4928 19.113886 
L 59.257532 19.493311 
L 59.448715 19.556548 
L 60.309038 19.99921 
L 60.40463 19.99921 
L 60.691404 20.378635 
L 61.360545 20.694822 
L 61.742911 20.75806 
L 62.31646 21.011009 
L 62.698826 21.074247 
L 63.367966 21.390434 
L 63.463557 21.390434 
L 63.65474 21.516909 
L 66.140119 23.034608 
L 66.522485 23.034608 
L 66.80926 23.287557 
L 67.287217 23.350795 
L 68.14754 23.793457 
L 68.434315 23.856694 
L 69.39023 24.362594 
L 69.581413 24.425831 
L 69.963779 24.552306 
L 70.154962 24.615544 
L 70.919694 24.994969 
L 71.397651 25.058206 
L 71.588834 25.184681 
L 71.684426 25.184681 
L 71.875609 25.311156 
L 72.257974 25.374393 
L 73.500664 26.070005 
L 73.787438 26.133243 
L 74.456579 26.44943 
L 74.743353 26.512667 
L 75.508085 27.081804 
L 75.699268 27.334754 
L 76.177226 27.397991 
L 76.750774 27.650941 
L 77.228732 27.714179 
L 77.993464 28.093603 
L 78.567013 28.156841 
L 78.758196 28.346553 
L 79.04497 28.409791 
L 79.236153 28.536266 
L 80.000885 28.91569 
L 80.383251 28.978928 
L 81.434757 29.548065 
L 81.62594 29.611302 
L 82.581855 30.117202 
L 82.86863 30.180439 
L 83.059813 30.496626 
L 83.53777 30.686339 
L 83.728953 30.686339 
L 83.920136 30.876051 
L 84.302502 30.939289 
L 84.78046 31.129001 
L 85.640783 31.192238 
L 85.927557 31.255476 
L 86.214332 31.318713 
L 86.883472 31.6349 
L 86.979064 31.6349 
L 87.170247 31.761375 
L 87.839387 32.077563 
L 88.03057 32.077563 
L 88.221753 32.267275 
L 88.317345 32.267275 
L 88.508528 32.39375 
L 89.368851 32.456987 
L 89.655626 32.520225 
L 89.9424 32.583462 
L 90.515949 32.836412 
L 90.707132 32.899649 
L 91.089498 33.026124 
L 91.280681 33.089362 
L 94.913157 35.36591 
L 95.199932 35.429147 
L 96.34703 36.061522 
L 96.538213 36.124759 
L 97.01617 36.314471 
L 97.207353 36.377709 
L 98.067677 36.820371 
L 98.641226 36.883609 
L 98.832409 37.010083 
L 99.119183 37.073321 
L 99.405957 37.136558 
L 99.59714 37.263033 
L 100.075098 37.326271 
L 100.457464 37.705695 
L 100.744238 37.768933 
L 101.126604 37.83217 
L 101.317787 37.958645 
L 101.604562 38.021883 
L 103.038434 38.843969 
L 103.516391 38.907207 
L 103.994349 39.286631 
L 104.185532 39.602819 
L 104.472306 39.666056 
L 104.663489 39.729294 
L 105.045855 39.855769 
L 105.428221 39.919006 
L 106.479728 40.488143 
L 106.957685 40.55138 
L 107.722417 40.930805 
L 107.9136 40.994043 
L 108.295966 41.120517 
L 108.58274 41.183755 
L 108.773923 41.373467 
L 108.965106 41.436705 
L 109.251881 41.499942 
L 109.443064 41.56318 
L 109.634247 41.816129 
L 110.016613 41.942604 
L 110.207796 42.005842 
L 110.398979 42.195554 
L 111.450485 42.764691 
L 111.73726 42.827929 
L 112.310809 43.080878 
L 112.501991 43.144116 
L 112.884357 43.270591 
L 114.031455 43.333828 
L 115.560919 44.219152 
L 115.847694 44.28239 
L 116.23006 44.408865 
L 116.421243 44.472102 
L 117.185974 44.851527 
L 117.377157 44.851527 
L 117.759523 45.230951 
L 118.333072 45.483901 
L 119.575762 45.547139 
L 119.862536 45.610376 
L 120.244902 45.610376 
L 120.436085 45.863326 
L 120.531677 45.863326 
L 120.72286 45.989801 
L 121.392 46.053038 
L 121.965549 46.305988 
L 122.347915 46.369226 
L 122.539098 46.4957 
L 123.112647 46.74865 
L 123.781787 46.811888 
L 124.642111 47.25455 
L 125.693617 47.25455 
L 125.8848 47.381025 
L 126.075983 47.5075 
L 126.267166 47.760449 
L 126.840715 47.823687 
L 127.031898 48.076637 
L 127.318672 48.139874 
L 127.701038 48.203111 
L 127.892221 48.329586 
L 128.274587 48.392824 
L 128.46577 48.519299 
L 128.656953 48.961961 
L 129.230502 49.214911 
L 129.421685 49.278148 
L 130.186417 49.657573 
L 130.568783 49.72081 
L 130.855557 49.784048 
L 131.237923 49.847285 
L 131.524698 50.100235 
L 132.002655 50.163472 
L 132.862979 50.606134 
L 133.054162 50.669372 
L 133.914485 51.112034 
L 134.010077 51.112034 
L 134.20126 51.238509 
L 134.583626 51.364984 
L 135.061583 51.428221 
L 136.495455 52.250308 
L 136.686638 52.313546 
L 136.877821 52.44002 
L 137.45137 52.503258 
L 137.738145 52.566495 
L 138.024919 52.629733 
L 138.407285 52.756208 
L 138.69406 52.819445 
L 139.172017 53.009157 
L 139.3632 53.072395 
L 139.554383 53.262107 
L 140.605889 53.325345 
L 141.083847 53.515057 
L 141.466213 53.578294 
L 141.94417 54.020957 
L 142.326536 54.400381 
L 142.995677 54.969518 
L 143.473634 55.538655 
L 143.569226 55.538655 
L 143.856 55.791605 
L 144.907506 56.360742 
L 145.003098 56.360742 
L 145.194281 56.613692 
L 145.576647 56.740167 
L 145.959013 56.803404 
L 146.43697 56.993117 
L 146.628153 58.068153 
L 147.010519 58.700528 
L 147.106111 58.700528 
L 147.297294 59.079952 
L 147.584068 59.269665 
L 147.775251 59.775564 
L 147.966434 59.838802 
L 149.400306 60.850601 
L 149.687081 61.230026 
L 149.878264 61.293263 
L 150.069447 61.482975 
L 150.356221 61.925637 
L 150.738587 61.988875 
L 151.025362 62.052112 
L 151.216545 62.11535 
L 152.746009 63.190386 
L 152.937191 63.822761 
L 153.128374 63.822761 
L 153.51074 64.202186 
L 153.606332 64.202186 
L 153.797515 64.455135 
L 154.084289 64.518373 
L 154.275472 64.708085 
L 155.040204 65.593409 
L 155.900528 66.225784 
L 156.091711 66.605209 
L 157.429991 67.617008 
L 157.621174 67.869957 
L 158.577089 68.375857 
L 158.768272 68.439094 
L 158.959455 68.502332 
L 159.150638 69.071469 
L 159.150638 69.071469 
" clip-path="url(#p167e683238)" style="fill: none; stroke: #2a9d8f; stroke-width: 1.8; stroke-linecap: square"/>
   </g>
   <g id="line2d_34">
    <path d="M 54.095591 17.406475 
L 54.66914 17.659425 
L 55.147098 17.722662 
L 55.816238 18.038849 
L 56.007421 18.038849 
L 56.198604 18.228562 
L 56.389787 18.228562 
L 56.58097 18.355037 
L 56.963336 18.418274 
L 57.728068 18.797699 
L 58.110434 18.860936 
L 58.683983 19.113886 
L 59.544306 19.177123 
L 59.735489 19.430073 
L 60.500221 19.809498 
L 60.882587 19.809498 
L 61.07377 19.99921 
L 61.456136 20.062448 
L 64.515064 21.959571 
L 64.801838 22.022809 
L 65.088613 22.275758 
L 65.375387 22.338996 
L 66.80926 23.161083 
L 67.573991 23.22432 
L 67.765174 23.414032 
L 68.243132 23.414032 
L 68.434315 23.540507 
L 70.05937 24.489069 
L 70.441736 24.552306 
L 70.632919 24.678781 
L 71.397651 25.058206 
L 71.493243 25.058206 
L 71.684426 25.184681 
L 72.353566 25.247918 
L 73.978621 26.19648 
L 74.265396 26.259717 
L 75.316902 26.828854 
L 75.412494 26.828854 
L 75.699268 27.145042 
L 75.986043 27.208279 
L 76.655183 27.524466 
L 76.941957 27.587704 
L 78.567013 28.536266 
L 78.949379 28.599503 
L 79.427336 28.789215 
L 79.714111 28.789215 
L 79.905294 28.978928 
L 80.9568 29.548065 
L 81.147983 29.611302 
L 81.243574 29.67454 
L 81.434757 29.990727 
L 81.62594 30.053964 
L 82.008306 30.180439 
L 82.86863 30.243677 
L 83.53777 30.559864 
L 84.015728 30.623101 
L 84.971643 31.129001 
L 85.162826 31.192238 
L 85.4496 31.255476 
L 85.545191 31.255476 
L 85.736374 31.445188 
L 86.11874 31.508426 
L 86.596698 31.698138 
L 86.787881 31.761375 
L 87.457021 32.330512 
L 87.648204 32.456987 
L 87.934979 32.456987 
L 88.221753 32.709937 
L 88.795302 32.773174 
L 89.464443 33.089362 
L 89.751217 33.152599 
L 90.898315 33.784974 
L 91.280681 33.848211 
L 92.236596 34.354111 
L 92.427779 34.417348 
L 92.714553 34.480586 
L 93.383694 34.543823 
L 93.861651 34.733535 
L 94.052834 34.796773 
L 94.339609 34.86001 
L 94.4352 34.86001 
L 94.721974 35.176197 
L 95.295523 35.239435 
L 95.486706 35.36591 
L 95.773481 35.429147 
L 95.964664 35.61886 
L 97.111762 36.251234 
L 97.398536 36.251234 
L 97.685311 36.504184 
L 98.354451 36.567421 
L 99.214774 37.010083 
L 99.501549 37.073321 
L 100.075098 37.326271 
L 100.457464 37.389508 
L 101.413379 37.895408 
L 102.178111 37.958645 
L 102.560477 38.33807 
L 103.516391 39.096919 
L 103.707574 39.349869 
L 104.950264 40.045481 
L 105.141447 40.108718 
L 105.810587 40.424906 
L 105.906179 40.424906 
L 106.097362 40.614618 
L 106.288545 40.677855 
L 107.148868 41.120517 
L 107.722417 41.183755 
L 108.104783 41.31023 
L 108.58274 41.373467 
L 109.251881 41.689654 
L 109.443064 41.689654 
L 109.634247 41.942604 
L 110.112204 42.005842 
L 112.119626 43.207353 
L 112.788766 43.270591 
L 113.171132 43.397066 
L 113.553498 43.460303 
L 114.222638 43.77649 
L 114.509413 43.839728 
L 115.274145 44.219152 
L 115.560919 44.219152 
L 115.847694 44.472102 
L 116.708017 44.914764 
L 116.8992 44.978002 
L 117.185974 45.294189 
L 117.377157 45.420664 
L 117.759523 45.483901 
L 118.141889 45.610376 
L 119.002213 45.673614 
L 120.627268 46.622175 
L 121.869957 46.685413 
L 122.06114 46.811888 
L 122.156732 46.811888 
L 122.347915 46.938363 
L 122.730281 47.0016 
L 123.112647 47.128075 
L 124.546519 47.128075 
L 124.737702 47.444262 
L 125.024477 47.5075 
L 125.502434 47.697212 
L 125.789209 47.760449 
L 126.267166 47.950162 
L 126.936306 48.013399 
L 127.223081 48.076637 
L 127.318672 48.076637 
L 127.509855 48.456061 
L 128.274587 48.835486 
L 128.561362 48.898723 
L 129.134911 49.151673 
L 129.421685 49.214911 
L 130.090826 49.531098 
L 130.473191 49.594335 
L 130.664374 49.784048 
L 131.907064 50.47966 
L 132.385021 50.542897 
L 132.862979 50.732609 
L 133.054162 50.795847 
L 134.010077 51.301746 
L 134.488034 51.364984 
L 135.635132 51.997358 
L 136.113089 52.060596 
L 136.78223 52.376783 
L 137.546962 52.44002 
L 137.929328 52.566495 
L 138.311694 52.629733 
L 138.789651 52.819445 
L 139.172017 52.882683 
L 139.554383 53.009157 
L 140.127932 53.072395 
L 140.988255 53.515057 
L 141.561804 53.578294 
L 141.94417 54.147431 
L 143.282451 55.159231 
L 143.569226 55.41218 
L 143.664817 55.41218 
L 143.951591 55.66513 
L 144.142774 55.66513 
L 144.333957 55.981317 
L 144.620732 56.044555 
L 146.054604 57.119591 
L 146.341379 57.751966 
L 146.819336 57.815203 
L 146.914928 57.878441 
L 147.106111 58.953477 
L 147.201702 58.953477 
L 147.392885 59.332902 
L 147.584068 59.39614 
L 147.775251 59.459377 
L 147.966434 59.775564 
L 148.922349 60.534414 
L 149.495898 61.166788 
L 149.687081 61.3565 
L 149.973855 61.799163 
L 150.26063 61.8624 
L 150.738587 62.052112 
L 151.025362 62.11535 
L 151.312136 62.431537 
L 151.407728 62.431537 
L 151.694502 62.684487 
L 152.076868 63.000674 
L 152.363643 63.759523 
L 152.746009 64.138948 
L 153.893106 64.961035 
L 154.179881 65.403697 
L 154.275472 65.403697 
L 154.562247 65.719884 
L 154.75343 65.783122 
L 156.569668 67.111108 
L 156.952034 67.490533 
L 157.238809 67.80672 
L 157.525583 68.05967 
L 157.812357 68.122907 
L 158.481498 68.439094 
L 158.577089 68.439094 
L 158.768272 69.008231 
L 158.768272 69.008231 
" clip-path="url(#p167e683238)" style="fill: none; stroke: #e76f51; stroke-width: 1.8; stroke-linecap: square"/>
   </g>
   <g id="patch_3">
    <path d="M 54 388.8 
L 54 17.28 
" style="fill: none; stroke: #000000; stroke-width: 0.8; stroke-linejoin: miter; stroke-linecap: square"/>
   </g>
   <g id="patch_4">
    <path d="M 334.8 388.8 
L 334.8 17.28 
" style="fill: none; stroke: #000000; stroke-width: 0.8; stroke-linejoin: miter; stroke-linecap: square"/>
   </g>
   <g id="patch_5">
    <path d="M 54 388.8 
L 334.8 388.8 
" style="fill: none; stroke: #000000; stroke-width: 0.8; stroke-linejoin: miter; stroke-linecap: square"/>
   </g>
   <g id="patch_6">
    <path d="M 54 17.28 
L 334.8 17.28 
" style="fill: none; stroke: #000000; stroke-width: 0.8; stroke-linejoin: miter; stroke-linecap: square"/>
   </g>
   <g id="legend_1">
    <g id="patch_7">
     <path d="M 241.51125 132.5625 
L 326.4 132.5625 
Q 328.8 132.5625 328.8 130.1625 
L 328.8 25.68 
Q 328.8 23.28 326.4 23.28 
L 241.51125 23.28 
Q 239.11125 23.28 239.11125 25.68 
L 239.11125 130.1625 
Q 239.11125 132.5625 241.51125 132.5625 
z
" style="fill: #ffffff; opacity: 0.8; stroke: #cccccc; stroke-linejoin: miter"/>
    </g>
    <g id="line2d_35">
     <path d="M 243.91125 32.998125 
L 255.91125 32.998125 
L 267.91125 32.998125 
" style="fill: none; stroke: #d80000; stroke-width: 1.8; stroke-linecap: square"/>
    </g>
    <g id="text_17">
     <!-- None -->
     <g transform="translate(277.51125 37.198125) scale(0.12 -0.12)">
      <defs>
       <path id="DejaVuSans-4e" d="M 628 4666 
L 1478 4666 
L 3547 763 
L 3547 4666 
L 4159 4666 
L 4159 0 
L 3309 0 
L 1241 3903 
L 1241 0 
L 628 0 
L 628 4666 
z
" transform="scale(0.015625)"/>
       <path id="DejaVuSans-6e" d="M 3513 2113 
L 3513 0 
L 2938 0 
L 2938 2094 
Q 2938 2591 2744 2837 
Q 2550 3084 2163 3084 
Q 1697 3084 1428 2787 
Q 1159 2491 1159 1978 
L 1159 0 
L 581 0 
L 581 3500 
L 1159 3500 
L 1159 2956 
Q 1366 3272 1645 3428 
Q 1925 3584 2291 3584 
Q 2894 3584 3203 3211 
Q 3513 2838 3513 2113 
z
" transform="scale(0.015625)"/>
      </defs>
      <use xlink:href="#DejaVuSans-4e"/>
      <use xlink:href="#DejaVuSans-6f" x="74.804688"/>
      <use xlink:href="#DejaVuSans-6e" x="135.986328"/>
      <use xlink:href="#DejaVuSans-65" x="199.365234"/>
     </g>
    </g>
    <g id="line2d_36">
     <path d="M 243.91125 50.611875 
L 255.91125 50.611875 
L 267.91125 50.611875 
" style="fill: none; stroke: #264653; stroke-width: 1.8; stroke-linecap: square"/>
    </g>
    <g id="text_18">
     <!-- HD -->
     <g transform="translate(277.51125 54.811875) scale(0.12 -0.12)">
      <defs>
       <path id="DejaVuSans-48" d="M 628 4666 
L 1259 4666 
L 1259 2753 
L 3553 2753 
L 3553 4666 
L 4184 4666 
L 4184 0 
L 3553 0 
L 3553 2222 
L 1259 2222 
L 1259 0 
L 628 0 
L 628 4666 
z
" transform="scale(0.015625)"/>
       <path id="DejaVuSans-44" d="M 1259 4147 
L 1259 519 
L 2022 519 
Q 2988 519 3436 956 
Q 3884 1394 3884 2338 
Q 3884 3275 3436 3711 
Q 2988 4147 2022 4147 
L 1259 4147 
z
M 628 4666 
L 1925 4666 
Q 3281 4666 3915 4102 
Q 4550 3538 4550 2338 
Q 4550 1131 3912 565 
Q 3275 0 1925 0 
L 628 0 
L 628 4666 
z
" transform="scale(0.015625)"/>
      </defs>
      <use xlink:href="#DejaVuSans-48"/>
      <use xlink:href="#DejaVuSans-44" x="75.195312"/>
     </g>
    </g>
    <g id="line2d_37">
     <path d="M 243.91125 68.225625 
L 255.91125 68.225625 
L 267.91125 68.225625 
" style="fill: none; stroke: #ffe211; stroke-width: 1.8; stroke-linecap: square"/>
    </g>
    <g id="text_19">
     <!-- GND -->
     <g transform="translate(277.51125 72.425625) scale(0.12 -0.12)">
      <use xlink:href="#DejaVuSans-47"/>
      <use xlink:href="#DejaVuSans-4e" x="77.490234"/>
      <use xlink:href="#DejaVuSans-44" x="152.294922"/>
     </g>
    </g>
    <g id="line2d_38">
     <path d="M 243.91125 85.839375 
L 255.91125 85.839375 
L 267.91125 85.839375 
" style="fill: none; stroke: #39c5bb; stroke-width: 1.8; stroke-linecap: square"/>
    </g>
    <g id="text_20">
     <!-- BT -->
     <g transform="translate(277.51125 90.039375) scale(0.12 -0.12)">
      <defs>
       <path id="DejaVuSans-42" d="M 1259 2228 
L 1259 519 
L 2272 519 
Q 2781 519 3026 730 
Q 3272 941 3272 1375 
Q 3272 1813 3026 2020 
Q 2781 2228 2272 2228 
L 1259 2228 
z
M 1259 4147 
L 1259 2741 
L 2194 2741 
Q 2656 2741 2882 2914 
Q 3109 3088 3109 3444 
Q 3109 3797 2882 3972 
Q 2656 4147 2194 4147 
L 1259 4147 
z
M 628 4666 
L 2241 4666 
Q 2963 4666 3353 4366 
Q 3744 4066 3744 3513 
Q 3744 3084 3544 2831 
Q 3344 2578 2956 2516 
Q 3422 2416 3680 2098 
Q 3938 1781 3938 1306 
Q 3938 681 3513 340 
Q 3088 0 2303 0 
L 628 0 
L 628 4666 
z
" transform="scale(0.015625)"/>
       <path id="DejaVuSans-54" d="M -19 4666 
L 3928 4666 
L 3928 4134 
L 2272 4134 
L 2272 0 
L 1638 0 
L 1638 4134 
L -19 4134 
L -19 4666 
z
" transform="scale(0.015625)"/>
      </defs>
      <use xlink:href="#DejaVuSans-42"/>
      <use xlink:href="#DejaVuSans-54" x="68.603516"/>
     </g>
    </g>
    <g id="line2d_39">
     <path d="M 243.91125 103.453125 
L 255.91125 103.453125 
L 267.91125 103.453125 
" style="fill: none; stroke: #2a9d8f; stroke-width: 1.8; stroke-linecap: square"/>
    </g>
    <g id="text_21">
     <!-- DSTS-K -->
     <g transform="translate(277.51125 107.653125) scale(0.12 -0.12)">
      <defs>
       <path id="DejaVuSans-2d" d="M 313 2009 
L 1997 2009 
L 1997 1497 
L 313 1497 
L 313 2009 
z
" transform="scale(0.015625)"/>
       <path id="DejaVuSans-4b" d="M 628 4666 
L 1259 4666 
L 1259 2694 
L 3353 4666 
L 4166 4666 
L 1850 2491 
L 4331 0 
L 3500 0 
L 1259 2247 
L 1259 0 
L 628 0 
L 628 4666 
z
" transform="scale(0.015625)"/>
      </defs>
      <use xlink:href="#DejaVuSans-44"/>
      <use xlink:href="#DejaVuSans-53" x="77.001953"/>
      <use xlink:href="#DejaVuSans-54" x="140.478516"/>
      <use xlink:href="#DejaVuSans-53" x="201.5625"/>
      <use xlink:href="#DejaVuSans-2d" x="265.039062"/>
      <use xlink:href="#DejaVuSans-4b" x="301.123047"/>
     </g>
    </g>
    <g id="line2d_40">
     <path d="M 243.91125 121.066875 
L 255.91125 121.066875 
L 267.91125 121.066875 
" style="fill: none; stroke: #e76f51; stroke-width: 1.8; stroke-linecap: square"/>
    </g>
    <g id="text_22">
     <!-- DSTS-M -->
     <g transform="translate(277.51125 125.266875) scale(0.12 -0.12)">
      <defs>
       <path id="DejaVuSans-4d" d="M 628 4666 
L 1569 4666 
L 2759 1491 
L 3956 4666 
L 4897 4666 
L 4897 0 
L 4281 0 
L 4281 4097 
L 3078 897 
L 2444 897 
L 1241 4097 
L 1241 0 
L 628 0 
L 628 4666 
z
" transform="scale(0.015625)"/>
      </defs>
      <use xlink:href="#DejaVuSans-44"/>
      <use xlink:href="#DejaVuSans-53" x="77.001953"/>
      <use xlink:href="#DejaVuSans-54" x="140.478516"/>
      <use xlink:href="#DejaVuSans-53" x="201.5625"/>
      <use xlink:href="#DejaVuSans-2d" x="265.039062"/>
      <use xlink:href="#DejaVuSans-4d" x="301.123047"/>
     </g>
    </g>
   </g>
  </g>
 </g>
 <defs>
  <clipPath id="p167e683238">
   <rect x="54" y="17.28" width="280.8" height="371.52"/>
  </clipPath>
 </defs>
</svg>
