<?xml version="1.0" encoding="utf-8" standalone="no"?>
<!DOCTYPE svg PUBLIC "-//W3C//DTD SVG 1.1//EN"
  "http://www.w3.org/Graphics/SVG/1.1/DTD/svg11.dtd">
<svg xmlns:xlink="http://www.w3.org/1999/xlink" width="360pt" height="432pt" viewBox="0 0 360 432" xmlns="http://www.w3.org/2000/svg" version="1.1">
 <metadata>
  <rdf:RDF xmlns:dc="http://purl.org/dc/elements/1.1/" xmlns:cc="http://creativecommons.org/ns#" xmlns:rdf="http://www.w3.org/1999/02/22-rdf-syntax-ns#">
   <cc:Work>
    <dc:type rdf:resource="http://purl.org/dc/dcmitype/StillImage"/>
    <dc:date>2026-04-01T12:02:19.375871</dc:date>
    <dc:format>image/svg+xml</dc:format>
    <dc:creator>
     <cc:Agent>
      <dc:title>Matplotlib v3.6.3, https://matplotlib.org/</dc:title>
     </cc:Agent>
    </dc:creator>
   </cc:Work>
  </rdf:RDF>
 </metadata>
 <defs>
  <style type="text/css">*{stroke-linejoin: round; stroke-linecap: butt}</style>
 </defs>
 <g id="figure_1">
  <g id="patch_1">
   <path d="M 0 432 
L 360 432 
L 360 0 
L 0 0 
z
" style="fill: #ffffff"/>
  </g>
  <g id="axes_1">
   <g id="patch_2">
    <path d="M 54 388.8 
L 334.8 388.8 
L 334.8 17.28 
L 54 17.28 
z
" style="fill: #ffffff"/>
   </g>
   <g id="matplotlib.axis_1">
    <g id="xtick_1">
     <g id="line2d_1">
      <path d="M 54 388.8 
L 54 17.28 
" clip-path="url(#pb82c403ea4)" style="fill: none; stroke: #000000; stroke-opacity: 0.1; stroke-width: 0.7; stroke-linecap: square"/>
     </g>
     <g id="line2d_2">
      <defs>
       <path id="m36309f375f" d="M 0 0 
L 0 3.5 
" style="stroke: #000000; stroke-width: 0.8"/>
      </defs>
      <g>
       <use xlink:href="#m36309f375f" x="54" y="388.8" style="stroke: #000000; stroke-width: 0.8"/>
      </g>
     </g>
     <g id="text_1">
      <!-- 0.00 -->
      <g transform="translate(39.527344 405.677969) scale(0.13 -0.13)">
       <defs>
        <path id="DejaVuSans-30" d="M 2034 4250 
Q 1547 4250 1301 3770 
Q 1056 3291 1056 2328 
Q 1056 1369 1301 889 
Q 1547 409 2034 409 
Q 2525 409 2770 889 
Q 3016 1369 3016 2328 
Q 3016 3291 2770 3770 
Q 2525 4250 2034 4250 
z
M 2034 4750 
Q 2819 4750 3233 4129 
Q 3647 3509 3647 2328 
Q 3647 1150 3233 529 
Q 2819 -91 2034 -91 
Q 1250 -91 836 529 
Q 422 1150 422 2328 
Q 422 3509 836 4129 
Q 1250 4750 2034 4750 
z
" transform="scale(0.015625)"/>
        <path id="DejaVuSans-2e" d="M 684 794 
L 1344 794 
L 1344 0 
L 684 0 
L 684 794 
z
" transform="scale(0.015625)"/>
       </defs>
       <use xlink:href="#DejaVuSans-30"/>
       <use xlink:href="#DejaVuSans-2e" x="63.623047"/>
       <use xlink:href="#DejaVuSans-30" x="95.410156"/>
       <use xlink:href="#DejaVuSans-30" x="159.033203"/>
      </g>
     </g>
    </g>
    <g id="xtick_2">
     <g id="line2d_3">
      <path d="M 194.4 388.8 
L 194.4 17.28 
" clip-path="url(#pb82c403ea4)" style="fill: none; stroke: #000000; stroke-opacity: 0.1; stroke-width: 0.7; stroke-linecap: square"/>
     </g>
     <g id="line2d_4">
      <g>
       <use xlink:href="#m36309f375f" x="194.4" y="388.8" style="stroke: #000000; stroke-width: 0.8"/>
      </g>
     </g>
     <g id="text_2">
      <!-- 0.25 -->
      <g transform="translate(179.927344 405.677969) scale(0.13 -0.13)">
       <defs>
        <path id="DejaVuSans-32" d="M 1228 531 
L 3431 531 
L 3431 0 
L 469 0 
L 469 531 
Q 828 903 1448 1529 
Q 2069 2156 2228 2338 
Q 2531 2678 2651 2914 
Q 2772 3150 2772 3378 
Q 2772 3750 2511 3984 
Q 2250 4219 1831 4219 
Q 1534 4219 1204 4116 
Q 875 4013 500 3803 
L 500 4441 
Q 881 4594 1212 4672 
Q 1544 4750 1819 4750 
Q 2544 4750 2975 4387 
Q 3406 4025 3406 3419 
Q 3406 3131 3298 2873 
Q 3191 2616 2906 2266 
Q 2828 2175 2409 1742 
Q 1991 1309 1228 531 
z
" transform="scale(0.015625)"/>
        <path id="DejaVuSans-35" d="M 691 4666 
L 3169 4666 
L 3169 4134 
L 1269 4134 
L 1269 2991 
Q 1406 3038 1543 3061 
Q 1681 3084 1819 3084 
Q 2600 3084 3056 2656 
Q 3513 2228 3513 1497 
Q 3513 744 3044 326 
Q 2575 -91 1722 -91 
Q 1428 -91 1123 -41 
Q 819 9 494 109 
L 494 744 
Q 775 591 1075 516 
Q 1375 441 1709 441 
Q 2250 441 2565 725 
Q 2881 1009 2881 1497 
Q 2881 1984 2565 2268 
Q 2250 2553 1709 2553 
Q 1456 2553 1204 2497 
Q 953 2441 691 2322 
L 691 4666 
z
" transform="scale(0.015625)"/>
       </defs>
       <use xlink:href="#DejaVuSans-30"/>
       <use xlink:href="#DejaVuSans-2e" x="63.623047"/>
       <use xlink:href="#DejaVuSans-32" x="95.410156"/>
       <use xlink:href="#DejaVuSans-35" x="159.033203"/>
      </g>
     </g>
    </g>
    <g id="xtick_3">
     <g id="line2d_5">
      <path d="M 334.8 388.8 
L 334.8 17.28 
" clip-path="url(#pb82c403ea4)" style="fill: none; stroke: #000000; stroke-opacity: 0.1; stroke-width: 0.7; stroke-linecap: square"/>
     </g>
     <g id="line2d_6">
      <g>
       <use xlink:href="#m36309f375f" x="334.8" y="388.8" style="stroke: #000000; stroke-width: 0.8"/>
      </g>
     </g>
     <g id="text_3">
      <!-- 0.50 -->
      <g transform="translate(320.327344 405.677969) scale(0.13 -0.13)">
       <use xlink:href="#DejaVuSans-30"/>
       <use xlink:href="#DejaVuSans-2e" x="63.623047"/>
       <use xlink:href="#DejaVuSans-35" x="95.410156"/>
       <use xlink:href="#DejaVuSans-30" x="159.033203"/>
      </g>
     </g>
    </g>
    <g id="text_4">
     <!-- Attack Ratio -->
     <g transform="translate(145.78375 424.539062) scale(0.16 -0.16)">
      <defs>
       <path id="DejaVuSans-41" d="M 2188 4044 
L 1331 1722 
L 3047 1722 
L 2188 4044 
z
M 1831 4666 
L 2547 4666 
L 4325 0 
L 3669 0 
L 3244 1197 
L 1141 1197 
L 716 0 
L 50 0 
L 1831 4666 
z
" transform="scale(0.015625)"/>
       <path id="DejaVuSans-74" d="M 1172 4494 
L 1172 3500 
L 2356 3500 
L 2356 3053 
L 1172 3053 
L 1172 1153 
Q 1172 725 1289 603 
Q 1406 481 1766 481 
L 2356 481 
L 2356 0 
L 1766 0 
Q 1100 0 847 248 
Q 594 497 594 1153 
L 594 3053 
L 172 3053 
L 172 3500 
L 594 3500 
L 594 4494 
L 1172 4494 
z
" transform="scale(0.015625)"/>
       <path id="DejaVuSans-61" d="M 2194 1759 
Q 1497 1759 1228 1600 
Q 959 1441 959 1056 
Q 959 750 1161 570 
Q 1363 391 1709 391 
Q 2188 391 2477 730 
Q 2766 1069 2766 1631 
L 2766 1759 
L 2194 1759 
z
M 3341 1997 
L 3341 0 
L 2766 0 
L 2766 531 
Q 2569 213 2275 61 
Q 1981 -91 1556 -91 
Q 1019 -91 701 211 
Q 384 513 384 1019 
Q 384 1609 779 1909 
Q 1175 2209 1959 2209 
L 2766 2209 
L 2766 2266 
Q 2766 2663 2505 2880 
Q 2244 3097 1772 3097 
Q 1472 3097 1187 3025 
Q 903 2953 641 2809 
L 641 3341 
Q 956 3463 1253 3523 
Q 1550 3584 1831 3584 
Q 2591 3584 2966 3190 
Q 3341 2797 3341 1997 
z
" transform="scale(0.015625)"/>
       <path id="DejaVuSans-63" d="M 3122 3366 
L 3122 2828 
Q 2878 2963 2633 3030 
Q 2388 3097 2138 3097 
Q 1578 3097 1268 2742 
Q 959 2388 959 1747 
Q 959 1106 1268 751 
Q 1578 397 2138 397 
Q 2388 397 2633 464 
Q 2878 531 3122 666 
L 3122 134 
Q 2881 22 2623 -34 
Q 2366 -91 2075 -91 
Q 1284 -91 818 406 
Q 353 903 353 1747 
Q 353 2603 823 3093 
Q 1294 3584 2113 3584 
Q 2378 3584 2631 3529 
Q 2884 3475 3122 3366 
z
" transform="scale(0.015625)"/>
       <path id="DejaVuSans-6b" d="M 581 4863 
L 1159 4863 
L 1159 1991 
L 2875 3500 
L 3609 3500 
L 1753 1863 
L 3688 0 
L 2938 0 
L 1159 1709 
L 1159 0 
L 581 0 
L 581 4863 
z
" transform="scale(0.015625)"/>
       <path id="DejaVuSans-20" transform="scale(0.015625)"/>
       <path id="DejaVuSans-52" d="M 2841 2188 
Q 3044 2119 3236 1894 
Q 3428 1669 3622 1275 
L 4263 0 
L 3584 0 
L 2988 1197 
Q 2756 1666 2539 1819 
Q 2322 1972 1947 1972 
L 1259 1972 
L 1259 0 
L 628 0 
L 628 4666 
L 2053 4666 
Q 2853 4666 3247 4331 
Q 3641 3997 3641 3322 
Q 3641 2881 3436 2590 
Q 3231 2300 2841 2188 
z
M 1259 4147 
L 1259 2491 
L 2053 2491 
Q 2509 2491 2742 2702 
Q 2975 2913 2975 3322 
Q 2975 3731 2742 3939 
Q 2509 4147 2053 4147 
L 1259 4147 
z
" transform="scale(0.015625)"/>
       <path id="DejaVuSans-69" d="M 603 3500 
L 1178 3500 
L 1178 0 
L 603 0 
L 603 3500 
z
M 603 4863 
L 1178 4863 
L 1178 4134 
L 603 4134 
L 603 4863 
z
" transform="scale(0.015625)"/>
       <path id="DejaVuSans-6f" d="M 1959 3097 
Q 1497 3097 1228 2736 
Q 959 2375 959 1747 
Q 959 1119 1226 758 
Q 1494 397 1959 397 
Q 2419 397 2687 759 
Q 2956 1122 2956 1747 
Q 2956 2369 2687 2733 
Q 2419 3097 1959 3097 
z
M 1959 3584 
Q 2709 3584 3137 3096 
Q 3566 2609 3566 1747 
Q 3566 888 3137 398 
Q 2709 -91 1959 -91 
Q 1206 -91 779 398 
Q 353 888 353 1747 
Q 353 2609 779 3096 
Q 1206 3584 1959 3584 
z
" transform="scale(0.015625)"/>
      </defs>
      <use xlink:href="#DejaVuSans-41"/>
      <use xlink:href="#DejaVuSans-74" x="66.658203"/>
      <use xlink:href="#DejaVuSans-74" x="105.867188"/>
      <use xlink:href="#DejaVuSans-61" x="145.076172"/>
      <use xlink:href="#DejaVuSans-63" x="206.355469"/>
      <use xlink:href="#DejaVuSans-6b" x="261.335938"/>
      <use xlink:href="#DejaVuSans-20" x="319.246094"/>
      <use xlink:href="#DejaVuSans-52" x="351.033203"/>
      <use xlink:href="#DejaVuSans-61" x="418.265625"/>
      <use xlink:href="#DejaVuSans-74" x="479.544922"/>
      <use xlink:href="#DejaVuSans-69" x="518.753906"/>
      <use xlink:href="#DejaVuSans-6f" x="546.537109"/>
     </g>
    </g>
   </g>
   <g id="matplotlib.axis_2">
    <g id="ytick_1">
     <g id="line2d_7">
      <path d="M 54 388.8 
L 334.8 388.8 
" clip-path="url(#pb82c403ea4)" style="fill: none; stroke: #000000; stroke-opacity: 0.1; stroke-width: 0.7; stroke-linecap: square"/>
     </g>
     <g id="line2d_8">
      <defs>
       <path id="mbd09f8cdf2" d="M 0 0 
L -3.5 0 
" style="stroke: #000000; stroke-width: 0.8"/>
      </defs>
      <g>
       <use xlink:href="#mbd09f8cdf2" x="54" y="388.8" style="stroke: #000000; stroke-width: 0.8"/>
      </g>
     </g>
     <g id="text_5">
      <!-- 0.0 -->
      <g transform="translate(26.325937 393.738984) scale(0.13 -0.13)">
       <use xlink:href="#DejaVuSans-30"/>
       <use xlink:href="#DejaVuSans-2e" x="63.623047"/>
       <use xlink:href="#DejaVuSans-30" x="95.410156"/>
      </g>
     </g>
    </g>
    <g id="ytick_2">
     <g id="line2d_9">
      <path d="M 54 351.648 
L 334.8 351.648 
" clip-path="url(#pb82c403ea4)" style="fill: none; stroke: #000000; stroke-opacity: 0.1; stroke-width: 0.7; stroke-linecap: square"/>
     </g>
     <g id="line2d_10">
      <g>
       <use xlink:href="#mbd09f8cdf2" x="54" y="351.648" style="stroke: #000000; stroke-width: 0.8"/>
      </g>
     </g>
     <g id="text_6">
      <!-- 0.1 -->
      <g transform="translate(26.325937 356.586984) scale(0.13 -0.13)">
       <defs>
        <path id="DejaVuSans-31" d="M 794 531 
L 1825 531 
L 1825 4091 
L 703 3866 
L 703 4441 
L 1819 4666 
L 2450 4666 
L 2450 531 
L 3481 531 
L 3481 0 
L 794 0 
L 794 531 
z
" transform="scale(0.015625)"/>
       </defs>
       <use xlink:href="#DejaVuSans-30"/>
       <use xlink:href="#DejaVuSans-2e" x="63.623047"/>
       <use xlink:href="#DejaVuSans-31" x="95.410156"/>
      </g>
     </g>
    </g>
    <g id="ytick_3">
     <g id="line2d_11">
      <path d="M 54 314.496 
L 334.8 314.496 
" clip-path="url(#pb82c403ea4)" style="fill: none; stroke: #000000; stroke-opacity: 0.1; stroke-width: 0.7; stroke-linecap: square"/>
     </g>
     <g id="line2d_12">
      <g>
       <use xlink:href="#mbd09f8cdf2" x="54" y="314.496" style="stroke: #000000; stroke-width: 0.8"/>
      </g>
     </g>
     <g id="text_7">
      <!-- 0.2 -->
      <g transform="translate(26.325937 319.434984) scale(0.13 -0.13)">
       <use xlink:href="#DejaVuSans-30"/>
       <use xlink:href="#DejaVuSans-2e" x="63.623047"/>
       <use xlink:href="#DejaVuSans-32" x="95.410156"/>
      </g>
     </g>
    </g>
    <g id="ytick_4">
     <g id="line2d_13">
      <path d="M 54 277.344 
L 334.8 277.344 
" clip-path="url(#pb82c403ea4)" style="fill: none; stroke: #000000; stroke-opacity: 0.1; stroke-width: 0.7; stroke-linecap: square"/>
     </g>
     <g id="line2d_14">
      <g>
       <use xlink:href="#mbd09f8cdf2" x="54" y="277.344" style="stroke: #000000; stroke-width: 0.8"/>
      </g>
     </g>
     <g id="text_8">
      <!-- 0.3 -->
      <g transform="translate(26.325937 282.282984) scale(0.13 -0.13)">
       <defs>
        <path id="DejaVuSans-33" d="M 2597 2516 
Q 3050 2419 3304 2112 
Q 3559 1806 3559 1356 
Q 3559 666 3084 287 
Q 2609 -91 1734 -91 
Q 1441 -91 1130 -33 
Q 819 25 488 141 
L 488 750 
Q 750 597 1062 519 
Q 1375 441 1716 441 
Q 2309 441 2620 675 
Q 2931 909 2931 1356 
Q 2931 1769 2642 2001 
Q 2353 2234 1838 2234 
L 1294 2234 
L 1294 2753 
L 1863 2753 
Q 2328 2753 2575 2939 
Q 2822 3125 2822 3475 
Q 2822 3834 2567 4026 
Q 2313 4219 1838 4219 
Q 1578 4219 1281 4162 
Q 984 4106 628 3988 
L 628 4550 
Q 988 4650 1302 4700 
Q 1616 4750 1894 4750 
Q 2613 4750 3031 4423 
Q 3450 4097 3450 3541 
Q 3450 3153 3228 2886 
Q 3006 2619 2597 2516 
z
" transform="scale(0.015625)"/>
       </defs>
       <use xlink:href="#DejaVuSans-30"/>
       <use xlink:href="#DejaVuSans-2e" x="63.623047"/>
       <use xlink:href="#DejaVuSans-33" x="95.410156"/>
      </g>
     </g>
    </g>
    <g id="ytick_5">
     <g id="line2d_15">
      <path d="M 54 240.192 
L 334.8 240.192 
" clip-path="url(#pb82c403ea4)" style="fill: none; stroke: #000000; stroke-opacity: 0.1; stroke-width: 0.7; stroke-linecap: square"/>
     </g>
     <g id="line2d_16">
      <g>
       <use xlink:href="#mbd09f8cdf2" x="54" y="240.192" style="stroke: #000000; stroke-width: 0.8"/>
      </g>
     </g>
     <g id="text_9">
      <!-- 0.4 -->
      <g transform="translate(26.325937 245.130984) scale(0.13 -0.13)">
       <defs>
        <path id="DejaVuSans-34" d="M 2419 4116 
L 825 1625 
L 2419 1625 
L 2419 4116 
z
M 2253 4666 
L 3047 4666 
L 3047 1625 
L 3713 1625 
L 3713 1100 
L 3047 1100 
L 3047 0 
L 2419 0 
L 2419 1100 
L 313 1100 
L 313 1709 
L 2253 4666 
z
" transform="scale(0.015625)"/>
       </defs>
       <use xlink:href="#DejaVuSans-30"/>
       <use xlink:href="#DejaVuSans-2e" x="63.623047"/>
       <use xlink:href="#DejaVuSans-34" x="95.410156"/>
      </g>
     </g>
    </g>
    <g id="ytick_6">
     <g id="line2d_17">
      <path d="M 54 203.04 
L 334.8 203.04 
" clip-path="url(#pb82c403ea4)" style="fill: none; stroke: #000000; stroke-opacity: 0.1; stroke-width: 0.7; stroke-linecap: square"/>
     </g>
     <g id="line2d_18">
      <g>
       <use xlink:href="#mbd09f8cdf2" x="54" y="203.04" style="stroke: #000000; stroke-width: 0.8"/>
      </g>
     </g>
     <g id="text_10">
      <!-- 0.5 -->
      <g transform="translate(26.325937 207.978984) scale(0.13 -0.13)">
       <use xlink:href="#DejaVuSans-30"/>
       <use xlink:href="#DejaVuSans-2e" x="63.623047"/>
       <use xlink:href="#DejaVuSans-35" x="95.410156"/>
      </g>
     </g>
    </g>
    <g id="ytick_7">
     <g id="line2d_19">
      <path d="M 54 165.888 
L 334.8 165.888 
" clip-path="url(#pb82c403ea4)" style="fill: none; stroke: #000000; stroke-opacity: 0.1; stroke-width: 0.7; stroke-linecap: square"/>
     </g>
     <g id="line2d_20">
      <g>
       <use xlink:href="#mbd09f8cdf2" x="54" y="165.888" style="stroke: #000000; stroke-width: 0.8"/>
      </g>
     </g>
     <g id="text_11">
      <!-- 0.6 -->
      <g transform="translate(26.325937 170.826984) scale(0.13 -0.13)">
       <defs>
        <path id="DejaVuSans-36" d="M 2113 2584 
Q 1688 2584 1439 2293 
Q 1191 2003 1191 1497 
Q 1191 994 1439 701 
Q 1688 409 2113 409 
Q 2538 409 2786 701 
Q 3034 994 3034 1497 
Q 3034 2003 2786 2293 
Q 2538 2584 2113 2584 
z
M 3366 4563 
L 3366 3988 
Q 3128 4100 2886 4159 
Q 2644 4219 2406 4219 
Q 1781 4219 1451 3797 
Q 1122 3375 1075 2522 
Q 1259 2794 1537 2939 
Q 1816 3084 2150 3084 
Q 2853 3084 3261 2657 
Q 3669 2231 3669 1497 
Q 3669 778 3244 343 
Q 2819 -91 2113 -91 
Q 1303 -91 875 529 
Q 447 1150 447 2328 
Q 447 3434 972 4092 
Q 1497 4750 2381 4750 
Q 2619 4750 2861 4703 
Q 3103 4656 3366 4563 
z
" transform="scale(0.015625)"/>
       </defs>
       <use xlink:href="#DejaVuSans-30"/>
       <use xlink:href="#DejaVuSans-2e" x="63.623047"/>
       <use xlink:href="#DejaVuSans-36" x="95.410156"/>
      </g>
     </g>
    </g>
    <g id="ytick_8">
     <g id="line2d_21">
      <path d="M 54 128.736 
L 334.8 128.736 
" clip-path="url(#pb82c403ea4)" style="fill: none; stroke: #000000; stroke-opacity: 0.1; stroke-width: 0.7; stroke-linecap: square"/>
     </g>
     <g id="line2d_22">
      <g>
       <use xlink:href="#mbd09f8cdf2" x="54" y="128.736" style="stroke: #000000; stroke-width: 0.8"/>
      </g>
     </g>
     <g id="text_12">
      <!-- 0.7 -->
      <g transform="translate(26.325937 133.674984) scale(0.13 -0.13)">
       <defs>
        <path id="DejaVuSans-37" d="M 525 4666 
L 3525 4666 
L 3525 4397 
L 1831 0 
L 1172 0 
L 2766 4134 
L 525 4134 
L 525 4666 
z
" transform="scale(0.015625)"/>
       </defs>
       <use xlink:href="#DejaVuSans-30"/>
       <use xlink:href="#DejaVuSans-2e" x="63.623047"/>
       <use xlink:href="#DejaVuSans-37" x="95.410156"/>
      </g>
     </g>
    </g>
    <g id="ytick_9">
     <g id="line2d_23">
      <path d="M 54 91.584 
L 334.8 91.584 
" clip-path="url(#pb82c403ea4)" style="fill: none; stroke: #000000; stroke-opacity: 0.1; stroke-width: 0.7; stroke-linecap: square"/>
     </g>
     <g id="line2d_24">
      <g>
       <use xlink:href="#mbd09f8cdf2" x="54" y="91.584" style="stroke: #000000; stroke-width: 0.8"/>
      </g>
     </g>
     <g id="text_13">
      <!-- 0.8 -->
      <g transform="translate(26.325937 96.522984) scale(0.13 -0.13)">
       <defs>
        <path id="DejaVuSans-38" d="M 2034 2216 
Q 1584 2216 1326 1975 
Q 1069 1734 1069 1313 
Q 1069 891 1326 650 
Q 1584 409 2034 409 
Q 2484 409 2743 651 
Q 3003 894 3003 1313 
Q 3003 1734 2745 1975 
Q 2488 2216 2034 2216 
z
M 1403 2484 
Q 997 2584 770 2862 
Q 544 3141 544 3541 
Q 544 4100 942 4425 
Q 1341 4750 2034 4750 
Q 2731 4750 3128 4425 
Q 3525 4100 3525 3541 
Q 3525 3141 3298 2862 
Q 3072 2584 2669 2484 
Q 3125 2378 3379 2068 
Q 3634 1759 3634 1313 
Q 3634 634 3220 271 
Q 2806 -91 2034 -91 
Q 1263 -91 848 271 
Q 434 634 434 1313 
Q 434 1759 690 2068 
Q 947 2378 1403 2484 
z
M 1172 3481 
Q 1172 3119 1398 2916 
Q 1625 2713 2034 2713 
Q 2441 2713 2670 2916 
Q 2900 3119 2900 3481 
Q 2900 3844 2670 4047 
Q 2441 4250 2034 4250 
Q 1625 4250 1398 4047 
Q 1172 3844 1172 3481 
z
" transform="scale(0.015625)"/>
       </defs>
       <use xlink:href="#DejaVuSans-30"/>
       <use xlink:href="#DejaVuSans-2e" x="63.623047"/>
       <use xlink:href="#DejaVuSans-38" x="95.410156"/>
      </g>
     </g>
    </g>
    <g id="ytick_10">
     <g id="line2d_25">
      <path d="M 54 54.432 
L 334.8 54.432 
" clip-path="url(#pb82c403ea4)" style="fill: none; stroke: #000000; stroke-opacity: 0.1; stroke-width: 0.7; stroke-linecap: square"/>
     </g>
     <g id="line2d_26">
      <g>
       <use xlink:href="#mbd09f8cdf2" x="54" y="54.432" style="stroke: #000000; stroke-width: 0.8"/>
      </g>
     </g>
     <g id="text_14">
      <!-- 0.9 -->
      <g transform="translate(26.325937 59.370984) scale(0.13 -0.13)">
       <defs>
        <path id="DejaVuSans-39" d="M 703 97 
L 703 672 
Q 941 559 1184 500 
Q 1428 441 1663 441 
Q 2288 441 2617 861 
Q 2947 1281 2994 2138 
Q 2813 1869 2534 1725 
Q 2256 1581 1919 1581 
Q 1219 1581 811 2004 
Q 403 2428 403 3163 
Q 403 3881 828 4315 
Q 1253 4750 1959 4750 
Q 2769 4750 3195 4129 
Q 3622 3509 3622 2328 
Q 3622 1225 3098 567 
Q 2575 -91 1691 -91 
Q 1453 -91 1209 -44 
Q 966 3 703 97 
z
M 1959 2075 
Q 2384 2075 2632 2365 
Q 2881 2656 2881 3163 
Q 2881 3666 2632 3958 
Q 2384 4250 1959 4250 
Q 1534 4250 1286 3958 
Q 1038 3666 1038 3163 
Q 1038 2656 1286 2365 
Q 1534 2075 1959 2075 
z
" transform="scale(0.015625)"/>
       </defs>
       <use xlink:href="#DejaVuSans-30"/>
       <use xlink:href="#DejaVuSans-2e" x="63.623047"/>
       <use xlink:href="#DejaVuSans-39" x="95.410156"/>
      </g>
     </g>
    </g>
    <g id="ytick_11">
     <g id="line2d_27">
      <path d="M 54 17.28 
L 334.8 17.28 
" clip-path="url(#pb82c403ea4)" style="fill: none; stroke: #000000; stroke-opacity: 0.1; stroke-width: 0.7; stroke-linecap: square"/>
     </g>
     <g id="line2d_28">
      <g>
       <use xlink:href="#mbd09f8cdf2" x="54" y="17.28" style="stroke: #000000; stroke-width: 0.8"/>
      </g>
     </g>
     <g id="text_15">
      <!-- 1.0 -->
      <g transform="translate(26.325937 22.218984) scale(0.13 -0.13)">
       <use xlink:href="#DejaVuSans-31"/>
       <use xlink:href="#DejaVuSans-2e" x="63.623047"/>
       <use xlink:href="#DejaVuSans-30" x="95.410156"/>
      </g>
     </g>
    </g>
    <g id="text_16">
     <!-- GCC Size -->
     <g transform="translate(18.998437 239.37625) rotate(-90) scale(0.16 -0.16)">
      <defs>
       <path id="DejaVuSans-47" d="M 3809 666 
L 3809 1919 
L 2778 1919 
L 2778 2438 
L 4434 2438 
L 4434 434 
Q 4069 175 3628 42 
Q 3188 -91 2688 -91 
Q 1594 -91 976 548 
Q 359 1188 359 2328 
Q 359 3472 976 4111 
Q 1594 4750 2688 4750 
Q 3144 4750 3555 4637 
Q 3966 4525 4313 4306 
L 4313 3634 
Q 3963 3931 3569 4081 
Q 3175 4231 2741 4231 
Q 1884 4231 1454 3753 
Q 1025 3275 1025 2328 
Q 1025 1384 1454 906 
Q 1884 428 2741 428 
Q 3075 428 3337 486 
Q 3600 544 3809 666 
z
" transform="scale(0.015625)"/>
       <path id="DejaVuSans-43" d="M 4122 4306 
L 4122 3641 
Q 3803 3938 3442 4084 
Q 3081 4231 2675 4231 
Q 1875 4231 1450 3742 
Q 1025 3253 1025 2328 
Q 1025 1406 1450 917 
Q 1875 428 2675 428 
Q 3081 428 3442 575 
Q 3803 722 4122 1019 
L 4122 359 
Q 3791 134 3420 21 
Q 3050 -91 2638 -91 
Q 1578 -91 968 557 
Q 359 1206 359 2328 
Q 359 3453 968 4101 
Q 1578 4750 2638 4750 
Q 3056 4750 3426 4639 
Q 3797 4528 4122 4306 
z
" transform="scale(0.015625)"/>
       <path id="DejaVuSans-53" d="M 3425 4513 
L 3425 3897 
Q 3066 4069 2747 4153 
Q 2428 4238 2131 4238 
Q 1616 4238 1336 4038 
Q 1056 3838 1056 3469 
Q 1056 3159 1242 3001 
Q 1428 2844 1947 2747 
L 2328 2669 
Q 3034 2534 3370 2195 
Q 3706 1856 3706 1288 
Q 3706 609 3251 259 
Q 2797 -91 1919 -91 
Q 1588 -91 1214 -16 
Q 841 59 441 206 
L 441 856 
Q 825 641 1194 531 
Q 1563 422 1919 422 
Q 2459 422 2753 634 
Q 3047 847 3047 1241 
Q 3047 1584 2836 1778 
Q 2625 1972 2144 2069 
L 1759 2144 
Q 1053 2284 737 2584 
Q 422 2884 422 3419 
Q 422 4038 858 4394 
Q 1294 4750 2059 4750 
Q 2388 4750 2728 4690 
Q 3069 4631 3425 4513 
z
" transform="scale(0.015625)"/>
       <path id="DejaVuSans-7a" d="M 353 3500 
L 3084 3500 
L 3084 2975 
L 922 459 
L 3084 459 
L 3084 0 
L 275 0 
L 275 525 
L 2438 3041 
L 353 3041 
L 353 3500 
z
" transform="scale(0.015625)"/>
       <path id="DejaVuSans-65" d="M 3597 1894 
L 3597 1613 
L 953 1613 
Q 991 1019 1311 708 
Q 1631 397 2203 397 
Q 2534 397 2845 478 
Q 3156 559 3463 722 
L 3463 178 
Q 3153 47 2828 -22 
Q 2503 -91 2169 -91 
Q 1331 -91 842 396 
Q 353 884 353 1716 
Q 353 2575 817 3079 
Q 1281 3584 2069 3584 
Q 2775 3584 3186 3129 
Q 3597 2675 3597 1894 
z
M 3022 2063 
Q 3016 2534 2758 2815 
Q 2500 3097 2075 3097 
Q 1594 3097 1305 2825 
Q 1016 2553 972 2059 
L 3022 2063 
z
" transform="scale(0.015625)"/>
      </defs>
      <use xlink:href="#DejaVuSans-47"/>
      <use xlink:href="#DejaVuSans-43" x="77.490234"/>
      <use xlink:href="#DejaVuSans-43" x="147.314453"/>
      <use xlink:href="#DejaVuSans-20" x="217.138672"/>
      <use xlink:href="#DejaVuSans-53" x="248.925781"/>
      <use xlink:href="#DejaVuSans-69" x="312.402344"/>
      <use xlink:href="#DejaVuSans-7a" x="340.185547"/>
      <use xlink:href="#DejaVuSans-65" x="392.675781"/>
     </g>
    </g>
   </g>
   <g id="line2d_29">
    <path d="M 54.753826 22.76553 
L 55.507651 24.261584 
L 56.261477 36.230013 
L 57.015302 138.460349 
L 57.769128 139.457718 
L 59.276779 140.455087 
L 60.030604 145.940617 
L 60.78443 148.43404 
L 61.538255 149.431409 
L 62.292081 149.930094 
L 63.045906 155.415624 
L 63.799732 155.914309 
L 64.553557 157.410362 
L 65.307383 157.909047 
L 66.061208 160.901154 
L 66.815034 162.397208 
L 67.568859 167.882738 
L 69.07651 168.880107 
L 69.830336 171.37353 
L 70.584161 171.872215 
L 71.337987 174.864322 
L 72.091812 176.360376 
L 72.845638 178.853799 
L 73.599463 179.851168 
L 77.368591 182.344591 
L 78.122416 185.336698 
L 78.876242 185.835383 
L 79.630067 187.331436 
L 80.383893 188.328805 
L 81.891544 189.326174 
L 82.645369 194.811705 
L 83.399195 195.310389 
L 84.15302 201.294604 
L 85.660671 202.291973 
L 86.414497 203.289342 
L 87.168322 203.788027 
L 87.922148 206.28145 
L 88.675973 206.780134 
L 89.429799 209.772242 
L 91.691275 211.268295 
L 92.445101 212.764349 
L 93.198926 213.761718 
L 93.952752 216.255141 
L 94.706577 217.751195 
L 95.460403 222.73804 
L 96.214228 223.236725 
L 96.968054 224.234094 
L 101.491007 227.226201 
L 102.244832 228.22357 
L 102.998658 229.719624 
L 103.752483 230.716993 
L 104.506309 232.711732 
L 105.260134 233.709101 
L 106.767785 234.70647 
L 107.521611 237.199893 
L 109.029262 240.192 
L 112.044564 242.186738 
L 112.798389 247.672268 
L 113.552215 249.168322 
L 114.30604 251.16306 
L 115.059866 255.651221 
L 115.813691 257.147275 
L 116.567517 262.632805 
L 118.075168 263.630174 
L 118.828993 270.113074 
L 119.582819 270.611758 
L 120.336644 274.10255 
L 121.09047 275.099919 
L 121.844295 275.598604 
L 122.598121 276.595973 
L 124.105772 277.593342 
L 124.859597 279.089396 
L 125.613423 279.588081 
L 126.367248 280.58545 
L 127.874899 281.582819 
L 128.628725 285.073611 
L 129.38255 285.572295 
L 130.136376 289.561772 
L 130.890201 291.057826 
L 131.644027 291.55651 
L 132.397852 300.034148 
L 133.905503 301.031517 
L 134.659329 302.028886 
L 136.16698 303.026255 
L 137.674631 305.020993 
L 138.428456 309.01047 
L 139.182282 309.509154 
L 139.936107 312.999946 
L 140.689933 313.997315 
L 141.443758 317.986792 
L 143.705235 319.482846 
L 144.45906 322.973638 
L 145.212886 331.451275 
L 146.720537 332.448644 
L 150.489664 332.448644 
L 151.24349 338.432859 
L 151.997315 338.931544 
L 152.751141 342.92102 
L 154.258792 344.915758 
L 155.766443 345.913128 
L 156.520268 348.905235 
L 157.274094 349.403919 
L 159.53557 349.403919 
L 160.289396 349.902604 
L 161.043221 351.398658 
L 161.797047 351.897342 
L 162.550872 355.886819 
L 164.058523 357.881557 
L 165.566174 357.881557 
L 166.32 359.876295 
L 167.073826 363.865772 
L 169.335302 365.361826 
L 170.089128 365.361826 
L 170.842953 367.356564 
L 171.596779 368.852617 
L 172.350604 371.844725 
L 173.10443 372.842094 
L 173.858255 372.842094 
L 175.365906 373.839463 
L 177.627383 373.839463 
L 178.381208 374.836832 
L 180.642685 374.836832 
L 181.39651 375.335517 
L 182.150336 376.83157 
L 182.904161 376.83157 
L 183.657987 377.330255 
L 184.411812 377.330255 
L 187.427114 379.324993 
L 190.442416 379.324993 
L 191.196242 380.322362 
L 192.703893 380.322362 
L 193.457718 381.319732 
L 194.211544 381.818416 
L 195.719195 381.818416 
L 196.47302 382.317101 
L 197.980671 382.317101 
L 198.734497 382.815785 
L 199.488322 382.815785 
L 200.995973 383.813154 
L 204.011275 383.813154 
L 204.765101 384.311839 
L 210.795705 384.311839 
L 211.54953 384.810523 
L 214.564832 384.810523 
L 215.318658 385.309208 
L 222.856913 385.309208 
L 223.610738 385.807893 
L 227.379866 385.807893 
L 228.133691 386.306577 
L 241.70255 386.306577 
L 242.456376 386.805262 
L 262.055839 386.805262 
L 262.809664 387.303946 
L 288.439732 387.303946 
L 289.193557 387.802631 
L 289.193557 387.802631 
" clip-path="url(#pb82c403ea4)" style="fill: none; stroke: #d80000; stroke-width: 1.8; stroke-linecap: square"/>
   </g>
   <g id="line2d_30">
    <path d="M 54.753826 17.28 
L 55.507651 22.76553 
L 56.261477 32.739221 
L 57.015302 32.739221 
L 58.522953 33.736591 
L 60.78443 33.736591 
L 61.538255 34.235275 
L 62.292081 39.720805 
L 63.045906 40.718174 
L 63.799732 41.216859 
L 64.553557 42.712913 
L 65.307383 43.211597 
L 66.815034 43.211597 
L 67.568859 46.702389 
L 69.07651 47.699758 
L 71.337987 47.699758 
L 72.845638 48.697128 
L 73.599463 48.697128 
L 74.353289 49.195812 
L 75.86094 49.195812 
L 78.122416 50.691866 
L 79.630067 50.691866 
L 80.383893 51.19055 
L 81.137718 51.19055 
L 82.645369 52.187919 
L 83.399195 52.187919 
L 84.15302 52.686604 
L 84.906846 52.686604 
L 87.168322 54.182658 
L 87.922148 55.180027 
L 90.183624 56.676081 
L 90.93745 56.676081 
L 92.445101 57.67345 
L 93.198926 57.67345 
L 93.952752 58.172134 
L 95.460403 58.172134 
L 96.214228 58.670819 
L 99.983356 58.670819 
L 100.737181 59.169503 
L 101.491007 59.169503 
L 102.998658 60.166872 
L 103.752483 60.166872 
L 104.506309 60.665557 
L 106.01396 60.665557 
L 106.767785 61.164242 
L 108.275436 61.164242 
L 109.029262 61.662926 
L 109.783087 62.660295 
L 116.567517 62.660295 
L 117.321342 63.15898 
L 118.075168 63.15898 
L 118.828993 64.156349 
L 119.582819 64.156349 
L 120.336644 64.655034 
L 121.09047 64.655034 
L 124.859597 67.148456 
L 125.613423 67.148456 
L 126.367248 67.647141 
L 127.874899 67.647141 
L 129.38255 68.64451 
L 130.136376 70.140564 
L 131.644027 71.137933 
L 133.905503 71.137933 
L 134.659329 71.636617 
L 135.413154 71.636617 
L 138.428456 73.631356 
L 139.182282 73.631356 
L 139.936107 74.13004 
L 141.443758 74.13004 
L 142.197584 74.628725 
L 144.45906 74.628725 
L 145.212886 75.127409 
L 145.966711 75.127409 
L 150.489664 78.119517 
L 151.24349 78.119517 
L 151.997315 78.618201 
L 153.504966 78.618201 
L 161.043221 83.605047 
L 161.797047 83.605047 
L 162.550872 84.103732 
L 164.058523 84.103732 
L 166.32 85.599785 
L 167.073826 87.594523 
L 170.089128 89.589262 
L 170.842953 89.589262 
L 171.596779 90.087946 
L 172.350604 90.087946 
L 177.627383 93.578738 
L 179.135034 93.578738 
L 181.39651 95.074792 
L 182.150336 96.570846 
L 182.904161 97.06953 
L 183.657987 98.066899 
L 190.442416 102.55506 
L 191.950067 102.55506 
L 192.703893 110.534013 
L 193.457718 113.027436 
L 194.965369 114.024805 
L 195.719195 115.520859 
L 196.47302 115.520859 
L 200.242148 118.014282 
L 200.995973 119.011651 
L 204.011275 121.006389 
L 204.765101 121.006389 
L 209.288054 123.998497 
L 210.041879 125.993235 
L 210.795705 125.993235 
L 211.54953 126.990604 
L 212.303356 127.489289 
L 213.057181 128.985342 
L 214.564832 129.982711 
L 215.318658 131.97745 
L 216.826309 132.974819 
L 217.580134 132.974819 
L 220.595436 134.969557 
L 221.349262 135.966926 
L 224.364564 137.961664 
L 225.118389 138.959034 
L 226.62604 139.956403 
L 227.379866 141.951141 
L 231.148993 141.951141 
L 234.164295 143.945879 
L 234.918121 145.441933 
L 237.933423 147.436671 
L 238.687248 147.436671 
L 239.441074 149.930094 
L 240.194899 150.428779 
L 240.948725 151.924832 
L 245.471678 154.91694 
L 246.225503 155.914309 
L 246.979329 155.914309 
L 249.240805 157.410362 
L 250.748456 157.410362 
L 251.502282 159.405101 
L 253.009933 159.405101 
L 255.271409 160.901154 
L 256.025235 161.898523 
L 258.286711 161.898523 
L 259.794362 163.893262 
L 260.548188 164.391946 
L 261.302013 166.386685 
L 266.578792 169.877477 
L 268.086443 169.877477 
L 269.594094 170.874846 
L 270.347919 170.874846 
L 271.101745 171.872215 
L 272.609396 172.869584 
L 273.363221 173.866953 
L 274.870872 173.866953 
L 275.624698 174.864322 
L 277.886174 176.360376 
L 278.64 176.360376 
L 283.916779 179.851168 
L 284.670604 180.848537 
L 285.42443 181.347221 
L 286.178255 182.344591 
L 286.178255 182.344591 
" clip-path="url(#pb82c403ea4)" style="fill: none; stroke: #264653; stroke-width: 1.8; stroke-linecap: square"/>
   </g>
   <g id="line2d_31">
    <path d="M 54.753826 17.28 
L 109.029262 17.28 
L 109.783087 18.277369 
L 112.798389 20.272107 
L 113.552215 25.757638 
L 114.30604 27.752376 
L 115.059866 27.752376 
L 115.813691 28.25106 
L 116.567517 30.245799 
L 117.321342 31.243168 
L 118.075168 31.741852 
L 118.828993 32.739221 
L 119.582819 36.230013 
L 120.336644 36.728698 
L 121.09047 38.224752 
L 125.613423 41.216859 
L 126.367248 42.712913 
L 127.121074 43.710282 
L 130.136376 45.70502 
L 130.890201 47.201074 
L 136.920805 51.19055 
L 137.674631 52.187919 
L 138.428456 54.182658 
L 139.182282 57.174765 
L 141.443758 58.670819 
L 142.197584 59.668188 
L 142.951409 60.166872 
L 143.705235 63.657664 
L 144.45906 64.655034 
L 149.735839 68.145826 
L 150.489664 76.623463 
L 162.550872 84.602416 
L 163.304698 86.597154 
L 166.32 88.591893 
L 167.073826 90.586631 
L 169.335302 92.082685 
L 170.089128 108.539275 
L 173.858255 111.032698 
L 177.627383 111.032698 
L 179.888859 112.528752 
L 180.642685 113.526121 
L 181.39651 114.024805 
L 182.150336 115.520859 
L 183.657987 116.518228 
L 184.411812 117.515597 
L 186.673289 119.011651 
L 189.688591 119.011651 
L 190.442416 119.510336 
L 191.196242 122.003758 
L 191.950067 122.502443 
L 192.703893 130.481396 
L 193.457718 133.972188 
L 194.965369 134.969557 
L 195.719195 141.951141 
L 196.47302 145.441933 
L 197.226846 149.930094 
L 197.980671 151.426148 
L 198.734497 151.924832 
L 199.488322 153.91957 
L 200.242148 153.91957 
L 200.995973 154.91694 
L 203.25745 156.412993 
L 204.011275 157.909047 
L 204.765101 161.399839 
L 207.780403 163.394577 
L 210.041879 163.394577 
L 210.795705 165.389315 
L 211.54953 165.888 
L 212.303356 165.888 
L 213.811007 167.882738 
L 214.564832 168.381423 
L 215.318658 170.376161 
L 216.072483 170.376161 
L 216.826309 171.37353 
L 219.087785 171.37353 
L 220.595436 172.370899 
L 221.349262 173.368268 
L 222.103087 175.363007 
L 222.856913 177.85643 
L 223.610738 178.355114 
L 225.118389 180.349852 
L 228.133691 182.344591 
L 228.887517 184.339329 
L 232.656644 184.339329 
L 233.41047 184.838013 
L 234.164295 185.835383 
L 235.671946 186.832752 
L 236.425772 188.82749 
L 239.441074 188.82749 
L 240.194899 189.326174 
L 240.948725 190.323544 
L 243.210201 191.819597 
L 244.717852 193.814336 
L 245.471678 194.31302 
L 246.979329 196.307758 
L 248.48698 197.305128 
L 249.240805 199.299866 
L 249.994631 199.299866 
L 250.748456 199.79855 
L 256.025235 199.79855 
L 256.77906 201.793289 
L 257.532886 201.793289 
L 258.286711 202.291973 
L 259.040537 202.291973 
L 259.794362 203.289342 
L 261.302013 204.286711 
L 262.055839 205.284081 
L 262.809664 207.278819 
L 265.824966 209.273557 
L 267.332617 209.273557 
L 268.086443 209.772242 
L 271.85557 209.772242 
L 273.363221 210.769611 
L 274.117047 211.76698 
L 274.870872 211.76698 
L 275.624698 212.265664 
L 276.378523 213.263034 
L 277.132349 214.759087 
L 277.886174 214.759087 
L 279.393826 215.756456 
L 280.147651 216.753826 
L 283.162953 218.748564 
L 283.916779 219.745933 
L 286.932081 219.745933 
L 288.439732 220.743302 
L 289.193557 221.740671 
L 289.193557 221.740671 
" clip-path="url(#pb82c403ea4)" style="fill: none; stroke: #ffe211; stroke-width: 1.8; stroke-linecap: square"/>
   </g>
   <g id="line2d_32">
    <path d="M 54.753826 17.28 
L 57.769128 17.28 
L 58.522953 17.778685 
L 61.538255 17.778685 
L 62.292081 18.776054 
L 63.045906 19.274738 
L 64.553557 19.274738 
L 65.307383 19.773423 
L 67.568859 19.773423 
L 70.584161 21.768161 
L 71.337987 21.768161 
L 73.599463 23.264215 
L 75.107114 23.264215 
L 77.368591 24.760268 
L 78.876242 24.760268 
L 81.137718 26.256322 
L 82.645369 26.256322 
L 83.399195 26.755007 
L 84.15302 26.755007 
L 85.660671 27.752376 
L 86.414497 27.752376 
L 88.675973 29.24843 
L 90.183624 31.243168 
L 91.691275 31.243168 
L 93.198926 32.240537 
L 93.952752 32.240537 
L 96.214228 33.736591 
L 97.721879 33.736591 
L 102.998658 37.227383 
L 104.506309 37.227383 
L 106.767785 38.723436 
L 107.521611 38.723436 
L 109.029262 39.720805 
L 111.290738 39.720805 
L 112.044564 40.21949 
L 112.798389 40.21949 
L 113.552215 40.718174 
L 116.567517 40.718174 
L 118.075168 41.715544 
L 118.828993 41.715544 
L 120.336644 42.712913 
L 121.09047 43.710282 
L 125.613423 46.702389 
L 126.367248 46.702389 
L 130.136376 49.195812 
L 130.890201 49.195812 
L 133.151678 50.691866 
L 133.905503 50.691866 
L 134.659329 51.19055 
L 135.413154 51.19055 
L 139.182282 53.683973 
L 139.936107 53.683973 
L 141.443758 54.681342 
L 142.951409 54.681342 
L 146.720537 57.174765 
L 147.474362 57.174765 
L 148.228188 57.67345 
L 151.24349 57.67345 
L 155.766443 60.665557 
L 156.520268 61.662926 
L 158.027919 61.662926 
L 161.043221 63.657664 
L 161.797047 64.655034 
L 163.304698 65.652403 
L 164.058523 65.652403 
L 164.812349 66.649772 
L 166.32 67.647141 
L 167.073826 67.647141 
L 167.827651 68.145826 
L 168.581477 68.145826 
L 169.335302 68.64451 
L 170.089128 68.64451 
L 172.350604 70.140564 
L 173.10443 70.140564 
L 181.39651 75.626094 
L 182.150336 76.623463 
L 190.442416 82.108993 
L 191.196242 82.108993 
L 191.950067 82.607678 
L 193.457718 82.607678 
L 194.965369 83.605047 
L 195.719195 83.605047 
L 204.011275 89.090577 
L 204.765101 89.090577 
L 212.303356 94.077423 
L 213.057181 94.077423 
L 213.811007 94.576107 
L 214.564832 95.573477 
L 225.872215 103.053745 
L 226.62604 104.051114 
L 233.41047 108.539275 
L 234.164295 108.539275 
L 237.179597 110.534013 
L 237.933423 110.534013 
L 240.948725 112.528752 
L 241.70255 112.528752 
L 246.225503 115.520859 
L 247.733154 117.515597 
L 260.548188 125.993235 
L 261.302013 126.990604 
L 262.809664 127.987973 
L 263.56349 129.982711 
L 267.332617 132.476134 
L 268.086443 132.476134 
L 274.870872 136.964295 
L 275.624698 136.964295 
L 276.378523 137.961664 
L 281.655302 141.452456 
L 282.409128 142.449826 
L 291.455034 148.43404 
L 292.208859 149.431409 
L 292.962685 149.930094 
L 293.71651 150.927463 
L 293.71651 150.927463 
" clip-path="url(#pb82c403ea4)" style="fill: none; stroke: #39c5bb; stroke-width: 1.8; stroke-linecap: square"/>
   </g>
   <g id="line2d_33">
    <path d="M 54.753826 17.28 
L 56.261477 17.28 
L 57.015302 22.76553 
L 58.522953 22.76553 
L 60.030604 23.762899 
L 60.78443 23.762899 
L 61.538255 24.760268 
L 63.045906 25.757638 
L 65.307383 25.757638 
L 66.061208 26.256322 
L 66.815034 26.256322 
L 67.568859 27.752376 
L 72.091812 30.744483 
L 72.845638 32.739221 
L 73.599463 33.237906 
L 74.353289 36.230013 
L 75.107114 38.224752 
L 76.614765 39.222121 
L 77.368591 39.222121 
L 78.876242 40.21949 
L 79.630067 40.21949 
L 80.383893 40.718174 
L 81.891544 40.718174 
L 83.399195 41.715544 
L 84.15302 41.715544 
L 86.414497 43.211597 
L 87.168322 43.211597 
L 87.922148 43.710282 
L 88.675973 43.710282 
L 89.429799 44.707651 
L 90.183624 45.206336 
L 90.93745 45.206336 
L 91.691275 45.70502 
L 92.445101 45.70502 
L 93.952752 46.702389 
L 94.706577 46.702389 
L 97.721879 48.697128 
L 99.983356 48.697128 
L 100.737181 49.195812 
L 102.998658 49.195812 
L 103.752483 49.694497 
L 104.506309 51.19055 
L 105.260134 51.19055 
L 106.01396 54.681342 
L 108.275436 56.177396 
L 110.536913 56.177396 
L 111.290738 58.172134 
L 112.044564 59.169503 
L 112.798389 59.169503 
L 113.552215 59.668188 
L 114.30604 59.668188 
L 115.059866 60.166872 
L 115.813691 62.660295 
L 116.567517 63.657664 
L 117.321342 63.657664 
L 118.075168 64.655034 
L 118.828993 65.153718 
L 119.582819 67.148456 
L 122.598121 69.143195 
L 123.351946 69.143195 
L 124.859597 70.140564 
L 125.613423 72.633987 
L 127.121074 73.631356 
L 127.874899 73.631356 
L 128.628725 75.127409 
L 129.38255 75.626094 
L 130.136376 75.626094 
L 130.890201 76.124779 
L 131.644027 76.124779 
L 136.16698 79.116886 
L 136.920805 81.111624 
L 139.936107 83.106362 
L 141.443758 83.106362 
L 142.951409 84.103732 
L 144.45906 84.103732 
L 145.212886 84.602416 
L 146.720537 84.602416 
L 147.474362 85.101101 
L 148.228188 85.101101 
L 149.735839 86.09847 
L 151.24349 86.09847 
L 153.504966 87.594523 
L 154.258792 87.594523 
L 156.520268 89.090577 
L 157.274094 89.090577 
L 161.043221 91.584 
L 161.797047 91.584 
L 162.550872 92.082685 
L 164.058523 92.082685 
L 164.812349 94.576107 
L 165.566174 94.576107 
L 166.32 96.570846 
L 167.073826 97.06953 
L 168.581477 97.06953 
L 171.596779 99.064268 
L 173.858255 99.064268 
L 179.135034 102.55506 
L 179.888859 102.55506 
L 181.39651 103.55243 
L 182.150336 104.549799 
L 190.442416 110.035329 
L 191.196242 110.035329 
L 191.950067 110.534013 
L 192.703893 110.534013 
L 194.965369 112.030067 
L 195.719195 113.027436 
L 204.011275 118.512966 
L 204.765101 118.512966 
L 211.54953 123.001128 
L 212.303356 124.995866 
L 213.057181 125.49455 
L 213.811007 126.491919 
L 215.318658 127.489289 
L 216.072483 127.489289 
L 216.826309 127.987973 
L 217.580134 129.982711 
L 222.856913 133.473503 
L 223.610738 134.470872 
L 225.118389 135.468242 
L 225.872215 136.465611 
L 230.395168 139.457718 
L 231.148993 139.457718 
L 231.902819 140.455087 
L 234.918121 142.449826 
L 235.671946 144.943248 
L 238.687248 146.937987 
L 239.441074 147.935356 
L 243.210201 150.428779 
L 245.471678 153.420886 
L 246.225503 153.91957 
L 246.979329 153.91957 
L 248.48698 154.91694 
L 249.240805 154.91694 
L 259.040537 161.399839 
L 259.794362 163.394577 
L 260.548188 163.394577 
L 261.302013 163.893262 
L 262.055839 164.890631 
L 263.56349 165.888 
L 264.317315 166.885369 
L 271.85557 171.872215 
L 272.609396 171.872215 
L 274.117047 172.869584 
L 274.870872 173.866953 
L 277.132349 175.363007 
L 278.64 175.363007 
L 279.393826 176.360376 
L 280.901477 177.357745 
L 281.655302 177.357745 
L 282.409128 177.85643 
L 283.162953 177.85643 
L 285.42443 179.352483 
L 286.178255 180.349852 
L 289.193557 182.344591 
L 289.947383 183.34196 
L 290.701208 183.840644 
L 291.455034 185.336698 
L 291.455034 185.336698 
" clip-path="url(#pb82c403ea4)" style="fill: none; stroke: #2a9d8f; stroke-width: 1.8; stroke-linecap: square"/>
   </g>
   <g id="line2d_34">
    <path d="M 54.753826 17.28 
L 56.261477 17.28 
L 57.015302 22.76553 
L 57.769128 22.76553 
L 58.522953 23.264215 
L 59.276779 23.264215 
L 60.030604 23.762899 
L 61.538255 23.762899 
L 63.045906 24.760268 
L 63.799732 25.757638 
L 64.553557 25.757638 
L 65.307383 26.256322 
L 66.061208 26.256322 
L 66.815034 27.752376 
L 67.568859 27.752376 
L 71.337987 30.245799 
L 72.091812 33.237906 
L 72.845638 33.736591 
L 73.599463 35.731329 
L 74.353289 36.230013 
L 75.107114 36.230013 
L 76.614765 37.227383 
L 77.368591 39.222121 
L 78.876242 40.21949 
L 79.630067 40.21949 
L 80.383893 40.718174 
L 81.137718 40.718174 
L 82.645369 41.715544 
L 85.660671 41.715544 
L 88.675973 43.710282 
L 89.429799 44.707651 
L 90.183624 44.707651 
L 90.93745 46.203705 
L 93.198926 47.699758 
L 93.952752 47.699758 
L 95.460403 48.697128 
L 96.968054 48.697128 
L 97.721879 49.195812 
L 98.475705 49.195812 
L 99.22953 49.694497 
L 102.998658 49.694497 
L 106.767785 52.187919 
L 107.521611 52.187919 
L 108.275436 55.678711 
L 109.029262 56.177396 
L 112.044564 56.177396 
L 112.798389 58.172134 
L 113.552215 59.169503 
L 114.30604 59.668188 
L 115.059866 59.668188 
L 116.567517 60.665557 
L 117.321342 61.662926 
L 118.075168 63.657664 
L 118.828993 63.657664 
L 119.582819 64.156349 
L 120.336644 64.156349 
L 121.09047 66.649772 
L 121.844295 67.148456 
L 123.351946 67.148456 
L 124.105772 67.647141 
L 124.859597 69.143195 
L 126.367248 70.140564 
L 127.121074 72.633987 
L 130.890201 75.127409 
L 131.644027 75.127409 
L 132.397852 75.626094 
L 133.151678 75.626094 
L 137.674631 78.618201 
L 138.428456 80.61294 
L 139.182282 81.111624 
L 139.936107 81.111624 
L 142.197584 82.607678 
L 142.951409 82.607678 
L 143.705235 83.106362 
L 146.720537 83.106362 
L 148.982013 84.602416 
L 149.735839 84.602416 
L 150.489664 85.101101 
L 151.24349 85.101101 
L 152.751141 86.09847 
L 153.504966 86.09847 
L 154.258792 86.597154 
L 155.012617 86.597154 
L 158.781745 89.090577 
L 159.53557 89.090577 
L 161.043221 90.087946 
L 161.797047 90.087946 
L 162.550872 90.586631 
L 163.304698 93.080054 
L 165.566174 93.080054 
L 166.32 95.074792 
L 167.073826 95.573477 
L 167.827651 95.573477 
L 170.089128 97.06953 
L 171.596779 97.06953 
L 172.350604 97.568215 
L 173.858255 97.568215 
L 178.381208 100.560322 
L 179.888859 100.560322 
L 181.39651 101.557691 
L 182.150336 102.55506 
L 190.442416 108.040591 
L 191.196242 108.040591 
L 191.950067 108.539275 
L 193.457718 108.539275 
L 194.965369 109.536644 
L 195.719195 110.534013 
L 204.011275 116.019544 
L 204.765101 116.019544 
L 210.795705 120.00902 
L 211.54953 122.003758 
L 212.303356 122.502443 
L 213.057181 123.499812 
L 216.072483 125.49455 
L 216.826309 127.489289 
L 222.103087 130.980081 
L 222.856913 131.97745 
L 224.364564 132.974819 
L 225.118389 133.972188 
L 230.395168 137.46298 
L 231.148993 137.46298 
L 231.902819 138.460349 
L 232.656644 138.959034 
L 233.41047 138.959034 
L 237.933423 141.951141 
L 238.687248 144.444564 
L 241.70255 146.439302 
L 242.456376 147.935356 
L 243.210201 147.935356 
L 243.964027 148.43404 
L 244.717852 148.43404 
L 246.979329 149.930094 
L 249.240805 152.922201 
L 249.994631 152.922201 
L 258.286711 158.407732 
L 259.040537 158.407732 
L 259.794362 158.906416 
L 260.548188 159.903785 
L 262.055839 160.901154 
L 262.809664 161.898523 
L 270.347919 166.885369 
L 271.101745 166.885369 
L 273.363221 168.381423 
L 274.117047 169.378792 
L 277.132349 171.37353 
L 278.64 171.37353 
L 279.393826 172.370899 
L 282.409128 174.365638 
L 283.162953 174.365638 
L 287.685906 177.357745 
L 288.439732 178.355114 
L 289.193557 178.853799 
L 289.947383 180.349852 
L 289.947383 180.349852 
" clip-path="url(#pb82c403ea4)" style="fill: none; stroke: #e76f51; stroke-width: 1.8; stroke-linecap: square"/>
   </g>
   <g id="patch_3">
    <path d="M 54 388.8 
L 54 17.28 
" style="fill: none; stroke: #000000; stroke-width: 0.8; stroke-linejoin: miter; stroke-linecap: square"/>
   </g>
   <g id="patch_4">
    <path d="M 334.8 388.8 
L 334.8 17.28 
" style="fill: none; stroke: #000000; stroke-width: 0.8; stroke-linejoin: miter; stroke-linecap: square"/>
   </g>
   <g id="patch_5">
    <path d="M 54 388.8 
L 334.8 388.8 
" style="fill: none; stroke: #000000; stroke-width: 0.8; stroke-linejoin: miter; stroke-linecap: square"/>
   </g>
   <g id="patch_6">
    <path d="M 54 17.28 
L 334.8 17.28 
" style="fill: none; stroke: #000000; stroke-width: 0.8; stroke-linejoin: miter; stroke-linecap: square"/>
   </g>
   <g id="legend_1">
    <g id="patch_7">
     <path d="M 241.51125 382.8 
L 326.4 382.8 
Q 328.8 382.8 328.8 380.4 
L 328.8 275.9175 
Q 328.8 273.5175 326.4 273.5175 
L 241.51125 273.5175 
Q 239.11125 273.5175 239.11125 275.9175 
L 239.11125 380.4 
Q 239.11125 382.8 241.51125 382.8 
z
" style="fill: #ffffff; opacity: 0.8; stroke: #cccccc; stroke-linejoin: miter"/>
    </g>
    <g id="line2d_35">
     <path d="M 243.91125 283.235625 
L 255.91125 283.235625 
L 267.91125 283.235625 
" style="fill: none; stroke: #d80000; stroke-width: 1.8; stroke-linecap: square"/>
    </g>
    <g id="text_17">
     <!-- None -->
     <g transform="translate(277.51125 287.435625) scale(0.12 -0.12)">
      <defs>
       <path id="DejaVuSans-4e" d="M 628 4666 
L 1478 4666 
L 3547 763 
L 3547 4666 
L 4159 4666 
L 4159 0 
L 3309 0 
L 1241 3903 
L 1241 0 
L 628 0 
L 628 4666 
z
" transform="scale(0.015625)"/>
       <path id="DejaVuSans-6e" d="M 3513 2113 
L 3513 0 
L 2938 0 
L 2938 2094 
Q 2938 2591 2744 2837 
Q 2550 3084 2163 3084 
Q 1697 3084 1428 2787 
Q 1159 2491 1159 1978 
L 1159 0 
L 581 0 
L 581 3500 
L 1159 3500 
L 1159 2956 
Q 1366 3272 1645 3428 
Q 1925 3584 2291 3584 
Q 2894 3584 3203 3211 
Q 3513 2838 3513 2113 
z
" transform="scale(0.015625)"/>
      </defs>
      <use xlink:href="#DejaVuSans-4e"/>
      <use xlink:href="#DejaVuSans-6f" x="74.804688"/>
      <use xlink:href="#DejaVuSans-6e" x="135.986328"/>
      <use xlink:href="#DejaVuSans-65" x="199.365234"/>
     </g>
    </g>
    <g id="line2d_36">
     <path d="M 243.91125 300.849375 
L 255.91125 300.849375 
L 267.91125 300.849375 
" style="fill: none; stroke: #264653; stroke-width: 1.8; stroke-linecap: square"/>
    </g>
    <g id="text_18">
     <!-- HD -->
     <g transform="translate(277.51125 305.049375) scale(0.12 -0.12)">
      <defs>
       <path id="DejaVuSans-48" d="M 628 4666 
L 1259 4666 
L 1259 2753 
L 3553 2753 
L 3553 4666 
L 4184 4666 
L 4184 0 
L 3553 0 
L 3553 2222 
L 1259 2222 
L 1259 0 
L 628 0 
L 628 4666 
z
" transform="scale(0.015625)"/>
       <path id="DejaVuSans-44" d="M 1259 4147 
L 1259 519 
L 2022 519 
Q 2988 519 3436 956 
Q 3884 1394 3884 2338 
Q 3884 3275 3436 3711 
Q 2988 4147 2022 4147 
L 1259 4147 
z
M 628 4666 
L 1925 4666 
Q 3281 4666 3915 4102 
Q 4550 3538 4550 2338 
Q 4550 1131 3912 565 
Q 3275 0 1925 0 
L 628 0 
L 628 4666 
z
" transform="scale(0.015625)"/>
      </defs>
      <use xlink:href="#DejaVuSans-48"/>
      <use xlink:href="#DejaVuSans-44" x="75.195312"/>
     </g>
    </g>
    <g id="line2d_37">
     <path d="M 243.91125 318.463125 
L 255.91125 318.463125 
L 267.91125 318.463125 
" style="fill: none; stroke: #ffe211; stroke-width: 1.8; stroke-linecap: square"/>
    </g>
    <g id="text_19">
     <!-- GND -->
     <g transform="translate(277.51125 322.663125) scale(0.12 -0.12)">
      <use xlink:href="#DejaVuSans-47"/>
      <use xlink:href="#DejaVuSans-4e" x="77.490234"/>
      <use xlink:href="#DejaVuSans-44" x="152.294922"/>
     </g>
    </g>
    <g id="line2d_38">
     <path d="M 243.91125 336.076875 
L 255.91125 336.076875 
L 267.91125 336.076875 
" style="fill: none; stroke: #39c5bb; stroke-width: 1.8; stroke-linecap: square"/>
    </g>
    <g id="text_20">
     <!-- BT -->
     <g transform="translate(277.51125 340.276875) scale(0.12 -0.12)">
      <defs>
       <path id="DejaVuSans-42" d="M 1259 2228 
L 1259 519 
L 2272 519 
Q 2781 519 3026 730 
Q 3272 941 3272 1375 
Q 3272 1813 3026 2020 
Q 2781 2228 2272 2228 
L 1259 2228 
z
M 1259 4147 
L 1259 2741 
L 2194 2741 
Q 2656 2741 2882 2914 
Q 3109 3088 3109 3444 
Q 3109 3797 2882 3972 
Q 2656 4147 2194 4147 
L 1259 4147 
z
M 628 4666 
L 2241 4666 
Q 2963 4666 3353 4366 
Q 3744 4066 3744 3513 
Q 3744 3084 3544 2831 
Q 3344 2578 2956 2516 
Q 3422 2416 3680 2098 
Q 3938 1781 3938 1306 
Q 3938 681 3513 340 
Q 3088 0 2303 0 
L 628 0 
L 628 4666 
z
" transform="scale(0.015625)"/>
       <path id="DejaVuSans-54" d="M -19 4666 
L 3928 4666 
L 3928 4134 
L 2272 4134 
L 2272 0 
L 1638 0 
L 1638 4134 
L -19 4134 
L -19 4666 
z
" transform="scale(0.015625)"/>
      </defs>
      <use xlink:href="#DejaVuSans-42"/>
      <use xlink:href="#DejaVuSans-54" x="68.603516"/>
     </g>
    </g>
    <g id="line2d_39">
     <path d="M 243.91125 353.690625 
L 255.91125 353.690625 
L 267.91125 353.690625 
" style="fill: none; stroke: #2a9d8f; stroke-width: 1.8; stroke-linecap: square"/>
    </g>
    <g id="text_21">
     <!-- DSTS-K -->
     <g transform="translate(277.51125 357.890625) scale(0.12 -0.12)">
      <defs>
       <path id="DejaVuSans-2d" d="M 313 2009 
L 1997 2009 
L 1997 1497 
L 313 1497 
L 313 2009 
z
" transform="scale(0.015625)"/>
       <path id="DejaVuSans-4b" d="M 628 4666 
L 1259 4666 
L 1259 2694 
L 3353 4666 
L 4166 4666 
L 1850 2491 
L 4331 0 
L 3500 0 
L 1259 2247 
L 1259 0 
L 628 0 
L 628 4666 
z
" transform="scale(0.015625)"/>
      </defs>
      <use xlink:href="#DejaVuSans-44"/>
      <use xlink:href="#DejaVuSans-53" x="77.001953"/>
      <use xlink:href="#DejaVuSans-54" x="140.478516"/>
      <use xlink:href="#DejaVuSans-53" x="201.5625"/>
      <use xlink:href="#DejaVuSans-2d" x="265.039062"/>
      <use xlink:href="#DejaVuSans-4b" x="301.123047"/>
     </g>
    </g>
    <g id="line2d_40">
     <path d="M 243.91125 371.304375 
L 255.91125 371.304375 
L 267.91125 371.304375 
" style="fill: none; stroke: #e76f51; stroke-width: 1.8; stroke-linecap: square"/>
    </g>
    <g id="text_22">
     <!-- DSTS-M -->
     <g transform="translate(277.51125 375.504375) scale(0.12 -0.12)">
      <defs>
       <path id="DejaVuSans-4d" d="M 628 4666 
L 1569 4666 
L 2759 1491 
L 3956 4666 
L 4897 4666 
L 4897 0 
L 4281 0 
L 4281 4097 
L 3078 897 
L 2444 897 
L 1241 4097 
L 1241 0 
L 628 0 
L 628 4666 
z
" transform="scale(0.015625)"/>
      </defs>
      <use xlink:href="#DejaVuSans-44"/>
      <use xlink:href="#DejaVuSans-53" x="77.001953"/>
      <use xlink:href="#DejaVuSans-54" x="140.478516"/>
      <use xlink:href="#DejaVuSans-53" x="201.5625"/>
      <use xlink:href="#DejaVuSans-2d" x="265.039062"/>
      <use xlink:href="#DejaVuSans-4d" x="301.123047"/>
     </g>
    </g>
   </g>
  </g>
 </g>
 <defs>
  <clipPath id="pb82c403ea4">
   <rect x="54" y="17.28" width="280.8" height="371.52"/>
  </clipPath>
 </defs>
</svg>
